{
  "header": {
    "keySignatures": [],
    "meta": [],
    "name": "",
    "ppq": 384,
    "tempos": [
      {
        "bpm": 96,
        "ticks": 0
      }
    ],
    "timeSignatures": [
      {
        "ticks": 0,
        "timeSignature": [
          1,
          4
        ],
        "measures": 0
      }
    ]
  },
  "tracks": [
    {
      "channel": 0,
      "controlChanges": {},
      "pitchBends": [],
      "instrument": {
        "family": "brass",
        "number": 60,
        "name": "french horn"
      },
      "name": "French Horn",
      "notes": [
        {
          "duration": 0.15625,
          "durationTicks": 96,
          "midi": 48,
          "name": "C3",
          "ticks": 12288,
          "time": 20,
          "velocity": 0.7874015748031497
        },
        {
          "duration": 0.15625,
          "durationTicks": 96,
          "midi": 48,
          "name": "C3",
          "ticks": 12288,
          "time": 20,
          "velocity": 0.7874015748031497
        },
        {
          "duration": 0.15625,
          "durationTicks": 96,
          "midi": 53,
          "name": "F3",
          "ticks": 12480,
          "time": 20.3125,
          "velocity": 0.7874015748031497
        },
        {
          "duration": 0.15625,
          "durationTicks": 96,
          "midi": 53,
          "name": "F3",
          "ticks": 12480,
          "time": 20.3125,
          "velocity": 0.7874015748031497
        },
        {
          "duration": 1.25,
          "durationTicks": 768,
          "midi": 55,
          "name": "G3",
          "ticks": 12672,
          "time": 20.625,
          "velocity": 0.7874015748031497
        },
        {
          "duration": 1.25,
          "durationTicks": 768,
          "midi": 55,
          "name": "G3",
          "ticks": 12672,
          "time": 20.625,
          "velocity": 0.7874015748031497
        },
        {
          "duration": 0.15625,
          "durationTicks": 96,
          "midi": 53,
          "name": "F3",
          "ticks": 13632,
          "time": 22.1875,
          "velocity": 0.7874015748031497
        },
        {
          "duration": 0.15625,
          "durationTicks": 96,
          "midi": 53,
          "name": "F3",
          "ticks": 13632,
          "time": 22.1875,
          "velocity": 0.7874015748031497
        },
        {
          "duration": 0.15625,
          "durationTicks": 96,
          "midi": 55,
          "name": "G3",
          "ticks": 13728,
          "time": 22.34375,
          "velocity": 0.7874015748031497
        },
        {
          "duration": 0.15625,
          "durationTicks": 96,
          "midi": 55,
          "name": "G3",
          "ticks": 13728,
          "time": 22.34375,
          "velocity": 0.7874015748031497
        },
        {
          "duration": 0.3125,
          "durationTicks": 192,
          "midi": 56,
          "name": "G#3",
          "ticks": 13824,
          "time": 22.5,
          "velocity": 0.7874015748031497
        },
        {
          "duration": 0.3125,
          "durationTicks": 192,
          "midi": 56,
          "name": "G#3",
          "ticks": 13824,
          "time": 22.5,
          "velocity": 0.7874015748031497
        },
        {
          "duration": 0.3125,
          "durationTicks": 192,
          "midi": 55,
          "name": "G3",
          "ticks": 14208,
          "time": 23.125,
          "velocity": 0.7874015748031497
        },
        {
          "duration": 0.3125,
          "durationTicks": 192,
          "midi": 55,
          "name": "G3",
          "ticks": 14208,
          "time": 23.125,
          "velocity": 0.7874015748031497
        },
        {
          "duration": 0.9375,
          "durationTicks": 576,
          "midi": 53,
          "name": "F3",
          "ticks": 14592,
          "time": 23.75,
          "velocity": 0.7874015748031497
        },
        {
          "duration": 0.9375,
          "durationTicks": 576,
          "midi": 53,
          "name": "F3",
          "ticks": 14592,
          "time": 23.75,
          "velocity": 0.7874015748031497
        },
        {
          "duration": 1.875,
          "durationTicks": 1152,
          "midi": 51,
          "name": "D#3",
          "ticks": 15360,
          "time": 25,
          "velocity": 0.7874015748031497
        },
        {
          "duration": 1.875,
          "durationTicks": 1152,
          "midi": 51,
          "name": "D#3",
          "ticks": 15360,
          "time": 25,
          "velocity": 0.7874015748031497
        },
        {
          "duration": 0.15625,
          "durationTicks": 96,
          "midi": 46,
          "name": "A#2",
          "ticks": 16704,
          "time": 27.1875,
          "velocity": 0.7874015748031497
        },
        {
          "duration": 0.15625,
          "durationTicks": 96,
          "midi": 46,
          "name": "A#2",
          "ticks": 16704,
          "time": 27.1875,
          "velocity": 0.7874015748031497
        },
        {
          "duration": 2.1875,
          "durationTicks": 1344,
          "midi": 48,
          "name": "C3",
          "ticks": 16896,
          "time": 27.5,
          "velocity": 0.7874015748031497
        },
        {
          "duration": 2.1875,
          "durationTicks": 1344,
          "midi": 48,
          "name": "C3",
          "ticks": 16896,
          "time": 27.5,
          "velocity": 0.7874015748031497
        },
        {
          "duration": 0.3125,
          "durationTicks": 192,
          "midi": 54,
          "name": "F#3",
          "ticks": 17664,
          "time": 28.75,
          "velocity": 0.7874015748031497
        },
        {
          "duration": 0.3125,
          "durationTicks": 192,
          "midi": 54,
          "name": "F#3",
          "ticks": 17664,
          "time": 28.75,
          "velocity": 0.7874015748031497
        },
        {
          "duration": 0.3125,
          "durationTicks": 192,
          "midi": 53,
          "name": "F3",
          "ticks": 18048,
          "time": 29.375,
          "velocity": 0.7874015748031497
        },
        {
          "duration": 0.3125,
          "durationTicks": 192,
          "midi": 53,
          "name": "F3",
          "ticks": 18048,
          "time": 29.375,
          "velocity": 0.7874015748031497
        },
        {
          "duration": 0.15625,
          "durationTicks": 96,
          "midi": 48,
          "name": "C3",
          "ticks": 18432,
          "time": 30,
          "velocity": 0.7874015748031497
        },
        {
          "duration": 0.15625,
          "durationTicks": 96,
          "midi": 48,
          "name": "C3",
          "ticks": 18432,
          "time": 30,
          "velocity": 0.7874015748031497
        },
        {
          "duration": 0.15625,
          "durationTicks": 96,
          "midi": 53,
          "name": "F3",
          "ticks": 18624,
          "time": 30.3125,
          "velocity": 0.7874015748031497
        },
        {
          "duration": 0.15625,
          "durationTicks": 96,
          "midi": 53,
          "name": "F3",
          "ticks": 18624,
          "time": 30.3125,
          "velocity": 0.7874015748031497
        },
        {
          "duration": 1.25,
          "durationTicks": 768,
          "midi": 55,
          "name": "G3",
          "ticks": 18816,
          "time": 30.625,
          "velocity": 0.7874015748031497
        },
        {
          "duration": 1.25,
          "durationTicks": 768,
          "midi": 55,
          "name": "G3",
          "ticks": 18816,
          "time": 30.625,
          "velocity": 0.7874015748031497
        },
        {
          "duration": 0.15625,
          "durationTicks": 96,
          "midi": 53,
          "name": "F3",
          "ticks": 19776,
          "time": 32.1875,
          "velocity": 0.7874015748031497
        },
        {
          "duration": 0.15625,
          "durationTicks": 96,
          "midi": 53,
          "name": "F3",
          "ticks": 19776,
          "time": 32.1875,
          "velocity": 0.7874015748031497
        },
        {
          "duration": 0.15625,
          "durationTicks": 96,
          "midi": 55,
          "name": "G3",
          "ticks": 19872,
          "time": 32.34375,
          "velocity": 0.7874015748031497
        },
        {
          "duration": 0.15625,
          "durationTicks": 96,
          "midi": 55,
          "name": "G3",
          "ticks": 19872,
          "time": 32.34375,
          "velocity": 0.7874015748031497
        },
        {
          "duration": 0.3125,
          "durationTicks": 192,
          "midi": 56,
          "name": "G#3",
          "ticks": 19968,
          "time": 32.5,
          "velocity": 0.7874015748031497
        },
        {
          "duration": 0.3125,
          "durationTicks": 192,
          "midi": 56,
          "name": "G#3",
          "ticks": 19968,
          "time": 32.5,
          "velocity": 0.7874015748031497
        },
        {
          "duration": 0.3125,
          "durationTicks": 192,
          "midi": 58,
          "name": "A#3",
          "ticks": 20352,
          "time": 33.125,
          "velocity": 0.7874015748031497
        },
        {
          "duration": 0.3125,
          "durationTicks": 192,
          "midi": 58,
          "name": "A#3",
          "ticks": 20352,
          "time": 33.125,
          "velocity": 0.7874015748031497
        },
        {
          "duration": 0.9375,
          "durationTicks": 576,
          "midi": 60,
          "name": "C4",
          "ticks": 20736,
          "time": 33.75,
          "velocity": 0.7874015748031497
        },
        {
          "duration": 0.9375,
          "durationTicks": 576,
          "midi": 60,
          "name": "C4",
          "ticks": 20736,
          "time": 33.75,
          "velocity": 0.7874015748031497
        },
        {
          "duration": 1.5625,
          "durationTicks": 960,
          "midi": 61,
          "name": "C#4",
          "ticks": 21504,
          "time": 35,
          "velocity": 0.7874015748031497
        },
        {
          "duration": 1.5625,
          "durationTicks": 960,
          "midi": 61,
          "name": "C#4",
          "ticks": 21504,
          "time": 35,
          "velocity": 0.7874015748031497
        },
        {
          "duration": 0.15625,
          "durationTicks": 96,
          "midi": 63,
          "name": "D#4",
          "ticks": 22656,
          "time": 36.875,
          "velocity": 0.7874015748031497
        },
        {
          "duration": 0.15625,
          "durationTicks": 96,
          "midi": 63,
          "name": "D#4",
          "ticks": 22656,
          "time": 36.875,
          "velocity": 0.7874015748031497
        },
        {
          "duration": 0.15625,
          "durationTicks": 96,
          "midi": 65,
          "name": "F4",
          "ticks": 22848,
          "time": 37.1875,
          "velocity": 0.7874015748031497
        },
        {
          "duration": 0.15625,
          "durationTicks": 96,
          "midi": 65,
          "name": "F4",
          "ticks": 22848,
          "time": 37.1875,
          "velocity": 0.7874015748031497
        },
        {
          "duration": 0.9375,
          "durationTicks": 576,
          "midi": 67,
          "name": "G4",
          "ticks": 23040,
          "time": 37.5,
          "velocity": 0.7874015748031497
        },
        {
          "duration": 0.9375,
          "durationTicks": 576,
          "midi": 67,
          "name": "G4",
          "ticks": 23040,
          "time": 37.5,
          "velocity": 0.7874015748031497
        },
        {
          "duration": 0.3125,
          "durationTicks": 192,
          "midi": 68,
          "name": "G#4",
          "ticks": 23808,
          "time": 38.75,
          "velocity": 0.7874015748031497
        },
        {
          "duration": 0.3125,
          "durationTicks": 192,
          "midi": 68,
          "name": "G#4",
          "ticks": 23808,
          "time": 38.75,
          "velocity": 0.7874015748031497
        },
        {
          "duration": 0.3125,
          "durationTicks": 192,
          "midi": 67,
          "name": "G4",
          "ticks": 24192,
          "time": 39.375,
          "velocity": 0.7874015748031497
        },
        {
          "duration": 0.3125,
          "durationTicks": 192,
          "midi": 67,
          "name": "G4",
          "ticks": 24192,
          "time": 39.375,
          "velocity": 0.7874015748031497
        },
        {
          "duration": 0.15625,
          "durationTicks": 96,
          "midi": 48,
          "name": "C3",
          "ticks": 24576,
          "time": 40,
          "velocity": 0.7874015748031497
        },
        {
          "duration": 0.15625,
          "durationTicks": 96,
          "midi": 48,
          "name": "C3",
          "ticks": 24576,
          "time": 40,
          "velocity": 0.7874015748031497
        },
        {
          "duration": 0.15625,
          "durationTicks": 96,
          "midi": 53,
          "name": "F3",
          "ticks": 24768,
          "time": 40.3125,
          "velocity": 0.7874015748031497
        },
        {
          "duration": 0.15625,
          "durationTicks": 96,
          "midi": 53,
          "name": "F3",
          "ticks": 24768,
          "time": 40.3125,
          "velocity": 0.7874015748031497
        },
        {
          "duration": 1.25,
          "durationTicks": 768,
          "midi": 55,
          "name": "G3",
          "ticks": 24960,
          "time": 40.625,
          "velocity": 0.7874015748031497
        },
        {
          "duration": 1.25,
          "durationTicks": 768,
          "midi": 55,
          "name": "G3",
          "ticks": 24960,
          "time": 40.625,
          "velocity": 0.7874015748031497
        },
        {
          "duration": 0.15625,
          "durationTicks": 96,
          "midi": 53,
          "name": "F3",
          "ticks": 25920,
          "time": 42.1875,
          "velocity": 0.7874015748031497
        },
        {
          "duration": 0.15625,
          "durationTicks": 96,
          "midi": 53,
          "name": "F3",
          "ticks": 25920,
          "time": 42.1875,
          "velocity": 0.7874015748031497
        },
        {
          "duration": 0.15625,
          "durationTicks": 96,
          "midi": 55,
          "name": "G3",
          "ticks": 26016,
          "time": 42.34375,
          "velocity": 0.7874015748031497
        },
        {
          "duration": 0.15625,
          "durationTicks": 96,
          "midi": 55,
          "name": "G3",
          "ticks": 26016,
          "time": 42.34375,
          "velocity": 0.7874015748031497
        },
        {
          "duration": 0.3125,
          "durationTicks": 192,
          "midi": 56,
          "name": "G#3",
          "ticks": 26112,
          "time": 42.5,
          "velocity": 0.7874015748031497
        },
        {
          "duration": 0.3125,
          "durationTicks": 192,
          "midi": 56,
          "name": "G#3",
          "ticks": 26112,
          "time": 42.5,
          "velocity": 0.7874015748031497
        },
        {
          "duration": 0.3125,
          "durationTicks": 192,
          "midi": 55,
          "name": "G3",
          "ticks": 26496,
          "time": 43.125,
          "velocity": 0.7874015748031497
        },
        {
          "duration": 0.3125,
          "durationTicks": 192,
          "midi": 55,
          "name": "G3",
          "ticks": 26496,
          "time": 43.125,
          "velocity": 0.7874015748031497
        },
        {
          "duration": 0.9375,
          "durationTicks": 576,
          "midi": 53,
          "name": "F3",
          "ticks": 26880,
          "time": 43.75,
          "velocity": 0.7874015748031497
        },
        {
          "duration": 0.9375,
          "durationTicks": 576,
          "midi": 53,
          "name": "F3",
          "ticks": 26880,
          "time": 43.75,
          "velocity": 0.7874015748031497
        },
        {
          "duration": 1.875,
          "durationTicks": 1152,
          "midi": 51,
          "name": "D#3",
          "ticks": 27648,
          "time": 45,
          "velocity": 0.7874015748031497
        },
        {
          "duration": 1.875,
          "durationTicks": 1152,
          "midi": 51,
          "name": "D#3",
          "ticks": 27648,
          "time": 45,
          "velocity": 0.7874015748031497
        },
        {
          "duration": 0.15625,
          "durationTicks": 96,
          "midi": 46,
          "name": "A#2",
          "ticks": 28992,
          "time": 47.1875,
          "velocity": 0.7874015748031497
        },
        {
          "duration": 0.15625,
          "durationTicks": 96,
          "midi": 46,
          "name": "A#2",
          "ticks": 28992,
          "time": 47.1875,
          "velocity": 0.7874015748031497
        },
        {
          "duration": 2.1875,
          "durationTicks": 1344,
          "midi": 48,
          "name": "C3",
          "ticks": 29184,
          "time": 47.5,
          "velocity": 0.7874015748031497
        },
        {
          "duration": 2.1875,
          "durationTicks": 1344,
          "midi": 48,
          "name": "C3",
          "ticks": 29184,
          "time": 47.5,
          "velocity": 0.7874015748031497
        },
        {
          "duration": 0.3125,
          "durationTicks": 192,
          "midi": 54,
          "name": "F#3",
          "ticks": 29952,
          "time": 48.75,
          "velocity": 0.7874015748031497
        },
        {
          "duration": 0.3125,
          "durationTicks": 192,
          "midi": 54,
          "name": "F#3",
          "ticks": 29952,
          "time": 48.75,
          "velocity": 0.7874015748031497
        },
        {
          "duration": 0.3125,
          "durationTicks": 192,
          "midi": 53,
          "name": "F3",
          "ticks": 30336,
          "time": 49.375,
          "velocity": 0.7874015748031497
        },
        {
          "duration": 0.3125,
          "durationTicks": 192,
          "midi": 53,
          "name": "F3",
          "ticks": 30336,
          "time": 49.375,
          "velocity": 0.7874015748031497
        },
        {
          "duration": 0.15625,
          "durationTicks": 96,
          "midi": 48,
          "name": "C3",
          "ticks": 30720,
          "time": 50,
          "velocity": 0.7874015748031497
        },
        {
          "duration": 0.15625,
          "durationTicks": 96,
          "midi": 48,
          "name": "C3",
          "ticks": 30720,
          "time": 50,
          "velocity": 0.7874015748031497
        },
        {
          "duration": 0.15625,
          "durationTicks": 96,
          "midi": 53,
          "name": "F3",
          "ticks": 30912,
          "time": 50.3125,
          "velocity": 0.7874015748031497
        },
        {
          "duration": 0.15625,
          "durationTicks": 96,
          "midi": 53,
          "name": "F3",
          "ticks": 30912,
          "time": 50.3125,
          "velocity": 0.7874015748031497
        },
        {
          "duration": 1.25,
          "durationTicks": 768,
          "midi": 55,
          "name": "G3",
          "ticks": 31104,
          "time": 50.625,
          "velocity": 0.7874015748031497
        },
        {
          "duration": 1.25,
          "durationTicks": 768,
          "midi": 55,
          "name": "G3",
          "ticks": 31104,
          "time": 50.625,
          "velocity": 0.7874015748031497
        },
        {
          "duration": 0.15625,
          "durationTicks": 96,
          "midi": 53,
          "name": "F3",
          "ticks": 32064,
          "time": 52.1875,
          "velocity": 0.7874015748031497
        },
        {
          "duration": 0.15625,
          "durationTicks": 96,
          "midi": 53,
          "name": "F3",
          "ticks": 32064,
          "time": 52.1875,
          "velocity": 0.7874015748031497
        },
        {
          "duration": 0.15625,
          "durationTicks": 96,
          "midi": 55,
          "name": "G3",
          "ticks": 32160,
          "time": 52.34375,
          "velocity": 0.7874015748031497
        },
        {
          "duration": 0.15625,
          "durationTicks": 96,
          "midi": 55,
          "name": "G3",
          "ticks": 32160,
          "time": 52.34375,
          "velocity": 0.7874015748031497
        },
        {
          "duration": 0.3125,
          "durationTicks": 192,
          "midi": 56,
          "name": "G#3",
          "ticks": 32256,
          "time": 52.5,
          "velocity": 0.7874015748031497
        },
        {
          "duration": 0.3125,
          "durationTicks": 192,
          "midi": 56,
          "name": "G#3",
          "ticks": 32256,
          "time": 52.5,
          "velocity": 0.7874015748031497
        },
        {
          "duration": 0.3125,
          "durationTicks": 192,
          "midi": 58,
          "name": "A#3",
          "ticks": 32640,
          "time": 53.125,
          "velocity": 0.7874015748031497
        },
        {
          "duration": 0.3125,
          "durationTicks": 192,
          "midi": 58,
          "name": "A#3",
          "ticks": 32640,
          "time": 53.125,
          "velocity": 0.7874015748031497
        },
        {
          "duration": 0.9375,
          "durationTicks": 576,
          "midi": 60,
          "name": "C4",
          "ticks": 33024,
          "time": 53.75,
          "velocity": 0.7874015748031497
        },
        {
          "duration": 0.9375,
          "durationTicks": 576,
          "midi": 60,
          "name": "C4",
          "ticks": 33024,
          "time": 53.75,
          "velocity": 0.7874015748031497
        },
        {
          "duration": 1.5625,
          "durationTicks": 960,
          "midi": 61,
          "name": "C#4",
          "ticks": 33792,
          "time": 55,
          "velocity": 0.7874015748031497
        },
        {
          "duration": 1.5625,
          "durationTicks": 960,
          "midi": 61,
          "name": "C#4",
          "ticks": 33792,
          "time": 55,
          "velocity": 0.7874015748031497
        },
        {
          "duration": 0.15625,
          "durationTicks": 96,
          "midi": 63,
          "name": "D#4",
          "ticks": 34944,
          "time": 56.875,
          "velocity": 0.7874015748031497
        },
        {
          "duration": 0.15625,
          "durationTicks": 96,
          "midi": 63,
          "name": "D#4",
          "ticks": 34944,
          "time": 56.875,
          "velocity": 0.7874015748031497
        },
        {
          "duration": 0.15625,
          "durationTicks": 96,
          "midi": 65,
          "name": "F4",
          "ticks": 35136,
          "time": 57.1875,
          "velocity": 0.7874015748031497
        },
        {
          "duration": 0.15625,
          "durationTicks": 96,
          "midi": 65,
          "name": "F4",
          "ticks": 35136,
          "time": 57.1875,
          "velocity": 0.7874015748031497
        },
        {
          "duration": 0.9375,
          "durationTicks": 576,
          "midi": 67,
          "name": "G4",
          "ticks": 35328,
          "time": 57.5,
          "velocity": 0.7874015748031497
        },
        {
          "duration": 0.9375,
          "durationTicks": 576,
          "midi": 67,
          "name": "G4",
          "ticks": 35328,
          "time": 57.5,
          "velocity": 0.7874015748031497
        },
        {
          "duration": 0.3125,
          "durationTicks": 192,
          "midi": 68,
          "name": "G#4",
          "ticks": 36096,
          "time": 58.75,
          "velocity": 0.7874015748031497
        },
        {
          "duration": 0.3125,
          "durationTicks": 192,
          "midi": 68,
          "name": "G#4",
          "ticks": 36096,
          "time": 58.75,
          "velocity": 0.7874015748031497
        },
        {
          "duration": 0.3125,
          "durationTicks": 192,
          "midi": 67,
          "name": "G4",
          "ticks": 36480,
          "time": 59.375,
          "velocity": 0.7874015748031497
        },
        {
          "duration": 0.3125,
          "durationTicks": 192,
          "midi": 67,
          "name": "G4",
          "ticks": 36480,
          "time": 59.375,
          "velocity": 0.7874015748031497
        },
        {
          "duration": 0.15625,
          "durationTicks": 96,
          "midi": 48,
          "name": "C3",
          "ticks": 36864,
          "time": 60,
          "velocity": 0.7874015748031497
        },
        {
          "duration": 0.15625,
          "durationTicks": 96,
          "midi": 48,
          "name": "C3",
          "ticks": 36864,
          "time": 60,
          "velocity": 0.7874015748031497
        },
        {
          "duration": 2.1875,
          "durationTicks": 1344,
          "midi": 48,
          "name": "C3",
          "ticks": 36864,
          "time": 60,
          "velocity": 0.7874015748031497
        },
        {
          "duration": 0.3125,
          "durationTicks": 192,
          "midi": 53,
          "name": "F3",
          "ticks": 36960,
          "time": 60.15625,
          "velocity": 0.7874015748031497
        },
        {
          "duration": 0.15625,
          "durationTicks": 96,
          "midi": 53,
          "name": "F3",
          "ticks": 37056,
          "time": 60.3125,
          "velocity": 0.7874015748031497
        },
        {
          "duration": 1.5625,
          "durationTicks": 960,
          "midi": 55,
          "name": "G3",
          "ticks": 37056,
          "time": 60.3125,
          "velocity": 0.7874015748031497
        },
        {
          "duration": 1.875,
          "durationTicks": 1152,
          "midi": 53,
          "name": "F3",
          "ticks": 37056,
          "time": 60.3125,
          "velocity": 0.7874015748031497
        },
        {
          "duration": 1.25,
          "durationTicks": 768,
          "midi": 55,
          "name": "G3",
          "ticks": 37248,
          "time": 60.625,
          "velocity": 0.7874015748031497
        },
        {
          "duration": 1.5625,
          "durationTicks": 960,
          "midi": 55,
          "name": "G3",
          "ticks": 37248,
          "time": 60.625,
          "velocity": 0.7874015748031497
        },
        {
          "duration": 0.15625,
          "durationTicks": 96,
          "midi": 53,
          "name": "F3",
          "ticks": 38208,
          "time": 62.1875,
          "velocity": 0.7874015748031497
        },
        {
          "duration": 0.15625,
          "durationTicks": 96,
          "midi": 53,
          "name": "F3",
          "ticks": 38208,
          "time": 62.1875,
          "velocity": 0.7874015748031497
        },
        {
          "duration": 0.15625,
          "durationTicks": 96,
          "midi": 55,
          "name": "G3",
          "ticks": 38304,
          "time": 62.34375,
          "velocity": 0.7874015748031497
        },
        {
          "duration": 0.15625,
          "durationTicks": 96,
          "midi": 55,
          "name": "G3",
          "ticks": 38304,
          "time": 62.34375,
          "velocity": 0.7874015748031497
        },
        {
          "duration": 2.1875,
          "durationTicks": 1344,
          "midi": 48,
          "name": "C3",
          "ticks": 38400,
          "time": 62.5,
          "velocity": 0.7874015748031497
        },
        {
          "duration": 0.3125,
          "durationTicks": 192,
          "midi": 56,
          "name": "G#3",
          "ticks": 38400,
          "time": 62.5,
          "velocity": 0.7874015748031497
        },
        {
          "duration": 0.3125,
          "durationTicks": 192,
          "midi": 56,
          "name": "G#3",
          "ticks": 38400,
          "time": 62.5,
          "velocity": 0.7874015748031497
        },
        {
          "duration": 2.03125,
          "durationTicks": 1248,
          "midi": 53,
          "name": "F3",
          "ticks": 38496,
          "time": 62.65625,
          "velocity": 0.7874015748031497
        },
        {
          "duration": 1.875,
          "durationTicks": 1152,
          "midi": 56,
          "name": "G#3",
          "ticks": 38592,
          "time": 62.8125,
          "velocity": 0.7874015748031497
        },
        {
          "duration": 0.3125,
          "durationTicks": 192,
          "midi": 55,
          "name": "G3",
          "ticks": 38784,
          "time": 63.125,
          "velocity": 0.7874015748031497
        },
        {
          "duration": 0.3125,
          "durationTicks": 192,
          "midi": 55,
          "name": "G3",
          "ticks": 38784,
          "time": 63.125,
          "velocity": 0.7874015748031497
        },
        {
          "duration": 0.9375,
          "durationTicks": 576,
          "midi": 53,
          "name": "F3",
          "ticks": 39168,
          "time": 63.75,
          "velocity": 0.7874015748031497
        },
        {
          "duration": 0.9375,
          "durationTicks": 576,
          "midi": 53,
          "name": "F3",
          "ticks": 39168,
          "time": 63.75,
          "velocity": 0.7874015748031497
        },
        {
          "duration": 2.1875,
          "durationTicks": 1344,
          "midi": 48,
          "name": "C3",
          "ticks": 39936,
          "time": 65,
          "velocity": 0.7874015748031497
        },
        {
          "duration": 1.875,
          "durationTicks": 1152,
          "midi": 51,
          "name": "D#3",
          "ticks": 39936,
          "time": 65,
          "velocity": 0.7874015748031497
        },
        {
          "duration": 1.875,
          "durationTicks": 1152,
          "midi": 51,
          "name": "D#3",
          "ticks": 39936,
          "time": 65,
          "velocity": 0.7874015748031497
        },
        {
          "duration": 2.03125,
          "durationTicks": 1248,
          "midi": 53,
          "name": "F3",
          "ticks": 40032,
          "time": 65.15625,
          "velocity": 0.7874015748031497
        },
        {
          "duration": 1.875,
          "durationTicks": 1152,
          "midi": 58,
          "name": "A#3",
          "ticks": 40128,
          "time": 65.3125,
          "velocity": 0.7874015748031497
        },
        {
          "duration": 0.15625,
          "durationTicks": 96,
          "midi": 46,
          "name": "A#2",
          "ticks": 41280,
          "time": 67.1875,
          "velocity": 0.7874015748031497
        },
        {
          "duration": 0.15625,
          "durationTicks": 96,
          "midi": 46,
          "name": "A#2",
          "ticks": 41280,
          "time": 67.1875,
          "velocity": 0.7874015748031497
        },
        {
          "duration": 0.9375,
          "durationTicks": 576,
          "midi": 48,
          "name": "C3",
          "ticks": 41472,
          "time": 67.5,
          "velocity": 0.7874015748031497
        },
        {
          "duration": 2.1875,
          "durationTicks": 1344,
          "midi": 48,
          "name": "C3",
          "ticks": 41472,
          "time": 67.5,
          "velocity": 0.7874015748031497
        },
        {
          "duration": 2.1875,
          "durationTicks": 1344,
          "midi": 48,
          "name": "C3",
          "ticks": 41472,
          "time": 67.5,
          "velocity": 0.7874015748031497
        },
        {
          "duration": 0.78125,
          "durationTicks": 480,
          "midi": 53,
          "name": "F3",
          "ticks": 41568,
          "time": 67.65625,
          "velocity": 0.7874015748031497
        },
        {
          "duration": 0.625,
          "durationTicks": 384,
          "midi": 58,
          "name": "A#3",
          "ticks": 41664,
          "time": 67.8125,
          "velocity": 0.7874015748031497
        },
        {
          "duration": 0.46875,
          "durationTicks": 288,
          "midi": 60,
          "name": "C4",
          "ticks": 41760,
          "time": 67.96875,
          "velocity": 0.7874015748031497
        },
        {
          "duration": 0.3125,
          "durationTicks": 192,
          "midi": 55,
          "name": "G3",
          "ticks": 42240,
          "time": 68.75,
          "velocity": 0.7874015748031497
        },
        {
          "duration": 0.3125,
          "durationTicks": 192,
          "midi": 55,
          "name": "G3",
          "ticks": 42240,
          "time": 68.75,
          "velocity": 0.7874015748031497
        },
        {
          "duration": 0.3125,
          "durationTicks": 192,
          "midi": 61,
          "name": "C#4",
          "ticks": 42240,
          "time": 68.75,
          "velocity": 0.7874015748031497
        },
        {
          "duration": 0.3125,
          "durationTicks": 192,
          "midi": 56,
          "name": "G#3",
          "ticks": 42624,
          "time": 69.375,
          "velocity": 0.7874015748031497
        },
        {
          "duration": 0.3125,
          "durationTicks": 192,
          "midi": 58,
          "name": "A#3",
          "ticks": 42624,
          "time": 69.375,
          "velocity": 0.7874015748031497
        },
        {
          "duration": 0.3125,
          "durationTicks": 192,
          "midi": 56,
          "name": "G#3",
          "ticks": 42624,
          "time": 69.375,
          "velocity": 0.7874015748031497
        },
        {
          "duration": 0.15625,
          "durationTicks": 96,
          "midi": 48,
          "name": "C3",
          "ticks": 43008,
          "time": 70,
          "velocity": 0.7874015748031497
        },
        {
          "duration": 0.15625,
          "durationTicks": 96,
          "midi": 48,
          "name": "C3",
          "ticks": 43008,
          "time": 70,
          "velocity": 0.7874015748031497
        },
        {
          "duration": 2.1875,
          "durationTicks": 1344,
          "midi": 48,
          "name": "C3",
          "ticks": 43008,
          "time": 70,
          "velocity": 0.7874015748031497
        },
        {
          "duration": 0.3125,
          "durationTicks": 192,
          "midi": 53,
          "name": "F3",
          "ticks": 43104,
          "time": 70.15625,
          "velocity": 0.7874015748031497
        },
        {
          "duration": 1.5625,
          "durationTicks": 960,
          "midi": 55,
          "name": "G3",
          "ticks": 43200,
          "time": 70.3125,
          "velocity": 0.7874015748031497
        },
        {
          "duration": 0.15625,
          "durationTicks": 96,
          "midi": 53,
          "name": "F3",
          "ticks": 43200,
          "time": 70.3125,
          "velocity": 0.7874015748031497
        },
        {
          "duration": 1.875,
          "durationTicks": 1152,
          "midi": 53,
          "name": "F3",
          "ticks": 43200,
          "time": 70.3125,
          "velocity": 0.7874015748031497
        },
        {
          "duration": 1.25,
          "durationTicks": 768,
          "midi": 55,
          "name": "G3",
          "ticks": 43392,
          "time": 70.625,
          "velocity": 0.7874015748031497
        },
        {
          "duration": 1.5625,
          "durationTicks": 960,
          "midi": 55,
          "name": "G3",
          "ticks": 43392,
          "time": 70.625,
          "velocity": 0.7874015748031497
        },
        {
          "duration": 0.15625,
          "durationTicks": 96,
          "midi": 53,
          "name": "F3",
          "ticks": 44352,
          "time": 72.1875,
          "velocity": 0.7874015748031497
        },
        {
          "duration": 0.15625,
          "durationTicks": 96,
          "midi": 53,
          "name": "F3",
          "ticks": 44352,
          "time": 72.1875,
          "velocity": 0.7874015748031497
        },
        {
          "duration": 0.15625,
          "durationTicks": 96,
          "midi": 55,
          "name": "G3",
          "ticks": 44448,
          "time": 72.34375,
          "velocity": 0.7874015748031497
        },
        {
          "duration": 0.15625,
          "durationTicks": 96,
          "midi": 55,
          "name": "G3",
          "ticks": 44448,
          "time": 72.34375,
          "velocity": 0.7874015748031497
        },
        {
          "duration": 0.3125,
          "durationTicks": 192,
          "midi": 56,
          "name": "G#3",
          "ticks": 44544,
          "time": 72.5,
          "velocity": 0.7874015748031497
        },
        {
          "duration": 2.1875,
          "durationTicks": 1344,
          "midi": 48,
          "name": "C3",
          "ticks": 44544,
          "time": 72.5,
          "velocity": 0.7874015748031497
        },
        {
          "duration": 0.3125,
          "durationTicks": 192,
          "midi": 56,
          "name": "G#3",
          "ticks": 44544,
          "time": 72.5,
          "velocity": 0.7874015748031497
        },
        {
          "duration": 2.03125,
          "durationTicks": 1248,
          "midi": 53,
          "name": "F3",
          "ticks": 44640,
          "time": 72.65625,
          "velocity": 0.7874015748031497
        },
        {
          "duration": 1.875,
          "durationTicks": 1152,
          "midi": 56,
          "name": "G#3",
          "ticks": 44736,
          "time": 72.8125,
          "velocity": 0.7874015748031497
        },
        {
          "duration": 0.3125,
          "durationTicks": 192,
          "midi": 58,
          "name": "A#3",
          "ticks": 44928,
          "time": 73.125,
          "velocity": 0.7874015748031497
        },
        {
          "duration": 0.3125,
          "durationTicks": 192,
          "midi": 58,
          "name": "A#3",
          "ticks": 44928,
          "time": 73.125,
          "velocity": 0.7874015748031497
        },
        {
          "duration": 0.9375,
          "durationTicks": 576,
          "midi": 60,
          "name": "C4",
          "ticks": 45312,
          "time": 73.75,
          "velocity": 0.7874015748031497
        },
        {
          "duration": 0.9375,
          "durationTicks": 576,
          "midi": 60,
          "name": "C4",
          "ticks": 45312,
          "time": 73.75,
          "velocity": 0.7874015748031497
        },
        {
          "duration": 1.5625,
          "durationTicks": 960,
          "midi": 61,
          "name": "C#4",
          "ticks": 46080,
          "time": 75,
          "velocity": 0.7874015748031497
        },
        {
          "duration": 2.1875,
          "durationTicks": 1344,
          "midi": 48,
          "name": "C3",
          "ticks": 46080,
          "time": 75,
          "velocity": 0.7874015748031497
        },
        {
          "duration": 1.5625,
          "durationTicks": 960,
          "midi": 61,
          "name": "C#4",
          "ticks": 46080,
          "time": 75,
          "velocity": 0.7874015748031497
        },
        {
          "duration": 2.03125,
          "durationTicks": 1248,
          "midi": 53,
          "name": "F3",
          "ticks": 46176,
          "time": 75.15625,
          "velocity": 0.7874015748031497
        },
        {
          "duration": 1.875,
          "durationTicks": 1152,
          "midi": 58,
          "name": "A#3",
          "ticks": 46272,
          "time": 75.3125,
          "velocity": 0.7874015748031497
        },
        {
          "duration": 0.15625,
          "durationTicks": 96,
          "midi": 65,
          "name": "F4",
          "ticks": 47232,
          "time": 76.875,
          "velocity": 0.7874015748031497
        },
        {
          "duration": 0.15625,
          "durationTicks": 96,
          "midi": 65,
          "name": "F4",
          "ticks": 47232,
          "time": 76.875,
          "velocity": 0.7874015748031497
        },
        {
          "duration": 0.15625,
          "durationTicks": 96,
          "midi": 67,
          "name": "G4",
          "ticks": 47424,
          "time": 77.1875,
          "velocity": 0.7874015748031497
        },
        {
          "duration": 0.15625,
          "durationTicks": 96,
          "midi": 67,
          "name": "G4",
          "ticks": 47424,
          "time": 77.1875,
          "velocity": 0.7874015748031497
        },
        {
          "duration": 0.9375,
          "durationTicks": 576,
          "midi": 68,
          "name": "G#4",
          "ticks": 47616,
          "time": 77.5,
          "velocity": 0.7874015748031497
        },
        {
          "duration": 0.9375,
          "durationTicks": 576,
          "midi": 48,
          "name": "C3",
          "ticks": 47616,
          "time": 77.5,
          "velocity": 0.7874015748031497
        },
        {
          "duration": 0.9375,
          "durationTicks": 576,
          "midi": 68,
          "name": "G#4",
          "ticks": 47616,
          "time": 77.5,
          "velocity": 0.7874015748031497
        },
        {
          "duration": 0.78125,
          "durationTicks": 480,
          "midi": 53,
          "name": "F3",
          "ticks": 47712,
          "time": 77.65625,
          "velocity": 0.7874015748031497
        },
        {
          "duration": 0.625,
          "durationTicks": 384,
          "midi": 58,
          "name": "A#3",
          "ticks": 47808,
          "time": 77.8125,
          "velocity": 0.7874015748031497
        },
        {
          "duration": 0.46875,
          "durationTicks": 288,
          "midi": 60,
          "name": "C4",
          "ticks": 47904,
          "time": 77.96875,
          "velocity": 0.7874015748031497
        },
        {
          "duration": 0.3125,
          "durationTicks": 192,
          "midi": 67,
          "name": "G4",
          "ticks": 48384,
          "time": 78.75,
          "velocity": 0.7874015748031497
        },
        {
          "duration": 0.3125,
          "durationTicks": 192,
          "midi": 67,
          "name": "G4",
          "ticks": 48384,
          "time": 78.75,
          "velocity": 0.7874015748031497
        },
        {
          "duration": 0.3125,
          "durationTicks": 192,
          "midi": 61,
          "name": "C#4",
          "ticks": 48384,
          "time": 78.75,
          "velocity": 0.7874015748031497
        },
        {
          "duration": 0.3125,
          "durationTicks": 192,
          "midi": 60,
          "name": "C4",
          "ticks": 48768,
          "time": 79.375,
          "velocity": 0.7874015748031497
        },
        {
          "duration": 0.3125,
          "durationTicks": 192,
          "midi": 58,
          "name": "A#3",
          "ticks": 48768,
          "time": 79.375,
          "velocity": 0.7874015748031497
        },
        {
          "duration": 0.3125,
          "durationTicks": 192,
          "midi": 60,
          "name": "C4",
          "ticks": 48768,
          "time": 79.375,
          "velocity": 0.7874015748031497
        },
        {
          "duration": 0.15625,
          "durationTicks": 96,
          "midi": 48,
          "name": "C3",
          "ticks": 49152,
          "time": 80,
          "velocity": 0.7874015748031497
        },
        {
          "duration": 0.15625,
          "durationTicks": 96,
          "midi": 48,
          "name": "C3",
          "ticks": 49152,
          "time": 80,
          "velocity": 0.7874015748031497
        },
        {
          "duration": 2.1875,
          "durationTicks": 1344,
          "midi": 46,
          "name": "A#2",
          "ticks": 49152,
          "time": 80,
          "velocity": 0.7874015748031497
        },
        {
          "duration": 2.03125,
          "durationTicks": 1248,
          "midi": 51,
          "name": "D#3",
          "ticks": 49248,
          "time": 80.15625,
          "velocity": 0.7874015748031497
        },
        {
          "duration": 1.875,
          "durationTicks": 1152,
          "midi": 53,
          "name": "F3",
          "ticks": 49344,
          "time": 80.3125,
          "velocity": 0.7874015748031497
        },
        {
          "duration": 2.1875,
          "durationTicks": 1344,
          "midi": 48,
          "name": "C3",
          "ticks": 50688,
          "time": 82.5,
          "velocity": 0.7874015748031497
        },
        {
          "duration": 2.03125,
          "durationTicks": 1248,
          "midi": 53,
          "name": "F3",
          "ticks": 50784,
          "time": 82.65625,
          "velocity": 0.7874015748031497
        },
        {
          "duration": 1.875,
          "durationTicks": 1152,
          "midi": 56,
          "name": "G#3",
          "ticks": 50880,
          "time": 82.8125,
          "velocity": 0.7874015748031497
        },
        {
          "duration": 2.1875,
          "durationTicks": 1344,
          "midi": 45,
          "name": "A2",
          "ticks": 52224,
          "time": 85,
          "velocity": 0.7874015748031497
        },
        {
          "duration": 2.03125,
          "durationTicks": 1248,
          "midi": 50,
          "name": "D3",
          "ticks": 52320,
          "time": 85.15625,
          "velocity": 0.7874015748031497
        },
        {
          "duration": 1.875,
          "durationTicks": 1152,
          "midi": 55,
          "name": "G3",
          "ticks": 52416,
          "time": 85.3125,
          "velocity": 0.7874015748031497
        },
        {
          "duration": 0.9375,
          "durationTicks": 576,
          "midi": 46,
          "name": "A#2",
          "ticks": 53760,
          "time": 87.5,
          "velocity": 0.7874015748031497
        },
        {
          "duration": 0.78125,
          "durationTicks": 480,
          "midi": 51,
          "name": "D#3",
          "ticks": 53856,
          "time": 87.65625,
          "velocity": 0.7874015748031497
        },
        {
          "duration": 0.625,
          "durationTicks": 384,
          "midi": 56,
          "name": "G#3",
          "ticks": 53952,
          "time": 87.8125,
          "velocity": 0.7874015748031497
        },
        {
          "duration": 0.46875,
          "durationTicks": 288,
          "midi": 58,
          "name": "A#3",
          "ticks": 54048,
          "time": 87.96875,
          "velocity": 0.7874015748031497
        },
        {
          "duration": 0.3125,
          "durationTicks": 192,
          "midi": 60,
          "name": "C4",
          "ticks": 54528,
          "time": 88.75,
          "velocity": 0.7874015748031497
        },
        {
          "duration": 0.3125,
          "durationTicks": 192,
          "midi": 61,
          "name": "C#4",
          "ticks": 54912,
          "time": 89.375,
          "velocity": 0.7874015748031497
        },
        {
          "duration": 0.15625,
          "durationTicks": 96,
          "midi": 60,
          "name": "C4",
          "ticks": 55296,
          "time": 90,
          "velocity": 0.7874015748031497
        },
        {
          "duration": 0.15625,
          "durationTicks": 96,
          "midi": 48,
          "name": "C3",
          "ticks": 55296,
          "time": 90,
          "velocity": 0.7874015748031497
        },
        {
          "duration": 0.15625,
          "durationTicks": 96,
          "midi": 48,
          "name": "C3",
          "ticks": 55296,
          "time": 90,
          "velocity": 0.7874015748031497
        },
        {
          "duration": 0.15625,
          "durationTicks": 96,
          "midi": 60,
          "name": "C4",
          "ticks": 55584,
          "time": 90.46875,
          "velocity": 0.7874015748031497
        },
        {
          "duration": 0.625,
          "durationTicks": 384,
          "midi": 60,
          "name": "C4",
          "ticks": 55872,
          "time": 90.9375,
          "velocity": 0.7874015748031497
        },
        {
          "duration": 0.15625,
          "durationTicks": 96,
          "midi": 60,
          "name": "C4",
          "ticks": 56832,
          "time": 92.5,
          "velocity": 0.7874015748031497
        },
        {
          "duration": 0.15625,
          "durationTicks": 96,
          "midi": 49,
          "name": "C#3",
          "ticks": 56832,
          "time": 92.5,
          "velocity": 0.7874015748031497
        },
        {
          "duration": 0.15625,
          "durationTicks": 96,
          "midi": 49,
          "name": "C#3",
          "ticks": 56832,
          "time": 92.5,
          "velocity": 0.7874015748031497
        },
        {
          "duration": 0.15625,
          "durationTicks": 96,
          "midi": 60,
          "name": "C4",
          "ticks": 57120,
          "time": 92.96875,
          "velocity": 0.7874015748031497
        },
        {
          "duration": 0.15625,
          "durationTicks": 96,
          "midi": 60,
          "name": "C4",
          "ticks": 57216,
          "time": 93.125,
          "velocity": 0.7874015748031497
        },
        {
          "duration": 0.3125,
          "durationTicks": 192,
          "midi": 61,
          "name": "C#4",
          "ticks": 57408,
          "time": 93.4375,
          "velocity": 0.7874015748031497
        },
        {
          "duration": 0.15625,
          "durationTicks": 96,
          "midi": 58,
          "name": "A#3",
          "ticks": 57984,
          "time": 94.375,
          "velocity": 0.7874015748031497
        },
        {
          "duration": 0.15625,
          "durationTicks": 96,
          "midi": 51,
          "name": "D#3",
          "ticks": 58368,
          "time": 95,
          "velocity": 0.7874015748031497
        },
        {
          "duration": 0.15625,
          "durationTicks": 96,
          "midi": 60,
          "name": "C4",
          "ticks": 58368,
          "time": 95,
          "velocity": 0.7874015748031497
        },
        {
          "duration": 0.15625,
          "durationTicks": 96,
          "midi": 51,
          "name": "D#3",
          "ticks": 58368,
          "time": 95,
          "velocity": 0.7874015748031497
        },
        {
          "duration": 0.15625,
          "durationTicks": 96,
          "midi": 61,
          "name": "C#4",
          "ticks": 58656,
          "time": 95.46875,
          "velocity": 0.7874015748031497
        },
        {
          "duration": 0.625,
          "durationTicks": 384,
          "midi": 63,
          "name": "D#4",
          "ticks": 58944,
          "time": 95.9375,
          "velocity": 0.7795275590551181
        },
        {
          "duration": 0.15625,
          "durationTicks": 96,
          "midi": 65,
          "name": "F4",
          "ticks": 59520,
          "time": 96.875,
          "velocity": 0.7874015748031497
        },
        {
          "duration": 0.15625,
          "durationTicks": 96,
          "midi": 65,
          "name": "F4",
          "ticks": 59520,
          "time": 96.875,
          "velocity": 0.7874015748031497
        },
        {
          "duration": 0.15625,
          "durationTicks": 96,
          "midi": 67,
          "name": "G4",
          "ticks": 59712,
          "time": 97.1875,
          "velocity": 0.7874015748031497
        },
        {
          "duration": 0.15625,
          "durationTicks": 96,
          "midi": 67,
          "name": "G4",
          "ticks": 59712,
          "time": 97.1875,
          "velocity": 0.7874015748031497
        },
        {
          "duration": 0.9375,
          "durationTicks": 576,
          "midi": 68,
          "name": "G#4",
          "ticks": 59904,
          "time": 97.5,
          "velocity": 0.7874015748031497
        },
        {
          "duration": 0.9375,
          "durationTicks": 576,
          "midi": 68,
          "name": "G#4",
          "ticks": 59904,
          "time": 97.5,
          "velocity": 0.7874015748031497
        },
        {
          "duration": 0.15625,
          "durationTicks": 96,
          "midi": 60,
          "name": "C4",
          "ticks": 59904,
          "time": 97.5,
          "velocity": 0.7874015748031497
        },
        {
          "duration": 0.15625,
          "durationTicks": 96,
          "midi": 60,
          "name": "C4",
          "ticks": 60192,
          "time": 97.96875,
          "velocity": 0.7874015748031497
        },
        {
          "duration": 0.15625,
          "durationTicks": 96,
          "midi": 60,
          "name": "C4",
          "ticks": 60288,
          "time": 98.125,
          "velocity": 0.7874015748031497
        },
        {
          "duration": 0.3125,
          "durationTicks": 192,
          "midi": 61,
          "name": "C#4",
          "ticks": 60480,
          "time": 98.4375,
          "velocity": 0.7874015748031497
        },
        {
          "duration": 0.3125,
          "durationTicks": 192,
          "midi": 67,
          "name": "G4",
          "ticks": 60672,
          "time": 98.75,
          "velocity": 0.7874015748031497
        },
        {
          "duration": 0.3125,
          "durationTicks": 192,
          "midi": 67,
          "name": "G4",
          "ticks": 60672,
          "time": 98.75,
          "velocity": 0.7874015748031497
        },
        {
          "duration": 0.3125,
          "durationTicks": 192,
          "midi": 60,
          "name": "C4",
          "ticks": 61056,
          "time": 99.375,
          "velocity": 0.7874015748031497
        },
        {
          "duration": 0.3125,
          "durationTicks": 192,
          "midi": 63,
          "name": "D#4",
          "ticks": 61056,
          "time": 99.375,
          "velocity": 0.7795275590551181
        },
        {
          "duration": 0.3125,
          "durationTicks": 192,
          "midi": 60,
          "name": "C4",
          "ticks": 61056,
          "time": 99.375,
          "velocity": 0.7874015748031497
        },
        {
          "duration": 0.15625,
          "durationTicks": 96,
          "midi": 48,
          "name": "C3",
          "ticks": 61440,
          "time": 100,
          "velocity": 0.7874015748031497
        },
        {
          "duration": 0.15625,
          "durationTicks": 96,
          "midi": 48,
          "name": "C3",
          "ticks": 61440,
          "time": 100,
          "velocity": 0.7874015748031497
        },
        {
          "duration": 1.09375,
          "durationTicks": 672,
          "midi": 48,
          "name": "C3",
          "ticks": 61440,
          "time": 100,
          "velocity": 0.7874015748031497
        },
        {
          "duration": 0.15625,
          "durationTicks": 96,
          "midi": 60,
          "name": "C4",
          "ticks": 61440,
          "time": 100,
          "velocity": 0.7874015748031497
        },
        {
          "duration": 0.3125,
          "durationTicks": 192,
          "midi": 53,
          "name": "F3",
          "ticks": 61536,
          "time": 100.15625,
          "velocity": 0.7874015748031497
        },
        {
          "duration": 0.15625,
          "durationTicks": 96,
          "midi": 53,
          "name": "F3",
          "ticks": 61632,
          "time": 100.3125,
          "velocity": 0.7874015748031497
        },
        {
          "duration": 0.46875,
          "durationTicks": 288,
          "midi": 55,
          "name": "G3",
          "ticks": 61632,
          "time": 100.3125,
          "velocity": 0.7874015748031497
        },
        {
          "duration": 0.15625,
          "durationTicks": 96,
          "midi": 65,
          "name": "F4",
          "ticks": 61632,
          "time": 100.3125,
          "velocity": 0.7874015748031497
        },
        {
          "duration": 1.09375,
          "durationTicks": 672,
          "midi": 53,
          "name": "F3",
          "ticks": 61632,
          "time": 100.3125,
          "velocity": 0.7874015748031497
        },
        {
          "duration": 0.15625,
          "durationTicks": 96,
          "midi": 55,
          "name": "G3",
          "ticks": 61824,
          "time": 100.625,
          "velocity": 0.7874015748031497
        },
        {
          "duration": 1.5625,
          "durationTicks": 960,
          "midi": 67,
          "name": "G4",
          "ticks": 61824,
          "time": 100.625,
          "velocity": 0.7874015748031497
        },
        {
          "duration": 1.09375,
          "durationTicks": 672,
          "midi": 55,
          "name": "G3",
          "ticks": 61824,
          "time": 100.625,
          "velocity": 0.7874015748031497
        },
        {
          "duration": 0.15625,
          "durationTicks": 96,
          "midi": 48,
          "name": "C3",
          "ticks": 62016,
          "time": 100.9375,
          "velocity": 0.7874015748031497
        },
        {
          "duration": 1.09375,
          "durationTicks": 672,
          "midi": 48,
          "name": "C3",
          "ticks": 62016,
          "time": 100.9375,
          "velocity": 0.7874015748031497
        },
        {
          "duration": 0.15625,
          "durationTicks": 96,
          "midi": 53,
          "name": "F3",
          "ticks": 62208,
          "time": 101.25,
          "velocity": 0.7874015748031497
        },
        {
          "duration": 0.9375,
          "durationTicks": 576,
          "midi": 53,
          "name": "F3",
          "ticks": 62208,
          "time": 101.25,
          "velocity": 0.7874015748031497
        },
        {
          "duration": 0.15625,
          "durationTicks": 96,
          "midi": 55,
          "name": "G3",
          "ticks": 62400,
          "time": 101.5625,
          "velocity": 0.7874015748031497
        },
        {
          "duration": 0.625,
          "durationTicks": 384,
          "midi": 55,
          "name": "G3",
          "ticks": 62400,
          "time": 101.5625,
          "velocity": 0.7874015748031497
        },
        {
          "duration": 0.15625,
          "durationTicks": 96,
          "midi": 48,
          "name": "C3",
          "ticks": 62592,
          "time": 101.875,
          "velocity": 0.7874015748031497
        },
        {
          "duration": 0.3125,
          "durationTicks": 192,
          "midi": 48,
          "name": "C3",
          "ticks": 62592,
          "time": 101.875,
          "velocity": 0.7874015748031497
        },
        {
          "duration": 0.15625,
          "durationTicks": 96,
          "midi": 53,
          "name": "F3",
          "ticks": 62784,
          "time": 102.1875,
          "velocity": 0.7874015748031497
        },
        {
          "duration": 0.15625,
          "durationTicks": 96,
          "midi": 53,
          "name": "F3",
          "ticks": 62784,
          "time": 102.1875,
          "velocity": 0.7874015748031497
        },
        {
          "duration": 0.15625,
          "durationTicks": 96,
          "midi": 60,
          "name": "C4",
          "ticks": 62976,
          "time": 102.5,
          "velocity": 0.7874015748031497
        },
        {
          "duration": 0.15625,
          "durationTicks": 96,
          "midi": 48,
          "name": "C3",
          "ticks": 62976,
          "time": 102.5,
          "velocity": 0.7874015748031497
        },
        {
          "duration": 0.15625,
          "durationTicks": 96,
          "midi": 48,
          "name": "C3",
          "ticks": 62976,
          "time": 102.5,
          "velocity": 0.7874015748031497
        },
        {
          "duration": 1.09375,
          "durationTicks": 672,
          "midi": 48,
          "name": "C3",
          "ticks": 62976,
          "time": 102.5,
          "velocity": 0.7874015748031497
        },
        {
          "duration": 0.3125,
          "durationTicks": 192,
          "midi": 53,
          "name": "F3",
          "ticks": 63072,
          "time": 102.65625,
          "velocity": 0.7874015748031497
        },
        {
          "duration": 0.46875,
          "durationTicks": 288,
          "midi": 56,
          "name": "G#3",
          "ticks": 63168,
          "time": 102.8125,
          "velocity": 0.7874015748031497
        },
        {
          "duration": 0.15625,
          "durationTicks": 96,
          "midi": 53,
          "name": "F3",
          "ticks": 63168,
          "time": 102.8125,
          "velocity": 0.7874015748031497
        },
        {
          "duration": 1.09375,
          "durationTicks": 672,
          "midi": 53,
          "name": "F3",
          "ticks": 63168,
          "time": 102.8125,
          "velocity": 0.7874015748031497
        },
        {
          "duration": 0.15625,
          "durationTicks": 96,
          "midi": 65,
          "name": "F4",
          "ticks": 63168,
          "time": 102.8125,
          "velocity": 0.7874015748031497
        },
        {
          "duration": 1.5625,
          "durationTicks": 960,
          "midi": 68,
          "name": "G#4",
          "ticks": 63360,
          "time": 103.125,
          "velocity": 0.7874015748031497
        },
        {
          "duration": 0.15625,
          "durationTicks": 96,
          "midi": 56,
          "name": "G#3",
          "ticks": 63360,
          "time": 103.125,
          "velocity": 0.7874015748031497
        },
        {
          "duration": 1.09375,
          "durationTicks": 672,
          "midi": 56,
          "name": "G#3",
          "ticks": 63360,
          "time": 103.125,
          "velocity": 0.7874015748031497
        },
        {
          "duration": 0.15625,
          "durationTicks": 96,
          "midi": 48,
          "name": "C3",
          "ticks": 63552,
          "time": 103.4375,
          "velocity": 0.7874015748031497
        },
        {
          "duration": 1.09375,
          "durationTicks": 672,
          "midi": 48,
          "name": "C3",
          "ticks": 63552,
          "time": 103.4375,
          "velocity": 0.7874015748031497
        },
        {
          "duration": 0.15625,
          "durationTicks": 96,
          "midi": 53,
          "name": "F3",
          "ticks": 63744,
          "time": 103.75,
          "velocity": 0.7874015748031497
        },
        {
          "duration": 0.9375,
          "durationTicks": 576,
          "midi": 53,
          "name": "F3",
          "ticks": 63744,
          "time": 103.75,
          "velocity": 0.7874015748031497
        },
        {
          "duration": 0.15625,
          "durationTicks": 96,
          "midi": 56,
          "name": "G#3",
          "ticks": 63936,
          "time": 104.0625,
          "velocity": 0.7874015748031497
        },
        {
          "duration": 0.625,
          "durationTicks": 384,
          "midi": 56,
          "name": "G#3",
          "ticks": 63936,
          "time": 104.0625,
          "velocity": 0.7874015748031497
        },
        {
          "duration": 0.15625,
          "durationTicks": 96,
          "midi": 48,
          "name": "C3",
          "ticks": 64128,
          "time": 104.375,
          "velocity": 0.7874015748031497
        },
        {
          "duration": 0.3125,
          "durationTicks": 192,
          "midi": 48,
          "name": "C3",
          "ticks": 64128,
          "time": 104.375,
          "velocity": 0.7874015748031497
        },
        {
          "duration": 0.15625,
          "durationTicks": 96,
          "midi": 53,
          "name": "F3",
          "ticks": 64320,
          "time": 104.6875,
          "velocity": 0.7874015748031497
        },
        {
          "duration": 0.15625,
          "durationTicks": 96,
          "midi": 53,
          "name": "F3",
          "ticks": 64320,
          "time": 104.6875,
          "velocity": 0.7874015748031497
        },
        {
          "duration": 0.15625,
          "durationTicks": 96,
          "midi": 48,
          "name": "C3",
          "ticks": 64512,
          "time": 105,
          "velocity": 0.7874015748031497
        },
        {
          "duration": 0.15625,
          "durationTicks": 96,
          "midi": 60,
          "name": "C4",
          "ticks": 64512,
          "time": 105,
          "velocity": 0.7874015748031497
        },
        {
          "duration": 0.15625,
          "durationTicks": 96,
          "midi": 48,
          "name": "C3",
          "ticks": 64512,
          "time": 105,
          "velocity": 0.7874015748031497
        },
        {
          "duration": 1.09375,
          "durationTicks": 672,
          "midi": 48,
          "name": "C3",
          "ticks": 64512,
          "time": 105,
          "velocity": 0.7874015748031497
        },
        {
          "duration": 0.3125,
          "durationTicks": 192,
          "midi": 53,
          "name": "F3",
          "ticks": 64608,
          "time": 105.15625,
          "velocity": 0.7874015748031497
        },
        {
          "duration": 0.46875,
          "durationTicks": 288,
          "midi": 58,
          "name": "A#3",
          "ticks": 64704,
          "time": 105.3125,
          "velocity": 0.7874015748031497
        },
        {
          "duration": 0.15625,
          "durationTicks": 96,
          "midi": 53,
          "name": "F3",
          "ticks": 64704,
          "time": 105.3125,
          "velocity": 0.7874015748031497
        },
        {
          "duration": 1.09375,
          "durationTicks": 672,
          "midi": 53,
          "name": "F3",
          "ticks": 64704,
          "time": 105.3125,
          "velocity": 0.7874015748031497
        },
        {
          "duration": 0.15625,
          "durationTicks": 96,
          "midi": 65,
          "name": "F4",
          "ticks": 64704,
          "time": 105.3125,
          "velocity": 0.7874015748031497
        },
        {
          "duration": 1.5625,
          "durationTicks": 960,
          "midi": 67,
          "name": "G4",
          "ticks": 64896,
          "time": 105.625,
          "velocity": 0.7874015748031497
        },
        {
          "duration": 0.15625,
          "durationTicks": 96,
          "midi": 58,
          "name": "A#3",
          "ticks": 64896,
          "time": 105.625,
          "velocity": 0.7874015748031497
        },
        {
          "duration": 1.09375,
          "durationTicks": 672,
          "midi": 58,
          "name": "A#3",
          "ticks": 64896,
          "time": 105.625,
          "velocity": 0.7874015748031497
        },
        {
          "duration": 0.15625,
          "durationTicks": 96,
          "midi": 48,
          "name": "C3",
          "ticks": 65088,
          "time": 105.9375,
          "velocity": 0.7874015748031497
        },
        {
          "duration": 1.09375,
          "durationTicks": 672,
          "midi": 48,
          "name": "C3",
          "ticks": 65088,
          "time": 105.9375,
          "velocity": 0.7874015748031497
        },
        {
          "duration": 0.15625,
          "durationTicks": 96,
          "midi": 53,
          "name": "F3",
          "ticks": 65280,
          "time": 106.25,
          "velocity": 0.7874015748031497
        },
        {
          "duration": 0.9375,
          "durationTicks": 576,
          "midi": 53,
          "name": "F3",
          "ticks": 65280,
          "time": 106.25,
          "velocity": 0.7874015748031497
        },
        {
          "duration": 0.15625,
          "durationTicks": 96,
          "midi": 58,
          "name": "A#3",
          "ticks": 65472,
          "time": 106.5625,
          "velocity": 0.7874015748031497
        },
        {
          "duration": 0.625,
          "durationTicks": 384,
          "midi": 58,
          "name": "A#3",
          "ticks": 65472,
          "time": 106.5625,
          "velocity": 0.7874015748031497
        },
        {
          "duration": 0.15625,
          "durationTicks": 96,
          "midi": 48,
          "name": "C3",
          "ticks": 65664,
          "time": 106.875,
          "velocity": 0.7874015748031497
        },
        {
          "duration": 0.3125,
          "durationTicks": 192,
          "midi": 48,
          "name": "C3",
          "ticks": 65664,
          "time": 106.875,
          "velocity": 0.7874015748031497
        },
        {
          "duration": 0.15625,
          "durationTicks": 96,
          "midi": 53,
          "name": "F3",
          "ticks": 65856,
          "time": 107.1875,
          "velocity": 0.7874015748031497
        },
        {
          "duration": 0.15625,
          "durationTicks": 96,
          "midi": 53,
          "name": "F3",
          "ticks": 65856,
          "time": 107.1875,
          "velocity": 0.7874015748031497
        },
        {
          "duration": 0.15625,
          "durationTicks": 96,
          "midi": 60,
          "name": "C4",
          "ticks": 66048,
          "time": 107.5,
          "velocity": 0.7874015748031497
        },
        {
          "duration": 0.15625,
          "durationTicks": 96,
          "midi": 48,
          "name": "C3",
          "ticks": 66048,
          "time": 107.5,
          "velocity": 0.7874015748031497
        },
        {
          "duration": 0.15625,
          "durationTicks": 96,
          "midi": 48,
          "name": "C3",
          "ticks": 66048,
          "time": 107.5,
          "velocity": 0.7874015748031497
        },
        {
          "duration": 1.09375,
          "durationTicks": 672,
          "midi": 48,
          "name": "C3",
          "ticks": 66048,
          "time": 107.5,
          "velocity": 0.7874015748031497
        },
        {
          "duration": 0.3125,
          "durationTicks": 192,
          "midi": 53,
          "name": "F3",
          "ticks": 66144,
          "time": 107.65625,
          "velocity": 0.7874015748031497
        },
        {
          "duration": 0.15625,
          "durationTicks": 96,
          "midi": 53,
          "name": "F3",
          "ticks": 66240,
          "time": 107.8125,
          "velocity": 0.7874015748031497
        },
        {
          "duration": 0.46875,
          "durationTicks": 288,
          "midi": 58,
          "name": "A#3",
          "ticks": 66240,
          "time": 107.8125,
          "velocity": 0.7874015748031497
        },
        {
          "duration": 0.15625,
          "durationTicks": 96,
          "midi": 67,
          "name": "G4",
          "ticks": 66240,
          "time": 107.8125,
          "velocity": 0.7874015748031497
        },
        {
          "duration": 1.09375,
          "durationTicks": 672,
          "midi": 53,
          "name": "F3",
          "ticks": 66240,
          "time": 107.8125,
          "velocity": 0.7874015748031497
        },
        {
          "duration": 1.40625,
          "durationTicks": 864,
          "midi": 60,
          "name": "C4",
          "ticks": 66336,
          "time": 107.96875,
          "velocity": 0.7874015748031497
        },
        {
          "duration": 0.15625,
          "durationTicks": 96,
          "midi": 58,
          "name": "A#3",
          "ticks": 66432,
          "time": 108.125,
          "velocity": 0.7874015748031497
        },
        {
          "duration": 1.5625,
          "durationTicks": 960,
          "midi": 72,
          "name": "C5",
          "ticks": 66432,
          "time": 108.125,
          "velocity": 0.7874015748031497
        },
        {
          "duration": 1.09375,
          "durationTicks": 672,
          "midi": 58,
          "name": "A#3",
          "ticks": 66432,
          "time": 108.125,
          "velocity": 0.7874015748031497
        },
        {
          "duration": 0.15625,
          "durationTicks": 96,
          "midi": 48,
          "name": "C3",
          "ticks": 66624,
          "time": 108.4375,
          "velocity": 0.7874015748031497
        },
        {
          "duration": 0.9375,
          "durationTicks": 576,
          "midi": 48,
          "name": "C3",
          "ticks": 66624,
          "time": 108.4375,
          "velocity": 0.7874015748031497
        },
        {
          "duration": 0.15625,
          "durationTicks": 96,
          "midi": 53,
          "name": "F3",
          "ticks": 66816,
          "time": 108.75,
          "velocity": 0.7874015748031497
        },
        {
          "duration": 0.625,
          "durationTicks": 384,
          "midi": 53,
          "name": "F3",
          "ticks": 66816,
          "time": 108.75,
          "velocity": 0.7874015748031497
        },
        {
          "duration": 0.15625,
          "durationTicks": 96,
          "midi": 58,
          "name": "A#3",
          "ticks": 67008,
          "time": 109.0625,
          "velocity": 0.7874015748031497
        },
        {
          "duration": 0.3125,
          "durationTicks": 192,
          "midi": 58,
          "name": "A#3",
          "ticks": 67008,
          "time": 109.0625,
          "velocity": 0.7874015748031497
        },
        {
          "duration": 0.15625,
          "durationTicks": 96,
          "midi": 56,
          "name": "G#3",
          "ticks": 67200,
          "time": 109.375,
          "velocity": 0.7874015748031497
        },
        {
          "duration": 0.15625,
          "durationTicks": 96,
          "midi": 56,
          "name": "G#3",
          "ticks": 67200,
          "time": 109.375,
          "velocity": 0.7874015748031497
        },
        {
          "duration": 0.15625,
          "durationTicks": 96,
          "midi": 55,
          "name": "G3",
          "ticks": 67392,
          "time": 109.6875,
          "velocity": 0.7874015748031497
        },
        {
          "duration": 0.15625,
          "durationTicks": 96,
          "midi": 55,
          "name": "G3",
          "ticks": 67392,
          "time": 109.6875,
          "velocity": 0.7874015748031497
        },
        {
          "duration": 0.15625,
          "durationTicks": 96,
          "midi": 48,
          "name": "C3",
          "ticks": 67584,
          "time": 110,
          "velocity": 0.7874015748031497
        },
        {
          "duration": 0.15625,
          "durationTicks": 96,
          "midi": 48,
          "name": "C3",
          "ticks": 67584,
          "time": 110,
          "velocity": 0.7874015748031497
        },
        {
          "duration": 0.15625,
          "durationTicks": 96,
          "midi": 60,
          "name": "C4",
          "ticks": 67584,
          "time": 110,
          "velocity": 0.7874015748031497
        },
        {
          "duration": 0.15625,
          "durationTicks": 96,
          "midi": 60,
          "name": "C4",
          "ticks": 67584,
          "time": 110,
          "velocity": 0.7874015748031497
        },
        {
          "duration": 0.15625,
          "durationTicks": 96,
          "midi": 65,
          "name": "F4",
          "ticks": 67776,
          "time": 110.3125,
          "velocity": 0.7874015748031497
        },
        {
          "duration": 0.15625,
          "durationTicks": 96,
          "midi": 53,
          "name": "F3",
          "ticks": 67776,
          "time": 110.3125,
          "velocity": 0.7874015748031497
        },
        {
          "duration": 0.15625,
          "durationTicks": 96,
          "midi": 53,
          "name": "F3",
          "ticks": 67776,
          "time": 110.3125,
          "velocity": 0.7874015748031497
        },
        {
          "duration": 0.15625,
          "durationTicks": 96,
          "midi": 60,
          "name": "C4",
          "ticks": 67872,
          "time": 110.46875,
          "velocity": 0.7874015748031497
        },
        {
          "duration": 1.5625,
          "durationTicks": 960,
          "midi": 67,
          "name": "G4",
          "ticks": 67968,
          "time": 110.625,
          "velocity": 0.7874015748031497
        },
        {
          "duration": 1.25,
          "durationTicks": 768,
          "midi": 55,
          "name": "G3",
          "ticks": 67968,
          "time": 110.625,
          "velocity": 0.7874015748031497
        },
        {
          "duration": 1.25,
          "durationTicks": 768,
          "midi": 55,
          "name": "G3",
          "ticks": 67968,
          "time": 110.625,
          "velocity": 0.7874015748031497
        },
        {
          "duration": 0.625,
          "durationTicks": 384,
          "midi": 60,
          "name": "C4",
          "ticks": 68160,
          "time": 110.9375,
          "velocity": 0.7874015748031497
        },
        {
          "duration": 0.15625,
          "durationTicks": 96,
          "midi": 53,
          "name": "F3",
          "ticks": 68928,
          "time": 112.1875,
          "velocity": 0.7874015748031497
        },
        {
          "duration": 0.15625,
          "durationTicks": 96,
          "midi": 53,
          "name": "F3",
          "ticks": 68928,
          "time": 112.1875,
          "velocity": 0.7874015748031497
        },
        {
          "duration": 0.15625,
          "durationTicks": 96,
          "midi": 55,
          "name": "G3",
          "ticks": 69024,
          "time": 112.34375,
          "velocity": 0.7874015748031497
        },
        {
          "duration": 0.15625,
          "durationTicks": 96,
          "midi": 55,
          "name": "G3",
          "ticks": 69024,
          "time": 112.34375,
          "velocity": 0.7874015748031497
        },
        {
          "duration": 0.3125,
          "durationTicks": 192,
          "midi": 56,
          "name": "G#3",
          "ticks": 69120,
          "time": 112.5,
          "velocity": 0.7874015748031497
        },
        {
          "duration": 0.3125,
          "durationTicks": 192,
          "midi": 56,
          "name": "G#3",
          "ticks": 69120,
          "time": 112.5,
          "velocity": 0.7874015748031497
        },
        {
          "duration": 0.15625,
          "durationTicks": 96,
          "midi": 60,
          "name": "C4",
          "ticks": 69120,
          "time": 112.5,
          "velocity": 0.7874015748031497
        },
        {
          "duration": 0.15625,
          "durationTicks": 96,
          "midi": 60,
          "name": "C4",
          "ticks": 69120,
          "time": 112.5,
          "velocity": 0.7874015748031497
        },
        {
          "duration": 0.15625,
          "durationTicks": 96,
          "midi": 65,
          "name": "F4",
          "ticks": 69312,
          "time": 112.8125,
          "velocity": 0.7874015748031497
        },
        {
          "duration": 0.15625,
          "durationTicks": 96,
          "midi": 60,
          "name": "C4",
          "ticks": 69408,
          "time": 112.96875,
          "velocity": 0.7874015748031497
        },
        {
          "duration": 0.15625,
          "durationTicks": 96,
          "midi": 60,
          "name": "C4",
          "ticks": 69504,
          "time": 113.125,
          "velocity": 0.7874015748031497
        },
        {
          "duration": 0.3125,
          "durationTicks": 192,
          "midi": 55,
          "name": "G3",
          "ticks": 69504,
          "time": 113.125,
          "velocity": 0.7874015748031497
        },
        {
          "duration": 1.5625,
          "durationTicks": 960,
          "midi": 68,
          "name": "G#4",
          "ticks": 69504,
          "time": 113.125,
          "velocity": 0.7874015748031497
        },
        {
          "duration": 0.3125,
          "durationTicks": 192,
          "midi": 55,
          "name": "G3",
          "ticks": 69504,
          "time": 113.125,
          "velocity": 0.7874015748031497
        },
        {
          "duration": 0.3125,
          "durationTicks": 192,
          "midi": 61,
          "name": "C#4",
          "ticks": 69696,
          "time": 113.4375,
          "velocity": 0.7874015748031497
        },
        {
          "duration": 0.9375,
          "durationTicks": 576,
          "midi": 53,
          "name": "F3",
          "ticks": 69888,
          "time": 113.75,
          "velocity": 0.7874015748031497
        },
        {
          "duration": 0.9375,
          "durationTicks": 576,
          "midi": 53,
          "name": "F3",
          "ticks": 69888,
          "time": 113.75,
          "velocity": 0.7874015748031497
        },
        {
          "duration": 0.15625,
          "durationTicks": 96,
          "midi": 58,
          "name": "A#3",
          "ticks": 70272,
          "time": 114.375,
          "velocity": 0.7874015748031497
        },
        {
          "duration": 1.875,
          "durationTicks": 1152,
          "midi": 51,
          "name": "D#3",
          "ticks": 70656,
          "time": 115,
          "velocity": 0.7874015748031497
        },
        {
          "duration": 1.875,
          "durationTicks": 1152,
          "midi": 51,
          "name": "D#3",
          "ticks": 70656,
          "time": 115,
          "velocity": 0.7874015748031497
        },
        {
          "duration": 0.15625,
          "durationTicks": 96,
          "midi": 60,
          "name": "C4",
          "ticks": 70656,
          "time": 115,
          "velocity": 0.7874015748031497
        },
        {
          "duration": 0.15625,
          "durationTicks": 96,
          "midi": 60,
          "name": "C4",
          "ticks": 70656,
          "time": 115,
          "velocity": 0.7874015748031497
        },
        {
          "duration": 0.15625,
          "durationTicks": 96,
          "midi": 65,
          "name": "F4",
          "ticks": 70848,
          "time": 115.3125,
          "velocity": 0.7874015748031497
        },
        {
          "duration": 0.15625,
          "durationTicks": 96,
          "midi": 60,
          "name": "C4",
          "ticks": 70944,
          "time": 115.46875,
          "velocity": 0.7874015748031497
        },
        {
          "duration": 1.5625,
          "durationTicks": 960,
          "midi": 67,
          "name": "G4",
          "ticks": 71040,
          "time": 115.625,
          "velocity": 0.7874015748031497
        },
        {
          "duration": 0.625,
          "durationTicks": 384,
          "midi": 60,
          "name": "C4",
          "ticks": 71232,
          "time": 115.9375,
          "velocity": 0.7874015748031497
        },
        {
          "duration": 0.15625,
          "durationTicks": 96,
          "midi": 46,
          "name": "A#2",
          "ticks": 72000,
          "time": 117.1875,
          "velocity": 0.7874015748031497
        },
        {
          "duration": 0.15625,
          "durationTicks": 96,
          "midi": 46,
          "name": "A#2",
          "ticks": 72000,
          "time": 117.1875,
          "velocity": 0.7874015748031497
        },
        {
          "duration": 0.15625,
          "durationTicks": 96,
          "midi": 60,
          "name": "C4",
          "ticks": 72192,
          "time": 117.5,
          "velocity": 0.7874015748031497
        },
        {
          "duration": 2.1875,
          "durationTicks": 1344,
          "midi": 48,
          "name": "C3",
          "ticks": 72192,
          "time": 117.5,
          "velocity": 0.7874015748031497
        },
        {
          "duration": 2.1875,
          "durationTicks": 1344,
          "midi": 48,
          "name": "C3",
          "ticks": 72192,
          "time": 117.5,
          "velocity": 0.7874015748031497
        },
        {
          "duration": 0.15625,
          "durationTicks": 96,
          "midi": 60,
          "name": "C4",
          "ticks": 72192,
          "time": 117.5,
          "velocity": 0.7874015748031497
        },
        {
          "duration": 0.15625,
          "durationTicks": 96,
          "midi": 65,
          "name": "F4",
          "ticks": 72384,
          "time": 117.8125,
          "velocity": 0.7874015748031497
        },
        {
          "duration": 0.15625,
          "durationTicks": 96,
          "midi": 60,
          "name": "C4",
          "ticks": 72480,
          "time": 117.96875,
          "velocity": 0.7874015748031497
        },
        {
          "duration": 0.15625,
          "durationTicks": 96,
          "midi": 60,
          "name": "C4",
          "ticks": 72576,
          "time": 118.125,
          "velocity": 0.7874015748031497
        },
        {
          "duration": 1.5625,
          "durationTicks": 960,
          "midi": 70,
          "name": "A#4",
          "ticks": 72576,
          "time": 118.125,
          "velocity": 0.7874015748031497
        },
        {
          "duration": 0.3125,
          "durationTicks": 192,
          "midi": 61,
          "name": "C#4",
          "ticks": 72768,
          "time": 118.4375,
          "velocity": 0.7874015748031497
        },
        {
          "duration": 0.3125,
          "durationTicks": 192,
          "midi": 55,
          "name": "G3",
          "ticks": 72960,
          "time": 118.75,
          "velocity": 0.7874015748031497
        },
        {
          "duration": 0.3125,
          "durationTicks": 192,
          "midi": 55,
          "name": "G3",
          "ticks": 72960,
          "time": 118.75,
          "velocity": 0.7874015748031497
        },
        {
          "duration": 0.3125,
          "durationTicks": 192,
          "midi": 56,
          "name": "G#3",
          "ticks": 73344,
          "time": 119.375,
          "velocity": 0.7874015748031497
        },
        {
          "duration": 0.3125,
          "durationTicks": 192,
          "midi": 63,
          "name": "D#4",
          "ticks": 73344,
          "time": 119.375,
          "velocity": 0.7795275590551181
        },
        {
          "duration": 0.3125,
          "durationTicks": 192,
          "midi": 56,
          "name": "G#3",
          "ticks": 73344,
          "time": 119.375,
          "velocity": 0.7874015748031497
        },
        {
          "duration": 0.15625,
          "durationTicks": 96,
          "midi": 48,
          "name": "C3",
          "ticks": 73728,
          "time": 120,
          "velocity": 0.7874015748031497
        },
        {
          "duration": 0.625,
          "durationTicks": 384,
          "midi": 60,
          "name": "C4",
          "ticks": 73728,
          "time": 120,
          "velocity": 0.7874015748031497
        },
        {
          "duration": 0.15625,
          "durationTicks": 96,
          "midi": 48,
          "name": "C3",
          "ticks": 73728,
          "time": 120,
          "velocity": 0.7874015748031497
        },
        {
          "duration": 0.15625,
          "durationTicks": 96,
          "midi": 53,
          "name": "F3",
          "ticks": 73920,
          "time": 120.3125,
          "velocity": 0.7874015748031497
        },
        {
          "duration": 0.15625,
          "durationTicks": 96,
          "midi": 53,
          "name": "F3",
          "ticks": 73920,
          "time": 120.3125,
          "velocity": 0.7874015748031497
        },
        {
          "duration": 1.71875,
          "durationTicks": 1056,
          "midi": 55,
          "name": "G3",
          "ticks": 74112,
          "time": 120.625,
          "velocity": 0.7874015748031497
        },
        {
          "duration": 1.71875,
          "durationTicks": 1056,
          "midi": 55,
          "name": "G3",
          "ticks": 74112,
          "time": 120.625,
          "velocity": 0.7874015748031497
        },
        {
          "duration": 2.1875,
          "durationTicks": 1344,
          "midi": 56,
          "name": "G#3",
          "ticks": 75264,
          "time": 122.5,
          "velocity": 0.7874015748031497
        },
        {
          "duration": 2.1875,
          "durationTicks": 1344,
          "midi": 56,
          "name": "G#3",
          "ticks": 75264,
          "time": 122.5,
          "velocity": 0.7874015748031497
        },
        {
          "duration": 0.15625,
          "durationTicks": 96,
          "midi": 48,
          "name": "C3",
          "ticks": 76800,
          "time": 125,
          "velocity": 0.7874015748031497
        },
        {
          "duration": 0.15625,
          "durationTicks": 96,
          "midi": 48,
          "name": "C3",
          "ticks": 76800,
          "time": 125,
          "velocity": 0.7874015748031497
        },
        {
          "duration": 0.15625,
          "durationTicks": 96,
          "midi": 53,
          "name": "F3",
          "ticks": 76992,
          "time": 125.3125,
          "velocity": 0.7874015748031497
        },
        {
          "duration": 0.15625,
          "durationTicks": 96,
          "midi": 53,
          "name": "F3",
          "ticks": 76992,
          "time": 125.3125,
          "velocity": 0.7874015748031497
        },
        {
          "duration": 1.71875,
          "durationTicks": 1056,
          "midi": 55,
          "name": "G3",
          "ticks": 77184,
          "time": 125.625,
          "velocity": 0.7874015748031497
        },
        {
          "duration": 1.71875,
          "durationTicks": 1056,
          "midi": 55,
          "name": "G3",
          "ticks": 77184,
          "time": 125.625,
          "velocity": 0.7874015748031497
        },
        {
          "duration": 0.15625,
          "durationTicks": 96,
          "midi": 58,
          "name": "A#3",
          "ticks": 78336,
          "time": 127.5,
          "velocity": 0.7874015748031497
        },
        {
          "duration": 0.15625,
          "durationTicks": 96,
          "midi": 58,
          "name": "A#3",
          "ticks": 78336,
          "time": 127.5,
          "velocity": 0.7874015748031497
        },
        {
          "duration": 1.875,
          "durationTicks": 1152,
          "midi": 60,
          "name": "C4",
          "ticks": 78528,
          "time": 127.8125,
          "velocity": 0.7874015748031497
        },
        {
          "duration": 1.875,
          "durationTicks": 1152,
          "midi": 60,
          "name": "C4",
          "ticks": 78528,
          "time": 127.8125,
          "velocity": 0.7874015748031497
        },
        {
          "duration": 0.15625,
          "durationTicks": 96,
          "midi": 48,
          "name": "C3",
          "ticks": 79872,
          "time": 130,
          "velocity": 0.7874015748031497
        },
        {
          "duration": 0.15625,
          "durationTicks": 96,
          "midi": 60,
          "name": "C4",
          "ticks": 79872,
          "time": 130,
          "velocity": 0.7874015748031497
        },
        {
          "duration": 0.15625,
          "durationTicks": 96,
          "midi": 48,
          "name": "C3",
          "ticks": 79872,
          "time": 130,
          "velocity": 0.7874015748031497
        },
        {
          "duration": 1.09375,
          "durationTicks": 672,
          "midi": 48,
          "name": "C3",
          "ticks": 79872,
          "time": 130,
          "velocity": 0.7874015748031497
        },
        {
          "duration": 0.3125,
          "durationTicks": 192,
          "midi": 53,
          "name": "F3",
          "ticks": 79968,
          "time": 130.15625,
          "velocity": 0.7874015748031497
        },
        {
          "duration": 0.15625,
          "durationTicks": 96,
          "midi": 53,
          "name": "F3",
          "ticks": 80064,
          "time": 130.3125,
          "velocity": 0.7874015748031497
        },
        {
          "duration": 1.09375,
          "durationTicks": 672,
          "midi": 53,
          "name": "F3",
          "ticks": 80064,
          "time": 130.3125,
          "velocity": 0.7874015748031497
        },
        {
          "duration": 0.15625,
          "durationTicks": 96,
          "midi": 65,
          "name": "F4",
          "ticks": 80064,
          "time": 130.3125,
          "velocity": 0.7874015748031497
        },
        {
          "duration": 0.46875,
          "durationTicks": 288,
          "midi": 55,
          "name": "G3",
          "ticks": 80064,
          "time": 130.3125,
          "velocity": 0.7874015748031497
        },
        {
          "duration": 1.5625,
          "durationTicks": 960,
          "midi": 67,
          "name": "G4",
          "ticks": 80256,
          "time": 130.625,
          "velocity": 0.7874015748031497
        },
        {
          "duration": 0.15625,
          "durationTicks": 96,
          "midi": 55,
          "name": "G3",
          "ticks": 80256,
          "time": 130.625,
          "velocity": 0.7874015748031497
        },
        {
          "duration": 1.09375,
          "durationTicks": 672,
          "midi": 55,
          "name": "G3",
          "ticks": 80256,
          "time": 130.625,
          "velocity": 0.7874015748031497
        },
        {
          "duration": 0.15625,
          "durationTicks": 96,
          "midi": 48,
          "name": "C3",
          "ticks": 80448,
          "time": 130.9375,
          "velocity": 0.7874015748031497
        },
        {
          "duration": 1.09375,
          "durationTicks": 672,
          "midi": 48,
          "name": "C3",
          "ticks": 80448,
          "time": 130.9375,
          "velocity": 0.7874015748031497
        },
        {
          "duration": 0.15625,
          "durationTicks": 96,
          "midi": 53,
          "name": "F3",
          "ticks": 80640,
          "time": 131.25,
          "velocity": 0.7874015748031497
        },
        {
          "duration": 0.9375,
          "durationTicks": 576,
          "midi": 53,
          "name": "F3",
          "ticks": 80640,
          "time": 131.25,
          "velocity": 0.7874015748031497
        },
        {
          "duration": 0.15625,
          "durationTicks": 96,
          "midi": 55,
          "name": "G3",
          "ticks": 80832,
          "time": 131.5625,
          "velocity": 0.7874015748031497
        },
        {
          "duration": 0.625,
          "durationTicks": 384,
          "midi": 55,
          "name": "G3",
          "ticks": 80832,
          "time": 131.5625,
          "velocity": 0.7874015748031497
        },
        {
          "duration": 0.15625,
          "durationTicks": 96,
          "midi": 48,
          "name": "C3",
          "ticks": 81024,
          "time": 131.875,
          "velocity": 0.7874015748031497
        },
        {
          "duration": 0.3125,
          "durationTicks": 192,
          "midi": 48,
          "name": "C3",
          "ticks": 81024,
          "time": 131.875,
          "velocity": 0.7874015748031497
        },
        {
          "duration": 0.15625,
          "durationTicks": 96,
          "midi": 53,
          "name": "F3",
          "ticks": 81216,
          "time": 132.1875,
          "velocity": 0.7874015748031497
        },
        {
          "duration": 0.15625,
          "durationTicks": 96,
          "midi": 53,
          "name": "F3",
          "ticks": 81216,
          "time": 132.1875,
          "velocity": 0.7874015748031497
        },
        {
          "duration": 0.15625,
          "durationTicks": 96,
          "midi": 48,
          "name": "C3",
          "ticks": 81408,
          "time": 132.5,
          "velocity": 0.7874015748031497
        },
        {
          "duration": 0.15625,
          "durationTicks": 96,
          "midi": 48,
          "name": "C3",
          "ticks": 81408,
          "time": 132.5,
          "velocity": 0.7874015748031497
        },
        {
          "duration": 1.09375,
          "durationTicks": 672,
          "midi": 48,
          "name": "C3",
          "ticks": 81408,
          "time": 132.5,
          "velocity": 0.7874015748031497
        },
        {
          "duration": 0.15625,
          "durationTicks": 96,
          "midi": 60,
          "name": "C4",
          "ticks": 81408,
          "time": 132.5,
          "velocity": 0.7874015748031497
        },
        {
          "duration": 0.3125,
          "durationTicks": 192,
          "midi": 53,
          "name": "F3",
          "ticks": 81504,
          "time": 132.65625,
          "velocity": 0.7874015748031497
        },
        {
          "duration": 0.15625,
          "durationTicks": 96,
          "midi": 53,
          "name": "F3",
          "ticks": 81600,
          "time": 132.8125,
          "velocity": 0.7874015748031497
        },
        {
          "duration": 1.09375,
          "durationTicks": 672,
          "midi": 53,
          "name": "F3",
          "ticks": 81600,
          "time": 132.8125,
          "velocity": 0.7874015748031497
        },
        {
          "duration": 0.15625,
          "durationTicks": 96,
          "midi": 65,
          "name": "F4",
          "ticks": 81600,
          "time": 132.8125,
          "velocity": 0.7874015748031497
        },
        {
          "duration": 0.46875,
          "durationTicks": 288,
          "midi": 56,
          "name": "G#3",
          "ticks": 81600,
          "time": 132.8125,
          "velocity": 0.7874015748031497
        },
        {
          "duration": 1.5625,
          "durationTicks": 960,
          "midi": 68,
          "name": "G#4",
          "ticks": 81792,
          "time": 133.125,
          "velocity": 0.7874015748031497
        },
        {
          "duration": 0.15625,
          "durationTicks": 96,
          "midi": 56,
          "name": "G#3",
          "ticks": 81792,
          "time": 133.125,
          "velocity": 0.7874015748031497
        },
        {
          "duration": 1.09375,
          "durationTicks": 672,
          "midi": 56,
          "name": "G#3",
          "ticks": 81792,
          "time": 133.125,
          "velocity": 0.7874015748031497
        },
        {
          "duration": 0.15625,
          "durationTicks": 96,
          "midi": 48,
          "name": "C3",
          "ticks": 81984,
          "time": 133.4375,
          "velocity": 0.7874015748031497
        },
        {
          "duration": 1.09375,
          "durationTicks": 672,
          "midi": 48,
          "name": "C3",
          "ticks": 81984,
          "time": 133.4375,
          "velocity": 0.7874015748031497
        },
        {
          "duration": 0.15625,
          "durationTicks": 96,
          "midi": 53,
          "name": "F3",
          "ticks": 82176,
          "time": 133.75,
          "velocity": 0.7874015748031497
        },
        {
          "duration": 0.9375,
          "durationTicks": 576,
          "midi": 53,
          "name": "F3",
          "ticks": 82176,
          "time": 133.75,
          "velocity": 0.7874015748031497
        },
        {
          "duration": 0.15625,
          "durationTicks": 96,
          "midi": 56,
          "name": "G#3",
          "ticks": 82368,
          "time": 134.0625,
          "velocity": 0.7874015748031497
        },
        {
          "duration": 0.625,
          "durationTicks": 384,
          "midi": 56,
          "name": "G#3",
          "ticks": 82368,
          "time": 134.0625,
          "velocity": 0.7874015748031497
        },
        {
          "duration": 0.15625,
          "durationTicks": 96,
          "midi": 48,
          "name": "C3",
          "ticks": 82560,
          "time": 134.375,
          "velocity": 0.7874015748031497
        },
        {
          "duration": 0.3125,
          "durationTicks": 192,
          "midi": 48,
          "name": "C3",
          "ticks": 82560,
          "time": 134.375,
          "velocity": 0.7874015748031497
        },
        {
          "duration": 0.15625,
          "durationTicks": 96,
          "midi": 53,
          "name": "F3",
          "ticks": 82752,
          "time": 134.6875,
          "velocity": 0.7874015748031497
        },
        {
          "duration": 0.15625,
          "durationTicks": 96,
          "midi": 53,
          "name": "F3",
          "ticks": 82752,
          "time": 134.6875,
          "velocity": 0.7874015748031497
        },
        {
          "duration": 0.15625,
          "durationTicks": 96,
          "midi": 48,
          "name": "C3",
          "ticks": 82944,
          "time": 135,
          "velocity": 0.7874015748031497
        },
        {
          "duration": 0.15625,
          "durationTicks": 96,
          "midi": 48,
          "name": "C3",
          "ticks": 82944,
          "time": 135,
          "velocity": 0.7874015748031497
        },
        {
          "duration": 0.15625,
          "durationTicks": 96,
          "midi": 60,
          "name": "C4",
          "ticks": 82944,
          "time": 135,
          "velocity": 0.7874015748031497
        },
        {
          "duration": 1.09375,
          "durationTicks": 672,
          "midi": 48,
          "name": "C3",
          "ticks": 82944,
          "time": 135,
          "velocity": 0.7874015748031497
        },
        {
          "duration": 0.3125,
          "durationTicks": 192,
          "midi": 53,
          "name": "F3",
          "ticks": 83040,
          "time": 135.15625,
          "velocity": 0.7874015748031497
        },
        {
          "duration": 0.15625,
          "durationTicks": 96,
          "midi": 53,
          "name": "F3",
          "ticks": 83136,
          "time": 135.3125,
          "velocity": 0.7874015748031497
        },
        {
          "duration": 0.15625,
          "durationTicks": 96,
          "midi": 65,
          "name": "F4",
          "ticks": 83136,
          "time": 135.3125,
          "velocity": 0.7874015748031497
        },
        {
          "duration": 0.46875,
          "durationTicks": 288,
          "midi": 58,
          "name": "A#3",
          "ticks": 83136,
          "time": 135.3125,
          "velocity": 0.7874015748031497
        },
        {
          "duration": 1.09375,
          "durationTicks": 672,
          "midi": 53,
          "name": "F3",
          "ticks": 83136,
          "time": 135.3125,
          "velocity": 0.7874015748031497
        },
        {
          "duration": 0.15625,
          "durationTicks": 96,
          "midi": 58,
          "name": "A#3",
          "ticks": 83328,
          "time": 135.625,
          "velocity": 0.7874015748031497
        },
        {
          "duration": 1.09375,
          "durationTicks": 672,
          "midi": 58,
          "name": "A#3",
          "ticks": 83328,
          "time": 135.625,
          "velocity": 0.7874015748031497
        },
        {
          "duration": 1.5625,
          "durationTicks": 960,
          "midi": 67,
          "name": "G4",
          "ticks": 83328,
          "time": 135.625,
          "velocity": 0.7874015748031497
        },
        {
          "duration": 0.15625,
          "durationTicks": 96,
          "midi": 48,
          "name": "C3",
          "ticks": 83520,
          "time": 135.9375,
          "velocity": 0.7874015748031497
        },
        {
          "duration": 1.09375,
          "durationTicks": 672,
          "midi": 48,
          "name": "C3",
          "ticks": 83520,
          "time": 135.9375,
          "velocity": 0.7874015748031497
        },
        {
          "duration": 0.15625,
          "durationTicks": 96,
          "midi": 53,
          "name": "F3",
          "ticks": 83712,
          "time": 136.25,
          "velocity": 0.7874015748031497
        },
        {
          "duration": 0.9375,
          "durationTicks": 576,
          "midi": 53,
          "name": "F3",
          "ticks": 83712,
          "time": 136.25,
          "velocity": 0.7874015748031497
        },
        {
          "duration": 0.15625,
          "durationTicks": 96,
          "midi": 58,
          "name": "A#3",
          "ticks": 83904,
          "time": 136.5625,
          "velocity": 0.7874015748031497
        },
        {
          "duration": 0.625,
          "durationTicks": 384,
          "midi": 58,
          "name": "A#3",
          "ticks": 83904,
          "time": 136.5625,
          "velocity": 0.7874015748031497
        },
        {
          "duration": 0.15625,
          "durationTicks": 96,
          "midi": 48,
          "name": "C3",
          "ticks": 84096,
          "time": 136.875,
          "velocity": 0.7874015748031497
        },
        {
          "duration": 0.3125,
          "durationTicks": 192,
          "midi": 48,
          "name": "C3",
          "ticks": 84096,
          "time": 136.875,
          "velocity": 0.7874015748031497
        },
        {
          "duration": 0.15625,
          "durationTicks": 96,
          "midi": 53,
          "name": "F3",
          "ticks": 84288,
          "time": 137.1875,
          "velocity": 0.7874015748031497
        },
        {
          "duration": 0.15625,
          "durationTicks": 96,
          "midi": 53,
          "name": "F3",
          "ticks": 84288,
          "time": 137.1875,
          "velocity": 0.7874015748031497
        },
        {
          "duration": 0.15625,
          "durationTicks": 96,
          "midi": 48,
          "name": "C3",
          "ticks": 84480,
          "time": 137.5,
          "velocity": 0.7874015748031497
        },
        {
          "duration": 0.15625,
          "durationTicks": 96,
          "midi": 60,
          "name": "C4",
          "ticks": 84480,
          "time": 137.5,
          "velocity": 0.7874015748031497
        },
        {
          "duration": 0.15625,
          "durationTicks": 96,
          "midi": 48,
          "name": "C3",
          "ticks": 84480,
          "time": 137.5,
          "velocity": 0.7874015748031497
        },
        {
          "duration": 1.09375,
          "durationTicks": 672,
          "midi": 48,
          "name": "C3",
          "ticks": 84480,
          "time": 137.5,
          "velocity": 0.7874015748031497
        },
        {
          "duration": 0.3125,
          "durationTicks": 192,
          "midi": 53,
          "name": "F3",
          "ticks": 84576,
          "time": 137.65625,
          "velocity": 0.7874015748031497
        },
        {
          "duration": 0.46875,
          "durationTicks": 288,
          "midi": 58,
          "name": "A#3",
          "ticks": 84672,
          "time": 137.8125,
          "velocity": 0.7874015748031497
        },
        {
          "duration": 0.15625,
          "durationTicks": 96,
          "midi": 67,
          "name": "G4",
          "ticks": 84672,
          "time": 137.8125,
          "velocity": 0.7874015748031497
        },
        {
          "duration": 0.15625,
          "durationTicks": 96,
          "midi": 53,
          "name": "F3",
          "ticks": 84672,
          "time": 137.8125,
          "velocity": 0.7874015748031497
        },
        {
          "duration": 1.09375,
          "durationTicks": 672,
          "midi": 53,
          "name": "F3",
          "ticks": 84672,
          "time": 137.8125,
          "velocity": 0.7874015748031497
        },
        {
          "duration": 1.40625,
          "durationTicks": 864,
          "midi": 60,
          "name": "C4",
          "ticks": 84768,
          "time": 137.96875,
          "velocity": 0.7874015748031497
        },
        {
          "duration": 1.5625,
          "durationTicks": 960,
          "midi": 72,
          "name": "C5",
          "ticks": 84864,
          "time": 138.125,
          "velocity": 0.7874015748031497
        },
        {
          "duration": 0.15625,
          "durationTicks": 96,
          "midi": 58,
          "name": "A#3",
          "ticks": 84864,
          "time": 138.125,
          "velocity": 0.7874015748031497
        },
        {
          "duration": 1.09375,
          "durationTicks": 672,
          "midi": 58,
          "name": "A#3",
          "ticks": 84864,
          "time": 138.125,
          "velocity": 0.7874015748031497
        },
        {
          "duration": 0.15625,
          "durationTicks": 96,
          "midi": 48,
          "name": "C3",
          "ticks": 85056,
          "time": 138.4375,
          "velocity": 0.7874015748031497
        },
        {
          "duration": 0.9375,
          "durationTicks": 576,
          "midi": 48,
          "name": "C3",
          "ticks": 85056,
          "time": 138.4375,
          "velocity": 0.7874015748031497
        },
        {
          "duration": 0.15625,
          "durationTicks": 96,
          "midi": 53,
          "name": "F3",
          "ticks": 85248,
          "time": 138.75,
          "velocity": 0.7874015748031497
        },
        {
          "duration": 0.625,
          "durationTicks": 384,
          "midi": 53,
          "name": "F3",
          "ticks": 85248,
          "time": 138.75,
          "velocity": 0.7874015748031497
        },
        {
          "duration": 0.15625,
          "durationTicks": 96,
          "midi": 58,
          "name": "A#3",
          "ticks": 85440,
          "time": 139.0625,
          "velocity": 0.7874015748031497
        },
        {
          "duration": 0.3125,
          "durationTicks": 192,
          "midi": 58,
          "name": "A#3",
          "ticks": 85440,
          "time": 139.0625,
          "velocity": 0.7874015748031497
        },
        {
          "duration": 0.15625,
          "durationTicks": 96,
          "midi": 56,
          "name": "G#3",
          "ticks": 85632,
          "time": 139.375,
          "velocity": 0.7874015748031497
        },
        {
          "duration": 0.15625,
          "durationTicks": 96,
          "midi": 56,
          "name": "G#3",
          "ticks": 85632,
          "time": 139.375,
          "velocity": 0.7874015748031497
        },
        {
          "duration": 0.15625,
          "durationTicks": 96,
          "midi": 55,
          "name": "G3",
          "ticks": 85824,
          "time": 139.6875,
          "velocity": 0.7874015748031497
        },
        {
          "duration": 0.15625,
          "durationTicks": 96,
          "midi": 55,
          "name": "G3",
          "ticks": 85824,
          "time": 139.6875,
          "velocity": 0.7874015748031497
        },
        {
          "duration": 0.15625,
          "durationTicks": 96,
          "midi": 48,
          "name": "C3",
          "ticks": 86016,
          "time": 140,
          "velocity": 0.7874015748031497
        },
        {
          "duration": 0.46875,
          "durationTicks": 288,
          "midi": 53,
          "name": "F3",
          "ticks": 86016,
          "time": 140,
          "velocity": 0.7874015748031497
        },
        {
          "duration": 0.15625,
          "durationTicks": 96,
          "midi": 60,
          "name": "C4",
          "ticks": 86016,
          "time": 140,
          "velocity": 0.7874015748031497
        },
        {
          "duration": 0.15625,
          "durationTicks": 96,
          "midi": 48,
          "name": "C3",
          "ticks": 86016,
          "time": 140,
          "velocity": 0.7874015748031497
        },
        {
          "duration": 0.15625,
          "durationTicks": 96,
          "midi": 65,
          "name": "F4",
          "ticks": 86208,
          "time": 140.3125,
          "velocity": 0.7874015748031497
        },
        {
          "duration": 0.15625,
          "durationTicks": 96,
          "midi": 53,
          "name": "F3",
          "ticks": 86208,
          "time": 140.3125,
          "velocity": 0.7874015748031497
        },
        {
          "duration": 0.9375,
          "durationTicks": 576,
          "midi": 53,
          "name": "F3",
          "ticks": 86208,
          "time": 140.3125,
          "velocity": 0.7874015748031497
        },
        {
          "duration": 1.5625,
          "durationTicks": 960,
          "midi": 67,
          "name": "G4",
          "ticks": 86400,
          "time": 140.625,
          "velocity": 0.7874015748031497
        },
        {
          "duration": 1.25,
          "durationTicks": 768,
          "midi": 55,
          "name": "G3",
          "ticks": 86400,
          "time": 140.625,
          "velocity": 0.7874015748031497
        },
        {
          "duration": 1.25,
          "durationTicks": 768,
          "midi": 55,
          "name": "G3",
          "ticks": 86400,
          "time": 140.625,
          "velocity": 0.7874015748031497
        },
        {
          "duration": 0.15625,
          "durationTicks": 96,
          "midi": 56,
          "name": "G#3",
          "ticks": 87168,
          "time": 141.875,
          "velocity": 0.7874015748031497
        },
        {
          "duration": 0.15625,
          "durationTicks": 96,
          "midi": 56,
          "name": "G#3",
          "ticks": 87168,
          "time": 141.875,
          "velocity": 0.7874015748031497
        },
        {
          "duration": 0.15625,
          "durationTicks": 96,
          "midi": 55,
          "name": "G3",
          "ticks": 87264,
          "time": 142.03125,
          "velocity": 0.7874015748031497
        },
        {
          "duration": 0.15625,
          "durationTicks": 96,
          "midi": 55,
          "name": "G3",
          "ticks": 87264,
          "time": 142.03125,
          "velocity": 0.7874015748031497
        },
        {
          "duration": 0.15625,
          "durationTicks": 96,
          "midi": 53,
          "name": "F3",
          "ticks": 87360,
          "time": 142.1875,
          "velocity": 0.7874015748031497
        },
        {
          "duration": 0.15625,
          "durationTicks": 96,
          "midi": 53,
          "name": "F3",
          "ticks": 87360,
          "time": 142.1875,
          "velocity": 0.7874015748031497
        },
        {
          "duration": 0.15625,
          "durationTicks": 96,
          "midi": 55,
          "name": "G3",
          "ticks": 87456,
          "time": 142.34375,
          "velocity": 0.7874015748031497
        },
        {
          "duration": 0.15625,
          "durationTicks": 96,
          "midi": 55,
          "name": "G3",
          "ticks": 87456,
          "time": 142.34375,
          "velocity": 0.7874015748031497
        },
        {
          "duration": 0.3125,
          "durationTicks": 192,
          "midi": 48,
          "name": "C3",
          "ticks": 87552,
          "time": 142.5,
          "velocity": 0.7874015748031497
        },
        {
          "duration": 0.3125,
          "durationTicks": 192,
          "midi": 56,
          "name": "G#3",
          "ticks": 87552,
          "time": 142.5,
          "velocity": 0.7874015748031497
        },
        {
          "duration": 0.15625,
          "durationTicks": 96,
          "midi": 60,
          "name": "C4",
          "ticks": 87552,
          "time": 142.5,
          "velocity": 0.7874015748031497
        },
        {
          "duration": 0.15625,
          "durationTicks": 96,
          "midi": 65,
          "name": "F4",
          "ticks": 87744,
          "time": 142.8125,
          "velocity": 0.7874015748031497
        },
        {
          "duration": 0.3125,
          "durationTicks": 192,
          "midi": 55,
          "name": "G3",
          "ticks": 87936,
          "time": 143.125,
          "velocity": 0.7874015748031497
        },
        {
          "duration": 1.5625,
          "durationTicks": 960,
          "midi": 68,
          "name": "G#4",
          "ticks": 87936,
          "time": 143.125,
          "velocity": 0.7874015748031497
        },
        {
          "duration": 0.3125,
          "durationTicks": 192,
          "midi": 55,
          "name": "G3",
          "ticks": 87936,
          "time": 143.125,
          "velocity": 0.7874015748031497
        },
        {
          "duration": 0.9375,
          "durationTicks": 576,
          "midi": 56,
          "name": "G#3",
          "ticks": 88320,
          "time": 143.75,
          "velocity": 0.7874015748031497
        },
        {
          "duration": 0.9375,
          "durationTicks": 576,
          "midi": 56,
          "name": "G#3",
          "ticks": 88320,
          "time": 143.75,
          "velocity": 0.7874015748031497
        },
        {
          "duration": 0.15625,
          "durationTicks": 96,
          "midi": 60,
          "name": "C4",
          "ticks": 89088,
          "time": 145,
          "velocity": 0.7874015748031497
        },
        {
          "duration": 1.875,
          "durationTicks": 1152,
          "midi": 58,
          "name": "A#3",
          "ticks": 89088,
          "time": 145,
          "velocity": 0.7874015748031497
        },
        {
          "duration": 1.875,
          "durationTicks": 1152,
          "midi": 58,
          "name": "A#3",
          "ticks": 89088,
          "time": 145,
          "velocity": 0.7874015748031497
        },
        {
          "duration": 0.15625,
          "durationTicks": 96,
          "midi": 65,
          "name": "F4",
          "ticks": 89280,
          "time": 145.3125,
          "velocity": 0.7874015748031497
        },
        {
          "duration": 1.5625,
          "durationTicks": 960,
          "midi": 67,
          "name": "G4",
          "ticks": 89472,
          "time": 145.625,
          "velocity": 0.7874015748031497
        },
        {
          "duration": 0.15625,
          "durationTicks": 96,
          "midi": 56,
          "name": "G#3",
          "ticks": 90432,
          "time": 147.1875,
          "velocity": 0.7874015748031497
        },
        {
          "duration": 0.15625,
          "durationTicks": 96,
          "midi": 56,
          "name": "G#3",
          "ticks": 90432,
          "time": 147.1875,
          "velocity": 0.7874015748031497
        },
        {
          "duration": 0.15625,
          "durationTicks": 96,
          "midi": 55,
          "name": "G3",
          "ticks": 90528,
          "time": 147.34375,
          "velocity": 0.7874015748031497
        },
        {
          "duration": 0.15625,
          "durationTicks": 96,
          "midi": 55,
          "name": "G3",
          "ticks": 90528,
          "time": 147.34375,
          "velocity": 0.7874015748031497
        },
        {
          "duration": 0.15625,
          "durationTicks": 96,
          "midi": 60,
          "name": "C4",
          "ticks": 90624,
          "time": 147.5,
          "velocity": 0.7874015748031497
        },
        {
          "duration": 0.3125,
          "durationTicks": 192,
          "midi": 60,
          "name": "C4",
          "ticks": 90624,
          "time": 147.5,
          "velocity": 0.7874015748031497
        },
        {
          "duration": 0.3125,
          "durationTicks": 192,
          "midi": 60,
          "name": "C4",
          "ticks": 90624,
          "time": 147.5,
          "velocity": 0.7874015748031497
        },
        {
          "duration": 0.15625,
          "durationTicks": 96,
          "midi": 67,
          "name": "G4",
          "ticks": 90816,
          "time": 147.8125,
          "velocity": 0.7874015748031497
        },
        {
          "duration": 1.5625,
          "durationTicks": 960,
          "midi": 72,
          "name": "C5",
          "ticks": 91008,
          "time": 148.125,
          "velocity": 0.7874015748031497
        },
        {
          "duration": 0.3125,
          "durationTicks": 192,
          "midi": 58,
          "name": "A#3",
          "ticks": 91008,
          "time": 148.125,
          "velocity": 0.7874015748031497
        },
        {
          "duration": 0.3125,
          "durationTicks": 192,
          "midi": 58,
          "name": "A#3",
          "ticks": 91008,
          "time": 148.125,
          "velocity": 0.7874015748031497
        },
        {
          "duration": 0.3125,
          "durationTicks": 192,
          "midi": 56,
          "name": "G#3",
          "ticks": 91392,
          "time": 148.75,
          "velocity": 0.7874015748031497
        },
        {
          "duration": 0.3125,
          "durationTicks": 192,
          "midi": 56,
          "name": "G#3",
          "ticks": 91392,
          "time": 148.75,
          "velocity": 0.7874015748031497
        },
        {
          "duration": 0.3125,
          "durationTicks": 192,
          "midi": 55,
          "name": "G3",
          "ticks": 91776,
          "time": 149.375,
          "velocity": 0.7874015748031497
        },
        {
          "duration": 0.3125,
          "durationTicks": 192,
          "midi": 55,
          "name": "G3",
          "ticks": 91776,
          "time": 149.375,
          "velocity": 0.7874015748031497
        },
        {
          "duration": 0.15625,
          "durationTicks": 96,
          "midi": 48,
          "name": "C3",
          "ticks": 92160,
          "time": 150,
          "velocity": 0.7874015748031497
        },
        {
          "duration": 0.15625,
          "durationTicks": 96,
          "midi": 60,
          "name": "C4",
          "ticks": 92160,
          "time": 150,
          "velocity": 0.7874015748031497
        },
        {
          "duration": 0.15625,
          "durationTicks": 96,
          "midi": 48,
          "name": "C3",
          "ticks": 92160,
          "time": 150,
          "velocity": 0.7874015748031497
        },
        {
          "duration": 0.46875,
          "durationTicks": 288,
          "midi": 53,
          "name": "F3",
          "ticks": 92160,
          "time": 150,
          "velocity": 0.7874015748031497
        },
        {
          "duration": 0.15625,
          "durationTicks": 96,
          "midi": 65,
          "name": "F4",
          "ticks": 92352,
          "time": 150.3125,
          "velocity": 0.7874015748031497
        },
        {
          "duration": 0.15625,
          "durationTicks": 96,
          "midi": 53,
          "name": "F3",
          "ticks": 92352,
          "time": 150.3125,
          "velocity": 0.7874015748031497
        },
        {
          "duration": 0.9375,
          "durationTicks": 576,
          "midi": 53,
          "name": "F3",
          "ticks": 92352,
          "time": 150.3125,
          "velocity": 0.7874015748031497
        },
        {
          "duration": 1.5625,
          "durationTicks": 960,
          "midi": 67,
          "name": "G4",
          "ticks": 92544,
          "time": 150.625,
          "velocity": 0.7874015748031497
        },
        {
          "duration": 1.25,
          "durationTicks": 768,
          "midi": 55,
          "name": "G3",
          "ticks": 92544,
          "time": 150.625,
          "velocity": 0.7874015748031497
        },
        {
          "duration": 1.25,
          "durationTicks": 768,
          "midi": 55,
          "name": "G3",
          "ticks": 92544,
          "time": 150.625,
          "velocity": 0.7874015748031497
        },
        {
          "duration": 0.15625,
          "durationTicks": 96,
          "midi": 56,
          "name": "G#3",
          "ticks": 93312,
          "time": 151.875,
          "velocity": 0.7874015748031497
        },
        {
          "duration": 0.15625,
          "durationTicks": 96,
          "midi": 56,
          "name": "G#3",
          "ticks": 93312,
          "time": 151.875,
          "velocity": 0.7874015748031497
        },
        {
          "duration": 0.15625,
          "durationTicks": 96,
          "midi": 55,
          "name": "G3",
          "ticks": 93408,
          "time": 152.03125,
          "velocity": 0.7874015748031497
        },
        {
          "duration": 0.15625,
          "durationTicks": 96,
          "midi": 55,
          "name": "G3",
          "ticks": 93408,
          "time": 152.03125,
          "velocity": 0.7874015748031497
        },
        {
          "duration": 0.15625,
          "durationTicks": 96,
          "midi": 53,
          "name": "F3",
          "ticks": 93504,
          "time": 152.1875,
          "velocity": 0.7874015748031497
        },
        {
          "duration": 0.15625,
          "durationTicks": 96,
          "midi": 53,
          "name": "F3",
          "ticks": 93504,
          "time": 152.1875,
          "velocity": 0.7874015748031497
        },
        {
          "duration": 0.15625,
          "durationTicks": 96,
          "midi": 55,
          "name": "G3",
          "ticks": 93600,
          "time": 152.34375,
          "velocity": 0.7874015748031497
        },
        {
          "duration": 0.15625,
          "durationTicks": 96,
          "midi": 55,
          "name": "G3",
          "ticks": 93600,
          "time": 152.34375,
          "velocity": 0.7874015748031497
        },
        {
          "duration": 0.15625,
          "durationTicks": 96,
          "midi": 60,
          "name": "C4",
          "ticks": 93696,
          "time": 152.5,
          "velocity": 0.7874015748031497
        },
        {
          "duration": 0.3125,
          "durationTicks": 192,
          "midi": 56,
          "name": "G#3",
          "ticks": 93696,
          "time": 152.5,
          "velocity": 0.7874015748031497
        },
        {
          "duration": 0.3125,
          "durationTicks": 192,
          "midi": 48,
          "name": "C3",
          "ticks": 93696,
          "time": 152.5,
          "velocity": 0.7874015748031497
        },
        {
          "duration": 0.15625,
          "durationTicks": 96,
          "midi": 65,
          "name": "F4",
          "ticks": 93888,
          "time": 152.8125,
          "velocity": 0.7874015748031497
        },
        {
          "duration": 0.3125,
          "durationTicks": 192,
          "midi": 55,
          "name": "G3",
          "ticks": 94080,
          "time": 153.125,
          "velocity": 0.7874015748031497
        },
        {
          "duration": 0.3125,
          "durationTicks": 192,
          "midi": 55,
          "name": "G3",
          "ticks": 94080,
          "time": 153.125,
          "velocity": 0.7874015748031497
        },
        {
          "duration": 1.5625,
          "durationTicks": 960,
          "midi": 68,
          "name": "G#4",
          "ticks": 94080,
          "time": 153.125,
          "velocity": 0.7874015748031497
        },
        {
          "duration": 0.9375,
          "durationTicks": 576,
          "midi": 56,
          "name": "G#3",
          "ticks": 94464,
          "time": 153.75,
          "velocity": 0.7874015748031497
        },
        {
          "duration": 0.9375,
          "durationTicks": 576,
          "midi": 56,
          "name": "G#3",
          "ticks": 94464,
          "time": 153.75,
          "velocity": 0.7874015748031497
        },
        {
          "duration": 1.875,
          "durationTicks": 1152,
          "midi": 58,
          "name": "A#3",
          "ticks": 95232,
          "time": 155,
          "velocity": 0.7874015748031497
        },
        {
          "duration": 0.15625,
          "durationTicks": 96,
          "midi": 60,
          "name": "C4",
          "ticks": 95232,
          "time": 155,
          "velocity": 0.7874015748031497
        },
        {
          "duration": 1.875,
          "durationTicks": 1152,
          "midi": 58,
          "name": "A#3",
          "ticks": 95232,
          "time": 155,
          "velocity": 0.7874015748031497
        },
        {
          "duration": 0.15625,
          "durationTicks": 96,
          "midi": 65,
          "name": "F4",
          "ticks": 95424,
          "time": 155.3125,
          "velocity": 0.7874015748031497
        },
        {
          "duration": 1.5625,
          "durationTicks": 960,
          "midi": 67,
          "name": "G4",
          "ticks": 95616,
          "time": 155.625,
          "velocity": 0.7874015748031497
        },
        {
          "duration": 0.15625,
          "durationTicks": 96,
          "midi": 56,
          "name": "G#3",
          "ticks": 96576,
          "time": 157.1875,
          "velocity": 0.7874015748031497
        },
        {
          "duration": 0.15625,
          "durationTicks": 96,
          "midi": 56,
          "name": "G#3",
          "ticks": 96576,
          "time": 157.1875,
          "velocity": 0.7874015748031497
        },
        {
          "duration": 0.15625,
          "durationTicks": 96,
          "midi": 55,
          "name": "G3",
          "ticks": 96672,
          "time": 157.34375,
          "velocity": 0.7874015748031497
        },
        {
          "duration": 0.15625,
          "durationTicks": 96,
          "midi": 55,
          "name": "G3",
          "ticks": 96672,
          "time": 157.34375,
          "velocity": 0.7874015748031497
        },
        {
          "duration": 0.15625,
          "durationTicks": 96,
          "midi": 60,
          "name": "C4",
          "ticks": 96768,
          "time": 157.5,
          "velocity": 0.7874015748031497
        },
        {
          "duration": 0.3125,
          "durationTicks": 192,
          "midi": 60,
          "name": "C4",
          "ticks": 96768,
          "time": 157.5,
          "velocity": 0.7874015748031497
        },
        {
          "duration": 0.3125,
          "durationTicks": 192,
          "midi": 60,
          "name": "C4",
          "ticks": 96768,
          "time": 157.5,
          "velocity": 0.7874015748031497
        },
        {
          "duration": 0.15625,
          "durationTicks": 96,
          "midi": 67,
          "name": "G4",
          "ticks": 96960,
          "time": 157.8125,
          "velocity": 0.7874015748031497
        },
        {
          "duration": 0.3125,
          "durationTicks": 192,
          "midi": 58,
          "name": "A#3",
          "ticks": 97152,
          "time": 158.125,
          "velocity": 0.7874015748031497
        },
        {
          "duration": 0.3125,
          "durationTicks": 192,
          "midi": 58,
          "name": "A#3",
          "ticks": 97152,
          "time": 158.125,
          "velocity": 0.7874015748031497
        },
        {
          "duration": 1.5625,
          "durationTicks": 960,
          "midi": 72,
          "name": "C5",
          "ticks": 97152,
          "time": 158.125,
          "velocity": 0.7874015748031497
        },
        {
          "duration": 0.3125,
          "durationTicks": 192,
          "midi": 56,
          "name": "G#3",
          "ticks": 97536,
          "time": 158.75,
          "velocity": 0.7874015748031497
        },
        {
          "duration": 0.3125,
          "durationTicks": 192,
          "midi": 56,
          "name": "G#3",
          "ticks": 97536,
          "time": 158.75,
          "velocity": 0.7874015748031497
        },
        {
          "duration": 0.3125,
          "durationTicks": 192,
          "midi": 55,
          "name": "G3",
          "ticks": 97920,
          "time": 159.375,
          "velocity": 0.7874015748031497
        },
        {
          "duration": 0.3125,
          "durationTicks": 192,
          "midi": 55,
          "name": "G3",
          "ticks": 97920,
          "time": 159.375,
          "velocity": 0.7874015748031497
        },
        {
          "duration": 0.15625,
          "durationTicks": 96,
          "midi": 60,
          "name": "C4",
          "ticks": 98304,
          "time": 160,
          "velocity": 0.7874015748031497
        },
        {
          "duration": 1.25,
          "durationTicks": 768,
          "midi": 53,
          "name": "F3",
          "ticks": 98304,
          "time": 160,
          "velocity": 0.7874015748031497
        },
        {
          "duration": 1.875,
          "durationTicks": 1152,
          "midi": 53,
          "name": "F3",
          "ticks": 98304,
          "time": 160,
          "velocity": 0.7874015748031497
        },
        {
          "duration": 1.875,
          "durationTicks": 1152,
          "midi": 53,
          "name": "F3",
          "ticks": 98304,
          "time": 160,
          "velocity": 0.7874015748031497
        },
        {
          "duration": 0.15625,
          "durationTicks": 96,
          "midi": 65,
          "name": "F4",
          "ticks": 98496,
          "time": 160.3125,
          "velocity": 0.7874015748031497
        },
        {
          "duration": 1.5625,
          "durationTicks": 960,
          "midi": 67,
          "name": "G4",
          "ticks": 98688,
          "time": 160.625,
          "velocity": 0.7874015748031497
        },
        {
          "duration": 0.15625,
          "durationTicks": 96,
          "midi": 60,
          "name": "C4",
          "ticks": 99840,
          "time": 162.5,
          "velocity": 0.7874015748031497
        },
        {
          "duration": 0.15625,
          "durationTicks": 96,
          "midi": 65,
          "name": "F4",
          "ticks": 100032,
          "time": 162.8125,
          "velocity": 0.7874015748031497
        },
        {
          "duration": 1.5625,
          "durationTicks": 960,
          "midi": 68,
          "name": "G#4",
          "ticks": 100224,
          "time": 163.125,
          "velocity": 0.7874015748031497
        },
        {
          "duration": 0.15625,
          "durationTicks": 96,
          "midi": 60,
          "name": "C4",
          "ticks": 101376,
          "time": 165,
          "velocity": 0.7874015748031497
        },
        {
          "duration": 0.15625,
          "durationTicks": 96,
          "midi": 65,
          "name": "F4",
          "ticks": 101568,
          "time": 165.3125,
          "velocity": 0.7874015748031497
        },
        {
          "duration": 1.5625,
          "durationTicks": 960,
          "midi": 67,
          "name": "G4",
          "ticks": 101760,
          "time": 165.625,
          "velocity": 0.7874015748031497
        },
        {
          "duration": 0.15625,
          "durationTicks": 96,
          "midi": 60,
          "name": "C4",
          "ticks": 102912,
          "time": 167.5,
          "velocity": 0.7874015748031497
        },
        {
          "duration": 0.15625,
          "durationTicks": 96,
          "midi": 67,
          "name": "G4",
          "ticks": 103104,
          "time": 167.8125,
          "velocity": 0.7874015748031497
        },
        {
          "duration": 1.5625,
          "durationTicks": 960,
          "midi": 72,
          "name": "C5",
          "ticks": 103296,
          "time": 168.125,
          "velocity": 0.7874015748031497
        },
        {
          "duration": 1.25,
          "durationTicks": 768,
          "midi": 53,
          "name": "F3",
          "ticks": 104448,
          "time": 170,
          "velocity": 0.7874015748031497
        },
        {
          "duration": 0.15625,
          "durationTicks": 96,
          "midi": 60,
          "name": "C4",
          "ticks": 104448,
          "time": 170,
          "velocity": 0.7874015748031497
        },
        {
          "duration": 1.875,
          "durationTicks": 1152,
          "midi": 60,
          "name": "C4",
          "ticks": 104448,
          "time": 170,
          "velocity": 0.7874015748031497
        },
        {
          "duration": 1.875,
          "durationTicks": 1152,
          "midi": 60,
          "name": "C4",
          "ticks": 104448,
          "time": 170,
          "velocity": 0.7874015748031497
        },
        {
          "duration": 0.15625,
          "durationTicks": 96,
          "midi": 65,
          "name": "F4",
          "ticks": 104640,
          "time": 170.3125,
          "velocity": 0.7874015748031497
        },
        {
          "duration": 1.5625,
          "durationTicks": 960,
          "midi": 67,
          "name": "G4",
          "ticks": 104832,
          "time": 170.625,
          "velocity": 0.7874015748031497
        },
        {
          "duration": 0.15625,
          "durationTicks": 96,
          "midi": 60,
          "name": "C4",
          "ticks": 105984,
          "time": 172.5,
          "velocity": 0.7874015748031497
        },
        {
          "duration": 0.15625,
          "durationTicks": 96,
          "midi": 65,
          "name": "F4",
          "ticks": 106176,
          "time": 172.8125,
          "velocity": 0.7874015748031497
        },
        {
          "duration": 1.5625,
          "durationTicks": 960,
          "midi": 68,
          "name": "G#4",
          "ticks": 106368,
          "time": 173.125,
          "velocity": 0.7874015748031497
        },
        {
          "duration": 0.15625,
          "durationTicks": 96,
          "midi": 60,
          "name": "C4",
          "ticks": 107520,
          "time": 175,
          "velocity": 0.7874015748031497
        },
        {
          "duration": 0.15625,
          "durationTicks": 96,
          "midi": 65,
          "name": "F4",
          "ticks": 107712,
          "time": 175.3125,
          "velocity": 0.7874015748031497
        },
        {
          "duration": 1.5625,
          "durationTicks": 960,
          "midi": 67,
          "name": "G4",
          "ticks": 107904,
          "time": 175.625,
          "velocity": 0.7874015748031497
        },
        {
          "duration": 0.15625,
          "durationTicks": 96,
          "midi": 60,
          "name": "C4",
          "ticks": 109056,
          "time": 177.5,
          "velocity": 0.7874015748031497
        },
        {
          "duration": 0.15625,
          "durationTicks": 96,
          "midi": 67,
          "name": "G4",
          "ticks": 109248,
          "time": 177.8125,
          "velocity": 0.7874015748031497
        },
        {
          "duration": 1.5625,
          "durationTicks": 960,
          "midi": 72,
          "name": "C5",
          "ticks": 109440,
          "time": 178.125,
          "velocity": 0.7874015748031497
        },
        {
          "duration": 0.15625,
          "durationTicks": 96,
          "midi": 60,
          "name": "C4",
          "ticks": 110592,
          "time": 180,
          "velocity": 0.7874015748031497
        },
        {
          "duration": 1.25,
          "durationTicks": 768,
          "midi": 53,
          "name": "F3",
          "ticks": 110592,
          "time": 180,
          "velocity": 0.7874015748031497
        },
        {
          "duration": 1.875,
          "durationTicks": 1152,
          "midi": 60,
          "name": "C4",
          "ticks": 110592,
          "time": 180,
          "velocity": 0.7874015748031497
        },
        {
          "duration": 1.875,
          "durationTicks": 1152,
          "midi": 60,
          "name": "C4",
          "ticks": 110592,
          "time": 180,
          "velocity": 0.7874015748031497
        },
        {
          "duration": 0.15625,
          "durationTicks": 96,
          "midi": 65,
          "name": "F4",
          "ticks": 110784,
          "time": 180.3125,
          "velocity": 0.7874015748031497
        },
        {
          "duration": 1.5625,
          "durationTicks": 960,
          "midi": 67,
          "name": "G4",
          "ticks": 110976,
          "time": 180.625,
          "velocity": 0.7874015748031497
        },
        {
          "duration": 0.15625,
          "durationTicks": 96,
          "midi": 60,
          "name": "C4",
          "ticks": 112128,
          "time": 182.5,
          "velocity": 0.7874015748031497
        },
        {
          "duration": 0.15625,
          "durationTicks": 96,
          "midi": 65,
          "name": "F4",
          "ticks": 112320,
          "time": 182.8125,
          "velocity": 0.7874015748031497
        },
        {
          "duration": 1.5625,
          "durationTicks": 960,
          "midi": 68,
          "name": "G#4",
          "ticks": 112512,
          "time": 183.125,
          "velocity": 0.7874015748031497
        },
        {
          "duration": 0.15625,
          "durationTicks": 96,
          "midi": 60,
          "name": "C4",
          "ticks": 113664,
          "time": 185,
          "velocity": 0.7874015748031497
        },
        {
          "duration": 0.15625,
          "durationTicks": 96,
          "midi": 65,
          "name": "F4",
          "ticks": 113856,
          "time": 185.3125,
          "velocity": 0.7874015748031497
        },
        {
          "duration": 1.5625,
          "durationTicks": 960,
          "midi": 67,
          "name": "G4",
          "ticks": 114048,
          "time": 185.625,
          "velocity": 0.7874015748031497
        },
        {
          "duration": 0.15625,
          "durationTicks": 96,
          "midi": 60,
          "name": "C4",
          "ticks": 115200,
          "time": 187.5,
          "velocity": 0.7874015748031497
        },
        {
          "duration": 0.15625,
          "durationTicks": 96,
          "midi": 67,
          "name": "G4",
          "ticks": 115392,
          "time": 187.8125,
          "velocity": 0.7874015748031497
        },
        {
          "duration": 1.5625,
          "durationTicks": 960,
          "midi": 72,
          "name": "C5",
          "ticks": 115584,
          "time": 188.125,
          "velocity": 0.7874015748031497
        },
        {
          "duration": 0.46875,
          "durationTicks": 288,
          "midi": 55,
          "name": "G3",
          "ticks": 119424,
          "time": 194.375,
          "velocity": 0.7874015748031497
        },
        {
          "duration": 4.6875,
          "durationTicks": 2880,
          "midi": 56,
          "name": "G#3",
          "ticks": 119808,
          "time": 195,
          "velocity": 0.7874015748031497
        },
        {
          "duration": 0.15625,
          "durationTicks": 96,
          "midi": 48,
          "name": "C3",
          "ticks": 122880,
          "time": 200,
          "velocity": 0.7874015748031497
        },
        {
          "duration": 0.15625,
          "durationTicks": 96,
          "midi": 60,
          "name": "C4",
          "ticks": 122880,
          "time": 200,
          "velocity": 0.7874015748031497
        },
        {
          "duration": 0.15625,
          "durationTicks": 96,
          "midi": 48,
          "name": "C3",
          "ticks": 122880,
          "time": 200,
          "velocity": 0.7874015748031497
        },
        {
          "duration": 0.15625,
          "durationTicks": 96,
          "midi": 53,
          "name": "F3",
          "ticks": 123072,
          "time": 200.3125,
          "velocity": 0.7874015748031497
        },
        {
          "duration": 0.15625,
          "durationTicks": 96,
          "midi": 65,
          "name": "F4",
          "ticks": 123072,
          "time": 200.3125,
          "velocity": 0.7874015748031497
        },
        {
          "duration": 0.15625,
          "durationTicks": 96,
          "midi": 53,
          "name": "F3",
          "ticks": 123072,
          "time": 200.3125,
          "velocity": 0.7874015748031497
        },
        {
          "duration": 1.5625,
          "durationTicks": 960,
          "midi": 67,
          "name": "G4",
          "ticks": 123264,
          "time": 200.625,
          "velocity": 0.7874015748031497
        },
        {
          "duration": 1.25,
          "durationTicks": 768,
          "midi": 55,
          "name": "G3",
          "ticks": 123264,
          "time": 200.625,
          "velocity": 0.7874015748031497
        },
        {
          "duration": 1.25,
          "durationTicks": 768,
          "midi": 55,
          "name": "G3",
          "ticks": 123264,
          "time": 200.625,
          "velocity": 0.7874015748031497
        },
        {
          "duration": 0.15625,
          "durationTicks": 96,
          "midi": 53,
          "name": "F3",
          "ticks": 124224,
          "time": 202.1875,
          "velocity": 0.7874015748031497
        },
        {
          "duration": 0.15625,
          "durationTicks": 96,
          "midi": 53,
          "name": "F3",
          "ticks": 124224,
          "time": 202.1875,
          "velocity": 0.7874015748031497
        },
        {
          "duration": 0.15625,
          "durationTicks": 96,
          "midi": 55,
          "name": "G3",
          "ticks": 124320,
          "time": 202.34375,
          "velocity": 0.7874015748031497
        },
        {
          "duration": 0.15625,
          "durationTicks": 96,
          "midi": 55,
          "name": "G3",
          "ticks": 124320,
          "time": 202.34375,
          "velocity": 0.7874015748031497
        },
        {
          "duration": 0.15625,
          "durationTicks": 96,
          "midi": 60,
          "name": "C4",
          "ticks": 124416,
          "time": 202.5,
          "velocity": 0.7874015748031497
        },
        {
          "duration": 0.3125,
          "durationTicks": 192,
          "midi": 56,
          "name": "G#3",
          "ticks": 124416,
          "time": 202.5,
          "velocity": 0.7874015748031497
        },
        {
          "duration": 0.3125,
          "durationTicks": 192,
          "midi": 56,
          "name": "G#3",
          "ticks": 124416,
          "time": 202.5,
          "velocity": 0.7874015748031497
        },
        {
          "duration": 0.15625,
          "durationTicks": 96,
          "midi": 65,
          "name": "F4",
          "ticks": 124608,
          "time": 202.8125,
          "velocity": 0.7874015748031497
        },
        {
          "duration": 0.3125,
          "durationTicks": 192,
          "midi": 55,
          "name": "G3",
          "ticks": 124800,
          "time": 203.125,
          "velocity": 0.7874015748031497
        },
        {
          "duration": 1.5625,
          "durationTicks": 960,
          "midi": 68,
          "name": "G#4",
          "ticks": 124800,
          "time": 203.125,
          "velocity": 0.7874015748031497
        },
        {
          "duration": 0.3125,
          "durationTicks": 192,
          "midi": 55,
          "name": "G3",
          "ticks": 124800,
          "time": 203.125,
          "velocity": 0.7874015748031497
        },
        {
          "duration": 0.9375,
          "durationTicks": 576,
          "midi": 53,
          "name": "F3",
          "ticks": 125184,
          "time": 203.75,
          "velocity": 0.7874015748031497
        },
        {
          "duration": 0.9375,
          "durationTicks": 576,
          "midi": 53,
          "name": "F3",
          "ticks": 125184,
          "time": 203.75,
          "velocity": 0.7874015748031497
        },
        {
          "duration": 0.15625,
          "durationTicks": 96,
          "midi": 60,
          "name": "C4",
          "ticks": 125952,
          "time": 205,
          "velocity": 0.7874015748031497
        },
        {
          "duration": 1.875,
          "durationTicks": 1152,
          "midi": 51,
          "name": "D#3",
          "ticks": 125952,
          "time": 205,
          "velocity": 0.7874015748031497
        },
        {
          "duration": 1.875,
          "durationTicks": 1152,
          "midi": 51,
          "name": "D#3",
          "ticks": 125952,
          "time": 205,
          "velocity": 0.7874015748031497
        },
        {
          "duration": 0.15625,
          "durationTicks": 96,
          "midi": 65,
          "name": "F4",
          "ticks": 126144,
          "time": 205.3125,
          "velocity": 0.7874015748031497
        },
        {
          "duration": 1.5625,
          "durationTicks": 960,
          "midi": 67,
          "name": "G4",
          "ticks": 126336,
          "time": 205.625,
          "velocity": 0.7874015748031497
        },
        {
          "duration": 0.15625,
          "durationTicks": 96,
          "midi": 46,
          "name": "A#2",
          "ticks": 127296,
          "time": 207.1875,
          "velocity": 0.7874015748031497
        },
        {
          "duration": 0.15625,
          "durationTicks": 96,
          "midi": 46,
          "name": "A#2",
          "ticks": 127296,
          "time": 207.1875,
          "velocity": 0.7874015748031497
        },
        {
          "duration": 2.1875,
          "durationTicks": 1344,
          "midi": 48,
          "name": "C3",
          "ticks": 127488,
          "time": 207.5,
          "velocity": 0.7874015748031497
        },
        {
          "duration": 0.15625,
          "durationTicks": 96,
          "midi": 60,
          "name": "C4",
          "ticks": 127488,
          "time": 207.5,
          "velocity": 0.7874015748031497
        },
        {
          "duration": 2.1875,
          "durationTicks": 1344,
          "midi": 48,
          "name": "C3",
          "ticks": 127488,
          "time": 207.5,
          "velocity": 0.7874015748031497
        },
        {
          "duration": 0.15625,
          "durationTicks": 96,
          "midi": 67,
          "name": "G4",
          "ticks": 127680,
          "time": 207.8125,
          "velocity": 0.7874015748031497
        },
        {
          "duration": 1.5625,
          "durationTicks": 960,
          "midi": 72,
          "name": "C5",
          "ticks": 127872,
          "time": 208.125,
          "velocity": 0.7874015748031497
        },
        {
          "duration": 0.3125,
          "durationTicks": 192,
          "midi": 55,
          "name": "G3",
          "ticks": 128256,
          "time": 208.75,
          "velocity": 0.7874015748031497
        },
        {
          "duration": 0.3125,
          "durationTicks": 192,
          "midi": 55,
          "name": "G3",
          "ticks": 128256,
          "time": 208.75,
          "velocity": 0.7874015748031497
        },
        {
          "duration": 0.3125,
          "durationTicks": 192,
          "midi": 56,
          "name": "G#3",
          "ticks": 128640,
          "time": 209.375,
          "velocity": 0.7874015748031497
        },
        {
          "duration": 0.3125,
          "durationTicks": 192,
          "midi": 56,
          "name": "G#3",
          "ticks": 128640,
          "time": 209.375,
          "velocity": 0.7874015748031497
        },
        {
          "duration": 0.15625,
          "durationTicks": 96,
          "midi": 48,
          "name": "C3",
          "ticks": 129024,
          "time": 210,
          "velocity": 0.7874015748031497
        },
        {
          "duration": 0.15625,
          "durationTicks": 96,
          "midi": 48,
          "name": "C3",
          "ticks": 129024,
          "time": 210,
          "velocity": 0.7874015748031497
        },
        {
          "duration": 0.15625,
          "durationTicks": 96,
          "midi": 60,
          "name": "C4",
          "ticks": 129024,
          "time": 210,
          "velocity": 0.7874015748031497
        },
        {
          "duration": 0.15625,
          "durationTicks": 96,
          "midi": 53,
          "name": "F3",
          "ticks": 129216,
          "time": 210.3125,
          "velocity": 0.7874015748031497
        },
        {
          "duration": 0.15625,
          "durationTicks": 96,
          "midi": 53,
          "name": "F3",
          "ticks": 129216,
          "time": 210.3125,
          "velocity": 0.7874015748031497
        },
        {
          "duration": 0.15625,
          "durationTicks": 96,
          "midi": 65,
          "name": "F4",
          "ticks": 129216,
          "time": 210.3125,
          "velocity": 0.7874015748031497
        },
        {
          "duration": 1.25,
          "durationTicks": 768,
          "midi": 55,
          "name": "G3",
          "ticks": 129408,
          "time": 210.625,
          "velocity": 0.7874015748031497
        },
        {
          "duration": 1.5625,
          "durationTicks": 960,
          "midi": 67,
          "name": "G4",
          "ticks": 129408,
          "time": 210.625,
          "velocity": 0.7874015748031497
        },
        {
          "duration": 1.25,
          "durationTicks": 768,
          "midi": 55,
          "name": "G3",
          "ticks": 129408,
          "time": 210.625,
          "velocity": 0.7874015748031497
        },
        {
          "duration": 0.15625,
          "durationTicks": 96,
          "midi": 53,
          "name": "F3",
          "ticks": 130368,
          "time": 212.1875,
          "velocity": 0.7874015748031497
        },
        {
          "duration": 0.15625,
          "durationTicks": 96,
          "midi": 53,
          "name": "F3",
          "ticks": 130368,
          "time": 212.1875,
          "velocity": 0.7874015748031497
        },
        {
          "duration": 0.15625,
          "durationTicks": 96,
          "midi": 55,
          "name": "G3",
          "ticks": 130464,
          "time": 212.34375,
          "velocity": 0.7874015748031497
        },
        {
          "duration": 0.15625,
          "durationTicks": 96,
          "midi": 55,
          "name": "G3",
          "ticks": 130464,
          "time": 212.34375,
          "velocity": 0.7874015748031497
        },
        {
          "duration": 0.3125,
          "durationTicks": 192,
          "midi": 56,
          "name": "G#3",
          "ticks": 130560,
          "time": 212.5,
          "velocity": 0.7874015748031497
        },
        {
          "duration": 0.3125,
          "durationTicks": 192,
          "midi": 56,
          "name": "G#3",
          "ticks": 130560,
          "time": 212.5,
          "velocity": 0.7874015748031497
        },
        {
          "duration": 0.15625,
          "durationTicks": 96,
          "midi": 60,
          "name": "C4",
          "ticks": 130560,
          "time": 212.5,
          "velocity": 0.7874015748031497
        },
        {
          "duration": 0.15625,
          "durationTicks": 96,
          "midi": 65,
          "name": "F4",
          "ticks": 130752,
          "time": 212.8125,
          "velocity": 0.7874015748031497
        },
        {
          "duration": 0.3125,
          "durationTicks": 192,
          "midi": 55,
          "name": "G3",
          "ticks": 130944,
          "time": 213.125,
          "velocity": 0.7874015748031497
        },
        {
          "duration": 0.3125,
          "durationTicks": 192,
          "midi": 55,
          "name": "G3",
          "ticks": 130944,
          "time": 213.125,
          "velocity": 0.7874015748031497
        },
        {
          "duration": 1.5625,
          "durationTicks": 960,
          "midi": 68,
          "name": "G#4",
          "ticks": 130944,
          "time": 213.125,
          "velocity": 0.7874015748031497
        },
        {
          "duration": 0.9375,
          "durationTicks": 576,
          "midi": 53,
          "name": "F3",
          "ticks": 131328,
          "time": 213.75,
          "velocity": 0.7874015748031497
        },
        {
          "duration": 0.9375,
          "durationTicks": 576,
          "midi": 53,
          "name": "F3",
          "ticks": 131328,
          "time": 213.75,
          "velocity": 0.7874015748031497
        },
        {
          "duration": 0.15625,
          "durationTicks": 96,
          "midi": 60,
          "name": "C4",
          "ticks": 132096,
          "time": 215,
          "velocity": 0.7874015748031497
        },
        {
          "duration": 1.875,
          "durationTicks": 1152,
          "midi": 51,
          "name": "D#3",
          "ticks": 132096,
          "time": 215,
          "velocity": 0.7874015748031497
        },
        {
          "duration": 1.875,
          "durationTicks": 1152,
          "midi": 51,
          "name": "D#3",
          "ticks": 132096,
          "time": 215,
          "velocity": 0.7874015748031497
        },
        {
          "duration": 0.15625,
          "durationTicks": 96,
          "midi": 65,
          "name": "F4",
          "ticks": 132288,
          "time": 215.3125,
          "velocity": 0.7874015748031497
        },
        {
          "duration": 1.5625,
          "durationTicks": 960,
          "midi": 67,
          "name": "G4",
          "ticks": 132480,
          "time": 215.625,
          "velocity": 0.7874015748031497
        },
        {
          "duration": 0.15625,
          "durationTicks": 96,
          "midi": 46,
          "name": "A#2",
          "ticks": 133440,
          "time": 217.1875,
          "velocity": 0.7874015748031497
        },
        {
          "duration": 0.15625,
          "durationTicks": 96,
          "midi": 46,
          "name": "A#2",
          "ticks": 133440,
          "time": 217.1875,
          "velocity": 0.7874015748031497
        },
        {
          "duration": 2.1875,
          "durationTicks": 1344,
          "midi": 48,
          "name": "C3",
          "ticks": 133632,
          "time": 217.5,
          "velocity": 0.7874015748031497
        },
        {
          "duration": 2.1875,
          "durationTicks": 1344,
          "midi": 48,
          "name": "C3",
          "ticks": 133632,
          "time": 217.5,
          "velocity": 0.7874015748031497
        },
        {
          "duration": 0.15625,
          "durationTicks": 96,
          "midi": 60,
          "name": "C4",
          "ticks": 133632,
          "time": 217.5,
          "velocity": 0.7874015748031497
        },
        {
          "duration": 0.15625,
          "durationTicks": 96,
          "midi": 67,
          "name": "G4",
          "ticks": 133824,
          "time": 217.8125,
          "velocity": 0.7874015748031497
        },
        {
          "duration": 1.5625,
          "durationTicks": 960,
          "midi": 72,
          "name": "C5",
          "ticks": 134016,
          "time": 218.125,
          "velocity": 0.7874015748031497
        },
        {
          "duration": 0.3125,
          "durationTicks": 192,
          "midi": 55,
          "name": "G3",
          "ticks": 134400,
          "time": 218.75,
          "velocity": 0.7874015748031497
        },
        {
          "duration": 0.3125,
          "durationTicks": 192,
          "midi": 55,
          "name": "G3",
          "ticks": 134400,
          "time": 218.75,
          "velocity": 0.7874015748031497
        },
        {
          "duration": 0.3125,
          "durationTicks": 192,
          "midi": 56,
          "name": "G#3",
          "ticks": 134784,
          "time": 219.375,
          "velocity": 0.7874015748031497
        },
        {
          "duration": 0.3125,
          "durationTicks": 192,
          "midi": 56,
          "name": "G#3",
          "ticks": 134784,
          "time": 219.375,
          "velocity": 0.7874015748031497
        },
        {
          "duration": 0.15625,
          "durationTicks": 96,
          "midi": 60,
          "name": "C4",
          "ticks": 135168,
          "time": 220,
          "velocity": 0.7874015748031497
        },
        {
          "duration": 0.15625,
          "durationTicks": 96,
          "midi": 48,
          "name": "C3",
          "ticks": 135168,
          "time": 220,
          "velocity": 0.7874015748031497
        },
        {
          "duration": 0.15625,
          "durationTicks": 96,
          "midi": 48,
          "name": "C3",
          "ticks": 135168,
          "time": 220,
          "velocity": 0.7874015748031497
        },
        {
          "duration": 2.1875,
          "durationTicks": 1344,
          "midi": 48,
          "name": "C3",
          "ticks": 135168,
          "time": 220,
          "velocity": 0.7874015748031497
        },
        {
          "duration": 0.3125,
          "durationTicks": 192,
          "midi": 53,
          "name": "F3",
          "ticks": 135264,
          "time": 220.15625,
          "velocity": 0.7874015748031497
        },
        {
          "duration": 0.15625,
          "durationTicks": 96,
          "midi": 53,
          "name": "F3",
          "ticks": 135360,
          "time": 220.3125,
          "velocity": 0.7874015748031497
        },
        {
          "duration": 0.15625,
          "durationTicks": 96,
          "midi": 65,
          "name": "F4",
          "ticks": 135360,
          "time": 220.3125,
          "velocity": 0.7874015748031497
        },
        {
          "duration": 1.5625,
          "durationTicks": 960,
          "midi": 55,
          "name": "G3",
          "ticks": 135360,
          "time": 220.3125,
          "velocity": 0.7874015748031497
        },
        {
          "duration": 1.875,
          "durationTicks": 1152,
          "midi": 53,
          "name": "F3",
          "ticks": 135360,
          "time": 220.3125,
          "velocity": 0.7874015748031497
        },
        {
          "duration": 1.5625,
          "durationTicks": 960,
          "midi": 67,
          "name": "G4",
          "ticks": 135552,
          "time": 220.625,
          "velocity": 0.7874015748031497
        },
        {
          "duration": 1.25,
          "durationTicks": 768,
          "midi": 55,
          "name": "G3",
          "ticks": 135552,
          "time": 220.625,
          "velocity": 0.7874015748031497
        },
        {
          "duration": 1.5625,
          "durationTicks": 960,
          "midi": 55,
          "name": "G3",
          "ticks": 135552,
          "time": 220.625,
          "velocity": 0.7874015748031497
        },
        {
          "duration": 0.15625,
          "durationTicks": 96,
          "midi": 53,
          "name": "F3",
          "ticks": 136512,
          "time": 222.1875,
          "velocity": 0.7874015748031497
        },
        {
          "duration": 0.15625,
          "durationTicks": 96,
          "midi": 53,
          "name": "F3",
          "ticks": 136512,
          "time": 222.1875,
          "velocity": 0.7874015748031497
        },
        {
          "duration": 0.15625,
          "durationTicks": 96,
          "midi": 55,
          "name": "G3",
          "ticks": 136608,
          "time": 222.34375,
          "velocity": 0.7874015748031497
        },
        {
          "duration": 0.15625,
          "durationTicks": 96,
          "midi": 55,
          "name": "G3",
          "ticks": 136608,
          "time": 222.34375,
          "velocity": 0.7874015748031497
        },
        {
          "duration": 0.3125,
          "durationTicks": 192,
          "midi": 56,
          "name": "G#3",
          "ticks": 136704,
          "time": 222.5,
          "velocity": 0.7874015748031497
        },
        {
          "duration": 0.15625,
          "durationTicks": 96,
          "midi": 60,
          "name": "C4",
          "ticks": 136704,
          "time": 222.5,
          "velocity": 0.7874015748031497
        },
        {
          "duration": 2.1875,
          "durationTicks": 1344,
          "midi": 48,
          "name": "C3",
          "ticks": 136704,
          "time": 222.5,
          "velocity": 0.7874015748031497
        },
        {
          "duration": 0.3125,
          "durationTicks": 192,
          "midi": 56,
          "name": "G#3",
          "ticks": 136704,
          "time": 222.5,
          "velocity": 0.7874015748031497
        },
        {
          "duration": 2.03125,
          "durationTicks": 1248,
          "midi": 53,
          "name": "F3",
          "ticks": 136800,
          "time": 222.65625,
          "velocity": 0.7874015748031497
        },
        {
          "duration": 1.875,
          "durationTicks": 1152,
          "midi": 56,
          "name": "G#3",
          "ticks": 136896,
          "time": 222.8125,
          "velocity": 0.7874015748031497
        },
        {
          "duration": 0.15625,
          "durationTicks": 96,
          "midi": 65,
          "name": "F4",
          "ticks": 136896,
          "time": 222.8125,
          "velocity": 0.7874015748031497
        },
        {
          "duration": 0.3125,
          "durationTicks": 192,
          "midi": 58,
          "name": "A#3",
          "ticks": 137088,
          "time": 223.125,
          "velocity": 0.7874015748031497
        },
        {
          "duration": 0.3125,
          "durationTicks": 192,
          "midi": 58,
          "name": "A#3",
          "ticks": 137088,
          "time": 223.125,
          "velocity": 0.7874015748031497
        },
        {
          "duration": 1.5625,
          "durationTicks": 960,
          "midi": 68,
          "name": "G#4",
          "ticks": 137088,
          "time": 223.125,
          "velocity": 0.7874015748031497
        },
        {
          "duration": 0.9375,
          "durationTicks": 576,
          "midi": 60,
          "name": "C4",
          "ticks": 137472,
          "time": 223.75,
          "velocity": 0.7874015748031497
        },
        {
          "duration": 0.9375,
          "durationTicks": 576,
          "midi": 60,
          "name": "C4",
          "ticks": 137472,
          "time": 223.75,
          "velocity": 0.7874015748031497
        },
        {
          "duration": 0.15625,
          "durationTicks": 96,
          "midi": 60,
          "name": "C4",
          "ticks": 138240,
          "time": 225,
          "velocity": 0.7874015748031497
        },
        {
          "duration": 2.1875,
          "durationTicks": 1344,
          "midi": 48,
          "name": "C3",
          "ticks": 138240,
          "time": 225,
          "velocity": 0.7874015748031497
        },
        {
          "duration": 1.5625,
          "durationTicks": 960,
          "midi": 61,
          "name": "C#4",
          "ticks": 138240,
          "time": 225,
          "velocity": 0.7874015748031497
        },
        {
          "duration": 1.5625,
          "durationTicks": 960,
          "midi": 61,
          "name": "C#4",
          "ticks": 138240,
          "time": 225,
          "velocity": 0.7874015748031497
        },
        {
          "duration": 2.03125,
          "durationTicks": 1248,
          "midi": 53,
          "name": "F3",
          "ticks": 138336,
          "time": 225.15625,
          "velocity": 0.7874015748031497
        },
        {
          "duration": 1.875,
          "durationTicks": 1152,
          "midi": 58,
          "name": "A#3",
          "ticks": 138432,
          "time": 225.3125,
          "velocity": 0.7874015748031497
        },
        {
          "duration": 0.15625,
          "durationTicks": 96,
          "midi": 65,
          "name": "F4",
          "ticks": 138432,
          "time": 225.3125,
          "velocity": 0.7874015748031497
        },
        {
          "duration": 1.5625,
          "durationTicks": 960,
          "midi": 67,
          "name": "G4",
          "ticks": 138624,
          "time": 225.625,
          "velocity": 0.7874015748031497
        },
        {
          "duration": 0.15625,
          "durationTicks": 96,
          "midi": 65,
          "name": "F4",
          "ticks": 139392,
          "time": 226.875,
          "velocity": 0.7874015748031497
        },
        {
          "duration": 0.15625,
          "durationTicks": 96,
          "midi": 65,
          "name": "F4",
          "ticks": 139392,
          "time": 226.875,
          "velocity": 0.7874015748031497
        },
        {
          "duration": 0.15625,
          "durationTicks": 96,
          "midi": 67,
          "name": "G4",
          "ticks": 139584,
          "time": 227.1875,
          "velocity": 0.7874015748031497
        },
        {
          "duration": 0.15625,
          "durationTicks": 96,
          "midi": 67,
          "name": "G4",
          "ticks": 139584,
          "time": 227.1875,
          "velocity": 0.7874015748031497
        },
        {
          "duration": 1.875,
          "durationTicks": 1152,
          "midi": 48,
          "name": "C3",
          "ticks": 139776,
          "time": 227.5,
          "velocity": 0.7874015748031497
        },
        {
          "duration": 0.9375,
          "durationTicks": 576,
          "midi": 68,
          "name": "G#4",
          "ticks": 139776,
          "time": 227.5,
          "velocity": 0.7874015748031497
        },
        {
          "duration": 0.9375,
          "durationTicks": 576,
          "midi": 68,
          "name": "G#4",
          "ticks": 139776,
          "time": 227.5,
          "velocity": 0.7874015748031497
        },
        {
          "duration": 0.15625,
          "durationTicks": 96,
          "midi": 60,
          "name": "C4",
          "ticks": 139776,
          "time": 227.5,
          "velocity": 0.7874015748031497
        },
        {
          "duration": 1.71875,
          "durationTicks": 1056,
          "midi": 53,
          "name": "F3",
          "ticks": 139872,
          "time": 227.65625,
          "velocity": 0.7874015748031497
        },
        {
          "duration": 0.15625,
          "durationTicks": 96,
          "midi": 67,
          "name": "G4",
          "ticks": 139968,
          "time": 227.8125,
          "velocity": 0.7874015748031497
        },
        {
          "duration": 1.5625,
          "durationTicks": 960,
          "midi": 58,
          "name": "A#3",
          "ticks": 139968,
          "time": 227.8125,
          "velocity": 0.7874015748031497
        },
        {
          "duration": 1.40625,
          "durationTicks": 864,
          "midi": 60,
          "name": "C4",
          "ticks": 140064,
          "time": 227.96875,
          "velocity": 0.7874015748031497
        },
        {
          "duration": 1.5625,
          "durationTicks": 960,
          "midi": 72,
          "name": "C5",
          "ticks": 140160,
          "time": 228.125,
          "velocity": 0.7874015748031497
        },
        {
          "duration": 0.625,
          "durationTicks": 384,
          "midi": 67,
          "name": "G4",
          "ticks": 140352,
          "time": 228.4375,
          "velocity": 0.7874015748031497
        },
        {
          "duration": 0.625,
          "durationTicks": 384,
          "midi": 67,
          "name": "G4",
          "ticks": 140352,
          "time": 228.4375,
          "velocity": 0.7874015748031497
        },
        {
          "duration": 0.3125,
          "durationTicks": 192,
          "midi": 65,
          "name": "F4",
          "ticks": 140928,
          "time": 229.375,
          "velocity": 0.7874015748031497
        },
        {
          "duration": 0.3125,
          "durationTicks": 192,
          "midi": 65,
          "name": "F4",
          "ticks": 140928,
          "time": 229.375,
          "velocity": 0.7874015748031497
        },
        {
          "duration": 0.15625,
          "durationTicks": 96,
          "midi": 63,
          "name": "D#4",
          "ticks": 141120,
          "time": 229.6875,
          "velocity": 0.7874015748031497
        },
        {
          "duration": 0.15625,
          "durationTicks": 96,
          "midi": 63,
          "name": "D#4",
          "ticks": 141120,
          "time": 229.6875,
          "velocity": 0.7874015748031497
        },
        {
          "duration": 0.15625,
          "durationTicks": 96,
          "midi": 48,
          "name": "C3",
          "ticks": 141312,
          "time": 230,
          "velocity": 0.7874015748031497
        },
        {
          "duration": 0.15625,
          "durationTicks": 96,
          "midi": 48,
          "name": "C3",
          "ticks": 141312,
          "time": 230,
          "velocity": 0.7874015748031497
        },
        {
          "duration": 2.1875,
          "durationTicks": 1344,
          "midi": 48,
          "name": "C3",
          "ticks": 141312,
          "time": 230,
          "velocity": 0.7874015748031497
        },
        {
          "duration": 0.15625,
          "durationTicks": 96,
          "midi": 60,
          "name": "C4",
          "ticks": 141312,
          "time": 230,
          "velocity": 0.7874015748031497
        },
        {
          "duration": 0.3125,
          "durationTicks": 192,
          "midi": 53,
          "name": "F3",
          "ticks": 141408,
          "time": 230.15625,
          "velocity": 0.7874015748031497
        },
        {
          "duration": 0.15625,
          "durationTicks": 96,
          "midi": 53,
          "name": "F3",
          "ticks": 141504,
          "time": 230.3125,
          "velocity": 0.7874015748031497
        },
        {
          "duration": 1.875,
          "durationTicks": 1152,
          "midi": 53,
          "name": "F3",
          "ticks": 141504,
          "time": 230.3125,
          "velocity": 0.7874015748031497
        },
        {
          "duration": 1.5625,
          "durationTicks": 960,
          "midi": 55,
          "name": "G3",
          "ticks": 141504,
          "time": 230.3125,
          "velocity": 0.7874015748031497
        },
        {
          "duration": 0.15625,
          "durationTicks": 96,
          "midi": 65,
          "name": "F4",
          "ticks": 141504,
          "time": 230.3125,
          "velocity": 0.7874015748031497
        },
        {
          "duration": 1.25,
          "durationTicks": 768,
          "midi": 55,
          "name": "G3",
          "ticks": 141696,
          "time": 230.625,
          "velocity": 0.7874015748031497
        },
        {
          "duration": 1.5625,
          "durationTicks": 960,
          "midi": 55,
          "name": "G3",
          "ticks": 141696,
          "time": 230.625,
          "velocity": 0.7874015748031497
        },
        {
          "duration": 1.5625,
          "durationTicks": 960,
          "midi": 67,
          "name": "G4",
          "ticks": 141696,
          "time": 230.625,
          "velocity": 0.7874015748031497
        },
        {
          "duration": 0.15625,
          "durationTicks": 96,
          "midi": 53,
          "name": "F3",
          "ticks": 142656,
          "time": 232.1875,
          "velocity": 0.7874015748031497
        },
        {
          "duration": 0.15625,
          "durationTicks": 96,
          "midi": 53,
          "name": "F3",
          "ticks": 142656,
          "time": 232.1875,
          "velocity": 0.7874015748031497
        },
        {
          "duration": 0.15625,
          "durationTicks": 96,
          "midi": 55,
          "name": "G3",
          "ticks": 142752,
          "time": 232.34375,
          "velocity": 0.7874015748031497
        },
        {
          "duration": 0.15625,
          "durationTicks": 96,
          "midi": 55,
          "name": "G3",
          "ticks": 142752,
          "time": 232.34375,
          "velocity": 0.7874015748031497
        },
        {
          "duration": 0.3125,
          "durationTicks": 192,
          "midi": 56,
          "name": "G#3",
          "ticks": 142848,
          "time": 232.5,
          "velocity": 0.7874015748031497
        },
        {
          "duration": 2.1875,
          "durationTicks": 1344,
          "midi": 48,
          "name": "C3",
          "ticks": 142848,
          "time": 232.5,
          "velocity": 0.7874015748031497
        },
        {
          "duration": 0.15625,
          "durationTicks": 96,
          "midi": 60,
          "name": "C4",
          "ticks": 142848,
          "time": 232.5,
          "velocity": 0.7874015748031497
        },
        {
          "duration": 0.3125,
          "durationTicks": 192,
          "midi": 56,
          "name": "G#3",
          "ticks": 142848,
          "time": 232.5,
          "velocity": 0.7874015748031497
        },
        {
          "duration": 2.03125,
          "durationTicks": 1248,
          "midi": 53,
          "name": "F3",
          "ticks": 142944,
          "time": 232.65625,
          "velocity": 0.7874015748031497
        },
        {
          "duration": 0.15625,
          "durationTicks": 96,
          "midi": 65,
          "name": "F4",
          "ticks": 143040,
          "time": 232.8125,
          "velocity": 0.7874015748031497
        },
        {
          "duration": 1.875,
          "durationTicks": 1152,
          "midi": 56,
          "name": "G#3",
          "ticks": 143040,
          "time": 232.8125,
          "velocity": 0.7874015748031497
        },
        {
          "duration": 1.5625,
          "durationTicks": 960,
          "midi": 68,
          "name": "G#4",
          "ticks": 143232,
          "time": 233.125,
          "velocity": 0.7874015748031497
        },
        {
          "duration": 0.3125,
          "durationTicks": 192,
          "midi": 55,
          "name": "G3",
          "ticks": 143232,
          "time": 233.125,
          "velocity": 0.7874015748031497
        },
        {
          "duration": 0.3125,
          "durationTicks": 192,
          "midi": 55,
          "name": "G3",
          "ticks": 143232,
          "time": 233.125,
          "velocity": 0.7874015748031497
        },
        {
          "duration": 0.9375,
          "durationTicks": 576,
          "midi": 53,
          "name": "F3",
          "ticks": 143616,
          "time": 233.75,
          "velocity": 0.7874015748031497
        },
        {
          "duration": 0.9375,
          "durationTicks": 576,
          "midi": 53,
          "name": "F3",
          "ticks": 143616,
          "time": 233.75,
          "velocity": 0.7874015748031497
        },
        {
          "duration": 2.1875,
          "durationTicks": 1344,
          "midi": 48,
          "name": "C3",
          "ticks": 144384,
          "time": 235,
          "velocity": 0.7874015748031497
        },
        {
          "duration": 1.875,
          "durationTicks": 1152,
          "midi": 51,
          "name": "D#3",
          "ticks": 144384,
          "time": 235,
          "velocity": 0.7874015748031497
        },
        {
          "duration": 0.15625,
          "durationTicks": 96,
          "midi": 60,
          "name": "C4",
          "ticks": 144384,
          "time": 235,
          "velocity": 0.7874015748031497
        },
        {
          "duration": 1.875,
          "durationTicks": 1152,
          "midi": 51,
          "name": "D#3",
          "ticks": 144384,
          "time": 235,
          "velocity": 0.7874015748031497
        },
        {
          "duration": 2.03125,
          "durationTicks": 1248,
          "midi": 53,
          "name": "F3",
          "ticks": 144480,
          "time": 235.15625,
          "velocity": 0.7874015748031497
        },
        {
          "duration": 0.15625,
          "durationTicks": 96,
          "midi": 65,
          "name": "F4",
          "ticks": 144576,
          "time": 235.3125,
          "velocity": 0.7874015748031497
        },
        {
          "duration": 1.875,
          "durationTicks": 1152,
          "midi": 58,
          "name": "A#3",
          "ticks": 144576,
          "time": 235.3125,
          "velocity": 0.7874015748031497
        },
        {
          "duration": 1.5625,
          "durationTicks": 960,
          "midi": 67,
          "name": "G4",
          "ticks": 144768,
          "time": 235.625,
          "velocity": 0.7874015748031497
        },
        {
          "duration": 0.15625,
          "durationTicks": 96,
          "midi": 46,
          "name": "A#2",
          "ticks": 145728,
          "time": 237.1875,
          "velocity": 0.7874015748031497
        },
        {
          "duration": 0.15625,
          "durationTicks": 96,
          "midi": 46,
          "name": "A#2",
          "ticks": 145728,
          "time": 237.1875,
          "velocity": 0.7874015748031497
        },
        {
          "duration": 0.9375,
          "durationTicks": 576,
          "midi": 48,
          "name": "C3",
          "ticks": 145920,
          "time": 237.5,
          "velocity": 0.7874015748031497
        },
        {
          "duration": 0.15625,
          "durationTicks": 96,
          "midi": 60,
          "name": "C4",
          "ticks": 145920,
          "time": 237.5,
          "velocity": 0.7874015748031497
        },
        {
          "duration": 2.1875,
          "durationTicks": 1344,
          "midi": 48,
          "name": "C3",
          "ticks": 145920,
          "time": 237.5,
          "velocity": 0.7874015748031497
        },
        {
          "duration": 2.1875,
          "durationTicks": 1344,
          "midi": 48,
          "name": "C3",
          "ticks": 145920,
          "time": 237.5,
          "velocity": 0.7874015748031497
        },
        {
          "duration": 0.78125,
          "durationTicks": 480,
          "midi": 53,
          "name": "F3",
          "ticks": 146016,
          "time": 237.65625,
          "velocity": 0.7874015748031497
        },
        {
          "duration": 0.625,
          "durationTicks": 384,
          "midi": 58,
          "name": "A#3",
          "ticks": 146112,
          "time": 237.8125,
          "velocity": 0.7874015748031497
        },
        {
          "duration": 0.15625,
          "durationTicks": 96,
          "midi": 67,
          "name": "G4",
          "ticks": 146112,
          "time": 237.8125,
          "velocity": 0.7874015748031497
        },
        {
          "duration": 0.46875,
          "durationTicks": 288,
          "midi": 60,
          "name": "C4",
          "ticks": 146208,
          "time": 237.96875,
          "velocity": 0.7874015748031497
        },
        {
          "duration": 1.5625,
          "durationTicks": 960,
          "midi": 72,
          "name": "C5",
          "ticks": 146304,
          "time": 238.125,
          "velocity": 0.7874015748031497
        },
        {
          "duration": 0.3125,
          "durationTicks": 192,
          "midi": 61,
          "name": "C#4",
          "ticks": 146688,
          "time": 238.75,
          "velocity": 0.7874015748031497
        },
        {
          "duration": 0.3125,
          "durationTicks": 192,
          "midi": 55,
          "name": "G3",
          "ticks": 146688,
          "time": 238.75,
          "velocity": 0.7874015748031497
        },
        {
          "duration": 0.3125,
          "durationTicks": 192,
          "midi": 55,
          "name": "G3",
          "ticks": 146688,
          "time": 238.75,
          "velocity": 0.7874015748031497
        },
        {
          "duration": 0.3125,
          "durationTicks": 192,
          "midi": 56,
          "name": "G#3",
          "ticks": 147072,
          "time": 239.375,
          "velocity": 0.7874015748031497
        },
        {
          "duration": 0.3125,
          "durationTicks": 192,
          "midi": 56,
          "name": "G#3",
          "ticks": 147072,
          "time": 239.375,
          "velocity": 0.7874015748031497
        },
        {
          "duration": 0.3125,
          "durationTicks": 192,
          "midi": 58,
          "name": "A#3",
          "ticks": 147072,
          "time": 239.375,
          "velocity": 0.7874015748031497
        },
        {
          "duration": 0.15625,
          "durationTicks": 96,
          "midi": 48,
          "name": "C3",
          "ticks": 147456,
          "time": 240,
          "velocity": 0.7874015748031497
        },
        {
          "duration": 0.15625,
          "durationTicks": 96,
          "midi": 60,
          "name": "C4",
          "ticks": 147456,
          "time": 240,
          "velocity": 0.7874015748031497
        },
        {
          "duration": 0.15625,
          "durationTicks": 96,
          "midi": 48,
          "name": "C3",
          "ticks": 147456,
          "time": 240,
          "velocity": 0.7874015748031497
        },
        {
          "duration": 1.09375,
          "durationTicks": 672,
          "midi": 48,
          "name": "C3",
          "ticks": 147456,
          "time": 240,
          "velocity": 0.7874015748031497
        },
        {
          "duration": 0.3125,
          "durationTicks": 192,
          "midi": 53,
          "name": "F3",
          "ticks": 147552,
          "time": 240.15625,
          "velocity": 0.7874015748031497
        },
        {
          "duration": 0.15625,
          "durationTicks": 96,
          "midi": 53,
          "name": "F3",
          "ticks": 147648,
          "time": 240.3125,
          "velocity": 0.7874015748031497
        },
        {
          "duration": 1.09375,
          "durationTicks": 672,
          "midi": 53,
          "name": "F3",
          "ticks": 147648,
          "time": 240.3125,
          "velocity": 0.7874015748031497
        },
        {
          "duration": 0.46875,
          "durationTicks": 288,
          "midi": 55,
          "name": "G3",
          "ticks": 147648,
          "time": 240.3125,
          "velocity": 0.7874015748031497
        },
        {
          "duration": 0.15625,
          "durationTicks": 96,
          "midi": 65,
          "name": "F4",
          "ticks": 147648,
          "time": 240.3125,
          "velocity": 0.7874015748031497
        },
        {
          "duration": 0.15625,
          "durationTicks": 96,
          "midi": 55,
          "name": "G3",
          "ticks": 147840,
          "time": 240.625,
          "velocity": 0.7874015748031497
        },
        {
          "duration": 1.09375,
          "durationTicks": 672,
          "midi": 55,
          "name": "G3",
          "ticks": 147840,
          "time": 240.625,
          "velocity": 0.7874015748031497
        },
        {
          "duration": 1.5625,
          "durationTicks": 960,
          "midi": 67,
          "name": "G4",
          "ticks": 147840,
          "time": 240.625,
          "velocity": 0.7874015748031497
        },
        {
          "duration": 0.15625,
          "durationTicks": 96,
          "midi": 48,
          "name": "C3",
          "ticks": 148032,
          "time": 240.9375,
          "velocity": 0.7874015748031497
        },
        {
          "duration": 1.09375,
          "durationTicks": 672,
          "midi": 48,
          "name": "C3",
          "ticks": 148032,
          "time": 240.9375,
          "velocity": 0.7874015748031497
        },
        {
          "duration": 0.15625,
          "durationTicks": 96,
          "midi": 53,
          "name": "F3",
          "ticks": 148224,
          "time": 241.25,
          "velocity": 0.7874015748031497
        },
        {
          "duration": 0.9375,
          "durationTicks": 576,
          "midi": 53,
          "name": "F3",
          "ticks": 148224,
          "time": 241.25,
          "velocity": 0.7874015748031497
        },
        {
          "duration": 0.15625,
          "durationTicks": 96,
          "midi": 55,
          "name": "G3",
          "ticks": 148416,
          "time": 241.5625,
          "velocity": 0.7874015748031497
        },
        {
          "duration": 0.625,
          "durationTicks": 384,
          "midi": 55,
          "name": "G3",
          "ticks": 148416,
          "time": 241.5625,
          "velocity": 0.7874015748031497
        },
        {
          "duration": 0.15625,
          "durationTicks": 96,
          "midi": 48,
          "name": "C3",
          "ticks": 148608,
          "time": 241.875,
          "velocity": 0.7874015748031497
        },
        {
          "duration": 0.3125,
          "durationTicks": 192,
          "midi": 48,
          "name": "C3",
          "ticks": 148608,
          "time": 241.875,
          "velocity": 0.7874015748031497
        },
        {
          "duration": 0.15625,
          "durationTicks": 96,
          "midi": 53,
          "name": "F3",
          "ticks": 148800,
          "time": 242.1875,
          "velocity": 0.7874015748031497
        },
        {
          "duration": 0.15625,
          "durationTicks": 96,
          "midi": 53,
          "name": "F3",
          "ticks": 148800,
          "time": 242.1875,
          "velocity": 0.7874015748031497
        },
        {
          "duration": 0.15625,
          "durationTicks": 96,
          "midi": 48,
          "name": "C3",
          "ticks": 148992,
          "time": 242.5,
          "velocity": 0.7874015748031497
        },
        {
          "duration": 0.15625,
          "durationTicks": 96,
          "midi": 60,
          "name": "C4",
          "ticks": 148992,
          "time": 242.5,
          "velocity": 0.7874015748031497
        },
        {
          "duration": 0.15625,
          "durationTicks": 96,
          "midi": 48,
          "name": "C3",
          "ticks": 148992,
          "time": 242.5,
          "velocity": 0.7874015748031497
        },
        {
          "duration": 1.09375,
          "durationTicks": 672,
          "midi": 48,
          "name": "C3",
          "ticks": 148992,
          "time": 242.5,
          "velocity": 0.7874015748031497
        },
        {
          "duration": 0.3125,
          "durationTicks": 192,
          "midi": 53,
          "name": "F3",
          "ticks": 149088,
          "time": 242.65625,
          "velocity": 0.7874015748031497
        },
        {
          "duration": 0.15625,
          "durationTicks": 96,
          "midi": 65,
          "name": "F4",
          "ticks": 149184,
          "time": 242.8125,
          "velocity": 0.7874015748031497
        },
        {
          "duration": 0.15625,
          "durationTicks": 96,
          "midi": 53,
          "name": "F3",
          "ticks": 149184,
          "time": 242.8125,
          "velocity": 0.7874015748031497
        },
        {
          "duration": 1.09375,
          "durationTicks": 672,
          "midi": 53,
          "name": "F3",
          "ticks": 149184,
          "time": 242.8125,
          "velocity": 0.7874015748031497
        },
        {
          "duration": 0.46875,
          "durationTicks": 288,
          "midi": 56,
          "name": "G#3",
          "ticks": 149184,
          "time": 242.8125,
          "velocity": 0.7874015748031497
        },
        {
          "duration": 0.15625,
          "durationTicks": 96,
          "midi": 56,
          "name": "G#3",
          "ticks": 149376,
          "time": 243.125,
          "velocity": 0.7874015748031497
        },
        {
          "duration": 1.09375,
          "durationTicks": 672,
          "midi": 56,
          "name": "G#3",
          "ticks": 149376,
          "time": 243.125,
          "velocity": 0.7874015748031497
        },
        {
          "duration": 1.5625,
          "durationTicks": 960,
          "midi": 68,
          "name": "G#4",
          "ticks": 149376,
          "time": 243.125,
          "velocity": 0.7874015748031497
        },
        {
          "duration": 0.15625,
          "durationTicks": 96,
          "midi": 48,
          "name": "C3",
          "ticks": 149568,
          "time": 243.4375,
          "velocity": 0.7874015748031497
        },
        {
          "duration": 1.09375,
          "durationTicks": 672,
          "midi": 48,
          "name": "C3",
          "ticks": 149568,
          "time": 243.4375,
          "velocity": 0.7874015748031497
        },
        {
          "duration": 0.15625,
          "durationTicks": 96,
          "midi": 53,
          "name": "F3",
          "ticks": 149760,
          "time": 243.75,
          "velocity": 0.7874015748031497
        },
        {
          "duration": 0.9375,
          "durationTicks": 576,
          "midi": 53,
          "name": "F3",
          "ticks": 149760,
          "time": 243.75,
          "velocity": 0.7874015748031497
        },
        {
          "duration": 0.15625,
          "durationTicks": 96,
          "midi": 56,
          "name": "G#3",
          "ticks": 149952,
          "time": 244.0625,
          "velocity": 0.7874015748031497
        },
        {
          "duration": 0.625,
          "durationTicks": 384,
          "midi": 56,
          "name": "G#3",
          "ticks": 149952,
          "time": 244.0625,
          "velocity": 0.7874015748031497
        },
        {
          "duration": 0.15625,
          "durationTicks": 96,
          "midi": 48,
          "name": "C3",
          "ticks": 150144,
          "time": 244.375,
          "velocity": 0.7874015748031497
        },
        {
          "duration": 0.3125,
          "durationTicks": 192,
          "midi": 48,
          "name": "C3",
          "ticks": 150144,
          "time": 244.375,
          "velocity": 0.7874015748031497
        },
        {
          "duration": 0.15625,
          "durationTicks": 96,
          "midi": 53,
          "name": "F3",
          "ticks": 150336,
          "time": 244.6875,
          "velocity": 0.7874015748031497
        },
        {
          "duration": 0.15625,
          "durationTicks": 96,
          "midi": 53,
          "name": "F3",
          "ticks": 150336,
          "time": 244.6875,
          "velocity": 0.7874015748031497
        },
        {
          "duration": 0.15625,
          "durationTicks": 96,
          "midi": 48,
          "name": "C3",
          "ticks": 150528,
          "time": 245,
          "velocity": 0.7874015748031497
        },
        {
          "duration": 0.15625,
          "durationTicks": 96,
          "midi": 48,
          "name": "C3",
          "ticks": 150528,
          "time": 245,
          "velocity": 0.7874015748031497
        },
        {
          "duration": 0.15625,
          "durationTicks": 96,
          "midi": 60,
          "name": "C4",
          "ticks": 150528,
          "time": 245,
          "velocity": 0.7874015748031497
        },
        {
          "duration": 1.09375,
          "durationTicks": 672,
          "midi": 48,
          "name": "C3",
          "ticks": 150528,
          "time": 245,
          "velocity": 0.7874015748031497
        },
        {
          "duration": 0.3125,
          "durationTicks": 192,
          "midi": 53,
          "name": "F3",
          "ticks": 150624,
          "time": 245.15625,
          "velocity": 0.7874015748031497
        },
        {
          "duration": 0.15625,
          "durationTicks": 96,
          "midi": 53,
          "name": "F3",
          "ticks": 150720,
          "time": 245.3125,
          "velocity": 0.7874015748031497
        },
        {
          "duration": 1.09375,
          "durationTicks": 672,
          "midi": 53,
          "name": "F3",
          "ticks": 150720,
          "time": 245.3125,
          "velocity": 0.7874015748031497
        },
        {
          "duration": 0.15625,
          "durationTicks": 96,
          "midi": 65,
          "name": "F4",
          "ticks": 150720,
          "time": 245.3125,
          "velocity": 0.7874015748031497
        },
        {
          "duration": 0.46875,
          "durationTicks": 288,
          "midi": 58,
          "name": "A#3",
          "ticks": 150720,
          "time": 245.3125,
          "velocity": 0.7874015748031497
        },
        {
          "duration": 1.5625,
          "durationTicks": 960,
          "midi": 67,
          "name": "G4",
          "ticks": 150912,
          "time": 245.625,
          "velocity": 0.7874015748031497
        },
        {
          "duration": 0.15625,
          "durationTicks": 96,
          "midi": 58,
          "name": "A#3",
          "ticks": 150912,
          "time": 245.625,
          "velocity": 0.7874015748031497
        },
        {
          "duration": 1.09375,
          "durationTicks": 672,
          "midi": 58,
          "name": "A#3",
          "ticks": 150912,
          "time": 245.625,
          "velocity": 0.7874015748031497
        },
        {
          "duration": 0.15625,
          "durationTicks": 96,
          "midi": 48,
          "name": "C3",
          "ticks": 151104,
          "time": 245.9375,
          "velocity": 0.7874015748031497
        },
        {
          "duration": 1.09375,
          "durationTicks": 672,
          "midi": 48,
          "name": "C3",
          "ticks": 151104,
          "time": 245.9375,
          "velocity": 0.7874015748031497
        },
        {
          "duration": 0.15625,
          "durationTicks": 96,
          "midi": 53,
          "name": "F3",
          "ticks": 151296,
          "time": 246.25,
          "velocity": 0.7874015748031497
        },
        {
          "duration": 0.9375,
          "durationTicks": 576,
          "midi": 53,
          "name": "F3",
          "ticks": 151296,
          "time": 246.25,
          "velocity": 0.7874015748031497
        },
        {
          "duration": 0.15625,
          "durationTicks": 96,
          "midi": 58,
          "name": "A#3",
          "ticks": 151488,
          "time": 246.5625,
          "velocity": 0.7874015748031497
        },
        {
          "duration": 0.625,
          "durationTicks": 384,
          "midi": 58,
          "name": "A#3",
          "ticks": 151488,
          "time": 246.5625,
          "velocity": 0.7874015748031497
        },
        {
          "duration": 0.15625,
          "durationTicks": 96,
          "midi": 48,
          "name": "C3",
          "ticks": 151680,
          "time": 246.875,
          "velocity": 0.7874015748031497
        },
        {
          "duration": 0.3125,
          "durationTicks": 192,
          "midi": 48,
          "name": "C3",
          "ticks": 151680,
          "time": 246.875,
          "velocity": 0.7874015748031497
        },
        {
          "duration": 0.15625,
          "durationTicks": 96,
          "midi": 53,
          "name": "F3",
          "ticks": 151872,
          "time": 247.1875,
          "velocity": 0.7874015748031497
        },
        {
          "duration": 0.15625,
          "durationTicks": 96,
          "midi": 53,
          "name": "F3",
          "ticks": 151872,
          "time": 247.1875,
          "velocity": 0.7874015748031497
        },
        {
          "duration": 0.15625,
          "durationTicks": 96,
          "midi": 60,
          "name": "C4",
          "ticks": 152064,
          "time": 247.5,
          "velocity": 0.7874015748031497
        },
        {
          "duration": 0.15625,
          "durationTicks": 96,
          "midi": 48,
          "name": "C3",
          "ticks": 152064,
          "time": 247.5,
          "velocity": 0.7874015748031497
        },
        {
          "duration": 0.15625,
          "durationTicks": 96,
          "midi": 48,
          "name": "C3",
          "ticks": 152064,
          "time": 247.5,
          "velocity": 0.7874015748031497
        },
        {
          "duration": 0.9375,
          "durationTicks": 576,
          "midi": 48,
          "name": "C3",
          "ticks": 152064,
          "time": 247.5,
          "velocity": 0.7874015748031497
        },
        {
          "duration": 0.3125,
          "durationTicks": 192,
          "midi": 53,
          "name": "F3",
          "ticks": 152160,
          "time": 247.65625,
          "velocity": 0.7874015748031497
        },
        {
          "duration": 0.46875,
          "durationTicks": 288,
          "midi": 58,
          "name": "A#3",
          "ticks": 152256,
          "time": 247.8125,
          "velocity": 0.7874015748031497
        },
        {
          "duration": 0.15625,
          "durationTicks": 96,
          "midi": 53,
          "name": "F3",
          "ticks": 152256,
          "time": 247.8125,
          "velocity": 0.7874015748031497
        },
        {
          "duration": 0.15625,
          "durationTicks": 96,
          "midi": 67,
          "name": "G4",
          "ticks": 152256,
          "time": 247.8125,
          "velocity": 0.7874015748031497
        },
        {
          "duration": 0.625,
          "durationTicks": 384,
          "midi": 53,
          "name": "F3",
          "ticks": 152256,
          "time": 247.8125,
          "velocity": 0.7874015748031497
        },
        {
          "duration": 0.46875,
          "durationTicks": 288,
          "midi": 60,
          "name": "C4",
          "ticks": 152352,
          "time": 247.96875,
          "velocity": 0.7874015748031497
        },
        {
          "duration": 0.15625,
          "durationTicks": 96,
          "midi": 58,
          "name": "A#3",
          "ticks": 152448,
          "time": 248.125,
          "velocity": 0.7874015748031497
        },
        {
          "duration": 0.3125,
          "durationTicks": 192,
          "midi": 58,
          "name": "A#3",
          "ticks": 152448,
          "time": 248.125,
          "velocity": 0.7874015748031497
        },
        {
          "duration": 1.5625,
          "durationTicks": 960,
          "midi": 72,
          "name": "C5",
          "ticks": 152448,
          "time": 248.125,
          "velocity": 0.7874015748031497
        },
        {
          "duration": 0.15625,
          "durationTicks": 96,
          "midi": 48,
          "name": "C3",
          "ticks": 152640,
          "time": 248.4375,
          "velocity": 0.7874015748031497
        },
        {
          "duration": 0.15625,
          "durationTicks": 96,
          "midi": 48,
          "name": "C3",
          "ticks": 152640,
          "time": 248.4375,
          "velocity": 0.7874015748031497
        },
        {
          "duration": 0.3125,
          "durationTicks": 192,
          "midi": 61,
          "name": "C#4",
          "ticks": 152832,
          "time": 248.75,
          "velocity": 0.7874015748031497
        },
        {
          "duration": 0.15625,
          "durationTicks": 96,
          "midi": 53,
          "name": "F3",
          "ticks": 152832,
          "time": 248.75,
          "velocity": 0.7874015748031497
        },
        {
          "duration": 0.15625,
          "durationTicks": 96,
          "midi": 53,
          "name": "F3",
          "ticks": 152832,
          "time": 248.75,
          "velocity": 0.7874015748031497
        },
        {
          "duration": 0.15625,
          "durationTicks": 96,
          "midi": 58,
          "name": "A#3",
          "ticks": 153024,
          "time": 249.0625,
          "velocity": 0.7874015748031497
        },
        {
          "duration": 0.15625,
          "durationTicks": 96,
          "midi": 58,
          "name": "A#3",
          "ticks": 153024,
          "time": 249.0625,
          "velocity": 0.7874015748031497
        },
        {
          "duration": 0.15625,
          "durationTicks": 96,
          "midi": 56,
          "name": "G#3",
          "ticks": 153216,
          "time": 249.375,
          "velocity": 0.7874015748031497
        },
        {
          "duration": 0.15625,
          "durationTicks": 96,
          "midi": 56,
          "name": "G#3",
          "ticks": 153216,
          "time": 249.375,
          "velocity": 0.7874015748031497
        },
        {
          "duration": 0.3125,
          "durationTicks": 192,
          "midi": 58,
          "name": "A#3",
          "ticks": 153216,
          "time": 249.375,
          "velocity": 0.7874015748031497
        },
        {
          "duration": 0.15625,
          "durationTicks": 96,
          "midi": 55,
          "name": "G3",
          "ticks": 153408,
          "time": 249.6875,
          "velocity": 0.7874015748031497
        },
        {
          "duration": 0.15625,
          "durationTicks": 96,
          "midi": 55,
          "name": "G3",
          "ticks": 153408,
          "time": 249.6875,
          "velocity": 0.7874015748031497
        },
        {
          "duration": 0.15625,
          "durationTicks": 96,
          "midi": 48,
          "name": "C3",
          "ticks": 153600,
          "time": 250,
          "velocity": 0.7874015748031497
        },
        {
          "duration": 0.15625,
          "durationTicks": 96,
          "midi": 60,
          "name": "C4",
          "ticks": 153600,
          "time": 250,
          "velocity": 0.7874015748031497
        },
        {
          "duration": 0.15625,
          "durationTicks": 96,
          "midi": 48,
          "name": "C3",
          "ticks": 153600,
          "time": 250,
          "velocity": 0.7874015748031497
        },
        {
          "duration": 2.1875,
          "durationTicks": 1344,
          "midi": 48,
          "name": "C3",
          "ticks": 153600,
          "time": 250,
          "velocity": 0.7874015748031497
        },
        {
          "duration": 0.3125,
          "durationTicks": 192,
          "midi": 53,
          "name": "F3",
          "ticks": 153696,
          "time": 250.15625,
          "velocity": 0.7874015748031497
        },
        {
          "duration": 1.5625,
          "durationTicks": 960,
          "midi": 55,
          "name": "G3",
          "ticks": 153792,
          "time": 250.3125,
          "velocity": 0.7874015748031497
        },
        {
          "duration": 0.15625,
          "durationTicks": 96,
          "midi": 53,
          "name": "F3",
          "ticks": 153792,
          "time": 250.3125,
          "velocity": 0.7874015748031497
        },
        {
          "duration": 0.15625,
          "durationTicks": 96,
          "midi": 65,
          "name": "F4",
          "ticks": 153792,
          "time": 250.3125,
          "velocity": 0.7874015748031497
        },
        {
          "duration": 1.875,
          "durationTicks": 1152,
          "midi": 53,
          "name": "F3",
          "ticks": 153792,
          "time": 250.3125,
          "velocity": 0.7874015748031497
        },
        {
          "duration": 1.25,
          "durationTicks": 768,
          "midi": 55,
          "name": "G3",
          "ticks": 153984,
          "time": 250.625,
          "velocity": 0.7874015748031497
        },
        {
          "duration": 1.5625,
          "durationTicks": 960,
          "midi": 55,
          "name": "G3",
          "ticks": 153984,
          "time": 250.625,
          "velocity": 0.7874015748031497
        },
        {
          "duration": 1.5625,
          "durationTicks": 960,
          "midi": 67,
          "name": "G4",
          "ticks": 153984,
          "time": 250.625,
          "velocity": 0.7874015748031497
        },
        {
          "duration": 0.15625,
          "durationTicks": 96,
          "midi": 53,
          "name": "F3",
          "ticks": 154944,
          "time": 252.1875,
          "velocity": 0.7874015748031497
        },
        {
          "duration": 0.15625,
          "durationTicks": 96,
          "midi": 53,
          "name": "F3",
          "ticks": 154944,
          "time": 252.1875,
          "velocity": 0.7874015748031497
        },
        {
          "duration": 0.15625,
          "durationTicks": 96,
          "midi": 55,
          "name": "G3",
          "ticks": 155040,
          "time": 252.34375,
          "velocity": 0.7874015748031497
        },
        {
          "duration": 0.15625,
          "durationTicks": 96,
          "midi": 55,
          "name": "G3",
          "ticks": 155040,
          "time": 252.34375,
          "velocity": 0.7874015748031497
        },
        {
          "duration": 2.1875,
          "durationTicks": 1344,
          "midi": 48,
          "name": "C3",
          "ticks": 155136,
          "time": 252.5,
          "velocity": 0.7874015748031497
        },
        {
          "duration": 0.15625,
          "durationTicks": 96,
          "midi": 60,
          "name": "C4",
          "ticks": 155136,
          "time": 252.5,
          "velocity": 0.7874015748031497
        },
        {
          "duration": 0.3125,
          "durationTicks": 192,
          "midi": 56,
          "name": "G#3",
          "ticks": 155136,
          "time": 252.5,
          "velocity": 0.7874015748031497
        },
        {
          "duration": 0.3125,
          "durationTicks": 192,
          "midi": 56,
          "name": "G#3",
          "ticks": 155136,
          "time": 252.5,
          "velocity": 0.7874015748031497
        },
        {
          "duration": 2.03125,
          "durationTicks": 1248,
          "midi": 53,
          "name": "F3",
          "ticks": 155232,
          "time": 252.65625,
          "velocity": 0.7874015748031497
        },
        {
          "duration": 1.875,
          "durationTicks": 1152,
          "midi": 56,
          "name": "G#3",
          "ticks": 155328,
          "time": 252.8125,
          "velocity": 0.7874015748031497
        },
        {
          "duration": 0.15625,
          "durationTicks": 96,
          "midi": 65,
          "name": "F4",
          "ticks": 155328,
          "time": 252.8125,
          "velocity": 0.7874015748031497
        },
        {
          "duration": 0.3125,
          "durationTicks": 192,
          "midi": 55,
          "name": "G3",
          "ticks": 155520,
          "time": 253.125,
          "velocity": 0.7874015748031497
        },
        {
          "duration": 1.5625,
          "durationTicks": 960,
          "midi": 68,
          "name": "G#4",
          "ticks": 155520,
          "time": 253.125,
          "velocity": 0.7874015748031497
        },
        {
          "duration": 0.3125,
          "durationTicks": 192,
          "midi": 55,
          "name": "G3",
          "ticks": 155520,
          "time": 253.125,
          "velocity": 0.7874015748031497
        },
        {
          "duration": 0.9375,
          "durationTicks": 576,
          "midi": 53,
          "name": "F3",
          "ticks": 155904,
          "time": 253.75,
          "velocity": 0.7874015748031497
        },
        {
          "duration": 0.9375,
          "durationTicks": 576,
          "midi": 53,
          "name": "F3",
          "ticks": 155904,
          "time": 253.75,
          "velocity": 0.7874015748031497
        },
        {
          "duration": 2.1875,
          "durationTicks": 1344,
          "midi": 48,
          "name": "C3",
          "ticks": 156672,
          "time": 255,
          "velocity": 0.7874015748031497
        },
        {
          "duration": 1.875,
          "durationTicks": 1152,
          "midi": 51,
          "name": "D#3",
          "ticks": 156672,
          "time": 255,
          "velocity": 0.7874015748031497
        },
        {
          "duration": 0.15625,
          "durationTicks": 96,
          "midi": 60,
          "name": "C4",
          "ticks": 156672,
          "time": 255,
          "velocity": 0.7874015748031497
        },
        {
          "duration": 1.875,
          "durationTicks": 1152,
          "midi": 51,
          "name": "D#3",
          "ticks": 156672,
          "time": 255,
          "velocity": 0.7874015748031497
        },
        {
          "duration": 2.03125,
          "durationTicks": 1248,
          "midi": 53,
          "name": "F3",
          "ticks": 156768,
          "time": 255.15625,
          "velocity": 0.7874015748031497
        },
        {
          "duration": 1.875,
          "durationTicks": 1152,
          "midi": 58,
          "name": "A#3",
          "ticks": 156864,
          "time": 255.3125,
          "velocity": 0.7874015748031497
        },
        {
          "duration": 0.15625,
          "durationTicks": 96,
          "midi": 65,
          "name": "F4",
          "ticks": 156864,
          "time": 255.3125,
          "velocity": 0.7874015748031497
        },
        {
          "duration": 1.5625,
          "durationTicks": 960,
          "midi": 67,
          "name": "G4",
          "ticks": 157056,
          "time": 255.625,
          "velocity": 0.7874015748031497
        },
        {
          "duration": 0.15625,
          "durationTicks": 96,
          "midi": 46,
          "name": "A#2",
          "ticks": 158016,
          "time": 257.1875,
          "velocity": 0.7874015748031497
        },
        {
          "duration": 0.15625,
          "durationTicks": 96,
          "midi": 46,
          "name": "A#2",
          "ticks": 158016,
          "time": 257.1875,
          "velocity": 0.7874015748031497
        },
        {
          "duration": 0.9375,
          "durationTicks": 576,
          "midi": 48,
          "name": "C3",
          "ticks": 158208,
          "time": 257.5,
          "velocity": 0.7874015748031497
        },
        {
          "duration": 2.1875,
          "durationTicks": 1344,
          "midi": 48,
          "name": "C3",
          "ticks": 158208,
          "time": 257.5,
          "velocity": 0.7874015748031497
        },
        {
          "duration": 2.1875,
          "durationTicks": 1344,
          "midi": 48,
          "name": "C3",
          "ticks": 158208,
          "time": 257.5,
          "velocity": 0.7874015748031497
        },
        {
          "duration": 0.15625,
          "durationTicks": 96,
          "midi": 60,
          "name": "C4",
          "ticks": 158208,
          "time": 257.5,
          "velocity": 0.7874015748031497
        },
        {
          "duration": 0.78125,
          "durationTicks": 480,
          "midi": 53,
          "name": "F3",
          "ticks": 158304,
          "time": 257.65625,
          "velocity": 0.7874015748031497
        },
        {
          "duration": 0.15625,
          "durationTicks": 96,
          "midi": 67,
          "name": "G4",
          "ticks": 158400,
          "time": 257.8125,
          "velocity": 0.7874015748031497
        },
        {
          "duration": 0.625,
          "durationTicks": 384,
          "midi": 58,
          "name": "A#3",
          "ticks": 158400,
          "time": 257.8125,
          "velocity": 0.7874015748031497
        },
        {
          "duration": 0.46875,
          "durationTicks": 288,
          "midi": 60,
          "name": "C4",
          "ticks": 158496,
          "time": 257.96875,
          "velocity": 0.7874015748031497
        },
        {
          "duration": 1.5625,
          "durationTicks": 960,
          "midi": 72,
          "name": "C5",
          "ticks": 158592,
          "time": 258.125,
          "velocity": 0.7874015748031497
        },
        {
          "duration": 0.3125,
          "durationTicks": 192,
          "midi": 61,
          "name": "C#4",
          "ticks": 158976,
          "time": 258.75,
          "velocity": 0.7874015748031497
        },
        {
          "duration": 0.3125,
          "durationTicks": 192,
          "midi": 55,
          "name": "G3",
          "ticks": 158976,
          "time": 258.75,
          "velocity": 0.7874015748031497
        },
        {
          "duration": 0.3125,
          "durationTicks": 192,
          "midi": 55,
          "name": "G3",
          "ticks": 158976,
          "time": 258.75,
          "velocity": 0.7874015748031497
        },
        {
          "duration": 0.3125,
          "durationTicks": 192,
          "midi": 58,
          "name": "A#3",
          "ticks": 159360,
          "time": 259.375,
          "velocity": 0.7874015748031497
        },
        {
          "duration": 0.3125,
          "durationTicks": 192,
          "midi": 56,
          "name": "G#3",
          "ticks": 159360,
          "time": 259.375,
          "velocity": 0.7874015748031497
        },
        {
          "duration": 0.3125,
          "durationTicks": 192,
          "midi": 56,
          "name": "G#3",
          "ticks": 159360,
          "time": 259.375,
          "velocity": 0.7874015748031497
        },
        {
          "duration": 0.15625,
          "durationTicks": 96,
          "midi": 48,
          "name": "C3",
          "ticks": 159744,
          "time": 260,
          "velocity": 0.7874015748031497
        },
        {
          "duration": 0.15625,
          "durationTicks": 96,
          "midi": 60,
          "name": "C4",
          "ticks": 159744,
          "time": 260,
          "velocity": 0.7874015748031497
        },
        {
          "duration": 0.15625,
          "durationTicks": 96,
          "midi": 48,
          "name": "C3",
          "ticks": 159744,
          "time": 260,
          "velocity": 0.7874015748031497
        },
        {
          "duration": 0.46875,
          "durationTicks": 288,
          "midi": 53,
          "name": "F3",
          "ticks": 159744,
          "time": 260,
          "velocity": 0.7874015748031497
        },
        {
          "duration": 0.15625,
          "durationTicks": 96,
          "midi": 53,
          "name": "F3",
          "ticks": 159936,
          "time": 260.3125,
          "velocity": 0.7874015748031497
        },
        {
          "duration": 0.15625,
          "durationTicks": 96,
          "midi": 65,
          "name": "F4",
          "ticks": 159936,
          "time": 260.3125,
          "velocity": 0.7874015748031497
        },
        {
          "duration": 0.9375,
          "durationTicks": 576,
          "midi": 53,
          "name": "F3",
          "ticks": 159936,
          "time": 260.3125,
          "velocity": 0.7874015748031497
        },
        {
          "duration": 1.25,
          "durationTicks": 768,
          "midi": 55,
          "name": "G3",
          "ticks": 160128,
          "time": 260.625,
          "velocity": 0.7874015748031497
        },
        {
          "duration": 1.25,
          "durationTicks": 768,
          "midi": 55,
          "name": "G3",
          "ticks": 160128,
          "time": 260.625,
          "velocity": 0.7874015748031497
        },
        {
          "duration": 1.5625,
          "durationTicks": 960,
          "midi": 67,
          "name": "G4",
          "ticks": 160128,
          "time": 260.625,
          "velocity": 0.7874015748031497
        },
        {
          "duration": 0.15625,
          "durationTicks": 96,
          "midi": 56,
          "name": "G#3",
          "ticks": 160896,
          "time": 261.875,
          "velocity": 0.7874015748031497
        },
        {
          "duration": 0.15625,
          "durationTicks": 96,
          "midi": 56,
          "name": "G#3",
          "ticks": 160896,
          "time": 261.875,
          "velocity": 0.7874015748031497
        },
        {
          "duration": 0.15625,
          "durationTicks": 96,
          "midi": 55,
          "name": "G3",
          "ticks": 160992,
          "time": 262.03125,
          "velocity": 0.7874015748031497
        },
        {
          "duration": 0.15625,
          "durationTicks": 96,
          "midi": 55,
          "name": "G3",
          "ticks": 160992,
          "time": 262.03125,
          "velocity": 0.7874015748031497
        },
        {
          "duration": 0.15625,
          "durationTicks": 96,
          "midi": 53,
          "name": "F3",
          "ticks": 161088,
          "time": 262.1875,
          "velocity": 0.7874015748031497
        },
        {
          "duration": 0.15625,
          "durationTicks": 96,
          "midi": 53,
          "name": "F3",
          "ticks": 161088,
          "time": 262.1875,
          "velocity": 0.7874015748031497
        },
        {
          "duration": 0.15625,
          "durationTicks": 96,
          "midi": 55,
          "name": "G3",
          "ticks": 161184,
          "time": 262.34375,
          "velocity": 0.7874015748031497
        },
        {
          "duration": 0.15625,
          "durationTicks": 96,
          "midi": 55,
          "name": "G3",
          "ticks": 161184,
          "time": 262.34375,
          "velocity": 0.7874015748031497
        },
        {
          "duration": 0.3125,
          "durationTicks": 192,
          "midi": 48,
          "name": "C3",
          "ticks": 161280,
          "time": 262.5,
          "velocity": 0.7874015748031497
        },
        {
          "duration": 0.3125,
          "durationTicks": 192,
          "midi": 56,
          "name": "G#3",
          "ticks": 161280,
          "time": 262.5,
          "velocity": 0.7874015748031497
        },
        {
          "duration": 0.15625,
          "durationTicks": 96,
          "midi": 60,
          "name": "C4",
          "ticks": 161280,
          "time": 262.5,
          "velocity": 0.7874015748031497
        },
        {
          "duration": 0.15625,
          "durationTicks": 96,
          "midi": 65,
          "name": "F4",
          "ticks": 161472,
          "time": 262.8125,
          "velocity": 0.7874015748031497
        },
        {
          "duration": 0.3125,
          "durationTicks": 192,
          "midi": 55,
          "name": "G3",
          "ticks": 161664,
          "time": 263.125,
          "velocity": 0.7874015748031497
        },
        {
          "duration": 0.3125,
          "durationTicks": 192,
          "midi": 55,
          "name": "G3",
          "ticks": 161664,
          "time": 263.125,
          "velocity": 0.7874015748031497
        },
        {
          "duration": 1.5625,
          "durationTicks": 960,
          "midi": 68,
          "name": "G#4",
          "ticks": 161664,
          "time": 263.125,
          "velocity": 0.7874015748031497
        },
        {
          "duration": 0.9375,
          "durationTicks": 576,
          "midi": 56,
          "name": "G#3",
          "ticks": 162048,
          "time": 263.75,
          "velocity": 0.7874015748031497
        },
        {
          "duration": 0.9375,
          "durationTicks": 576,
          "midi": 56,
          "name": "G#3",
          "ticks": 162048,
          "time": 263.75,
          "velocity": 0.7874015748031497
        },
        {
          "duration": 1.875,
          "durationTicks": 1152,
          "midi": 58,
          "name": "A#3",
          "ticks": 162816,
          "time": 265,
          "velocity": 0.7874015748031497
        },
        {
          "duration": 0.15625,
          "durationTicks": 96,
          "midi": 60,
          "name": "C4",
          "ticks": 162816,
          "time": 265,
          "velocity": 0.7874015748031497
        },
        {
          "duration": 1.875,
          "durationTicks": 1152,
          "midi": 58,
          "name": "A#3",
          "ticks": 162816,
          "time": 265,
          "velocity": 0.7874015748031497
        },
        {
          "duration": 0.15625,
          "durationTicks": 96,
          "midi": 65,
          "name": "F4",
          "ticks": 163008,
          "time": 265.3125,
          "velocity": 0.7874015748031497
        },
        {
          "duration": 1.5625,
          "durationTicks": 960,
          "midi": 67,
          "name": "G4",
          "ticks": 163200,
          "time": 265.625,
          "velocity": 0.7874015748031497
        },
        {
          "duration": 0.15625,
          "durationTicks": 96,
          "midi": 56,
          "name": "G#3",
          "ticks": 164160,
          "time": 267.1875,
          "velocity": 0.7874015748031497
        },
        {
          "duration": 0.15625,
          "durationTicks": 96,
          "midi": 56,
          "name": "G#3",
          "ticks": 164160,
          "time": 267.1875,
          "velocity": 0.7874015748031497
        },
        {
          "duration": 0.15625,
          "durationTicks": 96,
          "midi": 55,
          "name": "G3",
          "ticks": 164256,
          "time": 267.34375,
          "velocity": 0.7874015748031497
        },
        {
          "duration": 0.15625,
          "durationTicks": 96,
          "midi": 55,
          "name": "G3",
          "ticks": 164256,
          "time": 267.34375,
          "velocity": 0.7874015748031497
        },
        {
          "duration": 0.15625,
          "durationTicks": 96,
          "midi": 60,
          "name": "C4",
          "ticks": 164352,
          "time": 267.5,
          "velocity": 0.7874015748031497
        },
        {
          "duration": 0.3125,
          "durationTicks": 192,
          "midi": 60,
          "name": "C4",
          "ticks": 164352,
          "time": 267.5,
          "velocity": 0.7874015748031497
        },
        {
          "duration": 0.3125,
          "durationTicks": 192,
          "midi": 60,
          "name": "C4",
          "ticks": 164352,
          "time": 267.5,
          "velocity": 0.7874015748031497
        },
        {
          "duration": 0.15625,
          "durationTicks": 96,
          "midi": 67,
          "name": "G4",
          "ticks": 164544,
          "time": 267.8125,
          "velocity": 0.7874015748031497
        },
        {
          "duration": 0.3125,
          "durationTicks": 192,
          "midi": 58,
          "name": "A#3",
          "ticks": 164736,
          "time": 268.125,
          "velocity": 0.7874015748031497
        },
        {
          "duration": 0.3125,
          "durationTicks": 192,
          "midi": 58,
          "name": "A#3",
          "ticks": 164736,
          "time": 268.125,
          "velocity": 0.7874015748031497
        },
        {
          "duration": 1.5625,
          "durationTicks": 960,
          "midi": 72,
          "name": "C5",
          "ticks": 164736,
          "time": 268.125,
          "velocity": 0.7874015748031497
        },
        {
          "duration": 0.3125,
          "durationTicks": 192,
          "midi": 56,
          "name": "G#3",
          "ticks": 165120,
          "time": 268.75,
          "velocity": 0.7874015748031497
        },
        {
          "duration": 0.3125,
          "durationTicks": 192,
          "midi": 56,
          "name": "G#3",
          "ticks": 165120,
          "time": 268.75,
          "velocity": 0.7874015748031497
        },
        {
          "duration": 0.3125,
          "durationTicks": 192,
          "midi": 55,
          "name": "G3",
          "ticks": 165504,
          "time": 269.375,
          "velocity": 0.7874015748031497
        },
        {
          "duration": 0.3125,
          "durationTicks": 192,
          "midi": 55,
          "name": "G3",
          "ticks": 165504,
          "time": 269.375,
          "velocity": 0.7874015748031497
        },
        {
          "duration": 0.15625,
          "durationTicks": 96,
          "midi": 48,
          "name": "C3",
          "ticks": 165888,
          "time": 270,
          "velocity": 0.7874015748031497
        },
        {
          "duration": 0.625,
          "durationTicks": 384,
          "midi": 60,
          "name": "C4",
          "ticks": 165888,
          "time": 270,
          "velocity": 0.7874015748031497
        },
        {
          "duration": 0.15625,
          "durationTicks": 96,
          "midi": 48,
          "name": "C3",
          "ticks": 165888,
          "time": 270,
          "velocity": 0.7874015748031497
        },
        {
          "duration": 0.15625,
          "durationTicks": 96,
          "midi": 53,
          "name": "F3",
          "ticks": 166080,
          "time": 270.3125,
          "velocity": 0.7874015748031497
        },
        {
          "duration": 0.15625,
          "durationTicks": 96,
          "midi": 53,
          "name": "F3",
          "ticks": 166080,
          "time": 270.3125,
          "velocity": 0.7874015748031497
        },
        {
          "duration": 1.71875,
          "durationTicks": 1056,
          "midi": 55,
          "name": "G3",
          "ticks": 166272,
          "time": 270.625,
          "velocity": 0.7874015748031497
        },
        {
          "duration": 1.71875,
          "durationTicks": 1056,
          "midi": 55,
          "name": "G3",
          "ticks": 166272,
          "time": 270.625,
          "velocity": 0.7874015748031497
        },
        {
          "duration": 2.1875,
          "durationTicks": 1344,
          "midi": 56,
          "name": "G#3",
          "ticks": 167424,
          "time": 272.5,
          "velocity": 0.7874015748031497
        },
        {
          "duration": 2.1875,
          "durationTicks": 1344,
          "midi": 56,
          "name": "G#3",
          "ticks": 167424,
          "time": 272.5,
          "velocity": 0.7874015748031497
        },
        {
          "duration": 0.15625,
          "durationTicks": 96,
          "midi": 48,
          "name": "C3",
          "ticks": 168960,
          "time": 275,
          "velocity": 0.7874015748031497
        },
        {
          "duration": 0.15625,
          "durationTicks": 96,
          "midi": 48,
          "name": "C3",
          "ticks": 168960,
          "time": 275,
          "velocity": 0.7874015748031497
        },
        {
          "duration": 0.15625,
          "durationTicks": 96,
          "midi": 53,
          "name": "F3",
          "ticks": 169152,
          "time": 275.3125,
          "velocity": 0.7874015748031497
        },
        {
          "duration": 0.15625,
          "durationTicks": 96,
          "midi": 53,
          "name": "F3",
          "ticks": 169152,
          "time": 275.3125,
          "velocity": 0.7874015748031497
        },
        {
          "duration": 1.71875,
          "durationTicks": 1056,
          "midi": 55,
          "name": "G3",
          "ticks": 169344,
          "time": 275.625,
          "velocity": 0.7874015748031497
        },
        {
          "duration": 1.71875,
          "durationTicks": 1056,
          "midi": 55,
          "name": "G3",
          "ticks": 169344,
          "time": 275.625,
          "velocity": 0.7874015748031497
        },
        {
          "duration": 0.15625,
          "durationTicks": 96,
          "midi": 58,
          "name": "A#3",
          "ticks": 170496,
          "time": 277.5,
          "velocity": 0.7874015748031497
        },
        {
          "duration": 0.15625,
          "durationTicks": 96,
          "midi": 58,
          "name": "A#3",
          "ticks": 170496,
          "time": 277.5,
          "velocity": 0.7874015748031497
        },
        {
          "duration": 1.875,
          "durationTicks": 1152,
          "midi": 60,
          "name": "C4",
          "ticks": 170688,
          "time": 277.8125,
          "velocity": 0.7874015748031497
        },
        {
          "duration": 1.875,
          "durationTicks": 1152,
          "midi": 60,
          "name": "C4",
          "ticks": 170688,
          "time": 277.8125,
          "velocity": 0.7874015748031497
        },
        {
          "duration": 0.15625,
          "durationTicks": 96,
          "midi": 48,
          "name": "C3",
          "ticks": 172032,
          "time": 280,
          "velocity": 0.7874015748031497
        },
        {
          "duration": 0.15625,
          "durationTicks": 96,
          "midi": 60,
          "name": "C4",
          "ticks": 172032,
          "time": 280,
          "velocity": 0.7874015748031497
        },
        {
          "duration": 0.15625,
          "durationTicks": 96,
          "midi": 48,
          "name": "C3",
          "ticks": 172032,
          "time": 280,
          "velocity": 0.7874015748031497
        },
        {
          "duration": 2.1875,
          "durationTicks": 1344,
          "midi": 48,
          "name": "C3",
          "ticks": 172032,
          "time": 280,
          "velocity": 0.7874015748031497
        },
        {
          "duration": 0.3125,
          "durationTicks": 192,
          "midi": 53,
          "name": "F3",
          "ticks": 172128,
          "time": 280.15625,
          "velocity": 0.7874015748031497
        },
        {
          "duration": 0.15625,
          "durationTicks": 96,
          "midi": 53,
          "name": "F3",
          "ticks": 172224,
          "time": 280.3125,
          "velocity": 0.7874015748031497
        },
        {
          "duration": 0.15625,
          "durationTicks": 96,
          "midi": 65,
          "name": "F4",
          "ticks": 172224,
          "time": 280.3125,
          "velocity": 0.7874015748031497
        },
        {
          "duration": 1.5625,
          "durationTicks": 960,
          "midi": 55,
          "name": "G3",
          "ticks": 172224,
          "time": 280.3125,
          "velocity": 0.7874015748031497
        },
        {
          "duration": 1.875,
          "durationTicks": 1152,
          "midi": 53,
          "name": "F3",
          "ticks": 172224,
          "time": 280.3125,
          "velocity": 0.7874015748031497
        },
        {
          "duration": 1.5625,
          "durationTicks": 960,
          "midi": 67,
          "name": "G4",
          "ticks": 172416,
          "time": 280.625,
          "velocity": 0.7874015748031497
        },
        {
          "duration": 1.25,
          "durationTicks": 768,
          "midi": 55,
          "name": "G3",
          "ticks": 172416,
          "time": 280.625,
          "velocity": 0.7874015748031497
        },
        {
          "duration": 1.5625,
          "durationTicks": 960,
          "midi": 55,
          "name": "G3",
          "ticks": 172416,
          "time": 280.625,
          "velocity": 0.7874015748031497
        },
        {
          "duration": 0.15625,
          "durationTicks": 96,
          "midi": 53,
          "name": "F3",
          "ticks": 173376,
          "time": 282.1875,
          "velocity": 0.7874015748031497
        },
        {
          "duration": 0.15625,
          "durationTicks": 96,
          "midi": 53,
          "name": "F3",
          "ticks": 173376,
          "time": 282.1875,
          "velocity": 0.7874015748031497
        },
        {
          "duration": 0.15625,
          "durationTicks": 96,
          "midi": 55,
          "name": "G3",
          "ticks": 173472,
          "time": 282.34375,
          "velocity": 0.7874015748031497
        },
        {
          "duration": 0.15625,
          "durationTicks": 96,
          "midi": 55,
          "name": "G3",
          "ticks": 173472,
          "time": 282.34375,
          "velocity": 0.7874015748031497
        },
        {
          "duration": 2.1875,
          "durationTicks": 1344,
          "midi": 48,
          "name": "C3",
          "ticks": 173568,
          "time": 282.5,
          "velocity": 0.7874015748031497
        },
        {
          "duration": 0.3125,
          "durationTicks": 192,
          "midi": 56,
          "name": "G#3",
          "ticks": 173568,
          "time": 282.5,
          "velocity": 0.7874015748031497
        },
        {
          "duration": 0.3125,
          "durationTicks": 192,
          "midi": 56,
          "name": "G#3",
          "ticks": 173568,
          "time": 282.5,
          "velocity": 0.7874015748031497
        },
        {
          "duration": 0.15625,
          "durationTicks": 96,
          "midi": 60,
          "name": "C4",
          "ticks": 173568,
          "time": 282.5,
          "velocity": 0.7874015748031497
        },
        {
          "duration": 2.03125,
          "durationTicks": 1248,
          "midi": 53,
          "name": "F3",
          "ticks": 173664,
          "time": 282.65625,
          "velocity": 0.7874015748031497
        },
        {
          "duration": 0.15625,
          "durationTicks": 96,
          "midi": 65,
          "name": "F4",
          "ticks": 173760,
          "time": 282.8125,
          "velocity": 0.7874015748031497
        },
        {
          "duration": 1.875,
          "durationTicks": 1152,
          "midi": 56,
          "name": "G#3",
          "ticks": 173760,
          "time": 282.8125,
          "velocity": 0.7874015748031497
        },
        {
          "duration": 0.3125,
          "durationTicks": 192,
          "midi": 55,
          "name": "G3",
          "ticks": 173952,
          "time": 283.125,
          "velocity": 0.7874015748031497
        },
        {
          "duration": 0.3125,
          "durationTicks": 192,
          "midi": 55,
          "name": "G3",
          "ticks": 173952,
          "time": 283.125,
          "velocity": 0.7874015748031497
        },
        {
          "duration": 1.5625,
          "durationTicks": 960,
          "midi": 68,
          "name": "G#4",
          "ticks": 173952,
          "time": 283.125,
          "velocity": 0.7874015748031497
        },
        {
          "duration": 0.9375,
          "durationTicks": 576,
          "midi": 53,
          "name": "F3",
          "ticks": 174336,
          "time": 283.75,
          "velocity": 0.7874015748031497
        },
        {
          "duration": 0.9375,
          "durationTicks": 576,
          "midi": 53,
          "name": "F3",
          "ticks": 174336,
          "time": 283.75,
          "velocity": 0.7874015748031497
        },
        {
          "duration": 1.875,
          "durationTicks": 1152,
          "midi": 51,
          "name": "D#3",
          "ticks": 175104,
          "time": 285,
          "velocity": 0.7874015748031497
        },
        {
          "duration": 0.15625,
          "durationTicks": 96,
          "midi": 60,
          "name": "C4",
          "ticks": 175104,
          "time": 285,
          "velocity": 0.7874015748031497
        },
        {
          "duration": 2.1875,
          "durationTicks": 1344,
          "midi": 48,
          "name": "C3",
          "ticks": 175104,
          "time": 285,
          "velocity": 0.7874015748031497
        },
        {
          "duration": 1.875,
          "durationTicks": 1152,
          "midi": 51,
          "name": "D#3",
          "ticks": 175104,
          "time": 285,
          "velocity": 0.7874015748031497
        },
        {
          "duration": 2.03125,
          "durationTicks": 1248,
          "midi": 53,
          "name": "F3",
          "ticks": 175200,
          "time": 285.15625,
          "velocity": 0.7874015748031497
        },
        {
          "duration": 0.15625,
          "durationTicks": 96,
          "midi": 65,
          "name": "F4",
          "ticks": 175296,
          "time": 285.3125,
          "velocity": 0.7874015748031497
        },
        {
          "duration": 1.875,
          "durationTicks": 1152,
          "midi": 58,
          "name": "A#3",
          "ticks": 175296,
          "time": 285.3125,
          "velocity": 0.7874015748031497
        },
        {
          "duration": 1.5625,
          "durationTicks": 960,
          "midi": 67,
          "name": "G4",
          "ticks": 175488,
          "time": 285.625,
          "velocity": 0.7874015748031497
        },
        {
          "duration": 0.15625,
          "durationTicks": 96,
          "midi": 46,
          "name": "A#2",
          "ticks": 176448,
          "time": 287.1875,
          "velocity": 0.7874015748031497
        },
        {
          "duration": 0.15625,
          "durationTicks": 96,
          "midi": 46,
          "name": "A#2",
          "ticks": 176448,
          "time": 287.1875,
          "velocity": 0.7874015748031497
        },
        {
          "duration": 0.15625,
          "durationTicks": 96,
          "midi": 60,
          "name": "C4",
          "ticks": 176640,
          "time": 287.5,
          "velocity": 0.7874015748031497
        },
        {
          "duration": 0.9375,
          "durationTicks": 576,
          "midi": 48,
          "name": "C3",
          "ticks": 176640,
          "time": 287.5,
          "velocity": 0.7874015748031497
        },
        {
          "duration": 2.1875,
          "durationTicks": 1344,
          "midi": 48,
          "name": "C3",
          "ticks": 176640,
          "time": 287.5,
          "velocity": 0.7874015748031497
        },
        {
          "duration": 2.1875,
          "durationTicks": 1344,
          "midi": 48,
          "name": "C3",
          "ticks": 176640,
          "time": 287.5,
          "velocity": 0.7874015748031497
        },
        {
          "duration": 0.78125,
          "durationTicks": 480,
          "midi": 53,
          "name": "F3",
          "ticks": 176736,
          "time": 287.65625,
          "velocity": 0.7874015748031497
        },
        {
          "duration": 0.15625,
          "durationTicks": 96,
          "midi": 67,
          "name": "G4",
          "ticks": 176832,
          "time": 287.8125,
          "velocity": 0.7874015748031497
        },
        {
          "duration": 0.625,
          "durationTicks": 384,
          "midi": 58,
          "name": "A#3",
          "ticks": 176832,
          "time": 287.8125,
          "velocity": 0.7874015748031497
        },
        {
          "duration": 0.46875,
          "durationTicks": 288,
          "midi": 60,
          "name": "C4",
          "ticks": 176928,
          "time": 287.96875,
          "velocity": 0.7874015748031497
        },
        {
          "duration": 1.5625,
          "durationTicks": 960,
          "midi": 72,
          "name": "C5",
          "ticks": 177024,
          "time": 288.125,
          "velocity": 0.7874015748031497
        },
        {
          "duration": 0.3125,
          "durationTicks": 192,
          "midi": 55,
          "name": "G3",
          "ticks": 177408,
          "time": 288.75,
          "velocity": 0.7874015748031497
        },
        {
          "duration": 0.3125,
          "durationTicks": 192,
          "midi": 55,
          "name": "G3",
          "ticks": 177408,
          "time": 288.75,
          "velocity": 0.7874015748031497
        },
        {
          "duration": 0.3125,
          "durationTicks": 192,
          "midi": 61,
          "name": "C#4",
          "ticks": 177408,
          "time": 288.75,
          "velocity": 0.7874015748031497
        },
        {
          "duration": 0.3125,
          "durationTicks": 192,
          "midi": 58,
          "name": "A#3",
          "ticks": 177792,
          "time": 289.375,
          "velocity": 0.7874015748031497
        },
        {
          "duration": 0.3125,
          "durationTicks": 192,
          "midi": 56,
          "name": "G#3",
          "ticks": 177792,
          "time": 289.375,
          "velocity": 0.7874015748031497
        },
        {
          "duration": 0.3125,
          "durationTicks": 192,
          "midi": 56,
          "name": "G#3",
          "ticks": 177792,
          "time": 289.375,
          "velocity": 0.7874015748031497
        },
        {
          "duration": 0.15625,
          "durationTicks": 96,
          "midi": 60,
          "name": "C4",
          "ticks": 178176,
          "time": 290,
          "velocity": 0.7874015748031497
        },
        {
          "duration": 0.15625,
          "durationTicks": 96,
          "midi": 48,
          "name": "C3",
          "ticks": 178176,
          "time": 290,
          "velocity": 0.7874015748031497
        },
        {
          "duration": 0.15625,
          "durationTicks": 96,
          "midi": 48,
          "name": "C3",
          "ticks": 178176,
          "time": 290,
          "velocity": 0.7874015748031497
        },
        {
          "duration": 2.1875,
          "durationTicks": 1344,
          "midi": 48,
          "name": "C3",
          "ticks": 178176,
          "time": 290,
          "velocity": 0.7874015748031497
        },
        {
          "duration": 0.3125,
          "durationTicks": 192,
          "midi": 53,
          "name": "F3",
          "ticks": 178272,
          "time": 290.15625,
          "velocity": 0.7874015748031497
        },
        {
          "duration": 0.15625,
          "durationTicks": 96,
          "midi": 53,
          "name": "F3",
          "ticks": 178368,
          "time": 290.3125,
          "velocity": 0.7874015748031497
        },
        {
          "duration": 1.5625,
          "durationTicks": 960,
          "midi": 55,
          "name": "G3",
          "ticks": 178368,
          "time": 290.3125,
          "velocity": 0.7874015748031497
        },
        {
          "duration": 1.875,
          "durationTicks": 1152,
          "midi": 53,
          "name": "F3",
          "ticks": 178368,
          "time": 290.3125,
          "velocity": 0.7874015748031497
        },
        {
          "duration": 0.15625,
          "durationTicks": 96,
          "midi": 65,
          "name": "F4",
          "ticks": 178368,
          "time": 290.3125,
          "velocity": 0.7874015748031497
        },
        {
          "duration": 1.25,
          "durationTicks": 768,
          "midi": 55,
          "name": "G3",
          "ticks": 178560,
          "time": 290.625,
          "velocity": 0.7874015748031497
        },
        {
          "duration": 1.5625,
          "durationTicks": 960,
          "midi": 55,
          "name": "G3",
          "ticks": 178560,
          "time": 290.625,
          "velocity": 0.7874015748031497
        },
        {
          "duration": 1.5625,
          "durationTicks": 960,
          "midi": 67,
          "name": "G4",
          "ticks": 178560,
          "time": 290.625,
          "velocity": 0.7874015748031497
        },
        {
          "duration": 0.15625,
          "durationTicks": 96,
          "midi": 53,
          "name": "F3",
          "ticks": 179520,
          "time": 292.1875,
          "velocity": 0.7874015748031497
        },
        {
          "duration": 0.15625,
          "durationTicks": 96,
          "midi": 53,
          "name": "F3",
          "ticks": 179520,
          "time": 292.1875,
          "velocity": 0.7874015748031497
        },
        {
          "duration": 0.15625,
          "durationTicks": 96,
          "midi": 55,
          "name": "G3",
          "ticks": 179616,
          "time": 292.34375,
          "velocity": 0.7874015748031497
        },
        {
          "duration": 0.15625,
          "durationTicks": 96,
          "midi": 55,
          "name": "G3",
          "ticks": 179616,
          "time": 292.34375,
          "velocity": 0.7874015748031497
        },
        {
          "duration": 2.1875,
          "durationTicks": 1344,
          "midi": 48,
          "name": "C3",
          "ticks": 179712,
          "time": 292.5,
          "velocity": 0.7874015748031497
        },
        {
          "duration": 0.3125,
          "durationTicks": 192,
          "midi": 56,
          "name": "G#3",
          "ticks": 179712,
          "time": 292.5,
          "velocity": 0.7874015748031497
        },
        {
          "duration": 0.3125,
          "durationTicks": 192,
          "midi": 56,
          "name": "G#3",
          "ticks": 179712,
          "time": 292.5,
          "velocity": 0.7874015748031497
        },
        {
          "duration": 0.15625,
          "durationTicks": 96,
          "midi": 60,
          "name": "C4",
          "ticks": 179712,
          "time": 292.5,
          "velocity": 0.7874015748031497
        },
        {
          "duration": 2.03125,
          "durationTicks": 1248,
          "midi": 53,
          "name": "F3",
          "ticks": 179808,
          "time": 292.65625,
          "velocity": 0.7874015748031497
        },
        {
          "duration": 0.15625,
          "durationTicks": 96,
          "midi": 65,
          "name": "F4",
          "ticks": 179904,
          "time": 292.8125,
          "velocity": 0.7874015748031497
        },
        {
          "duration": 1.875,
          "durationTicks": 1152,
          "midi": 56,
          "name": "G#3",
          "ticks": 179904,
          "time": 292.8125,
          "velocity": 0.7874015748031497
        },
        {
          "duration": 0.3125,
          "durationTicks": 192,
          "midi": 58,
          "name": "A#3",
          "ticks": 180096,
          "time": 293.125,
          "velocity": 0.7874015748031497
        },
        {
          "duration": 1.5625,
          "durationTicks": 960,
          "midi": 68,
          "name": "G#4",
          "ticks": 180096,
          "time": 293.125,
          "velocity": 0.7874015748031497
        },
        {
          "duration": 0.3125,
          "durationTicks": 192,
          "midi": 58,
          "name": "A#3",
          "ticks": 180096,
          "time": 293.125,
          "velocity": 0.7874015748031497
        },
        {
          "duration": 0.9375,
          "durationTicks": 576,
          "midi": 60,
          "name": "C4",
          "ticks": 180480,
          "time": 293.75,
          "velocity": 0.7874015748031497
        },
        {
          "duration": 0.9375,
          "durationTicks": 576,
          "midi": 60,
          "name": "C4",
          "ticks": 180480,
          "time": 293.75,
          "velocity": 0.7874015748031497
        },
        {
          "duration": 1.5625,
          "durationTicks": 960,
          "midi": 61,
          "name": "C#4",
          "ticks": 181248,
          "time": 295,
          "velocity": 0.7874015748031497
        },
        {
          "duration": 1.5625,
          "durationTicks": 960,
          "midi": 61,
          "name": "C#4",
          "ticks": 181248,
          "time": 295,
          "velocity": 0.7874015748031497
        },
        {
          "duration": 2.1875,
          "durationTicks": 1344,
          "midi": 48,
          "name": "C3",
          "ticks": 181248,
          "time": 295,
          "velocity": 0.7874015748031497
        },
        {
          "duration": 0.15625,
          "durationTicks": 96,
          "midi": 60,
          "name": "C4",
          "ticks": 181248,
          "time": 295,
          "velocity": 0.7874015748031497
        },
        {
          "duration": 2.03125,
          "durationTicks": 1248,
          "midi": 53,
          "name": "F3",
          "ticks": 181344,
          "time": 295.15625,
          "velocity": 0.7874015748031497
        },
        {
          "duration": 1.875,
          "durationTicks": 1152,
          "midi": 58,
          "name": "A#3",
          "ticks": 181440,
          "time": 295.3125,
          "velocity": 0.7874015748031497
        },
        {
          "duration": 0.15625,
          "durationTicks": 96,
          "midi": 65,
          "name": "F4",
          "ticks": 181440,
          "time": 295.3125,
          "velocity": 0.7874015748031497
        },
        {
          "duration": 1.5625,
          "durationTicks": 960,
          "midi": 67,
          "name": "G4",
          "ticks": 181632,
          "time": 295.625,
          "velocity": 0.7874015748031497
        },
        {
          "duration": 0.15625,
          "durationTicks": 96,
          "midi": 65,
          "name": "F4",
          "ticks": 182400,
          "time": 296.875,
          "velocity": 0.7874015748031497
        },
        {
          "duration": 0.15625,
          "durationTicks": 96,
          "midi": 65,
          "name": "F4",
          "ticks": 182400,
          "time": 296.875,
          "velocity": 0.7874015748031497
        },
        {
          "duration": 0.15625,
          "durationTicks": 96,
          "midi": 67,
          "name": "G4",
          "ticks": 182592,
          "time": 297.1875,
          "velocity": 0.7874015748031497
        },
        {
          "duration": 0.15625,
          "durationTicks": 96,
          "midi": 67,
          "name": "G4",
          "ticks": 182592,
          "time": 297.1875,
          "velocity": 0.7874015748031497
        },
        {
          "duration": 0.9375,
          "durationTicks": 576,
          "midi": 68,
          "name": "G#4",
          "ticks": 182784,
          "time": 297.5,
          "velocity": 0.7874015748031497
        },
        {
          "duration": 0.15625,
          "durationTicks": 96,
          "midi": 60,
          "name": "C4",
          "ticks": 182784,
          "time": 297.5,
          "velocity": 0.7874015748031497
        },
        {
          "duration": 0.9375,
          "durationTicks": 576,
          "midi": 68,
          "name": "G#4",
          "ticks": 182784,
          "time": 297.5,
          "velocity": 0.7874015748031497
        },
        {
          "duration": 0.9375,
          "durationTicks": 576,
          "midi": 48,
          "name": "C3",
          "ticks": 182784,
          "time": 297.5,
          "velocity": 0.7874015748031497
        },
        {
          "duration": 0.78125,
          "durationTicks": 480,
          "midi": 53,
          "name": "F3",
          "ticks": 182880,
          "time": 297.65625,
          "velocity": 0.7874015748031497
        },
        {
          "duration": 0.625,
          "durationTicks": 384,
          "midi": 58,
          "name": "A#3",
          "ticks": 182976,
          "time": 297.8125,
          "velocity": 0.7874015748031497
        },
        {
          "duration": 0.15625,
          "durationTicks": 96,
          "midi": 67,
          "name": "G4",
          "ticks": 182976,
          "time": 297.8125,
          "velocity": 0.7874015748031497
        },
        {
          "duration": 0.46875,
          "durationTicks": 288,
          "midi": 60,
          "name": "C4",
          "ticks": 183072,
          "time": 297.96875,
          "velocity": 0.7874015748031497
        },
        {
          "duration": 1.5625,
          "durationTicks": 960,
          "midi": 72,
          "name": "C5",
          "ticks": 183168,
          "time": 298.125,
          "velocity": 0.7874015748031497
        },
        {
          "duration": 0.625,
          "durationTicks": 384,
          "midi": 67,
          "name": "G4",
          "ticks": 183360,
          "time": 298.4375,
          "velocity": 0.7874015748031497
        },
        {
          "duration": 0.625,
          "durationTicks": 384,
          "midi": 67,
          "name": "G4",
          "ticks": 183360,
          "time": 298.4375,
          "velocity": 0.7874015748031497
        },
        {
          "duration": 0.3125,
          "durationTicks": 192,
          "midi": 65,
          "name": "F4",
          "ticks": 183936,
          "time": 299.375,
          "velocity": 0.7874015748031497
        },
        {
          "duration": 0.3125,
          "durationTicks": 192,
          "midi": 65,
          "name": "F4",
          "ticks": 183936,
          "time": 299.375,
          "velocity": 0.7874015748031497
        },
        {
          "duration": 0.15625,
          "durationTicks": 96,
          "midi": 63,
          "name": "D#4",
          "ticks": 184128,
          "time": 299.6875,
          "velocity": 0.7874015748031497
        },
        {
          "duration": 0.15625,
          "durationTicks": 96,
          "midi": 63,
          "name": "D#4",
          "ticks": 184128,
          "time": 299.6875,
          "velocity": 0.7874015748031497
        },
        {
          "duration": 0.15625,
          "durationTicks": 96,
          "midi": 60,
          "name": "C4",
          "ticks": 184320,
          "time": 300,
          "velocity": 0.7874015748031497
        },
        {
          "duration": 1.25,
          "durationTicks": 768,
          "midi": 53,
          "name": "F3",
          "ticks": 184320,
          "time": 300,
          "velocity": 0.7874015748031497
        },
        {
          "duration": 1.875,
          "durationTicks": 1152,
          "midi": 60,
          "name": "C4",
          "ticks": 184320,
          "time": 300,
          "velocity": 0.7874015748031497
        },
        {
          "duration": 1.875,
          "durationTicks": 1152,
          "midi": 60,
          "name": "C4",
          "ticks": 184320,
          "time": 300,
          "velocity": 0.7874015748031497
        },
        {
          "duration": 0.15625,
          "durationTicks": 96,
          "midi": 65,
          "name": "F4",
          "ticks": 184512,
          "time": 300.3125,
          "velocity": 0.7874015748031497
        },
        {
          "duration": 1.5625,
          "durationTicks": 960,
          "midi": 67,
          "name": "G4",
          "ticks": 184704,
          "time": 300.625,
          "velocity": 0.7874015748031497
        },
        {
          "duration": 0.15625,
          "durationTicks": 96,
          "midi": 60,
          "name": "C4",
          "ticks": 185856,
          "time": 302.5,
          "velocity": 0.7874015748031497
        },
        {
          "duration": 0.15625,
          "durationTicks": 96,
          "midi": 65,
          "name": "F4",
          "ticks": 186048,
          "time": 302.8125,
          "velocity": 0.7874015748031497
        },
        {
          "duration": 1.5625,
          "durationTicks": 960,
          "midi": 68,
          "name": "G#4",
          "ticks": 186240,
          "time": 303.125,
          "velocity": 0.7874015748031497
        },
        {
          "duration": 0.15625,
          "durationTicks": 96,
          "midi": 60,
          "name": "C4",
          "ticks": 187392,
          "time": 305,
          "velocity": 0.7874015748031497
        },
        {
          "duration": 0.15625,
          "durationTicks": 96,
          "midi": 65,
          "name": "F4",
          "ticks": 187584,
          "time": 305.3125,
          "velocity": 0.7874015748031497
        },
        {
          "duration": 1.5625,
          "durationTicks": 960,
          "midi": 67,
          "name": "G4",
          "ticks": 187776,
          "time": 305.625,
          "velocity": 0.7874015748031497
        },
        {
          "duration": 0.15625,
          "durationTicks": 96,
          "midi": 60,
          "name": "C4",
          "ticks": 188928,
          "time": 307.5,
          "velocity": 0.7874015748031497
        },
        {
          "duration": 0.15625,
          "durationTicks": 96,
          "midi": 67,
          "name": "G4",
          "ticks": 189120,
          "time": 307.8125,
          "velocity": 0.7874015748031497
        },
        {
          "duration": 1.5625,
          "durationTicks": 960,
          "midi": 72,
          "name": "C5",
          "ticks": 189312,
          "time": 308.125,
          "velocity": 0.7874015748031497
        }
      ],
      "endOfTrackTicks": 190272
    },
    {
      "channel": 1,
      "controlChanges": {},
      "pitchBends": [],
      "instrument": {
        "family": "strings",
        "number": 40,
        "name": "violin"
      },
      "name": "Violin",
      "notes": [
        {
          "duration": 10,
          "durationTicks": 6144,
          "midi": 48,
          "name": "C3",
          "ticks": 0,
          "time": 0,
          "velocity": 0.7874015748031497
        },
        {
          "duration": 5,
          "durationTicks": 3072,
          "midi": 48,
          "name": "C3",
          "ticks": 6144,
          "time": 10,
          "velocity": 0.7874015748031497
        },
        {
          "duration": 10,
          "durationTicks": 6144,
          "midi": 48,
          "name": "C3",
          "ticks": 9216,
          "time": 15,
          "velocity": 0.7874015748031497
        },
        {
          "duration": 15,
          "durationTicks": 9216,
          "midi": 48,
          "name": "C3",
          "ticks": 15360,
          "time": 25,
          "velocity": 0.7874015748031497
        },
        {
          "duration": 59.375,
          "durationTicks": 36480,
          "midi": 48,
          "name": "C3",
          "ticks": 24576,
          "time": 40,
          "velocity": 0.7874015748031497
        },
        {
          "duration": 0.625,
          "durationTicks": 384,
          "midi": 48,
          "name": "C3",
          "ticks": 61056,
          "time": 99.375,
          "velocity": 0.7874015748031497
        },
        {
          "duration": 29.375,
          "durationTicks": 18048,
          "midi": 48,
          "name": "C3",
          "ticks": 61440,
          "time": 100,
          "velocity": 0.7874015748031497
        },
        {
          "duration": 0.625,
          "durationTicks": 384,
          "midi": 48,
          "name": "C3",
          "ticks": 79488,
          "time": 129.375,
          "velocity": 0.7874015748031497
        },
        {
          "duration": 0.625,
          "durationTicks": 384,
          "midi": 48,
          "name": "C3",
          "ticks": 79872,
          "time": 130,
          "velocity": 0.7874015748031497
        },
        {
          "duration": 0.625,
          "durationTicks": 384,
          "midi": 48,
          "name": "C3",
          "ticks": 80256,
          "time": 130.625,
          "velocity": 0.7874015748031497
        },
        {
          "duration": 3.4375,
          "durationTicks": 2112,
          "midi": 48,
          "name": "C3",
          "ticks": 80640,
          "time": 131.25,
          "velocity": 0.7874015748031497
        },
        {
          "duration": 0.3125,
          "durationTicks": 192,
          "midi": 48,
          "name": "C3",
          "ticks": 82752,
          "time": 134.6875,
          "velocity": 0.7874015748031497
        },
        {
          "duration": 0.625,
          "durationTicks": 384,
          "midi": 48,
          "name": "C3",
          "ticks": 82944,
          "time": 135,
          "velocity": 0.7874015748031497
        },
        {
          "duration": 0.625,
          "durationTicks": 384,
          "midi": 48,
          "name": "C3",
          "ticks": 83328,
          "time": 135.625,
          "velocity": 0.7874015748031497
        },
        {
          "duration": 3.75,
          "durationTicks": 2304,
          "midi": 48,
          "name": "C3",
          "ticks": 83712,
          "time": 136.25,
          "velocity": 0.7874015748031497
        },
        {
          "duration": 10,
          "durationTicks": 6144,
          "midi": 48,
          "name": "C3",
          "ticks": 86016,
          "time": 140,
          "velocity": 0.7874015748031497
        },
        {
          "duration": 10,
          "durationTicks": 6144,
          "midi": 48,
          "name": "C3",
          "ticks": 92160,
          "time": 150,
          "velocity": 0.7874015748031497
        },
        {
          "duration": 10,
          "durationTicks": 6144,
          "midi": 48,
          "name": "C3",
          "ticks": 98304,
          "time": 160,
          "velocity": 0.7874015748031497
        },
        {
          "duration": 10,
          "durationTicks": 6144,
          "midi": 48,
          "name": "C3",
          "ticks": 104448,
          "time": 170,
          "velocity": 0.7874015748031497
        },
        {
          "duration": 10,
          "durationTicks": 6144,
          "midi": 48,
          "name": "C3",
          "ticks": 110592,
          "time": 180,
          "velocity": 0.7874015748031497
        },
        {
          "duration": 10,
          "durationTicks": 6144,
          "midi": 48,
          "name": "C3",
          "ticks": 116736,
          "time": 190,
          "velocity": 0.7874015748031497
        },
        {
          "duration": 0.625,
          "durationTicks": 384,
          "midi": 48,
          "name": "C3",
          "ticks": 140928,
          "time": 229.375,
          "velocity": 0.7874015748031497
        },
        {
          "duration": 10,
          "durationTicks": 6144,
          "midi": 48,
          "name": "C3",
          "ticks": 141312,
          "time": 230,
          "velocity": 0.7874015748031497
        },
        {
          "duration": 10,
          "durationTicks": 6144,
          "midi": 48,
          "name": "C3",
          "ticks": 147456,
          "time": 240,
          "velocity": 0.7874015748031497
        },
        {
          "duration": 10,
          "durationTicks": 6144,
          "midi": 48,
          "name": "C3",
          "ticks": 153600,
          "time": 250,
          "velocity": 0.7874015748031497
        },
        {
          "duration": 19.375,
          "durationTicks": 11904,
          "midi": 48,
          "name": "C3",
          "ticks": 159744,
          "time": 260,
          "velocity": 0.7874015748031497
        },
        {
          "duration": 0.625,
          "durationTicks": 384,
          "midi": 48,
          "name": "C3",
          "ticks": 171648,
          "time": 279.375,
          "velocity": 0.7874015748031497
        },
        {
          "duration": 10,
          "durationTicks": 6144,
          "midi": 48,
          "name": "C3",
          "ticks": 172032,
          "time": 280,
          "velocity": 0.7874015748031497
        },
        {
          "duration": 10,
          "durationTicks": 6144,
          "midi": 48,
          "name": "C3",
          "ticks": 178176,
          "time": 290,
          "velocity": 0.7874015748031497
        },
        {
          "duration": 9.375,
          "durationTicks": 5760,
          "midi": 48,
          "name": "C3",
          "ticks": 184320,
          "time": 300,
          "velocity": 0.7874015748031497
        },
        {
          "duration": 0.625,
          "durationTicks": 384,
          "midi": 48,
          "name": "C3",
          "ticks": 190080,
          "time": 309.375,
          "velocity": 0.7874015748031497
        },
        {
          "duration": 11.25,
          "durationTicks": 6912,
          "midi": 48,
          "name": "C3",
          "ticks": 190464,
          "time": 310,
          "velocity": 0.7874015748031497
        }
      ],
      "endOfTrackTicks": 197376
    },
    {
      "channel": 2,
      "controlChanges": {},
      "pitchBends": [],
      "instrument": {
        "family": "piano",
        "number": 6,
        "name": "harpsichord"
      },
      "name": "Harpsichord",
      "notes": [
        {
          "duration": 0.3125,
          "durationTicks": 192,
          "midi": 60,
          "name": "C4",
          "ticks": 0,
          "time": 0,
          "velocity": 0.7874015748031497
        },
        {
          "duration": 0.3125,
          "durationTicks": 192,
          "midi": 65,
          "name": "F4",
          "ticks": 96,
          "time": 0.15625,
          "velocity": 0.7874015748031497
        },
        {
          "duration": 0.3125,
          "durationTicks": 192,
          "midi": 67,
          "name": "G4",
          "ticks": 192,
          "time": 0.3125,
          "velocity": 0.7874015748031497
        },
        {
          "duration": 0.3125,
          "durationTicks": 192,
          "midi": 60,
          "name": "C4",
          "ticks": 288,
          "time": 0.46875,
          "velocity": 0.7874015748031497
        },
        {
          "duration": 0.3125,
          "durationTicks": 192,
          "midi": 65,
          "name": "F4",
          "ticks": 384,
          "time": 0.625,
          "velocity": 0.7874015748031497
        },
        {
          "duration": 0.3125,
          "durationTicks": 192,
          "midi": 67,
          "name": "G4",
          "ticks": 480,
          "time": 0.78125,
          "velocity": 0.7874015748031497
        },
        {
          "duration": 0.3125,
          "durationTicks": 192,
          "midi": 60,
          "name": "C4",
          "ticks": 576,
          "time": 0.9375,
          "velocity": 0.7874015748031497
        },
        {
          "duration": 0.3125,
          "durationTicks": 192,
          "midi": 65,
          "name": "F4",
          "ticks": 672,
          "time": 1.09375,
          "velocity": 0.7874015748031497
        },
        {
          "duration": 0.3125,
          "durationTicks": 192,
          "midi": 60,
          "name": "C4",
          "ticks": 768,
          "time": 1.25,
          "velocity": 0.7874015748031497
        },
        {
          "duration": 0.3125,
          "durationTicks": 192,
          "midi": 65,
          "name": "F4",
          "ticks": 864,
          "time": 1.40625,
          "velocity": 0.7874015748031497
        },
        {
          "duration": 0.3125,
          "durationTicks": 192,
          "midi": 67,
          "name": "G4",
          "ticks": 960,
          "time": 1.5625,
          "velocity": 0.7874015748031497
        },
        {
          "duration": 0.3125,
          "durationTicks": 192,
          "midi": 60,
          "name": "C4",
          "ticks": 1056,
          "time": 1.71875,
          "velocity": 0.7874015748031497
        },
        {
          "duration": 0.3125,
          "durationTicks": 192,
          "midi": 65,
          "name": "F4",
          "ticks": 1152,
          "time": 1.875,
          "velocity": 0.7874015748031497
        },
        {
          "duration": 0.3125,
          "durationTicks": 192,
          "midi": 67,
          "name": "G4",
          "ticks": 1248,
          "time": 2.03125,
          "velocity": 0.7874015748031497
        },
        {
          "duration": 0.3125,
          "durationTicks": 192,
          "midi": 60,
          "name": "C4",
          "ticks": 1344,
          "time": 2.1875,
          "velocity": 0.7874015748031497
        },
        {
          "duration": 0.3125,
          "durationTicks": 192,
          "midi": 65,
          "name": "F4",
          "ticks": 1440,
          "time": 2.34375,
          "velocity": 0.7874015748031497
        },
        {
          "duration": 0.3125,
          "durationTicks": 192,
          "midi": 60,
          "name": "C4",
          "ticks": 1536,
          "time": 2.5,
          "velocity": 0.7874015748031497
        },
        {
          "duration": 0.3125,
          "durationTicks": 192,
          "midi": 65,
          "name": "F4",
          "ticks": 1632,
          "time": 2.65625,
          "velocity": 0.7874015748031497
        },
        {
          "duration": 0.3125,
          "durationTicks": 192,
          "midi": 68,
          "name": "G#4",
          "ticks": 1728,
          "time": 2.8125,
          "velocity": 0.7874015748031497
        },
        {
          "duration": 0.3125,
          "durationTicks": 192,
          "midi": 60,
          "name": "C4",
          "ticks": 1824,
          "time": 2.96875,
          "velocity": 0.7874015748031497
        },
        {
          "duration": 0.3125,
          "durationTicks": 192,
          "midi": 65,
          "name": "F4",
          "ticks": 1920,
          "time": 3.125,
          "velocity": 0.7874015748031497
        },
        {
          "duration": 0.3125,
          "durationTicks": 192,
          "midi": 68,
          "name": "G#4",
          "ticks": 2016,
          "time": 3.28125,
          "velocity": 0.7874015748031497
        },
        {
          "duration": 0.3125,
          "durationTicks": 192,
          "midi": 60,
          "name": "C4",
          "ticks": 2112,
          "time": 3.4375,
          "velocity": 0.7874015748031497
        },
        {
          "duration": 0.3125,
          "durationTicks": 192,
          "midi": 65,
          "name": "F4",
          "ticks": 2208,
          "time": 3.59375,
          "velocity": 0.7874015748031497
        },
        {
          "duration": 0.3125,
          "durationTicks": 192,
          "midi": 60,
          "name": "C4",
          "ticks": 2304,
          "time": 3.75,
          "velocity": 0.7874015748031497
        },
        {
          "duration": 0.3125,
          "durationTicks": 192,
          "midi": 65,
          "name": "F4",
          "ticks": 2400,
          "time": 3.90625,
          "velocity": 0.7874015748031497
        },
        {
          "duration": 0.3125,
          "durationTicks": 192,
          "midi": 68,
          "name": "G#4",
          "ticks": 2496,
          "time": 4.0625,
          "velocity": 0.7874015748031497
        },
        {
          "duration": 0.3125,
          "durationTicks": 192,
          "midi": 60,
          "name": "C4",
          "ticks": 2592,
          "time": 4.21875,
          "velocity": 0.7874015748031497
        },
        {
          "duration": 0.3125,
          "durationTicks": 192,
          "midi": 65,
          "name": "F4",
          "ticks": 2688,
          "time": 4.375,
          "velocity": 0.7874015748031497
        },
        {
          "duration": 0.3125,
          "durationTicks": 192,
          "midi": 68,
          "name": "G#4",
          "ticks": 2784,
          "time": 4.53125,
          "velocity": 0.7874015748031497
        },
        {
          "duration": 0.3125,
          "durationTicks": 192,
          "midi": 60,
          "name": "C4",
          "ticks": 2880,
          "time": 4.6875,
          "velocity": 0.7874015748031497
        },
        {
          "duration": 0.3125,
          "durationTicks": 192,
          "midi": 65,
          "name": "F4",
          "ticks": 2976,
          "time": 4.84375,
          "velocity": 0.7874015748031497
        },
        {
          "duration": 0.3125,
          "durationTicks": 192,
          "midi": 60,
          "name": "C4",
          "ticks": 3072,
          "time": 5,
          "velocity": 0.7874015748031497
        },
        {
          "duration": 0.3125,
          "durationTicks": 192,
          "midi": 65,
          "name": "F4",
          "ticks": 3168,
          "time": 5.15625,
          "velocity": 0.7874015748031497
        },
        {
          "duration": 0.3125,
          "durationTicks": 192,
          "midi": 67,
          "name": "G4",
          "ticks": 3264,
          "time": 5.3125,
          "velocity": 0.7874015748031497
        },
        {
          "duration": 0.3125,
          "durationTicks": 192,
          "midi": 60,
          "name": "C4",
          "ticks": 3360,
          "time": 5.46875,
          "velocity": 0.7874015748031497
        },
        {
          "duration": 0.3125,
          "durationTicks": 192,
          "midi": 65,
          "name": "F4",
          "ticks": 3456,
          "time": 5.625,
          "velocity": 0.7874015748031497
        },
        {
          "duration": 0.3125,
          "durationTicks": 192,
          "midi": 67,
          "name": "G4",
          "ticks": 3552,
          "time": 5.78125,
          "velocity": 0.7874015748031497
        },
        {
          "duration": 0.3125,
          "durationTicks": 192,
          "midi": 60,
          "name": "C4",
          "ticks": 3648,
          "time": 5.9375,
          "velocity": 0.7874015748031497
        },
        {
          "duration": 0.3125,
          "durationTicks": 192,
          "midi": 65,
          "name": "F4",
          "ticks": 3744,
          "time": 6.09375,
          "velocity": 0.7874015748031497
        },
        {
          "duration": 0.3125,
          "durationTicks": 192,
          "midi": 60,
          "name": "C4",
          "ticks": 3840,
          "time": 6.25,
          "velocity": 0.7874015748031497
        },
        {
          "duration": 0.3125,
          "durationTicks": 192,
          "midi": 65,
          "name": "F4",
          "ticks": 3936,
          "time": 6.40625,
          "velocity": 0.7874015748031497
        },
        {
          "duration": 0.3125,
          "durationTicks": 192,
          "midi": 67,
          "name": "G4",
          "ticks": 4032,
          "time": 6.5625,
          "velocity": 0.7874015748031497
        },
        {
          "duration": 0.3125,
          "durationTicks": 192,
          "midi": 60,
          "name": "C4",
          "ticks": 4128,
          "time": 6.71875,
          "velocity": 0.7874015748031497
        },
        {
          "duration": 0.3125,
          "durationTicks": 192,
          "midi": 65,
          "name": "F4",
          "ticks": 4224,
          "time": 6.875,
          "velocity": 0.7874015748031497
        },
        {
          "duration": 0.3125,
          "durationTicks": 192,
          "midi": 67,
          "name": "G4",
          "ticks": 4320,
          "time": 7.03125,
          "velocity": 0.7874015748031497
        },
        {
          "duration": 0.3125,
          "durationTicks": 192,
          "midi": 60,
          "name": "C4",
          "ticks": 4416,
          "time": 7.1875,
          "velocity": 0.7874015748031497
        },
        {
          "duration": 0.3125,
          "durationTicks": 192,
          "midi": 65,
          "name": "F4",
          "ticks": 4512,
          "time": 7.34375,
          "velocity": 0.7874015748031497
        },
        {
          "duration": 0.3125,
          "durationTicks": 192,
          "midi": 60,
          "name": "C4",
          "ticks": 4608,
          "time": 7.5,
          "velocity": 0.7874015748031497
        },
        {
          "duration": 0.3125,
          "durationTicks": 192,
          "midi": 65,
          "name": "F4",
          "ticks": 4704,
          "time": 7.65625,
          "velocity": 0.7874015748031497
        },
        {
          "duration": 0.3125,
          "durationTicks": 192,
          "midi": 70,
          "name": "A#4",
          "ticks": 4800,
          "time": 7.8125,
          "velocity": 0.7874015748031497
        },
        {
          "duration": 0.3125,
          "durationTicks": 192,
          "midi": 60,
          "name": "C4",
          "ticks": 4896,
          "time": 7.96875,
          "velocity": 0.7874015748031497
        },
        {
          "duration": 0.3125,
          "durationTicks": 192,
          "midi": 65,
          "name": "F4",
          "ticks": 4992,
          "time": 8.125,
          "velocity": 0.7874015748031497
        },
        {
          "duration": 0.3125,
          "durationTicks": 192,
          "midi": 70,
          "name": "A#4",
          "ticks": 5088,
          "time": 8.28125,
          "velocity": 0.7874015748031497
        },
        {
          "duration": 0.3125,
          "durationTicks": 192,
          "midi": 60,
          "name": "C4",
          "ticks": 5184,
          "time": 8.4375,
          "velocity": 0.7874015748031497
        },
        {
          "duration": 0.3125,
          "durationTicks": 192,
          "midi": 65,
          "name": "F4",
          "ticks": 5280,
          "time": 8.59375,
          "velocity": 0.7874015748031497
        },
        {
          "duration": 0.3125,
          "durationTicks": 192,
          "midi": 60,
          "name": "C4",
          "ticks": 5376,
          "time": 8.75,
          "velocity": 0.7874015748031497
        },
        {
          "duration": 0.3125,
          "durationTicks": 192,
          "midi": 65,
          "name": "F4",
          "ticks": 5472,
          "time": 8.90625,
          "velocity": 0.7874015748031497
        },
        {
          "duration": 0.3125,
          "durationTicks": 192,
          "midi": 70,
          "name": "A#4",
          "ticks": 5568,
          "time": 9.0625,
          "velocity": 0.7874015748031497
        },
        {
          "duration": 0.3125,
          "durationTicks": 192,
          "midi": 60,
          "name": "C4",
          "ticks": 5664,
          "time": 9.21875,
          "velocity": 0.7874015748031497
        },
        {
          "duration": 0.3125,
          "durationTicks": 192,
          "midi": 65,
          "name": "F4",
          "ticks": 5760,
          "time": 9.375,
          "velocity": 0.7874015748031497
        },
        {
          "duration": 0.3125,
          "durationTicks": 192,
          "midi": 68,
          "name": "G#4",
          "ticks": 5856,
          "time": 9.53125,
          "velocity": 0.7874015748031497
        },
        {
          "duration": 0.3125,
          "durationTicks": 192,
          "midi": 60,
          "name": "C4",
          "ticks": 5952,
          "time": 9.6875,
          "velocity": 0.7874015748031497
        },
        {
          "duration": 0.3125,
          "durationTicks": 192,
          "midi": 67,
          "name": "G4",
          "ticks": 6048,
          "time": 9.84375,
          "velocity": 0.7874015748031497
        },
        {
          "duration": 2.1875,
          "durationTicks": 1344,
          "midi": 24,
          "name": "C1",
          "ticks": 6144,
          "time": 10,
          "velocity": 0.7874015748031497
        },
        {
          "duration": 0.3125,
          "durationTicks": 192,
          "midi": 60,
          "name": "C4",
          "ticks": 6144,
          "time": 10,
          "velocity": 0.7874015748031497
        },
        {
          "duration": 0.46875,
          "durationTicks": 288,
          "midi": 55,
          "name": "G3",
          "ticks": 6144,
          "time": 10,
          "velocity": 0.7874015748031497
        },
        {
          "duration": 0.3125,
          "durationTicks": 192,
          "midi": 65,
          "name": "F4",
          "ticks": 6240,
          "time": 10.15625,
          "velocity": 0.7874015748031497
        },
        {
          "duration": 0.3125,
          "durationTicks": 192,
          "midi": 67,
          "name": "G4",
          "ticks": 6336,
          "time": 10.3125,
          "velocity": 0.7874015748031497
        },
        {
          "duration": 0.3125,
          "durationTicks": 192,
          "midi": 60,
          "name": "C4",
          "ticks": 6432,
          "time": 10.46875,
          "velocity": 0.7874015748031497
        },
        {
          "duration": 0.46875,
          "durationTicks": 288,
          "midi": 55,
          "name": "G3",
          "ticks": 6432,
          "time": 10.46875,
          "velocity": 0.7874015748031497
        },
        {
          "duration": 0.3125,
          "durationTicks": 192,
          "midi": 65,
          "name": "F4",
          "ticks": 6528,
          "time": 10.625,
          "velocity": 0.7874015748031497
        },
        {
          "duration": 0.3125,
          "durationTicks": 192,
          "midi": 67,
          "name": "G4",
          "ticks": 6624,
          "time": 10.78125,
          "velocity": 0.7874015748031497
        },
        {
          "duration": 0.15625,
          "durationTicks": 96,
          "midi": 53,
          "name": "F3",
          "ticks": 6720,
          "time": 10.9375,
          "velocity": 0.7874015748031497
        },
        {
          "duration": 0.3125,
          "durationTicks": 192,
          "midi": 60,
          "name": "C4",
          "ticks": 6720,
          "time": 10.9375,
          "velocity": 0.7874015748031497
        },
        {
          "duration": 0.3125,
          "durationTicks": 192,
          "midi": 65,
          "name": "F4",
          "ticks": 6816,
          "time": 11.09375,
          "velocity": 0.7874015748031497
        },
        {
          "duration": 0.15625,
          "durationTicks": 96,
          "midi": 53,
          "name": "F3",
          "ticks": 6828,
          "time": 11.11328125,
          "velocity": 0.5905511811023622
        },
        {
          "duration": 0.3125,
          "durationTicks": 192,
          "midi": 60,
          "name": "C4",
          "ticks": 6912,
          "time": 11.25,
          "velocity": 0.7874015748031497
        },
        {
          "duration": 0.46875,
          "durationTicks": 288,
          "midi": 55,
          "name": "G3",
          "ticks": 6912,
          "time": 11.25,
          "velocity": 0.7874015748031497
        },
        {
          "duration": 0.3125,
          "durationTicks": 192,
          "midi": 65,
          "name": "F4",
          "ticks": 7008,
          "time": 11.40625,
          "velocity": 0.7874015748031497
        },
        {
          "duration": 0.3125,
          "durationTicks": 192,
          "midi": 67,
          "name": "G4",
          "ticks": 7104,
          "time": 11.5625,
          "velocity": 0.7874015748031497
        },
        {
          "duration": 0.3125,
          "durationTicks": 192,
          "midi": 60,
          "name": "C4",
          "ticks": 7200,
          "time": 11.71875,
          "velocity": 0.7874015748031497
        },
        {
          "duration": 0.46875,
          "durationTicks": 288,
          "midi": 55,
          "name": "G3",
          "ticks": 7200,
          "time": 11.71875,
          "velocity": 0.7874015748031497
        },
        {
          "duration": 0.3125,
          "durationTicks": 192,
          "midi": 65,
          "name": "F4",
          "ticks": 7296,
          "time": 11.875,
          "velocity": 0.7874015748031497
        },
        {
          "duration": 0.3125,
          "durationTicks": 192,
          "midi": 67,
          "name": "G4",
          "ticks": 7392,
          "time": 12.03125,
          "velocity": 0.7874015748031497
        },
        {
          "duration": 0.3125,
          "durationTicks": 192,
          "midi": 60,
          "name": "C4",
          "ticks": 7488,
          "time": 12.1875,
          "velocity": 0.7874015748031497
        },
        {
          "duration": 0.15625,
          "durationTicks": 96,
          "midi": 53,
          "name": "F3",
          "ticks": 7488,
          "time": 12.1875,
          "velocity": 0.7874015748031497
        },
        {
          "duration": 0.3125,
          "durationTicks": 192,
          "midi": 65,
          "name": "F4",
          "ticks": 7584,
          "time": 12.34375,
          "velocity": 0.7874015748031497
        },
        {
          "duration": 0.15625,
          "durationTicks": 96,
          "midi": 53,
          "name": "F3",
          "ticks": 7596,
          "time": 12.36328125,
          "velocity": 0.5905511811023622
        },
        {
          "duration": 2.1875,
          "durationTicks": 1344,
          "midi": 25,
          "name": "C#1",
          "ticks": 7680,
          "time": 12.5,
          "velocity": 0.7874015748031497
        },
        {
          "duration": 0.46875,
          "durationTicks": 288,
          "midi": 56,
          "name": "G#3",
          "ticks": 7680,
          "time": 12.5,
          "velocity": 0.7874015748031497
        },
        {
          "duration": 0.3125,
          "durationTicks": 192,
          "midi": 60,
          "name": "C4",
          "ticks": 7680,
          "time": 12.5,
          "velocity": 0.7874015748031497
        },
        {
          "duration": 0.3125,
          "durationTicks": 192,
          "midi": 65,
          "name": "F4",
          "ticks": 7776,
          "time": 12.65625,
          "velocity": 0.7874015748031497
        },
        {
          "duration": 0.3125,
          "durationTicks": 192,
          "midi": 68,
          "name": "G#4",
          "ticks": 7872,
          "time": 12.8125,
          "velocity": 0.7874015748031497
        },
        {
          "duration": 0.46875,
          "durationTicks": 288,
          "midi": 56,
          "name": "G#3",
          "ticks": 7968,
          "time": 12.96875,
          "velocity": 0.7874015748031497
        },
        {
          "duration": 0.3125,
          "durationTicks": 192,
          "midi": 60,
          "name": "C4",
          "ticks": 7968,
          "time": 12.96875,
          "velocity": 0.7874015748031497
        },
        {
          "duration": 0.3125,
          "durationTicks": 192,
          "midi": 65,
          "name": "F4",
          "ticks": 8064,
          "time": 13.125,
          "velocity": 0.7874015748031497
        },
        {
          "duration": 0.3125,
          "durationTicks": 192,
          "midi": 68,
          "name": "G#4",
          "ticks": 8160,
          "time": 13.28125,
          "velocity": 0.7874015748031497
        },
        {
          "duration": 0.15625,
          "durationTicks": 96,
          "midi": 53,
          "name": "F3",
          "ticks": 8256,
          "time": 13.4375,
          "velocity": 0.7874015748031497
        },
        {
          "duration": 0.3125,
          "durationTicks": 192,
          "midi": 60,
          "name": "C4",
          "ticks": 8256,
          "time": 13.4375,
          "velocity": 0.7874015748031497
        },
        {
          "duration": 0.3125,
          "durationTicks": 192,
          "midi": 65,
          "name": "F4",
          "ticks": 8352,
          "time": 13.59375,
          "velocity": 0.7874015748031497
        },
        {
          "duration": 0.15625,
          "durationTicks": 96,
          "midi": 53,
          "name": "F3",
          "ticks": 8364,
          "time": 13.61328125,
          "velocity": 0.5905511811023622
        },
        {
          "duration": 0.46875,
          "durationTicks": 288,
          "midi": 56,
          "name": "G#3",
          "ticks": 8448,
          "time": 13.75,
          "velocity": 0.7874015748031497
        },
        {
          "duration": 0.3125,
          "durationTicks": 192,
          "midi": 60,
          "name": "C4",
          "ticks": 8448,
          "time": 13.75,
          "velocity": 0.7874015748031497
        },
        {
          "duration": 0.3125,
          "durationTicks": 192,
          "midi": 65,
          "name": "F4",
          "ticks": 8544,
          "time": 13.90625,
          "velocity": 0.7874015748031497
        },
        {
          "duration": 0.3125,
          "durationTicks": 192,
          "midi": 68,
          "name": "G#4",
          "ticks": 8640,
          "time": 14.0625,
          "velocity": 0.7874015748031497
        },
        {
          "duration": 0.3125,
          "durationTicks": 192,
          "midi": 60,
          "name": "C4",
          "ticks": 8736,
          "time": 14.21875,
          "velocity": 0.7874015748031497
        },
        {
          "duration": 0.46875,
          "durationTicks": 288,
          "midi": 56,
          "name": "G#3",
          "ticks": 8736,
          "time": 14.21875,
          "velocity": 0.7874015748031497
        },
        {
          "duration": 0.3125,
          "durationTicks": 192,
          "midi": 65,
          "name": "F4",
          "ticks": 8832,
          "time": 14.375,
          "velocity": 0.7874015748031497
        },
        {
          "duration": 0.3125,
          "durationTicks": 192,
          "midi": 68,
          "name": "G#4",
          "ticks": 8928,
          "time": 14.53125,
          "velocity": 0.7874015748031497
        },
        {
          "duration": 0.15625,
          "durationTicks": 96,
          "midi": 53,
          "name": "F3",
          "ticks": 9024,
          "time": 14.6875,
          "velocity": 0.7874015748031497
        },
        {
          "duration": 0.3125,
          "durationTicks": 192,
          "midi": 60,
          "name": "C4",
          "ticks": 9024,
          "time": 14.6875,
          "velocity": 0.7874015748031497
        },
        {
          "duration": 0.3125,
          "durationTicks": 192,
          "midi": 65,
          "name": "F4",
          "ticks": 9120,
          "time": 14.84375,
          "velocity": 0.7874015748031497
        },
        {
          "duration": 0.15625,
          "durationTicks": 96,
          "midi": 53,
          "name": "F3",
          "ticks": 9132,
          "time": 14.86328125,
          "velocity": 0.5905511811023622
        },
        {
          "duration": 0.46875,
          "durationTicks": 288,
          "midi": 55,
          "name": "G3",
          "ticks": 9216,
          "time": 15,
          "velocity": 0.7874015748031497
        },
        {
          "duration": 0.3125,
          "durationTicks": 192,
          "midi": 60,
          "name": "C4",
          "ticks": 9216,
          "time": 15,
          "velocity": 0.7874015748031497
        },
        {
          "duration": 2.5,
          "durationTicks": 1536,
          "midi": 27,
          "name": "D#1",
          "ticks": 9216,
          "time": 15,
          "velocity": 0.7874015748031497
        },
        {
          "duration": 0.3125,
          "durationTicks": 192,
          "midi": 65,
          "name": "F4",
          "ticks": 9312,
          "time": 15.15625,
          "velocity": 0.7874015748031497
        },
        {
          "duration": 0.3125,
          "durationTicks": 192,
          "midi": 67,
          "name": "G4",
          "ticks": 9408,
          "time": 15.3125,
          "velocity": 0.7874015748031497
        },
        {
          "duration": 0.3125,
          "durationTicks": 192,
          "midi": 60,
          "name": "C4",
          "ticks": 9504,
          "time": 15.46875,
          "velocity": 0.7874015748031497
        },
        {
          "duration": 0.46875,
          "durationTicks": 288,
          "midi": 55,
          "name": "G3",
          "ticks": 9504,
          "time": 15.46875,
          "velocity": 0.7874015748031497
        },
        {
          "duration": 0.3125,
          "durationTicks": 192,
          "midi": 65,
          "name": "F4",
          "ticks": 9600,
          "time": 15.625,
          "velocity": 0.7874015748031497
        },
        {
          "duration": 0.3125,
          "durationTicks": 192,
          "midi": 67,
          "name": "G4",
          "ticks": 9696,
          "time": 15.78125,
          "velocity": 0.7874015748031497
        },
        {
          "duration": 0.3125,
          "durationTicks": 192,
          "midi": 60,
          "name": "C4",
          "ticks": 9792,
          "time": 15.9375,
          "velocity": 0.7874015748031497
        },
        {
          "duration": 0.15625,
          "durationTicks": 96,
          "midi": 53,
          "name": "F3",
          "ticks": 9792,
          "time": 15.9375,
          "velocity": 0.7874015748031497
        },
        {
          "duration": 0.3125,
          "durationTicks": 192,
          "midi": 65,
          "name": "F4",
          "ticks": 9888,
          "time": 16.09375,
          "velocity": 0.7874015748031497
        },
        {
          "duration": 0.15625,
          "durationTicks": 96,
          "midi": 53,
          "name": "F3",
          "ticks": 9900,
          "time": 16.11328125,
          "velocity": 0.5905511811023622
        },
        {
          "duration": 0.3125,
          "durationTicks": 192,
          "midi": 60,
          "name": "C4",
          "ticks": 9984,
          "time": 16.25,
          "velocity": 0.7874015748031497
        },
        {
          "duration": 0.46875,
          "durationTicks": 288,
          "midi": 55,
          "name": "G3",
          "ticks": 9984,
          "time": 16.25,
          "velocity": 0.7874015748031497
        },
        {
          "duration": 0.3125,
          "durationTicks": 192,
          "midi": 65,
          "name": "F4",
          "ticks": 10080,
          "time": 16.40625,
          "velocity": 0.7874015748031497
        },
        {
          "duration": 0.3125,
          "durationTicks": 192,
          "midi": 67,
          "name": "G4",
          "ticks": 10176,
          "time": 16.5625,
          "velocity": 0.7874015748031497
        },
        {
          "duration": 0.3125,
          "durationTicks": 192,
          "midi": 60,
          "name": "C4",
          "ticks": 10272,
          "time": 16.71875,
          "velocity": 0.7874015748031497
        },
        {
          "duration": 0.46875,
          "durationTicks": 288,
          "midi": 55,
          "name": "G3",
          "ticks": 10272,
          "time": 16.71875,
          "velocity": 0.7874015748031497
        },
        {
          "duration": 0.3125,
          "durationTicks": 192,
          "midi": 65,
          "name": "F4",
          "ticks": 10368,
          "time": 16.875,
          "velocity": 0.7874015748031497
        },
        {
          "duration": 0.3125,
          "durationTicks": 192,
          "midi": 67,
          "name": "G4",
          "ticks": 10464,
          "time": 17.03125,
          "velocity": 0.7874015748031497
        },
        {
          "duration": 0.15625,
          "durationTicks": 96,
          "midi": 53,
          "name": "F3",
          "ticks": 10560,
          "time": 17.1875,
          "velocity": 0.7874015748031497
        },
        {
          "duration": 0.3125,
          "durationTicks": 192,
          "midi": 60,
          "name": "C4",
          "ticks": 10560,
          "time": 17.1875,
          "velocity": 0.7874015748031497
        },
        {
          "duration": 0.3125,
          "durationTicks": 192,
          "midi": 65,
          "name": "F4",
          "ticks": 10656,
          "time": 17.34375,
          "velocity": 0.7874015748031497
        },
        {
          "duration": 0.15625,
          "durationTicks": 96,
          "midi": 53,
          "name": "F3",
          "ticks": 10668,
          "time": 17.36328125,
          "velocity": 0.5905511811023622
        },
        {
          "duration": 0.3125,
          "durationTicks": 192,
          "midi": 60,
          "name": "C4",
          "ticks": 10752,
          "time": 17.5,
          "velocity": 0.7874015748031497
        },
        {
          "duration": 0.46875,
          "durationTicks": 288,
          "midi": 29,
          "name": "F1",
          "ticks": 10752,
          "time": 17.5,
          "velocity": 0.7874015748031497
        },
        {
          "duration": 0.46875,
          "durationTicks": 288,
          "midi": 58,
          "name": "A#3",
          "ticks": 10752,
          "time": 17.5,
          "velocity": 0.7874015748031497
        },
        {
          "duration": 0.3125,
          "durationTicks": 192,
          "midi": 65,
          "name": "F4",
          "ticks": 10848,
          "time": 17.65625,
          "velocity": 0.7874015748031497
        },
        {
          "duration": 0.3125,
          "durationTicks": 192,
          "midi": 70,
          "name": "A#4",
          "ticks": 10944,
          "time": 17.8125,
          "velocity": 0.7874015748031497
        },
        {
          "duration": 0.46875,
          "durationTicks": 288,
          "midi": 58,
          "name": "A#3",
          "ticks": 11040,
          "time": 17.96875,
          "velocity": 0.7874015748031497
        },
        {
          "duration": 0.3125,
          "durationTicks": 192,
          "midi": 60,
          "name": "C4",
          "ticks": 11040,
          "time": 17.96875,
          "velocity": 0.7874015748031497
        },
        {
          "duration": 0.46875,
          "durationTicks": 288,
          "midi": 29,
          "name": "F1",
          "ticks": 11040,
          "time": 17.96875,
          "velocity": 0.7874015748031497
        },
        {
          "duration": 0.3125,
          "durationTicks": 192,
          "midi": 65,
          "name": "F4",
          "ticks": 11136,
          "time": 18.125,
          "velocity": 0.7874015748031497
        },
        {
          "duration": 0.3125,
          "durationTicks": 192,
          "midi": 70,
          "name": "A#4",
          "ticks": 11232,
          "time": 18.28125,
          "velocity": 0.7874015748031497
        },
        {
          "duration": 0.3125,
          "durationTicks": 192,
          "midi": 29,
          "name": "F1",
          "ticks": 11328,
          "time": 18.4375,
          "velocity": 0.7874015748031497
        },
        {
          "duration": 0.3125,
          "durationTicks": 192,
          "midi": 60,
          "name": "C4",
          "ticks": 11328,
          "time": 18.4375,
          "velocity": 0.7874015748031497
        },
        {
          "duration": 0.15625,
          "durationTicks": 96,
          "midi": 53,
          "name": "F3",
          "ticks": 11328,
          "time": 18.4375,
          "velocity": 0.7874015748031497
        },
        {
          "duration": 0.3125,
          "durationTicks": 192,
          "midi": 65,
          "name": "F4",
          "ticks": 11424,
          "time": 18.59375,
          "velocity": 0.7874015748031497
        },
        {
          "duration": 0.15625,
          "durationTicks": 96,
          "midi": 53,
          "name": "F3",
          "ticks": 11436,
          "time": 18.61328125,
          "velocity": 0.5905511811023622
        },
        {
          "duration": 0.3125,
          "durationTicks": 192,
          "midi": 60,
          "name": "C4",
          "ticks": 11520,
          "time": 18.75,
          "velocity": 0.7874015748031497
        },
        {
          "duration": 0.46875,
          "durationTicks": 288,
          "midi": 58,
          "name": "A#3",
          "ticks": 11520,
          "time": 18.75,
          "velocity": 0.7874015748031497
        },
        {
          "duration": 0.46875,
          "durationTicks": 288,
          "midi": 29,
          "name": "F1",
          "ticks": 11520,
          "time": 18.75,
          "velocity": 0.7874015748031497
        },
        {
          "duration": 0.3125,
          "durationTicks": 192,
          "midi": 65,
          "name": "F4",
          "ticks": 11616,
          "time": 18.90625,
          "velocity": 0.7874015748031497
        },
        {
          "duration": 0.3125,
          "durationTicks": 192,
          "midi": 70,
          "name": "A#4",
          "ticks": 11712,
          "time": 19.0625,
          "velocity": 0.7874015748031497
        },
        {
          "duration": 0.3125,
          "durationTicks": 192,
          "midi": 60,
          "name": "C4",
          "ticks": 11808,
          "time": 19.21875,
          "velocity": 0.7874015748031497
        },
        {
          "duration": 0.46875,
          "durationTicks": 288,
          "midi": 29,
          "name": "F1",
          "ticks": 11808,
          "time": 19.21875,
          "velocity": 0.7874015748031497
        },
        {
          "duration": 0.46875,
          "durationTicks": 288,
          "midi": 58,
          "name": "A#3",
          "ticks": 11808,
          "time": 19.21875,
          "velocity": 0.7874015748031497
        },
        {
          "duration": 0.3125,
          "durationTicks": 192,
          "midi": 65,
          "name": "F4",
          "ticks": 11904,
          "time": 19.375,
          "velocity": 0.7874015748031497
        },
        {
          "duration": 0.3125,
          "durationTicks": 192,
          "midi": 68,
          "name": "G#4",
          "ticks": 12000,
          "time": 19.53125,
          "velocity": 0.7874015748031497
        },
        {
          "duration": 0.15625,
          "durationTicks": 96,
          "midi": 56,
          "name": "G#3",
          "ticks": 12096,
          "time": 19.6875,
          "velocity": 0.7874015748031497
        },
        {
          "duration": 0.3125,
          "durationTicks": 192,
          "midi": 29,
          "name": "F1",
          "ticks": 12096,
          "time": 19.6875,
          "velocity": 0.7874015748031497
        },
        {
          "duration": 0.3125,
          "durationTicks": 192,
          "midi": 60,
          "name": "C4",
          "ticks": 12096,
          "time": 19.6875,
          "velocity": 0.7874015748031497
        },
        {
          "duration": 0.3125,
          "durationTicks": 192,
          "midi": 67,
          "name": "G4",
          "ticks": 12192,
          "time": 19.84375,
          "velocity": 0.7874015748031497
        },
        {
          "duration": 0.15625,
          "durationTicks": 96,
          "midi": 55,
          "name": "G3",
          "ticks": 12228,
          "time": 19.90234375,
          "velocity": 0.7874015748031497
        },
        {
          "duration": 0.3125,
          "durationTicks": 192,
          "midi": 60,
          "name": "C4",
          "ticks": 12288,
          "time": 20,
          "velocity": 0.7874015748031497
        },
        {
          "duration": 0.46875,
          "durationTicks": 288,
          "midi": 55,
          "name": "G3",
          "ticks": 12288,
          "time": 20,
          "velocity": 0.7874015748031497
        },
        {
          "duration": 2.1875,
          "durationTicks": 1344,
          "midi": 24,
          "name": "C1",
          "ticks": 12288,
          "time": 20,
          "velocity": 0.7874015748031497
        },
        {
          "duration": 0.3125,
          "durationTicks": 192,
          "midi": 65,
          "name": "F4",
          "ticks": 12384,
          "time": 20.15625,
          "velocity": 0.7874015748031497
        },
        {
          "duration": 0.3125,
          "durationTicks": 192,
          "midi": 67,
          "name": "G4",
          "ticks": 12480,
          "time": 20.3125,
          "velocity": 0.7874015748031497
        },
        {
          "duration": 0.3125,
          "durationTicks": 192,
          "midi": 60,
          "name": "C4",
          "ticks": 12576,
          "time": 20.46875,
          "velocity": 0.7874015748031497
        },
        {
          "duration": 0.46875,
          "durationTicks": 288,
          "midi": 55,
          "name": "G3",
          "ticks": 12576,
          "time": 20.46875,
          "velocity": 0.7874015748031497
        },
        {
          "duration": 0.3125,
          "durationTicks": 192,
          "midi": 65,
          "name": "F4",
          "ticks": 12672,
          "time": 20.625,
          "velocity": 0.7874015748031497
        },
        {
          "duration": 0.3125,
          "durationTicks": 192,
          "midi": 67,
          "name": "G4",
          "ticks": 12768,
          "time": 20.78125,
          "velocity": 0.7874015748031497
        },
        {
          "duration": 0.3125,
          "durationTicks": 192,
          "midi": 60,
          "name": "C4",
          "ticks": 12864,
          "time": 20.9375,
          "velocity": 0.7874015748031497
        },
        {
          "duration": 0.15625,
          "durationTicks": 96,
          "midi": 53,
          "name": "F3",
          "ticks": 12864,
          "time": 20.9375,
          "velocity": 0.7874015748031497
        },
        {
          "duration": 0.3125,
          "durationTicks": 192,
          "midi": 65,
          "name": "F4",
          "ticks": 12960,
          "time": 21.09375,
          "velocity": 0.7874015748031497
        },
        {
          "duration": 0.15625,
          "durationTicks": 96,
          "midi": 53,
          "name": "F3",
          "ticks": 12972,
          "time": 21.11328125,
          "velocity": 0.5905511811023622
        },
        {
          "duration": 0.46875,
          "durationTicks": 288,
          "midi": 55,
          "name": "G3",
          "ticks": 13056,
          "time": 21.25,
          "velocity": 0.7874015748031497
        },
        {
          "duration": 0.3125,
          "durationTicks": 192,
          "midi": 60,
          "name": "C4",
          "ticks": 13056,
          "time": 21.25,
          "velocity": 0.7874015748031497
        },
        {
          "duration": 0.3125,
          "durationTicks": 192,
          "midi": 65,
          "name": "F4",
          "ticks": 13152,
          "time": 21.40625,
          "velocity": 0.7874015748031497
        },
        {
          "duration": 0.3125,
          "durationTicks": 192,
          "midi": 67,
          "name": "G4",
          "ticks": 13248,
          "time": 21.5625,
          "velocity": 0.7874015748031497
        },
        {
          "duration": 0.3125,
          "durationTicks": 192,
          "midi": 60,
          "name": "C4",
          "ticks": 13344,
          "time": 21.71875,
          "velocity": 0.7874015748031497
        },
        {
          "duration": 0.46875,
          "durationTicks": 288,
          "midi": 55,
          "name": "G3",
          "ticks": 13344,
          "time": 21.71875,
          "velocity": 0.7874015748031497
        },
        {
          "duration": 0.3125,
          "durationTicks": 192,
          "midi": 65,
          "name": "F4",
          "ticks": 13440,
          "time": 21.875,
          "velocity": 0.7874015748031497
        },
        {
          "duration": 0.3125,
          "durationTicks": 192,
          "midi": 67,
          "name": "G4",
          "ticks": 13536,
          "time": 22.03125,
          "velocity": 0.7874015748031497
        },
        {
          "duration": 0.3125,
          "durationTicks": 192,
          "midi": 60,
          "name": "C4",
          "ticks": 13632,
          "time": 22.1875,
          "velocity": 0.7874015748031497
        },
        {
          "duration": 0.15625,
          "durationTicks": 96,
          "midi": 53,
          "name": "F3",
          "ticks": 13632,
          "time": 22.1875,
          "velocity": 0.7874015748031497
        },
        {
          "duration": 0.3125,
          "durationTicks": 192,
          "midi": 65,
          "name": "F4",
          "ticks": 13728,
          "time": 22.34375,
          "velocity": 0.7874015748031497
        },
        {
          "duration": 0.15625,
          "durationTicks": 96,
          "midi": 53,
          "name": "F3",
          "ticks": 13740,
          "time": 22.36328125,
          "velocity": 0.5905511811023622
        },
        {
          "duration": 0.46875,
          "durationTicks": 288,
          "midi": 56,
          "name": "G#3",
          "ticks": 13824,
          "time": 22.5,
          "velocity": 0.7874015748031497
        },
        {
          "duration": 2.1875,
          "durationTicks": 1344,
          "midi": 25,
          "name": "C#1",
          "ticks": 13824,
          "time": 22.5,
          "velocity": 0.7874015748031497
        },
        {
          "duration": 0.3125,
          "durationTicks": 192,
          "midi": 60,
          "name": "C4",
          "ticks": 13824,
          "time": 22.5,
          "velocity": 0.7874015748031497
        },
        {
          "duration": 0.3125,
          "durationTicks": 192,
          "midi": 65,
          "name": "F4",
          "ticks": 13920,
          "time": 22.65625,
          "velocity": 0.7874015748031497
        },
        {
          "duration": 0.3125,
          "durationTicks": 192,
          "midi": 68,
          "name": "G#4",
          "ticks": 14016,
          "time": 22.8125,
          "velocity": 0.7874015748031497
        },
        {
          "duration": 0.3125,
          "durationTicks": 192,
          "midi": 60,
          "name": "C4",
          "ticks": 14112,
          "time": 22.96875,
          "velocity": 0.7874015748031497
        },
        {
          "duration": 0.46875,
          "durationTicks": 288,
          "midi": 56,
          "name": "G#3",
          "ticks": 14112,
          "time": 22.96875,
          "velocity": 0.7874015748031497
        },
        {
          "duration": 0.3125,
          "durationTicks": 192,
          "midi": 65,
          "name": "F4",
          "ticks": 14208,
          "time": 23.125,
          "velocity": 0.7874015748031497
        },
        {
          "duration": 0.3125,
          "durationTicks": 192,
          "midi": 68,
          "name": "G#4",
          "ticks": 14304,
          "time": 23.28125,
          "velocity": 0.7874015748031497
        },
        {
          "duration": 0.15625,
          "durationTicks": 96,
          "midi": 53,
          "name": "F3",
          "ticks": 14400,
          "time": 23.4375,
          "velocity": 0.7874015748031497
        },
        {
          "duration": 0.3125,
          "durationTicks": 192,
          "midi": 60,
          "name": "C4",
          "ticks": 14400,
          "time": 23.4375,
          "velocity": 0.7874015748031497
        },
        {
          "duration": 0.3125,
          "durationTicks": 192,
          "midi": 65,
          "name": "F4",
          "ticks": 14496,
          "time": 23.59375,
          "velocity": 0.7874015748031497
        },
        {
          "duration": 0.15625,
          "durationTicks": 96,
          "midi": 53,
          "name": "F3",
          "ticks": 14508,
          "time": 23.61328125,
          "velocity": 0.5905511811023622
        },
        {
          "duration": 0.3125,
          "durationTicks": 192,
          "midi": 60,
          "name": "C4",
          "ticks": 14592,
          "time": 23.75,
          "velocity": 0.7874015748031497
        },
        {
          "duration": 0.46875,
          "durationTicks": 288,
          "midi": 56,
          "name": "G#3",
          "ticks": 14592,
          "time": 23.75,
          "velocity": 0.7874015748031497
        },
        {
          "duration": 0.3125,
          "durationTicks": 192,
          "midi": 65,
          "name": "F4",
          "ticks": 14688,
          "time": 23.90625,
          "velocity": 0.7874015748031497
        },
        {
          "duration": 0.3125,
          "durationTicks": 192,
          "midi": 68,
          "name": "G#4",
          "ticks": 14784,
          "time": 24.0625,
          "velocity": 0.7874015748031497
        },
        {
          "duration": 0.3125,
          "durationTicks": 192,
          "midi": 60,
          "name": "C4",
          "ticks": 14880,
          "time": 24.21875,
          "velocity": 0.7874015748031497
        },
        {
          "duration": 0.46875,
          "durationTicks": 288,
          "midi": 56,
          "name": "G#3",
          "ticks": 14880,
          "time": 24.21875,
          "velocity": 0.7874015748031497
        },
        {
          "duration": 0.3125,
          "durationTicks": 192,
          "midi": 65,
          "name": "F4",
          "ticks": 14976,
          "time": 24.375,
          "velocity": 0.7874015748031497
        },
        {
          "duration": 0.3125,
          "durationTicks": 192,
          "midi": 68,
          "name": "G#4",
          "ticks": 15072,
          "time": 24.53125,
          "velocity": 0.7874015748031497
        },
        {
          "duration": 0.15625,
          "durationTicks": 96,
          "midi": 53,
          "name": "F3",
          "ticks": 15168,
          "time": 24.6875,
          "velocity": 0.7874015748031497
        },
        {
          "duration": 0.3125,
          "durationTicks": 192,
          "midi": 60,
          "name": "C4",
          "ticks": 15168,
          "time": 24.6875,
          "velocity": 0.7874015748031497
        },
        {
          "duration": 0.3125,
          "durationTicks": 192,
          "midi": 65,
          "name": "F4",
          "ticks": 15264,
          "time": 24.84375,
          "velocity": 0.7874015748031497
        },
        {
          "duration": 0.15625,
          "durationTicks": 96,
          "midi": 53,
          "name": "F3",
          "ticks": 15276,
          "time": 24.86328125,
          "velocity": 0.5905511811023622
        },
        {
          "duration": 0.3125,
          "durationTicks": 192,
          "midi": 60,
          "name": "C4",
          "ticks": 15360,
          "time": 25,
          "velocity": 0.7874015748031497
        },
        {
          "duration": 0.46875,
          "durationTicks": 288,
          "midi": 55,
          "name": "G3",
          "ticks": 15360,
          "time": 25,
          "velocity": 0.7874015748031497
        },
        {
          "duration": 2.5,
          "durationTicks": 1536,
          "midi": 27,
          "name": "D#1",
          "ticks": 15360,
          "time": 25,
          "velocity": 0.7874015748031497
        },
        {
          "duration": 0.3125,
          "durationTicks": 192,
          "midi": 65,
          "name": "F4",
          "ticks": 15456,
          "time": 25.15625,
          "velocity": 0.7874015748031497
        },
        {
          "duration": 0.3125,
          "durationTicks": 192,
          "midi": 67,
          "name": "G4",
          "ticks": 15552,
          "time": 25.3125,
          "velocity": 0.7874015748031497
        },
        {
          "duration": 0.3125,
          "durationTicks": 192,
          "midi": 60,
          "name": "C4",
          "ticks": 15648,
          "time": 25.46875,
          "velocity": 0.7874015748031497
        },
        {
          "duration": 0.46875,
          "durationTicks": 288,
          "midi": 55,
          "name": "G3",
          "ticks": 15648,
          "time": 25.46875,
          "velocity": 0.7874015748031497
        },
        {
          "duration": 0.3125,
          "durationTicks": 192,
          "midi": 65,
          "name": "F4",
          "ticks": 15744,
          "time": 25.625,
          "velocity": 0.7874015748031497
        },
        {
          "duration": 0.3125,
          "durationTicks": 192,
          "midi": 67,
          "name": "G4",
          "ticks": 15840,
          "time": 25.78125,
          "velocity": 0.7874015748031497
        },
        {
          "duration": 0.15625,
          "durationTicks": 96,
          "midi": 53,
          "name": "F3",
          "ticks": 15936,
          "time": 25.9375,
          "velocity": 0.7874015748031497
        },
        {
          "duration": 0.3125,
          "durationTicks": 192,
          "midi": 60,
          "name": "C4",
          "ticks": 15936,
          "time": 25.9375,
          "velocity": 0.7874015748031497
        },
        {
          "duration": 0.3125,
          "durationTicks": 192,
          "midi": 65,
          "name": "F4",
          "ticks": 16032,
          "time": 26.09375,
          "velocity": 0.7874015748031497
        },
        {
          "duration": 0.15625,
          "durationTicks": 96,
          "midi": 53,
          "name": "F3",
          "ticks": 16044,
          "time": 26.11328125,
          "velocity": 0.5905511811023622
        },
        {
          "duration": 0.3125,
          "durationTicks": 192,
          "midi": 60,
          "name": "C4",
          "ticks": 16128,
          "time": 26.25,
          "velocity": 0.7874015748031497
        },
        {
          "duration": 0.46875,
          "durationTicks": 288,
          "midi": 55,
          "name": "G3",
          "ticks": 16128,
          "time": 26.25,
          "velocity": 0.7874015748031497
        },
        {
          "duration": 0.3125,
          "durationTicks": 192,
          "midi": 65,
          "name": "F4",
          "ticks": 16224,
          "time": 26.40625,
          "velocity": 0.7874015748031497
        },
        {
          "duration": 0.3125,
          "durationTicks": 192,
          "midi": 67,
          "name": "G4",
          "ticks": 16320,
          "time": 26.5625,
          "velocity": 0.7874015748031497
        },
        {
          "duration": 0.46875,
          "durationTicks": 288,
          "midi": 55,
          "name": "G3",
          "ticks": 16416,
          "time": 26.71875,
          "velocity": 0.7874015748031497
        },
        {
          "duration": 0.3125,
          "durationTicks": 192,
          "midi": 60,
          "name": "C4",
          "ticks": 16416,
          "time": 26.71875,
          "velocity": 0.7874015748031497
        },
        {
          "duration": 0.3125,
          "durationTicks": 192,
          "midi": 65,
          "name": "F4",
          "ticks": 16512,
          "time": 26.875,
          "velocity": 0.7874015748031497
        },
        {
          "duration": 0.3125,
          "durationTicks": 192,
          "midi": 67,
          "name": "G4",
          "ticks": 16608,
          "time": 27.03125,
          "velocity": 0.7874015748031497
        },
        {
          "duration": 0.15625,
          "durationTicks": 96,
          "midi": 53,
          "name": "F3",
          "ticks": 16704,
          "time": 27.1875,
          "velocity": 0.7874015748031497
        },
        {
          "duration": 0.3125,
          "durationTicks": 192,
          "midi": 60,
          "name": "C4",
          "ticks": 16704,
          "time": 27.1875,
          "velocity": 0.7874015748031497
        },
        {
          "duration": 0.3125,
          "durationTicks": 192,
          "midi": 65,
          "name": "F4",
          "ticks": 16800,
          "time": 27.34375,
          "velocity": 0.7874015748031497
        },
        {
          "duration": 0.15625,
          "durationTicks": 96,
          "midi": 53,
          "name": "F3",
          "ticks": 16812,
          "time": 27.36328125,
          "velocity": 0.5905511811023622
        },
        {
          "duration": 0.3125,
          "durationTicks": 192,
          "midi": 60,
          "name": "C4",
          "ticks": 16896,
          "time": 27.5,
          "velocity": 0.7874015748031497
        },
        {
          "duration": 0.46875,
          "durationTicks": 288,
          "midi": 58,
          "name": "A#3",
          "ticks": 16896,
          "time": 27.5,
          "velocity": 0.7874015748031497
        },
        {
          "duration": 0.46875,
          "durationTicks": 288,
          "midi": 29,
          "name": "F1",
          "ticks": 16896,
          "time": 27.5,
          "velocity": 0.7874015748031497
        },
        {
          "duration": 0.3125,
          "durationTicks": 192,
          "midi": 65,
          "name": "F4",
          "ticks": 16992,
          "time": 27.65625,
          "velocity": 0.7874015748031497
        },
        {
          "duration": 0.3125,
          "durationTicks": 192,
          "midi": 70,
          "name": "A#4",
          "ticks": 17088,
          "time": 27.8125,
          "velocity": 0.7874015748031497
        },
        {
          "duration": 0.46875,
          "durationTicks": 288,
          "midi": 29,
          "name": "F1",
          "ticks": 17184,
          "time": 27.96875,
          "velocity": 0.7874015748031497
        },
        {
          "duration": 0.46875,
          "durationTicks": 288,
          "midi": 58,
          "name": "A#3",
          "ticks": 17184,
          "time": 27.96875,
          "velocity": 0.7874015748031497
        },
        {
          "duration": 0.3125,
          "durationTicks": 192,
          "midi": 60,
          "name": "C4",
          "ticks": 17184,
          "time": 27.96875,
          "velocity": 0.7874015748031497
        },
        {
          "duration": 0.3125,
          "durationTicks": 192,
          "midi": 65,
          "name": "F4",
          "ticks": 17280,
          "time": 28.125,
          "velocity": 0.7874015748031497
        },
        {
          "duration": 0.3125,
          "durationTicks": 192,
          "midi": 70,
          "name": "A#4",
          "ticks": 17376,
          "time": 28.28125,
          "velocity": 0.7874015748031497
        },
        {
          "duration": 0.15625,
          "durationTicks": 96,
          "midi": 53,
          "name": "F3",
          "ticks": 17472,
          "time": 28.4375,
          "velocity": 0.7874015748031497
        },
        {
          "duration": 0.3125,
          "durationTicks": 192,
          "midi": 29,
          "name": "F1",
          "ticks": 17472,
          "time": 28.4375,
          "velocity": 0.7874015748031497
        },
        {
          "duration": 0.3125,
          "durationTicks": 192,
          "midi": 60,
          "name": "C4",
          "ticks": 17472,
          "time": 28.4375,
          "velocity": 0.7874015748031497
        },
        {
          "duration": 0.3125,
          "durationTicks": 192,
          "midi": 65,
          "name": "F4",
          "ticks": 17568,
          "time": 28.59375,
          "velocity": 0.7874015748031497
        },
        {
          "duration": 0.15625,
          "durationTicks": 96,
          "midi": 53,
          "name": "F3",
          "ticks": 17580,
          "time": 28.61328125,
          "velocity": 0.5905511811023622
        },
        {
          "duration": 0.46875,
          "durationTicks": 288,
          "midi": 58,
          "name": "A#3",
          "ticks": 17664,
          "time": 28.75,
          "velocity": 0.7874015748031497
        },
        {
          "duration": 0.3125,
          "durationTicks": 192,
          "midi": 60,
          "name": "C4",
          "ticks": 17664,
          "time": 28.75,
          "velocity": 0.7874015748031497
        },
        {
          "duration": 0.46875,
          "durationTicks": 288,
          "midi": 29,
          "name": "F1",
          "ticks": 17664,
          "time": 28.75,
          "velocity": 0.7874015748031497
        },
        {
          "duration": 0.3125,
          "durationTicks": 192,
          "midi": 65,
          "name": "F4",
          "ticks": 17760,
          "time": 28.90625,
          "velocity": 0.7874015748031497
        },
        {
          "duration": 0.3125,
          "durationTicks": 192,
          "midi": 70,
          "name": "A#4",
          "ticks": 17856,
          "time": 29.0625,
          "velocity": 0.7874015748031497
        },
        {
          "duration": 0.46875,
          "durationTicks": 288,
          "midi": 29,
          "name": "F1",
          "ticks": 17952,
          "time": 29.21875,
          "velocity": 0.7874015748031497
        },
        {
          "duration": 0.46875,
          "durationTicks": 288,
          "midi": 58,
          "name": "A#3",
          "ticks": 17952,
          "time": 29.21875,
          "velocity": 0.7874015748031497
        },
        {
          "duration": 0.3125,
          "durationTicks": 192,
          "midi": 60,
          "name": "C4",
          "ticks": 17952,
          "time": 29.21875,
          "velocity": 0.7874015748031497
        },
        {
          "duration": 0.3125,
          "durationTicks": 192,
          "midi": 65,
          "name": "F4",
          "ticks": 18048,
          "time": 29.375,
          "velocity": 0.7874015748031497
        },
        {
          "duration": 0.3125,
          "durationTicks": 192,
          "midi": 68,
          "name": "G#4",
          "ticks": 18144,
          "time": 29.53125,
          "velocity": 0.7874015748031497
        },
        {
          "duration": 0.3125,
          "durationTicks": 192,
          "midi": 60,
          "name": "C4",
          "ticks": 18240,
          "time": 29.6875,
          "velocity": 0.7874015748031497
        },
        {
          "duration": 0.15625,
          "durationTicks": 96,
          "midi": 56,
          "name": "G#3",
          "ticks": 18240,
          "time": 29.6875,
          "velocity": 0.7874015748031497
        },
        {
          "duration": 0.3125,
          "durationTicks": 192,
          "midi": 29,
          "name": "F1",
          "ticks": 18240,
          "time": 29.6875,
          "velocity": 0.7874015748031497
        },
        {
          "duration": 0.3125,
          "durationTicks": 192,
          "midi": 67,
          "name": "G4",
          "ticks": 18336,
          "time": 29.84375,
          "velocity": 0.7874015748031497
        },
        {
          "duration": 0.15625,
          "durationTicks": 96,
          "midi": 55,
          "name": "G3",
          "ticks": 18372,
          "time": 29.90234375,
          "velocity": 0.7874015748031497
        },
        {
          "duration": 0.46875,
          "durationTicks": 288,
          "midi": 55,
          "name": "G3",
          "ticks": 18432,
          "time": 30,
          "velocity": 0.7874015748031497
        },
        {
          "duration": 2.1875,
          "durationTicks": 1344,
          "midi": 24,
          "name": "C1",
          "ticks": 18432,
          "time": 30,
          "velocity": 0.7874015748031497
        },
        {
          "duration": 0.3125,
          "durationTicks": 192,
          "midi": 60,
          "name": "C4",
          "ticks": 18432,
          "time": 30,
          "velocity": 0.7874015748031497
        },
        {
          "duration": 0.3125,
          "durationTicks": 192,
          "midi": 65,
          "name": "F4",
          "ticks": 18528,
          "time": 30.15625,
          "velocity": 0.7874015748031497
        },
        {
          "duration": 0.3125,
          "durationTicks": 192,
          "midi": 67,
          "name": "G4",
          "ticks": 18624,
          "time": 30.3125,
          "velocity": 0.7874015748031497
        },
        {
          "duration": 0.3125,
          "durationTicks": 192,
          "midi": 60,
          "name": "C4",
          "ticks": 18720,
          "time": 30.46875,
          "velocity": 0.7874015748031497
        },
        {
          "duration": 0.46875,
          "durationTicks": 288,
          "midi": 55,
          "name": "G3",
          "ticks": 18720,
          "time": 30.46875,
          "velocity": 0.7874015748031497
        },
        {
          "duration": 0.3125,
          "durationTicks": 192,
          "midi": 65,
          "name": "F4",
          "ticks": 18816,
          "time": 30.625,
          "velocity": 0.7874015748031497
        },
        {
          "duration": 0.3125,
          "durationTicks": 192,
          "midi": 67,
          "name": "G4",
          "ticks": 18912,
          "time": 30.78125,
          "velocity": 0.7874015748031497
        },
        {
          "duration": 0.15625,
          "durationTicks": 96,
          "midi": 53,
          "name": "F3",
          "ticks": 19008,
          "time": 30.9375,
          "velocity": 0.7874015748031497
        },
        {
          "duration": 0.3125,
          "durationTicks": 192,
          "midi": 60,
          "name": "C4",
          "ticks": 19008,
          "time": 30.9375,
          "velocity": 0.7874015748031497
        },
        {
          "duration": 0.3125,
          "durationTicks": 192,
          "midi": 65,
          "name": "F4",
          "ticks": 19104,
          "time": 31.09375,
          "velocity": 0.7874015748031497
        },
        {
          "duration": 0.15625,
          "durationTicks": 96,
          "midi": 53,
          "name": "F3",
          "ticks": 19116,
          "time": 31.11328125,
          "velocity": 0.5905511811023622
        },
        {
          "duration": 0.46875,
          "durationTicks": 288,
          "midi": 55,
          "name": "G3",
          "ticks": 19200,
          "time": 31.25,
          "velocity": 0.7874015748031497
        },
        {
          "duration": 0.3125,
          "durationTicks": 192,
          "midi": 60,
          "name": "C4",
          "ticks": 19200,
          "time": 31.25,
          "velocity": 0.7874015748031497
        },
        {
          "duration": 0.3125,
          "durationTicks": 192,
          "midi": 65,
          "name": "F4",
          "ticks": 19296,
          "time": 31.40625,
          "velocity": 0.7874015748031497
        },
        {
          "duration": 0.3125,
          "durationTicks": 192,
          "midi": 67,
          "name": "G4",
          "ticks": 19392,
          "time": 31.5625,
          "velocity": 0.7874015748031497
        },
        {
          "duration": 0.3125,
          "durationTicks": 192,
          "midi": 60,
          "name": "C4",
          "ticks": 19488,
          "time": 31.71875,
          "velocity": 0.7874015748031497
        },
        {
          "duration": 0.46875,
          "durationTicks": 288,
          "midi": 55,
          "name": "G3",
          "ticks": 19488,
          "time": 31.71875,
          "velocity": 0.7874015748031497
        },
        {
          "duration": 0.3125,
          "durationTicks": 192,
          "midi": 65,
          "name": "F4",
          "ticks": 19584,
          "time": 31.875,
          "velocity": 0.7874015748031497
        },
        {
          "duration": 0.3125,
          "durationTicks": 192,
          "midi": 67,
          "name": "G4",
          "ticks": 19680,
          "time": 32.03125,
          "velocity": 0.7874015748031497
        },
        {
          "duration": 0.15625,
          "durationTicks": 96,
          "midi": 53,
          "name": "F3",
          "ticks": 19776,
          "time": 32.1875,
          "velocity": 0.7874015748031497
        },
        {
          "duration": 0.3125,
          "durationTicks": 192,
          "midi": 60,
          "name": "C4",
          "ticks": 19776,
          "time": 32.1875,
          "velocity": 0.7874015748031497
        },
        {
          "duration": 0.3125,
          "durationTicks": 192,
          "midi": 65,
          "name": "F4",
          "ticks": 19872,
          "time": 32.34375,
          "velocity": 0.7874015748031497
        },
        {
          "duration": 0.15625,
          "durationTicks": 96,
          "midi": 53,
          "name": "F3",
          "ticks": 19884,
          "time": 32.36328125,
          "velocity": 0.5905511811023622
        },
        {
          "duration": 2.1875,
          "durationTicks": 1344,
          "midi": 25,
          "name": "C#1",
          "ticks": 19968,
          "time": 32.5,
          "velocity": 0.7874015748031497
        },
        {
          "duration": 0.3125,
          "durationTicks": 192,
          "midi": 60,
          "name": "C4",
          "ticks": 19968,
          "time": 32.5,
          "velocity": 0.7874015748031497
        },
        {
          "duration": 0.46875,
          "durationTicks": 288,
          "midi": 56,
          "name": "G#3",
          "ticks": 19968,
          "time": 32.5,
          "velocity": 0.7874015748031497
        },
        {
          "duration": 0.3125,
          "durationTicks": 192,
          "midi": 65,
          "name": "F4",
          "ticks": 20064,
          "time": 32.65625,
          "velocity": 0.7874015748031497
        },
        {
          "duration": 0.3125,
          "durationTicks": 192,
          "midi": 68,
          "name": "G#4",
          "ticks": 20160,
          "time": 32.8125,
          "velocity": 0.7874015748031497
        },
        {
          "duration": 0.3125,
          "durationTicks": 192,
          "midi": 60,
          "name": "C4",
          "ticks": 20256,
          "time": 32.96875,
          "velocity": 0.7874015748031497
        },
        {
          "duration": 0.46875,
          "durationTicks": 288,
          "midi": 56,
          "name": "G#3",
          "ticks": 20256,
          "time": 32.96875,
          "velocity": 0.7874015748031497
        },
        {
          "duration": 0.3125,
          "durationTicks": 192,
          "midi": 65,
          "name": "F4",
          "ticks": 20352,
          "time": 33.125,
          "velocity": 0.7874015748031497
        },
        {
          "duration": 0.3125,
          "durationTicks": 192,
          "midi": 68,
          "name": "G#4",
          "ticks": 20448,
          "time": 33.28125,
          "velocity": 0.7874015748031497
        },
        {
          "duration": 0.15625,
          "durationTicks": 96,
          "midi": 53,
          "name": "F3",
          "ticks": 20544,
          "time": 33.4375,
          "velocity": 0.7874015748031497
        },
        {
          "duration": 0.3125,
          "durationTicks": 192,
          "midi": 60,
          "name": "C4",
          "ticks": 20544,
          "time": 33.4375,
          "velocity": 0.7874015748031497
        },
        {
          "duration": 0.3125,
          "durationTicks": 192,
          "midi": 65,
          "name": "F4",
          "ticks": 20640,
          "time": 33.59375,
          "velocity": 0.7874015748031497
        },
        {
          "duration": 0.15625,
          "durationTicks": 96,
          "midi": 53,
          "name": "F3",
          "ticks": 20652,
          "time": 33.61328125,
          "velocity": 0.5905511811023622
        },
        {
          "duration": 0.3125,
          "durationTicks": 192,
          "midi": 60,
          "name": "C4",
          "ticks": 20736,
          "time": 33.75,
          "velocity": 0.7874015748031497
        },
        {
          "duration": 0.46875,
          "durationTicks": 288,
          "midi": 56,
          "name": "G#3",
          "ticks": 20736,
          "time": 33.75,
          "velocity": 0.7874015748031497
        },
        {
          "duration": 0.3125,
          "durationTicks": 192,
          "midi": 65,
          "name": "F4",
          "ticks": 20832,
          "time": 33.90625,
          "velocity": 0.7874015748031497
        },
        {
          "duration": 0.3125,
          "durationTicks": 192,
          "midi": 68,
          "name": "G#4",
          "ticks": 20928,
          "time": 34.0625,
          "velocity": 0.7874015748031497
        },
        {
          "duration": 0.3125,
          "durationTicks": 192,
          "midi": 60,
          "name": "C4",
          "ticks": 21024,
          "time": 34.21875,
          "velocity": 0.7874015748031497
        },
        {
          "duration": 0.46875,
          "durationTicks": 288,
          "midi": 56,
          "name": "G#3",
          "ticks": 21024,
          "time": 34.21875,
          "velocity": 0.7874015748031497
        },
        {
          "duration": 0.3125,
          "durationTicks": 192,
          "midi": 65,
          "name": "F4",
          "ticks": 21120,
          "time": 34.375,
          "velocity": 0.7874015748031497
        },
        {
          "duration": 0.3125,
          "durationTicks": 192,
          "midi": 68,
          "name": "G#4",
          "ticks": 21216,
          "time": 34.53125,
          "velocity": 0.7874015748031497
        },
        {
          "duration": 0.15625,
          "durationTicks": 96,
          "midi": 53,
          "name": "F3",
          "ticks": 21312,
          "time": 34.6875,
          "velocity": 0.7874015748031497
        },
        {
          "duration": 0.3125,
          "durationTicks": 192,
          "midi": 60,
          "name": "C4",
          "ticks": 21312,
          "time": 34.6875,
          "velocity": 0.7874015748031497
        },
        {
          "duration": 0.3125,
          "durationTicks": 192,
          "midi": 65,
          "name": "F4",
          "ticks": 21408,
          "time": 34.84375,
          "velocity": 0.7874015748031497
        },
        {
          "duration": 0.15625,
          "durationTicks": 96,
          "midi": 53,
          "name": "F3",
          "ticks": 21420,
          "time": 34.86328125,
          "velocity": 0.5905511811023622
        },
        {
          "duration": 0.3125,
          "durationTicks": 192,
          "midi": 60,
          "name": "C4",
          "ticks": 21504,
          "time": 35,
          "velocity": 0.7874015748031497
        },
        {
          "duration": 2.5,
          "durationTicks": 1536,
          "midi": 27,
          "name": "D#1",
          "ticks": 21504,
          "time": 35,
          "velocity": 0.7874015748031497
        },
        {
          "duration": 0.46875,
          "durationTicks": 288,
          "midi": 55,
          "name": "G3",
          "ticks": 21504,
          "time": 35,
          "velocity": 0.7874015748031497
        },
        {
          "duration": 0.3125,
          "durationTicks": 192,
          "midi": 65,
          "name": "F4",
          "ticks": 21600,
          "time": 35.15625,
          "velocity": 0.7874015748031497
        },
        {
          "duration": 0.3125,
          "durationTicks": 192,
          "midi": 67,
          "name": "G4",
          "ticks": 21696,
          "time": 35.3125,
          "velocity": 0.7874015748031497
        },
        {
          "duration": 0.3125,
          "durationTicks": 192,
          "midi": 60,
          "name": "C4",
          "ticks": 21792,
          "time": 35.46875,
          "velocity": 0.7874015748031497
        },
        {
          "duration": 0.46875,
          "durationTicks": 288,
          "midi": 55,
          "name": "G3",
          "ticks": 21792,
          "time": 35.46875,
          "velocity": 0.7874015748031497
        },
        {
          "duration": 0.3125,
          "durationTicks": 192,
          "midi": 65,
          "name": "F4",
          "ticks": 21888,
          "time": 35.625,
          "velocity": 0.7874015748031497
        },
        {
          "duration": 0.3125,
          "durationTicks": 192,
          "midi": 67,
          "name": "G4",
          "ticks": 21984,
          "time": 35.78125,
          "velocity": 0.7874015748031497
        },
        {
          "duration": 0.15625,
          "durationTicks": 96,
          "midi": 53,
          "name": "F3",
          "ticks": 22080,
          "time": 35.9375,
          "velocity": 0.7874015748031497
        },
        {
          "duration": 0.3125,
          "durationTicks": 192,
          "midi": 60,
          "name": "C4",
          "ticks": 22080,
          "time": 35.9375,
          "velocity": 0.7874015748031497
        },
        {
          "duration": 0.3125,
          "durationTicks": 192,
          "midi": 65,
          "name": "F4",
          "ticks": 22176,
          "time": 36.09375,
          "velocity": 0.7874015748031497
        },
        {
          "duration": 0.15625,
          "durationTicks": 96,
          "midi": 53,
          "name": "F3",
          "ticks": 22188,
          "time": 36.11328125,
          "velocity": 0.5905511811023622
        },
        {
          "duration": 0.46875,
          "durationTicks": 288,
          "midi": 55,
          "name": "G3",
          "ticks": 22272,
          "time": 36.25,
          "velocity": 0.7874015748031497
        },
        {
          "duration": 0.3125,
          "durationTicks": 192,
          "midi": 60,
          "name": "C4",
          "ticks": 22272,
          "time": 36.25,
          "velocity": 0.7874015748031497
        },
        {
          "duration": 0.3125,
          "durationTicks": 192,
          "midi": 65,
          "name": "F4",
          "ticks": 22368,
          "time": 36.40625,
          "velocity": 0.7874015748031497
        },
        {
          "duration": 0.3125,
          "durationTicks": 192,
          "midi": 67,
          "name": "G4",
          "ticks": 22464,
          "time": 36.5625,
          "velocity": 0.7874015748031497
        },
        {
          "duration": 0.46875,
          "durationTicks": 288,
          "midi": 55,
          "name": "G3",
          "ticks": 22560,
          "time": 36.71875,
          "velocity": 0.7874015748031497
        },
        {
          "duration": 0.3125,
          "durationTicks": 192,
          "midi": 60,
          "name": "C4",
          "ticks": 22560,
          "time": 36.71875,
          "velocity": 0.7874015748031497
        },
        {
          "duration": 0.3125,
          "durationTicks": 192,
          "midi": 65,
          "name": "F4",
          "ticks": 22656,
          "time": 36.875,
          "velocity": 0.7874015748031497
        },
        {
          "duration": 0.3125,
          "durationTicks": 192,
          "midi": 67,
          "name": "G4",
          "ticks": 22752,
          "time": 37.03125,
          "velocity": 0.7874015748031497
        },
        {
          "duration": 0.3125,
          "durationTicks": 192,
          "midi": 60,
          "name": "C4",
          "ticks": 22848,
          "time": 37.1875,
          "velocity": 0.7874015748031497
        },
        {
          "duration": 0.15625,
          "durationTicks": 96,
          "midi": 53,
          "name": "F3",
          "ticks": 22848,
          "time": 37.1875,
          "velocity": 0.7874015748031497
        },
        {
          "duration": 0.3125,
          "durationTicks": 192,
          "midi": 65,
          "name": "F4",
          "ticks": 22944,
          "time": 37.34375,
          "velocity": 0.7874015748031497
        },
        {
          "duration": 0.15625,
          "durationTicks": 96,
          "midi": 53,
          "name": "F3",
          "ticks": 22956,
          "time": 37.36328125,
          "velocity": 0.5905511811023622
        },
        {
          "duration": 0.3125,
          "durationTicks": 192,
          "midi": 60,
          "name": "C4",
          "ticks": 23040,
          "time": 37.5,
          "velocity": 0.7874015748031497
        },
        {
          "duration": 0.46875,
          "durationTicks": 288,
          "midi": 29,
          "name": "F1",
          "ticks": 23040,
          "time": 37.5,
          "velocity": 0.7874015748031497
        },
        {
          "duration": 0.46875,
          "durationTicks": 288,
          "midi": 58,
          "name": "A#3",
          "ticks": 23040,
          "time": 37.5,
          "velocity": 0.7874015748031497
        },
        {
          "duration": 0.3125,
          "durationTicks": 192,
          "midi": 65,
          "name": "F4",
          "ticks": 23136,
          "time": 37.65625,
          "velocity": 0.7874015748031497
        },
        {
          "duration": 0.3125,
          "durationTicks": 192,
          "midi": 70,
          "name": "A#4",
          "ticks": 23232,
          "time": 37.8125,
          "velocity": 0.7874015748031497
        },
        {
          "duration": 0.3125,
          "durationTicks": 192,
          "midi": 60,
          "name": "C4",
          "ticks": 23328,
          "time": 37.96875,
          "velocity": 0.7874015748031497
        },
        {
          "duration": 0.46875,
          "durationTicks": 288,
          "midi": 29,
          "name": "F1",
          "ticks": 23328,
          "time": 37.96875,
          "velocity": 0.7874015748031497
        },
        {
          "duration": 0.46875,
          "durationTicks": 288,
          "midi": 58,
          "name": "A#3",
          "ticks": 23328,
          "time": 37.96875,
          "velocity": 0.7874015748031497
        },
        {
          "duration": 0.3125,
          "durationTicks": 192,
          "midi": 65,
          "name": "F4",
          "ticks": 23424,
          "time": 38.125,
          "velocity": 0.7874015748031497
        },
        {
          "duration": 0.3125,
          "durationTicks": 192,
          "midi": 70,
          "name": "A#4",
          "ticks": 23520,
          "time": 38.28125,
          "velocity": 0.7874015748031497
        },
        {
          "duration": 0.15625,
          "durationTicks": 96,
          "midi": 53,
          "name": "F3",
          "ticks": 23616,
          "time": 38.4375,
          "velocity": 0.7874015748031497
        },
        {
          "duration": 0.3125,
          "durationTicks": 192,
          "midi": 29,
          "name": "F1",
          "ticks": 23616,
          "time": 38.4375,
          "velocity": 0.7874015748031497
        },
        {
          "duration": 0.3125,
          "durationTicks": 192,
          "midi": 60,
          "name": "C4",
          "ticks": 23616,
          "time": 38.4375,
          "velocity": 0.7874015748031497
        },
        {
          "duration": 0.3125,
          "durationTicks": 192,
          "midi": 65,
          "name": "F4",
          "ticks": 23712,
          "time": 38.59375,
          "velocity": 0.7874015748031497
        },
        {
          "duration": 0.15625,
          "durationTicks": 96,
          "midi": 53,
          "name": "F3",
          "ticks": 23724,
          "time": 38.61328125,
          "velocity": 0.5905511811023622
        },
        {
          "duration": 0.3125,
          "durationTicks": 192,
          "midi": 60,
          "name": "C4",
          "ticks": 23808,
          "time": 38.75,
          "velocity": 0.7874015748031497
        },
        {
          "duration": 0.46875,
          "durationTicks": 288,
          "midi": 29,
          "name": "F1",
          "ticks": 23808,
          "time": 38.75,
          "velocity": 0.7874015748031497
        },
        {
          "duration": 0.46875,
          "durationTicks": 288,
          "midi": 58,
          "name": "A#3",
          "ticks": 23808,
          "time": 38.75,
          "velocity": 0.7874015748031497
        },
        {
          "duration": 0.3125,
          "durationTicks": 192,
          "midi": 65,
          "name": "F4",
          "ticks": 23904,
          "time": 38.90625,
          "velocity": 0.7874015748031497
        },
        {
          "duration": 0.3125,
          "durationTicks": 192,
          "midi": 70,
          "name": "A#4",
          "ticks": 24000,
          "time": 39.0625,
          "velocity": 0.7874015748031497
        },
        {
          "duration": 0.3125,
          "durationTicks": 192,
          "midi": 60,
          "name": "C4",
          "ticks": 24096,
          "time": 39.21875,
          "velocity": 0.7874015748031497
        },
        {
          "duration": 0.46875,
          "durationTicks": 288,
          "midi": 29,
          "name": "F1",
          "ticks": 24096,
          "time": 39.21875,
          "velocity": 0.7874015748031497
        },
        {
          "duration": 0.46875,
          "durationTicks": 288,
          "midi": 58,
          "name": "A#3",
          "ticks": 24096,
          "time": 39.21875,
          "velocity": 0.7874015748031497
        },
        {
          "duration": 0.3125,
          "durationTicks": 192,
          "midi": 65,
          "name": "F4",
          "ticks": 24192,
          "time": 39.375,
          "velocity": 0.7874015748031497
        },
        {
          "duration": 0.3125,
          "durationTicks": 192,
          "midi": 68,
          "name": "G#4",
          "ticks": 24288,
          "time": 39.53125,
          "velocity": 0.7874015748031497
        },
        {
          "duration": 0.3125,
          "durationTicks": 192,
          "midi": 29,
          "name": "F1",
          "ticks": 24384,
          "time": 39.6875,
          "velocity": 0.7874015748031497
        },
        {
          "duration": 0.3125,
          "durationTicks": 192,
          "midi": 60,
          "name": "C4",
          "ticks": 24384,
          "time": 39.6875,
          "velocity": 0.7874015748031497
        },
        {
          "duration": 0.15625,
          "durationTicks": 96,
          "midi": 56,
          "name": "G#3",
          "ticks": 24384,
          "time": 39.6875,
          "velocity": 0.7874015748031497
        },
        {
          "duration": 0.3125,
          "durationTicks": 192,
          "midi": 67,
          "name": "G4",
          "ticks": 24480,
          "time": 39.84375,
          "velocity": 0.7874015748031497
        },
        {
          "duration": 0.15625,
          "durationTicks": 96,
          "midi": 55,
          "name": "G3",
          "ticks": 24516,
          "time": 39.90234375,
          "velocity": 0.7874015748031497
        },
        {
          "duration": 2.1875,
          "durationTicks": 1344,
          "midi": 24,
          "name": "C1",
          "ticks": 24576,
          "time": 40,
          "velocity": 0.7874015748031497
        },
        {
          "duration": 0.3125,
          "durationTicks": 192,
          "midi": 60,
          "name": "C4",
          "ticks": 24576,
          "time": 40,
          "velocity": 0.7874015748031497
        },
        {
          "duration": 0.46875,
          "durationTicks": 288,
          "midi": 55,
          "name": "G3",
          "ticks": 24576,
          "time": 40,
          "velocity": 0.7874015748031497
        },
        {
          "duration": 0.3125,
          "durationTicks": 192,
          "midi": 65,
          "name": "F4",
          "ticks": 24672,
          "time": 40.15625,
          "velocity": 0.7874015748031497
        },
        {
          "duration": 0.3125,
          "durationTicks": 192,
          "midi": 67,
          "name": "G4",
          "ticks": 24768,
          "time": 40.3125,
          "velocity": 0.7874015748031497
        },
        {
          "duration": 0.3125,
          "durationTicks": 192,
          "midi": 60,
          "name": "C4",
          "ticks": 24864,
          "time": 40.46875,
          "velocity": 0.7874015748031497
        },
        {
          "duration": 0.46875,
          "durationTicks": 288,
          "midi": 55,
          "name": "G3",
          "ticks": 24864,
          "time": 40.46875,
          "velocity": 0.7874015748031497
        },
        {
          "duration": 0.3125,
          "durationTicks": 192,
          "midi": 65,
          "name": "F4",
          "ticks": 24960,
          "time": 40.625,
          "velocity": 0.7874015748031497
        },
        {
          "duration": 0.3125,
          "durationTicks": 192,
          "midi": 67,
          "name": "G4",
          "ticks": 25056,
          "time": 40.78125,
          "velocity": 0.7874015748031497
        },
        {
          "duration": 0.3125,
          "durationTicks": 192,
          "midi": 60,
          "name": "C4",
          "ticks": 25152,
          "time": 40.9375,
          "velocity": 0.7874015748031497
        },
        {
          "duration": 0.15625,
          "durationTicks": 96,
          "midi": 53,
          "name": "F3",
          "ticks": 25152,
          "time": 40.9375,
          "velocity": 0.7874015748031497
        },
        {
          "duration": 0.3125,
          "durationTicks": 192,
          "midi": 65,
          "name": "F4",
          "ticks": 25248,
          "time": 41.09375,
          "velocity": 0.7874015748031497
        },
        {
          "duration": 0.15625,
          "durationTicks": 96,
          "midi": 53,
          "name": "F3",
          "ticks": 25260,
          "time": 41.11328125,
          "velocity": 0.5905511811023622
        },
        {
          "duration": 0.3125,
          "durationTicks": 192,
          "midi": 60,
          "name": "C4",
          "ticks": 25344,
          "time": 41.25,
          "velocity": 0.7874015748031497
        },
        {
          "duration": 0.46875,
          "durationTicks": 288,
          "midi": 55,
          "name": "G3",
          "ticks": 25344,
          "time": 41.25,
          "velocity": 0.7874015748031497
        },
        {
          "duration": 0.3125,
          "durationTicks": 192,
          "midi": 65,
          "name": "F4",
          "ticks": 25440,
          "time": 41.40625,
          "velocity": 0.7874015748031497
        },
        {
          "duration": 0.3125,
          "durationTicks": 192,
          "midi": 67,
          "name": "G4",
          "ticks": 25536,
          "time": 41.5625,
          "velocity": 0.7874015748031497
        },
        {
          "duration": 0.46875,
          "durationTicks": 288,
          "midi": 55,
          "name": "G3",
          "ticks": 25632,
          "time": 41.71875,
          "velocity": 0.7874015748031497
        },
        {
          "duration": 0.3125,
          "durationTicks": 192,
          "midi": 60,
          "name": "C4",
          "ticks": 25632,
          "time": 41.71875,
          "velocity": 0.7874015748031497
        },
        {
          "duration": 0.3125,
          "durationTicks": 192,
          "midi": 65,
          "name": "F4",
          "ticks": 25728,
          "time": 41.875,
          "velocity": 0.7874015748031497
        },
        {
          "duration": 0.3125,
          "durationTicks": 192,
          "midi": 67,
          "name": "G4",
          "ticks": 25824,
          "time": 42.03125,
          "velocity": 0.7874015748031497
        },
        {
          "duration": 0.15625,
          "durationTicks": 96,
          "midi": 53,
          "name": "F3",
          "ticks": 25920,
          "time": 42.1875,
          "velocity": 0.7874015748031497
        },
        {
          "duration": 0.3125,
          "durationTicks": 192,
          "midi": 60,
          "name": "C4",
          "ticks": 25920,
          "time": 42.1875,
          "velocity": 0.7874015748031497
        },
        {
          "duration": 0.3125,
          "durationTicks": 192,
          "midi": 65,
          "name": "F4",
          "ticks": 26016,
          "time": 42.34375,
          "velocity": 0.7874015748031497
        },
        {
          "duration": 0.15625,
          "durationTicks": 96,
          "midi": 53,
          "name": "F3",
          "ticks": 26028,
          "time": 42.36328125,
          "velocity": 0.5905511811023622
        },
        {
          "duration": 0.46875,
          "durationTicks": 288,
          "midi": 56,
          "name": "G#3",
          "ticks": 26112,
          "time": 42.5,
          "velocity": 0.7874015748031497
        },
        {
          "duration": 0.3125,
          "durationTicks": 192,
          "midi": 60,
          "name": "C4",
          "ticks": 26112,
          "time": 42.5,
          "velocity": 0.7874015748031497
        },
        {
          "duration": 2.1875,
          "durationTicks": 1344,
          "midi": 25,
          "name": "C#1",
          "ticks": 26112,
          "time": 42.5,
          "velocity": 0.7874015748031497
        },
        {
          "duration": 0.3125,
          "durationTicks": 192,
          "midi": 65,
          "name": "F4",
          "ticks": 26208,
          "time": 42.65625,
          "velocity": 0.7874015748031497
        },
        {
          "duration": 0.3125,
          "durationTicks": 192,
          "midi": 68,
          "name": "G#4",
          "ticks": 26304,
          "time": 42.8125,
          "velocity": 0.7874015748031497
        },
        {
          "duration": 0.3125,
          "durationTicks": 192,
          "midi": 60,
          "name": "C4",
          "ticks": 26400,
          "time": 42.96875,
          "velocity": 0.7874015748031497
        },
        {
          "duration": 0.46875,
          "durationTicks": 288,
          "midi": 56,
          "name": "G#3",
          "ticks": 26400,
          "time": 42.96875,
          "velocity": 0.7874015748031497
        },
        {
          "duration": 0.3125,
          "durationTicks": 192,
          "midi": 65,
          "name": "F4",
          "ticks": 26496,
          "time": 43.125,
          "velocity": 0.7874015748031497
        },
        {
          "duration": 0.3125,
          "durationTicks": 192,
          "midi": 68,
          "name": "G#4",
          "ticks": 26592,
          "time": 43.28125,
          "velocity": 0.7874015748031497
        },
        {
          "duration": 0.15625,
          "durationTicks": 96,
          "midi": 53,
          "name": "F3",
          "ticks": 26688,
          "time": 43.4375,
          "velocity": 0.7874015748031497
        },
        {
          "duration": 0.3125,
          "durationTicks": 192,
          "midi": 60,
          "name": "C4",
          "ticks": 26688,
          "time": 43.4375,
          "velocity": 0.7874015748031497
        },
        {
          "duration": 0.3125,
          "durationTicks": 192,
          "midi": 65,
          "name": "F4",
          "ticks": 26784,
          "time": 43.59375,
          "velocity": 0.7874015748031497
        },
        {
          "duration": 0.15625,
          "durationTicks": 96,
          "midi": 53,
          "name": "F3",
          "ticks": 26796,
          "time": 43.61328125,
          "velocity": 0.5905511811023622
        },
        {
          "duration": 0.3125,
          "durationTicks": 192,
          "midi": 60,
          "name": "C4",
          "ticks": 26880,
          "time": 43.75,
          "velocity": 0.7874015748031497
        },
        {
          "duration": 0.46875,
          "durationTicks": 288,
          "midi": 56,
          "name": "G#3",
          "ticks": 26880,
          "time": 43.75,
          "velocity": 0.7874015748031497
        },
        {
          "duration": 0.3125,
          "durationTicks": 192,
          "midi": 65,
          "name": "F4",
          "ticks": 26976,
          "time": 43.90625,
          "velocity": 0.7874015748031497
        },
        {
          "duration": 0.3125,
          "durationTicks": 192,
          "midi": 68,
          "name": "G#4",
          "ticks": 27072,
          "time": 44.0625,
          "velocity": 0.7874015748031497
        },
        {
          "duration": 0.3125,
          "durationTicks": 192,
          "midi": 60,
          "name": "C4",
          "ticks": 27168,
          "time": 44.21875,
          "velocity": 0.7874015748031497
        },
        {
          "duration": 0.46875,
          "durationTicks": 288,
          "midi": 56,
          "name": "G#3",
          "ticks": 27168,
          "time": 44.21875,
          "velocity": 0.7874015748031497
        },
        {
          "duration": 0.3125,
          "durationTicks": 192,
          "midi": 65,
          "name": "F4",
          "ticks": 27264,
          "time": 44.375,
          "velocity": 0.7874015748031497
        },
        {
          "duration": 0.3125,
          "durationTicks": 192,
          "midi": 68,
          "name": "G#4",
          "ticks": 27360,
          "time": 44.53125,
          "velocity": 0.7874015748031497
        },
        {
          "duration": 0.3125,
          "durationTicks": 192,
          "midi": 60,
          "name": "C4",
          "ticks": 27456,
          "time": 44.6875,
          "velocity": 0.7874015748031497
        },
        {
          "duration": 0.15625,
          "durationTicks": 96,
          "midi": 53,
          "name": "F3",
          "ticks": 27456,
          "time": 44.6875,
          "velocity": 0.7874015748031497
        },
        {
          "duration": 0.3125,
          "durationTicks": 192,
          "midi": 65,
          "name": "F4",
          "ticks": 27552,
          "time": 44.84375,
          "velocity": 0.7874015748031497
        },
        {
          "duration": 0.15625,
          "durationTicks": 96,
          "midi": 53,
          "name": "F3",
          "ticks": 27564,
          "time": 44.86328125,
          "velocity": 0.5905511811023622
        },
        {
          "duration": 0.46875,
          "durationTicks": 288,
          "midi": 55,
          "name": "G3",
          "ticks": 27648,
          "time": 45,
          "velocity": 0.7874015748031497
        },
        {
          "duration": 0.3125,
          "durationTicks": 192,
          "midi": 60,
          "name": "C4",
          "ticks": 27648,
          "time": 45,
          "velocity": 0.7874015748031497
        },
        {
          "duration": 2.5,
          "durationTicks": 1536,
          "midi": 27,
          "name": "D#1",
          "ticks": 27648,
          "time": 45,
          "velocity": 0.7874015748031497
        },
        {
          "duration": 0.3125,
          "durationTicks": 192,
          "midi": 65,
          "name": "F4",
          "ticks": 27744,
          "time": 45.15625,
          "velocity": 0.7874015748031497
        },
        {
          "duration": 0.3125,
          "durationTicks": 192,
          "midi": 67,
          "name": "G4",
          "ticks": 27840,
          "time": 45.3125,
          "velocity": 0.7874015748031497
        },
        {
          "duration": 0.3125,
          "durationTicks": 192,
          "midi": 60,
          "name": "C4",
          "ticks": 27936,
          "time": 45.46875,
          "velocity": 0.7874015748031497
        },
        {
          "duration": 0.46875,
          "durationTicks": 288,
          "midi": 55,
          "name": "G3",
          "ticks": 27936,
          "time": 45.46875,
          "velocity": 0.7874015748031497
        },
        {
          "duration": 0.3125,
          "durationTicks": 192,
          "midi": 65,
          "name": "F4",
          "ticks": 28032,
          "time": 45.625,
          "velocity": 0.7874015748031497
        },
        {
          "duration": 0.3125,
          "durationTicks": 192,
          "midi": 67,
          "name": "G4",
          "ticks": 28128,
          "time": 45.78125,
          "velocity": 0.7874015748031497
        },
        {
          "duration": 0.3125,
          "durationTicks": 192,
          "midi": 60,
          "name": "C4",
          "ticks": 28224,
          "time": 45.9375,
          "velocity": 0.7874015748031497
        },
        {
          "duration": 0.15625,
          "durationTicks": 96,
          "midi": 53,
          "name": "F3",
          "ticks": 28224,
          "time": 45.9375,
          "velocity": 0.7874015748031497
        },
        {
          "duration": 0.3125,
          "durationTicks": 192,
          "midi": 65,
          "name": "F4",
          "ticks": 28320,
          "time": 46.09375,
          "velocity": 0.7874015748031497
        },
        {
          "duration": 0.15625,
          "durationTicks": 96,
          "midi": 53,
          "name": "F3",
          "ticks": 28332,
          "time": 46.11328125,
          "velocity": 0.5905511811023622
        },
        {
          "duration": 0.3125,
          "durationTicks": 192,
          "midi": 60,
          "name": "C4",
          "ticks": 28416,
          "time": 46.25,
          "velocity": 0.7874015748031497
        },
        {
          "duration": 0.46875,
          "durationTicks": 288,
          "midi": 55,
          "name": "G3",
          "ticks": 28416,
          "time": 46.25,
          "velocity": 0.7874015748031497
        },
        {
          "duration": 0.3125,
          "durationTicks": 192,
          "midi": 65,
          "name": "F4",
          "ticks": 28512,
          "time": 46.40625,
          "velocity": 0.7874015748031497
        },
        {
          "duration": 0.3125,
          "durationTicks": 192,
          "midi": 67,
          "name": "G4",
          "ticks": 28608,
          "time": 46.5625,
          "velocity": 0.7874015748031497
        },
        {
          "duration": 0.46875,
          "durationTicks": 288,
          "midi": 55,
          "name": "G3",
          "ticks": 28704,
          "time": 46.71875,
          "velocity": 0.7874015748031497
        },
        {
          "duration": 0.3125,
          "durationTicks": 192,
          "midi": 60,
          "name": "C4",
          "ticks": 28704,
          "time": 46.71875,
          "velocity": 0.7874015748031497
        },
        {
          "duration": 0.3125,
          "durationTicks": 192,
          "midi": 65,
          "name": "F4",
          "ticks": 28800,
          "time": 46.875,
          "velocity": 0.7874015748031497
        },
        {
          "duration": 0.3125,
          "durationTicks": 192,
          "midi": 67,
          "name": "G4",
          "ticks": 28896,
          "time": 47.03125,
          "velocity": 0.7874015748031497
        },
        {
          "duration": 0.3125,
          "durationTicks": 192,
          "midi": 60,
          "name": "C4",
          "ticks": 28992,
          "time": 47.1875,
          "velocity": 0.7874015748031497
        },
        {
          "duration": 0.15625,
          "durationTicks": 96,
          "midi": 53,
          "name": "F3",
          "ticks": 28992,
          "time": 47.1875,
          "velocity": 0.7874015748031497
        },
        {
          "duration": 0.3125,
          "durationTicks": 192,
          "midi": 65,
          "name": "F4",
          "ticks": 29088,
          "time": 47.34375,
          "velocity": 0.7874015748031497
        },
        {
          "duration": 0.15625,
          "durationTicks": 96,
          "midi": 53,
          "name": "F3",
          "ticks": 29100,
          "time": 47.36328125,
          "velocity": 0.5905511811023622
        },
        {
          "duration": 0.46875,
          "durationTicks": 288,
          "midi": 29,
          "name": "F1",
          "ticks": 29184,
          "time": 47.5,
          "velocity": 0.7874015748031497
        },
        {
          "duration": 0.46875,
          "durationTicks": 288,
          "midi": 58,
          "name": "A#3",
          "ticks": 29184,
          "time": 47.5,
          "velocity": 0.7874015748031497
        },
        {
          "duration": 0.3125,
          "durationTicks": 192,
          "midi": 60,
          "name": "C4",
          "ticks": 29184,
          "time": 47.5,
          "velocity": 0.7874015748031497
        },
        {
          "duration": 0.3125,
          "durationTicks": 192,
          "midi": 65,
          "name": "F4",
          "ticks": 29280,
          "time": 47.65625,
          "velocity": 0.7874015748031497
        },
        {
          "duration": 0.3125,
          "durationTicks": 192,
          "midi": 70,
          "name": "A#4",
          "ticks": 29376,
          "time": 47.8125,
          "velocity": 0.7874015748031497
        },
        {
          "duration": 0.46875,
          "durationTicks": 288,
          "midi": 29,
          "name": "F1",
          "ticks": 29472,
          "time": 47.96875,
          "velocity": 0.7874015748031497
        },
        {
          "duration": 0.46875,
          "durationTicks": 288,
          "midi": 58,
          "name": "A#3",
          "ticks": 29472,
          "time": 47.96875,
          "velocity": 0.7874015748031497
        },
        {
          "duration": 0.3125,
          "durationTicks": 192,
          "midi": 60,
          "name": "C4",
          "ticks": 29472,
          "time": 47.96875,
          "velocity": 0.7874015748031497
        },
        {
          "duration": 0.3125,
          "durationTicks": 192,
          "midi": 65,
          "name": "F4",
          "ticks": 29568,
          "time": 48.125,
          "velocity": 0.7874015748031497
        },
        {
          "duration": 0.3125,
          "durationTicks": 192,
          "midi": 70,
          "name": "A#4",
          "ticks": 29664,
          "time": 48.28125,
          "velocity": 0.7874015748031497
        },
        {
          "duration": 0.3125,
          "durationTicks": 192,
          "midi": 29,
          "name": "F1",
          "ticks": 29760,
          "time": 48.4375,
          "velocity": 0.7874015748031497
        },
        {
          "duration": 0.3125,
          "durationTicks": 192,
          "midi": 60,
          "name": "C4",
          "ticks": 29760,
          "time": 48.4375,
          "velocity": 0.7874015748031497
        },
        {
          "duration": 0.15625,
          "durationTicks": 96,
          "midi": 53,
          "name": "F3",
          "ticks": 29760,
          "time": 48.4375,
          "velocity": 0.7874015748031497
        },
        {
          "duration": 0.3125,
          "durationTicks": 192,
          "midi": 65,
          "name": "F4",
          "ticks": 29856,
          "time": 48.59375,
          "velocity": 0.7874015748031497
        },
        {
          "duration": 0.15625,
          "durationTicks": 96,
          "midi": 53,
          "name": "F3",
          "ticks": 29868,
          "time": 48.61328125,
          "velocity": 0.5905511811023622
        },
        {
          "duration": 0.3125,
          "durationTicks": 192,
          "midi": 60,
          "name": "C4",
          "ticks": 29952,
          "time": 48.75,
          "velocity": 0.7874015748031497
        },
        {
          "duration": 0.46875,
          "durationTicks": 288,
          "midi": 29,
          "name": "F1",
          "ticks": 29952,
          "time": 48.75,
          "velocity": 0.7874015748031497
        },
        {
          "duration": 0.46875,
          "durationTicks": 288,
          "midi": 58,
          "name": "A#3",
          "ticks": 29952,
          "time": 48.75,
          "velocity": 0.7874015748031497
        },
        {
          "duration": 0.3125,
          "durationTicks": 192,
          "midi": 65,
          "name": "F4",
          "ticks": 30048,
          "time": 48.90625,
          "velocity": 0.7874015748031497
        },
        {
          "duration": 0.3125,
          "durationTicks": 192,
          "midi": 70,
          "name": "A#4",
          "ticks": 30144,
          "time": 49.0625,
          "velocity": 0.7874015748031497
        },
        {
          "duration": 0.46875,
          "durationTicks": 288,
          "midi": 58,
          "name": "A#3",
          "ticks": 30240,
          "time": 49.21875,
          "velocity": 0.7874015748031497
        },
        {
          "duration": 0.3125,
          "durationTicks": 192,
          "midi": 60,
          "name": "C4",
          "ticks": 30240,
          "time": 49.21875,
          "velocity": 0.7874015748031497
        },
        {
          "duration": 0.46875,
          "durationTicks": 288,
          "midi": 29,
          "name": "F1",
          "ticks": 30240,
          "time": 49.21875,
          "velocity": 0.7874015748031497
        },
        {
          "duration": 0.3125,
          "durationTicks": 192,
          "midi": 65,
          "name": "F4",
          "ticks": 30336,
          "time": 49.375,
          "velocity": 0.7874015748031497
        },
        {
          "duration": 0.3125,
          "durationTicks": 192,
          "midi": 68,
          "name": "G#4",
          "ticks": 30432,
          "time": 49.53125,
          "velocity": 0.7874015748031497
        },
        {
          "duration": 0.3125,
          "durationTicks": 192,
          "midi": 29,
          "name": "F1",
          "ticks": 30528,
          "time": 49.6875,
          "velocity": 0.7874015748031497
        },
        {
          "duration": 0.3125,
          "durationTicks": 192,
          "midi": 60,
          "name": "C4",
          "ticks": 30528,
          "time": 49.6875,
          "velocity": 0.7874015748031497
        },
        {
          "duration": 0.15625,
          "durationTicks": 96,
          "midi": 56,
          "name": "G#3",
          "ticks": 30528,
          "time": 49.6875,
          "velocity": 0.7874015748031497
        },
        {
          "duration": 0.3125,
          "durationTicks": 192,
          "midi": 67,
          "name": "G4",
          "ticks": 30624,
          "time": 49.84375,
          "velocity": 0.7874015748031497
        },
        {
          "duration": 0.15625,
          "durationTicks": 96,
          "midi": 55,
          "name": "G3",
          "ticks": 30660,
          "time": 49.90234375,
          "velocity": 0.7874015748031497
        },
        {
          "duration": 0.46875,
          "durationTicks": 288,
          "midi": 55,
          "name": "G3",
          "ticks": 30720,
          "time": 50,
          "velocity": 0.7874015748031497
        },
        {
          "duration": 0.3125,
          "durationTicks": 192,
          "midi": 60,
          "name": "C4",
          "ticks": 30720,
          "time": 50,
          "velocity": 0.7874015748031497
        },
        {
          "duration": 0.46875,
          "durationTicks": 288,
          "midi": 24,
          "name": "C1",
          "ticks": 30720,
          "time": 50,
          "velocity": 0.7874015748031497
        },
        {
          "duration": 0.3125,
          "durationTicks": 192,
          "midi": 65,
          "name": "F4",
          "ticks": 30816,
          "time": 50.15625,
          "velocity": 0.7874015748031497
        },
        {
          "duration": 0.3125,
          "durationTicks": 192,
          "midi": 67,
          "name": "G4",
          "ticks": 30912,
          "time": 50.3125,
          "velocity": 0.7874015748031497
        },
        {
          "duration": 0.46875,
          "durationTicks": 288,
          "midi": 24,
          "name": "C1",
          "ticks": 31008,
          "time": 50.46875,
          "velocity": 0.7874015748031497
        },
        {
          "duration": 0.46875,
          "durationTicks": 288,
          "midi": 55,
          "name": "G3",
          "ticks": 31008,
          "time": 50.46875,
          "velocity": 0.7874015748031497
        },
        {
          "duration": 0.3125,
          "durationTicks": 192,
          "midi": 60,
          "name": "C4",
          "ticks": 31008,
          "time": 50.46875,
          "velocity": 0.7874015748031497
        },
        {
          "duration": 0.3125,
          "durationTicks": 192,
          "midi": 65,
          "name": "F4",
          "ticks": 31104,
          "time": 50.625,
          "velocity": 0.7874015748031497
        },
        {
          "duration": 0.3125,
          "durationTicks": 192,
          "midi": 67,
          "name": "G4",
          "ticks": 31200,
          "time": 50.78125,
          "velocity": 0.7874015748031497
        },
        {
          "duration": 0.15625,
          "durationTicks": 96,
          "midi": 24,
          "name": "C1",
          "ticks": 31296,
          "time": 50.9375,
          "velocity": 0.7874015748031497
        },
        {
          "duration": 0.15625,
          "durationTicks": 96,
          "midi": 53,
          "name": "F3",
          "ticks": 31296,
          "time": 50.9375,
          "velocity": 0.7874015748031497
        },
        {
          "duration": 0.3125,
          "durationTicks": 192,
          "midi": 60,
          "name": "C4",
          "ticks": 31296,
          "time": 50.9375,
          "velocity": 0.7874015748031497
        },
        {
          "duration": 0.15625,
          "durationTicks": 96,
          "midi": 24,
          "name": "C1",
          "ticks": 31392,
          "time": 51.09375,
          "velocity": 0.5905511811023622
        },
        {
          "duration": 0.3125,
          "durationTicks": 192,
          "midi": 65,
          "name": "F4",
          "ticks": 31392,
          "time": 51.09375,
          "velocity": 0.7874015748031497
        },
        {
          "duration": 0.15625,
          "durationTicks": 96,
          "midi": 53,
          "name": "F3",
          "ticks": 31404,
          "time": 51.11328125,
          "velocity": 0.5905511811023622
        },
        {
          "duration": 0.46875,
          "durationTicks": 288,
          "midi": 24,
          "name": "C1",
          "ticks": 31488,
          "time": 51.25,
          "velocity": 0.7874015748031497
        },
        {
          "duration": 0.46875,
          "durationTicks": 288,
          "midi": 55,
          "name": "G3",
          "ticks": 31488,
          "time": 51.25,
          "velocity": 0.7874015748031497
        },
        {
          "duration": 0.3125,
          "durationTicks": 192,
          "midi": 60,
          "name": "C4",
          "ticks": 31488,
          "time": 51.25,
          "velocity": 0.7874015748031497
        },
        {
          "duration": 0.3125,
          "durationTicks": 192,
          "midi": 65,
          "name": "F4",
          "ticks": 31584,
          "time": 51.40625,
          "velocity": 0.7874015748031497
        },
        {
          "duration": 0.3125,
          "durationTicks": 192,
          "midi": 67,
          "name": "G4",
          "ticks": 31680,
          "time": 51.5625,
          "velocity": 0.7874015748031497
        },
        {
          "duration": 0.46875,
          "durationTicks": 288,
          "midi": 55,
          "name": "G3",
          "ticks": 31776,
          "time": 51.71875,
          "velocity": 0.7874015748031497
        },
        {
          "duration": 0.15625,
          "durationTicks": 96,
          "midi": 24,
          "name": "C1",
          "ticks": 31776,
          "time": 51.71875,
          "velocity": 0.7874015748031497
        },
        {
          "duration": 0.3125,
          "durationTicks": 192,
          "midi": 60,
          "name": "C4",
          "ticks": 31776,
          "time": 51.71875,
          "velocity": 0.7874015748031497
        },
        {
          "duration": 0.3125,
          "durationTicks": 192,
          "midi": 24,
          "name": "C1",
          "ticks": 31872,
          "time": 51.875,
          "velocity": 0.5905511811023622
        },
        {
          "duration": 0.3125,
          "durationTicks": 192,
          "midi": 65,
          "name": "F4",
          "ticks": 31872,
          "time": 51.875,
          "velocity": 0.7874015748031497
        },
        {
          "duration": 0.3125,
          "durationTicks": 192,
          "midi": 67,
          "name": "G4",
          "ticks": 31968,
          "time": 52.03125,
          "velocity": 0.7874015748031497
        },
        {
          "duration": 0.3125,
          "durationTicks": 192,
          "midi": 60,
          "name": "C4",
          "ticks": 32064,
          "time": 52.1875,
          "velocity": 0.7874015748031497
        },
        {
          "duration": 0.15625,
          "durationTicks": 96,
          "midi": 53,
          "name": "F3",
          "ticks": 32064,
          "time": 52.1875,
          "velocity": 0.7874015748031497
        },
        {
          "duration": 0.3125,
          "durationTicks": 192,
          "midi": 24,
          "name": "C1",
          "ticks": 32064,
          "time": 52.1875,
          "velocity": 0.7874015748031497
        },
        {
          "duration": 0.3125,
          "durationTicks": 192,
          "midi": 65,
          "name": "F4",
          "ticks": 32160,
          "time": 52.34375,
          "velocity": 0.7874015748031497
        },
        {
          "duration": 0.15625,
          "durationTicks": 96,
          "midi": 53,
          "name": "F3",
          "ticks": 32172,
          "time": 52.36328125,
          "velocity": 0.5905511811023622
        },
        {
          "duration": 0.46875,
          "durationTicks": 288,
          "midi": 25,
          "name": "C#1",
          "ticks": 32256,
          "time": 52.5,
          "velocity": 0.7874015748031497
        },
        {
          "duration": 0.3125,
          "durationTicks": 192,
          "midi": 60,
          "name": "C4",
          "ticks": 32256,
          "time": 52.5,
          "velocity": 0.7874015748031497
        },
        {
          "duration": 0.46875,
          "durationTicks": 288,
          "midi": 56,
          "name": "G#3",
          "ticks": 32256,
          "time": 52.5,
          "velocity": 0.7874015748031497
        },
        {
          "duration": 0.3125,
          "durationTicks": 192,
          "midi": 65,
          "name": "F4",
          "ticks": 32352,
          "time": 52.65625,
          "velocity": 0.7874015748031497
        },
        {
          "duration": 0.3125,
          "durationTicks": 192,
          "midi": 68,
          "name": "G#4",
          "ticks": 32448,
          "time": 52.8125,
          "velocity": 0.7874015748031497
        },
        {
          "duration": 0.46875,
          "durationTicks": 288,
          "midi": 56,
          "name": "G#3",
          "ticks": 32544,
          "time": 52.96875,
          "velocity": 0.7874015748031497
        },
        {
          "duration": 0.15625,
          "durationTicks": 96,
          "midi": 25,
          "name": "C#1",
          "ticks": 32544,
          "time": 52.96875,
          "velocity": 0.7874015748031497
        },
        {
          "duration": 0.3125,
          "durationTicks": 192,
          "midi": 60,
          "name": "C4",
          "ticks": 32544,
          "time": 52.96875,
          "velocity": 0.7874015748031497
        },
        {
          "duration": 0.3125,
          "durationTicks": 192,
          "midi": 25,
          "name": "C#1",
          "ticks": 32640,
          "time": 53.125,
          "velocity": 0.5905511811023622
        },
        {
          "duration": 0.3125,
          "durationTicks": 192,
          "midi": 65,
          "name": "F4",
          "ticks": 32640,
          "time": 53.125,
          "velocity": 0.7874015748031497
        },
        {
          "duration": 0.3125,
          "durationTicks": 192,
          "midi": 68,
          "name": "G#4",
          "ticks": 32736,
          "time": 53.28125,
          "velocity": 0.7874015748031497
        },
        {
          "duration": 0.15625,
          "durationTicks": 96,
          "midi": 53,
          "name": "F3",
          "ticks": 32832,
          "time": 53.4375,
          "velocity": 0.7874015748031497
        },
        {
          "duration": 0.3125,
          "durationTicks": 192,
          "midi": 60,
          "name": "C4",
          "ticks": 32832,
          "time": 53.4375,
          "velocity": 0.7874015748031497
        },
        {
          "duration": 0.3125,
          "durationTicks": 192,
          "midi": 25,
          "name": "C#1",
          "ticks": 32832,
          "time": 53.4375,
          "velocity": 0.7874015748031497
        },
        {
          "duration": 0.3125,
          "durationTicks": 192,
          "midi": 65,
          "name": "F4",
          "ticks": 32928,
          "time": 53.59375,
          "velocity": 0.7874015748031497
        },
        {
          "duration": 0.15625,
          "durationTicks": 96,
          "midi": 53,
          "name": "F3",
          "ticks": 32940,
          "time": 53.61328125,
          "velocity": 0.5905511811023622
        },
        {
          "duration": 0.3125,
          "durationTicks": 192,
          "midi": 60,
          "name": "C4",
          "ticks": 33024,
          "time": 53.75,
          "velocity": 0.7874015748031497
        },
        {
          "duration": 0.46875,
          "durationTicks": 288,
          "midi": 25,
          "name": "C#1",
          "ticks": 33024,
          "time": 53.75,
          "velocity": 0.7874015748031497
        },
        {
          "duration": 0.46875,
          "durationTicks": 288,
          "midi": 56,
          "name": "G#3",
          "ticks": 33024,
          "time": 53.75,
          "velocity": 0.7874015748031497
        },
        {
          "duration": 0.3125,
          "durationTicks": 192,
          "midi": 65,
          "name": "F4",
          "ticks": 33120,
          "time": 53.90625,
          "velocity": 0.7874015748031497
        },
        {
          "duration": 0.3125,
          "durationTicks": 192,
          "midi": 68,
          "name": "G#4",
          "ticks": 33216,
          "time": 54.0625,
          "velocity": 0.7874015748031497
        },
        {
          "duration": 0.46875,
          "durationTicks": 288,
          "midi": 56,
          "name": "G#3",
          "ticks": 33312,
          "time": 54.21875,
          "velocity": 0.7874015748031497
        },
        {
          "duration": 0.3125,
          "durationTicks": 192,
          "midi": 60,
          "name": "C4",
          "ticks": 33312,
          "time": 54.21875,
          "velocity": 0.7874015748031497
        },
        {
          "duration": 0.46875,
          "durationTicks": 288,
          "midi": 25,
          "name": "C#1",
          "ticks": 33312,
          "time": 54.21875,
          "velocity": 0.7874015748031497
        },
        {
          "duration": 0.3125,
          "durationTicks": 192,
          "midi": 65,
          "name": "F4",
          "ticks": 33408,
          "time": 54.375,
          "velocity": 0.7874015748031497
        },
        {
          "duration": 0.3125,
          "durationTicks": 192,
          "midi": 68,
          "name": "G#4",
          "ticks": 33504,
          "time": 54.53125,
          "velocity": 0.7874015748031497
        },
        {
          "duration": 0.15625,
          "durationTicks": 96,
          "midi": 25,
          "name": "C#1",
          "ticks": 33600,
          "time": 54.6875,
          "velocity": 0.7874015748031497
        },
        {
          "duration": 0.15625,
          "durationTicks": 96,
          "midi": 53,
          "name": "F3",
          "ticks": 33600,
          "time": 54.6875,
          "velocity": 0.7874015748031497
        },
        {
          "duration": 0.3125,
          "durationTicks": 192,
          "midi": 60,
          "name": "C4",
          "ticks": 33600,
          "time": 54.6875,
          "velocity": 0.7874015748031497
        },
        {
          "duration": 0.15625,
          "durationTicks": 96,
          "midi": 25,
          "name": "C#1",
          "ticks": 33696,
          "time": 54.84375,
          "velocity": 0.5905511811023622
        },
        {
          "duration": 0.3125,
          "durationTicks": 192,
          "midi": 65,
          "name": "F4",
          "ticks": 33696,
          "time": 54.84375,
          "velocity": 0.7874015748031497
        },
        {
          "duration": 0.15625,
          "durationTicks": 96,
          "midi": 53,
          "name": "F3",
          "ticks": 33708,
          "time": 54.86328125,
          "velocity": 0.5905511811023622
        },
        {
          "duration": 0.3125,
          "durationTicks": 192,
          "midi": 60,
          "name": "C4",
          "ticks": 33792,
          "time": 55,
          "velocity": 0.7874015748031497
        },
        {
          "duration": 0.46875,
          "durationTicks": 288,
          "midi": 27,
          "name": "D#1",
          "ticks": 33792,
          "time": 55,
          "velocity": 0.7874015748031497
        },
        {
          "duration": 0.46875,
          "durationTicks": 288,
          "midi": 55,
          "name": "G3",
          "ticks": 33792,
          "time": 55,
          "velocity": 0.7874015748031497
        },
        {
          "duration": 0.3125,
          "durationTicks": 192,
          "midi": 65,
          "name": "F4",
          "ticks": 33888,
          "time": 55.15625,
          "velocity": 0.7874015748031497
        },
        {
          "duration": 0.3125,
          "durationTicks": 192,
          "midi": 67,
          "name": "G4",
          "ticks": 33984,
          "time": 55.3125,
          "velocity": 0.7874015748031497
        },
        {
          "duration": 0.3125,
          "durationTicks": 192,
          "midi": 60,
          "name": "C4",
          "ticks": 34080,
          "time": 55.46875,
          "velocity": 0.7874015748031497
        },
        {
          "duration": 0.46875,
          "durationTicks": 288,
          "midi": 27,
          "name": "D#1",
          "ticks": 34080,
          "time": 55.46875,
          "velocity": 0.7874015748031497
        },
        {
          "duration": 0.46875,
          "durationTicks": 288,
          "midi": 55,
          "name": "G3",
          "ticks": 34080,
          "time": 55.46875,
          "velocity": 0.7874015748031497
        },
        {
          "duration": 0.3125,
          "durationTicks": 192,
          "midi": 65,
          "name": "F4",
          "ticks": 34176,
          "time": 55.625,
          "velocity": 0.7874015748031497
        },
        {
          "duration": 0.3125,
          "durationTicks": 192,
          "midi": 67,
          "name": "G4",
          "ticks": 34272,
          "time": 55.78125,
          "velocity": 0.7874015748031497
        },
        {
          "duration": 0.3125,
          "durationTicks": 192,
          "midi": 60,
          "name": "C4",
          "ticks": 34368,
          "time": 55.9375,
          "velocity": 0.7874015748031497
        },
        {
          "duration": 0.15625,
          "durationTicks": 96,
          "midi": 53,
          "name": "F3",
          "ticks": 34368,
          "time": 55.9375,
          "velocity": 0.7874015748031497
        },
        {
          "duration": 0.3125,
          "durationTicks": 192,
          "midi": 27,
          "name": "D#1",
          "ticks": 34368,
          "time": 55.9375,
          "velocity": 0.7874015748031497
        },
        {
          "duration": 0.3125,
          "durationTicks": 192,
          "midi": 65,
          "name": "F4",
          "ticks": 34464,
          "time": 56.09375,
          "velocity": 0.7874015748031497
        },
        {
          "duration": 0.15625,
          "durationTicks": 96,
          "midi": 53,
          "name": "F3",
          "ticks": 34476,
          "time": 56.11328125,
          "velocity": 0.5905511811023622
        },
        {
          "duration": 0.3125,
          "durationTicks": 192,
          "midi": 60,
          "name": "C4",
          "ticks": 34560,
          "time": 56.25,
          "velocity": 0.7874015748031497
        },
        {
          "duration": 0.46875,
          "durationTicks": 288,
          "midi": 55,
          "name": "G3",
          "ticks": 34560,
          "time": 56.25,
          "velocity": 0.7874015748031497
        },
        {
          "duration": 0.46875,
          "durationTicks": 288,
          "midi": 27,
          "name": "D#1",
          "ticks": 34560,
          "time": 56.25,
          "velocity": 0.7874015748031497
        },
        {
          "duration": 0.3125,
          "durationTicks": 192,
          "midi": 65,
          "name": "F4",
          "ticks": 34656,
          "time": 56.40625,
          "velocity": 0.7874015748031497
        },
        {
          "duration": 0.3125,
          "durationTicks": 192,
          "midi": 67,
          "name": "G4",
          "ticks": 34752,
          "time": 56.5625,
          "velocity": 0.7874015748031497
        },
        {
          "duration": 0.46875,
          "durationTicks": 288,
          "midi": 55,
          "name": "G3",
          "ticks": 34848,
          "time": 56.71875,
          "velocity": 0.7874015748031497
        },
        {
          "duration": 0.3125,
          "durationTicks": 192,
          "midi": 60,
          "name": "C4",
          "ticks": 34848,
          "time": 56.71875,
          "velocity": 0.7874015748031497
        },
        {
          "duration": 0.15625,
          "durationTicks": 96,
          "midi": 27,
          "name": "D#1",
          "ticks": 34848,
          "time": 56.71875,
          "velocity": 0.7874015748031497
        },
        {
          "duration": 0.3125,
          "durationTicks": 192,
          "midi": 27,
          "name": "D#1",
          "ticks": 34944,
          "time": 56.875,
          "velocity": 0.5905511811023622
        },
        {
          "duration": 0.3125,
          "durationTicks": 192,
          "midi": 65,
          "name": "F4",
          "ticks": 34944,
          "time": 56.875,
          "velocity": 0.7874015748031497
        },
        {
          "duration": 0.3125,
          "durationTicks": 192,
          "midi": 67,
          "name": "G4",
          "ticks": 35040,
          "time": 57.03125,
          "velocity": 0.7874015748031497
        },
        {
          "duration": 0.15625,
          "durationTicks": 96,
          "midi": 53,
          "name": "F3",
          "ticks": 35136,
          "time": 57.1875,
          "velocity": 0.7874015748031497
        },
        {
          "duration": 0.3125,
          "durationTicks": 192,
          "midi": 60,
          "name": "C4",
          "ticks": 35136,
          "time": 57.1875,
          "velocity": 0.7874015748031497
        },
        {
          "duration": 0.15625,
          "durationTicks": 96,
          "midi": 27,
          "name": "D#1",
          "ticks": 35136,
          "time": 57.1875,
          "velocity": 0.7874015748031497
        },
        {
          "duration": 0.15625,
          "durationTicks": 96,
          "midi": 27,
          "name": "D#1",
          "ticks": 35232,
          "time": 57.34375,
          "velocity": 0.5905511811023622
        },
        {
          "duration": 0.3125,
          "durationTicks": 192,
          "midi": 65,
          "name": "F4",
          "ticks": 35232,
          "time": 57.34375,
          "velocity": 0.7874015748031497
        },
        {
          "duration": 0.15625,
          "durationTicks": 96,
          "midi": 53,
          "name": "F3",
          "ticks": 35244,
          "time": 57.36328125,
          "velocity": 0.5905511811023622
        },
        {
          "duration": 0.46875,
          "durationTicks": 288,
          "midi": 58,
          "name": "A#3",
          "ticks": 35328,
          "time": 57.5,
          "velocity": 0.7874015748031497
        },
        {
          "duration": 0.3125,
          "durationTicks": 192,
          "midi": 60,
          "name": "C4",
          "ticks": 35328,
          "time": 57.5,
          "velocity": 0.7874015748031497
        },
        {
          "duration": 0.46875,
          "durationTicks": 288,
          "midi": 29,
          "name": "F1",
          "ticks": 35328,
          "time": 57.5,
          "velocity": 0.7874015748031497
        },
        {
          "duration": 0.3125,
          "durationTicks": 192,
          "midi": 65,
          "name": "F4",
          "ticks": 35424,
          "time": 57.65625,
          "velocity": 0.7874015748031497
        },
        {
          "duration": 0.3125,
          "durationTicks": 192,
          "midi": 70,
          "name": "A#4",
          "ticks": 35520,
          "time": 57.8125,
          "velocity": 0.7874015748031497
        },
        {
          "duration": 0.3125,
          "durationTicks": 192,
          "midi": 60,
          "name": "C4",
          "ticks": 35616,
          "time": 57.96875,
          "velocity": 0.7874015748031497
        },
        {
          "duration": 0.46875,
          "durationTicks": 288,
          "midi": 58,
          "name": "A#3",
          "ticks": 35616,
          "time": 57.96875,
          "velocity": 0.7874015748031497
        },
        {
          "duration": 0.46875,
          "durationTicks": 288,
          "midi": 29,
          "name": "F1",
          "ticks": 35616,
          "time": 57.96875,
          "velocity": 0.7874015748031497
        },
        {
          "duration": 0.3125,
          "durationTicks": 192,
          "midi": 65,
          "name": "F4",
          "ticks": 35712,
          "time": 58.125,
          "velocity": 0.7874015748031497
        },
        {
          "duration": 0.3125,
          "durationTicks": 192,
          "midi": 70,
          "name": "A#4",
          "ticks": 35808,
          "time": 58.28125,
          "velocity": 0.7874015748031497
        },
        {
          "duration": 0.15625,
          "durationTicks": 96,
          "midi": 53,
          "name": "F3",
          "ticks": 35904,
          "time": 58.4375,
          "velocity": 0.7874015748031497
        },
        {
          "duration": 0.3125,
          "durationTicks": 192,
          "midi": 60,
          "name": "C4",
          "ticks": 35904,
          "time": 58.4375,
          "velocity": 0.7874015748031497
        },
        {
          "duration": 0.15625,
          "durationTicks": 96,
          "midi": 29,
          "name": "F1",
          "ticks": 35904,
          "time": 58.4375,
          "velocity": 0.7874015748031497
        },
        {
          "duration": 0.3125,
          "durationTicks": 192,
          "midi": 65,
          "name": "F4",
          "ticks": 36000,
          "time": 58.59375,
          "velocity": 0.7874015748031497
        },
        {
          "duration": 0.15625,
          "durationTicks": 96,
          "midi": 29,
          "name": "F1",
          "ticks": 36000,
          "time": 58.59375,
          "velocity": 0.5905511811023622
        },
        {
          "duration": 0.15625,
          "durationTicks": 96,
          "midi": 53,
          "name": "F3",
          "ticks": 36012,
          "time": 58.61328125,
          "velocity": 0.5905511811023622
        },
        {
          "duration": 0.46875,
          "durationTicks": 288,
          "midi": 58,
          "name": "A#3",
          "ticks": 36096,
          "time": 58.75,
          "velocity": 0.7874015748031497
        },
        {
          "duration": 0.3125,
          "durationTicks": 192,
          "midi": 60,
          "name": "C4",
          "ticks": 36096,
          "time": 58.75,
          "velocity": 0.7874015748031497
        },
        {
          "duration": 0.46875,
          "durationTicks": 288,
          "midi": 29,
          "name": "F1",
          "ticks": 36096,
          "time": 58.75,
          "velocity": 0.7874015748031497
        },
        {
          "duration": 0.3125,
          "durationTicks": 192,
          "midi": 65,
          "name": "F4",
          "ticks": 36192,
          "time": 58.90625,
          "velocity": 0.7874015748031497
        },
        {
          "duration": 0.3125,
          "durationTicks": 192,
          "midi": 70,
          "name": "A#4",
          "ticks": 36288,
          "time": 59.0625,
          "velocity": 0.7874015748031497
        },
        {
          "duration": 0.46875,
          "durationTicks": 288,
          "midi": 58,
          "name": "A#3",
          "ticks": 36384,
          "time": 59.21875,
          "velocity": 0.7874015748031497
        },
        {
          "duration": 0.46875,
          "durationTicks": 288,
          "midi": 29,
          "name": "F1",
          "ticks": 36384,
          "time": 59.21875,
          "velocity": 0.7874015748031497
        },
        {
          "duration": 0.3125,
          "durationTicks": 192,
          "midi": 60,
          "name": "C4",
          "ticks": 36384,
          "time": 59.21875,
          "velocity": 0.7874015748031497
        },
        {
          "duration": 0.3125,
          "durationTicks": 192,
          "midi": 65,
          "name": "F4",
          "ticks": 36480,
          "time": 59.375,
          "velocity": 0.7874015748031497
        },
        {
          "duration": 0.3125,
          "durationTicks": 192,
          "midi": 68,
          "name": "G#4",
          "ticks": 36576,
          "time": 59.53125,
          "velocity": 0.7874015748031497
        },
        {
          "duration": 0.15625,
          "durationTicks": 96,
          "midi": 56,
          "name": "G#3",
          "ticks": 36672,
          "time": 59.6875,
          "velocity": 0.7874015748031497
        },
        {
          "duration": 0.3125,
          "durationTicks": 192,
          "midi": 60,
          "name": "C4",
          "ticks": 36672,
          "time": 59.6875,
          "velocity": 0.7874015748031497
        },
        {
          "duration": 0.15625,
          "durationTicks": 96,
          "midi": 29,
          "name": "F1",
          "ticks": 36672,
          "time": 59.6875,
          "velocity": 0.7874015748031497
        },
        {
          "duration": 0.3125,
          "durationTicks": 192,
          "midi": 67,
          "name": "G4",
          "ticks": 36768,
          "time": 59.84375,
          "velocity": 0.7874015748031497
        },
        {
          "duration": 0.15625,
          "durationTicks": 96,
          "midi": 29,
          "name": "F1",
          "ticks": 36768,
          "time": 59.84375,
          "velocity": 0.5905511811023622
        },
        {
          "duration": 0.15625,
          "durationTicks": 96,
          "midi": 55,
          "name": "G3",
          "ticks": 36804,
          "time": 59.90234375,
          "velocity": 0.7874015748031497
        },
        {
          "duration": 0.3125,
          "durationTicks": 192,
          "midi": 60,
          "name": "C4",
          "ticks": 36864,
          "time": 60,
          "velocity": 0.7874015748031497
        },
        {
          "duration": 0.46875,
          "durationTicks": 288,
          "midi": 24,
          "name": "C1",
          "ticks": 36864,
          "time": 60,
          "velocity": 0.7874015748031497
        },
        {
          "duration": 0.46875,
          "durationTicks": 288,
          "midi": 55,
          "name": "G3",
          "ticks": 36864,
          "time": 60,
          "velocity": 0.7874015748031497
        },
        {
          "duration": 0.3125,
          "durationTicks": 192,
          "midi": 65,
          "name": "F4",
          "ticks": 36960,
          "time": 60.15625,
          "velocity": 0.7874015748031497
        },
        {
          "duration": 0.3125,
          "durationTicks": 192,
          "midi": 67,
          "name": "G4",
          "ticks": 37056,
          "time": 60.3125,
          "velocity": 0.7874015748031497
        },
        {
          "duration": 0.3125,
          "durationTicks": 192,
          "midi": 60,
          "name": "C4",
          "ticks": 37152,
          "time": 60.46875,
          "velocity": 0.7874015748031497
        },
        {
          "duration": 0.46875,
          "durationTicks": 288,
          "midi": 24,
          "name": "C1",
          "ticks": 37152,
          "time": 60.46875,
          "velocity": 0.7874015748031497
        },
        {
          "duration": 0.46875,
          "durationTicks": 288,
          "midi": 55,
          "name": "G3",
          "ticks": 37152,
          "time": 60.46875,
          "velocity": 0.7874015748031497
        },
        {
          "duration": 0.3125,
          "durationTicks": 192,
          "midi": 65,
          "name": "F4",
          "ticks": 37248,
          "time": 60.625,
          "velocity": 0.7874015748031497
        },
        {
          "duration": 0.3125,
          "durationTicks": 192,
          "midi": 67,
          "name": "G4",
          "ticks": 37344,
          "time": 60.78125,
          "velocity": 0.7874015748031497
        },
        {
          "duration": 0.15625,
          "durationTicks": 96,
          "midi": 24,
          "name": "C1",
          "ticks": 37440,
          "time": 60.9375,
          "velocity": 0.7874015748031497
        },
        {
          "duration": 0.15625,
          "durationTicks": 96,
          "midi": 53,
          "name": "F3",
          "ticks": 37440,
          "time": 60.9375,
          "velocity": 0.7874015748031497
        },
        {
          "duration": 0.3125,
          "durationTicks": 192,
          "midi": 60,
          "name": "C4",
          "ticks": 37440,
          "time": 60.9375,
          "velocity": 0.7874015748031497
        },
        {
          "duration": 0.3125,
          "durationTicks": 192,
          "midi": 65,
          "name": "F4",
          "ticks": 37536,
          "time": 61.09375,
          "velocity": 0.7874015748031497
        },
        {
          "duration": 0.15625,
          "durationTicks": 96,
          "midi": 24,
          "name": "C1",
          "ticks": 37536,
          "time": 61.09375,
          "velocity": 0.5905511811023622
        },
        {
          "duration": 0.15625,
          "durationTicks": 96,
          "midi": 53,
          "name": "F3",
          "ticks": 37548,
          "time": 61.11328125,
          "velocity": 0.5905511811023622
        },
        {
          "duration": 0.46875,
          "durationTicks": 288,
          "midi": 24,
          "name": "C1",
          "ticks": 37632,
          "time": 61.25,
          "velocity": 0.7874015748031497
        },
        {
          "duration": 0.46875,
          "durationTicks": 288,
          "midi": 55,
          "name": "G3",
          "ticks": 37632,
          "time": 61.25,
          "velocity": 0.7874015748031497
        },
        {
          "duration": 0.3125,
          "durationTicks": 192,
          "midi": 60,
          "name": "C4",
          "ticks": 37632,
          "time": 61.25,
          "velocity": 0.7874015748031497
        },
        {
          "duration": 0.3125,
          "durationTicks": 192,
          "midi": 65,
          "name": "F4",
          "ticks": 37728,
          "time": 61.40625,
          "velocity": 0.7874015748031497
        },
        {
          "duration": 0.3125,
          "durationTicks": 192,
          "midi": 67,
          "name": "G4",
          "ticks": 37824,
          "time": 61.5625,
          "velocity": 0.7874015748031497
        },
        {
          "duration": 0.15625,
          "durationTicks": 96,
          "midi": 24,
          "name": "C1",
          "ticks": 37920,
          "time": 61.71875,
          "velocity": 0.7874015748031497
        },
        {
          "duration": 0.46875,
          "durationTicks": 288,
          "midi": 55,
          "name": "G3",
          "ticks": 37920,
          "time": 61.71875,
          "velocity": 0.7874015748031497
        },
        {
          "duration": 0.3125,
          "durationTicks": 192,
          "midi": 60,
          "name": "C4",
          "ticks": 37920,
          "time": 61.71875,
          "velocity": 0.7874015748031497
        },
        {
          "duration": 0.3125,
          "durationTicks": 192,
          "midi": 24,
          "name": "C1",
          "ticks": 38016,
          "time": 61.875,
          "velocity": 0.5905511811023622
        },
        {
          "duration": 0.3125,
          "durationTicks": 192,
          "midi": 65,
          "name": "F4",
          "ticks": 38016,
          "time": 61.875,
          "velocity": 0.7874015748031497
        },
        {
          "duration": 0.3125,
          "durationTicks": 192,
          "midi": 67,
          "name": "G4",
          "ticks": 38112,
          "time": 62.03125,
          "velocity": 0.7874015748031497
        },
        {
          "duration": 0.3125,
          "durationTicks": 192,
          "midi": 24,
          "name": "C1",
          "ticks": 38208,
          "time": 62.1875,
          "velocity": 0.7874015748031497
        },
        {
          "duration": 0.15625,
          "durationTicks": 96,
          "midi": 53,
          "name": "F3",
          "ticks": 38208,
          "time": 62.1875,
          "velocity": 0.7874015748031497
        },
        {
          "duration": 0.3125,
          "durationTicks": 192,
          "midi": 60,
          "name": "C4",
          "ticks": 38208,
          "time": 62.1875,
          "velocity": 0.7874015748031497
        },
        {
          "duration": 0.3125,
          "durationTicks": 192,
          "midi": 65,
          "name": "F4",
          "ticks": 38304,
          "time": 62.34375,
          "velocity": 0.7874015748031497
        },
        {
          "duration": 0.15625,
          "durationTicks": 96,
          "midi": 53,
          "name": "F3",
          "ticks": 38316,
          "time": 62.36328125,
          "velocity": 0.5905511811023622
        },
        {
          "duration": 0.46875,
          "durationTicks": 288,
          "midi": 56,
          "name": "G#3",
          "ticks": 38400,
          "time": 62.5,
          "velocity": 0.7874015748031497
        },
        {
          "duration": 0.46875,
          "durationTicks": 288,
          "midi": 25,
          "name": "C#1",
          "ticks": 38400,
          "time": 62.5,
          "velocity": 0.7874015748031497
        },
        {
          "duration": 0.3125,
          "durationTicks": 192,
          "midi": 60,
          "name": "C4",
          "ticks": 38400,
          "time": 62.5,
          "velocity": 0.7874015748031497
        },
        {
          "duration": 0.3125,
          "durationTicks": 192,
          "midi": 65,
          "name": "F4",
          "ticks": 38496,
          "time": 62.65625,
          "velocity": 0.7874015748031497
        },
        {
          "duration": 0.3125,
          "durationTicks": 192,
          "midi": 68,
          "name": "G#4",
          "ticks": 38592,
          "time": 62.8125,
          "velocity": 0.7874015748031497
        },
        {
          "duration": 0.46875,
          "durationTicks": 288,
          "midi": 56,
          "name": "G#3",
          "ticks": 38688,
          "time": 62.96875,
          "velocity": 0.7874015748031497
        },
        {
          "duration": 0.3125,
          "durationTicks": 192,
          "midi": 60,
          "name": "C4",
          "ticks": 38688,
          "time": 62.96875,
          "velocity": 0.7874015748031497
        },
        {
          "duration": 0.15625,
          "durationTicks": 96,
          "midi": 25,
          "name": "C#1",
          "ticks": 38688,
          "time": 62.96875,
          "velocity": 0.7874015748031497
        },
        {
          "duration": 0.3125,
          "durationTicks": 192,
          "midi": 65,
          "name": "F4",
          "ticks": 38784,
          "time": 63.125,
          "velocity": 0.7874015748031497
        },
        {
          "duration": 0.3125,
          "durationTicks": 192,
          "midi": 25,
          "name": "C#1",
          "ticks": 38784,
          "time": 63.125,
          "velocity": 0.5905511811023622
        },
        {
          "duration": 0.3125,
          "durationTicks": 192,
          "midi": 68,
          "name": "G#4",
          "ticks": 38880,
          "time": 63.28125,
          "velocity": 0.7874015748031497
        },
        {
          "duration": 0.15625,
          "durationTicks": 96,
          "midi": 53,
          "name": "F3",
          "ticks": 38976,
          "time": 63.4375,
          "velocity": 0.7874015748031497
        },
        {
          "duration": 0.3125,
          "durationTicks": 192,
          "midi": 25,
          "name": "C#1",
          "ticks": 38976,
          "time": 63.4375,
          "velocity": 0.7874015748031497
        },
        {
          "duration": 0.3125,
          "durationTicks": 192,
          "midi": 60,
          "name": "C4",
          "ticks": 38976,
          "time": 63.4375,
          "velocity": 0.7874015748031497
        },
        {
          "duration": 0.3125,
          "durationTicks": 192,
          "midi": 65,
          "name": "F4",
          "ticks": 39072,
          "time": 63.59375,
          "velocity": 0.7874015748031497
        },
        {
          "duration": 0.15625,
          "durationTicks": 96,
          "midi": 53,
          "name": "F3",
          "ticks": 39084,
          "time": 63.61328125,
          "velocity": 0.5905511811023622
        },
        {
          "duration": 0.46875,
          "durationTicks": 288,
          "midi": 25,
          "name": "C#1",
          "ticks": 39168,
          "time": 63.75,
          "velocity": 0.7874015748031497
        },
        {
          "duration": 0.46875,
          "durationTicks": 288,
          "midi": 56,
          "name": "G#3",
          "ticks": 39168,
          "time": 63.75,
          "velocity": 0.7874015748031497
        },
        {
          "duration": 0.3125,
          "durationTicks": 192,
          "midi": 60,
          "name": "C4",
          "ticks": 39168,
          "time": 63.75,
          "velocity": 0.7874015748031497
        },
        {
          "duration": 0.3125,
          "durationTicks": 192,
          "midi": 65,
          "name": "F4",
          "ticks": 39264,
          "time": 63.90625,
          "velocity": 0.7874015748031497
        },
        {
          "duration": 0.3125,
          "durationTicks": 192,
          "midi": 68,
          "name": "G#4",
          "ticks": 39360,
          "time": 64.0625,
          "velocity": 0.7874015748031497
        },
        {
          "duration": 0.46875,
          "durationTicks": 288,
          "midi": 56,
          "name": "G#3",
          "ticks": 39456,
          "time": 64.21875,
          "velocity": 0.7874015748031497
        },
        {
          "duration": 0.3125,
          "durationTicks": 192,
          "midi": 60,
          "name": "C4",
          "ticks": 39456,
          "time": 64.21875,
          "velocity": 0.7874015748031497
        },
        {
          "duration": 0.46875,
          "durationTicks": 288,
          "midi": 25,
          "name": "C#1",
          "ticks": 39456,
          "time": 64.21875,
          "velocity": 0.7874015748031497
        },
        {
          "duration": 0.3125,
          "durationTicks": 192,
          "midi": 65,
          "name": "F4",
          "ticks": 39552,
          "time": 64.375,
          "velocity": 0.7874015748031497
        },
        {
          "duration": 0.3125,
          "durationTicks": 192,
          "midi": 68,
          "name": "G#4",
          "ticks": 39648,
          "time": 64.53125,
          "velocity": 0.7874015748031497
        },
        {
          "duration": 0.3125,
          "durationTicks": 192,
          "midi": 60,
          "name": "C4",
          "ticks": 39744,
          "time": 64.6875,
          "velocity": 0.7874015748031497
        },
        {
          "duration": 0.15625,
          "durationTicks": 96,
          "midi": 53,
          "name": "F3",
          "ticks": 39744,
          "time": 64.6875,
          "velocity": 0.7874015748031497
        },
        {
          "duration": 0.15625,
          "durationTicks": 96,
          "midi": 25,
          "name": "C#1",
          "ticks": 39744,
          "time": 64.6875,
          "velocity": 0.7874015748031497
        },
        {
          "duration": 0.3125,
          "durationTicks": 192,
          "midi": 65,
          "name": "F4",
          "ticks": 39840,
          "time": 64.84375,
          "velocity": 0.7874015748031497
        },
        {
          "duration": 0.15625,
          "durationTicks": 96,
          "midi": 25,
          "name": "C#1",
          "ticks": 39840,
          "time": 64.84375,
          "velocity": 0.5905511811023622
        },
        {
          "duration": 0.15625,
          "durationTicks": 96,
          "midi": 53,
          "name": "F3",
          "ticks": 39852,
          "time": 64.86328125,
          "velocity": 0.5905511811023622
        },
        {
          "duration": 0.46875,
          "durationTicks": 288,
          "midi": 55,
          "name": "G3",
          "ticks": 39936,
          "time": 65,
          "velocity": 0.7874015748031497
        },
        {
          "duration": 0.3125,
          "durationTicks": 192,
          "midi": 60,
          "name": "C4",
          "ticks": 39936,
          "time": 65,
          "velocity": 0.7874015748031497
        },
        {
          "duration": 0.46875,
          "durationTicks": 288,
          "midi": 27,
          "name": "D#1",
          "ticks": 39936,
          "time": 65,
          "velocity": 0.7874015748031497
        },
        {
          "duration": 0.3125,
          "durationTicks": 192,
          "midi": 65,
          "name": "F4",
          "ticks": 40032,
          "time": 65.15625,
          "velocity": 0.7874015748031497
        },
        {
          "duration": 0.3125,
          "durationTicks": 192,
          "midi": 67,
          "name": "G4",
          "ticks": 40128,
          "time": 65.3125,
          "velocity": 0.7874015748031497
        },
        {
          "duration": 0.46875,
          "durationTicks": 288,
          "midi": 27,
          "name": "D#1",
          "ticks": 40224,
          "time": 65.46875,
          "velocity": 0.7874015748031497
        },
        {
          "duration": 0.3125,
          "durationTicks": 192,
          "midi": 60,
          "name": "C4",
          "ticks": 40224,
          "time": 65.46875,
          "velocity": 0.7874015748031497
        },
        {
          "duration": 0.46875,
          "durationTicks": 288,
          "midi": 55,
          "name": "G3",
          "ticks": 40224,
          "time": 65.46875,
          "velocity": 0.7874015748031497
        },
        {
          "duration": 0.3125,
          "durationTicks": 192,
          "midi": 65,
          "name": "F4",
          "ticks": 40320,
          "time": 65.625,
          "velocity": 0.7874015748031497
        },
        {
          "duration": 0.3125,
          "durationTicks": 192,
          "midi": 67,
          "name": "G4",
          "ticks": 40416,
          "time": 65.78125,
          "velocity": 0.7874015748031497
        },
        {
          "duration": 0.15625,
          "durationTicks": 96,
          "midi": 53,
          "name": "F3",
          "ticks": 40512,
          "time": 65.9375,
          "velocity": 0.7874015748031497
        },
        {
          "duration": 0.3125,
          "durationTicks": 192,
          "midi": 60,
          "name": "C4",
          "ticks": 40512,
          "time": 65.9375,
          "velocity": 0.7874015748031497
        },
        {
          "duration": 0.3125,
          "durationTicks": 192,
          "midi": 27,
          "name": "D#1",
          "ticks": 40512,
          "time": 65.9375,
          "velocity": 0.7874015748031497
        },
        {
          "duration": 0.3125,
          "durationTicks": 192,
          "midi": 65,
          "name": "F4",
          "ticks": 40608,
          "time": 66.09375,
          "velocity": 0.7874015748031497
        },
        {
          "duration": 0.15625,
          "durationTicks": 96,
          "midi": 53,
          "name": "F3",
          "ticks": 40620,
          "time": 66.11328125,
          "velocity": 0.5905511811023622
        },
        {
          "duration": 0.46875,
          "durationTicks": 288,
          "midi": 27,
          "name": "D#1",
          "ticks": 40704,
          "time": 66.25,
          "velocity": 0.7874015748031497
        },
        {
          "duration": 0.46875,
          "durationTicks": 288,
          "midi": 55,
          "name": "G3",
          "ticks": 40704,
          "time": 66.25,
          "velocity": 0.7874015748031497
        },
        {
          "duration": 0.3125,
          "durationTicks": 192,
          "midi": 60,
          "name": "C4",
          "ticks": 40704,
          "time": 66.25,
          "velocity": 0.7874015748031497
        },
        {
          "duration": 0.3125,
          "durationTicks": 192,
          "midi": 65,
          "name": "F4",
          "ticks": 40800,
          "time": 66.40625,
          "velocity": 0.7874015748031497
        },
        {
          "duration": 0.3125,
          "durationTicks": 192,
          "midi": 67,
          "name": "G4",
          "ticks": 40896,
          "time": 66.5625,
          "velocity": 0.7874015748031497
        },
        {
          "duration": 0.3125,
          "durationTicks": 192,
          "midi": 60,
          "name": "C4",
          "ticks": 40992,
          "time": 66.71875,
          "velocity": 0.7874015748031497
        },
        {
          "duration": 0.46875,
          "durationTicks": 288,
          "midi": 55,
          "name": "G3",
          "ticks": 40992,
          "time": 66.71875,
          "velocity": 0.7874015748031497
        },
        {
          "duration": 0.15625,
          "durationTicks": 96,
          "midi": 27,
          "name": "D#1",
          "ticks": 40992,
          "time": 66.71875,
          "velocity": 0.7874015748031497
        },
        {
          "duration": 0.3125,
          "durationTicks": 192,
          "midi": 65,
          "name": "F4",
          "ticks": 41088,
          "time": 66.875,
          "velocity": 0.7874015748031497
        },
        {
          "duration": 0.3125,
          "durationTicks": 192,
          "midi": 27,
          "name": "D#1",
          "ticks": 41088,
          "time": 66.875,
          "velocity": 0.5905511811023622
        },
        {
          "duration": 0.3125,
          "durationTicks": 192,
          "midi": 67,
          "name": "G4",
          "ticks": 41184,
          "time": 67.03125,
          "velocity": 0.7874015748031497
        },
        {
          "duration": 0.3125,
          "durationTicks": 192,
          "midi": 60,
          "name": "C4",
          "ticks": 41280,
          "time": 67.1875,
          "velocity": 0.7874015748031497
        },
        {
          "duration": 0.15625,
          "durationTicks": 96,
          "midi": 27,
          "name": "D#1",
          "ticks": 41280,
          "time": 67.1875,
          "velocity": 0.7874015748031497
        },
        {
          "duration": 0.15625,
          "durationTicks": 96,
          "midi": 53,
          "name": "F3",
          "ticks": 41280,
          "time": 67.1875,
          "velocity": 0.7874015748031497
        },
        {
          "duration": 0.3125,
          "durationTicks": 192,
          "midi": 65,
          "name": "F4",
          "ticks": 41376,
          "time": 67.34375,
          "velocity": 0.7874015748031497
        },
        {
          "duration": 0.15625,
          "durationTicks": 96,
          "midi": 27,
          "name": "D#1",
          "ticks": 41376,
          "time": 67.34375,
          "velocity": 0.5905511811023622
        },
        {
          "duration": 0.15625,
          "durationTicks": 96,
          "midi": 53,
          "name": "F3",
          "ticks": 41388,
          "time": 67.36328125,
          "velocity": 0.5905511811023622
        },
        {
          "duration": 0.3125,
          "durationTicks": 192,
          "midi": 60,
          "name": "C4",
          "ticks": 41472,
          "time": 67.5,
          "velocity": 0.7874015748031497
        },
        {
          "duration": 0.46875,
          "durationTicks": 288,
          "midi": 29,
          "name": "F1",
          "ticks": 41472,
          "time": 67.5,
          "velocity": 0.7874015748031497
        },
        {
          "duration": 0.46875,
          "durationTicks": 288,
          "midi": 58,
          "name": "A#3",
          "ticks": 41472,
          "time": 67.5,
          "velocity": 0.7874015748031497
        },
        {
          "duration": 0.3125,
          "durationTicks": 192,
          "midi": 65,
          "name": "F4",
          "ticks": 41568,
          "time": 67.65625,
          "velocity": 0.7874015748031497
        },
        {
          "duration": 0.3125,
          "durationTicks": 192,
          "midi": 70,
          "name": "A#4",
          "ticks": 41664,
          "time": 67.8125,
          "velocity": 0.7874015748031497
        },
        {
          "duration": 0.46875,
          "durationTicks": 288,
          "midi": 29,
          "name": "F1",
          "ticks": 41760,
          "time": 67.96875,
          "velocity": 0.7874015748031497
        },
        {
          "duration": 0.3125,
          "durationTicks": 192,
          "midi": 60,
          "name": "C4",
          "ticks": 41760,
          "time": 67.96875,
          "velocity": 0.7874015748031497
        },
        {
          "duration": 0.46875,
          "durationTicks": 288,
          "midi": 58,
          "name": "A#3",
          "ticks": 41760,
          "time": 67.96875,
          "velocity": 0.7874015748031497
        },
        {
          "duration": 0.3125,
          "durationTicks": 192,
          "midi": 65,
          "name": "F4",
          "ticks": 41856,
          "time": 68.125,
          "velocity": 0.7874015748031497
        },
        {
          "duration": 0.3125,
          "durationTicks": 192,
          "midi": 70,
          "name": "A#4",
          "ticks": 41952,
          "time": 68.28125,
          "velocity": 0.7874015748031497
        },
        {
          "duration": 0.3125,
          "durationTicks": 192,
          "midi": 60,
          "name": "C4",
          "ticks": 42048,
          "time": 68.4375,
          "velocity": 0.7874015748031497
        },
        {
          "duration": 0.15625,
          "durationTicks": 96,
          "midi": 29,
          "name": "F1",
          "ticks": 42048,
          "time": 68.4375,
          "velocity": 0.7874015748031497
        },
        {
          "duration": 0.15625,
          "durationTicks": 96,
          "midi": 53,
          "name": "F3",
          "ticks": 42048,
          "time": 68.4375,
          "velocity": 0.7874015748031497
        },
        {
          "duration": 0.15625,
          "durationTicks": 96,
          "midi": 29,
          "name": "F1",
          "ticks": 42144,
          "time": 68.59375,
          "velocity": 0.5905511811023622
        },
        {
          "duration": 0.3125,
          "durationTicks": 192,
          "midi": 65,
          "name": "F4",
          "ticks": 42144,
          "time": 68.59375,
          "velocity": 0.7874015748031497
        },
        {
          "duration": 0.15625,
          "durationTicks": 96,
          "midi": 53,
          "name": "F3",
          "ticks": 42156,
          "time": 68.61328125,
          "velocity": 0.5905511811023622
        },
        {
          "duration": 0.46875,
          "durationTicks": 288,
          "midi": 29,
          "name": "F1",
          "ticks": 42240,
          "time": 68.75,
          "velocity": 0.7874015748031497
        },
        {
          "duration": 0.3125,
          "durationTicks": 192,
          "midi": 60,
          "name": "C4",
          "ticks": 42240,
          "time": 68.75,
          "velocity": 0.7874015748031497
        },
        {
          "duration": 0.46875,
          "durationTicks": 288,
          "midi": 58,
          "name": "A#3",
          "ticks": 42240,
          "time": 68.75,
          "velocity": 0.7874015748031497
        },
        {
          "duration": 0.3125,
          "durationTicks": 192,
          "midi": 65,
          "name": "F4",
          "ticks": 42336,
          "time": 68.90625,
          "velocity": 0.7874015748031497
        },
        {
          "duration": 0.3125,
          "durationTicks": 192,
          "midi": 70,
          "name": "A#4",
          "ticks": 42432,
          "time": 69.0625,
          "velocity": 0.7874015748031497
        },
        {
          "duration": 0.3125,
          "durationTicks": 192,
          "midi": 60,
          "name": "C4",
          "ticks": 42528,
          "time": 69.21875,
          "velocity": 0.7874015748031497
        },
        {
          "duration": 0.46875,
          "durationTicks": 288,
          "midi": 29,
          "name": "F1",
          "ticks": 42528,
          "time": 69.21875,
          "velocity": 0.7874015748031497
        },
        {
          "duration": 0.46875,
          "durationTicks": 288,
          "midi": 58,
          "name": "A#3",
          "ticks": 42528,
          "time": 69.21875,
          "velocity": 0.7874015748031497
        },
        {
          "duration": 0.3125,
          "durationTicks": 192,
          "midi": 65,
          "name": "F4",
          "ticks": 42624,
          "time": 69.375,
          "velocity": 0.7874015748031497
        },
        {
          "duration": 0.3125,
          "durationTicks": 192,
          "midi": 68,
          "name": "G#4",
          "ticks": 42720,
          "time": 69.53125,
          "velocity": 0.7874015748031497
        },
        {
          "duration": 0.3125,
          "durationTicks": 192,
          "midi": 60,
          "name": "C4",
          "ticks": 42816,
          "time": 69.6875,
          "velocity": 0.7874015748031497
        },
        {
          "duration": 0.15625,
          "durationTicks": 96,
          "midi": 29,
          "name": "F1",
          "ticks": 42816,
          "time": 69.6875,
          "velocity": 0.7874015748031497
        },
        {
          "duration": 0.15625,
          "durationTicks": 96,
          "midi": 56,
          "name": "G#3",
          "ticks": 42816,
          "time": 69.6875,
          "velocity": 0.7874015748031497
        },
        {
          "duration": 0.3125,
          "durationTicks": 192,
          "midi": 67,
          "name": "G4",
          "ticks": 42912,
          "time": 69.84375,
          "velocity": 0.7874015748031497
        },
        {
          "duration": 0.15625,
          "durationTicks": 96,
          "midi": 29,
          "name": "F1",
          "ticks": 42912,
          "time": 69.84375,
          "velocity": 0.5905511811023622
        },
        {
          "duration": 0.15625,
          "durationTicks": 96,
          "midi": 55,
          "name": "G3",
          "ticks": 42948,
          "time": 69.90234375,
          "velocity": 0.7874015748031497
        },
        {
          "duration": 0.3125,
          "durationTicks": 192,
          "midi": 60,
          "name": "C4",
          "ticks": 43008,
          "time": 70,
          "velocity": 0.7874015748031497
        },
        {
          "duration": 0.46875,
          "durationTicks": 288,
          "midi": 24,
          "name": "C1",
          "ticks": 43008,
          "time": 70,
          "velocity": 0.7874015748031497
        },
        {
          "duration": 0.46875,
          "durationTicks": 288,
          "midi": 55,
          "name": "G3",
          "ticks": 43008,
          "time": 70,
          "velocity": 0.7874015748031497
        },
        {
          "duration": 0.3125,
          "durationTicks": 192,
          "midi": 65,
          "name": "F4",
          "ticks": 43104,
          "time": 70.15625,
          "velocity": 0.7874015748031497
        },
        {
          "duration": 0.3125,
          "durationTicks": 192,
          "midi": 67,
          "name": "G4",
          "ticks": 43200,
          "time": 70.3125,
          "velocity": 0.7874015748031497
        },
        {
          "duration": 0.3125,
          "durationTicks": 192,
          "midi": 60,
          "name": "C4",
          "ticks": 43296,
          "time": 70.46875,
          "velocity": 0.7874015748031497
        },
        {
          "duration": 0.46875,
          "durationTicks": 288,
          "midi": 24,
          "name": "C1",
          "ticks": 43296,
          "time": 70.46875,
          "velocity": 0.7874015748031497
        },
        {
          "duration": 0.46875,
          "durationTicks": 288,
          "midi": 55,
          "name": "G3",
          "ticks": 43296,
          "time": 70.46875,
          "velocity": 0.7874015748031497
        },
        {
          "duration": 0.3125,
          "durationTicks": 192,
          "midi": 65,
          "name": "F4",
          "ticks": 43392,
          "time": 70.625,
          "velocity": 0.7874015748031497
        },
        {
          "duration": 0.3125,
          "durationTicks": 192,
          "midi": 67,
          "name": "G4",
          "ticks": 43488,
          "time": 70.78125,
          "velocity": 0.7874015748031497
        },
        {
          "duration": 0.3125,
          "durationTicks": 192,
          "midi": 60,
          "name": "C4",
          "ticks": 43584,
          "time": 70.9375,
          "velocity": 0.7874015748031497
        },
        {
          "duration": 0.15625,
          "durationTicks": 96,
          "midi": 24,
          "name": "C1",
          "ticks": 43584,
          "time": 70.9375,
          "velocity": 0.7874015748031497
        },
        {
          "duration": 0.15625,
          "durationTicks": 96,
          "midi": 53,
          "name": "F3",
          "ticks": 43584,
          "time": 70.9375,
          "velocity": 0.7874015748031497
        },
        {
          "duration": 0.15625,
          "durationTicks": 96,
          "midi": 24,
          "name": "C1",
          "ticks": 43680,
          "time": 71.09375,
          "velocity": 0.5905511811023622
        },
        {
          "duration": 0.3125,
          "durationTicks": 192,
          "midi": 65,
          "name": "F4",
          "ticks": 43680,
          "time": 71.09375,
          "velocity": 0.7874015748031497
        },
        {
          "duration": 0.15625,
          "durationTicks": 96,
          "midi": 53,
          "name": "F3",
          "ticks": 43692,
          "time": 71.11328125,
          "velocity": 0.5905511811023622
        },
        {
          "duration": 0.3125,
          "durationTicks": 192,
          "midi": 60,
          "name": "C4",
          "ticks": 43776,
          "time": 71.25,
          "velocity": 0.7874015748031497
        },
        {
          "duration": 0.46875,
          "durationTicks": 288,
          "midi": 24,
          "name": "C1",
          "ticks": 43776,
          "time": 71.25,
          "velocity": 0.7874015748031497
        },
        {
          "duration": 0.46875,
          "durationTicks": 288,
          "midi": 55,
          "name": "G3",
          "ticks": 43776,
          "time": 71.25,
          "velocity": 0.7874015748031497
        },
        {
          "duration": 0.3125,
          "durationTicks": 192,
          "midi": 65,
          "name": "F4",
          "ticks": 43872,
          "time": 71.40625,
          "velocity": 0.7874015748031497
        },
        {
          "duration": 0.3125,
          "durationTicks": 192,
          "midi": 67,
          "name": "G4",
          "ticks": 43968,
          "time": 71.5625,
          "velocity": 0.7874015748031497
        },
        {
          "duration": 0.46875,
          "durationTicks": 288,
          "midi": 55,
          "name": "G3",
          "ticks": 44064,
          "time": 71.71875,
          "velocity": 0.7874015748031497
        },
        {
          "duration": 0.15625,
          "durationTicks": 96,
          "midi": 24,
          "name": "C1",
          "ticks": 44064,
          "time": 71.71875,
          "velocity": 0.7874015748031497
        },
        {
          "duration": 0.3125,
          "durationTicks": 192,
          "midi": 60,
          "name": "C4",
          "ticks": 44064,
          "time": 71.71875,
          "velocity": 0.7874015748031497
        },
        {
          "duration": 0.3125,
          "durationTicks": 192,
          "midi": 24,
          "name": "C1",
          "ticks": 44160,
          "time": 71.875,
          "velocity": 0.5905511811023622
        },
        {
          "duration": 0.3125,
          "durationTicks": 192,
          "midi": 65,
          "name": "F4",
          "ticks": 44160,
          "time": 71.875,
          "velocity": 0.7874015748031497
        },
        {
          "duration": 0.3125,
          "durationTicks": 192,
          "midi": 67,
          "name": "G4",
          "ticks": 44256,
          "time": 72.03125,
          "velocity": 0.7874015748031497
        },
        {
          "duration": 0.3125,
          "durationTicks": 192,
          "midi": 60,
          "name": "C4",
          "ticks": 44352,
          "time": 72.1875,
          "velocity": 0.7874015748031497
        },
        {
          "duration": 0.15625,
          "durationTicks": 96,
          "midi": 53,
          "name": "F3",
          "ticks": 44352,
          "time": 72.1875,
          "velocity": 0.7874015748031497
        },
        {
          "duration": 0.3125,
          "durationTicks": 192,
          "midi": 24,
          "name": "C1",
          "ticks": 44352,
          "time": 72.1875,
          "velocity": 0.7874015748031497
        },
        {
          "duration": 0.3125,
          "durationTicks": 192,
          "midi": 65,
          "name": "F4",
          "ticks": 44448,
          "time": 72.34375,
          "velocity": 0.7874015748031497
        },
        {
          "duration": 0.15625,
          "durationTicks": 96,
          "midi": 53,
          "name": "F3",
          "ticks": 44460,
          "time": 72.36328125,
          "velocity": 0.5905511811023622
        },
        {
          "duration": 0.3125,
          "durationTicks": 192,
          "midi": 60,
          "name": "C4",
          "ticks": 44544,
          "time": 72.5,
          "velocity": 0.7874015748031497
        },
        {
          "duration": 0.46875,
          "durationTicks": 288,
          "midi": 56,
          "name": "G#3",
          "ticks": 44544,
          "time": 72.5,
          "velocity": 0.7874015748031497
        },
        {
          "duration": 0.46875,
          "durationTicks": 288,
          "midi": 25,
          "name": "C#1",
          "ticks": 44544,
          "time": 72.5,
          "velocity": 0.7874015748031497
        },
        {
          "duration": 0.3125,
          "durationTicks": 192,
          "midi": 65,
          "name": "F4",
          "ticks": 44640,
          "time": 72.65625,
          "velocity": 0.7874015748031497
        },
        {
          "duration": 0.3125,
          "durationTicks": 192,
          "midi": 68,
          "name": "G#4",
          "ticks": 44736,
          "time": 72.8125,
          "velocity": 0.7874015748031497
        },
        {
          "duration": 0.3125,
          "durationTicks": 192,
          "midi": 60,
          "name": "C4",
          "ticks": 44832,
          "time": 72.96875,
          "velocity": 0.7874015748031497
        },
        {
          "duration": 0.46875,
          "durationTicks": 288,
          "midi": 56,
          "name": "G#3",
          "ticks": 44832,
          "time": 72.96875,
          "velocity": 0.7874015748031497
        },
        {
          "duration": 0.15625,
          "durationTicks": 96,
          "midi": 25,
          "name": "C#1",
          "ticks": 44832,
          "time": 72.96875,
          "velocity": 0.7874015748031497
        },
        {
          "duration": 0.3125,
          "durationTicks": 192,
          "midi": 65,
          "name": "F4",
          "ticks": 44928,
          "time": 73.125,
          "velocity": 0.7874015748031497
        },
        {
          "duration": 0.3125,
          "durationTicks": 192,
          "midi": 25,
          "name": "C#1",
          "ticks": 44928,
          "time": 73.125,
          "velocity": 0.5905511811023622
        },
        {
          "duration": 0.3125,
          "durationTicks": 192,
          "midi": 68,
          "name": "G#4",
          "ticks": 45024,
          "time": 73.28125,
          "velocity": 0.7874015748031497
        },
        {
          "duration": 0.3125,
          "durationTicks": 192,
          "midi": 60,
          "name": "C4",
          "ticks": 45120,
          "time": 73.4375,
          "velocity": 0.7874015748031497
        },
        {
          "duration": 0.3125,
          "durationTicks": 192,
          "midi": 25,
          "name": "C#1",
          "ticks": 45120,
          "time": 73.4375,
          "velocity": 0.7874015748031497
        },
        {
          "duration": 0.15625,
          "durationTicks": 96,
          "midi": 53,
          "name": "F3",
          "ticks": 45120,
          "time": 73.4375,
          "velocity": 0.7874015748031497
        },
        {
          "duration": 0.3125,
          "durationTicks": 192,
          "midi": 65,
          "name": "F4",
          "ticks": 45216,
          "time": 73.59375,
          "velocity": 0.7874015748031497
        },
        {
          "duration": 0.15625,
          "durationTicks": 96,
          "midi": 53,
          "name": "F3",
          "ticks": 45228,
          "time": 73.61328125,
          "velocity": 0.5905511811023622
        },
        {
          "duration": 0.46875,
          "durationTicks": 288,
          "midi": 56,
          "name": "G#3",
          "ticks": 45312,
          "time": 73.75,
          "velocity": 0.7874015748031497
        },
        {
          "duration": 0.3125,
          "durationTicks": 192,
          "midi": 60,
          "name": "C4",
          "ticks": 45312,
          "time": 73.75,
          "velocity": 0.7874015748031497
        },
        {
          "duration": 0.46875,
          "durationTicks": 288,
          "midi": 25,
          "name": "C#1",
          "ticks": 45312,
          "time": 73.75,
          "velocity": 0.7874015748031497
        },
        {
          "duration": 0.3125,
          "durationTicks": 192,
          "midi": 65,
          "name": "F4",
          "ticks": 45408,
          "time": 73.90625,
          "velocity": 0.7874015748031497
        },
        {
          "duration": 0.3125,
          "durationTicks": 192,
          "midi": 68,
          "name": "G#4",
          "ticks": 45504,
          "time": 74.0625,
          "velocity": 0.7874015748031497
        },
        {
          "duration": 0.3125,
          "durationTicks": 192,
          "midi": 60,
          "name": "C4",
          "ticks": 45600,
          "time": 74.21875,
          "velocity": 0.7874015748031497
        },
        {
          "duration": 0.46875,
          "durationTicks": 288,
          "midi": 25,
          "name": "C#1",
          "ticks": 45600,
          "time": 74.21875,
          "velocity": 0.7874015748031497
        },
        {
          "duration": 0.46875,
          "durationTicks": 288,
          "midi": 56,
          "name": "G#3",
          "ticks": 45600,
          "time": 74.21875,
          "velocity": 0.7874015748031497
        },
        {
          "duration": 0.3125,
          "durationTicks": 192,
          "midi": 65,
          "name": "F4",
          "ticks": 45696,
          "time": 74.375,
          "velocity": 0.7874015748031497
        },
        {
          "duration": 0.3125,
          "durationTicks": 192,
          "midi": 68,
          "name": "G#4",
          "ticks": 45792,
          "time": 74.53125,
          "velocity": 0.7874015748031497
        },
        {
          "duration": 0.3125,
          "durationTicks": 192,
          "midi": 60,
          "name": "C4",
          "ticks": 45888,
          "time": 74.6875,
          "velocity": 0.7874015748031497
        },
        {
          "duration": 0.15625,
          "durationTicks": 96,
          "midi": 53,
          "name": "F3",
          "ticks": 45888,
          "time": 74.6875,
          "velocity": 0.7874015748031497
        },
        {
          "duration": 0.15625,
          "durationTicks": 96,
          "midi": 25,
          "name": "C#1",
          "ticks": 45888,
          "time": 74.6875,
          "velocity": 0.7874015748031497
        },
        {
          "duration": 0.15625,
          "durationTicks": 96,
          "midi": 25,
          "name": "C#1",
          "ticks": 45984,
          "time": 74.84375,
          "velocity": 0.5905511811023622
        },
        {
          "duration": 0.3125,
          "durationTicks": 192,
          "midi": 65,
          "name": "F4",
          "ticks": 45984,
          "time": 74.84375,
          "velocity": 0.7874015748031497
        },
        {
          "duration": 0.15625,
          "durationTicks": 96,
          "midi": 53,
          "name": "F3",
          "ticks": 45996,
          "time": 74.86328125,
          "velocity": 0.5905511811023622
        },
        {
          "duration": 0.46875,
          "durationTicks": 288,
          "midi": 55,
          "name": "G3",
          "ticks": 46080,
          "time": 75,
          "velocity": 0.7874015748031497
        },
        {
          "duration": 0.3125,
          "durationTicks": 192,
          "midi": 60,
          "name": "C4",
          "ticks": 46080,
          "time": 75,
          "velocity": 0.7874015748031497
        },
        {
          "duration": 0.46875,
          "durationTicks": 288,
          "midi": 27,
          "name": "D#1",
          "ticks": 46080,
          "time": 75,
          "velocity": 0.7874015748031497
        },
        {
          "duration": 0.3125,
          "durationTicks": 192,
          "midi": 65,
          "name": "F4",
          "ticks": 46176,
          "time": 75.15625,
          "velocity": 0.7874015748031497
        },
        {
          "duration": 0.3125,
          "durationTicks": 192,
          "midi": 67,
          "name": "G4",
          "ticks": 46272,
          "time": 75.3125,
          "velocity": 0.7874015748031497
        },
        {
          "duration": 0.46875,
          "durationTicks": 288,
          "midi": 27,
          "name": "D#1",
          "ticks": 46368,
          "time": 75.46875,
          "velocity": 0.7874015748031497
        },
        {
          "duration": 0.3125,
          "durationTicks": 192,
          "midi": 60,
          "name": "C4",
          "ticks": 46368,
          "time": 75.46875,
          "velocity": 0.7874015748031497
        },
        {
          "duration": 0.46875,
          "durationTicks": 288,
          "midi": 55,
          "name": "G3",
          "ticks": 46368,
          "time": 75.46875,
          "velocity": 0.7874015748031497
        },
        {
          "duration": 0.3125,
          "durationTicks": 192,
          "midi": 65,
          "name": "F4",
          "ticks": 46464,
          "time": 75.625,
          "velocity": 0.7874015748031497
        },
        {
          "duration": 0.3125,
          "durationTicks": 192,
          "midi": 67,
          "name": "G4",
          "ticks": 46560,
          "time": 75.78125,
          "velocity": 0.7874015748031497
        },
        {
          "duration": 0.15625,
          "durationTicks": 96,
          "midi": 53,
          "name": "F3",
          "ticks": 46656,
          "time": 75.9375,
          "velocity": 0.7874015748031497
        },
        {
          "duration": 0.3125,
          "durationTicks": 192,
          "midi": 27,
          "name": "D#1",
          "ticks": 46656,
          "time": 75.9375,
          "velocity": 0.7874015748031497
        },
        {
          "duration": 0.3125,
          "durationTicks": 192,
          "midi": 60,
          "name": "C4",
          "ticks": 46656,
          "time": 75.9375,
          "velocity": 0.7874015748031497
        },
        {
          "duration": 0.3125,
          "durationTicks": 192,
          "midi": 65,
          "name": "F4",
          "ticks": 46752,
          "time": 76.09375,
          "velocity": 0.7874015748031497
        },
        {
          "duration": 0.15625,
          "durationTicks": 96,
          "midi": 53,
          "name": "F3",
          "ticks": 46764,
          "time": 76.11328125,
          "velocity": 0.5905511811023622
        },
        {
          "duration": 0.3125,
          "durationTicks": 192,
          "midi": 60,
          "name": "C4",
          "ticks": 46848,
          "time": 76.25,
          "velocity": 0.7874015748031497
        },
        {
          "duration": 0.46875,
          "durationTicks": 288,
          "midi": 27,
          "name": "D#1",
          "ticks": 46848,
          "time": 76.25,
          "velocity": 0.7874015748031497
        },
        {
          "duration": 0.46875,
          "durationTicks": 288,
          "midi": 55,
          "name": "G3",
          "ticks": 46848,
          "time": 76.25,
          "velocity": 0.7874015748031497
        },
        {
          "duration": 0.3125,
          "durationTicks": 192,
          "midi": 65,
          "name": "F4",
          "ticks": 46944,
          "time": 76.40625,
          "velocity": 0.7874015748031497
        },
        {
          "duration": 0.3125,
          "durationTicks": 192,
          "midi": 67,
          "name": "G4",
          "ticks": 47040,
          "time": 76.5625,
          "velocity": 0.7874015748031497
        },
        {
          "duration": 0.15625,
          "durationTicks": 96,
          "midi": 27,
          "name": "D#1",
          "ticks": 47136,
          "time": 76.71875,
          "velocity": 0.7874015748031497
        },
        {
          "duration": 0.46875,
          "durationTicks": 288,
          "midi": 55,
          "name": "G3",
          "ticks": 47136,
          "time": 76.71875,
          "velocity": 0.7874015748031497
        },
        {
          "duration": 0.3125,
          "durationTicks": 192,
          "midi": 60,
          "name": "C4",
          "ticks": 47136,
          "time": 76.71875,
          "velocity": 0.7874015748031497
        },
        {
          "duration": 0.3125,
          "durationTicks": 192,
          "midi": 27,
          "name": "D#1",
          "ticks": 47232,
          "time": 76.875,
          "velocity": 0.5905511811023622
        },
        {
          "duration": 0.3125,
          "durationTicks": 192,
          "midi": 65,
          "name": "F4",
          "ticks": 47232,
          "time": 76.875,
          "velocity": 0.7874015748031497
        },
        {
          "duration": 0.3125,
          "durationTicks": 192,
          "midi": 67,
          "name": "G4",
          "ticks": 47328,
          "time": 77.03125,
          "velocity": 0.7874015748031497
        },
        {
          "duration": 0.3125,
          "durationTicks": 192,
          "midi": 60,
          "name": "C4",
          "ticks": 47424,
          "time": 77.1875,
          "velocity": 0.7874015748031497
        },
        {
          "duration": 0.15625,
          "durationTicks": 96,
          "midi": 53,
          "name": "F3",
          "ticks": 47424,
          "time": 77.1875,
          "velocity": 0.7874015748031497
        },
        {
          "duration": 0.15625,
          "durationTicks": 96,
          "midi": 27,
          "name": "D#1",
          "ticks": 47424,
          "time": 77.1875,
          "velocity": 0.7874015748031497
        },
        {
          "duration": 0.15625,
          "durationTicks": 96,
          "midi": 27,
          "name": "D#1",
          "ticks": 47520,
          "time": 77.34375,
          "velocity": 0.5905511811023622
        },
        {
          "duration": 0.3125,
          "durationTicks": 192,
          "midi": 65,
          "name": "F4",
          "ticks": 47520,
          "time": 77.34375,
          "velocity": 0.7874015748031497
        },
        {
          "duration": 0.15625,
          "durationTicks": 96,
          "midi": 53,
          "name": "F3",
          "ticks": 47532,
          "time": 77.36328125,
          "velocity": 0.5905511811023622
        },
        {
          "duration": 0.46875,
          "durationTicks": 288,
          "midi": 29,
          "name": "F1",
          "ticks": 47616,
          "time": 77.5,
          "velocity": 0.7874015748031497
        },
        {
          "duration": 0.3125,
          "durationTicks": 192,
          "midi": 60,
          "name": "C4",
          "ticks": 47616,
          "time": 77.5,
          "velocity": 0.7874015748031497
        },
        {
          "duration": 0.46875,
          "durationTicks": 288,
          "midi": 58,
          "name": "A#3",
          "ticks": 47616,
          "time": 77.5,
          "velocity": 0.7874015748031497
        },
        {
          "duration": 0.3125,
          "durationTicks": 192,
          "midi": 65,
          "name": "F4",
          "ticks": 47712,
          "time": 77.65625,
          "velocity": 0.7874015748031497
        },
        {
          "duration": 0.3125,
          "durationTicks": 192,
          "midi": 70,
          "name": "A#4",
          "ticks": 47808,
          "time": 77.8125,
          "velocity": 0.7874015748031497
        },
        {
          "duration": 0.3125,
          "durationTicks": 192,
          "midi": 60,
          "name": "C4",
          "ticks": 47904,
          "time": 77.96875,
          "velocity": 0.7874015748031497
        },
        {
          "duration": 0.46875,
          "durationTicks": 288,
          "midi": 29,
          "name": "F1",
          "ticks": 47904,
          "time": 77.96875,
          "velocity": 0.7874015748031497
        },
        {
          "duration": 0.46875,
          "durationTicks": 288,
          "midi": 58,
          "name": "A#3",
          "ticks": 47904,
          "time": 77.96875,
          "velocity": 0.7874015748031497
        },
        {
          "duration": 0.3125,
          "durationTicks": 192,
          "midi": 65,
          "name": "F4",
          "ticks": 48000,
          "time": 78.125,
          "velocity": 0.7874015748031497
        },
        {
          "duration": 0.3125,
          "durationTicks": 192,
          "midi": 70,
          "name": "A#4",
          "ticks": 48096,
          "time": 78.28125,
          "velocity": 0.7874015748031497
        },
        {
          "duration": 0.15625,
          "durationTicks": 96,
          "midi": 29,
          "name": "F1",
          "ticks": 48192,
          "time": 78.4375,
          "velocity": 0.7874015748031497
        },
        {
          "duration": 0.3125,
          "durationTicks": 192,
          "midi": 60,
          "name": "C4",
          "ticks": 48192,
          "time": 78.4375,
          "velocity": 0.7874015748031497
        },
        {
          "duration": 0.15625,
          "durationTicks": 96,
          "midi": 53,
          "name": "F3",
          "ticks": 48192,
          "time": 78.4375,
          "velocity": 0.7874015748031497
        },
        {
          "duration": 0.15625,
          "durationTicks": 96,
          "midi": 29,
          "name": "F1",
          "ticks": 48288,
          "time": 78.59375,
          "velocity": 0.5905511811023622
        },
        {
          "duration": 0.3125,
          "durationTicks": 192,
          "midi": 65,
          "name": "F4",
          "ticks": 48288,
          "time": 78.59375,
          "velocity": 0.7874015748031497
        },
        {
          "duration": 0.15625,
          "durationTicks": 96,
          "midi": 53,
          "name": "F3",
          "ticks": 48300,
          "time": 78.61328125,
          "velocity": 0.5905511811023622
        },
        {
          "duration": 0.3125,
          "durationTicks": 192,
          "midi": 60,
          "name": "C4",
          "ticks": 48384,
          "time": 78.75,
          "velocity": 0.7874015748031497
        },
        {
          "duration": 0.46875,
          "durationTicks": 288,
          "midi": 29,
          "name": "F1",
          "ticks": 48384,
          "time": 78.75,
          "velocity": 0.7874015748031497
        },
        {
          "duration": 0.46875,
          "durationTicks": 288,
          "midi": 58,
          "name": "A#3",
          "ticks": 48384,
          "time": 78.75,
          "velocity": 0.7874015748031497
        },
        {
          "duration": 0.3125,
          "durationTicks": 192,
          "midi": 65,
          "name": "F4",
          "ticks": 48480,
          "time": 78.90625,
          "velocity": 0.7874015748031497
        },
        {
          "duration": 0.3125,
          "durationTicks": 192,
          "midi": 70,
          "name": "A#4",
          "ticks": 48576,
          "time": 79.0625,
          "velocity": 0.7874015748031497
        },
        {
          "duration": 0.3125,
          "durationTicks": 192,
          "midi": 60,
          "name": "C4",
          "ticks": 48672,
          "time": 79.21875,
          "velocity": 0.7874015748031497
        },
        {
          "duration": 0.46875,
          "durationTicks": 288,
          "midi": 29,
          "name": "F1",
          "ticks": 48672,
          "time": 79.21875,
          "velocity": 0.7874015748031497
        },
        {
          "duration": 0.46875,
          "durationTicks": 288,
          "midi": 58,
          "name": "A#3",
          "ticks": 48672,
          "time": 79.21875,
          "velocity": 0.7874015748031497
        },
        {
          "duration": 0.3125,
          "durationTicks": 192,
          "midi": 65,
          "name": "F4",
          "ticks": 48768,
          "time": 79.375,
          "velocity": 0.7874015748031497
        },
        {
          "duration": 0.3125,
          "durationTicks": 192,
          "midi": 68,
          "name": "G#4",
          "ticks": 48864,
          "time": 79.53125,
          "velocity": 0.7874015748031497
        },
        {
          "duration": 0.15625,
          "durationTicks": 96,
          "midi": 56,
          "name": "G#3",
          "ticks": 48960,
          "time": 79.6875,
          "velocity": 0.7874015748031497
        },
        {
          "duration": 0.3125,
          "durationTicks": 192,
          "midi": 60,
          "name": "C4",
          "ticks": 48960,
          "time": 79.6875,
          "velocity": 0.7874015748031497
        },
        {
          "duration": 0.15625,
          "durationTicks": 96,
          "midi": 29,
          "name": "F1",
          "ticks": 48960,
          "time": 79.6875,
          "velocity": 0.7874015748031497
        },
        {
          "duration": 0.15625,
          "durationTicks": 96,
          "midi": 29,
          "name": "F1",
          "ticks": 49056,
          "time": 79.84375,
          "velocity": 0.5905511811023622
        },
        {
          "duration": 0.3125,
          "durationTicks": 192,
          "midi": 67,
          "name": "G4",
          "ticks": 49056,
          "time": 79.84375,
          "velocity": 0.7874015748031497
        },
        {
          "duration": 0.15625,
          "durationTicks": 96,
          "midi": 55,
          "name": "G3",
          "ticks": 49092,
          "time": 79.90234375,
          "velocity": 0.7874015748031497
        },
        {
          "duration": 0.3125,
          "durationTicks": 192,
          "midi": 60,
          "name": "C4",
          "ticks": 49152,
          "time": 80,
          "velocity": 0.7874015748031497
        },
        {
          "duration": 0.46875,
          "durationTicks": 288,
          "midi": 24,
          "name": "C1",
          "ticks": 49152,
          "time": 80,
          "velocity": 0.7874015748031497
        },
        {
          "duration": 0.46875,
          "durationTicks": 288,
          "midi": 55,
          "name": "G3",
          "ticks": 49152,
          "time": 80,
          "velocity": 0.7874015748031497
        },
        {
          "duration": 0.3125,
          "durationTicks": 192,
          "midi": 65,
          "name": "F4",
          "ticks": 49248,
          "time": 80.15625,
          "velocity": 0.7874015748031497
        },
        {
          "duration": 0.3125,
          "durationTicks": 192,
          "midi": 67,
          "name": "G4",
          "ticks": 49344,
          "time": 80.3125,
          "velocity": 0.7874015748031497
        },
        {
          "duration": 0.46875,
          "durationTicks": 288,
          "midi": 24,
          "name": "C1",
          "ticks": 49440,
          "time": 80.46875,
          "velocity": 0.7874015748031497
        },
        {
          "duration": 0.46875,
          "durationTicks": 288,
          "midi": 55,
          "name": "G3",
          "ticks": 49440,
          "time": 80.46875,
          "velocity": 0.7874015748031497
        },
        {
          "duration": 0.3125,
          "durationTicks": 192,
          "midi": 60,
          "name": "C4",
          "ticks": 49440,
          "time": 80.46875,
          "velocity": 0.7874015748031497
        },
        {
          "duration": 0.3125,
          "durationTicks": 192,
          "midi": 65,
          "name": "F4",
          "ticks": 49536,
          "time": 80.625,
          "velocity": 0.7874015748031497
        },
        {
          "duration": 0.3125,
          "durationTicks": 192,
          "midi": 67,
          "name": "G4",
          "ticks": 49632,
          "time": 80.78125,
          "velocity": 0.7874015748031497
        },
        {
          "duration": 0.3125,
          "durationTicks": 192,
          "midi": 60,
          "name": "C4",
          "ticks": 49728,
          "time": 80.9375,
          "velocity": 0.7874015748031497
        },
        {
          "duration": 0.15625,
          "durationTicks": 96,
          "midi": 24,
          "name": "C1",
          "ticks": 49728,
          "time": 80.9375,
          "velocity": 0.7874015748031497
        },
        {
          "duration": 0.15625,
          "durationTicks": 96,
          "midi": 53,
          "name": "F3",
          "ticks": 49728,
          "time": 80.9375,
          "velocity": 0.7874015748031497
        },
        {
          "duration": 0.3125,
          "durationTicks": 192,
          "midi": 65,
          "name": "F4",
          "ticks": 49824,
          "time": 81.09375,
          "velocity": 0.7874015748031497
        },
        {
          "duration": 0.15625,
          "durationTicks": 96,
          "midi": 24,
          "name": "C1",
          "ticks": 49824,
          "time": 81.09375,
          "velocity": 0.5905511811023622
        },
        {
          "duration": 0.15625,
          "durationTicks": 96,
          "midi": 53,
          "name": "F3",
          "ticks": 49836,
          "time": 81.11328125,
          "velocity": 0.5905511811023622
        },
        {
          "duration": 0.3125,
          "durationTicks": 192,
          "midi": 60,
          "name": "C4",
          "ticks": 49920,
          "time": 81.25,
          "velocity": 0.7874015748031497
        },
        {
          "duration": 0.46875,
          "durationTicks": 288,
          "midi": 24,
          "name": "C1",
          "ticks": 49920,
          "time": 81.25,
          "velocity": 0.7874015748031497
        },
        {
          "duration": 0.46875,
          "durationTicks": 288,
          "midi": 55,
          "name": "G3",
          "ticks": 49920,
          "time": 81.25,
          "velocity": 0.7874015748031497
        },
        {
          "duration": 0.3125,
          "durationTicks": 192,
          "midi": 65,
          "name": "F4",
          "ticks": 50016,
          "time": 81.40625,
          "velocity": 0.7874015748031497
        },
        {
          "duration": 0.3125,
          "durationTicks": 192,
          "midi": 67,
          "name": "G4",
          "ticks": 50112,
          "time": 81.5625,
          "velocity": 0.7874015748031497
        },
        {
          "duration": 0.3125,
          "durationTicks": 192,
          "midi": 60,
          "name": "C4",
          "ticks": 50208,
          "time": 81.71875,
          "velocity": 0.7874015748031497
        },
        {
          "duration": 0.15625,
          "durationTicks": 96,
          "midi": 24,
          "name": "C1",
          "ticks": 50208,
          "time": 81.71875,
          "velocity": 0.7874015748031497
        },
        {
          "duration": 0.46875,
          "durationTicks": 288,
          "midi": 55,
          "name": "G3",
          "ticks": 50208,
          "time": 81.71875,
          "velocity": 0.7874015748031497
        },
        {
          "duration": 0.3125,
          "durationTicks": 192,
          "midi": 24,
          "name": "C1",
          "ticks": 50304,
          "time": 81.875,
          "velocity": 0.5905511811023622
        },
        {
          "duration": 0.3125,
          "durationTicks": 192,
          "midi": 65,
          "name": "F4",
          "ticks": 50304,
          "time": 81.875,
          "velocity": 0.7874015748031497
        },
        {
          "duration": 0.3125,
          "durationTicks": 192,
          "midi": 67,
          "name": "G4",
          "ticks": 50400,
          "time": 82.03125,
          "velocity": 0.7874015748031497
        },
        {
          "duration": 0.3125,
          "durationTicks": 192,
          "midi": 60,
          "name": "C4",
          "ticks": 50496,
          "time": 82.1875,
          "velocity": 0.7874015748031497
        },
        {
          "duration": 0.15625,
          "durationTicks": 96,
          "midi": 53,
          "name": "F3",
          "ticks": 50496,
          "time": 82.1875,
          "velocity": 0.7874015748031497
        },
        {
          "duration": 0.3125,
          "durationTicks": 192,
          "midi": 24,
          "name": "C1",
          "ticks": 50496,
          "time": 82.1875,
          "velocity": 0.7874015748031497
        },
        {
          "duration": 0.3125,
          "durationTicks": 192,
          "midi": 65,
          "name": "F4",
          "ticks": 50592,
          "time": 82.34375,
          "velocity": 0.7874015748031497
        },
        {
          "duration": 0.15625,
          "durationTicks": 96,
          "midi": 53,
          "name": "F3",
          "ticks": 50604,
          "time": 82.36328125,
          "velocity": 0.5905511811023622
        },
        {
          "duration": 0.46875,
          "durationTicks": 288,
          "midi": 25,
          "name": "C#1",
          "ticks": 50688,
          "time": 82.5,
          "velocity": 0.7874015748031497
        },
        {
          "duration": 0.3125,
          "durationTicks": 192,
          "midi": 60,
          "name": "C4",
          "ticks": 50688,
          "time": 82.5,
          "velocity": 0.7874015748031497
        },
        {
          "duration": 0.46875,
          "durationTicks": 288,
          "midi": 56,
          "name": "G#3",
          "ticks": 50688,
          "time": 82.5,
          "velocity": 0.7874015748031497
        },
        {
          "duration": 0.3125,
          "durationTicks": 192,
          "midi": 65,
          "name": "F4",
          "ticks": 50784,
          "time": 82.65625,
          "velocity": 0.7874015748031497
        },
        {
          "duration": 0.3125,
          "durationTicks": 192,
          "midi": 68,
          "name": "G#4",
          "ticks": 50880,
          "time": 82.8125,
          "velocity": 0.7874015748031497
        },
        {
          "duration": 0.46875,
          "durationTicks": 288,
          "midi": 56,
          "name": "G#3",
          "ticks": 50976,
          "time": 82.96875,
          "velocity": 0.7874015748031497
        },
        {
          "duration": 0.15625,
          "durationTicks": 96,
          "midi": 25,
          "name": "C#1",
          "ticks": 50976,
          "time": 82.96875,
          "velocity": 0.7874015748031497
        },
        {
          "duration": 0.3125,
          "durationTicks": 192,
          "midi": 60,
          "name": "C4",
          "ticks": 50976,
          "time": 82.96875,
          "velocity": 0.7874015748031497
        },
        {
          "duration": 0.3125,
          "durationTicks": 192,
          "midi": 25,
          "name": "C#1",
          "ticks": 51072,
          "time": 83.125,
          "velocity": 0.5905511811023622
        },
        {
          "duration": 0.3125,
          "durationTicks": 192,
          "midi": 65,
          "name": "F4",
          "ticks": 51072,
          "time": 83.125,
          "velocity": 0.7874015748031497
        },
        {
          "duration": 0.3125,
          "durationTicks": 192,
          "midi": 68,
          "name": "G#4",
          "ticks": 51168,
          "time": 83.28125,
          "velocity": 0.7874015748031497
        },
        {
          "duration": 0.3125,
          "durationTicks": 192,
          "midi": 25,
          "name": "C#1",
          "ticks": 51264,
          "time": 83.4375,
          "velocity": 0.7874015748031497
        },
        {
          "duration": 0.15625,
          "durationTicks": 96,
          "midi": 53,
          "name": "F3",
          "ticks": 51264,
          "time": 83.4375,
          "velocity": 0.7874015748031497
        },
        {
          "duration": 0.3125,
          "durationTicks": 192,
          "midi": 60,
          "name": "C4",
          "ticks": 51264,
          "time": 83.4375,
          "velocity": 0.7874015748031497
        },
        {
          "duration": 0.3125,
          "durationTicks": 192,
          "midi": 65,
          "name": "F4",
          "ticks": 51360,
          "time": 83.59375,
          "velocity": 0.7874015748031497
        },
        {
          "duration": 0.15625,
          "durationTicks": 96,
          "midi": 53,
          "name": "F3",
          "ticks": 51372,
          "time": 83.61328125,
          "velocity": 0.5905511811023622
        },
        {
          "duration": 0.46875,
          "durationTicks": 288,
          "midi": 56,
          "name": "G#3",
          "ticks": 51456,
          "time": 83.75,
          "velocity": 0.7874015748031497
        },
        {
          "duration": 0.3125,
          "durationTicks": 192,
          "midi": 60,
          "name": "C4",
          "ticks": 51456,
          "time": 83.75,
          "velocity": 0.7874015748031497
        },
        {
          "duration": 0.46875,
          "durationTicks": 288,
          "midi": 25,
          "name": "C#1",
          "ticks": 51456,
          "time": 83.75,
          "velocity": 0.7874015748031497
        },
        {
          "duration": 0.3125,
          "durationTicks": 192,
          "midi": 65,
          "name": "F4",
          "ticks": 51552,
          "time": 83.90625,
          "velocity": 0.7874015748031497
        },
        {
          "duration": 0.3125,
          "durationTicks": 192,
          "midi": 68,
          "name": "G#4",
          "ticks": 51648,
          "time": 84.0625,
          "velocity": 0.7874015748031497
        },
        {
          "duration": 0.46875,
          "durationTicks": 288,
          "midi": 56,
          "name": "G#3",
          "ticks": 51744,
          "time": 84.21875,
          "velocity": 0.7874015748031497
        },
        {
          "duration": 0.46875,
          "durationTicks": 288,
          "midi": 25,
          "name": "C#1",
          "ticks": 51744,
          "time": 84.21875,
          "velocity": 0.7874015748031497
        },
        {
          "duration": 0.3125,
          "durationTicks": 192,
          "midi": 60,
          "name": "C4",
          "ticks": 51744,
          "time": 84.21875,
          "velocity": 0.7874015748031497
        },
        {
          "duration": 0.3125,
          "durationTicks": 192,
          "midi": 65,
          "name": "F4",
          "ticks": 51840,
          "time": 84.375,
          "velocity": 0.7874015748031497
        },
        {
          "duration": 0.3125,
          "durationTicks": 192,
          "midi": 68,
          "name": "G#4",
          "ticks": 51936,
          "time": 84.53125,
          "velocity": 0.7874015748031497
        },
        {
          "duration": 0.3125,
          "durationTicks": 192,
          "midi": 60,
          "name": "C4",
          "ticks": 52032,
          "time": 84.6875,
          "velocity": 0.7874015748031497
        },
        {
          "duration": 0.15625,
          "durationTicks": 96,
          "midi": 53,
          "name": "F3",
          "ticks": 52032,
          "time": 84.6875,
          "velocity": 0.7874015748031497
        },
        {
          "duration": 0.15625,
          "durationTicks": 96,
          "midi": 25,
          "name": "C#1",
          "ticks": 52032,
          "time": 84.6875,
          "velocity": 0.7874015748031497
        },
        {
          "duration": 0.15625,
          "durationTicks": 96,
          "midi": 25,
          "name": "C#1",
          "ticks": 52128,
          "time": 84.84375,
          "velocity": 0.5905511811023622
        },
        {
          "duration": 0.3125,
          "durationTicks": 192,
          "midi": 65,
          "name": "F4",
          "ticks": 52128,
          "time": 84.84375,
          "velocity": 0.7874015748031497
        },
        {
          "duration": 0.15625,
          "durationTicks": 96,
          "midi": 53,
          "name": "F3",
          "ticks": 52140,
          "time": 84.86328125,
          "velocity": 0.5905511811023622
        },
        {
          "duration": 0.46875,
          "durationTicks": 288,
          "midi": 55,
          "name": "G3",
          "ticks": 52224,
          "time": 85,
          "velocity": 0.7874015748031497
        },
        {
          "duration": 0.46875,
          "durationTicks": 288,
          "midi": 27,
          "name": "D#1",
          "ticks": 52224,
          "time": 85,
          "velocity": 0.7874015748031497
        },
        {
          "duration": 0.3125,
          "durationTicks": 192,
          "midi": 60,
          "name": "C4",
          "ticks": 52224,
          "time": 85,
          "velocity": 0.7874015748031497
        },
        {
          "duration": 0.3125,
          "durationTicks": 192,
          "midi": 65,
          "name": "F4",
          "ticks": 52320,
          "time": 85.15625,
          "velocity": 0.7874015748031497
        },
        {
          "duration": 0.3125,
          "durationTicks": 192,
          "midi": 67,
          "name": "G4",
          "ticks": 52416,
          "time": 85.3125,
          "velocity": 0.7874015748031497
        },
        {
          "duration": 0.3125,
          "durationTicks": 192,
          "midi": 60,
          "name": "C4",
          "ticks": 52512,
          "time": 85.46875,
          "velocity": 0.7874015748031497
        },
        {
          "duration": 0.46875,
          "durationTicks": 288,
          "midi": 27,
          "name": "D#1",
          "ticks": 52512,
          "time": 85.46875,
          "velocity": 0.7874015748031497
        },
        {
          "duration": 0.46875,
          "durationTicks": 288,
          "midi": 55,
          "name": "G3",
          "ticks": 52512,
          "time": 85.46875,
          "velocity": 0.7874015748031497
        },
        {
          "duration": 0.3125,
          "durationTicks": 192,
          "midi": 65,
          "name": "F4",
          "ticks": 52608,
          "time": 85.625,
          "velocity": 0.7874015748031497
        },
        {
          "duration": 0.3125,
          "durationTicks": 192,
          "midi": 67,
          "name": "G4",
          "ticks": 52704,
          "time": 85.78125,
          "velocity": 0.7874015748031497
        },
        {
          "duration": 0.15625,
          "durationTicks": 96,
          "midi": 53,
          "name": "F3",
          "ticks": 52800,
          "time": 85.9375,
          "velocity": 0.7874015748031497
        },
        {
          "duration": 0.3125,
          "durationTicks": 192,
          "midi": 27,
          "name": "D#1",
          "ticks": 52800,
          "time": 85.9375,
          "velocity": 0.7874015748031497
        },
        {
          "duration": 0.3125,
          "durationTicks": 192,
          "midi": 60,
          "name": "C4",
          "ticks": 52800,
          "time": 85.9375,
          "velocity": 0.7874015748031497
        },
        {
          "duration": 0.3125,
          "durationTicks": 192,
          "midi": 65,
          "name": "F4",
          "ticks": 52896,
          "time": 86.09375,
          "velocity": 0.7874015748031497
        },
        {
          "duration": 0.15625,
          "durationTicks": 96,
          "midi": 53,
          "name": "F3",
          "ticks": 52908,
          "time": 86.11328125,
          "velocity": 0.5905511811023622
        },
        {
          "duration": 0.46875,
          "durationTicks": 288,
          "midi": 27,
          "name": "D#1",
          "ticks": 52992,
          "time": 86.25,
          "velocity": 0.7874015748031497
        },
        {
          "duration": 0.46875,
          "durationTicks": 288,
          "midi": 55,
          "name": "G3",
          "ticks": 52992,
          "time": 86.25,
          "velocity": 0.7874015748031497
        },
        {
          "duration": 0.3125,
          "durationTicks": 192,
          "midi": 60,
          "name": "C4",
          "ticks": 52992,
          "time": 86.25,
          "velocity": 0.7874015748031497
        },
        {
          "duration": 0.3125,
          "durationTicks": 192,
          "midi": 65,
          "name": "F4",
          "ticks": 53088,
          "time": 86.40625,
          "velocity": 0.7874015748031497
        },
        {
          "duration": 0.3125,
          "durationTicks": 192,
          "midi": 67,
          "name": "G4",
          "ticks": 53184,
          "time": 86.5625,
          "velocity": 0.7874015748031497
        },
        {
          "duration": 0.3125,
          "durationTicks": 192,
          "midi": 60,
          "name": "C4",
          "ticks": 53280,
          "time": 86.71875,
          "velocity": 0.7874015748031497
        },
        {
          "duration": 0.15625,
          "durationTicks": 96,
          "midi": 27,
          "name": "D#1",
          "ticks": 53280,
          "time": 86.71875,
          "velocity": 0.7874015748031497
        },
        {
          "duration": 0.46875,
          "durationTicks": 288,
          "midi": 55,
          "name": "G3",
          "ticks": 53280,
          "time": 86.71875,
          "velocity": 0.7874015748031497
        },
        {
          "duration": 0.3125,
          "durationTicks": 192,
          "midi": 27,
          "name": "D#1",
          "ticks": 53376,
          "time": 86.875,
          "velocity": 0.5905511811023622
        },
        {
          "duration": 0.3125,
          "durationTicks": 192,
          "midi": 65,
          "name": "F4",
          "ticks": 53376,
          "time": 86.875,
          "velocity": 0.7874015748031497
        },
        {
          "duration": 0.3125,
          "durationTicks": 192,
          "midi": 67,
          "name": "G4",
          "ticks": 53472,
          "time": 87.03125,
          "velocity": 0.7874015748031497
        },
        {
          "duration": 0.15625,
          "durationTicks": 96,
          "midi": 27,
          "name": "D#1",
          "ticks": 53568,
          "time": 87.1875,
          "velocity": 0.7874015748031497
        },
        {
          "duration": 0.15625,
          "durationTicks": 96,
          "midi": 53,
          "name": "F3",
          "ticks": 53568,
          "time": 87.1875,
          "velocity": 0.7874015748031497
        },
        {
          "duration": 0.3125,
          "durationTicks": 192,
          "midi": 60,
          "name": "C4",
          "ticks": 53568,
          "time": 87.1875,
          "velocity": 0.7874015748031497
        },
        {
          "duration": 0.15625,
          "durationTicks": 96,
          "midi": 27,
          "name": "D#1",
          "ticks": 53664,
          "time": 87.34375,
          "velocity": 0.5905511811023622
        },
        {
          "duration": 0.3125,
          "durationTicks": 192,
          "midi": 65,
          "name": "F4",
          "ticks": 53664,
          "time": 87.34375,
          "velocity": 0.7874015748031497
        },
        {
          "duration": 0.15625,
          "durationTicks": 96,
          "midi": 53,
          "name": "F3",
          "ticks": 53676,
          "time": 87.36328125,
          "velocity": 0.5905511811023622
        },
        {
          "duration": 0.3125,
          "durationTicks": 192,
          "midi": 60,
          "name": "C4",
          "ticks": 53760,
          "time": 87.5,
          "velocity": 0.7874015748031497
        },
        {
          "duration": 0.46875,
          "durationTicks": 288,
          "midi": 29,
          "name": "F1",
          "ticks": 53760,
          "time": 87.5,
          "velocity": 0.7874015748031497
        },
        {
          "duration": 0.46875,
          "durationTicks": 288,
          "midi": 58,
          "name": "A#3",
          "ticks": 53760,
          "time": 87.5,
          "velocity": 0.7874015748031497
        },
        {
          "duration": 0.3125,
          "durationTicks": 192,
          "midi": 65,
          "name": "F4",
          "ticks": 53856,
          "time": 87.65625,
          "velocity": 0.7874015748031497
        },
        {
          "duration": 0.3125,
          "durationTicks": 192,
          "midi": 70,
          "name": "A#4",
          "ticks": 53952,
          "time": 87.8125,
          "velocity": 0.7874015748031497
        },
        {
          "duration": 0.46875,
          "durationTicks": 288,
          "midi": 58,
          "name": "A#3",
          "ticks": 54048,
          "time": 87.96875,
          "velocity": 0.7874015748031497
        },
        {
          "duration": 0.3125,
          "durationTicks": 192,
          "midi": 60,
          "name": "C4",
          "ticks": 54048,
          "time": 87.96875,
          "velocity": 0.7874015748031497
        },
        {
          "duration": 0.46875,
          "durationTicks": 288,
          "midi": 29,
          "name": "F1",
          "ticks": 54048,
          "time": 87.96875,
          "velocity": 0.7874015748031497
        },
        {
          "duration": 0.3125,
          "durationTicks": 192,
          "midi": 65,
          "name": "F4",
          "ticks": 54144,
          "time": 88.125,
          "velocity": 0.7874015748031497
        },
        {
          "duration": 0.3125,
          "durationTicks": 192,
          "midi": 70,
          "name": "A#4",
          "ticks": 54240,
          "time": 88.28125,
          "velocity": 0.7874015748031497
        },
        {
          "duration": 0.15625,
          "durationTicks": 96,
          "midi": 53,
          "name": "F3",
          "ticks": 54336,
          "time": 88.4375,
          "velocity": 0.7874015748031497
        },
        {
          "duration": 0.15625,
          "durationTicks": 96,
          "midi": 29,
          "name": "F1",
          "ticks": 54336,
          "time": 88.4375,
          "velocity": 0.7874015748031497
        },
        {
          "duration": 0.3125,
          "durationTicks": 192,
          "midi": 60,
          "name": "C4",
          "ticks": 54336,
          "time": 88.4375,
          "velocity": 0.7874015748031497
        },
        {
          "duration": 0.15625,
          "durationTicks": 96,
          "midi": 29,
          "name": "F1",
          "ticks": 54432,
          "time": 88.59375,
          "velocity": 0.5905511811023622
        },
        {
          "duration": 0.3125,
          "durationTicks": 192,
          "midi": 65,
          "name": "F4",
          "ticks": 54432,
          "time": 88.59375,
          "velocity": 0.7874015748031497
        },
        {
          "duration": 0.15625,
          "durationTicks": 96,
          "midi": 53,
          "name": "F3",
          "ticks": 54444,
          "time": 88.61328125,
          "velocity": 0.5905511811023622
        },
        {
          "duration": 0.3125,
          "durationTicks": 192,
          "midi": 60,
          "name": "C4",
          "ticks": 54528,
          "time": 88.75,
          "velocity": 0.7874015748031497
        },
        {
          "duration": 0.46875,
          "durationTicks": 288,
          "midi": 29,
          "name": "F1",
          "ticks": 54528,
          "time": 88.75,
          "velocity": 0.7874015748031497
        },
        {
          "duration": 0.46875,
          "durationTicks": 288,
          "midi": 58,
          "name": "A#3",
          "ticks": 54528,
          "time": 88.75,
          "velocity": 0.7874015748031497
        },
        {
          "duration": 0.3125,
          "durationTicks": 192,
          "midi": 65,
          "name": "F4",
          "ticks": 54624,
          "time": 88.90625,
          "velocity": 0.7874015748031497
        },
        {
          "duration": 0.3125,
          "durationTicks": 192,
          "midi": 70,
          "name": "A#4",
          "ticks": 54720,
          "time": 89.0625,
          "velocity": 0.7874015748031497
        },
        {
          "duration": 0.46875,
          "durationTicks": 288,
          "midi": 58,
          "name": "A#3",
          "ticks": 54816,
          "time": 89.21875,
          "velocity": 0.7874015748031497
        },
        {
          "duration": 0.3125,
          "durationTicks": 192,
          "midi": 60,
          "name": "C4",
          "ticks": 54816,
          "time": 89.21875,
          "velocity": 0.7874015748031497
        },
        {
          "duration": 0.46875,
          "durationTicks": 288,
          "midi": 29,
          "name": "F1",
          "ticks": 54816,
          "time": 89.21875,
          "velocity": 0.7874015748031497
        },
        {
          "duration": 0.3125,
          "durationTicks": 192,
          "midi": 65,
          "name": "F4",
          "ticks": 54912,
          "time": 89.375,
          "velocity": 0.7874015748031497
        },
        {
          "duration": 0.3125,
          "durationTicks": 192,
          "midi": 68,
          "name": "G#4",
          "ticks": 55008,
          "time": 89.53125,
          "velocity": 0.7874015748031497
        },
        {
          "duration": 0.3125,
          "durationTicks": 192,
          "midi": 60,
          "name": "C4",
          "ticks": 55104,
          "time": 89.6875,
          "velocity": 0.7874015748031497
        },
        {
          "duration": 0.15625,
          "durationTicks": 96,
          "midi": 56,
          "name": "G#3",
          "ticks": 55104,
          "time": 89.6875,
          "velocity": 0.7874015748031497
        },
        {
          "duration": 0.15625,
          "durationTicks": 96,
          "midi": 29,
          "name": "F1",
          "ticks": 55104,
          "time": 89.6875,
          "velocity": 0.7874015748031497
        },
        {
          "duration": 0.3125,
          "durationTicks": 192,
          "midi": 67,
          "name": "G4",
          "ticks": 55200,
          "time": 89.84375,
          "velocity": 0.7874015748031497
        },
        {
          "duration": 0.15625,
          "durationTicks": 96,
          "midi": 29,
          "name": "F1",
          "ticks": 55200,
          "time": 89.84375,
          "velocity": 0.5905511811023622
        },
        {
          "duration": 0.15625,
          "durationTicks": 96,
          "midi": 55,
          "name": "G3",
          "ticks": 55236,
          "time": 89.90234375,
          "velocity": 0.7874015748031497
        },
        {
          "duration": 0.3125,
          "durationTicks": 192,
          "midi": 60,
          "name": "C4",
          "ticks": 55296,
          "time": 90,
          "velocity": 0.7874015748031497
        },
        {
          "duration": 0.46875,
          "durationTicks": 288,
          "midi": 55,
          "name": "G3",
          "ticks": 55296,
          "time": 90,
          "velocity": 0.7874015748031497
        },
        {
          "duration": 0.46875,
          "durationTicks": 288,
          "midi": 24,
          "name": "C1",
          "ticks": 55296,
          "time": 90,
          "velocity": 0.7874015748031497
        },
        {
          "duration": 0.3125,
          "durationTicks": 192,
          "midi": 65,
          "name": "F4",
          "ticks": 55392,
          "time": 90.15625,
          "velocity": 0.7874015748031497
        },
        {
          "duration": 0.3125,
          "durationTicks": 192,
          "midi": 67,
          "name": "G4",
          "ticks": 55488,
          "time": 90.3125,
          "velocity": 0.7874015748031497
        },
        {
          "duration": 0.46875,
          "durationTicks": 288,
          "midi": 24,
          "name": "C1",
          "ticks": 55584,
          "time": 90.46875,
          "velocity": 0.7874015748031497
        },
        {
          "duration": 0.46875,
          "durationTicks": 288,
          "midi": 55,
          "name": "G3",
          "ticks": 55584,
          "time": 90.46875,
          "velocity": 0.7874015748031497
        },
        {
          "duration": 0.3125,
          "durationTicks": 192,
          "midi": 60,
          "name": "C4",
          "ticks": 55584,
          "time": 90.46875,
          "velocity": 0.7874015748031497
        },
        {
          "duration": 0.3125,
          "durationTicks": 192,
          "midi": 65,
          "name": "F4",
          "ticks": 55680,
          "time": 90.625,
          "velocity": 0.7874015748031497
        },
        {
          "duration": 0.3125,
          "durationTicks": 192,
          "midi": 67,
          "name": "G4",
          "ticks": 55776,
          "time": 90.78125,
          "velocity": 0.7874015748031497
        },
        {
          "duration": 0.15625,
          "durationTicks": 96,
          "midi": 53,
          "name": "F3",
          "ticks": 55872,
          "time": 90.9375,
          "velocity": 0.7874015748031497
        },
        {
          "duration": 0.3125,
          "durationTicks": 192,
          "midi": 60,
          "name": "C4",
          "ticks": 55872,
          "time": 90.9375,
          "velocity": 0.7874015748031497
        },
        {
          "duration": 0.15625,
          "durationTicks": 96,
          "midi": 24,
          "name": "C1",
          "ticks": 55872,
          "time": 90.9375,
          "velocity": 0.7874015748031497
        },
        {
          "duration": 0.3125,
          "durationTicks": 192,
          "midi": 65,
          "name": "F4",
          "ticks": 55968,
          "time": 91.09375,
          "velocity": 0.7874015748031497
        },
        {
          "duration": 0.15625,
          "durationTicks": 96,
          "midi": 24,
          "name": "C1",
          "ticks": 55968,
          "time": 91.09375,
          "velocity": 0.5905511811023622
        },
        {
          "duration": 0.15625,
          "durationTicks": 96,
          "midi": 53,
          "name": "F3",
          "ticks": 55980,
          "time": 91.11328125,
          "velocity": 0.5905511811023622
        },
        {
          "duration": 0.3125,
          "durationTicks": 192,
          "midi": 60,
          "name": "C4",
          "ticks": 56064,
          "time": 91.25,
          "velocity": 0.7874015748031497
        },
        {
          "duration": 0.46875,
          "durationTicks": 288,
          "midi": 24,
          "name": "C1",
          "ticks": 56064,
          "time": 91.25,
          "velocity": 0.7874015748031497
        },
        {
          "duration": 0.46875,
          "durationTicks": 288,
          "midi": 55,
          "name": "G3",
          "ticks": 56064,
          "time": 91.25,
          "velocity": 0.7874015748031497
        },
        {
          "duration": 0.3125,
          "durationTicks": 192,
          "midi": 65,
          "name": "F4",
          "ticks": 56160,
          "time": 91.40625,
          "velocity": 0.7874015748031497
        },
        {
          "duration": 0.3125,
          "durationTicks": 192,
          "midi": 67,
          "name": "G4",
          "ticks": 56256,
          "time": 91.5625,
          "velocity": 0.7874015748031497
        },
        {
          "duration": 0.46875,
          "durationTicks": 288,
          "midi": 55,
          "name": "G3",
          "ticks": 56352,
          "time": 91.71875,
          "velocity": 0.7874015748031497
        },
        {
          "duration": 0.15625,
          "durationTicks": 96,
          "midi": 24,
          "name": "C1",
          "ticks": 56352,
          "time": 91.71875,
          "velocity": 0.7874015748031497
        },
        {
          "duration": 0.3125,
          "durationTicks": 192,
          "midi": 60,
          "name": "C4",
          "ticks": 56352,
          "time": 91.71875,
          "velocity": 0.7874015748031497
        },
        {
          "duration": 0.3125,
          "durationTicks": 192,
          "midi": 65,
          "name": "F4",
          "ticks": 56448,
          "time": 91.875,
          "velocity": 0.7874015748031497
        },
        {
          "duration": 0.3125,
          "durationTicks": 192,
          "midi": 24,
          "name": "C1",
          "ticks": 56448,
          "time": 91.875,
          "velocity": 0.5905511811023622
        },
        {
          "duration": 0.3125,
          "durationTicks": 192,
          "midi": 67,
          "name": "G4",
          "ticks": 56544,
          "time": 92.03125,
          "velocity": 0.7874015748031497
        },
        {
          "duration": 0.3125,
          "durationTicks": 192,
          "midi": 60,
          "name": "C4",
          "ticks": 56640,
          "time": 92.1875,
          "velocity": 0.7874015748031497
        },
        {
          "duration": 0.15625,
          "durationTicks": 96,
          "midi": 53,
          "name": "F3",
          "ticks": 56640,
          "time": 92.1875,
          "velocity": 0.7874015748031497
        },
        {
          "duration": 0.3125,
          "durationTicks": 192,
          "midi": 24,
          "name": "C1",
          "ticks": 56640,
          "time": 92.1875,
          "velocity": 0.7874015748031497
        },
        {
          "duration": 0.3125,
          "durationTicks": 192,
          "midi": 65,
          "name": "F4",
          "ticks": 56736,
          "time": 92.34375,
          "velocity": 0.7874015748031497
        },
        {
          "duration": 0.15625,
          "durationTicks": 96,
          "midi": 53,
          "name": "F3",
          "ticks": 56748,
          "time": 92.36328125,
          "velocity": 0.5905511811023622
        },
        {
          "duration": 0.3125,
          "durationTicks": 192,
          "midi": 60,
          "name": "C4",
          "ticks": 56832,
          "time": 92.5,
          "velocity": 0.7874015748031497
        },
        {
          "duration": 0.46875,
          "durationTicks": 288,
          "midi": 25,
          "name": "C#1",
          "ticks": 56832,
          "time": 92.5,
          "velocity": 0.7874015748031497
        },
        {
          "duration": 0.46875,
          "durationTicks": 288,
          "midi": 56,
          "name": "G#3",
          "ticks": 56832,
          "time": 92.5,
          "velocity": 0.7874015748031497
        },
        {
          "duration": 0.3125,
          "durationTicks": 192,
          "midi": 65,
          "name": "F4",
          "ticks": 56928,
          "time": 92.65625,
          "velocity": 0.7874015748031497
        },
        {
          "duration": 0.3125,
          "durationTicks": 192,
          "midi": 68,
          "name": "G#4",
          "ticks": 57024,
          "time": 92.8125,
          "velocity": 0.7874015748031497
        },
        {
          "duration": 0.15625,
          "durationTicks": 96,
          "midi": 25,
          "name": "C#1",
          "ticks": 57120,
          "time": 92.96875,
          "velocity": 0.7874015748031497
        },
        {
          "duration": 0.46875,
          "durationTicks": 288,
          "midi": 56,
          "name": "G#3",
          "ticks": 57120,
          "time": 92.96875,
          "velocity": 0.7874015748031497
        },
        {
          "duration": 0.3125,
          "durationTicks": 192,
          "midi": 60,
          "name": "C4",
          "ticks": 57120,
          "time": 92.96875,
          "velocity": 0.7874015748031497
        },
        {
          "duration": 0.3125,
          "durationTicks": 192,
          "midi": 25,
          "name": "C#1",
          "ticks": 57216,
          "time": 93.125,
          "velocity": 0.5905511811023622
        },
        {
          "duration": 0.3125,
          "durationTicks": 192,
          "midi": 65,
          "name": "F4",
          "ticks": 57216,
          "time": 93.125,
          "velocity": 0.7874015748031497
        },
        {
          "duration": 0.3125,
          "durationTicks": 192,
          "midi": 68,
          "name": "G#4",
          "ticks": 57312,
          "time": 93.28125,
          "velocity": 0.7874015748031497
        },
        {
          "duration": 0.15625,
          "durationTicks": 96,
          "midi": 53,
          "name": "F3",
          "ticks": 57408,
          "time": 93.4375,
          "velocity": 0.7874015748031497
        },
        {
          "duration": 0.3125,
          "durationTicks": 192,
          "midi": 25,
          "name": "C#1",
          "ticks": 57408,
          "time": 93.4375,
          "velocity": 0.7874015748031497
        },
        {
          "duration": 0.3125,
          "durationTicks": 192,
          "midi": 60,
          "name": "C4",
          "ticks": 57408,
          "time": 93.4375,
          "velocity": 0.7874015748031497
        },
        {
          "duration": 0.3125,
          "durationTicks": 192,
          "midi": 65,
          "name": "F4",
          "ticks": 57504,
          "time": 93.59375,
          "velocity": 0.7874015748031497
        },
        {
          "duration": 0.15625,
          "durationTicks": 96,
          "midi": 53,
          "name": "F3",
          "ticks": 57516,
          "time": 93.61328125,
          "velocity": 0.5905511811023622
        },
        {
          "duration": 0.46875,
          "durationTicks": 288,
          "midi": 25,
          "name": "C#1",
          "ticks": 57600,
          "time": 93.75,
          "velocity": 0.7874015748031497
        },
        {
          "duration": 0.3125,
          "durationTicks": 192,
          "midi": 60,
          "name": "C4",
          "ticks": 57600,
          "time": 93.75,
          "velocity": 0.7874015748031497
        },
        {
          "duration": 0.46875,
          "durationTicks": 288,
          "midi": 56,
          "name": "G#3",
          "ticks": 57600,
          "time": 93.75,
          "velocity": 0.7874015748031497
        },
        {
          "duration": 0.3125,
          "durationTicks": 192,
          "midi": 65,
          "name": "F4",
          "ticks": 57696,
          "time": 93.90625,
          "velocity": 0.7874015748031497
        },
        {
          "duration": 0.3125,
          "durationTicks": 192,
          "midi": 68,
          "name": "G#4",
          "ticks": 57792,
          "time": 94.0625,
          "velocity": 0.7874015748031497
        },
        {
          "duration": 0.3125,
          "durationTicks": 192,
          "midi": 60,
          "name": "C4",
          "ticks": 57888,
          "time": 94.21875,
          "velocity": 0.7874015748031497
        },
        {
          "duration": 0.46875,
          "durationTicks": 288,
          "midi": 25,
          "name": "C#1",
          "ticks": 57888,
          "time": 94.21875,
          "velocity": 0.7874015748031497
        },
        {
          "duration": 0.46875,
          "durationTicks": 288,
          "midi": 56,
          "name": "G#3",
          "ticks": 57888,
          "time": 94.21875,
          "velocity": 0.7874015748031497
        },
        {
          "duration": 0.3125,
          "durationTicks": 192,
          "midi": 65,
          "name": "F4",
          "ticks": 57984,
          "time": 94.375,
          "velocity": 0.7874015748031497
        },
        {
          "duration": 0.3125,
          "durationTicks": 192,
          "midi": 68,
          "name": "G#4",
          "ticks": 58080,
          "time": 94.53125,
          "velocity": 0.7874015748031497
        },
        {
          "duration": 0.15625,
          "durationTicks": 96,
          "midi": 25,
          "name": "C#1",
          "ticks": 58176,
          "time": 94.6875,
          "velocity": 0.7874015748031497
        },
        {
          "duration": 0.15625,
          "durationTicks": 96,
          "midi": 53,
          "name": "F3",
          "ticks": 58176,
          "time": 94.6875,
          "velocity": 0.7874015748031497
        },
        {
          "duration": 0.3125,
          "durationTicks": 192,
          "midi": 60,
          "name": "C4",
          "ticks": 58176,
          "time": 94.6875,
          "velocity": 0.7874015748031497
        },
        {
          "duration": 0.3125,
          "durationTicks": 192,
          "midi": 65,
          "name": "F4",
          "ticks": 58272,
          "time": 94.84375,
          "velocity": 0.7874015748031497
        },
        {
          "duration": 0.15625,
          "durationTicks": 96,
          "midi": 25,
          "name": "C#1",
          "ticks": 58272,
          "time": 94.84375,
          "velocity": 0.5905511811023622
        },
        {
          "duration": 0.15625,
          "durationTicks": 96,
          "midi": 53,
          "name": "F3",
          "ticks": 58284,
          "time": 94.86328125,
          "velocity": 0.5905511811023622
        },
        {
          "duration": 0.3125,
          "durationTicks": 192,
          "midi": 60,
          "name": "C4",
          "ticks": 58368,
          "time": 95,
          "velocity": 0.7874015748031497
        },
        {
          "duration": 0.46875,
          "durationTicks": 288,
          "midi": 29,
          "name": "F1",
          "ticks": 58368,
          "time": 95,
          "velocity": 0.7874015748031497
        },
        {
          "duration": 0.46875,
          "durationTicks": 288,
          "midi": 55,
          "name": "G3",
          "ticks": 58368,
          "time": 95,
          "velocity": 0.7874015748031497
        },
        {
          "duration": 0.3125,
          "durationTicks": 192,
          "midi": 65,
          "name": "F4",
          "ticks": 58464,
          "time": 95.15625,
          "velocity": 0.7874015748031497
        },
        {
          "duration": 0.3125,
          "durationTicks": 192,
          "midi": 67,
          "name": "G4",
          "ticks": 58560,
          "time": 95.3125,
          "velocity": 0.7874015748031497
        },
        {
          "duration": 0.46875,
          "durationTicks": 288,
          "midi": 55,
          "name": "G3",
          "ticks": 58656,
          "time": 95.46875,
          "velocity": 0.7874015748031497
        },
        {
          "duration": 0.3125,
          "durationTicks": 192,
          "midi": 60,
          "name": "C4",
          "ticks": 58656,
          "time": 95.46875,
          "velocity": 0.7874015748031497
        },
        {
          "duration": 0.46875,
          "durationTicks": 288,
          "midi": 29,
          "name": "F1",
          "ticks": 58656,
          "time": 95.46875,
          "velocity": 0.7874015748031497
        },
        {
          "duration": 0.3125,
          "durationTicks": 192,
          "midi": 65,
          "name": "F4",
          "ticks": 58752,
          "time": 95.625,
          "velocity": 0.7874015748031497
        },
        {
          "duration": 0.3125,
          "durationTicks": 192,
          "midi": 67,
          "name": "G4",
          "ticks": 58848,
          "time": 95.78125,
          "velocity": 0.7874015748031497
        },
        {
          "duration": 0.3125,
          "durationTicks": 192,
          "midi": 60,
          "name": "C4",
          "ticks": 58944,
          "time": 95.9375,
          "velocity": 0.7874015748031497
        },
        {
          "duration": 0.3125,
          "durationTicks": 192,
          "midi": 29,
          "name": "F1",
          "ticks": 58944,
          "time": 95.9375,
          "velocity": 0.7874015748031497
        },
        {
          "duration": 0.15625,
          "durationTicks": 96,
          "midi": 53,
          "name": "F3",
          "ticks": 58944,
          "time": 95.9375,
          "velocity": 0.7874015748031497
        },
        {
          "duration": 0.3125,
          "durationTicks": 192,
          "midi": 65,
          "name": "F4",
          "ticks": 59040,
          "time": 96.09375,
          "velocity": 0.7874015748031497
        },
        {
          "duration": 0.15625,
          "durationTicks": 96,
          "midi": 53,
          "name": "F3",
          "ticks": 59052,
          "time": 96.11328125,
          "velocity": 0.5905511811023622
        },
        {
          "duration": 0.46875,
          "durationTicks": 288,
          "midi": 29,
          "name": "F1",
          "ticks": 59136,
          "time": 96.25,
          "velocity": 0.7874015748031497
        },
        {
          "duration": 0.3125,
          "durationTicks": 192,
          "midi": 60,
          "name": "C4",
          "ticks": 59136,
          "time": 96.25,
          "velocity": 0.7874015748031497
        },
        {
          "duration": 0.46875,
          "durationTicks": 288,
          "midi": 55,
          "name": "G3",
          "ticks": 59136,
          "time": 96.25,
          "velocity": 0.7874015748031497
        },
        {
          "duration": 0.3125,
          "durationTicks": 192,
          "midi": 65,
          "name": "F4",
          "ticks": 59232,
          "time": 96.40625,
          "velocity": 0.7874015748031497
        },
        {
          "duration": 0.3125,
          "durationTicks": 192,
          "midi": 67,
          "name": "G4",
          "ticks": 59328,
          "time": 96.5625,
          "velocity": 0.7874015748031497
        },
        {
          "duration": 0.46875,
          "durationTicks": 288,
          "midi": 55,
          "name": "G3",
          "ticks": 59424,
          "time": 96.71875,
          "velocity": 0.7874015748031497
        },
        {
          "duration": 0.3125,
          "durationTicks": 192,
          "midi": 60,
          "name": "C4",
          "ticks": 59424,
          "time": 96.71875,
          "velocity": 0.7874015748031497
        },
        {
          "duration": 0.15625,
          "durationTicks": 96,
          "midi": 29,
          "name": "F1",
          "ticks": 59424,
          "time": 96.71875,
          "velocity": 0.7874015748031497
        },
        {
          "duration": 0.3125,
          "durationTicks": 192,
          "midi": 29,
          "name": "F1",
          "ticks": 59520,
          "time": 96.875,
          "velocity": 0.5905511811023622
        },
        {
          "duration": 0.3125,
          "durationTicks": 192,
          "midi": 65,
          "name": "F4",
          "ticks": 59520,
          "time": 96.875,
          "velocity": 0.7874015748031497
        },
        {
          "duration": 0.3125,
          "durationTicks": 192,
          "midi": 67,
          "name": "G4",
          "ticks": 59616,
          "time": 97.03125,
          "velocity": 0.7874015748031497
        },
        {
          "duration": 0.15625,
          "durationTicks": 96,
          "midi": 53,
          "name": "F3",
          "ticks": 59712,
          "time": 97.1875,
          "velocity": 0.7874015748031497
        },
        {
          "duration": 0.3125,
          "durationTicks": 192,
          "midi": 60,
          "name": "C4",
          "ticks": 59712,
          "time": 97.1875,
          "velocity": 0.7874015748031497
        },
        {
          "duration": 0.15625,
          "durationTicks": 96,
          "midi": 29,
          "name": "F1",
          "ticks": 59712,
          "time": 97.1875,
          "velocity": 0.7874015748031497
        },
        {
          "duration": 0.15625,
          "durationTicks": 96,
          "midi": 29,
          "name": "F1",
          "ticks": 59808,
          "time": 97.34375,
          "velocity": 0.5905511811023622
        },
        {
          "duration": 0.3125,
          "durationTicks": 192,
          "midi": 65,
          "name": "F4",
          "ticks": 59808,
          "time": 97.34375,
          "velocity": 0.7874015748031497
        },
        {
          "duration": 0.15625,
          "durationTicks": 96,
          "midi": 53,
          "name": "F3",
          "ticks": 59820,
          "time": 97.36328125,
          "velocity": 0.5905511811023622
        },
        {
          "duration": 0.46875,
          "durationTicks": 288,
          "midi": 58,
          "name": "A#3",
          "ticks": 59904,
          "time": 97.5,
          "velocity": 0.7874015748031497
        },
        {
          "duration": 0.3125,
          "durationTicks": 192,
          "midi": 60,
          "name": "C4",
          "ticks": 59904,
          "time": 97.5,
          "velocity": 0.7874015748031497
        },
        {
          "duration": 0.46875,
          "durationTicks": 288,
          "midi": 31,
          "name": "G1",
          "ticks": 59904,
          "time": 97.5,
          "velocity": 0.7874015748031497
        },
        {
          "duration": 0.3125,
          "durationTicks": 192,
          "midi": 65,
          "name": "F4",
          "ticks": 60000,
          "time": 97.65625,
          "velocity": 0.7874015748031497
        },
        {
          "duration": 0.3125,
          "durationTicks": 192,
          "midi": 70,
          "name": "A#4",
          "ticks": 60096,
          "time": 97.8125,
          "velocity": 0.7874015748031497
        },
        {
          "duration": 0.46875,
          "durationTicks": 288,
          "midi": 31,
          "name": "G1",
          "ticks": 60192,
          "time": 97.96875,
          "velocity": 0.7874015748031497
        },
        {
          "duration": 0.46875,
          "durationTicks": 288,
          "midi": 58,
          "name": "A#3",
          "ticks": 60192,
          "time": 97.96875,
          "velocity": 0.7874015748031497
        },
        {
          "duration": 0.3125,
          "durationTicks": 192,
          "midi": 60,
          "name": "C4",
          "ticks": 60192,
          "time": 97.96875,
          "velocity": 0.7874015748031497
        },
        {
          "duration": 0.3125,
          "durationTicks": 192,
          "midi": 65,
          "name": "F4",
          "ticks": 60288,
          "time": 98.125,
          "velocity": 0.7874015748031497
        },
        {
          "duration": 0.3125,
          "durationTicks": 192,
          "midi": 70,
          "name": "A#4",
          "ticks": 60384,
          "time": 98.28125,
          "velocity": 0.7874015748031497
        },
        {
          "duration": 0.3125,
          "durationTicks": 192,
          "midi": 60,
          "name": "C4",
          "ticks": 60480,
          "time": 98.4375,
          "velocity": 0.7874015748031497
        },
        {
          "duration": 0.15625,
          "durationTicks": 96,
          "midi": 31,
          "name": "G1",
          "ticks": 60480,
          "time": 98.4375,
          "velocity": 0.7874015748031497
        },
        {
          "duration": 0.15625,
          "durationTicks": 96,
          "midi": 53,
          "name": "F3",
          "ticks": 60480,
          "time": 98.4375,
          "velocity": 0.7874015748031497
        },
        {
          "duration": 0.15625,
          "durationTicks": 96,
          "midi": 31,
          "name": "G1",
          "ticks": 60576,
          "time": 98.59375,
          "velocity": 0.5905511811023622
        },
        {
          "duration": 0.3125,
          "durationTicks": 192,
          "midi": 65,
          "name": "F4",
          "ticks": 60576,
          "time": 98.59375,
          "velocity": 0.7874015748031497
        },
        {
          "duration": 0.15625,
          "durationTicks": 96,
          "midi": 53,
          "name": "F3",
          "ticks": 60588,
          "time": 98.61328125,
          "velocity": 0.5905511811023622
        },
        {
          "duration": 0.46875,
          "durationTicks": 288,
          "midi": 58,
          "name": "A#3",
          "ticks": 60672,
          "time": 98.75,
          "velocity": 0.7874015748031497
        },
        {
          "duration": 0.3125,
          "durationTicks": 192,
          "midi": 60,
          "name": "C4",
          "ticks": 60672,
          "time": 98.75,
          "velocity": 0.7874015748031497
        },
        {
          "duration": 0.46875,
          "durationTicks": 288,
          "midi": 32,
          "name": "G#1",
          "ticks": 60672,
          "time": 98.75,
          "velocity": 0.7874015748031497
        },
        {
          "duration": 0.3125,
          "durationTicks": 192,
          "midi": 65,
          "name": "F4",
          "ticks": 60768,
          "time": 98.90625,
          "velocity": 0.7874015748031497
        },
        {
          "duration": 0.3125,
          "durationTicks": 192,
          "midi": 70,
          "name": "A#4",
          "ticks": 60864,
          "time": 99.0625,
          "velocity": 0.7874015748031497
        },
        {
          "duration": 0.3125,
          "durationTicks": 192,
          "midi": 60,
          "name": "C4",
          "ticks": 60960,
          "time": 99.21875,
          "velocity": 0.7874015748031497
        },
        {
          "duration": 0.46875,
          "durationTicks": 288,
          "midi": 32,
          "name": "G#1",
          "ticks": 60960,
          "time": 99.21875,
          "velocity": 0.7874015748031497
        },
        {
          "duration": 0.46875,
          "durationTicks": 288,
          "midi": 58,
          "name": "A#3",
          "ticks": 60960,
          "time": 99.21875,
          "velocity": 0.7874015748031497
        },
        {
          "duration": 0.3125,
          "durationTicks": 192,
          "midi": 65,
          "name": "F4",
          "ticks": 61056,
          "time": 99.375,
          "velocity": 0.7874015748031497
        },
        {
          "duration": 0.3125,
          "durationTicks": 192,
          "midi": 68,
          "name": "G#4",
          "ticks": 61152,
          "time": 99.53125,
          "velocity": 0.7874015748031497
        },
        {
          "duration": 0.3125,
          "durationTicks": 192,
          "midi": 60,
          "name": "C4",
          "ticks": 61248,
          "time": 99.6875,
          "velocity": 0.7874015748031497
        },
        {
          "duration": 0.15625,
          "durationTicks": 96,
          "midi": 56,
          "name": "G#3",
          "ticks": 61248,
          "time": 99.6875,
          "velocity": 0.7874015748031497
        },
        {
          "duration": 0.15625,
          "durationTicks": 96,
          "midi": 34,
          "name": "A#1",
          "ticks": 61248,
          "time": 99.6875,
          "velocity": 0.7874015748031497
        },
        {
          "duration": 0.15625,
          "durationTicks": 96,
          "midi": 36,
          "name": "C2",
          "ticks": 61344,
          "time": 99.84375,
          "velocity": 0.5905511811023622
        },
        {
          "duration": 0.3125,
          "durationTicks": 192,
          "midi": 67,
          "name": "G4",
          "ticks": 61344,
          "time": 99.84375,
          "velocity": 0.7874015748031497
        },
        {
          "duration": 0.15625,
          "durationTicks": 96,
          "midi": 55,
          "name": "G3",
          "ticks": 61380,
          "time": 99.90234375,
          "velocity": 0.7874015748031497
        },
        {
          "duration": 0.3125,
          "durationTicks": 192,
          "midi": 60,
          "name": "C4",
          "ticks": 61440,
          "time": 100,
          "velocity": 0.7874015748031497
        },
        {
          "duration": 0.46875,
          "durationTicks": 288,
          "midi": 24,
          "name": "C1",
          "ticks": 61440,
          "time": 100,
          "velocity": 0.7874015748031497
        },
        {
          "duration": 0.46875,
          "durationTicks": 288,
          "midi": 55,
          "name": "G3",
          "ticks": 61440,
          "time": 100,
          "velocity": 0.7874015748031497
        },
        {
          "duration": 0.3125,
          "durationTicks": 192,
          "midi": 65,
          "name": "F4",
          "ticks": 61536,
          "time": 100.15625,
          "velocity": 0.7874015748031497
        },
        {
          "duration": 0.3125,
          "durationTicks": 192,
          "midi": 67,
          "name": "G4",
          "ticks": 61632,
          "time": 100.3125,
          "velocity": 0.7874015748031497
        },
        {
          "duration": 0.46875,
          "durationTicks": 288,
          "midi": 24,
          "name": "C1",
          "ticks": 61728,
          "time": 100.46875,
          "velocity": 0.7874015748031497
        },
        {
          "duration": 0.46875,
          "durationTicks": 288,
          "midi": 55,
          "name": "G3",
          "ticks": 61728,
          "time": 100.46875,
          "velocity": 0.7874015748031497
        },
        {
          "duration": 0.3125,
          "durationTicks": 192,
          "midi": 60,
          "name": "C4",
          "ticks": 61728,
          "time": 100.46875,
          "velocity": 0.7874015748031497
        },
        {
          "duration": 0.3125,
          "durationTicks": 192,
          "midi": 65,
          "name": "F4",
          "ticks": 61824,
          "time": 100.625,
          "velocity": 0.7874015748031497
        },
        {
          "duration": 0.3125,
          "durationTicks": 192,
          "midi": 67,
          "name": "G4",
          "ticks": 61920,
          "time": 100.78125,
          "velocity": 0.7874015748031497
        },
        {
          "duration": 0.15625,
          "durationTicks": 96,
          "midi": 24,
          "name": "C1",
          "ticks": 62016,
          "time": 100.9375,
          "velocity": 0.7874015748031497
        },
        {
          "duration": 0.15625,
          "durationTicks": 96,
          "midi": 53,
          "name": "F3",
          "ticks": 62016,
          "time": 100.9375,
          "velocity": 0.7874015748031497
        },
        {
          "duration": 0.3125,
          "durationTicks": 192,
          "midi": 60,
          "name": "C4",
          "ticks": 62016,
          "time": 100.9375,
          "velocity": 0.7874015748031497
        },
        {
          "duration": 0.3125,
          "durationTicks": 192,
          "midi": 65,
          "name": "F4",
          "ticks": 62112,
          "time": 101.09375,
          "velocity": 0.7874015748031497
        },
        {
          "duration": 0.15625,
          "durationTicks": 96,
          "midi": 24,
          "name": "C1",
          "ticks": 62112,
          "time": 101.09375,
          "velocity": 0.5905511811023622
        },
        {
          "duration": 0.15625,
          "durationTicks": 96,
          "midi": 53,
          "name": "F3",
          "ticks": 62124,
          "time": 101.11328125,
          "velocity": 0.5905511811023622
        },
        {
          "duration": 0.3125,
          "durationTicks": 192,
          "midi": 60,
          "name": "C4",
          "ticks": 62208,
          "time": 101.25,
          "velocity": 0.7874015748031497
        },
        {
          "duration": 0.46875,
          "durationTicks": 288,
          "midi": 55,
          "name": "G3",
          "ticks": 62208,
          "time": 101.25,
          "velocity": 0.7874015748031497
        },
        {
          "duration": 0.46875,
          "durationTicks": 288,
          "midi": 24,
          "name": "C1",
          "ticks": 62208,
          "time": 101.25,
          "velocity": 0.7874015748031497
        },
        {
          "duration": 0.3125,
          "durationTicks": 192,
          "midi": 65,
          "name": "F4",
          "ticks": 62304,
          "time": 101.40625,
          "velocity": 0.7874015748031497
        },
        {
          "duration": 0.3125,
          "durationTicks": 192,
          "midi": 67,
          "name": "G4",
          "ticks": 62400,
          "time": 101.5625,
          "velocity": 0.7874015748031497
        },
        {
          "duration": 0.15625,
          "durationTicks": 96,
          "midi": 24,
          "name": "C1",
          "ticks": 62496,
          "time": 101.71875,
          "velocity": 0.7874015748031497
        },
        {
          "duration": 0.3125,
          "durationTicks": 192,
          "midi": 60,
          "name": "C4",
          "ticks": 62496,
          "time": 101.71875,
          "velocity": 0.7874015748031497
        },
        {
          "duration": 0.46875,
          "durationTicks": 288,
          "midi": 55,
          "name": "G3",
          "ticks": 62496,
          "time": 101.71875,
          "velocity": 0.7874015748031497
        },
        {
          "duration": 0.3125,
          "durationTicks": 192,
          "midi": 65,
          "name": "F4",
          "ticks": 62592,
          "time": 101.875,
          "velocity": 0.7874015748031497
        },
        {
          "duration": 0.3125,
          "durationTicks": 192,
          "midi": 24,
          "name": "C1",
          "ticks": 62592,
          "time": 101.875,
          "velocity": 0.5905511811023622
        },
        {
          "duration": 0.3125,
          "durationTicks": 192,
          "midi": 67,
          "name": "G4",
          "ticks": 62688,
          "time": 102.03125,
          "velocity": 0.7874015748031497
        },
        {
          "duration": 0.15625,
          "durationTicks": 96,
          "midi": 53,
          "name": "F3",
          "ticks": 62784,
          "time": 102.1875,
          "velocity": 0.7874015748031497
        },
        {
          "duration": 0.3125,
          "durationTicks": 192,
          "midi": 24,
          "name": "C1",
          "ticks": 62784,
          "time": 102.1875,
          "velocity": 0.7874015748031497
        },
        {
          "duration": 0.3125,
          "durationTicks": 192,
          "midi": 60,
          "name": "C4",
          "ticks": 62784,
          "time": 102.1875,
          "velocity": 0.7874015748031497
        },
        {
          "duration": 0.3125,
          "durationTicks": 192,
          "midi": 65,
          "name": "F4",
          "ticks": 62880,
          "time": 102.34375,
          "velocity": 0.7874015748031497
        },
        {
          "duration": 0.15625,
          "durationTicks": 96,
          "midi": 53,
          "name": "F3",
          "ticks": 62892,
          "time": 102.36328125,
          "velocity": 0.5905511811023622
        },
        {
          "duration": 0.3125,
          "durationTicks": 192,
          "midi": 60,
          "name": "C4",
          "ticks": 62976,
          "time": 102.5,
          "velocity": 0.7874015748031497
        },
        {
          "duration": 0.46875,
          "durationTicks": 288,
          "midi": 25,
          "name": "C#1",
          "ticks": 62976,
          "time": 102.5,
          "velocity": 0.7874015748031497
        },
        {
          "duration": 0.46875,
          "durationTicks": 288,
          "midi": 56,
          "name": "G#3",
          "ticks": 62976,
          "time": 102.5,
          "velocity": 0.7874015748031497
        },
        {
          "duration": 0.3125,
          "durationTicks": 192,
          "midi": 65,
          "name": "F4",
          "ticks": 63072,
          "time": 102.65625,
          "velocity": 0.7874015748031497
        },
        {
          "duration": 0.3125,
          "durationTicks": 192,
          "midi": 68,
          "name": "G#4",
          "ticks": 63168,
          "time": 102.8125,
          "velocity": 0.7874015748031497
        },
        {
          "duration": 0.46875,
          "durationTicks": 288,
          "midi": 56,
          "name": "G#3",
          "ticks": 63264,
          "time": 102.96875,
          "velocity": 0.7874015748031497
        },
        {
          "duration": 0.15625,
          "durationTicks": 96,
          "midi": 25,
          "name": "C#1",
          "ticks": 63264,
          "time": 102.96875,
          "velocity": 0.7874015748031497
        },
        {
          "duration": 0.3125,
          "durationTicks": 192,
          "midi": 60,
          "name": "C4",
          "ticks": 63264,
          "time": 102.96875,
          "velocity": 0.7874015748031497
        },
        {
          "duration": 0.3125,
          "durationTicks": 192,
          "midi": 65,
          "name": "F4",
          "ticks": 63360,
          "time": 103.125,
          "velocity": 0.7874015748031497
        },
        {
          "duration": 0.3125,
          "durationTicks": 192,
          "midi": 25,
          "name": "C#1",
          "ticks": 63360,
          "time": 103.125,
          "velocity": 0.5905511811023622
        },
        {
          "duration": 0.3125,
          "durationTicks": 192,
          "midi": 68,
          "name": "G#4",
          "ticks": 63456,
          "time": 103.28125,
          "velocity": 0.7874015748031497
        },
        {
          "duration": 0.15625,
          "durationTicks": 96,
          "midi": 53,
          "name": "F3",
          "ticks": 63552,
          "time": 103.4375,
          "velocity": 0.7874015748031497
        },
        {
          "duration": 0.3125,
          "durationTicks": 192,
          "midi": 25,
          "name": "C#1",
          "ticks": 63552,
          "time": 103.4375,
          "velocity": 0.7874015748031497
        },
        {
          "duration": 0.3125,
          "durationTicks": 192,
          "midi": 60,
          "name": "C4",
          "ticks": 63552,
          "time": 103.4375,
          "velocity": 0.7874015748031497
        },
        {
          "duration": 0.3125,
          "durationTicks": 192,
          "midi": 65,
          "name": "F4",
          "ticks": 63648,
          "time": 103.59375,
          "velocity": 0.7874015748031497
        },
        {
          "duration": 0.15625,
          "durationTicks": 96,
          "midi": 53,
          "name": "F3",
          "ticks": 63660,
          "time": 103.61328125,
          "velocity": 0.5905511811023622
        },
        {
          "duration": 0.46875,
          "durationTicks": 288,
          "midi": 56,
          "name": "G#3",
          "ticks": 63744,
          "time": 103.75,
          "velocity": 0.7874015748031497
        },
        {
          "duration": 0.3125,
          "durationTicks": 192,
          "midi": 60,
          "name": "C4",
          "ticks": 63744,
          "time": 103.75,
          "velocity": 0.7874015748031497
        },
        {
          "duration": 0.46875,
          "durationTicks": 288,
          "midi": 25,
          "name": "C#1",
          "ticks": 63744,
          "time": 103.75,
          "velocity": 0.7874015748031497
        },
        {
          "duration": 0.3125,
          "durationTicks": 192,
          "midi": 65,
          "name": "F4",
          "ticks": 63840,
          "time": 103.90625,
          "velocity": 0.7874015748031497
        },
        {
          "duration": 0.3125,
          "durationTicks": 192,
          "midi": 68,
          "name": "G#4",
          "ticks": 63936,
          "time": 104.0625,
          "velocity": 0.7874015748031497
        },
        {
          "duration": 0.46875,
          "durationTicks": 288,
          "midi": 56,
          "name": "G#3",
          "ticks": 64032,
          "time": 104.21875,
          "velocity": 0.7874015748031497
        },
        {
          "duration": 0.46875,
          "durationTicks": 288,
          "midi": 25,
          "name": "C#1",
          "ticks": 64032,
          "time": 104.21875,
          "velocity": 0.7874015748031497
        },
        {
          "duration": 0.3125,
          "durationTicks": 192,
          "midi": 60,
          "name": "C4",
          "ticks": 64032,
          "time": 104.21875,
          "velocity": 0.7874015748031497
        },
        {
          "duration": 0.3125,
          "durationTicks": 192,
          "midi": 65,
          "name": "F4",
          "ticks": 64128,
          "time": 104.375,
          "velocity": 0.7874015748031497
        },
        {
          "duration": 0.3125,
          "durationTicks": 192,
          "midi": 68,
          "name": "G#4",
          "ticks": 64224,
          "time": 104.53125,
          "velocity": 0.7874015748031497
        },
        {
          "duration": 0.15625,
          "durationTicks": 96,
          "midi": 53,
          "name": "F3",
          "ticks": 64320,
          "time": 104.6875,
          "velocity": 0.7874015748031497
        },
        {
          "duration": 0.3125,
          "durationTicks": 192,
          "midi": 60,
          "name": "C4",
          "ticks": 64320,
          "time": 104.6875,
          "velocity": 0.7874015748031497
        },
        {
          "duration": 0.15625,
          "durationTicks": 96,
          "midi": 25,
          "name": "C#1",
          "ticks": 64320,
          "time": 104.6875,
          "velocity": 0.7874015748031497
        },
        {
          "duration": 0.3125,
          "durationTicks": 192,
          "midi": 65,
          "name": "F4",
          "ticks": 64416,
          "time": 104.84375,
          "velocity": 0.7874015748031497
        },
        {
          "duration": 0.15625,
          "durationTicks": 96,
          "midi": 25,
          "name": "C#1",
          "ticks": 64416,
          "time": 104.84375,
          "velocity": 0.5905511811023622
        },
        {
          "duration": 0.15625,
          "durationTicks": 96,
          "midi": 53,
          "name": "F3",
          "ticks": 64428,
          "time": 104.86328125,
          "velocity": 0.5905511811023622
        },
        {
          "duration": 0.46875,
          "durationTicks": 288,
          "midi": 55,
          "name": "G3",
          "ticks": 64512,
          "time": 105,
          "velocity": 0.7874015748031497
        },
        {
          "duration": 0.3125,
          "durationTicks": 192,
          "midi": 60,
          "name": "C4",
          "ticks": 64512,
          "time": 105,
          "velocity": 0.7874015748031497
        },
        {
          "duration": 0.46875,
          "durationTicks": 288,
          "midi": 30,
          "name": "F#1",
          "ticks": 64512,
          "time": 105,
          "velocity": 0.7874015748031497
        },
        {
          "duration": 0.3125,
          "durationTicks": 192,
          "midi": 65,
          "name": "F4",
          "ticks": 64608,
          "time": 105.15625,
          "velocity": 0.7874015748031497
        },
        {
          "duration": 0.3125,
          "durationTicks": 192,
          "midi": 67,
          "name": "G4",
          "ticks": 64704,
          "time": 105.3125,
          "velocity": 0.7874015748031497
        },
        {
          "duration": 0.3125,
          "durationTicks": 192,
          "midi": 60,
          "name": "C4",
          "ticks": 64800,
          "time": 105.46875,
          "velocity": 0.7874015748031497
        },
        {
          "duration": 0.46875,
          "durationTicks": 288,
          "midi": 30,
          "name": "F#1",
          "ticks": 64800,
          "time": 105.46875,
          "velocity": 0.7874015748031497
        },
        {
          "duration": 0.46875,
          "durationTicks": 288,
          "midi": 55,
          "name": "G3",
          "ticks": 64800,
          "time": 105.46875,
          "velocity": 0.7874015748031497
        },
        {
          "duration": 0.3125,
          "durationTicks": 192,
          "midi": 65,
          "name": "F4",
          "ticks": 64896,
          "time": 105.625,
          "velocity": 0.7874015748031497
        },
        {
          "duration": 0.3125,
          "durationTicks": 192,
          "midi": 67,
          "name": "G4",
          "ticks": 64992,
          "time": 105.78125,
          "velocity": 0.7874015748031497
        },
        {
          "duration": 0.15625,
          "durationTicks": 96,
          "midi": 53,
          "name": "F3",
          "ticks": 65088,
          "time": 105.9375,
          "velocity": 0.7874015748031497
        },
        {
          "duration": 0.3125,
          "durationTicks": 192,
          "midi": 60,
          "name": "C4",
          "ticks": 65088,
          "time": 105.9375,
          "velocity": 0.7874015748031497
        },
        {
          "duration": 0.15625,
          "durationTicks": 96,
          "midi": 30,
          "name": "F#1",
          "ticks": 65088,
          "time": 105.9375,
          "velocity": 0.7874015748031497
        },
        {
          "duration": 0.15625,
          "durationTicks": 96,
          "midi": 30,
          "name": "F#1",
          "ticks": 65184,
          "time": 106.09375,
          "velocity": 0.5905511811023622
        },
        {
          "duration": 0.3125,
          "durationTicks": 192,
          "midi": 65,
          "name": "F4",
          "ticks": 65184,
          "time": 106.09375,
          "velocity": 0.7874015748031497
        },
        {
          "duration": 0.15625,
          "durationTicks": 96,
          "midi": 53,
          "name": "F3",
          "ticks": 65196,
          "time": 106.11328125,
          "velocity": 0.5905511811023622
        },
        {
          "duration": 0.46875,
          "durationTicks": 288,
          "midi": 55,
          "name": "G3",
          "ticks": 65280,
          "time": 106.25,
          "velocity": 0.7874015748031497
        },
        {
          "duration": 0.3125,
          "durationTicks": 192,
          "midi": 60,
          "name": "C4",
          "ticks": 65280,
          "time": 106.25,
          "velocity": 0.7874015748031497
        },
        {
          "duration": 0.46875,
          "durationTicks": 288,
          "midi": 30,
          "name": "F#1",
          "ticks": 65280,
          "time": 106.25,
          "velocity": 0.7874015748031497
        },
        {
          "duration": 0.3125,
          "durationTicks": 192,
          "midi": 65,
          "name": "F4",
          "ticks": 65376,
          "time": 106.40625,
          "velocity": 0.7874015748031497
        },
        {
          "duration": 0.3125,
          "durationTicks": 192,
          "midi": 67,
          "name": "G4",
          "ticks": 65472,
          "time": 106.5625,
          "velocity": 0.7874015748031497
        },
        {
          "duration": 0.46875,
          "durationTicks": 288,
          "midi": 30,
          "name": "F#1",
          "ticks": 65568,
          "time": 106.71875,
          "velocity": 0.7874015748031497
        },
        {
          "duration": 0.46875,
          "durationTicks": 288,
          "midi": 55,
          "name": "G3",
          "ticks": 65568,
          "time": 106.71875,
          "velocity": 0.7874015748031497
        },
        {
          "duration": 0.3125,
          "durationTicks": 192,
          "midi": 60,
          "name": "C4",
          "ticks": 65568,
          "time": 106.71875,
          "velocity": 0.7874015748031497
        },
        {
          "duration": 0.3125,
          "durationTicks": 192,
          "midi": 65,
          "name": "F4",
          "ticks": 65664,
          "time": 106.875,
          "velocity": 0.7874015748031497
        },
        {
          "duration": 0.3125,
          "durationTicks": 192,
          "midi": 67,
          "name": "G4",
          "ticks": 65760,
          "time": 107.03125,
          "velocity": 0.7874015748031497
        },
        {
          "duration": 0.15625,
          "durationTicks": 96,
          "midi": 53,
          "name": "F3",
          "ticks": 65856,
          "time": 107.1875,
          "velocity": 0.7874015748031497
        },
        {
          "duration": 0.3125,
          "durationTicks": 192,
          "midi": 60,
          "name": "C4",
          "ticks": 65856,
          "time": 107.1875,
          "velocity": 0.7874015748031497
        },
        {
          "duration": 0.15625,
          "durationTicks": 96,
          "midi": 30,
          "name": "F#1",
          "ticks": 65856,
          "time": 107.1875,
          "velocity": 0.7874015748031497
        },
        {
          "duration": 0.3125,
          "durationTicks": 192,
          "midi": 65,
          "name": "F4",
          "ticks": 65952,
          "time": 107.34375,
          "velocity": 0.7874015748031497
        },
        {
          "duration": 0.15625,
          "durationTicks": 96,
          "midi": 30,
          "name": "F#1",
          "ticks": 65952,
          "time": 107.34375,
          "velocity": 0.5905511811023622
        },
        {
          "duration": 0.15625,
          "durationTicks": 96,
          "midi": 53,
          "name": "F3",
          "ticks": 65964,
          "time": 107.36328125,
          "velocity": 0.5905511811023622
        },
        {
          "duration": 0.46875,
          "durationTicks": 288,
          "midi": 27,
          "name": "D#1",
          "ticks": 66048,
          "time": 107.5,
          "velocity": 0.7874015748031497
        },
        {
          "duration": 0.46875,
          "durationTicks": 288,
          "midi": 58,
          "name": "A#3",
          "ticks": 66048,
          "time": 107.5,
          "velocity": 0.7874015748031497
        },
        {
          "duration": 0.3125,
          "durationTicks": 192,
          "midi": 60,
          "name": "C4",
          "ticks": 66048,
          "time": 107.5,
          "velocity": 0.7874015748031497
        },
        {
          "duration": 0.3125,
          "durationTicks": 192,
          "midi": 65,
          "name": "F4",
          "ticks": 66144,
          "time": 107.65625,
          "velocity": 0.7874015748031497
        },
        {
          "duration": 0.3125,
          "durationTicks": 192,
          "midi": 70,
          "name": "A#4",
          "ticks": 66240,
          "time": 107.8125,
          "velocity": 0.7874015748031497
        },
        {
          "duration": 0.46875,
          "durationTicks": 288,
          "midi": 58,
          "name": "A#3",
          "ticks": 66336,
          "time": 107.96875,
          "velocity": 0.7874015748031497
        },
        {
          "duration": 0.46875,
          "durationTicks": 288,
          "midi": 27,
          "name": "D#1",
          "ticks": 66336,
          "time": 107.96875,
          "velocity": 0.7874015748031497
        },
        {
          "duration": 0.3125,
          "durationTicks": 192,
          "midi": 60,
          "name": "C4",
          "ticks": 66336,
          "time": 107.96875,
          "velocity": 0.7874015748031497
        },
        {
          "duration": 0.3125,
          "durationTicks": 192,
          "midi": 65,
          "name": "F4",
          "ticks": 66432,
          "time": 108.125,
          "velocity": 0.7874015748031497
        },
        {
          "duration": 0.3125,
          "durationTicks": 192,
          "midi": 70,
          "name": "A#4",
          "ticks": 66528,
          "time": 108.28125,
          "velocity": 0.7874015748031497
        },
        {
          "duration": 0.3125,
          "durationTicks": 192,
          "midi": 27,
          "name": "D#1",
          "ticks": 66624,
          "time": 108.4375,
          "velocity": 0.7874015748031497
        },
        {
          "duration": 0.3125,
          "durationTicks": 192,
          "midi": 60,
          "name": "C4",
          "ticks": 66624,
          "time": 108.4375,
          "velocity": 0.7874015748031497
        },
        {
          "duration": 0.15625,
          "durationTicks": 96,
          "midi": 53,
          "name": "F3",
          "ticks": 66624,
          "time": 108.4375,
          "velocity": 0.7874015748031497
        },
        {
          "duration": 0.3125,
          "durationTicks": 192,
          "midi": 65,
          "name": "F4",
          "ticks": 66720,
          "time": 108.59375,
          "velocity": 0.7874015748031497
        },
        {
          "duration": 0.15625,
          "durationTicks": 96,
          "midi": 53,
          "name": "F3",
          "ticks": 66732,
          "time": 108.61328125,
          "velocity": 0.5905511811023622
        },
        {
          "duration": 0.3125,
          "durationTicks": 192,
          "midi": 60,
          "name": "C4",
          "ticks": 66816,
          "time": 108.75,
          "velocity": 0.7874015748031497
        },
        {
          "duration": 0.46875,
          "durationTicks": 288,
          "midi": 27,
          "name": "D#1",
          "ticks": 66816,
          "time": 108.75,
          "velocity": 0.7874015748031497
        },
        {
          "duration": 0.46875,
          "durationTicks": 288,
          "midi": 58,
          "name": "A#3",
          "ticks": 66816,
          "time": 108.75,
          "velocity": 0.7874015748031497
        },
        {
          "duration": 0.3125,
          "durationTicks": 192,
          "midi": 65,
          "name": "F4",
          "ticks": 66912,
          "time": 108.90625,
          "velocity": 0.7874015748031497
        },
        {
          "duration": 0.3125,
          "durationTicks": 192,
          "midi": 70,
          "name": "A#4",
          "ticks": 67008,
          "time": 109.0625,
          "velocity": 0.7874015748031497
        },
        {
          "duration": 0.15625,
          "durationTicks": 96,
          "midi": 27,
          "name": "D#1",
          "ticks": 67104,
          "time": 109.21875,
          "velocity": 0.7874015748031497
        },
        {
          "duration": 0.3125,
          "durationTicks": 192,
          "midi": 60,
          "name": "C4",
          "ticks": 67104,
          "time": 109.21875,
          "velocity": 0.7874015748031497
        },
        {
          "duration": 0.46875,
          "durationTicks": 288,
          "midi": 58,
          "name": "A#3",
          "ticks": 67104,
          "time": 109.21875,
          "velocity": 0.7874015748031497
        },
        {
          "duration": 0.3125,
          "durationTicks": 192,
          "midi": 27,
          "name": "D#1",
          "ticks": 67200,
          "time": 109.375,
          "velocity": 0.5905511811023622
        },
        {
          "duration": 0.3125,
          "durationTicks": 192,
          "midi": 65,
          "name": "F4",
          "ticks": 67200,
          "time": 109.375,
          "velocity": 0.7874015748031497
        },
        {
          "duration": 0.3125,
          "durationTicks": 192,
          "midi": 68,
          "name": "G#4",
          "ticks": 67296,
          "time": 109.53125,
          "velocity": 0.7874015748031497
        },
        {
          "duration": 0.3125,
          "durationTicks": 192,
          "midi": 60,
          "name": "C4",
          "ticks": 67392,
          "time": 109.6875,
          "velocity": 0.7874015748031497
        },
        {
          "duration": 0.15625,
          "durationTicks": 96,
          "midi": 56,
          "name": "G#3",
          "ticks": 67392,
          "time": 109.6875,
          "velocity": 0.7874015748031497
        },
        {
          "duration": 0.15625,
          "durationTicks": 96,
          "midi": 27,
          "name": "D#1",
          "ticks": 67392,
          "time": 109.6875,
          "velocity": 0.7874015748031497
        },
        {
          "duration": 0.15625,
          "durationTicks": 96,
          "midi": 27,
          "name": "D#1",
          "ticks": 67488,
          "time": 109.84375,
          "velocity": 0.5905511811023622
        },
        {
          "duration": 0.3125,
          "durationTicks": 192,
          "midi": 67,
          "name": "G4",
          "ticks": 67488,
          "time": 109.84375,
          "velocity": 0.7874015748031497
        },
        {
          "duration": 0.15625,
          "durationTicks": 96,
          "midi": 55,
          "name": "G3",
          "ticks": 67524,
          "time": 109.90234375,
          "velocity": 0.7874015748031497
        },
        {
          "duration": 0.46875,
          "durationTicks": 288,
          "midi": 24,
          "name": "C1",
          "ticks": 67584,
          "time": 110,
          "velocity": 0.7874015748031497
        },
        {
          "duration": 0.3125,
          "durationTicks": 192,
          "midi": 60,
          "name": "C4",
          "ticks": 67584,
          "time": 110,
          "velocity": 0.7874015748031497
        },
        {
          "duration": 0.46875,
          "durationTicks": 288,
          "midi": 55,
          "name": "G3",
          "ticks": 67584,
          "time": 110,
          "velocity": 0.7874015748031497
        },
        {
          "duration": 0.3125,
          "durationTicks": 192,
          "midi": 65,
          "name": "F4",
          "ticks": 67680,
          "time": 110.15625,
          "velocity": 0.7874015748031497
        },
        {
          "duration": 0.3125,
          "durationTicks": 192,
          "midi": 67,
          "name": "G4",
          "ticks": 67776,
          "time": 110.3125,
          "velocity": 0.7874015748031497
        },
        {
          "duration": 0.46875,
          "durationTicks": 288,
          "midi": 55,
          "name": "G3",
          "ticks": 67872,
          "time": 110.46875,
          "velocity": 0.7874015748031497
        },
        {
          "duration": 0.3125,
          "durationTicks": 192,
          "midi": 60,
          "name": "C4",
          "ticks": 67872,
          "time": 110.46875,
          "velocity": 0.7874015748031497
        },
        {
          "duration": 0.46875,
          "durationTicks": 288,
          "midi": 24,
          "name": "C1",
          "ticks": 67872,
          "time": 110.46875,
          "velocity": 0.7874015748031497
        },
        {
          "duration": 0.3125,
          "durationTicks": 192,
          "midi": 65,
          "name": "F4",
          "ticks": 67968,
          "time": 110.625,
          "velocity": 0.7874015748031497
        },
        {
          "duration": 0.3125,
          "durationTicks": 192,
          "midi": 67,
          "name": "G4",
          "ticks": 68064,
          "time": 110.78125,
          "velocity": 0.7874015748031497
        },
        {
          "duration": 0.15625,
          "durationTicks": 96,
          "midi": 53,
          "name": "F3",
          "ticks": 68160,
          "time": 110.9375,
          "velocity": 0.7874015748031497
        },
        {
          "duration": 0.15625,
          "durationTicks": 96,
          "midi": 24,
          "name": "C1",
          "ticks": 68160,
          "time": 110.9375,
          "velocity": 0.7874015748031497
        },
        {
          "duration": 0.3125,
          "durationTicks": 192,
          "midi": 60,
          "name": "C4",
          "ticks": 68160,
          "time": 110.9375,
          "velocity": 0.7874015748031497
        },
        {
          "duration": 0.15625,
          "durationTicks": 96,
          "midi": 24,
          "name": "C1",
          "ticks": 68256,
          "time": 111.09375,
          "velocity": 0.5905511811023622
        },
        {
          "duration": 0.3125,
          "durationTicks": 192,
          "midi": 65,
          "name": "F4",
          "ticks": 68256,
          "time": 111.09375,
          "velocity": 0.7874015748031497
        },
        {
          "duration": 0.15625,
          "durationTicks": 96,
          "midi": 53,
          "name": "F3",
          "ticks": 68268,
          "time": 111.11328125,
          "velocity": 0.5905511811023622
        },
        {
          "duration": 0.3125,
          "durationTicks": 192,
          "midi": 60,
          "name": "C4",
          "ticks": 68352,
          "time": 111.25,
          "velocity": 0.7874015748031497
        },
        {
          "duration": 0.46875,
          "durationTicks": 288,
          "midi": 24,
          "name": "C1",
          "ticks": 68352,
          "time": 111.25,
          "velocity": 0.7874015748031497
        },
        {
          "duration": 0.46875,
          "durationTicks": 288,
          "midi": 55,
          "name": "G3",
          "ticks": 68352,
          "time": 111.25,
          "velocity": 0.7874015748031497
        },
        {
          "duration": 0.3125,
          "durationTicks": 192,
          "midi": 65,
          "name": "F4",
          "ticks": 68448,
          "time": 111.40625,
          "velocity": 0.7874015748031497
        },
        {
          "duration": 0.3125,
          "durationTicks": 192,
          "midi": 67,
          "name": "G4",
          "ticks": 68544,
          "time": 111.5625,
          "velocity": 0.7874015748031497
        },
        {
          "duration": 0.15625,
          "durationTicks": 96,
          "midi": 24,
          "name": "C1",
          "ticks": 68640,
          "time": 111.71875,
          "velocity": 0.7874015748031497
        },
        {
          "duration": 0.3125,
          "durationTicks": 192,
          "midi": 60,
          "name": "C4",
          "ticks": 68640,
          "time": 111.71875,
          "velocity": 0.7874015748031497
        },
        {
          "duration": 0.46875,
          "durationTicks": 288,
          "midi": 55,
          "name": "G3",
          "ticks": 68640,
          "time": 111.71875,
          "velocity": 0.7874015748031497
        },
        {
          "duration": 0.3125,
          "durationTicks": 192,
          "midi": 24,
          "name": "C1",
          "ticks": 68736,
          "time": 111.875,
          "velocity": 0.5905511811023622
        },
        {
          "duration": 0.3125,
          "durationTicks": 192,
          "midi": 65,
          "name": "F4",
          "ticks": 68736,
          "time": 111.875,
          "velocity": 0.7874015748031497
        },
        {
          "duration": 0.3125,
          "durationTicks": 192,
          "midi": 67,
          "name": "G4",
          "ticks": 68832,
          "time": 112.03125,
          "velocity": 0.7874015748031497
        },
        {
          "duration": 0.3125,
          "durationTicks": 192,
          "midi": 60,
          "name": "C4",
          "ticks": 68928,
          "time": 112.1875,
          "velocity": 0.7874015748031497
        },
        {
          "duration": 0.3125,
          "durationTicks": 192,
          "midi": 24,
          "name": "C1",
          "ticks": 68928,
          "time": 112.1875,
          "velocity": 0.7874015748031497
        },
        {
          "duration": 0.15625,
          "durationTicks": 96,
          "midi": 53,
          "name": "F3",
          "ticks": 68928,
          "time": 112.1875,
          "velocity": 0.7874015748031497
        },
        {
          "duration": 0.3125,
          "durationTicks": 192,
          "midi": 65,
          "name": "F4",
          "ticks": 69024,
          "time": 112.34375,
          "velocity": 0.7874015748031497
        },
        {
          "duration": 0.15625,
          "durationTicks": 96,
          "midi": 53,
          "name": "F3",
          "ticks": 69036,
          "time": 112.36328125,
          "velocity": 0.5905511811023622
        },
        {
          "duration": 0.3125,
          "durationTicks": 192,
          "midi": 60,
          "name": "C4",
          "ticks": 69120,
          "time": 112.5,
          "velocity": 0.7874015748031497
        },
        {
          "duration": 0.46875,
          "durationTicks": 288,
          "midi": 25,
          "name": "C#1",
          "ticks": 69120,
          "time": 112.5,
          "velocity": 0.7874015748031497
        },
        {
          "duration": 0.46875,
          "durationTicks": 288,
          "midi": 56,
          "name": "G#3",
          "ticks": 69120,
          "time": 112.5,
          "velocity": 0.7874015748031497
        },
        {
          "duration": 0.3125,
          "durationTicks": 192,
          "midi": 65,
          "name": "F4",
          "ticks": 69216,
          "time": 112.65625,
          "velocity": 0.7874015748031497
        },
        {
          "duration": 0.3125,
          "durationTicks": 192,
          "midi": 68,
          "name": "G#4",
          "ticks": 69312,
          "time": 112.8125,
          "velocity": 0.7874015748031497
        },
        {
          "duration": 0.3125,
          "durationTicks": 192,
          "midi": 60,
          "name": "C4",
          "ticks": 69408,
          "time": 112.96875,
          "velocity": 0.7874015748031497
        },
        {
          "duration": 0.46875,
          "durationTicks": 288,
          "midi": 56,
          "name": "G#3",
          "ticks": 69408,
          "time": 112.96875,
          "velocity": 0.7874015748031497
        },
        {
          "duration": 0.15625,
          "durationTicks": 96,
          "midi": 25,
          "name": "C#1",
          "ticks": 69408,
          "time": 112.96875,
          "velocity": 0.7874015748031497
        },
        {
          "duration": 0.3125,
          "durationTicks": 192,
          "midi": 65,
          "name": "F4",
          "ticks": 69504,
          "time": 113.125,
          "velocity": 0.7874015748031497
        },
        {
          "duration": 0.3125,
          "durationTicks": 192,
          "midi": 25,
          "name": "C#1",
          "ticks": 69504,
          "time": 113.125,
          "velocity": 0.5905511811023622
        },
        {
          "duration": 0.3125,
          "durationTicks": 192,
          "midi": 68,
          "name": "G#4",
          "ticks": 69600,
          "time": 113.28125,
          "velocity": 0.7874015748031497
        },
        {
          "duration": 0.15625,
          "durationTicks": 96,
          "midi": 53,
          "name": "F3",
          "ticks": 69696,
          "time": 113.4375,
          "velocity": 0.7874015748031497
        },
        {
          "duration": 0.3125,
          "durationTicks": 192,
          "midi": 25,
          "name": "C#1",
          "ticks": 69696,
          "time": 113.4375,
          "velocity": 0.7874015748031497
        },
        {
          "duration": 0.3125,
          "durationTicks": 192,
          "midi": 60,
          "name": "C4",
          "ticks": 69696,
          "time": 113.4375,
          "velocity": 0.7874015748031497
        },
        {
          "duration": 0.3125,
          "durationTicks": 192,
          "midi": 65,
          "name": "F4",
          "ticks": 69792,
          "time": 113.59375,
          "velocity": 0.7874015748031497
        },
        {
          "duration": 0.15625,
          "durationTicks": 96,
          "midi": 53,
          "name": "F3",
          "ticks": 69804,
          "time": 113.61328125,
          "velocity": 0.5905511811023622
        },
        {
          "duration": 0.3125,
          "durationTicks": 192,
          "midi": 60,
          "name": "C4",
          "ticks": 69888,
          "time": 113.75,
          "velocity": 0.7874015748031497
        },
        {
          "duration": 0.46875,
          "durationTicks": 288,
          "midi": 25,
          "name": "C#1",
          "ticks": 69888,
          "time": 113.75,
          "velocity": 0.7874015748031497
        },
        {
          "duration": 0.46875,
          "durationTicks": 288,
          "midi": 56,
          "name": "G#3",
          "ticks": 69888,
          "time": 113.75,
          "velocity": 0.7874015748031497
        },
        {
          "duration": 0.3125,
          "durationTicks": 192,
          "midi": 65,
          "name": "F4",
          "ticks": 69984,
          "time": 113.90625,
          "velocity": 0.7874015748031497
        },
        {
          "duration": 0.3125,
          "durationTicks": 192,
          "midi": 68,
          "name": "G#4",
          "ticks": 70080,
          "time": 114.0625,
          "velocity": 0.7874015748031497
        },
        {
          "duration": 0.3125,
          "durationTicks": 192,
          "midi": 60,
          "name": "C4",
          "ticks": 70176,
          "time": 114.21875,
          "velocity": 0.7874015748031497
        },
        {
          "duration": 0.46875,
          "durationTicks": 288,
          "midi": 56,
          "name": "G#3",
          "ticks": 70176,
          "time": 114.21875,
          "velocity": 0.7874015748031497
        },
        {
          "duration": 0.46875,
          "durationTicks": 288,
          "midi": 25,
          "name": "C#1",
          "ticks": 70176,
          "time": 114.21875,
          "velocity": 0.7874015748031497
        },
        {
          "duration": 0.3125,
          "durationTicks": 192,
          "midi": 65,
          "name": "F4",
          "ticks": 70272,
          "time": 114.375,
          "velocity": 0.7874015748031497
        },
        {
          "duration": 0.3125,
          "durationTicks": 192,
          "midi": 68,
          "name": "G#4",
          "ticks": 70368,
          "time": 114.53125,
          "velocity": 0.7874015748031497
        },
        {
          "duration": 0.3125,
          "durationTicks": 192,
          "midi": 60,
          "name": "C4",
          "ticks": 70464,
          "time": 114.6875,
          "velocity": 0.7874015748031497
        },
        {
          "duration": 0.15625,
          "durationTicks": 96,
          "midi": 25,
          "name": "C#1",
          "ticks": 70464,
          "time": 114.6875,
          "velocity": 0.7874015748031497
        },
        {
          "duration": 0.15625,
          "durationTicks": 96,
          "midi": 53,
          "name": "F3",
          "ticks": 70464,
          "time": 114.6875,
          "velocity": 0.7874015748031497
        },
        {
          "duration": 0.15625,
          "durationTicks": 96,
          "midi": 25,
          "name": "C#1",
          "ticks": 70560,
          "time": 114.84375,
          "velocity": 0.5905511811023622
        },
        {
          "duration": 0.3125,
          "durationTicks": 192,
          "midi": 65,
          "name": "F4",
          "ticks": 70560,
          "time": 114.84375,
          "velocity": 0.7874015748031497
        },
        {
          "duration": 0.15625,
          "durationTicks": 96,
          "midi": 53,
          "name": "F3",
          "ticks": 70572,
          "time": 114.86328125,
          "velocity": 0.5905511811023622
        },
        {
          "duration": 0.46875,
          "durationTicks": 288,
          "midi": 55,
          "name": "G3",
          "ticks": 70656,
          "time": 115,
          "velocity": 0.7874015748031497
        },
        {
          "duration": 0.46875,
          "durationTicks": 288,
          "midi": 30,
          "name": "F#1",
          "ticks": 70656,
          "time": 115,
          "velocity": 0.7874015748031497
        },
        {
          "duration": 0.3125,
          "durationTicks": 192,
          "midi": 60,
          "name": "C4",
          "ticks": 70656,
          "time": 115,
          "velocity": 0.7874015748031497
        },
        {
          "duration": 0.3125,
          "durationTicks": 192,
          "midi": 65,
          "name": "F4",
          "ticks": 70752,
          "time": 115.15625,
          "velocity": 0.7874015748031497
        },
        {
          "duration": 0.3125,
          "durationTicks": 192,
          "midi": 67,
          "name": "G4",
          "ticks": 70848,
          "time": 115.3125,
          "velocity": 0.7874015748031497
        },
        {
          "duration": 0.46875,
          "durationTicks": 288,
          "midi": 55,
          "name": "G3",
          "ticks": 70944,
          "time": 115.46875,
          "velocity": 0.7874015748031497
        },
        {
          "duration": 0.46875,
          "durationTicks": 288,
          "midi": 30,
          "name": "F#1",
          "ticks": 70944,
          "time": 115.46875,
          "velocity": 0.7874015748031497
        },
        {
          "duration": 0.3125,
          "durationTicks": 192,
          "midi": 60,
          "name": "C4",
          "ticks": 70944,
          "time": 115.46875,
          "velocity": 0.7874015748031497
        },
        {
          "duration": 0.3125,
          "durationTicks": 192,
          "midi": 65,
          "name": "F4",
          "ticks": 71040,
          "time": 115.625,
          "velocity": 0.7874015748031497
        },
        {
          "duration": 0.3125,
          "durationTicks": 192,
          "midi": 67,
          "name": "G4",
          "ticks": 71136,
          "time": 115.78125,
          "velocity": 0.7874015748031497
        },
        {
          "duration": 0.3125,
          "durationTicks": 192,
          "midi": 60,
          "name": "C4",
          "ticks": 71232,
          "time": 115.9375,
          "velocity": 0.7874015748031497
        },
        {
          "duration": 0.15625,
          "durationTicks": 96,
          "midi": 30,
          "name": "F#1",
          "ticks": 71232,
          "time": 115.9375,
          "velocity": 0.7874015748031497
        },
        {
          "duration": 0.15625,
          "durationTicks": 96,
          "midi": 53,
          "name": "F3",
          "ticks": 71232,
          "time": 115.9375,
          "velocity": 0.7874015748031497
        },
        {
          "duration": 0.15625,
          "durationTicks": 96,
          "midi": 30,
          "name": "F#1",
          "ticks": 71328,
          "time": 116.09375,
          "velocity": 0.5905511811023622
        },
        {
          "duration": 0.3125,
          "durationTicks": 192,
          "midi": 65,
          "name": "F4",
          "ticks": 71328,
          "time": 116.09375,
          "velocity": 0.7874015748031497
        },
        {
          "duration": 0.15625,
          "durationTicks": 96,
          "midi": 53,
          "name": "F3",
          "ticks": 71340,
          "time": 116.11328125,
          "velocity": 0.5905511811023622
        },
        {
          "duration": 0.3125,
          "durationTicks": 192,
          "midi": 60,
          "name": "C4",
          "ticks": 71424,
          "time": 116.25,
          "velocity": 0.7874015748031497
        },
        {
          "duration": 0.46875,
          "durationTicks": 288,
          "midi": 55,
          "name": "G3",
          "ticks": 71424,
          "time": 116.25,
          "velocity": 0.7874015748031497
        },
        {
          "duration": 0.46875,
          "durationTicks": 288,
          "midi": 30,
          "name": "F#1",
          "ticks": 71424,
          "time": 116.25,
          "velocity": 0.7874015748031497
        },
        {
          "duration": 0.3125,
          "durationTicks": 192,
          "midi": 65,
          "name": "F4",
          "ticks": 71520,
          "time": 116.40625,
          "velocity": 0.7874015748031497
        },
        {
          "duration": 0.3125,
          "durationTicks": 192,
          "midi": 67,
          "name": "G4",
          "ticks": 71616,
          "time": 116.5625,
          "velocity": 0.7874015748031497
        },
        {
          "duration": 0.46875,
          "durationTicks": 288,
          "midi": 55,
          "name": "G3",
          "ticks": 71712,
          "time": 116.71875,
          "velocity": 0.7874015748031497
        },
        {
          "duration": 0.3125,
          "durationTicks": 192,
          "midi": 60,
          "name": "C4",
          "ticks": 71712,
          "time": 116.71875,
          "velocity": 0.7874015748031497
        },
        {
          "duration": 0.46875,
          "durationTicks": 288,
          "midi": 30,
          "name": "F#1",
          "ticks": 71712,
          "time": 116.71875,
          "velocity": 0.7874015748031497
        },
        {
          "duration": 0.3125,
          "durationTicks": 192,
          "midi": 65,
          "name": "F4",
          "ticks": 71808,
          "time": 116.875,
          "velocity": 0.7874015748031497
        },
        {
          "duration": 0.3125,
          "durationTicks": 192,
          "midi": 67,
          "name": "G4",
          "ticks": 71904,
          "time": 117.03125,
          "velocity": 0.7874015748031497
        },
        {
          "duration": 0.15625,
          "durationTicks": 96,
          "midi": 53,
          "name": "F3",
          "ticks": 72000,
          "time": 117.1875,
          "velocity": 0.7874015748031497
        },
        {
          "duration": 0.3125,
          "durationTicks": 192,
          "midi": 60,
          "name": "C4",
          "ticks": 72000,
          "time": 117.1875,
          "velocity": 0.7874015748031497
        },
        {
          "duration": 0.15625,
          "durationTicks": 96,
          "midi": 30,
          "name": "F#1",
          "ticks": 72000,
          "time": 117.1875,
          "velocity": 0.7874015748031497
        },
        {
          "duration": 0.3125,
          "durationTicks": 192,
          "midi": 65,
          "name": "F4",
          "ticks": 72096,
          "time": 117.34375,
          "velocity": 0.7874015748031497
        },
        {
          "duration": 0.15625,
          "durationTicks": 96,
          "midi": 30,
          "name": "F#1",
          "ticks": 72096,
          "time": 117.34375,
          "velocity": 0.5905511811023622
        },
        {
          "duration": 0.15625,
          "durationTicks": 96,
          "midi": 53,
          "name": "F3",
          "ticks": 72108,
          "time": 117.36328125,
          "velocity": 0.5905511811023622
        },
        {
          "duration": 0.46875,
          "durationTicks": 288,
          "midi": 27,
          "name": "D#1",
          "ticks": 72192,
          "time": 117.5,
          "velocity": 0.7874015748031497
        },
        {
          "duration": 0.46875,
          "durationTicks": 288,
          "midi": 58,
          "name": "A#3",
          "ticks": 72192,
          "time": 117.5,
          "velocity": 0.7874015748031497
        },
        {
          "duration": 0.3125,
          "durationTicks": 192,
          "midi": 60,
          "name": "C4",
          "ticks": 72192,
          "time": 117.5,
          "velocity": 0.7874015748031497
        },
        {
          "duration": 0.3125,
          "durationTicks": 192,
          "midi": 65,
          "name": "F4",
          "ticks": 72288,
          "time": 117.65625,
          "velocity": 0.7874015748031497
        },
        {
          "duration": 0.3125,
          "durationTicks": 192,
          "midi": 70,
          "name": "A#4",
          "ticks": 72384,
          "time": 117.8125,
          "velocity": 0.7874015748031497
        },
        {
          "duration": 0.46875,
          "durationTicks": 288,
          "midi": 58,
          "name": "A#3",
          "ticks": 72480,
          "time": 117.96875,
          "velocity": 0.7874015748031497
        },
        {
          "duration": 0.3125,
          "durationTicks": 192,
          "midi": 60,
          "name": "C4",
          "ticks": 72480,
          "time": 117.96875,
          "velocity": 0.7874015748031497
        },
        {
          "duration": 0.46875,
          "durationTicks": 288,
          "midi": 27,
          "name": "D#1",
          "ticks": 72480,
          "time": 117.96875,
          "velocity": 0.7874015748031497
        },
        {
          "duration": 0.3125,
          "durationTicks": 192,
          "midi": 65,
          "name": "F4",
          "ticks": 72576,
          "time": 118.125,
          "velocity": 0.7874015748031497
        },
        {
          "duration": 0.3125,
          "durationTicks": 192,
          "midi": 70,
          "name": "A#4",
          "ticks": 72672,
          "time": 118.28125,
          "velocity": 0.7874015748031497
        },
        {
          "duration": 0.3125,
          "durationTicks": 192,
          "midi": 27,
          "name": "D#1",
          "ticks": 72768,
          "time": 118.4375,
          "velocity": 0.7874015748031497
        },
        {
          "duration": 0.3125,
          "durationTicks": 192,
          "midi": 60,
          "name": "C4",
          "ticks": 72768,
          "time": 118.4375,
          "velocity": 0.7874015748031497
        },
        {
          "duration": 0.15625,
          "durationTicks": 96,
          "midi": 53,
          "name": "F3",
          "ticks": 72768,
          "time": 118.4375,
          "velocity": 0.7874015748031497
        },
        {
          "duration": 0.3125,
          "durationTicks": 192,
          "midi": 65,
          "name": "F4",
          "ticks": 72864,
          "time": 118.59375,
          "velocity": 0.7874015748031497
        },
        {
          "duration": 0.15625,
          "durationTicks": 96,
          "midi": 53,
          "name": "F3",
          "ticks": 72876,
          "time": 118.61328125,
          "velocity": 0.5905511811023622
        },
        {
          "duration": 0.46875,
          "durationTicks": 288,
          "midi": 58,
          "name": "A#3",
          "ticks": 72960,
          "time": 118.75,
          "velocity": 0.7874015748031497
        },
        {
          "duration": 0.3125,
          "durationTicks": 192,
          "midi": 60,
          "name": "C4",
          "ticks": 72960,
          "time": 118.75,
          "velocity": 0.7874015748031497
        },
        {
          "duration": 0.46875,
          "durationTicks": 288,
          "midi": 27,
          "name": "D#1",
          "ticks": 72960,
          "time": 118.75,
          "velocity": 0.7874015748031497
        },
        {
          "duration": 0.3125,
          "durationTicks": 192,
          "midi": 65,
          "name": "F4",
          "ticks": 73056,
          "time": 118.90625,
          "velocity": 0.7874015748031497
        },
        {
          "duration": 0.3125,
          "durationTicks": 192,
          "midi": 70,
          "name": "A#4",
          "ticks": 73152,
          "time": 119.0625,
          "velocity": 0.7874015748031497
        },
        {
          "duration": 0.15625,
          "durationTicks": 96,
          "midi": 27,
          "name": "D#1",
          "ticks": 73248,
          "time": 119.21875,
          "velocity": 0.7874015748031497
        },
        {
          "duration": 0.3125,
          "durationTicks": 192,
          "midi": 60,
          "name": "C4",
          "ticks": 73248,
          "time": 119.21875,
          "velocity": 0.7874015748031497
        },
        {
          "duration": 0.46875,
          "durationTicks": 288,
          "midi": 58,
          "name": "A#3",
          "ticks": 73248,
          "time": 119.21875,
          "velocity": 0.7874015748031497
        },
        {
          "duration": 0.3125,
          "durationTicks": 192,
          "midi": 65,
          "name": "F4",
          "ticks": 73344,
          "time": 119.375,
          "velocity": 0.7874015748031497
        },
        {
          "duration": 0.3125,
          "durationTicks": 192,
          "midi": 27,
          "name": "D#1",
          "ticks": 73344,
          "time": 119.375,
          "velocity": 0.5905511811023622
        },
        {
          "duration": 0.3125,
          "durationTicks": 192,
          "midi": 68,
          "name": "G#4",
          "ticks": 73440,
          "time": 119.53125,
          "velocity": 0.7874015748031497
        },
        {
          "duration": 0.3125,
          "durationTicks": 192,
          "midi": 60,
          "name": "C4",
          "ticks": 73536,
          "time": 119.6875,
          "velocity": 0.7874015748031497
        },
        {
          "duration": 0.15625,
          "durationTicks": 96,
          "midi": 27,
          "name": "D#1",
          "ticks": 73536,
          "time": 119.6875,
          "velocity": 0.7874015748031497
        },
        {
          "duration": 0.15625,
          "durationTicks": 96,
          "midi": 56,
          "name": "G#3",
          "ticks": 73536,
          "time": 119.6875,
          "velocity": 0.7874015748031497
        },
        {
          "duration": 0.3125,
          "durationTicks": 192,
          "midi": 67,
          "name": "G4",
          "ticks": 73632,
          "time": 119.84375,
          "velocity": 0.7874015748031497
        },
        {
          "duration": 0.15625,
          "durationTicks": 96,
          "midi": 27,
          "name": "D#1",
          "ticks": 73632,
          "time": 119.84375,
          "velocity": 0.5905511811023622
        },
        {
          "duration": 0.15625,
          "durationTicks": 96,
          "midi": 55,
          "name": "G3",
          "ticks": 73668,
          "time": 119.90234375,
          "velocity": 0.7874015748031497
        },
        {
          "duration": 0.3125,
          "durationTicks": 192,
          "midi": 60,
          "name": "C4",
          "ticks": 73728,
          "time": 120,
          "velocity": 0.7874015748031497
        },
        {
          "duration": 0.46875,
          "durationTicks": 288,
          "midi": 55,
          "name": "G3",
          "ticks": 73728,
          "time": 120,
          "velocity": 0.7874015748031497
        },
        {
          "duration": 0.46875,
          "durationTicks": 288,
          "midi": 24,
          "name": "C1",
          "ticks": 73728,
          "time": 120,
          "velocity": 0.7874015748031497
        },
        {
          "duration": 0.3125,
          "durationTicks": 192,
          "midi": 65,
          "name": "F4",
          "ticks": 73824,
          "time": 120.15625,
          "velocity": 0.7874015748031497
        },
        {
          "duration": 0.3125,
          "durationTicks": 192,
          "midi": 67,
          "name": "G4",
          "ticks": 73920,
          "time": 120.3125,
          "velocity": 0.7874015748031497
        },
        {
          "duration": 2.03125,
          "durationTicks": 1248,
          "midi": 25,
          "name": "C#1",
          "ticks": 74016,
          "time": 120.46875,
          "velocity": 0.7874015748031497
        },
        {
          "duration": 0.3125,
          "durationTicks": 192,
          "midi": 60,
          "name": "C4",
          "ticks": 74016,
          "time": 120.46875,
          "velocity": 0.7874015748031497
        },
        {
          "duration": 0.46875,
          "durationTicks": 288,
          "midi": 55,
          "name": "G3",
          "ticks": 74016,
          "time": 120.46875,
          "velocity": 0.7874015748031497
        },
        {
          "duration": 0.3125,
          "durationTicks": 192,
          "midi": 65,
          "name": "F4",
          "ticks": 74112,
          "time": 120.625,
          "velocity": 0.7874015748031497
        },
        {
          "duration": 0.3125,
          "durationTicks": 192,
          "midi": 67,
          "name": "G4",
          "ticks": 74208,
          "time": 120.78125,
          "velocity": 0.7874015748031497
        },
        {
          "duration": 0.3125,
          "durationTicks": 192,
          "midi": 60,
          "name": "C4",
          "ticks": 74304,
          "time": 120.9375,
          "velocity": 0.7874015748031497
        },
        {
          "duration": 0.15625,
          "durationTicks": 96,
          "midi": 53,
          "name": "F3",
          "ticks": 74304,
          "time": 120.9375,
          "velocity": 0.7874015748031497
        },
        {
          "duration": 0.3125,
          "durationTicks": 192,
          "midi": 65,
          "name": "F4",
          "ticks": 74400,
          "time": 121.09375,
          "velocity": 0.7874015748031497
        },
        {
          "duration": 0.15625,
          "durationTicks": 96,
          "midi": 53,
          "name": "F3",
          "ticks": 74412,
          "time": 121.11328125,
          "velocity": 0.5905511811023622
        },
        {
          "duration": 0.3125,
          "durationTicks": 192,
          "midi": 60,
          "name": "C4",
          "ticks": 74496,
          "time": 121.25,
          "velocity": 0.7874015748031497
        },
        {
          "duration": 0.46875,
          "durationTicks": 288,
          "midi": 55,
          "name": "G3",
          "ticks": 74496,
          "time": 121.25,
          "velocity": 0.7874015748031497
        },
        {
          "duration": 0.3125,
          "durationTicks": 192,
          "midi": 65,
          "name": "F4",
          "ticks": 74592,
          "time": 121.40625,
          "velocity": 0.7874015748031497
        },
        {
          "duration": 0.3125,
          "durationTicks": 192,
          "midi": 67,
          "name": "G4",
          "ticks": 74688,
          "time": 121.5625,
          "velocity": 0.7874015748031497
        },
        {
          "duration": 0.3125,
          "durationTicks": 192,
          "midi": 60,
          "name": "C4",
          "ticks": 74784,
          "time": 121.71875,
          "velocity": 0.7874015748031497
        },
        {
          "duration": 0.46875,
          "durationTicks": 288,
          "midi": 55,
          "name": "G3",
          "ticks": 74784,
          "time": 121.71875,
          "velocity": 0.7874015748031497
        },
        {
          "duration": 0.3125,
          "durationTicks": 192,
          "midi": 65,
          "name": "F4",
          "ticks": 74880,
          "time": 121.875,
          "velocity": 0.7874015748031497
        },
        {
          "duration": 0.3125,
          "durationTicks": 192,
          "midi": 67,
          "name": "G4",
          "ticks": 74976,
          "time": 122.03125,
          "velocity": 0.7874015748031497
        },
        {
          "duration": 0.15625,
          "durationTicks": 96,
          "midi": 53,
          "name": "F3",
          "ticks": 75072,
          "time": 122.1875,
          "velocity": 0.7874015748031497
        },
        {
          "duration": 0.3125,
          "durationTicks": 192,
          "midi": 60,
          "name": "C4",
          "ticks": 75072,
          "time": 122.1875,
          "velocity": 0.7874015748031497
        },
        {
          "duration": 0.3125,
          "durationTicks": 192,
          "midi": 65,
          "name": "F4",
          "ticks": 75168,
          "time": 122.34375,
          "velocity": 0.7874015748031497
        },
        {
          "duration": 0.15625,
          "durationTicks": 96,
          "midi": 53,
          "name": "F3",
          "ticks": 75180,
          "time": 122.36328125,
          "velocity": 0.5905511811023622
        },
        {
          "duration": 0.3125,
          "durationTicks": 192,
          "midi": 60,
          "name": "C4",
          "ticks": 75264,
          "time": 122.5,
          "velocity": 0.7874015748031497
        },
        {
          "duration": 0.46875,
          "durationTicks": 288,
          "midi": 24,
          "name": "C1",
          "ticks": 75264,
          "time": 122.5,
          "velocity": 0.7874015748031497
        },
        {
          "duration": 0.46875,
          "durationTicks": 288,
          "midi": 56,
          "name": "G#3",
          "ticks": 75264,
          "time": 122.5,
          "velocity": 0.7874015748031497
        },
        {
          "duration": 0.3125,
          "durationTicks": 192,
          "midi": 65,
          "name": "F4",
          "ticks": 75360,
          "time": 122.65625,
          "velocity": 0.7874015748031497
        },
        {
          "duration": 0.3125,
          "durationTicks": 192,
          "midi": 68,
          "name": "G#4",
          "ticks": 75456,
          "time": 122.8125,
          "velocity": 0.7874015748031497
        },
        {
          "duration": 0.46875,
          "durationTicks": 288,
          "midi": 25,
          "name": "C#1",
          "ticks": 75552,
          "time": 122.96875,
          "velocity": 0.7874015748031497
        },
        {
          "duration": 0.46875,
          "durationTicks": 288,
          "midi": 56,
          "name": "G#3",
          "ticks": 75552,
          "time": 122.96875,
          "velocity": 0.7874015748031497
        },
        {
          "duration": 0.3125,
          "durationTicks": 192,
          "midi": 60,
          "name": "C4",
          "ticks": 75552,
          "time": 122.96875,
          "velocity": 0.7874015748031497
        },
        {
          "duration": 0.3125,
          "durationTicks": 192,
          "midi": 65,
          "name": "F4",
          "ticks": 75648,
          "time": 123.125,
          "velocity": 0.7874015748031497
        },
        {
          "duration": 0.3125,
          "durationTicks": 192,
          "midi": 68,
          "name": "G#4",
          "ticks": 75744,
          "time": 123.28125,
          "velocity": 0.7874015748031497
        },
        {
          "duration": 0.3125,
          "durationTicks": 192,
          "midi": 27,
          "name": "D#1",
          "ticks": 75840,
          "time": 123.4375,
          "velocity": 0.7874015748031497
        },
        {
          "duration": 0.3125,
          "durationTicks": 192,
          "midi": 60,
          "name": "C4",
          "ticks": 75840,
          "time": 123.4375,
          "velocity": 0.7874015748031497
        },
        {
          "duration": 0.15625,
          "durationTicks": 96,
          "midi": 53,
          "name": "F3",
          "ticks": 75840,
          "time": 123.4375,
          "velocity": 0.7874015748031497
        },
        {
          "duration": 0.3125,
          "durationTicks": 192,
          "midi": 65,
          "name": "F4",
          "ticks": 75936,
          "time": 123.59375,
          "velocity": 0.7874015748031497
        },
        {
          "duration": 0.15625,
          "durationTicks": 96,
          "midi": 53,
          "name": "F3",
          "ticks": 75948,
          "time": 123.61328125,
          "velocity": 0.5905511811023622
        },
        {
          "duration": 0.3125,
          "durationTicks": 192,
          "midi": 60,
          "name": "C4",
          "ticks": 76032,
          "time": 123.75,
          "velocity": 0.7874015748031497
        },
        {
          "duration": 0.46875,
          "durationTicks": 288,
          "midi": 56,
          "name": "G#3",
          "ticks": 76032,
          "time": 123.75,
          "velocity": 0.7874015748031497
        },
        {
          "duration": 1.25,
          "durationTicks": 768,
          "midi": 29,
          "name": "F1",
          "ticks": 76032,
          "time": 123.75,
          "velocity": 0.7874015748031497
        },
        {
          "duration": 0.3125,
          "durationTicks": 192,
          "midi": 65,
          "name": "F4",
          "ticks": 76128,
          "time": 123.90625,
          "velocity": 0.7874015748031497
        },
        {
          "duration": 0.3125,
          "durationTicks": 192,
          "midi": 68,
          "name": "G#4",
          "ticks": 76224,
          "time": 124.0625,
          "velocity": 0.7874015748031497
        },
        {
          "duration": 0.3125,
          "durationTicks": 192,
          "midi": 60,
          "name": "C4",
          "ticks": 76320,
          "time": 124.21875,
          "velocity": 0.7874015748031497
        },
        {
          "duration": 0.46875,
          "durationTicks": 288,
          "midi": 56,
          "name": "G#3",
          "ticks": 76320,
          "time": 124.21875,
          "velocity": 0.7874015748031497
        },
        {
          "duration": 0.3125,
          "durationTicks": 192,
          "midi": 65,
          "name": "F4",
          "ticks": 76416,
          "time": 124.375,
          "velocity": 0.7874015748031497
        },
        {
          "duration": 0.3125,
          "durationTicks": 192,
          "midi": 68,
          "name": "G#4",
          "ticks": 76512,
          "time": 124.53125,
          "velocity": 0.7874015748031497
        },
        {
          "duration": 0.3125,
          "durationTicks": 192,
          "midi": 60,
          "name": "C4",
          "ticks": 76608,
          "time": 124.6875,
          "velocity": 0.7874015748031497
        },
        {
          "duration": 0.15625,
          "durationTicks": 96,
          "midi": 53,
          "name": "F3",
          "ticks": 76608,
          "time": 124.6875,
          "velocity": 0.7874015748031497
        },
        {
          "duration": 0.3125,
          "durationTicks": 192,
          "midi": 65,
          "name": "F4",
          "ticks": 76704,
          "time": 124.84375,
          "velocity": 0.7874015748031497
        },
        {
          "duration": 0.15625,
          "durationTicks": 96,
          "midi": 53,
          "name": "F3",
          "ticks": 76716,
          "time": 124.86328125,
          "velocity": 0.5905511811023622
        },
        {
          "duration": 0.46875,
          "durationTicks": 288,
          "midi": 55,
          "name": "G3",
          "ticks": 76800,
          "time": 125,
          "velocity": 0.7874015748031497
        },
        {
          "duration": 0.3125,
          "durationTicks": 192,
          "midi": 60,
          "name": "C4",
          "ticks": 76800,
          "time": 125,
          "velocity": 0.7874015748031497
        },
        {
          "duration": 0.46875,
          "durationTicks": 288,
          "midi": 24,
          "name": "C1",
          "ticks": 76800,
          "time": 125,
          "velocity": 0.7874015748031497
        },
        {
          "duration": 0.3125,
          "durationTicks": 192,
          "midi": 65,
          "name": "F4",
          "ticks": 76896,
          "time": 125.15625,
          "velocity": 0.7874015748031497
        },
        {
          "duration": 0.3125,
          "durationTicks": 192,
          "midi": 67,
          "name": "G4",
          "ticks": 76992,
          "time": 125.3125,
          "velocity": 0.7874015748031497
        },
        {
          "duration": 2.03125,
          "durationTicks": 1248,
          "midi": 25,
          "name": "C#1",
          "ticks": 77088,
          "time": 125.46875,
          "velocity": 0.7874015748031497
        },
        {
          "duration": 0.3125,
          "durationTicks": 192,
          "midi": 60,
          "name": "C4",
          "ticks": 77088,
          "time": 125.46875,
          "velocity": 0.7874015748031497
        },
        {
          "duration": 0.46875,
          "durationTicks": 288,
          "midi": 55,
          "name": "G3",
          "ticks": 77088,
          "time": 125.46875,
          "velocity": 0.7874015748031497
        },
        {
          "duration": 0.3125,
          "durationTicks": 192,
          "midi": 65,
          "name": "F4",
          "ticks": 77184,
          "time": 125.625,
          "velocity": 0.7874015748031497
        },
        {
          "duration": 0.3125,
          "durationTicks": 192,
          "midi": 67,
          "name": "G4",
          "ticks": 77280,
          "time": 125.78125,
          "velocity": 0.7874015748031497
        },
        {
          "duration": 0.3125,
          "durationTicks": 192,
          "midi": 60,
          "name": "C4",
          "ticks": 77376,
          "time": 125.9375,
          "velocity": 0.7874015748031497
        },
        {
          "duration": 0.15625,
          "durationTicks": 96,
          "midi": 53,
          "name": "F3",
          "ticks": 77376,
          "time": 125.9375,
          "velocity": 0.7874015748031497
        },
        {
          "duration": 0.3125,
          "durationTicks": 192,
          "midi": 65,
          "name": "F4",
          "ticks": 77472,
          "time": 126.09375,
          "velocity": 0.7874015748031497
        },
        {
          "duration": 0.15625,
          "durationTicks": 96,
          "midi": 53,
          "name": "F3",
          "ticks": 77484,
          "time": 126.11328125,
          "velocity": 0.5905511811023622
        },
        {
          "duration": 0.46875,
          "durationTicks": 288,
          "midi": 55,
          "name": "G3",
          "ticks": 77568,
          "time": 126.25,
          "velocity": 0.7874015748031497
        },
        {
          "duration": 0.3125,
          "durationTicks": 192,
          "midi": 60,
          "name": "C4",
          "ticks": 77568,
          "time": 126.25,
          "velocity": 0.7874015748031497
        },
        {
          "duration": 0.3125,
          "durationTicks": 192,
          "midi": 65,
          "name": "F4",
          "ticks": 77664,
          "time": 126.40625,
          "velocity": 0.7874015748031497
        },
        {
          "duration": 0.3125,
          "durationTicks": 192,
          "midi": 67,
          "name": "G4",
          "ticks": 77760,
          "time": 126.5625,
          "velocity": 0.7874015748031497
        },
        {
          "duration": 0.3125,
          "durationTicks": 192,
          "midi": 60,
          "name": "C4",
          "ticks": 77856,
          "time": 126.71875,
          "velocity": 0.7874015748031497
        },
        {
          "duration": 0.46875,
          "durationTicks": 288,
          "midi": 55,
          "name": "G3",
          "ticks": 77856,
          "time": 126.71875,
          "velocity": 0.7874015748031497
        },
        {
          "duration": 0.3125,
          "durationTicks": 192,
          "midi": 65,
          "name": "F4",
          "ticks": 77952,
          "time": 126.875,
          "velocity": 0.7874015748031497
        },
        {
          "duration": 0.3125,
          "durationTicks": 192,
          "midi": 67,
          "name": "G4",
          "ticks": 78048,
          "time": 127.03125,
          "velocity": 0.7874015748031497
        },
        {
          "duration": 0.15625,
          "durationTicks": 96,
          "midi": 53,
          "name": "F3",
          "ticks": 78144,
          "time": 127.1875,
          "velocity": 0.7874015748031497
        },
        {
          "duration": 0.3125,
          "durationTicks": 192,
          "midi": 60,
          "name": "C4",
          "ticks": 78144,
          "time": 127.1875,
          "velocity": 0.7874015748031497
        },
        {
          "duration": 0.3125,
          "durationTicks": 192,
          "midi": 65,
          "name": "F4",
          "ticks": 78240,
          "time": 127.34375,
          "velocity": 0.7874015748031497
        },
        {
          "duration": 0.15625,
          "durationTicks": 96,
          "midi": 53,
          "name": "F3",
          "ticks": 78252,
          "time": 127.36328125,
          "velocity": 0.5905511811023622
        },
        {
          "duration": 0.46875,
          "durationTicks": 288,
          "midi": 58,
          "name": "A#3",
          "ticks": 78336,
          "time": 127.5,
          "velocity": 0.7874015748031497
        },
        {
          "duration": 0.46875,
          "durationTicks": 288,
          "midi": 29,
          "name": "F1",
          "ticks": 78336,
          "time": 127.5,
          "velocity": 0.7874015748031497
        },
        {
          "duration": 0.3125,
          "durationTicks": 192,
          "midi": 60,
          "name": "C4",
          "ticks": 78336,
          "time": 127.5,
          "velocity": 0.7874015748031497
        },
        {
          "duration": 0.3125,
          "durationTicks": 192,
          "midi": 65,
          "name": "F4",
          "ticks": 78432,
          "time": 127.65625,
          "velocity": 0.7874015748031497
        },
        {
          "duration": 0.3125,
          "durationTicks": 192,
          "midi": 70,
          "name": "A#4",
          "ticks": 78528,
          "time": 127.8125,
          "velocity": 0.7874015748031497
        },
        {
          "duration": 0.46875,
          "durationTicks": 288,
          "midi": 58,
          "name": "A#3",
          "ticks": 78624,
          "time": 127.96875,
          "velocity": 0.7874015748031497
        },
        {
          "duration": 0.3125,
          "durationTicks": 192,
          "midi": 60,
          "name": "C4",
          "ticks": 78624,
          "time": 127.96875,
          "velocity": 0.7874015748031497
        },
        {
          "duration": 0.46875,
          "durationTicks": 288,
          "midi": 27,
          "name": "D#1",
          "ticks": 78624,
          "time": 127.96875,
          "velocity": 0.7874015748031497
        },
        {
          "duration": 0.3125,
          "durationTicks": 192,
          "midi": 65,
          "name": "F4",
          "ticks": 78720,
          "time": 128.125,
          "velocity": 0.7874015748031497
        },
        {
          "duration": 0.3125,
          "durationTicks": 192,
          "midi": 70,
          "name": "A#4",
          "ticks": 78816,
          "time": 128.28125,
          "velocity": 0.7874015748031497
        },
        {
          "duration": 0.3125,
          "durationTicks": 192,
          "midi": 60,
          "name": "C4",
          "ticks": 78912,
          "time": 128.4375,
          "velocity": 0.7874015748031497
        },
        {
          "duration": 0.15625,
          "durationTicks": 96,
          "midi": 53,
          "name": "F3",
          "ticks": 78912,
          "time": 128.4375,
          "velocity": 0.7874015748031497
        },
        {
          "duration": 0.3125,
          "durationTicks": 192,
          "midi": 26,
          "name": "D1",
          "ticks": 78912,
          "time": 128.4375,
          "velocity": 0.7874015748031497
        },
        {
          "duration": 0.3125,
          "durationTicks": 192,
          "midi": 65,
          "name": "F4",
          "ticks": 79008,
          "time": 128.59375,
          "velocity": 0.7874015748031497
        },
        {
          "duration": 0.15625,
          "durationTicks": 96,
          "midi": 53,
          "name": "F3",
          "ticks": 79020,
          "time": 128.61328125,
          "velocity": 0.5905511811023622
        },
        {
          "duration": 0.46875,
          "durationTicks": 288,
          "midi": 58,
          "name": "A#3",
          "ticks": 79104,
          "time": 128.75,
          "velocity": 0.7874015748031497
        },
        {
          "duration": 0.3125,
          "durationTicks": 192,
          "midi": 60,
          "name": "C4",
          "ticks": 79104,
          "time": 128.75,
          "velocity": 0.7874015748031497
        },
        {
          "duration": 0.46875,
          "durationTicks": 288,
          "midi": 27,
          "name": "D#1",
          "ticks": 79104,
          "time": 128.75,
          "velocity": 0.7874015748031497
        },
        {
          "duration": 0.3125,
          "durationTicks": 192,
          "midi": 65,
          "name": "F4",
          "ticks": 79200,
          "time": 128.90625,
          "velocity": 0.7874015748031497
        },
        {
          "duration": 0.3125,
          "durationTicks": 192,
          "midi": 70,
          "name": "A#4",
          "ticks": 79296,
          "time": 129.0625,
          "velocity": 0.7874015748031497
        },
        {
          "duration": 0.46875,
          "durationTicks": 288,
          "midi": 26,
          "name": "D1",
          "ticks": 79392,
          "time": 129.21875,
          "velocity": 0.7874015748031497
        },
        {
          "duration": 0.46875,
          "durationTicks": 288,
          "midi": 58,
          "name": "A#3",
          "ticks": 79392,
          "time": 129.21875,
          "velocity": 0.7874015748031497
        },
        {
          "duration": 0.3125,
          "durationTicks": 192,
          "midi": 60,
          "name": "C4",
          "ticks": 79392,
          "time": 129.21875,
          "velocity": 0.7874015748031497
        },
        {
          "duration": 0.3125,
          "durationTicks": 192,
          "midi": 65,
          "name": "F4",
          "ticks": 79488,
          "time": 129.375,
          "velocity": 0.7874015748031497
        },
        {
          "duration": 0.3125,
          "durationTicks": 192,
          "midi": 68,
          "name": "G#4",
          "ticks": 79584,
          "time": 129.53125,
          "velocity": 0.7874015748031497
        },
        {
          "duration": 0.3125,
          "durationTicks": 192,
          "midi": 60,
          "name": "C4",
          "ticks": 79680,
          "time": 129.6875,
          "velocity": 0.7874015748031497
        },
        {
          "duration": 0.15625,
          "durationTicks": 96,
          "midi": 56,
          "name": "G#3",
          "ticks": 79680,
          "time": 129.6875,
          "velocity": 0.7874015748031497
        },
        {
          "duration": 0.3125,
          "durationTicks": 192,
          "midi": 25,
          "name": "C#1",
          "ticks": 79680,
          "time": 129.6875,
          "velocity": 0.7874015748031497
        },
        {
          "duration": 0.3125,
          "durationTicks": 192,
          "midi": 67,
          "name": "G4",
          "ticks": 79776,
          "time": 129.84375,
          "velocity": 0.7874015748031497
        },
        {
          "duration": 0.15625,
          "durationTicks": 96,
          "midi": 55,
          "name": "G3",
          "ticks": 79812,
          "time": 129.90234375,
          "velocity": 0.7874015748031497
        },
        {
          "duration": 0.3125,
          "durationTicks": 192,
          "midi": 60,
          "name": "C4",
          "ticks": 79872,
          "time": 130,
          "velocity": 0.7874015748031497
        },
        {
          "duration": 0.46875,
          "durationTicks": 288,
          "midi": 24,
          "name": "C1",
          "ticks": 79872,
          "time": 130,
          "velocity": 0.7874015748031497
        },
        {
          "duration": 0.46875,
          "durationTicks": 288,
          "midi": 55,
          "name": "G3",
          "ticks": 79872,
          "time": 130,
          "velocity": 0.7874015748031497
        },
        {
          "duration": 0.3125,
          "durationTicks": 192,
          "midi": 65,
          "name": "F4",
          "ticks": 79968,
          "time": 130.15625,
          "velocity": 0.7874015748031497
        },
        {
          "duration": 0.3125,
          "durationTicks": 192,
          "midi": 67,
          "name": "G4",
          "ticks": 80064,
          "time": 130.3125,
          "velocity": 0.7874015748031497
        },
        {
          "duration": 0.46875,
          "durationTicks": 288,
          "midi": 55,
          "name": "G3",
          "ticks": 80160,
          "time": 130.46875,
          "velocity": 0.7874015748031497
        },
        {
          "duration": 0.3125,
          "durationTicks": 192,
          "midi": 60,
          "name": "C4",
          "ticks": 80160,
          "time": 130.46875,
          "velocity": 0.7874015748031497
        },
        {
          "duration": 0.46875,
          "durationTicks": 288,
          "midi": 24,
          "name": "C1",
          "ticks": 80160,
          "time": 130.46875,
          "velocity": 0.7874015748031497
        },
        {
          "duration": 0.3125,
          "durationTicks": 192,
          "midi": 65,
          "name": "F4",
          "ticks": 80256,
          "time": 130.625,
          "velocity": 0.7874015748031497
        },
        {
          "duration": 0.3125,
          "durationTicks": 192,
          "midi": 67,
          "name": "G4",
          "ticks": 80352,
          "time": 130.78125,
          "velocity": 0.7874015748031497
        },
        {
          "duration": 0.15625,
          "durationTicks": 96,
          "midi": 24,
          "name": "C1",
          "ticks": 80448,
          "time": 130.9375,
          "velocity": 0.7874015748031497
        },
        {
          "duration": 0.15625,
          "durationTicks": 96,
          "midi": 53,
          "name": "F3",
          "ticks": 80448,
          "time": 130.9375,
          "velocity": 0.7874015748031497
        },
        {
          "duration": 0.3125,
          "durationTicks": 192,
          "midi": 60,
          "name": "C4",
          "ticks": 80448,
          "time": 130.9375,
          "velocity": 0.7874015748031497
        },
        {
          "duration": 0.3125,
          "durationTicks": 192,
          "midi": 65,
          "name": "F4",
          "ticks": 80544,
          "time": 131.09375,
          "velocity": 0.7874015748031497
        },
        {
          "duration": 0.15625,
          "durationTicks": 96,
          "midi": 24,
          "name": "C1",
          "ticks": 80544,
          "time": 131.09375,
          "velocity": 0.5905511811023622
        },
        {
          "duration": 0.15625,
          "durationTicks": 96,
          "midi": 53,
          "name": "F3",
          "ticks": 80556,
          "time": 131.11328125,
          "velocity": 0.5905511811023622
        },
        {
          "duration": 0.3125,
          "durationTicks": 192,
          "midi": 60,
          "name": "C4",
          "ticks": 80640,
          "time": 131.25,
          "velocity": 0.7874015748031497
        },
        {
          "duration": 0.46875,
          "durationTicks": 288,
          "midi": 24,
          "name": "C1",
          "ticks": 80640,
          "time": 131.25,
          "velocity": 0.7874015748031497
        },
        {
          "duration": 0.46875,
          "durationTicks": 288,
          "midi": 55,
          "name": "G3",
          "ticks": 80640,
          "time": 131.25,
          "velocity": 0.7874015748031497
        },
        {
          "duration": 0.3125,
          "durationTicks": 192,
          "midi": 65,
          "name": "F4",
          "ticks": 80736,
          "time": 131.40625,
          "velocity": 0.7874015748031497
        },
        {
          "duration": 0.3125,
          "durationTicks": 192,
          "midi": 67,
          "name": "G4",
          "ticks": 80832,
          "time": 131.5625,
          "velocity": 0.7874015748031497
        },
        {
          "duration": 0.46875,
          "durationTicks": 288,
          "midi": 55,
          "name": "G3",
          "ticks": 80928,
          "time": 131.71875,
          "velocity": 0.7874015748031497
        },
        {
          "duration": 0.15625,
          "durationTicks": 96,
          "midi": 24,
          "name": "C1",
          "ticks": 80928,
          "time": 131.71875,
          "velocity": 0.7874015748031497
        },
        {
          "duration": 0.3125,
          "durationTicks": 192,
          "midi": 60,
          "name": "C4",
          "ticks": 80928,
          "time": 131.71875,
          "velocity": 0.7874015748031497
        },
        {
          "duration": 0.3125,
          "durationTicks": 192,
          "midi": 24,
          "name": "C1",
          "ticks": 81024,
          "time": 131.875,
          "velocity": 0.5905511811023622
        },
        {
          "duration": 0.3125,
          "durationTicks": 192,
          "midi": 65,
          "name": "F4",
          "ticks": 81024,
          "time": 131.875,
          "velocity": 0.7874015748031497
        },
        {
          "duration": 0.3125,
          "durationTicks": 192,
          "midi": 67,
          "name": "G4",
          "ticks": 81120,
          "time": 132.03125,
          "velocity": 0.7874015748031497
        },
        {
          "duration": 0.3125,
          "durationTicks": 192,
          "midi": 60,
          "name": "C4",
          "ticks": 81216,
          "time": 132.1875,
          "velocity": 0.7874015748031497
        },
        {
          "duration": 0.15625,
          "durationTicks": 96,
          "midi": 53,
          "name": "F3",
          "ticks": 81216,
          "time": 132.1875,
          "velocity": 0.7874015748031497
        },
        {
          "duration": 0.3125,
          "durationTicks": 192,
          "midi": 24,
          "name": "C1",
          "ticks": 81216,
          "time": 132.1875,
          "velocity": 0.7874015748031497
        },
        {
          "duration": 0.3125,
          "durationTicks": 192,
          "midi": 65,
          "name": "F4",
          "ticks": 81312,
          "time": 132.34375,
          "velocity": 0.7874015748031497
        },
        {
          "duration": 0.15625,
          "durationTicks": 96,
          "midi": 53,
          "name": "F3",
          "ticks": 81324,
          "time": 132.36328125,
          "velocity": 0.5905511811023622
        },
        {
          "duration": 0.3125,
          "durationTicks": 192,
          "midi": 60,
          "name": "C4",
          "ticks": 81408,
          "time": 132.5,
          "velocity": 0.7874015748031497
        },
        {
          "duration": 0.46875,
          "durationTicks": 288,
          "midi": 25,
          "name": "C#1",
          "ticks": 81408,
          "time": 132.5,
          "velocity": 0.7874015748031497
        },
        {
          "duration": 0.46875,
          "durationTicks": 288,
          "midi": 56,
          "name": "G#3",
          "ticks": 81408,
          "time": 132.5,
          "velocity": 0.7874015748031497
        },
        {
          "duration": 0.3125,
          "durationTicks": 192,
          "midi": 65,
          "name": "F4",
          "ticks": 81504,
          "time": 132.65625,
          "velocity": 0.7874015748031497
        },
        {
          "duration": 0.3125,
          "durationTicks": 192,
          "midi": 68,
          "name": "G#4",
          "ticks": 81600,
          "time": 132.8125,
          "velocity": 0.7874015748031497
        },
        {
          "duration": 0.46875,
          "durationTicks": 288,
          "midi": 56,
          "name": "G#3",
          "ticks": 81696,
          "time": 132.96875,
          "velocity": 0.7874015748031497
        },
        {
          "duration": 0.3125,
          "durationTicks": 192,
          "midi": 60,
          "name": "C4",
          "ticks": 81696,
          "time": 132.96875,
          "velocity": 0.7874015748031497
        },
        {
          "duration": 0.15625,
          "durationTicks": 96,
          "midi": 25,
          "name": "C#1",
          "ticks": 81696,
          "time": 132.96875,
          "velocity": 0.7874015748031497
        },
        {
          "duration": 0.3125,
          "durationTicks": 192,
          "midi": 25,
          "name": "C#1",
          "ticks": 81792,
          "time": 133.125,
          "velocity": 0.5905511811023622
        },
        {
          "duration": 0.3125,
          "durationTicks": 192,
          "midi": 65,
          "name": "F4",
          "ticks": 81792,
          "time": 133.125,
          "velocity": 0.7874015748031497
        },
        {
          "duration": 0.3125,
          "durationTicks": 192,
          "midi": 68,
          "name": "G#4",
          "ticks": 81888,
          "time": 133.28125,
          "velocity": 0.7874015748031497
        },
        {
          "duration": 0.15625,
          "durationTicks": 96,
          "midi": 53,
          "name": "F3",
          "ticks": 81984,
          "time": 133.4375,
          "velocity": 0.7874015748031497
        },
        {
          "duration": 0.3125,
          "durationTicks": 192,
          "midi": 25,
          "name": "C#1",
          "ticks": 81984,
          "time": 133.4375,
          "velocity": 0.7874015748031497
        },
        {
          "duration": 0.3125,
          "durationTicks": 192,
          "midi": 60,
          "name": "C4",
          "ticks": 81984,
          "time": 133.4375,
          "velocity": 0.7874015748031497
        },
        {
          "duration": 0.3125,
          "durationTicks": 192,
          "midi": 65,
          "name": "F4",
          "ticks": 82080,
          "time": 133.59375,
          "velocity": 0.7874015748031497
        },
        {
          "duration": 0.15625,
          "durationTicks": 96,
          "midi": 53,
          "name": "F3",
          "ticks": 82092,
          "time": 133.61328125,
          "velocity": 0.5905511811023622
        },
        {
          "duration": 0.3125,
          "durationTicks": 192,
          "midi": 60,
          "name": "C4",
          "ticks": 82176,
          "time": 133.75,
          "velocity": 0.7874015748031497
        },
        {
          "duration": 0.46875,
          "durationTicks": 288,
          "midi": 25,
          "name": "C#1",
          "ticks": 82176,
          "time": 133.75,
          "velocity": 0.7874015748031497
        },
        {
          "duration": 0.46875,
          "durationTicks": 288,
          "midi": 56,
          "name": "G#3",
          "ticks": 82176,
          "time": 133.75,
          "velocity": 0.7874015748031497
        },
        {
          "duration": 0.3125,
          "durationTicks": 192,
          "midi": 65,
          "name": "F4",
          "ticks": 82272,
          "time": 133.90625,
          "velocity": 0.7874015748031497
        },
        {
          "duration": 0.3125,
          "durationTicks": 192,
          "midi": 68,
          "name": "G#4",
          "ticks": 82368,
          "time": 134.0625,
          "velocity": 0.7874015748031497
        },
        {
          "duration": 0.3125,
          "durationTicks": 192,
          "midi": 60,
          "name": "C4",
          "ticks": 82464,
          "time": 134.21875,
          "velocity": 0.7874015748031497
        },
        {
          "duration": 0.46875,
          "durationTicks": 288,
          "midi": 56,
          "name": "G#3",
          "ticks": 82464,
          "time": 134.21875,
          "velocity": 0.7874015748031497
        },
        {
          "duration": 0.46875,
          "durationTicks": 288,
          "midi": 25,
          "name": "C#1",
          "ticks": 82464,
          "time": 134.21875,
          "velocity": 0.7874015748031497
        },
        {
          "duration": 0.3125,
          "durationTicks": 192,
          "midi": 65,
          "name": "F4",
          "ticks": 82560,
          "time": 134.375,
          "velocity": 0.7874015748031497
        },
        {
          "duration": 0.3125,
          "durationTicks": 192,
          "midi": 68,
          "name": "G#4",
          "ticks": 82656,
          "time": 134.53125,
          "velocity": 0.7874015748031497
        },
        {
          "duration": 0.3125,
          "durationTicks": 192,
          "midi": 60,
          "name": "C4",
          "ticks": 82752,
          "time": 134.6875,
          "velocity": 0.7874015748031497
        },
        {
          "duration": 0.15625,
          "durationTicks": 96,
          "midi": 25,
          "name": "C#1",
          "ticks": 82752,
          "time": 134.6875,
          "velocity": 0.7874015748031497
        },
        {
          "duration": 0.15625,
          "durationTicks": 96,
          "midi": 53,
          "name": "F3",
          "ticks": 82752,
          "time": 134.6875,
          "velocity": 0.7874015748031497
        },
        {
          "duration": 0.3125,
          "durationTicks": 192,
          "midi": 65,
          "name": "F4",
          "ticks": 82848,
          "time": 134.84375,
          "velocity": 0.7874015748031497
        },
        {
          "duration": 0.15625,
          "durationTicks": 96,
          "midi": 25,
          "name": "C#1",
          "ticks": 82848,
          "time": 134.84375,
          "velocity": 0.5905511811023622
        },
        {
          "duration": 0.15625,
          "durationTicks": 96,
          "midi": 53,
          "name": "F3",
          "ticks": 82860,
          "time": 134.86328125,
          "velocity": 0.5905511811023622
        },
        {
          "duration": 0.46875,
          "durationTicks": 288,
          "midi": 55,
          "name": "G3",
          "ticks": 82944,
          "time": 135,
          "velocity": 0.7874015748031497
        },
        {
          "duration": 0.3125,
          "durationTicks": 192,
          "midi": 60,
          "name": "C4",
          "ticks": 82944,
          "time": 135,
          "velocity": 0.7874015748031497
        },
        {
          "duration": 0.46875,
          "durationTicks": 288,
          "midi": 30,
          "name": "F#1",
          "ticks": 82944,
          "time": 135,
          "velocity": 0.7874015748031497
        },
        {
          "duration": 0.3125,
          "durationTicks": 192,
          "midi": 65,
          "name": "F4",
          "ticks": 83040,
          "time": 135.15625,
          "velocity": 0.7874015748031497
        },
        {
          "duration": 0.3125,
          "durationTicks": 192,
          "midi": 67,
          "name": "G4",
          "ticks": 83136,
          "time": 135.3125,
          "velocity": 0.7874015748031497
        },
        {
          "duration": 0.3125,
          "durationTicks": 192,
          "midi": 60,
          "name": "C4",
          "ticks": 83232,
          "time": 135.46875,
          "velocity": 0.7874015748031497
        },
        {
          "duration": 0.46875,
          "durationTicks": 288,
          "midi": 30,
          "name": "F#1",
          "ticks": 83232,
          "time": 135.46875,
          "velocity": 0.7874015748031497
        },
        {
          "duration": 0.46875,
          "durationTicks": 288,
          "midi": 55,
          "name": "G3",
          "ticks": 83232,
          "time": 135.46875,
          "velocity": 0.7874015748031497
        },
        {
          "duration": 0.3125,
          "durationTicks": 192,
          "midi": 65,
          "name": "F4",
          "ticks": 83328,
          "time": 135.625,
          "velocity": 0.7874015748031497
        },
        {
          "duration": 0.3125,
          "durationTicks": 192,
          "midi": 67,
          "name": "G4",
          "ticks": 83424,
          "time": 135.78125,
          "velocity": 0.7874015748031497
        },
        {
          "duration": 0.3125,
          "durationTicks": 192,
          "midi": 60,
          "name": "C4",
          "ticks": 83520,
          "time": 135.9375,
          "velocity": 0.7874015748031497
        },
        {
          "duration": 0.15625,
          "durationTicks": 96,
          "midi": 53,
          "name": "F3",
          "ticks": 83520,
          "time": 135.9375,
          "velocity": 0.7874015748031497
        },
        {
          "duration": 0.15625,
          "durationTicks": 96,
          "midi": 30,
          "name": "F#1",
          "ticks": 83520,
          "time": 135.9375,
          "velocity": 0.7874015748031497
        },
        {
          "duration": 0.3125,
          "durationTicks": 192,
          "midi": 65,
          "name": "F4",
          "ticks": 83616,
          "time": 136.09375,
          "velocity": 0.7874015748031497
        },
        {
          "duration": 0.15625,
          "durationTicks": 96,
          "midi": 30,
          "name": "F#1",
          "ticks": 83616,
          "time": 136.09375,
          "velocity": 0.5905511811023622
        },
        {
          "duration": 0.15625,
          "durationTicks": 96,
          "midi": 53,
          "name": "F3",
          "ticks": 83628,
          "time": 136.11328125,
          "velocity": 0.5905511811023622
        },
        {
          "duration": 0.46875,
          "durationTicks": 288,
          "midi": 30,
          "name": "F#1",
          "ticks": 83712,
          "time": 136.25,
          "velocity": 0.7874015748031497
        },
        {
          "duration": 0.46875,
          "durationTicks": 288,
          "midi": 55,
          "name": "G3",
          "ticks": 83712,
          "time": 136.25,
          "velocity": 0.7874015748031497
        },
        {
          "duration": 0.3125,
          "durationTicks": 192,
          "midi": 60,
          "name": "C4",
          "ticks": 83712,
          "time": 136.25,
          "velocity": 0.7874015748031497
        },
        {
          "duration": 0.3125,
          "durationTicks": 192,
          "midi": 65,
          "name": "F4",
          "ticks": 83808,
          "time": 136.40625,
          "velocity": 0.7874015748031497
        },
        {
          "duration": 0.3125,
          "durationTicks": 192,
          "midi": 67,
          "name": "G4",
          "ticks": 83904,
          "time": 136.5625,
          "velocity": 0.7874015748031497
        },
        {
          "duration": 0.3125,
          "durationTicks": 192,
          "midi": 60,
          "name": "C4",
          "ticks": 84000,
          "time": 136.71875,
          "velocity": 0.7874015748031497
        },
        {
          "duration": 0.46875,
          "durationTicks": 288,
          "midi": 30,
          "name": "F#1",
          "ticks": 84000,
          "time": 136.71875,
          "velocity": 0.7874015748031497
        },
        {
          "duration": 0.46875,
          "durationTicks": 288,
          "midi": 55,
          "name": "G3",
          "ticks": 84000,
          "time": 136.71875,
          "velocity": 0.7874015748031497
        },
        {
          "duration": 0.3125,
          "durationTicks": 192,
          "midi": 65,
          "name": "F4",
          "ticks": 84096,
          "time": 136.875,
          "velocity": 0.7874015748031497
        },
        {
          "duration": 0.3125,
          "durationTicks": 192,
          "midi": 67,
          "name": "G4",
          "ticks": 84192,
          "time": 137.03125,
          "velocity": 0.7874015748031497
        },
        {
          "duration": 0.3125,
          "durationTicks": 192,
          "midi": 60,
          "name": "C4",
          "ticks": 84288,
          "time": 137.1875,
          "velocity": 0.7874015748031497
        },
        {
          "duration": 0.15625,
          "durationTicks": 96,
          "midi": 30,
          "name": "F#1",
          "ticks": 84288,
          "time": 137.1875,
          "velocity": 0.7874015748031497
        },
        {
          "duration": 0.15625,
          "durationTicks": 96,
          "midi": 53,
          "name": "F3",
          "ticks": 84288,
          "time": 137.1875,
          "velocity": 0.7874015748031497
        },
        {
          "duration": 0.3125,
          "durationTicks": 192,
          "midi": 65,
          "name": "F4",
          "ticks": 84384,
          "time": 137.34375,
          "velocity": 0.7874015748031497
        },
        {
          "duration": 0.15625,
          "durationTicks": 96,
          "midi": 30,
          "name": "F#1",
          "ticks": 84384,
          "time": 137.34375,
          "velocity": 0.5905511811023622
        },
        {
          "duration": 0.15625,
          "durationTicks": 96,
          "midi": 53,
          "name": "F3",
          "ticks": 84396,
          "time": 137.36328125,
          "velocity": 0.5905511811023622
        },
        {
          "duration": 0.3125,
          "durationTicks": 192,
          "midi": 60,
          "name": "C4",
          "ticks": 84480,
          "time": 137.5,
          "velocity": 0.7874015748031497
        },
        {
          "duration": 0.46875,
          "durationTicks": 288,
          "midi": 27,
          "name": "D#1",
          "ticks": 84480,
          "time": 137.5,
          "velocity": 0.7874015748031497
        },
        {
          "duration": 0.46875,
          "durationTicks": 288,
          "midi": 58,
          "name": "A#3",
          "ticks": 84480,
          "time": 137.5,
          "velocity": 0.7874015748031497
        },
        {
          "duration": 0.3125,
          "durationTicks": 192,
          "midi": 65,
          "name": "F4",
          "ticks": 84576,
          "time": 137.65625,
          "velocity": 0.7874015748031497
        },
        {
          "duration": 0.3125,
          "durationTicks": 192,
          "midi": 70,
          "name": "A#4",
          "ticks": 84672,
          "time": 137.8125,
          "velocity": 0.7874015748031497
        },
        {
          "duration": 0.46875,
          "durationTicks": 288,
          "midi": 58,
          "name": "A#3",
          "ticks": 84768,
          "time": 137.96875,
          "velocity": 0.7874015748031497
        },
        {
          "duration": 0.3125,
          "durationTicks": 192,
          "midi": 60,
          "name": "C4",
          "ticks": 84768,
          "time": 137.96875,
          "velocity": 0.7874015748031497
        },
        {
          "duration": 0.46875,
          "durationTicks": 288,
          "midi": 27,
          "name": "D#1",
          "ticks": 84768,
          "time": 137.96875,
          "velocity": 0.7874015748031497
        },
        {
          "duration": 0.3125,
          "durationTicks": 192,
          "midi": 65,
          "name": "F4",
          "ticks": 84864,
          "time": 138.125,
          "velocity": 0.7874015748031497
        },
        {
          "duration": 0.3125,
          "durationTicks": 192,
          "midi": 70,
          "name": "A#4",
          "ticks": 84960,
          "time": 138.28125,
          "velocity": 0.7874015748031497
        },
        {
          "duration": 0.15625,
          "durationTicks": 96,
          "midi": 53,
          "name": "F3",
          "ticks": 85056,
          "time": 138.4375,
          "velocity": 0.7874015748031497
        },
        {
          "duration": 0.3125,
          "durationTicks": 192,
          "midi": 27,
          "name": "D#1",
          "ticks": 85056,
          "time": 138.4375,
          "velocity": 0.7874015748031497
        },
        {
          "duration": 0.3125,
          "durationTicks": 192,
          "midi": 60,
          "name": "C4",
          "ticks": 85056,
          "time": 138.4375,
          "velocity": 0.7874015748031497
        },
        {
          "duration": 0.3125,
          "durationTicks": 192,
          "midi": 65,
          "name": "F4",
          "ticks": 85152,
          "time": 138.59375,
          "velocity": 0.7874015748031497
        },
        {
          "duration": 0.15625,
          "durationTicks": 96,
          "midi": 53,
          "name": "F3",
          "ticks": 85164,
          "time": 138.61328125,
          "velocity": 0.5905511811023622
        },
        {
          "duration": 0.3125,
          "durationTicks": 192,
          "midi": 60,
          "name": "C4",
          "ticks": 85248,
          "time": 138.75,
          "velocity": 0.7874015748031497
        },
        {
          "duration": 0.46875,
          "durationTicks": 288,
          "midi": 27,
          "name": "D#1",
          "ticks": 85248,
          "time": 138.75,
          "velocity": 0.7874015748031497
        },
        {
          "duration": 0.46875,
          "durationTicks": 288,
          "midi": 58,
          "name": "A#3",
          "ticks": 85248,
          "time": 138.75,
          "velocity": 0.7874015748031497
        },
        {
          "duration": 0.3125,
          "durationTicks": 192,
          "midi": 65,
          "name": "F4",
          "ticks": 85344,
          "time": 138.90625,
          "velocity": 0.7874015748031497
        },
        {
          "duration": 0.3125,
          "durationTicks": 192,
          "midi": 70,
          "name": "A#4",
          "ticks": 85440,
          "time": 139.0625,
          "velocity": 0.7874015748031497
        },
        {
          "duration": 0.15625,
          "durationTicks": 96,
          "midi": 27,
          "name": "D#1",
          "ticks": 85536,
          "time": 139.21875,
          "velocity": 0.7874015748031497
        },
        {
          "duration": 0.3125,
          "durationTicks": 192,
          "midi": 60,
          "name": "C4",
          "ticks": 85536,
          "time": 139.21875,
          "velocity": 0.7874015748031497
        },
        {
          "duration": 0.46875,
          "durationTicks": 288,
          "midi": 58,
          "name": "A#3",
          "ticks": 85536,
          "time": 139.21875,
          "velocity": 0.7874015748031497
        },
        {
          "duration": 0.3125,
          "durationTicks": 192,
          "midi": 27,
          "name": "D#1",
          "ticks": 85632,
          "time": 139.375,
          "velocity": 0.5905511811023622
        },
        {
          "duration": 0.3125,
          "durationTicks": 192,
          "midi": 65,
          "name": "F4",
          "ticks": 85632,
          "time": 139.375,
          "velocity": 0.7874015748031497
        },
        {
          "duration": 0.3125,
          "durationTicks": 192,
          "midi": 68,
          "name": "G#4",
          "ticks": 85728,
          "time": 139.53125,
          "velocity": 0.7874015748031497
        },
        {
          "duration": 0.15625,
          "durationTicks": 96,
          "midi": 56,
          "name": "G#3",
          "ticks": 85824,
          "time": 139.6875,
          "velocity": 0.7874015748031497
        },
        {
          "duration": 0.3125,
          "durationTicks": 192,
          "midi": 60,
          "name": "C4",
          "ticks": 85824,
          "time": 139.6875,
          "velocity": 0.7874015748031497
        },
        {
          "duration": 0.15625,
          "durationTicks": 96,
          "midi": 27,
          "name": "D#1",
          "ticks": 85824,
          "time": 139.6875,
          "velocity": 0.7874015748031497
        },
        {
          "duration": 0.15625,
          "durationTicks": 96,
          "midi": 27,
          "name": "D#1",
          "ticks": 85920,
          "time": 139.84375,
          "velocity": 0.5905511811023622
        },
        {
          "duration": 0.3125,
          "durationTicks": 192,
          "midi": 67,
          "name": "G4",
          "ticks": 85920,
          "time": 139.84375,
          "velocity": 0.7874015748031497
        },
        {
          "duration": 0.15625,
          "durationTicks": 96,
          "midi": 55,
          "name": "G3",
          "ticks": 85956,
          "time": 139.90234375,
          "velocity": 0.7874015748031497
        },
        {
          "duration": 0.46875,
          "durationTicks": 288,
          "midi": 55,
          "name": "G3",
          "ticks": 86016,
          "time": 140,
          "velocity": 0.7874015748031497
        },
        {
          "duration": 0.3125,
          "durationTicks": 192,
          "midi": 60,
          "name": "C4",
          "ticks": 86016,
          "time": 140,
          "velocity": 0.7874015748031497
        },
        {
          "duration": 0.46875,
          "durationTicks": 288,
          "midi": 24,
          "name": "C1",
          "ticks": 86016,
          "time": 140,
          "velocity": 0.7874015748031497
        },
        {
          "duration": 0.3125,
          "durationTicks": 192,
          "midi": 65,
          "name": "F4",
          "ticks": 86112,
          "time": 140.15625,
          "velocity": 0.7874015748031497
        },
        {
          "duration": 0.3125,
          "durationTicks": 192,
          "midi": 67,
          "name": "G4",
          "ticks": 86208,
          "time": 140.3125,
          "velocity": 0.7874015748031497
        },
        {
          "duration": 0.3125,
          "durationTicks": 192,
          "midi": 60,
          "name": "C4",
          "ticks": 86304,
          "time": 140.46875,
          "velocity": 0.7874015748031497
        },
        {
          "duration": 0.46875,
          "durationTicks": 288,
          "midi": 24,
          "name": "C1",
          "ticks": 86304,
          "time": 140.46875,
          "velocity": 0.7874015748031497
        },
        {
          "duration": 0.46875,
          "durationTicks": 288,
          "midi": 55,
          "name": "G3",
          "ticks": 86304,
          "time": 140.46875,
          "velocity": 0.7874015748031497
        },
        {
          "duration": 0.3125,
          "durationTicks": 192,
          "midi": 65,
          "name": "F4",
          "ticks": 86400,
          "time": 140.625,
          "velocity": 0.7874015748031497
        },
        {
          "duration": 0.3125,
          "durationTicks": 192,
          "midi": 67,
          "name": "G4",
          "ticks": 86496,
          "time": 140.78125,
          "velocity": 0.7874015748031497
        },
        {
          "duration": 0.3125,
          "durationTicks": 192,
          "midi": 60,
          "name": "C4",
          "ticks": 86592,
          "time": 140.9375,
          "velocity": 0.7874015748031497
        },
        {
          "duration": 0.15625,
          "durationTicks": 96,
          "midi": 24,
          "name": "C1",
          "ticks": 86592,
          "time": 140.9375,
          "velocity": 0.7874015748031497
        },
        {
          "duration": 0.15625,
          "durationTicks": 96,
          "midi": 53,
          "name": "F3",
          "ticks": 86592,
          "time": 140.9375,
          "velocity": 0.7874015748031497
        },
        {
          "duration": 0.3125,
          "durationTicks": 192,
          "midi": 65,
          "name": "F4",
          "ticks": 86688,
          "time": 141.09375,
          "velocity": 0.7874015748031497
        },
        {
          "duration": 0.15625,
          "durationTicks": 96,
          "midi": 24,
          "name": "C1",
          "ticks": 86688,
          "time": 141.09375,
          "velocity": 0.5905511811023622
        },
        {
          "duration": 0.15625,
          "durationTicks": 96,
          "midi": 53,
          "name": "F3",
          "ticks": 86700,
          "time": 141.11328125,
          "velocity": 0.5905511811023622
        },
        {
          "duration": 0.3125,
          "durationTicks": 192,
          "midi": 60,
          "name": "C4",
          "ticks": 86784,
          "time": 141.25,
          "velocity": 0.7874015748031497
        },
        {
          "duration": 0.46875,
          "durationTicks": 288,
          "midi": 55,
          "name": "G3",
          "ticks": 86784,
          "time": 141.25,
          "velocity": 0.7874015748031497
        },
        {
          "duration": 0.46875,
          "durationTicks": 288,
          "midi": 24,
          "name": "C1",
          "ticks": 86784,
          "time": 141.25,
          "velocity": 0.7874015748031497
        },
        {
          "duration": 0.3125,
          "durationTicks": 192,
          "midi": 65,
          "name": "F4",
          "ticks": 86880,
          "time": 141.40625,
          "velocity": 0.7874015748031497
        },
        {
          "duration": 0.3125,
          "durationTicks": 192,
          "midi": 67,
          "name": "G4",
          "ticks": 86976,
          "time": 141.5625,
          "velocity": 0.7874015748031497
        },
        {
          "duration": 0.15625,
          "durationTicks": 96,
          "midi": 24,
          "name": "C1",
          "ticks": 87072,
          "time": 141.71875,
          "velocity": 0.7874015748031497
        },
        {
          "duration": 0.3125,
          "durationTicks": 192,
          "midi": 60,
          "name": "C4",
          "ticks": 87072,
          "time": 141.71875,
          "velocity": 0.7874015748031497
        },
        {
          "duration": 0.46875,
          "durationTicks": 288,
          "midi": 55,
          "name": "G3",
          "ticks": 87072,
          "time": 141.71875,
          "velocity": 0.7874015748031497
        },
        {
          "duration": 0.3125,
          "durationTicks": 192,
          "midi": 65,
          "name": "F4",
          "ticks": 87168,
          "time": 141.875,
          "velocity": 0.7874015748031497
        },
        {
          "duration": 0.3125,
          "durationTicks": 192,
          "midi": 24,
          "name": "C1",
          "ticks": 87168,
          "time": 141.875,
          "velocity": 0.5905511811023622
        },
        {
          "duration": 0.3125,
          "durationTicks": 192,
          "midi": 67,
          "name": "G4",
          "ticks": 87264,
          "time": 142.03125,
          "velocity": 0.7874015748031497
        },
        {
          "duration": 0.3125,
          "durationTicks": 192,
          "midi": 60,
          "name": "C4",
          "ticks": 87360,
          "time": 142.1875,
          "velocity": 0.7874015748031497
        },
        {
          "duration": 0.3125,
          "durationTicks": 192,
          "midi": 24,
          "name": "C1",
          "ticks": 87360,
          "time": 142.1875,
          "velocity": 0.7874015748031497
        },
        {
          "duration": 0.15625,
          "durationTicks": 96,
          "midi": 53,
          "name": "F3",
          "ticks": 87360,
          "time": 142.1875,
          "velocity": 0.7874015748031497
        },
        {
          "duration": 0.3125,
          "durationTicks": 192,
          "midi": 65,
          "name": "F4",
          "ticks": 87456,
          "time": 142.34375,
          "velocity": 0.7874015748031497
        },
        {
          "duration": 0.15625,
          "durationTicks": 96,
          "midi": 53,
          "name": "F3",
          "ticks": 87468,
          "time": 142.36328125,
          "velocity": 0.5905511811023622
        },
        {
          "duration": 0.3125,
          "durationTicks": 192,
          "midi": 60,
          "name": "C4",
          "ticks": 87552,
          "time": 142.5,
          "velocity": 0.7874015748031497
        },
        {
          "duration": 0.46875,
          "durationTicks": 288,
          "midi": 25,
          "name": "C#1",
          "ticks": 87552,
          "time": 142.5,
          "velocity": 0.7874015748031497
        },
        {
          "duration": 0.46875,
          "durationTicks": 288,
          "midi": 56,
          "name": "G#3",
          "ticks": 87552,
          "time": 142.5,
          "velocity": 0.7874015748031497
        },
        {
          "duration": 0.3125,
          "durationTicks": 192,
          "midi": 65,
          "name": "F4",
          "ticks": 87648,
          "time": 142.65625,
          "velocity": 0.7874015748031497
        },
        {
          "duration": 0.3125,
          "durationTicks": 192,
          "midi": 68,
          "name": "G#4",
          "ticks": 87744,
          "time": 142.8125,
          "velocity": 0.7874015748031497
        },
        {
          "duration": 0.15625,
          "durationTicks": 96,
          "midi": 25,
          "name": "C#1",
          "ticks": 87840,
          "time": 142.96875,
          "velocity": 0.7874015748031497
        },
        {
          "duration": 0.3125,
          "durationTicks": 192,
          "midi": 60,
          "name": "C4",
          "ticks": 87840,
          "time": 142.96875,
          "velocity": 0.7874015748031497
        },
        {
          "duration": 0.46875,
          "durationTicks": 288,
          "midi": 56,
          "name": "G#3",
          "ticks": 87840,
          "time": 142.96875,
          "velocity": 0.7874015748031497
        },
        {
          "duration": 0.3125,
          "durationTicks": 192,
          "midi": 65,
          "name": "F4",
          "ticks": 87936,
          "time": 143.125,
          "velocity": 0.7874015748031497
        },
        {
          "duration": 0.3125,
          "durationTicks": 192,
          "midi": 25,
          "name": "C#1",
          "ticks": 87936,
          "time": 143.125,
          "velocity": 0.5905511811023622
        },
        {
          "duration": 0.3125,
          "durationTicks": 192,
          "midi": 68,
          "name": "G#4",
          "ticks": 88032,
          "time": 143.28125,
          "velocity": 0.7874015748031497
        },
        {
          "duration": 0.15625,
          "durationTicks": 96,
          "midi": 53,
          "name": "F3",
          "ticks": 88128,
          "time": 143.4375,
          "velocity": 0.7874015748031497
        },
        {
          "duration": 0.3125,
          "durationTicks": 192,
          "midi": 25,
          "name": "C#1",
          "ticks": 88128,
          "time": 143.4375,
          "velocity": 0.7874015748031497
        },
        {
          "duration": 0.3125,
          "durationTicks": 192,
          "midi": 60,
          "name": "C4",
          "ticks": 88128,
          "time": 143.4375,
          "velocity": 0.7874015748031497
        },
        {
          "duration": 0.3125,
          "durationTicks": 192,
          "midi": 65,
          "name": "F4",
          "ticks": 88224,
          "time": 143.59375,
          "velocity": 0.7874015748031497
        },
        {
          "duration": 0.15625,
          "durationTicks": 96,
          "midi": 53,
          "name": "F3",
          "ticks": 88236,
          "time": 143.61328125,
          "velocity": 0.5905511811023622
        },
        {
          "duration": 0.3125,
          "durationTicks": 192,
          "midi": 60,
          "name": "C4",
          "ticks": 88320,
          "time": 143.75,
          "velocity": 0.7874015748031497
        },
        {
          "duration": 0.46875,
          "durationTicks": 288,
          "midi": 25,
          "name": "C#1",
          "ticks": 88320,
          "time": 143.75,
          "velocity": 0.7874015748031497
        },
        {
          "duration": 0.46875,
          "durationTicks": 288,
          "midi": 56,
          "name": "G#3",
          "ticks": 88320,
          "time": 143.75,
          "velocity": 0.7874015748031497
        },
        {
          "duration": 0.3125,
          "durationTicks": 192,
          "midi": 65,
          "name": "F4",
          "ticks": 88416,
          "time": 143.90625,
          "velocity": 0.7874015748031497
        },
        {
          "duration": 0.3125,
          "durationTicks": 192,
          "midi": 68,
          "name": "G#4",
          "ticks": 88512,
          "time": 144.0625,
          "velocity": 0.7874015748031497
        },
        {
          "duration": 0.46875,
          "durationTicks": 288,
          "midi": 25,
          "name": "C#1",
          "ticks": 88608,
          "time": 144.21875,
          "velocity": 0.7874015748031497
        },
        {
          "duration": 0.3125,
          "durationTicks": 192,
          "midi": 60,
          "name": "C4",
          "ticks": 88608,
          "time": 144.21875,
          "velocity": 0.7874015748031497
        },
        {
          "duration": 0.46875,
          "durationTicks": 288,
          "midi": 56,
          "name": "G#3",
          "ticks": 88608,
          "time": 144.21875,
          "velocity": 0.7874015748031497
        },
        {
          "duration": 0.3125,
          "durationTicks": 192,
          "midi": 65,
          "name": "F4",
          "ticks": 88704,
          "time": 144.375,
          "velocity": 0.7874015748031497
        },
        {
          "duration": 0.3125,
          "durationTicks": 192,
          "midi": 68,
          "name": "G#4",
          "ticks": 88800,
          "time": 144.53125,
          "velocity": 0.7874015748031497
        },
        {
          "duration": 0.15625,
          "durationTicks": 96,
          "midi": 25,
          "name": "C#1",
          "ticks": 88896,
          "time": 144.6875,
          "velocity": 0.7874015748031497
        },
        {
          "duration": 0.15625,
          "durationTicks": 96,
          "midi": 53,
          "name": "F3",
          "ticks": 88896,
          "time": 144.6875,
          "velocity": 0.7874015748031497
        },
        {
          "duration": 0.3125,
          "durationTicks": 192,
          "midi": 60,
          "name": "C4",
          "ticks": 88896,
          "time": 144.6875,
          "velocity": 0.7874015748031497
        },
        {
          "duration": 0.15625,
          "durationTicks": 96,
          "midi": 25,
          "name": "C#1",
          "ticks": 88992,
          "time": 144.84375,
          "velocity": 0.5905511811023622
        },
        {
          "duration": 0.3125,
          "durationTicks": 192,
          "midi": 65,
          "name": "F4",
          "ticks": 88992,
          "time": 144.84375,
          "velocity": 0.7874015748031497
        },
        {
          "duration": 0.15625,
          "durationTicks": 96,
          "midi": 53,
          "name": "F3",
          "ticks": 89004,
          "time": 144.86328125,
          "velocity": 0.5905511811023622
        },
        {
          "duration": 0.3125,
          "durationTicks": 192,
          "midi": 60,
          "name": "C4",
          "ticks": 89088,
          "time": 145,
          "velocity": 0.7874015748031497
        },
        {
          "duration": 0.46875,
          "durationTicks": 288,
          "midi": 30,
          "name": "F#1",
          "ticks": 89088,
          "time": 145,
          "velocity": 0.7874015748031497
        },
        {
          "duration": 0.46875,
          "durationTicks": 288,
          "midi": 55,
          "name": "G3",
          "ticks": 89088,
          "time": 145,
          "velocity": 0.7874015748031497
        },
        {
          "duration": 0.3125,
          "durationTicks": 192,
          "midi": 65,
          "name": "F4",
          "ticks": 89184,
          "time": 145.15625,
          "velocity": 0.7874015748031497
        },
        {
          "duration": 0.3125,
          "durationTicks": 192,
          "midi": 67,
          "name": "G4",
          "ticks": 89280,
          "time": 145.3125,
          "velocity": 0.7874015748031497
        },
        {
          "duration": 0.3125,
          "durationTicks": 192,
          "midi": 60,
          "name": "C4",
          "ticks": 89376,
          "time": 145.46875,
          "velocity": 0.7874015748031497
        },
        {
          "duration": 0.46875,
          "durationTicks": 288,
          "midi": 30,
          "name": "F#1",
          "ticks": 89376,
          "time": 145.46875,
          "velocity": 0.7874015748031497
        },
        {
          "duration": 0.46875,
          "durationTicks": 288,
          "midi": 55,
          "name": "G3",
          "ticks": 89376,
          "time": 145.46875,
          "velocity": 0.7874015748031497
        },
        {
          "duration": 0.3125,
          "durationTicks": 192,
          "midi": 65,
          "name": "F4",
          "ticks": 89472,
          "time": 145.625,
          "velocity": 0.7874015748031497
        },
        {
          "duration": 0.3125,
          "durationTicks": 192,
          "midi": 67,
          "name": "G4",
          "ticks": 89568,
          "time": 145.78125,
          "velocity": 0.7874015748031497
        },
        {
          "duration": 0.15625,
          "durationTicks": 96,
          "midi": 30,
          "name": "F#1",
          "ticks": 89664,
          "time": 145.9375,
          "velocity": 0.7874015748031497
        },
        {
          "duration": 0.3125,
          "durationTicks": 192,
          "midi": 60,
          "name": "C4",
          "ticks": 89664,
          "time": 145.9375,
          "velocity": 0.7874015748031497
        },
        {
          "duration": 0.15625,
          "durationTicks": 96,
          "midi": 53,
          "name": "F3",
          "ticks": 89664,
          "time": 145.9375,
          "velocity": 0.7874015748031497
        },
        {
          "duration": 0.15625,
          "durationTicks": 96,
          "midi": 30,
          "name": "F#1",
          "ticks": 89760,
          "time": 146.09375,
          "velocity": 0.5905511811023622
        },
        {
          "duration": 0.3125,
          "durationTicks": 192,
          "midi": 65,
          "name": "F4",
          "ticks": 89760,
          "time": 146.09375,
          "velocity": 0.7874015748031497
        },
        {
          "duration": 0.15625,
          "durationTicks": 96,
          "midi": 53,
          "name": "F3",
          "ticks": 89772,
          "time": 146.11328125,
          "velocity": 0.5905511811023622
        },
        {
          "duration": 0.3125,
          "durationTicks": 192,
          "midi": 60,
          "name": "C4",
          "ticks": 89856,
          "time": 146.25,
          "velocity": 0.7874015748031497
        },
        {
          "duration": 0.46875,
          "durationTicks": 288,
          "midi": 30,
          "name": "F#1",
          "ticks": 89856,
          "time": 146.25,
          "velocity": 0.7874015748031497
        },
        {
          "duration": 0.46875,
          "durationTicks": 288,
          "midi": 55,
          "name": "G3",
          "ticks": 89856,
          "time": 146.25,
          "velocity": 0.7874015748031497
        },
        {
          "duration": 0.3125,
          "durationTicks": 192,
          "midi": 65,
          "name": "F4",
          "ticks": 89952,
          "time": 146.40625,
          "velocity": 0.7874015748031497
        },
        {
          "duration": 0.3125,
          "durationTicks": 192,
          "midi": 67,
          "name": "G4",
          "ticks": 90048,
          "time": 146.5625,
          "velocity": 0.7874015748031497
        },
        {
          "duration": 0.3125,
          "durationTicks": 192,
          "midi": 60,
          "name": "C4",
          "ticks": 90144,
          "time": 146.71875,
          "velocity": 0.7874015748031497
        },
        {
          "duration": 0.46875,
          "durationTicks": 288,
          "midi": 55,
          "name": "G3",
          "ticks": 90144,
          "time": 146.71875,
          "velocity": 0.7874015748031497
        },
        {
          "duration": 0.46875,
          "durationTicks": 288,
          "midi": 30,
          "name": "F#1",
          "ticks": 90144,
          "time": 146.71875,
          "velocity": 0.7874015748031497
        },
        {
          "duration": 0.3125,
          "durationTicks": 192,
          "midi": 65,
          "name": "F4",
          "ticks": 90240,
          "time": 146.875,
          "velocity": 0.7874015748031497
        },
        {
          "duration": 0.3125,
          "durationTicks": 192,
          "midi": 67,
          "name": "G4",
          "ticks": 90336,
          "time": 147.03125,
          "velocity": 0.7874015748031497
        },
        {
          "duration": 0.15625,
          "durationTicks": 96,
          "midi": 53,
          "name": "F3",
          "ticks": 90432,
          "time": 147.1875,
          "velocity": 0.7874015748031497
        },
        {
          "duration": 0.3125,
          "durationTicks": 192,
          "midi": 60,
          "name": "C4",
          "ticks": 90432,
          "time": 147.1875,
          "velocity": 0.7874015748031497
        },
        {
          "duration": 0.15625,
          "durationTicks": 96,
          "midi": 30,
          "name": "F#1",
          "ticks": 90432,
          "time": 147.1875,
          "velocity": 0.7874015748031497
        },
        {
          "duration": 0.15625,
          "durationTicks": 96,
          "midi": 30,
          "name": "F#1",
          "ticks": 90528,
          "time": 147.34375,
          "velocity": 0.5905511811023622
        },
        {
          "duration": 0.3125,
          "durationTicks": 192,
          "midi": 65,
          "name": "F4",
          "ticks": 90528,
          "time": 147.34375,
          "velocity": 0.7874015748031497
        },
        {
          "duration": 0.15625,
          "durationTicks": 96,
          "midi": 53,
          "name": "F3",
          "ticks": 90540,
          "time": 147.36328125,
          "velocity": 0.5905511811023622
        },
        {
          "duration": 0.46875,
          "durationTicks": 288,
          "midi": 58,
          "name": "A#3",
          "ticks": 90624,
          "time": 147.5,
          "velocity": 0.7874015748031497
        },
        {
          "duration": 0.46875,
          "durationTicks": 288,
          "midi": 27,
          "name": "D#1",
          "ticks": 90624,
          "time": 147.5,
          "velocity": 0.7874015748031497
        },
        {
          "duration": 0.3125,
          "durationTicks": 192,
          "midi": 60,
          "name": "C4",
          "ticks": 90624,
          "time": 147.5,
          "velocity": 0.7874015748031497
        },
        {
          "duration": 0.3125,
          "durationTicks": 192,
          "midi": 65,
          "name": "F4",
          "ticks": 90720,
          "time": 147.65625,
          "velocity": 0.7874015748031497
        },
        {
          "duration": 0.3125,
          "durationTicks": 192,
          "midi": 70,
          "name": "A#4",
          "ticks": 90816,
          "time": 147.8125,
          "velocity": 0.7874015748031497
        },
        {
          "duration": 0.3125,
          "durationTicks": 192,
          "midi": 60,
          "name": "C4",
          "ticks": 90912,
          "time": 147.96875,
          "velocity": 0.7874015748031497
        },
        {
          "duration": 0.46875,
          "durationTicks": 288,
          "midi": 27,
          "name": "D#1",
          "ticks": 90912,
          "time": 147.96875,
          "velocity": 0.7874015748031497
        },
        {
          "duration": 0.46875,
          "durationTicks": 288,
          "midi": 58,
          "name": "A#3",
          "ticks": 90912,
          "time": 147.96875,
          "velocity": 0.7874015748031497
        },
        {
          "duration": 0.3125,
          "durationTicks": 192,
          "midi": 65,
          "name": "F4",
          "ticks": 91008,
          "time": 148.125,
          "velocity": 0.7874015748031497
        },
        {
          "duration": 0.3125,
          "durationTicks": 192,
          "midi": 70,
          "name": "A#4",
          "ticks": 91104,
          "time": 148.28125,
          "velocity": 0.7874015748031497
        },
        {
          "duration": 0.3125,
          "durationTicks": 192,
          "midi": 60,
          "name": "C4",
          "ticks": 91200,
          "time": 148.4375,
          "velocity": 0.7874015748031497
        },
        {
          "duration": 0.3125,
          "durationTicks": 192,
          "midi": 27,
          "name": "D#1",
          "ticks": 91200,
          "time": 148.4375,
          "velocity": 0.7874015748031497
        },
        {
          "duration": 0.15625,
          "durationTicks": 96,
          "midi": 53,
          "name": "F3",
          "ticks": 91200,
          "time": 148.4375,
          "velocity": 0.7874015748031497
        },
        {
          "duration": 0.3125,
          "durationTicks": 192,
          "midi": 65,
          "name": "F4",
          "ticks": 91296,
          "time": 148.59375,
          "velocity": 0.7874015748031497
        },
        {
          "duration": 0.15625,
          "durationTicks": 96,
          "midi": 53,
          "name": "F3",
          "ticks": 91308,
          "time": 148.61328125,
          "velocity": 0.5905511811023622
        },
        {
          "duration": 0.46875,
          "durationTicks": 288,
          "midi": 27,
          "name": "D#1",
          "ticks": 91392,
          "time": 148.75,
          "velocity": 0.7874015748031497
        },
        {
          "duration": 0.46875,
          "durationTicks": 288,
          "midi": 58,
          "name": "A#3",
          "ticks": 91392,
          "time": 148.75,
          "velocity": 0.7874015748031497
        },
        {
          "duration": 0.3125,
          "durationTicks": 192,
          "midi": 60,
          "name": "C4",
          "ticks": 91392,
          "time": 148.75,
          "velocity": 0.7874015748031497
        },
        {
          "duration": 0.3125,
          "durationTicks": 192,
          "midi": 65,
          "name": "F4",
          "ticks": 91488,
          "time": 148.90625,
          "velocity": 0.7874015748031497
        },
        {
          "duration": 0.3125,
          "durationTicks": 192,
          "midi": 70,
          "name": "A#4",
          "ticks": 91584,
          "time": 149.0625,
          "velocity": 0.7874015748031497
        },
        {
          "duration": 0.46875,
          "durationTicks": 288,
          "midi": 58,
          "name": "A#3",
          "ticks": 91680,
          "time": 149.21875,
          "velocity": 0.7874015748031497
        },
        {
          "duration": 0.15625,
          "durationTicks": 96,
          "midi": 27,
          "name": "D#1",
          "ticks": 91680,
          "time": 149.21875,
          "velocity": 0.7874015748031497
        },
        {
          "duration": 0.3125,
          "durationTicks": 192,
          "midi": 60,
          "name": "C4",
          "ticks": 91680,
          "time": 149.21875,
          "velocity": 0.7874015748031497
        },
        {
          "duration": 0.3125,
          "durationTicks": 192,
          "midi": 65,
          "name": "F4",
          "ticks": 91776,
          "time": 149.375,
          "velocity": 0.7874015748031497
        },
        {
          "duration": 0.3125,
          "durationTicks": 192,
          "midi": 27,
          "name": "D#1",
          "ticks": 91776,
          "time": 149.375,
          "velocity": 0.5905511811023622
        },
        {
          "duration": 0.3125,
          "durationTicks": 192,
          "midi": 68,
          "name": "G#4",
          "ticks": 91872,
          "time": 149.53125,
          "velocity": 0.7874015748031497
        },
        {
          "duration": 0.3125,
          "durationTicks": 192,
          "midi": 60,
          "name": "C4",
          "ticks": 91968,
          "time": 149.6875,
          "velocity": 0.7874015748031497
        },
        {
          "duration": 0.15625,
          "durationTicks": 96,
          "midi": 56,
          "name": "G#3",
          "ticks": 91968,
          "time": 149.6875,
          "velocity": 0.7874015748031497
        },
        {
          "duration": 0.15625,
          "durationTicks": 96,
          "midi": 27,
          "name": "D#1",
          "ticks": 91968,
          "time": 149.6875,
          "velocity": 0.7874015748031497
        },
        {
          "duration": 0.15625,
          "durationTicks": 96,
          "midi": 27,
          "name": "D#1",
          "ticks": 92064,
          "time": 149.84375,
          "velocity": 0.5905511811023622
        },
        {
          "duration": 0.3125,
          "durationTicks": 192,
          "midi": 67,
          "name": "G4",
          "ticks": 92064,
          "time": 149.84375,
          "velocity": 0.7874015748031497
        },
        {
          "duration": 0.15625,
          "durationTicks": 96,
          "midi": 55,
          "name": "G3",
          "ticks": 92100,
          "time": 149.90234375,
          "velocity": 0.7874015748031497
        },
        {
          "duration": 0.46875,
          "durationTicks": 288,
          "midi": 24,
          "name": "C1",
          "ticks": 92160,
          "time": 150,
          "velocity": 0.7874015748031497
        },
        {
          "duration": 0.3125,
          "durationTicks": 192,
          "midi": 60,
          "name": "C4",
          "ticks": 92160,
          "time": 150,
          "velocity": 0.7874015748031497
        },
        {
          "duration": 0.46875,
          "durationTicks": 288,
          "midi": 55,
          "name": "G3",
          "ticks": 92160,
          "time": 150,
          "velocity": 0.7874015748031497
        },
        {
          "duration": 0.3125,
          "durationTicks": 192,
          "midi": 65,
          "name": "F4",
          "ticks": 92256,
          "time": 150.15625,
          "velocity": 0.7874015748031497
        },
        {
          "duration": 0.3125,
          "durationTicks": 192,
          "midi": 67,
          "name": "G4",
          "ticks": 92352,
          "time": 150.3125,
          "velocity": 0.7874015748031497
        },
        {
          "duration": 0.46875,
          "durationTicks": 288,
          "midi": 55,
          "name": "G3",
          "ticks": 92448,
          "time": 150.46875,
          "velocity": 0.7874015748031497
        },
        {
          "duration": 0.3125,
          "durationTicks": 192,
          "midi": 60,
          "name": "C4",
          "ticks": 92448,
          "time": 150.46875,
          "velocity": 0.7874015748031497
        },
        {
          "duration": 0.46875,
          "durationTicks": 288,
          "midi": 24,
          "name": "C1",
          "ticks": 92448,
          "time": 150.46875,
          "velocity": 0.7874015748031497
        },
        {
          "duration": 0.3125,
          "durationTicks": 192,
          "midi": 65,
          "name": "F4",
          "ticks": 92544,
          "time": 150.625,
          "velocity": 0.7874015748031497
        },
        {
          "duration": 0.3125,
          "durationTicks": 192,
          "midi": 67,
          "name": "G4",
          "ticks": 92640,
          "time": 150.78125,
          "velocity": 0.7874015748031497
        },
        {
          "duration": 0.15625,
          "durationTicks": 96,
          "midi": 24,
          "name": "C1",
          "ticks": 92736,
          "time": 150.9375,
          "velocity": 0.7874015748031497
        },
        {
          "duration": 0.15625,
          "durationTicks": 96,
          "midi": 53,
          "name": "F3",
          "ticks": 92736,
          "time": 150.9375,
          "velocity": 0.7874015748031497
        },
        {
          "duration": 0.3125,
          "durationTicks": 192,
          "midi": 60,
          "name": "C4",
          "ticks": 92736,
          "time": 150.9375,
          "velocity": 0.7874015748031497
        },
        {
          "duration": 0.15625,
          "durationTicks": 96,
          "midi": 24,
          "name": "C1",
          "ticks": 92832,
          "time": 151.09375,
          "velocity": 0.5905511811023622
        },
        {
          "duration": 0.3125,
          "durationTicks": 192,
          "midi": 65,
          "name": "F4",
          "ticks": 92832,
          "time": 151.09375,
          "velocity": 0.7874015748031497
        },
        {
          "duration": 0.15625,
          "durationTicks": 96,
          "midi": 53,
          "name": "F3",
          "ticks": 92844,
          "time": 151.11328125,
          "velocity": 0.5905511811023622
        },
        {
          "duration": 0.3125,
          "durationTicks": 192,
          "midi": 60,
          "name": "C4",
          "ticks": 92928,
          "time": 151.25,
          "velocity": 0.7874015748031497
        },
        {
          "duration": 0.46875,
          "durationTicks": 288,
          "midi": 24,
          "name": "C1",
          "ticks": 92928,
          "time": 151.25,
          "velocity": 0.7874015748031497
        },
        {
          "duration": 0.46875,
          "durationTicks": 288,
          "midi": 55,
          "name": "G3",
          "ticks": 92928,
          "time": 151.25,
          "velocity": 0.7874015748031497
        },
        {
          "duration": 0.3125,
          "durationTicks": 192,
          "midi": 65,
          "name": "F4",
          "ticks": 93024,
          "time": 151.40625,
          "velocity": 0.7874015748031497
        },
        {
          "duration": 0.3125,
          "durationTicks": 192,
          "midi": 67,
          "name": "G4",
          "ticks": 93120,
          "time": 151.5625,
          "velocity": 0.7874015748031497
        },
        {
          "duration": 0.3125,
          "durationTicks": 192,
          "midi": 60,
          "name": "C4",
          "ticks": 93216,
          "time": 151.71875,
          "velocity": 0.7874015748031497
        },
        {
          "duration": 0.46875,
          "durationTicks": 288,
          "midi": 55,
          "name": "G3",
          "ticks": 93216,
          "time": 151.71875,
          "velocity": 0.7874015748031497
        },
        {
          "duration": 0.15625,
          "durationTicks": 96,
          "midi": 24,
          "name": "C1",
          "ticks": 93216,
          "time": 151.71875,
          "velocity": 0.7874015748031497
        },
        {
          "duration": 0.3125,
          "durationTicks": 192,
          "midi": 65,
          "name": "F4",
          "ticks": 93312,
          "time": 151.875,
          "velocity": 0.7874015748031497
        },
        {
          "duration": 0.3125,
          "durationTicks": 192,
          "midi": 24,
          "name": "C1",
          "ticks": 93312,
          "time": 151.875,
          "velocity": 0.5905511811023622
        },
        {
          "duration": 0.3125,
          "durationTicks": 192,
          "midi": 67,
          "name": "G4",
          "ticks": 93408,
          "time": 152.03125,
          "velocity": 0.7874015748031497
        },
        {
          "duration": 0.3125,
          "durationTicks": 192,
          "midi": 24,
          "name": "C1",
          "ticks": 93504,
          "time": 152.1875,
          "velocity": 0.7874015748031497
        },
        {
          "duration": 0.3125,
          "durationTicks": 192,
          "midi": 60,
          "name": "C4",
          "ticks": 93504,
          "time": 152.1875,
          "velocity": 0.7874015748031497
        },
        {
          "duration": 0.15625,
          "durationTicks": 96,
          "midi": 53,
          "name": "F3",
          "ticks": 93504,
          "time": 152.1875,
          "velocity": 0.7874015748031497
        },
        {
          "duration": 0.3125,
          "durationTicks": 192,
          "midi": 65,
          "name": "F4",
          "ticks": 93600,
          "time": 152.34375,
          "velocity": 0.7874015748031497
        },
        {
          "duration": 0.15625,
          "durationTicks": 96,
          "midi": 53,
          "name": "F3",
          "ticks": 93612,
          "time": 152.36328125,
          "velocity": 0.5905511811023622
        },
        {
          "duration": 0.3125,
          "durationTicks": 192,
          "midi": 60,
          "name": "C4",
          "ticks": 93696,
          "time": 152.5,
          "velocity": 0.7874015748031497
        },
        {
          "duration": 0.46875,
          "durationTicks": 288,
          "midi": 25,
          "name": "C#1",
          "ticks": 93696,
          "time": 152.5,
          "velocity": 0.7874015748031497
        },
        {
          "duration": 0.46875,
          "durationTicks": 288,
          "midi": 56,
          "name": "G#3",
          "ticks": 93696,
          "time": 152.5,
          "velocity": 0.7874015748031497
        },
        {
          "duration": 0.3125,
          "durationTicks": 192,
          "midi": 65,
          "name": "F4",
          "ticks": 93792,
          "time": 152.65625,
          "velocity": 0.7874015748031497
        },
        {
          "duration": 0.3125,
          "durationTicks": 192,
          "midi": 68,
          "name": "G#4",
          "ticks": 93888,
          "time": 152.8125,
          "velocity": 0.7874015748031497
        },
        {
          "duration": 0.46875,
          "durationTicks": 288,
          "midi": 56,
          "name": "G#3",
          "ticks": 93984,
          "time": 152.96875,
          "velocity": 0.7874015748031497
        },
        {
          "duration": 0.15625,
          "durationTicks": 96,
          "midi": 25,
          "name": "C#1",
          "ticks": 93984,
          "time": 152.96875,
          "velocity": 0.7874015748031497
        },
        {
          "duration": 0.3125,
          "durationTicks": 192,
          "midi": 60,
          "name": "C4",
          "ticks": 93984,
          "time": 152.96875,
          "velocity": 0.7874015748031497
        },
        {
          "duration": 0.3125,
          "durationTicks": 192,
          "midi": 25,
          "name": "C#1",
          "ticks": 94080,
          "time": 153.125,
          "velocity": 0.5905511811023622
        },
        {
          "duration": 0.3125,
          "durationTicks": 192,
          "midi": 65,
          "name": "F4",
          "ticks": 94080,
          "time": 153.125,
          "velocity": 0.7874015748031497
        },
        {
          "duration": 0.3125,
          "durationTicks": 192,
          "midi": 68,
          "name": "G#4",
          "ticks": 94176,
          "time": 153.28125,
          "velocity": 0.7874015748031497
        },
        {
          "duration": 0.15625,
          "durationTicks": 96,
          "midi": 53,
          "name": "F3",
          "ticks": 94272,
          "time": 153.4375,
          "velocity": 0.7874015748031497
        },
        {
          "duration": 0.3125,
          "durationTicks": 192,
          "midi": 60,
          "name": "C4",
          "ticks": 94272,
          "time": 153.4375,
          "velocity": 0.7874015748031497
        },
        {
          "duration": 0.3125,
          "durationTicks": 192,
          "midi": 25,
          "name": "C#1",
          "ticks": 94272,
          "time": 153.4375,
          "velocity": 0.7874015748031497
        },
        {
          "duration": 0.3125,
          "durationTicks": 192,
          "midi": 65,
          "name": "F4",
          "ticks": 94368,
          "time": 153.59375,
          "velocity": 0.7874015748031497
        },
        {
          "duration": 0.15625,
          "durationTicks": 96,
          "midi": 53,
          "name": "F3",
          "ticks": 94380,
          "time": 153.61328125,
          "velocity": 0.5905511811023622
        },
        {
          "duration": 0.3125,
          "durationTicks": 192,
          "midi": 60,
          "name": "C4",
          "ticks": 94464,
          "time": 153.75,
          "velocity": 0.7874015748031497
        },
        {
          "duration": 0.46875,
          "durationTicks": 288,
          "midi": 25,
          "name": "C#1",
          "ticks": 94464,
          "time": 153.75,
          "velocity": 0.7874015748031497
        },
        {
          "duration": 0.46875,
          "durationTicks": 288,
          "midi": 56,
          "name": "G#3",
          "ticks": 94464,
          "time": 153.75,
          "velocity": 0.7874015748031497
        },
        {
          "duration": 0.3125,
          "durationTicks": 192,
          "midi": 65,
          "name": "F4",
          "ticks": 94560,
          "time": 153.90625,
          "velocity": 0.7874015748031497
        },
        {
          "duration": 0.3125,
          "durationTicks": 192,
          "midi": 68,
          "name": "G#4",
          "ticks": 94656,
          "time": 154.0625,
          "velocity": 0.7874015748031497
        },
        {
          "duration": 0.46875,
          "durationTicks": 288,
          "midi": 25,
          "name": "C#1",
          "ticks": 94752,
          "time": 154.21875,
          "velocity": 0.7874015748031497
        },
        {
          "duration": 0.46875,
          "durationTicks": 288,
          "midi": 56,
          "name": "G#3",
          "ticks": 94752,
          "time": 154.21875,
          "velocity": 0.7874015748031497
        },
        {
          "duration": 0.3125,
          "durationTicks": 192,
          "midi": 60,
          "name": "C4",
          "ticks": 94752,
          "time": 154.21875,
          "velocity": 0.7874015748031497
        },
        {
          "duration": 0.3125,
          "durationTicks": 192,
          "midi": 65,
          "name": "F4",
          "ticks": 94848,
          "time": 154.375,
          "velocity": 0.7874015748031497
        },
        {
          "duration": 0.3125,
          "durationTicks": 192,
          "midi": 68,
          "name": "G#4",
          "ticks": 94944,
          "time": 154.53125,
          "velocity": 0.7874015748031497
        },
        {
          "duration": 0.3125,
          "durationTicks": 192,
          "midi": 60,
          "name": "C4",
          "ticks": 95040,
          "time": 154.6875,
          "velocity": 0.7874015748031497
        },
        {
          "duration": 0.15625,
          "durationTicks": 96,
          "midi": 53,
          "name": "F3",
          "ticks": 95040,
          "time": 154.6875,
          "velocity": 0.7874015748031497
        },
        {
          "duration": 0.15625,
          "durationTicks": 96,
          "midi": 25,
          "name": "C#1",
          "ticks": 95040,
          "time": 154.6875,
          "velocity": 0.7874015748031497
        },
        {
          "duration": 0.15625,
          "durationTicks": 96,
          "midi": 25,
          "name": "C#1",
          "ticks": 95136,
          "time": 154.84375,
          "velocity": 0.5905511811023622
        },
        {
          "duration": 0.3125,
          "durationTicks": 192,
          "midi": 65,
          "name": "F4",
          "ticks": 95136,
          "time": 154.84375,
          "velocity": 0.7874015748031497
        },
        {
          "duration": 0.15625,
          "durationTicks": 96,
          "midi": 53,
          "name": "F3",
          "ticks": 95148,
          "time": 154.86328125,
          "velocity": 0.5905511811023622
        },
        {
          "duration": 0.3125,
          "durationTicks": 192,
          "midi": 60,
          "name": "C4",
          "ticks": 95232,
          "time": 155,
          "velocity": 0.7874015748031497
        },
        {
          "duration": 0.46875,
          "durationTicks": 288,
          "midi": 55,
          "name": "G3",
          "ticks": 95232,
          "time": 155,
          "velocity": 0.7874015748031497
        },
        {
          "duration": 0.46875,
          "durationTicks": 288,
          "midi": 30,
          "name": "F#1",
          "ticks": 95232,
          "time": 155,
          "velocity": 0.7874015748031497
        },
        {
          "duration": 0.3125,
          "durationTicks": 192,
          "midi": 65,
          "name": "F4",
          "ticks": 95328,
          "time": 155.15625,
          "velocity": 0.7874015748031497
        },
        {
          "duration": 0.3125,
          "durationTicks": 192,
          "midi": 67,
          "name": "G4",
          "ticks": 95424,
          "time": 155.3125,
          "velocity": 0.7874015748031497
        },
        {
          "duration": 0.3125,
          "durationTicks": 192,
          "midi": 60,
          "name": "C4",
          "ticks": 95520,
          "time": 155.46875,
          "velocity": 0.7874015748031497
        },
        {
          "duration": 0.46875,
          "durationTicks": 288,
          "midi": 30,
          "name": "F#1",
          "ticks": 95520,
          "time": 155.46875,
          "velocity": 0.7874015748031497
        },
        {
          "duration": 0.46875,
          "durationTicks": 288,
          "midi": 55,
          "name": "G3",
          "ticks": 95520,
          "time": 155.46875,
          "velocity": 0.7874015748031497
        },
        {
          "duration": 0.3125,
          "durationTicks": 192,
          "midi": 65,
          "name": "F4",
          "ticks": 95616,
          "time": 155.625,
          "velocity": 0.7874015748031497
        },
        {
          "duration": 0.3125,
          "durationTicks": 192,
          "midi": 67,
          "name": "G4",
          "ticks": 95712,
          "time": 155.78125,
          "velocity": 0.7874015748031497
        },
        {
          "duration": 0.15625,
          "durationTicks": 96,
          "midi": 30,
          "name": "F#1",
          "ticks": 95808,
          "time": 155.9375,
          "velocity": 0.7874015748031497
        },
        {
          "duration": 0.15625,
          "durationTicks": 96,
          "midi": 53,
          "name": "F3",
          "ticks": 95808,
          "time": 155.9375,
          "velocity": 0.7874015748031497
        },
        {
          "duration": 0.3125,
          "durationTicks": 192,
          "midi": 60,
          "name": "C4",
          "ticks": 95808,
          "time": 155.9375,
          "velocity": 0.7874015748031497
        },
        {
          "duration": 0.3125,
          "durationTicks": 192,
          "midi": 65,
          "name": "F4",
          "ticks": 95904,
          "time": 156.09375,
          "velocity": 0.7874015748031497
        },
        {
          "duration": 0.15625,
          "durationTicks": 96,
          "midi": 30,
          "name": "F#1",
          "ticks": 95904,
          "time": 156.09375,
          "velocity": 0.5905511811023622
        },
        {
          "duration": 0.15625,
          "durationTicks": 96,
          "midi": 53,
          "name": "F3",
          "ticks": 95916,
          "time": 156.11328125,
          "velocity": 0.5905511811023622
        },
        {
          "duration": 0.46875,
          "durationTicks": 288,
          "midi": 30,
          "name": "F#1",
          "ticks": 96000,
          "time": 156.25,
          "velocity": 0.7874015748031497
        },
        {
          "duration": 0.46875,
          "durationTicks": 288,
          "midi": 55,
          "name": "G3",
          "ticks": 96000,
          "time": 156.25,
          "velocity": 0.7874015748031497
        },
        {
          "duration": 0.3125,
          "durationTicks": 192,
          "midi": 60,
          "name": "C4",
          "ticks": 96000,
          "time": 156.25,
          "velocity": 0.7874015748031497
        },
        {
          "duration": 0.3125,
          "durationTicks": 192,
          "midi": 65,
          "name": "F4",
          "ticks": 96096,
          "time": 156.40625,
          "velocity": 0.7874015748031497
        },
        {
          "duration": 0.3125,
          "durationTicks": 192,
          "midi": 67,
          "name": "G4",
          "ticks": 96192,
          "time": 156.5625,
          "velocity": 0.7874015748031497
        },
        {
          "duration": 0.3125,
          "durationTicks": 192,
          "midi": 60,
          "name": "C4",
          "ticks": 96288,
          "time": 156.71875,
          "velocity": 0.7874015748031497
        },
        {
          "duration": 0.46875,
          "durationTicks": 288,
          "midi": 55,
          "name": "G3",
          "ticks": 96288,
          "time": 156.71875,
          "velocity": 0.7874015748031497
        },
        {
          "duration": 0.46875,
          "durationTicks": 288,
          "midi": 30,
          "name": "F#1",
          "ticks": 96288,
          "time": 156.71875,
          "velocity": 0.7874015748031497
        },
        {
          "duration": 0.3125,
          "durationTicks": 192,
          "midi": 65,
          "name": "F4",
          "ticks": 96384,
          "time": 156.875,
          "velocity": 0.7874015748031497
        },
        {
          "duration": 0.3125,
          "durationTicks": 192,
          "midi": 67,
          "name": "G4",
          "ticks": 96480,
          "time": 157.03125,
          "velocity": 0.7874015748031497
        },
        {
          "duration": 0.15625,
          "durationTicks": 96,
          "midi": 30,
          "name": "F#1",
          "ticks": 96576,
          "time": 157.1875,
          "velocity": 0.7874015748031497
        },
        {
          "duration": 0.3125,
          "durationTicks": 192,
          "midi": 60,
          "name": "C4",
          "ticks": 96576,
          "time": 157.1875,
          "velocity": 0.7874015748031497
        },
        {
          "duration": 0.15625,
          "durationTicks": 96,
          "midi": 53,
          "name": "F3",
          "ticks": 96576,
          "time": 157.1875,
          "velocity": 0.7874015748031497
        },
        {
          "duration": 0.15625,
          "durationTicks": 96,
          "midi": 30,
          "name": "F#1",
          "ticks": 96672,
          "time": 157.34375,
          "velocity": 0.5905511811023622
        },
        {
          "duration": 0.3125,
          "durationTicks": 192,
          "midi": 65,
          "name": "F4",
          "ticks": 96672,
          "time": 157.34375,
          "velocity": 0.7874015748031497
        },
        {
          "duration": 0.15625,
          "durationTicks": 96,
          "midi": 53,
          "name": "F3",
          "ticks": 96684,
          "time": 157.36328125,
          "velocity": 0.5905511811023622
        },
        {
          "duration": 0.3125,
          "durationTicks": 192,
          "midi": 60,
          "name": "C4",
          "ticks": 96768,
          "time": 157.5,
          "velocity": 0.7874015748031497
        },
        {
          "duration": 0.46875,
          "durationTicks": 288,
          "midi": 27,
          "name": "D#1",
          "ticks": 96768,
          "time": 157.5,
          "velocity": 0.7874015748031497
        },
        {
          "duration": 0.46875,
          "durationTicks": 288,
          "midi": 58,
          "name": "A#3",
          "ticks": 96768,
          "time": 157.5,
          "velocity": 0.7874015748031497
        },
        {
          "duration": 0.3125,
          "durationTicks": 192,
          "midi": 65,
          "name": "F4",
          "ticks": 96864,
          "time": 157.65625,
          "velocity": 0.7874015748031497
        },
        {
          "duration": 0.3125,
          "durationTicks": 192,
          "midi": 70,
          "name": "A#4",
          "ticks": 96960,
          "time": 157.8125,
          "velocity": 0.7874015748031497
        },
        {
          "duration": 0.3125,
          "durationTicks": 192,
          "midi": 60,
          "name": "C4",
          "ticks": 97056,
          "time": 157.96875,
          "velocity": 0.7874015748031497
        },
        {
          "duration": 0.46875,
          "durationTicks": 288,
          "midi": 27,
          "name": "D#1",
          "ticks": 97056,
          "time": 157.96875,
          "velocity": 0.7874015748031497
        },
        {
          "duration": 0.46875,
          "durationTicks": 288,
          "midi": 58,
          "name": "A#3",
          "ticks": 97056,
          "time": 157.96875,
          "velocity": 0.7874015748031497
        },
        {
          "duration": 0.3125,
          "durationTicks": 192,
          "midi": 65,
          "name": "F4",
          "ticks": 97152,
          "time": 158.125,
          "velocity": 0.7874015748031497
        },
        {
          "duration": 0.3125,
          "durationTicks": 192,
          "midi": 70,
          "name": "A#4",
          "ticks": 97248,
          "time": 158.28125,
          "velocity": 0.7874015748031497
        },
        {
          "duration": 0.15625,
          "durationTicks": 96,
          "midi": 53,
          "name": "F3",
          "ticks": 97344,
          "time": 158.4375,
          "velocity": 0.7874015748031497
        },
        {
          "duration": 0.3125,
          "durationTicks": 192,
          "midi": 27,
          "name": "D#1",
          "ticks": 97344,
          "time": 158.4375,
          "velocity": 0.7874015748031497
        },
        {
          "duration": 0.3125,
          "durationTicks": 192,
          "midi": 60,
          "name": "C4",
          "ticks": 97344,
          "time": 158.4375,
          "velocity": 0.7874015748031497
        },
        {
          "duration": 0.3125,
          "durationTicks": 192,
          "midi": 65,
          "name": "F4",
          "ticks": 97440,
          "time": 158.59375,
          "velocity": 0.7874015748031497
        },
        {
          "duration": 0.15625,
          "durationTicks": 96,
          "midi": 53,
          "name": "F3",
          "ticks": 97452,
          "time": 158.61328125,
          "velocity": 0.5905511811023622
        },
        {
          "duration": 0.46875,
          "durationTicks": 288,
          "midi": 58,
          "name": "A#3",
          "ticks": 97536,
          "time": 158.75,
          "velocity": 0.7874015748031497
        },
        {
          "duration": 0.3125,
          "durationTicks": 192,
          "midi": 60,
          "name": "C4",
          "ticks": 97536,
          "time": 158.75,
          "velocity": 0.7874015748031497
        },
        {
          "duration": 0.46875,
          "durationTicks": 288,
          "midi": 27,
          "name": "D#1",
          "ticks": 97536,
          "time": 158.75,
          "velocity": 0.7874015748031497
        },
        {
          "duration": 0.3125,
          "durationTicks": 192,
          "midi": 65,
          "name": "F4",
          "ticks": 97632,
          "time": 158.90625,
          "velocity": 0.7874015748031497
        },
        {
          "duration": 0.3125,
          "durationTicks": 192,
          "midi": 70,
          "name": "A#4",
          "ticks": 97728,
          "time": 159.0625,
          "velocity": 0.7874015748031497
        },
        {
          "duration": 0.3125,
          "durationTicks": 192,
          "midi": 60,
          "name": "C4",
          "ticks": 97824,
          "time": 159.21875,
          "velocity": 0.7874015748031497
        },
        {
          "duration": 0.15625,
          "durationTicks": 96,
          "midi": 27,
          "name": "D#1",
          "ticks": 97824,
          "time": 159.21875,
          "velocity": 0.7874015748031497
        },
        {
          "duration": 0.46875,
          "durationTicks": 288,
          "midi": 58,
          "name": "A#3",
          "ticks": 97824,
          "time": 159.21875,
          "velocity": 0.7874015748031497
        },
        {
          "duration": 0.3125,
          "durationTicks": 192,
          "midi": 65,
          "name": "F4",
          "ticks": 97920,
          "time": 159.375,
          "velocity": 0.7874015748031497
        },
        {
          "duration": 0.3125,
          "durationTicks": 192,
          "midi": 27,
          "name": "D#1",
          "ticks": 97920,
          "time": 159.375,
          "velocity": 0.5905511811023622
        },
        {
          "duration": 0.3125,
          "durationTicks": 192,
          "midi": 68,
          "name": "G#4",
          "ticks": 98016,
          "time": 159.53125,
          "velocity": 0.7874015748031497
        },
        {
          "duration": 0.3125,
          "durationTicks": 192,
          "midi": 60,
          "name": "C4",
          "ticks": 98112,
          "time": 159.6875,
          "velocity": 0.7874015748031497
        },
        {
          "duration": 0.15625,
          "durationTicks": 96,
          "midi": 27,
          "name": "D#1",
          "ticks": 98112,
          "time": 159.6875,
          "velocity": 0.7874015748031497
        },
        {
          "duration": 0.15625,
          "durationTicks": 96,
          "midi": 56,
          "name": "G#3",
          "ticks": 98112,
          "time": 159.6875,
          "velocity": 0.7874015748031497
        },
        {
          "duration": 0.15625,
          "durationTicks": 96,
          "midi": 27,
          "name": "D#1",
          "ticks": 98208,
          "time": 159.84375,
          "velocity": 0.5905511811023622
        },
        {
          "duration": 0.3125,
          "durationTicks": 192,
          "midi": 67,
          "name": "G4",
          "ticks": 98208,
          "time": 159.84375,
          "velocity": 0.7874015748031497
        },
        {
          "duration": 0.15625,
          "durationTicks": 96,
          "midi": 55,
          "name": "G3",
          "ticks": 98244,
          "time": 159.90234375,
          "velocity": 0.7874015748031497
        },
        {
          "duration": 0.46875,
          "durationTicks": 288,
          "midi": 24,
          "name": "C1",
          "ticks": 98304,
          "time": 160,
          "velocity": 0.7874015748031497
        },
        {
          "duration": 0.46875,
          "durationTicks": 288,
          "midi": 55,
          "name": "G3",
          "ticks": 98304,
          "time": 160,
          "velocity": 0.7874015748031497
        },
        {
          "duration": 0.3125,
          "durationTicks": 192,
          "midi": 60,
          "name": "C4",
          "ticks": 98304,
          "time": 160,
          "velocity": 0.7874015748031497
        },
        {
          "duration": 0.3125,
          "durationTicks": 192,
          "midi": 65,
          "name": "F4",
          "ticks": 98400,
          "time": 160.15625,
          "velocity": 0.7874015748031497
        },
        {
          "duration": 0.3125,
          "durationTicks": 192,
          "midi": 67,
          "name": "G4",
          "ticks": 98496,
          "time": 160.3125,
          "velocity": 0.7874015748031497
        },
        {
          "duration": 0.46875,
          "durationTicks": 288,
          "midi": 24,
          "name": "C1",
          "ticks": 98592,
          "time": 160.46875,
          "velocity": 0.7874015748031497
        },
        {
          "duration": 0.46875,
          "durationTicks": 288,
          "midi": 55,
          "name": "G3",
          "ticks": 98592,
          "time": 160.46875,
          "velocity": 0.7874015748031497
        },
        {
          "duration": 0.3125,
          "durationTicks": 192,
          "midi": 60,
          "name": "C4",
          "ticks": 98592,
          "time": 160.46875,
          "velocity": 0.7874015748031497
        },
        {
          "duration": 0.3125,
          "durationTicks": 192,
          "midi": 65,
          "name": "F4",
          "ticks": 98688,
          "time": 160.625,
          "velocity": 0.7874015748031497
        },
        {
          "duration": 0.3125,
          "durationTicks": 192,
          "midi": 67,
          "name": "G4",
          "ticks": 98784,
          "time": 160.78125,
          "velocity": 0.7874015748031497
        },
        {
          "duration": 0.15625,
          "durationTicks": 96,
          "midi": 24,
          "name": "C1",
          "ticks": 98880,
          "time": 160.9375,
          "velocity": 0.7874015748031497
        },
        {
          "duration": 0.15625,
          "durationTicks": 96,
          "midi": 53,
          "name": "F3",
          "ticks": 98880,
          "time": 160.9375,
          "velocity": 0.7874015748031497
        },
        {
          "duration": 0.3125,
          "durationTicks": 192,
          "midi": 60,
          "name": "C4",
          "ticks": 98880,
          "time": 160.9375,
          "velocity": 0.7874015748031497
        },
        {
          "duration": 0.3125,
          "durationTicks": 192,
          "midi": 65,
          "name": "F4",
          "ticks": 98976,
          "time": 161.09375,
          "velocity": 0.7874015748031497
        },
        {
          "duration": 0.15625,
          "durationTicks": 96,
          "midi": 24,
          "name": "C1",
          "ticks": 98976,
          "time": 161.09375,
          "velocity": 0.5905511811023622
        },
        {
          "duration": 0.15625,
          "durationTicks": 96,
          "midi": 53,
          "name": "F3",
          "ticks": 98988,
          "time": 161.11328125,
          "velocity": 0.5905511811023622
        },
        {
          "duration": 0.46875,
          "durationTicks": 288,
          "midi": 24,
          "name": "C1",
          "ticks": 99072,
          "time": 161.25,
          "velocity": 0.7874015748031497
        },
        {
          "duration": 0.3125,
          "durationTicks": 192,
          "midi": 60,
          "name": "C4",
          "ticks": 99072,
          "time": 161.25,
          "velocity": 0.7874015748031497
        },
        {
          "duration": 0.46875,
          "durationTicks": 288,
          "midi": 55,
          "name": "G3",
          "ticks": 99072,
          "time": 161.25,
          "velocity": 0.7874015748031497
        },
        {
          "duration": 0.3125,
          "durationTicks": 192,
          "midi": 65,
          "name": "F4",
          "ticks": 99168,
          "time": 161.40625,
          "velocity": 0.7874015748031497
        },
        {
          "duration": 0.3125,
          "durationTicks": 192,
          "midi": 67,
          "name": "G4",
          "ticks": 99264,
          "time": 161.5625,
          "velocity": 0.7874015748031497
        },
        {
          "duration": 0.3125,
          "durationTicks": 192,
          "midi": 60,
          "name": "C4",
          "ticks": 99360,
          "time": 161.71875,
          "velocity": 0.7874015748031497
        },
        {
          "duration": 0.15625,
          "durationTicks": 96,
          "midi": 24,
          "name": "C1",
          "ticks": 99360,
          "time": 161.71875,
          "velocity": 0.7874015748031497
        },
        {
          "duration": 0.46875,
          "durationTicks": 288,
          "midi": 55,
          "name": "G3",
          "ticks": 99360,
          "time": 161.71875,
          "velocity": 0.7874015748031497
        },
        {
          "duration": 0.3125,
          "durationTicks": 192,
          "midi": 24,
          "name": "C1",
          "ticks": 99456,
          "time": 161.875,
          "velocity": 0.5905511811023622
        },
        {
          "duration": 0.3125,
          "durationTicks": 192,
          "midi": 65,
          "name": "F4",
          "ticks": 99456,
          "time": 161.875,
          "velocity": 0.7874015748031497
        },
        {
          "duration": 0.3125,
          "durationTicks": 192,
          "midi": 67,
          "name": "G4",
          "ticks": 99552,
          "time": 162.03125,
          "velocity": 0.7874015748031497
        },
        {
          "duration": 0.15625,
          "durationTicks": 96,
          "midi": 53,
          "name": "F3",
          "ticks": 99648,
          "time": 162.1875,
          "velocity": 0.7874015748031497
        },
        {
          "duration": 0.3125,
          "durationTicks": 192,
          "midi": 60,
          "name": "C4",
          "ticks": 99648,
          "time": 162.1875,
          "velocity": 0.7874015748031497
        },
        {
          "duration": 0.3125,
          "durationTicks": 192,
          "midi": 24,
          "name": "C1",
          "ticks": 99648,
          "time": 162.1875,
          "velocity": 0.7874015748031497
        },
        {
          "duration": 0.3125,
          "durationTicks": 192,
          "midi": 65,
          "name": "F4",
          "ticks": 99744,
          "time": 162.34375,
          "velocity": 0.7874015748031497
        },
        {
          "duration": 0.15625,
          "durationTicks": 96,
          "midi": 53,
          "name": "F3",
          "ticks": 99756,
          "time": 162.36328125,
          "velocity": 0.5905511811023622
        },
        {
          "duration": 0.46875,
          "durationTicks": 288,
          "midi": 56,
          "name": "G#3",
          "ticks": 99840,
          "time": 162.5,
          "velocity": 0.7874015748031497
        },
        {
          "duration": 0.3125,
          "durationTicks": 192,
          "midi": 60,
          "name": "C4",
          "ticks": 99840,
          "time": 162.5,
          "velocity": 0.7874015748031497
        },
        {
          "duration": 0.46875,
          "durationTicks": 288,
          "midi": 25,
          "name": "C#1",
          "ticks": 99840,
          "time": 162.5,
          "velocity": 0.7874015748031497
        },
        {
          "duration": 0.3125,
          "durationTicks": 192,
          "midi": 65,
          "name": "F4",
          "ticks": 99936,
          "time": 162.65625,
          "velocity": 0.7874015748031497
        },
        {
          "duration": 0.3125,
          "durationTicks": 192,
          "midi": 68,
          "name": "G#4",
          "ticks": 100032,
          "time": 162.8125,
          "velocity": 0.7874015748031497
        },
        {
          "duration": 0.15625,
          "durationTicks": 96,
          "midi": 25,
          "name": "C#1",
          "ticks": 100128,
          "time": 162.96875,
          "velocity": 0.7874015748031497
        },
        {
          "duration": 0.46875,
          "durationTicks": 288,
          "midi": 56,
          "name": "G#3",
          "ticks": 100128,
          "time": 162.96875,
          "velocity": 0.7874015748031497
        },
        {
          "duration": 0.3125,
          "durationTicks": 192,
          "midi": 60,
          "name": "C4",
          "ticks": 100128,
          "time": 162.96875,
          "velocity": 0.7874015748031497
        },
        {
          "duration": 0.3125,
          "durationTicks": 192,
          "midi": 25,
          "name": "C#1",
          "ticks": 100224,
          "time": 163.125,
          "velocity": 0.5905511811023622
        },
        {
          "duration": 0.3125,
          "durationTicks": 192,
          "midi": 65,
          "name": "F4",
          "ticks": 100224,
          "time": 163.125,
          "velocity": 0.7874015748031497
        },
        {
          "duration": 0.3125,
          "durationTicks": 192,
          "midi": 68,
          "name": "G#4",
          "ticks": 100320,
          "time": 163.28125,
          "velocity": 0.7874015748031497
        },
        {
          "duration": 0.15625,
          "durationTicks": 96,
          "midi": 53,
          "name": "F3",
          "ticks": 100416,
          "time": 163.4375,
          "velocity": 0.7874015748031497
        },
        {
          "duration": 0.3125,
          "durationTicks": 192,
          "midi": 60,
          "name": "C4",
          "ticks": 100416,
          "time": 163.4375,
          "velocity": 0.7874015748031497
        },
        {
          "duration": 0.3125,
          "durationTicks": 192,
          "midi": 25,
          "name": "C#1",
          "ticks": 100416,
          "time": 163.4375,
          "velocity": 0.7874015748031497
        },
        {
          "duration": 0.3125,
          "durationTicks": 192,
          "midi": 65,
          "name": "F4",
          "ticks": 100512,
          "time": 163.59375,
          "velocity": 0.7874015748031497
        },
        {
          "duration": 0.15625,
          "durationTicks": 96,
          "midi": 53,
          "name": "F3",
          "ticks": 100524,
          "time": 163.61328125,
          "velocity": 0.5905511811023622
        },
        {
          "duration": 0.46875,
          "durationTicks": 288,
          "midi": 56,
          "name": "G#3",
          "ticks": 100608,
          "time": 163.75,
          "velocity": 0.7874015748031497
        },
        {
          "duration": 0.46875,
          "durationTicks": 288,
          "midi": 25,
          "name": "C#1",
          "ticks": 100608,
          "time": 163.75,
          "velocity": 0.7874015748031497
        },
        {
          "duration": 0.3125,
          "durationTicks": 192,
          "midi": 60,
          "name": "C4",
          "ticks": 100608,
          "time": 163.75,
          "velocity": 0.7874015748031497
        },
        {
          "duration": 0.3125,
          "durationTicks": 192,
          "midi": 65,
          "name": "F4",
          "ticks": 100704,
          "time": 163.90625,
          "velocity": 0.7874015748031497
        },
        {
          "duration": 0.3125,
          "durationTicks": 192,
          "midi": 68,
          "name": "G#4",
          "ticks": 100800,
          "time": 164.0625,
          "velocity": 0.7874015748031497
        },
        {
          "duration": 0.3125,
          "durationTicks": 192,
          "midi": 60,
          "name": "C4",
          "ticks": 100896,
          "time": 164.21875,
          "velocity": 0.7874015748031497
        },
        {
          "duration": 0.46875,
          "durationTicks": 288,
          "midi": 25,
          "name": "C#1",
          "ticks": 100896,
          "time": 164.21875,
          "velocity": 0.7874015748031497
        },
        {
          "duration": 0.46875,
          "durationTicks": 288,
          "midi": 56,
          "name": "G#3",
          "ticks": 100896,
          "time": 164.21875,
          "velocity": 0.7874015748031497
        },
        {
          "duration": 0.3125,
          "durationTicks": 192,
          "midi": 65,
          "name": "F4",
          "ticks": 100992,
          "time": 164.375,
          "velocity": 0.7874015748031497
        },
        {
          "duration": 0.3125,
          "durationTicks": 192,
          "midi": 68,
          "name": "G#4",
          "ticks": 101088,
          "time": 164.53125,
          "velocity": 0.7874015748031497
        },
        {
          "duration": 0.3125,
          "durationTicks": 192,
          "midi": 60,
          "name": "C4",
          "ticks": 101184,
          "time": 164.6875,
          "velocity": 0.7874015748031497
        },
        {
          "duration": 0.15625,
          "durationTicks": 96,
          "midi": 25,
          "name": "C#1",
          "ticks": 101184,
          "time": 164.6875,
          "velocity": 0.7874015748031497
        },
        {
          "duration": 0.15625,
          "durationTicks": 96,
          "midi": 53,
          "name": "F3",
          "ticks": 101184,
          "time": 164.6875,
          "velocity": 0.7874015748031497
        },
        {
          "duration": 0.15625,
          "durationTicks": 96,
          "midi": 25,
          "name": "C#1",
          "ticks": 101280,
          "time": 164.84375,
          "velocity": 0.5905511811023622
        },
        {
          "duration": 0.3125,
          "durationTicks": 192,
          "midi": 65,
          "name": "F4",
          "ticks": 101280,
          "time": 164.84375,
          "velocity": 0.7874015748031497
        },
        {
          "duration": 0.15625,
          "durationTicks": 96,
          "midi": 53,
          "name": "F3",
          "ticks": 101292,
          "time": 164.86328125,
          "velocity": 0.5905511811023622
        },
        {
          "duration": 0.3125,
          "durationTicks": 192,
          "midi": 60,
          "name": "C4",
          "ticks": 101376,
          "time": 165,
          "velocity": 0.7874015748031497
        },
        {
          "duration": 0.46875,
          "durationTicks": 288,
          "midi": 55,
          "name": "G3",
          "ticks": 101376,
          "time": 165,
          "velocity": 0.7874015748031497
        },
        {
          "duration": 0.46875,
          "durationTicks": 288,
          "midi": 30,
          "name": "F#1",
          "ticks": 101376,
          "time": 165,
          "velocity": 0.7874015748031497
        },
        {
          "duration": 0.3125,
          "durationTicks": 192,
          "midi": 65,
          "name": "F4",
          "ticks": 101472,
          "time": 165.15625,
          "velocity": 0.7874015748031497
        },
        {
          "duration": 0.3125,
          "durationTicks": 192,
          "midi": 67,
          "name": "G4",
          "ticks": 101568,
          "time": 165.3125,
          "velocity": 0.7874015748031497
        },
        {
          "duration": 0.46875,
          "durationTicks": 288,
          "midi": 30,
          "name": "F#1",
          "ticks": 101664,
          "time": 165.46875,
          "velocity": 0.7874015748031497
        },
        {
          "duration": 0.3125,
          "durationTicks": 192,
          "midi": 60,
          "name": "C4",
          "ticks": 101664,
          "time": 165.46875,
          "velocity": 0.7874015748031497
        },
        {
          "duration": 0.46875,
          "durationTicks": 288,
          "midi": 55,
          "name": "G3",
          "ticks": 101664,
          "time": 165.46875,
          "velocity": 0.7874015748031497
        },
        {
          "duration": 0.3125,
          "durationTicks": 192,
          "midi": 65,
          "name": "F4",
          "ticks": 101760,
          "time": 165.625,
          "velocity": 0.7874015748031497
        },
        {
          "duration": 0.3125,
          "durationTicks": 192,
          "midi": 67,
          "name": "G4",
          "ticks": 101856,
          "time": 165.78125,
          "velocity": 0.7874015748031497
        },
        {
          "duration": 0.15625,
          "durationTicks": 96,
          "midi": 30,
          "name": "F#1",
          "ticks": 101952,
          "time": 165.9375,
          "velocity": 0.7874015748031497
        },
        {
          "duration": 0.15625,
          "durationTicks": 96,
          "midi": 53,
          "name": "F3",
          "ticks": 101952,
          "time": 165.9375,
          "velocity": 0.7874015748031497
        },
        {
          "duration": 0.3125,
          "durationTicks": 192,
          "midi": 60,
          "name": "C4",
          "ticks": 101952,
          "time": 165.9375,
          "velocity": 0.7874015748031497
        },
        {
          "duration": 0.15625,
          "durationTicks": 96,
          "midi": 30,
          "name": "F#1",
          "ticks": 102048,
          "time": 166.09375,
          "velocity": 0.5905511811023622
        },
        {
          "duration": 0.3125,
          "durationTicks": 192,
          "midi": 65,
          "name": "F4",
          "ticks": 102048,
          "time": 166.09375,
          "velocity": 0.7874015748031497
        },
        {
          "duration": 0.15625,
          "durationTicks": 96,
          "midi": 53,
          "name": "F3",
          "ticks": 102060,
          "time": 166.11328125,
          "velocity": 0.5905511811023622
        },
        {
          "duration": 0.46875,
          "durationTicks": 288,
          "midi": 55,
          "name": "G3",
          "ticks": 102144,
          "time": 166.25,
          "velocity": 0.7874015748031497
        },
        {
          "duration": 0.3125,
          "durationTicks": 192,
          "midi": 60,
          "name": "C4",
          "ticks": 102144,
          "time": 166.25,
          "velocity": 0.7874015748031497
        },
        {
          "duration": 0.46875,
          "durationTicks": 288,
          "midi": 30,
          "name": "F#1",
          "ticks": 102144,
          "time": 166.25,
          "velocity": 0.7874015748031497
        },
        {
          "duration": 0.3125,
          "durationTicks": 192,
          "midi": 65,
          "name": "F4",
          "ticks": 102240,
          "time": 166.40625,
          "velocity": 0.7874015748031497
        },
        {
          "duration": 0.3125,
          "durationTicks": 192,
          "midi": 67,
          "name": "G4",
          "ticks": 102336,
          "time": 166.5625,
          "velocity": 0.7874015748031497
        },
        {
          "duration": 0.3125,
          "durationTicks": 192,
          "midi": 60,
          "name": "C4",
          "ticks": 102432,
          "time": 166.71875,
          "velocity": 0.7874015748031497
        },
        {
          "duration": 0.46875,
          "durationTicks": 288,
          "midi": 30,
          "name": "F#1",
          "ticks": 102432,
          "time": 166.71875,
          "velocity": 0.7874015748031497
        },
        {
          "duration": 0.46875,
          "durationTicks": 288,
          "midi": 55,
          "name": "G3",
          "ticks": 102432,
          "time": 166.71875,
          "velocity": 0.7874015748031497
        },
        {
          "duration": 0.3125,
          "durationTicks": 192,
          "midi": 65,
          "name": "F4",
          "ticks": 102528,
          "time": 166.875,
          "velocity": 0.7874015748031497
        },
        {
          "duration": 0.3125,
          "durationTicks": 192,
          "midi": 67,
          "name": "G4",
          "ticks": 102624,
          "time": 167.03125,
          "velocity": 0.7874015748031497
        },
        {
          "duration": 0.3125,
          "durationTicks": 192,
          "midi": 60,
          "name": "C4",
          "ticks": 102720,
          "time": 167.1875,
          "velocity": 0.7874015748031497
        },
        {
          "duration": 0.15625,
          "durationTicks": 96,
          "midi": 53,
          "name": "F3",
          "ticks": 102720,
          "time": 167.1875,
          "velocity": 0.7874015748031497
        },
        {
          "duration": 0.15625,
          "durationTicks": 96,
          "midi": 30,
          "name": "F#1",
          "ticks": 102720,
          "time": 167.1875,
          "velocity": 0.7874015748031497
        },
        {
          "duration": 0.3125,
          "durationTicks": 192,
          "midi": 65,
          "name": "F4",
          "ticks": 102816,
          "time": 167.34375,
          "velocity": 0.7874015748031497
        },
        {
          "duration": 0.15625,
          "durationTicks": 96,
          "midi": 30,
          "name": "F#1",
          "ticks": 102816,
          "time": 167.34375,
          "velocity": 0.5905511811023622
        },
        {
          "duration": 0.15625,
          "durationTicks": 96,
          "midi": 53,
          "name": "F3",
          "ticks": 102828,
          "time": 167.36328125,
          "velocity": 0.5905511811023622
        },
        {
          "duration": 0.3125,
          "durationTicks": 192,
          "midi": 60,
          "name": "C4",
          "ticks": 102912,
          "time": 167.5,
          "velocity": 0.7874015748031497
        },
        {
          "duration": 0.46875,
          "durationTicks": 288,
          "midi": 27,
          "name": "D#1",
          "ticks": 102912,
          "time": 167.5,
          "velocity": 0.7874015748031497
        },
        {
          "duration": 0.46875,
          "durationTicks": 288,
          "midi": 58,
          "name": "A#3",
          "ticks": 102912,
          "time": 167.5,
          "velocity": 0.7874015748031497
        },
        {
          "duration": 0.3125,
          "durationTicks": 192,
          "midi": 65,
          "name": "F4",
          "ticks": 103008,
          "time": 167.65625,
          "velocity": 0.7874015748031497
        },
        {
          "duration": 0.3125,
          "durationTicks": 192,
          "midi": 70,
          "name": "A#4",
          "ticks": 103104,
          "time": 167.8125,
          "velocity": 0.7874015748031497
        },
        {
          "duration": 0.46875,
          "durationTicks": 288,
          "midi": 58,
          "name": "A#3",
          "ticks": 103200,
          "time": 167.96875,
          "velocity": 0.7874015748031497
        },
        {
          "duration": 0.46875,
          "durationTicks": 288,
          "midi": 27,
          "name": "D#1",
          "ticks": 103200,
          "time": 167.96875,
          "velocity": 0.7874015748031497
        },
        {
          "duration": 0.3125,
          "durationTicks": 192,
          "midi": 60,
          "name": "C4",
          "ticks": 103200,
          "time": 167.96875,
          "velocity": 0.7874015748031497
        },
        {
          "duration": 0.3125,
          "durationTicks": 192,
          "midi": 65,
          "name": "F4",
          "ticks": 103296,
          "time": 168.125,
          "velocity": 0.7874015748031497
        },
        {
          "duration": 0.3125,
          "durationTicks": 192,
          "midi": 70,
          "name": "A#4",
          "ticks": 103392,
          "time": 168.28125,
          "velocity": 0.7874015748031497
        },
        {
          "duration": 0.3125,
          "durationTicks": 192,
          "midi": 60,
          "name": "C4",
          "ticks": 103488,
          "time": 168.4375,
          "velocity": 0.7874015748031497
        },
        {
          "duration": 0.15625,
          "durationTicks": 96,
          "midi": 53,
          "name": "F3",
          "ticks": 103488,
          "time": 168.4375,
          "velocity": 0.7874015748031497
        },
        {
          "duration": 0.3125,
          "durationTicks": 192,
          "midi": 27,
          "name": "D#1",
          "ticks": 103488,
          "time": 168.4375,
          "velocity": 0.7874015748031497
        },
        {
          "duration": 0.3125,
          "durationTicks": 192,
          "midi": 65,
          "name": "F4",
          "ticks": 103584,
          "time": 168.59375,
          "velocity": 0.7874015748031497
        },
        {
          "duration": 0.15625,
          "durationTicks": 96,
          "midi": 53,
          "name": "F3",
          "ticks": 103596,
          "time": 168.61328125,
          "velocity": 0.5905511811023622
        },
        {
          "duration": 0.46875,
          "durationTicks": 288,
          "midi": 58,
          "name": "A#3",
          "ticks": 103680,
          "time": 168.75,
          "velocity": 0.7874015748031497
        },
        {
          "duration": 0.3125,
          "durationTicks": 192,
          "midi": 60,
          "name": "C4",
          "ticks": 103680,
          "time": 168.75,
          "velocity": 0.7874015748031497
        },
        {
          "duration": 0.46875,
          "durationTicks": 288,
          "midi": 27,
          "name": "D#1",
          "ticks": 103680,
          "time": 168.75,
          "velocity": 0.7874015748031497
        },
        {
          "duration": 0.3125,
          "durationTicks": 192,
          "midi": 65,
          "name": "F4",
          "ticks": 103776,
          "time": 168.90625,
          "velocity": 0.7874015748031497
        },
        {
          "duration": 0.3125,
          "durationTicks": 192,
          "midi": 70,
          "name": "A#4",
          "ticks": 103872,
          "time": 169.0625,
          "velocity": 0.7874015748031497
        },
        {
          "duration": 0.46875,
          "durationTicks": 288,
          "midi": 58,
          "name": "A#3",
          "ticks": 103968,
          "time": 169.21875,
          "velocity": 0.7874015748031497
        },
        {
          "duration": 0.15625,
          "durationTicks": 96,
          "midi": 27,
          "name": "D#1",
          "ticks": 103968,
          "time": 169.21875,
          "velocity": 0.7874015748031497
        },
        {
          "duration": 0.3125,
          "durationTicks": 192,
          "midi": 60,
          "name": "C4",
          "ticks": 103968,
          "time": 169.21875,
          "velocity": 0.7874015748031497
        },
        {
          "duration": 0.3125,
          "durationTicks": 192,
          "midi": 27,
          "name": "D#1",
          "ticks": 104064,
          "time": 169.375,
          "velocity": 0.5905511811023622
        },
        {
          "duration": 0.3125,
          "durationTicks": 192,
          "midi": 65,
          "name": "F4",
          "ticks": 104064,
          "time": 169.375,
          "velocity": 0.7874015748031497
        },
        {
          "duration": 0.3125,
          "durationTicks": 192,
          "midi": 68,
          "name": "G#4",
          "ticks": 104160,
          "time": 169.53125,
          "velocity": 0.7874015748031497
        },
        {
          "duration": 0.15625,
          "durationTicks": 96,
          "midi": 56,
          "name": "G#3",
          "ticks": 104256,
          "time": 169.6875,
          "velocity": 0.7874015748031497
        },
        {
          "duration": 0.3125,
          "durationTicks": 192,
          "midi": 60,
          "name": "C4",
          "ticks": 104256,
          "time": 169.6875,
          "velocity": 0.7874015748031497
        },
        {
          "duration": 0.15625,
          "durationTicks": 96,
          "midi": 27,
          "name": "D#1",
          "ticks": 104256,
          "time": 169.6875,
          "velocity": 0.7874015748031497
        },
        {
          "duration": 0.3125,
          "durationTicks": 192,
          "midi": 67,
          "name": "G4",
          "ticks": 104352,
          "time": 169.84375,
          "velocity": 0.7874015748031497
        },
        {
          "duration": 0.15625,
          "durationTicks": 96,
          "midi": 27,
          "name": "D#1",
          "ticks": 104352,
          "time": 169.84375,
          "velocity": 0.5905511811023622
        },
        {
          "duration": 0.15625,
          "durationTicks": 96,
          "midi": 55,
          "name": "G3",
          "ticks": 104388,
          "time": 169.90234375,
          "velocity": 0.7874015748031497
        },
        {
          "duration": 0.46875,
          "durationTicks": 288,
          "midi": 24,
          "name": "C1",
          "ticks": 104448,
          "time": 170,
          "velocity": 0.7874015748031497
        },
        {
          "duration": 0.3125,
          "durationTicks": 192,
          "midi": 60,
          "name": "C4",
          "ticks": 104448,
          "time": 170,
          "velocity": 0.7874015748031497
        },
        {
          "duration": 0.46875,
          "durationTicks": 288,
          "midi": 55,
          "name": "G3",
          "ticks": 104448,
          "time": 170,
          "velocity": 0.7874015748031497
        },
        {
          "duration": 0.3125,
          "durationTicks": 192,
          "midi": 65,
          "name": "F4",
          "ticks": 104544,
          "time": 170.15625,
          "velocity": 0.7874015748031497
        },
        {
          "duration": 0.3125,
          "durationTicks": 192,
          "midi": 67,
          "name": "G4",
          "ticks": 104640,
          "time": 170.3125,
          "velocity": 0.7874015748031497
        },
        {
          "duration": 0.46875,
          "durationTicks": 288,
          "midi": 24,
          "name": "C1",
          "ticks": 104736,
          "time": 170.46875,
          "velocity": 0.7874015748031497
        },
        {
          "duration": 0.46875,
          "durationTicks": 288,
          "midi": 55,
          "name": "G3",
          "ticks": 104736,
          "time": 170.46875,
          "velocity": 0.7874015748031497
        },
        {
          "duration": 0.3125,
          "durationTicks": 192,
          "midi": 60,
          "name": "C4",
          "ticks": 104736,
          "time": 170.46875,
          "velocity": 0.7874015748031497
        },
        {
          "duration": 0.3125,
          "durationTicks": 192,
          "midi": 65,
          "name": "F4",
          "ticks": 104832,
          "time": 170.625,
          "velocity": 0.7874015748031497
        },
        {
          "duration": 0.3125,
          "durationTicks": 192,
          "midi": 67,
          "name": "G4",
          "ticks": 104928,
          "time": 170.78125,
          "velocity": 0.7874015748031497
        },
        {
          "duration": 0.15625,
          "durationTicks": 96,
          "midi": 24,
          "name": "C1",
          "ticks": 105024,
          "time": 170.9375,
          "velocity": 0.7874015748031497
        },
        {
          "duration": 0.15625,
          "durationTicks": 96,
          "midi": 53,
          "name": "F3",
          "ticks": 105024,
          "time": 170.9375,
          "velocity": 0.7874015748031497
        },
        {
          "duration": 0.3125,
          "durationTicks": 192,
          "midi": 60,
          "name": "C4",
          "ticks": 105024,
          "time": 170.9375,
          "velocity": 0.7874015748031497
        },
        {
          "duration": 0.15625,
          "durationTicks": 96,
          "midi": 24,
          "name": "C1",
          "ticks": 105120,
          "time": 171.09375,
          "velocity": 0.5905511811023622
        },
        {
          "duration": 0.3125,
          "durationTicks": 192,
          "midi": 65,
          "name": "F4",
          "ticks": 105120,
          "time": 171.09375,
          "velocity": 0.7874015748031497
        },
        {
          "duration": 0.15625,
          "durationTicks": 96,
          "midi": 53,
          "name": "F3",
          "ticks": 105132,
          "time": 171.11328125,
          "velocity": 0.5905511811023622
        },
        {
          "duration": 0.3125,
          "durationTicks": 192,
          "midi": 60,
          "name": "C4",
          "ticks": 105216,
          "time": 171.25,
          "velocity": 0.7874015748031497
        },
        {
          "duration": 0.46875,
          "durationTicks": 288,
          "midi": 24,
          "name": "C1",
          "ticks": 105216,
          "time": 171.25,
          "velocity": 0.7874015748031497
        },
        {
          "duration": 0.46875,
          "durationTicks": 288,
          "midi": 55,
          "name": "G3",
          "ticks": 105216,
          "time": 171.25,
          "velocity": 0.7874015748031497
        },
        {
          "duration": 0.3125,
          "durationTicks": 192,
          "midi": 65,
          "name": "F4",
          "ticks": 105312,
          "time": 171.40625,
          "velocity": 0.7874015748031497
        },
        {
          "duration": 0.3125,
          "durationTicks": 192,
          "midi": 67,
          "name": "G4",
          "ticks": 105408,
          "time": 171.5625,
          "velocity": 0.7874015748031497
        },
        {
          "duration": 0.46875,
          "durationTicks": 288,
          "midi": 55,
          "name": "G3",
          "ticks": 105504,
          "time": 171.71875,
          "velocity": 0.7874015748031497
        },
        {
          "duration": 0.3125,
          "durationTicks": 192,
          "midi": 60,
          "name": "C4",
          "ticks": 105504,
          "time": 171.71875,
          "velocity": 0.7874015748031497
        },
        {
          "duration": 0.15625,
          "durationTicks": 96,
          "midi": 24,
          "name": "C1",
          "ticks": 105504,
          "time": 171.71875,
          "velocity": 0.7874015748031497
        },
        {
          "duration": 0.3125,
          "durationTicks": 192,
          "midi": 24,
          "name": "C1",
          "ticks": 105600,
          "time": 171.875,
          "velocity": 0.5905511811023622
        },
        {
          "duration": 0.3125,
          "durationTicks": 192,
          "midi": 65,
          "name": "F4",
          "ticks": 105600,
          "time": 171.875,
          "velocity": 0.7874015748031497
        },
        {
          "duration": 0.3125,
          "durationTicks": 192,
          "midi": 67,
          "name": "G4",
          "ticks": 105696,
          "time": 172.03125,
          "velocity": 0.7874015748031497
        },
        {
          "duration": 0.3125,
          "durationTicks": 192,
          "midi": 24,
          "name": "C1",
          "ticks": 105792,
          "time": 172.1875,
          "velocity": 0.7874015748031497
        },
        {
          "duration": 0.3125,
          "durationTicks": 192,
          "midi": 60,
          "name": "C4",
          "ticks": 105792,
          "time": 172.1875,
          "velocity": 0.7874015748031497
        },
        {
          "duration": 0.15625,
          "durationTicks": 96,
          "midi": 53,
          "name": "F3",
          "ticks": 105792,
          "time": 172.1875,
          "velocity": 0.7874015748031497
        },
        {
          "duration": 0.3125,
          "durationTicks": 192,
          "midi": 65,
          "name": "F4",
          "ticks": 105888,
          "time": 172.34375,
          "velocity": 0.7874015748031497
        },
        {
          "duration": 0.15625,
          "durationTicks": 96,
          "midi": 53,
          "name": "F3",
          "ticks": 105900,
          "time": 172.36328125,
          "velocity": 0.5905511811023622
        },
        {
          "duration": 0.46875,
          "durationTicks": 288,
          "midi": 25,
          "name": "C#1",
          "ticks": 105984,
          "time": 172.5,
          "velocity": 0.7874015748031497
        },
        {
          "duration": 0.46875,
          "durationTicks": 288,
          "midi": 56,
          "name": "G#3",
          "ticks": 105984,
          "time": 172.5,
          "velocity": 0.7874015748031497
        },
        {
          "duration": 0.3125,
          "durationTicks": 192,
          "midi": 60,
          "name": "C4",
          "ticks": 105984,
          "time": 172.5,
          "velocity": 0.7874015748031497
        },
        {
          "duration": 0.3125,
          "durationTicks": 192,
          "midi": 65,
          "name": "F4",
          "ticks": 106080,
          "time": 172.65625,
          "velocity": 0.7874015748031497
        },
        {
          "duration": 0.3125,
          "durationTicks": 192,
          "midi": 68,
          "name": "G#4",
          "ticks": 106176,
          "time": 172.8125,
          "velocity": 0.7874015748031497
        },
        {
          "duration": 0.3125,
          "durationTicks": 192,
          "midi": 60,
          "name": "C4",
          "ticks": 106272,
          "time": 172.96875,
          "velocity": 0.7874015748031497
        },
        {
          "duration": 0.46875,
          "durationTicks": 288,
          "midi": 56,
          "name": "G#3",
          "ticks": 106272,
          "time": 172.96875,
          "velocity": 0.7874015748031497
        },
        {
          "duration": 0.15625,
          "durationTicks": 96,
          "midi": 25,
          "name": "C#1",
          "ticks": 106272,
          "time": 172.96875,
          "velocity": 0.7874015748031497
        },
        {
          "duration": 0.3125,
          "durationTicks": 192,
          "midi": 25,
          "name": "C#1",
          "ticks": 106368,
          "time": 173.125,
          "velocity": 0.5905511811023622
        },
        {
          "duration": 0.3125,
          "durationTicks": 192,
          "midi": 65,
          "name": "F4",
          "ticks": 106368,
          "time": 173.125,
          "velocity": 0.7874015748031497
        },
        {
          "duration": 0.3125,
          "durationTicks": 192,
          "midi": 68,
          "name": "G#4",
          "ticks": 106464,
          "time": 173.28125,
          "velocity": 0.7874015748031497
        },
        {
          "duration": 0.3125,
          "durationTicks": 192,
          "midi": 25,
          "name": "C#1",
          "ticks": 106560,
          "time": 173.4375,
          "velocity": 0.7874015748031497
        },
        {
          "duration": 0.3125,
          "durationTicks": 192,
          "midi": 60,
          "name": "C4",
          "ticks": 106560,
          "time": 173.4375,
          "velocity": 0.7874015748031497
        },
        {
          "duration": 0.15625,
          "durationTicks": 96,
          "midi": 53,
          "name": "F3",
          "ticks": 106560,
          "time": 173.4375,
          "velocity": 0.7874015748031497
        },
        {
          "duration": 0.3125,
          "durationTicks": 192,
          "midi": 65,
          "name": "F4",
          "ticks": 106656,
          "time": 173.59375,
          "velocity": 0.7874015748031497
        },
        {
          "duration": 0.15625,
          "durationTicks": 96,
          "midi": 53,
          "name": "F3",
          "ticks": 106668,
          "time": 173.61328125,
          "velocity": 0.5905511811023622
        },
        {
          "duration": 0.46875,
          "durationTicks": 288,
          "midi": 25,
          "name": "C#1",
          "ticks": 106752,
          "time": 173.75,
          "velocity": 0.7874015748031497
        },
        {
          "duration": 0.46875,
          "durationTicks": 288,
          "midi": 56,
          "name": "G#3",
          "ticks": 106752,
          "time": 173.75,
          "velocity": 0.7874015748031497
        },
        {
          "duration": 0.3125,
          "durationTicks": 192,
          "midi": 60,
          "name": "C4",
          "ticks": 106752,
          "time": 173.75,
          "velocity": 0.7874015748031497
        },
        {
          "duration": 0.3125,
          "durationTicks": 192,
          "midi": 65,
          "name": "F4",
          "ticks": 106848,
          "time": 173.90625,
          "velocity": 0.7874015748031497
        },
        {
          "duration": 0.3125,
          "durationTicks": 192,
          "midi": 68,
          "name": "G#4",
          "ticks": 106944,
          "time": 174.0625,
          "velocity": 0.7874015748031497
        },
        {
          "duration": 0.3125,
          "durationTicks": 192,
          "midi": 60,
          "name": "C4",
          "ticks": 107040,
          "time": 174.21875,
          "velocity": 0.7874015748031497
        },
        {
          "duration": 0.46875,
          "durationTicks": 288,
          "midi": 25,
          "name": "C#1",
          "ticks": 107040,
          "time": 174.21875,
          "velocity": 0.7874015748031497
        },
        {
          "duration": 0.46875,
          "durationTicks": 288,
          "midi": 56,
          "name": "G#3",
          "ticks": 107040,
          "time": 174.21875,
          "velocity": 0.7874015748031497
        },
        {
          "duration": 0.3125,
          "durationTicks": 192,
          "midi": 65,
          "name": "F4",
          "ticks": 107136,
          "time": 174.375,
          "velocity": 0.7874015748031497
        },
        {
          "duration": 0.3125,
          "durationTicks": 192,
          "midi": 68,
          "name": "G#4",
          "ticks": 107232,
          "time": 174.53125,
          "velocity": 0.7874015748031497
        },
        {
          "duration": 0.3125,
          "durationTicks": 192,
          "midi": 60,
          "name": "C4",
          "ticks": 107328,
          "time": 174.6875,
          "velocity": 0.7874015748031497
        },
        {
          "duration": 0.15625,
          "durationTicks": 96,
          "midi": 53,
          "name": "F3",
          "ticks": 107328,
          "time": 174.6875,
          "velocity": 0.7874015748031497
        },
        {
          "duration": 0.15625,
          "durationTicks": 96,
          "midi": 25,
          "name": "C#1",
          "ticks": 107328,
          "time": 174.6875,
          "velocity": 0.7874015748031497
        },
        {
          "duration": 0.15625,
          "durationTicks": 96,
          "midi": 25,
          "name": "C#1",
          "ticks": 107424,
          "time": 174.84375,
          "velocity": 0.5905511811023622
        },
        {
          "duration": 0.3125,
          "durationTicks": 192,
          "midi": 65,
          "name": "F4",
          "ticks": 107424,
          "time": 174.84375,
          "velocity": 0.7874015748031497
        },
        {
          "duration": 0.15625,
          "durationTicks": 96,
          "midi": 53,
          "name": "F3",
          "ticks": 107436,
          "time": 174.86328125,
          "velocity": 0.5905511811023622
        },
        {
          "duration": 0.3125,
          "durationTicks": 192,
          "midi": 60,
          "name": "C4",
          "ticks": 107520,
          "time": 175,
          "velocity": 0.7874015748031497
        },
        {
          "duration": 0.46875,
          "durationTicks": 288,
          "midi": 30,
          "name": "F#1",
          "ticks": 107520,
          "time": 175,
          "velocity": 0.7874015748031497
        },
        {
          "duration": 0.46875,
          "durationTicks": 288,
          "midi": 55,
          "name": "G3",
          "ticks": 107520,
          "time": 175,
          "velocity": 0.7874015748031497
        },
        {
          "duration": 0.3125,
          "durationTicks": 192,
          "midi": 65,
          "name": "F4",
          "ticks": 107616,
          "time": 175.15625,
          "velocity": 0.7874015748031497
        },
        {
          "duration": 0.3125,
          "durationTicks": 192,
          "midi": 67,
          "name": "G4",
          "ticks": 107712,
          "time": 175.3125,
          "velocity": 0.7874015748031497
        },
        {
          "duration": 0.46875,
          "durationTicks": 288,
          "midi": 55,
          "name": "G3",
          "ticks": 107808,
          "time": 175.46875,
          "velocity": 0.7874015748031497
        },
        {
          "duration": 0.3125,
          "durationTicks": 192,
          "midi": 60,
          "name": "C4",
          "ticks": 107808,
          "time": 175.46875,
          "velocity": 0.7874015748031497
        },
        {
          "duration": 0.46875,
          "durationTicks": 288,
          "midi": 30,
          "name": "F#1",
          "ticks": 107808,
          "time": 175.46875,
          "velocity": 0.7874015748031497
        },
        {
          "duration": 0.3125,
          "durationTicks": 192,
          "midi": 65,
          "name": "F4",
          "ticks": 107904,
          "time": 175.625,
          "velocity": 0.7874015748031497
        },
        {
          "duration": 0.3125,
          "durationTicks": 192,
          "midi": 67,
          "name": "G4",
          "ticks": 108000,
          "time": 175.78125,
          "velocity": 0.7874015748031497
        },
        {
          "duration": 0.15625,
          "durationTicks": 96,
          "midi": 53,
          "name": "F3",
          "ticks": 108096,
          "time": 175.9375,
          "velocity": 0.7874015748031497
        },
        {
          "duration": 0.3125,
          "durationTicks": 192,
          "midi": 60,
          "name": "C4",
          "ticks": 108096,
          "time": 175.9375,
          "velocity": 0.7874015748031497
        },
        {
          "duration": 0.15625,
          "durationTicks": 96,
          "midi": 30,
          "name": "F#1",
          "ticks": 108096,
          "time": 175.9375,
          "velocity": 0.7874015748031497
        },
        {
          "duration": 0.15625,
          "durationTicks": 96,
          "midi": 30,
          "name": "F#1",
          "ticks": 108192,
          "time": 176.09375,
          "velocity": 0.5905511811023622
        },
        {
          "duration": 0.3125,
          "durationTicks": 192,
          "midi": 65,
          "name": "F4",
          "ticks": 108192,
          "time": 176.09375,
          "velocity": 0.7874015748031497
        },
        {
          "duration": 0.15625,
          "durationTicks": 96,
          "midi": 53,
          "name": "F3",
          "ticks": 108204,
          "time": 176.11328125,
          "velocity": 0.5905511811023622
        },
        {
          "duration": 0.46875,
          "durationTicks": 288,
          "midi": 30,
          "name": "F#1",
          "ticks": 108288,
          "time": 176.25,
          "velocity": 0.7874015748031497
        },
        {
          "duration": 0.46875,
          "durationTicks": 288,
          "midi": 55,
          "name": "G3",
          "ticks": 108288,
          "time": 176.25,
          "velocity": 0.7874015748031497
        },
        {
          "duration": 0.3125,
          "durationTicks": 192,
          "midi": 60,
          "name": "C4",
          "ticks": 108288,
          "time": 176.25,
          "velocity": 0.7874015748031497
        },
        {
          "duration": 0.3125,
          "durationTicks": 192,
          "midi": 65,
          "name": "F4",
          "ticks": 108384,
          "time": 176.40625,
          "velocity": 0.7874015748031497
        },
        {
          "duration": 0.3125,
          "durationTicks": 192,
          "midi": 67,
          "name": "G4",
          "ticks": 108480,
          "time": 176.5625,
          "velocity": 0.7874015748031497
        },
        {
          "duration": 0.3125,
          "durationTicks": 192,
          "midi": 60,
          "name": "C4",
          "ticks": 108576,
          "time": 176.71875,
          "velocity": 0.7874015748031497
        },
        {
          "duration": 0.46875,
          "durationTicks": 288,
          "midi": 55,
          "name": "G3",
          "ticks": 108576,
          "time": 176.71875,
          "velocity": 0.7874015748031497
        },
        {
          "duration": 0.46875,
          "durationTicks": 288,
          "midi": 30,
          "name": "F#1",
          "ticks": 108576,
          "time": 176.71875,
          "velocity": 0.7874015748031497
        },
        {
          "duration": 0.3125,
          "durationTicks": 192,
          "midi": 65,
          "name": "F4",
          "ticks": 108672,
          "time": 176.875,
          "velocity": 0.7874015748031497
        },
        {
          "duration": 0.3125,
          "durationTicks": 192,
          "midi": 67,
          "name": "G4",
          "ticks": 108768,
          "time": 177.03125,
          "velocity": 0.7874015748031497
        },
        {
          "duration": 0.15625,
          "durationTicks": 96,
          "midi": 53,
          "name": "F3",
          "ticks": 108864,
          "time": 177.1875,
          "velocity": 0.7874015748031497
        },
        {
          "duration": 0.3125,
          "durationTicks": 192,
          "midi": 60,
          "name": "C4",
          "ticks": 108864,
          "time": 177.1875,
          "velocity": 0.7874015748031497
        },
        {
          "duration": 0.15625,
          "durationTicks": 96,
          "midi": 30,
          "name": "F#1",
          "ticks": 108864,
          "time": 177.1875,
          "velocity": 0.7874015748031497
        },
        {
          "duration": 0.3125,
          "durationTicks": 192,
          "midi": 65,
          "name": "F4",
          "ticks": 108960,
          "time": 177.34375,
          "velocity": 0.7874015748031497
        },
        {
          "duration": 0.15625,
          "durationTicks": 96,
          "midi": 30,
          "name": "F#1",
          "ticks": 108960,
          "time": 177.34375,
          "velocity": 0.5905511811023622
        },
        {
          "duration": 0.15625,
          "durationTicks": 96,
          "midi": 53,
          "name": "F3",
          "ticks": 108972,
          "time": 177.36328125,
          "velocity": 0.5905511811023622
        },
        {
          "duration": 0.3125,
          "durationTicks": 192,
          "midi": 60,
          "name": "C4",
          "ticks": 109056,
          "time": 177.5,
          "velocity": 0.7874015748031497
        },
        {
          "duration": 0.46875,
          "durationTicks": 288,
          "midi": 58,
          "name": "A#3",
          "ticks": 109056,
          "time": 177.5,
          "velocity": 0.7874015748031497
        },
        {
          "duration": 0.46875,
          "durationTicks": 288,
          "midi": 27,
          "name": "D#1",
          "ticks": 109056,
          "time": 177.5,
          "velocity": 0.7874015748031497
        },
        {
          "duration": 0.3125,
          "durationTicks": 192,
          "midi": 65,
          "name": "F4",
          "ticks": 109152,
          "time": 177.65625,
          "velocity": 0.7874015748031497
        },
        {
          "duration": 0.3125,
          "durationTicks": 192,
          "midi": 70,
          "name": "A#4",
          "ticks": 109248,
          "time": 177.8125,
          "velocity": 0.7874015748031497
        },
        {
          "duration": 0.46875,
          "durationTicks": 288,
          "midi": 27,
          "name": "D#1",
          "ticks": 109344,
          "time": 177.96875,
          "velocity": 0.7874015748031497
        },
        {
          "duration": 0.46875,
          "durationTicks": 288,
          "midi": 58,
          "name": "A#3",
          "ticks": 109344,
          "time": 177.96875,
          "velocity": 0.7874015748031497
        },
        {
          "duration": 0.3125,
          "durationTicks": 192,
          "midi": 60,
          "name": "C4",
          "ticks": 109344,
          "time": 177.96875,
          "velocity": 0.7874015748031497
        },
        {
          "duration": 0.3125,
          "durationTicks": 192,
          "midi": 65,
          "name": "F4",
          "ticks": 109440,
          "time": 178.125,
          "velocity": 0.7874015748031497
        },
        {
          "duration": 0.3125,
          "durationTicks": 192,
          "midi": 70,
          "name": "A#4",
          "ticks": 109536,
          "time": 178.28125,
          "velocity": 0.7874015748031497
        },
        {
          "duration": 0.3125,
          "durationTicks": 192,
          "midi": 60,
          "name": "C4",
          "ticks": 109632,
          "time": 178.4375,
          "velocity": 0.7874015748031497
        },
        {
          "duration": 0.15625,
          "durationTicks": 96,
          "midi": 53,
          "name": "F3",
          "ticks": 109632,
          "time": 178.4375,
          "velocity": 0.7874015748031497
        },
        {
          "duration": 0.3125,
          "durationTicks": 192,
          "midi": 27,
          "name": "D#1",
          "ticks": 109632,
          "time": 178.4375,
          "velocity": 0.7874015748031497
        },
        {
          "duration": 0.3125,
          "durationTicks": 192,
          "midi": 65,
          "name": "F4",
          "ticks": 109728,
          "time": 178.59375,
          "velocity": 0.7874015748031497
        },
        {
          "duration": 0.15625,
          "durationTicks": 96,
          "midi": 53,
          "name": "F3",
          "ticks": 109740,
          "time": 178.61328125,
          "velocity": 0.5905511811023622
        },
        {
          "duration": 0.46875,
          "durationTicks": 288,
          "midi": 58,
          "name": "A#3",
          "ticks": 109824,
          "time": 178.75,
          "velocity": 0.7874015748031497
        },
        {
          "duration": 0.46875,
          "durationTicks": 288,
          "midi": 27,
          "name": "D#1",
          "ticks": 109824,
          "time": 178.75,
          "velocity": 0.7874015748031497
        },
        {
          "duration": 0.3125,
          "durationTicks": 192,
          "midi": 60,
          "name": "C4",
          "ticks": 109824,
          "time": 178.75,
          "velocity": 0.7874015748031497
        },
        {
          "duration": 0.3125,
          "durationTicks": 192,
          "midi": 65,
          "name": "F4",
          "ticks": 109920,
          "time": 178.90625,
          "velocity": 0.7874015748031497
        },
        {
          "duration": 0.3125,
          "durationTicks": 192,
          "midi": 70,
          "name": "A#4",
          "ticks": 110016,
          "time": 179.0625,
          "velocity": 0.7874015748031497
        },
        {
          "duration": 0.46875,
          "durationTicks": 288,
          "midi": 58,
          "name": "A#3",
          "ticks": 110112,
          "time": 179.21875,
          "velocity": 0.7874015748031497
        },
        {
          "duration": 0.15625,
          "durationTicks": 96,
          "midi": 27,
          "name": "D#1",
          "ticks": 110112,
          "time": 179.21875,
          "velocity": 0.7874015748031497
        },
        {
          "duration": 0.3125,
          "durationTicks": 192,
          "midi": 60,
          "name": "C4",
          "ticks": 110112,
          "time": 179.21875,
          "velocity": 0.7874015748031497
        },
        {
          "duration": 0.3125,
          "durationTicks": 192,
          "midi": 65,
          "name": "F4",
          "ticks": 110208,
          "time": 179.375,
          "velocity": 0.7874015748031497
        },
        {
          "duration": 0.3125,
          "durationTicks": 192,
          "midi": 27,
          "name": "D#1",
          "ticks": 110208,
          "time": 179.375,
          "velocity": 0.5905511811023622
        },
        {
          "duration": 0.3125,
          "durationTicks": 192,
          "midi": 68,
          "name": "G#4",
          "ticks": 110304,
          "time": 179.53125,
          "velocity": 0.7874015748031497
        },
        {
          "duration": 0.15625,
          "durationTicks": 96,
          "midi": 27,
          "name": "D#1",
          "ticks": 110400,
          "time": 179.6875,
          "velocity": 0.7874015748031497
        },
        {
          "duration": 0.15625,
          "durationTicks": 96,
          "midi": 56,
          "name": "G#3",
          "ticks": 110400,
          "time": 179.6875,
          "velocity": 0.7874015748031497
        },
        {
          "duration": 0.3125,
          "durationTicks": 192,
          "midi": 60,
          "name": "C4",
          "ticks": 110400,
          "time": 179.6875,
          "velocity": 0.7874015748031497
        },
        {
          "duration": 0.3125,
          "durationTicks": 192,
          "midi": 67,
          "name": "G4",
          "ticks": 110496,
          "time": 179.84375,
          "velocity": 0.7874015748031497
        },
        {
          "duration": 0.15625,
          "durationTicks": 96,
          "midi": 27,
          "name": "D#1",
          "ticks": 110496,
          "time": 179.84375,
          "velocity": 0.5905511811023622
        },
        {
          "duration": 0.15625,
          "durationTicks": 96,
          "midi": 55,
          "name": "G3",
          "ticks": 110532,
          "time": 179.90234375,
          "velocity": 0.7874015748031497
        },
        {
          "duration": 0.46875,
          "durationTicks": 288,
          "midi": 55,
          "name": "G3",
          "ticks": 110592,
          "time": 180,
          "velocity": 0.7874015748031497
        },
        {
          "duration": 0.3125,
          "durationTicks": 192,
          "midi": 60,
          "name": "C4",
          "ticks": 110592,
          "time": 180,
          "velocity": 0.7874015748031497
        },
        {
          "duration": 0.46875,
          "durationTicks": 288,
          "midi": 24,
          "name": "C1",
          "ticks": 110592,
          "time": 180,
          "velocity": 0.7874015748031497
        },
        {
          "duration": 0.3125,
          "durationTicks": 192,
          "midi": 65,
          "name": "F4",
          "ticks": 110688,
          "time": 180.15625,
          "velocity": 0.7874015748031497
        },
        {
          "duration": 0.3125,
          "durationTicks": 192,
          "midi": 67,
          "name": "G4",
          "ticks": 110784,
          "time": 180.3125,
          "velocity": 0.7874015748031497
        },
        {
          "duration": 0.46875,
          "durationTicks": 288,
          "midi": 55,
          "name": "G3",
          "ticks": 110880,
          "time": 180.46875,
          "velocity": 0.7874015748031497
        },
        {
          "duration": 0.3125,
          "durationTicks": 192,
          "midi": 60,
          "name": "C4",
          "ticks": 110880,
          "time": 180.46875,
          "velocity": 0.7874015748031497
        },
        {
          "duration": 0.46875,
          "durationTicks": 288,
          "midi": 24,
          "name": "C1",
          "ticks": 110880,
          "time": 180.46875,
          "velocity": 0.7874015748031497
        },
        {
          "duration": 0.3125,
          "durationTicks": 192,
          "midi": 65,
          "name": "F4",
          "ticks": 110976,
          "time": 180.625,
          "velocity": 0.7874015748031497
        },
        {
          "duration": 0.3125,
          "durationTicks": 192,
          "midi": 67,
          "name": "G4",
          "ticks": 111072,
          "time": 180.78125,
          "velocity": 0.7874015748031497
        },
        {
          "duration": 0.3125,
          "durationTicks": 192,
          "midi": 60,
          "name": "C4",
          "ticks": 111168,
          "time": 180.9375,
          "velocity": 0.7874015748031497
        },
        {
          "duration": 0.15625,
          "durationTicks": 96,
          "midi": 24,
          "name": "C1",
          "ticks": 111168,
          "time": 180.9375,
          "velocity": 0.7874015748031497
        },
        {
          "duration": 0.15625,
          "durationTicks": 96,
          "midi": 53,
          "name": "F3",
          "ticks": 111168,
          "time": 180.9375,
          "velocity": 0.7874015748031497
        },
        {
          "duration": 0.15625,
          "durationTicks": 96,
          "midi": 24,
          "name": "C1",
          "ticks": 111264,
          "time": 181.09375,
          "velocity": 0.5905511811023622
        },
        {
          "duration": 0.3125,
          "durationTicks": 192,
          "midi": 65,
          "name": "F4",
          "ticks": 111264,
          "time": 181.09375,
          "velocity": 0.7874015748031497
        },
        {
          "duration": 0.15625,
          "durationTicks": 96,
          "midi": 53,
          "name": "F3",
          "ticks": 111276,
          "time": 181.11328125,
          "velocity": 0.5905511811023622
        },
        {
          "duration": 0.3125,
          "durationTicks": 192,
          "midi": 60,
          "name": "C4",
          "ticks": 111360,
          "time": 181.25,
          "velocity": 0.7874015748031497
        },
        {
          "duration": 0.46875,
          "durationTicks": 288,
          "midi": 24,
          "name": "C1",
          "ticks": 111360,
          "time": 181.25,
          "velocity": 0.7874015748031497
        },
        {
          "duration": 0.46875,
          "durationTicks": 288,
          "midi": 55,
          "name": "G3",
          "ticks": 111360,
          "time": 181.25,
          "velocity": 0.7874015748031497
        },
        {
          "duration": 0.3125,
          "durationTicks": 192,
          "midi": 65,
          "name": "F4",
          "ticks": 111456,
          "time": 181.40625,
          "velocity": 0.7874015748031497
        },
        {
          "duration": 0.3125,
          "durationTicks": 192,
          "midi": 67,
          "name": "G4",
          "ticks": 111552,
          "time": 181.5625,
          "velocity": 0.7874015748031497
        },
        {
          "duration": 0.15625,
          "durationTicks": 96,
          "midi": 24,
          "name": "C1",
          "ticks": 111648,
          "time": 181.71875,
          "velocity": 0.7874015748031497
        },
        {
          "duration": 0.3125,
          "durationTicks": 192,
          "midi": 60,
          "name": "C4",
          "ticks": 111648,
          "time": 181.71875,
          "velocity": 0.7874015748031497
        },
        {
          "duration": 0.46875,
          "durationTicks": 288,
          "midi": 55,
          "name": "G3",
          "ticks": 111648,
          "time": 181.71875,
          "velocity": 0.7874015748031497
        },
        {
          "duration": 0.3125,
          "durationTicks": 192,
          "midi": 24,
          "name": "C1",
          "ticks": 111744,
          "time": 181.875,
          "velocity": 0.5905511811023622
        },
        {
          "duration": 0.3125,
          "durationTicks": 192,
          "midi": 65,
          "name": "F4",
          "ticks": 111744,
          "time": 181.875,
          "velocity": 0.7874015748031497
        },
        {
          "duration": 0.3125,
          "durationTicks": 192,
          "midi": 67,
          "name": "G4",
          "ticks": 111840,
          "time": 182.03125,
          "velocity": 0.7874015748031497
        },
        {
          "duration": 0.15625,
          "durationTicks": 96,
          "midi": 53,
          "name": "F3",
          "ticks": 111936,
          "time": 182.1875,
          "velocity": 0.7874015748031497
        },
        {
          "duration": 0.3125,
          "durationTicks": 192,
          "midi": 60,
          "name": "C4",
          "ticks": 111936,
          "time": 182.1875,
          "velocity": 0.7874015748031497
        },
        {
          "duration": 0.3125,
          "durationTicks": 192,
          "midi": 24,
          "name": "C1",
          "ticks": 111936,
          "time": 182.1875,
          "velocity": 0.7874015748031497
        },
        {
          "duration": 0.3125,
          "durationTicks": 192,
          "midi": 65,
          "name": "F4",
          "ticks": 112032,
          "time": 182.34375,
          "velocity": 0.7874015748031497
        },
        {
          "duration": 0.15625,
          "durationTicks": 96,
          "midi": 53,
          "name": "F3",
          "ticks": 112044,
          "time": 182.36328125,
          "velocity": 0.5905511811023622
        },
        {
          "duration": 0.3125,
          "durationTicks": 192,
          "midi": 60,
          "name": "C4",
          "ticks": 112128,
          "time": 182.5,
          "velocity": 0.7874015748031497
        },
        {
          "duration": 0.46875,
          "durationTicks": 288,
          "midi": 25,
          "name": "C#1",
          "ticks": 112128,
          "time": 182.5,
          "velocity": 0.7874015748031497
        },
        {
          "duration": 0.46875,
          "durationTicks": 288,
          "midi": 56,
          "name": "G#3",
          "ticks": 112128,
          "time": 182.5,
          "velocity": 0.7874015748031497
        },
        {
          "duration": 0.3125,
          "durationTicks": 192,
          "midi": 65,
          "name": "F4",
          "ticks": 112224,
          "time": 182.65625,
          "velocity": 0.7874015748031497
        },
        {
          "duration": 0.3125,
          "durationTicks": 192,
          "midi": 68,
          "name": "G#4",
          "ticks": 112320,
          "time": 182.8125,
          "velocity": 0.7874015748031497
        },
        {
          "duration": 0.15625,
          "durationTicks": 96,
          "midi": 25,
          "name": "C#1",
          "ticks": 112416,
          "time": 182.96875,
          "velocity": 0.7874015748031497
        },
        {
          "duration": 0.3125,
          "durationTicks": 192,
          "midi": 60,
          "name": "C4",
          "ticks": 112416,
          "time": 182.96875,
          "velocity": 0.7874015748031497
        },
        {
          "duration": 0.46875,
          "durationTicks": 288,
          "midi": 56,
          "name": "G#3",
          "ticks": 112416,
          "time": 182.96875,
          "velocity": 0.7874015748031497
        },
        {
          "duration": 0.3125,
          "durationTicks": 192,
          "midi": 65,
          "name": "F4",
          "ticks": 112512,
          "time": 183.125,
          "velocity": 0.7874015748031497
        },
        {
          "duration": 0.3125,
          "durationTicks": 192,
          "midi": 25,
          "name": "C#1",
          "ticks": 112512,
          "time": 183.125,
          "velocity": 0.5905511811023622
        },
        {
          "duration": 0.3125,
          "durationTicks": 192,
          "midi": 68,
          "name": "G#4",
          "ticks": 112608,
          "time": 183.28125,
          "velocity": 0.7874015748031497
        },
        {
          "duration": 0.15625,
          "durationTicks": 96,
          "midi": 53,
          "name": "F3",
          "ticks": 112704,
          "time": 183.4375,
          "velocity": 0.7874015748031497
        },
        {
          "duration": 0.3125,
          "durationTicks": 192,
          "midi": 25,
          "name": "C#1",
          "ticks": 112704,
          "time": 183.4375,
          "velocity": 0.7874015748031497
        },
        {
          "duration": 0.3125,
          "durationTicks": 192,
          "midi": 60,
          "name": "C4",
          "ticks": 112704,
          "time": 183.4375,
          "velocity": 0.7874015748031497
        },
        {
          "duration": 0.3125,
          "durationTicks": 192,
          "midi": 65,
          "name": "F4",
          "ticks": 112800,
          "time": 183.59375,
          "velocity": 0.7874015748031497
        },
        {
          "duration": 0.15625,
          "durationTicks": 96,
          "midi": 53,
          "name": "F3",
          "ticks": 112812,
          "time": 183.61328125,
          "velocity": 0.5905511811023622
        },
        {
          "duration": 0.3125,
          "durationTicks": 192,
          "midi": 60,
          "name": "C4",
          "ticks": 112896,
          "time": 183.75,
          "velocity": 0.7874015748031497
        },
        {
          "duration": 0.46875,
          "durationTicks": 288,
          "midi": 25,
          "name": "C#1",
          "ticks": 112896,
          "time": 183.75,
          "velocity": 0.7874015748031497
        },
        {
          "duration": 0.46875,
          "durationTicks": 288,
          "midi": 56,
          "name": "G#3",
          "ticks": 112896,
          "time": 183.75,
          "velocity": 0.7874015748031497
        },
        {
          "duration": 0.3125,
          "durationTicks": 192,
          "midi": 65,
          "name": "F4",
          "ticks": 112992,
          "time": 183.90625,
          "velocity": 0.7874015748031497
        },
        {
          "duration": 0.3125,
          "durationTicks": 192,
          "midi": 68,
          "name": "G#4",
          "ticks": 113088,
          "time": 184.0625,
          "velocity": 0.7874015748031497
        },
        {
          "duration": 0.46875,
          "durationTicks": 288,
          "midi": 25,
          "name": "C#1",
          "ticks": 113184,
          "time": 184.21875,
          "velocity": 0.7874015748031497
        },
        {
          "duration": 0.46875,
          "durationTicks": 288,
          "midi": 56,
          "name": "G#3",
          "ticks": 113184,
          "time": 184.21875,
          "velocity": 0.7874015748031497
        },
        {
          "duration": 0.3125,
          "durationTicks": 192,
          "midi": 60,
          "name": "C4",
          "ticks": 113184,
          "time": 184.21875,
          "velocity": 0.7874015748031497
        },
        {
          "duration": 0.3125,
          "durationTicks": 192,
          "midi": 65,
          "name": "F4",
          "ticks": 113280,
          "time": 184.375,
          "velocity": 0.7874015748031497
        },
        {
          "duration": 0.3125,
          "durationTicks": 192,
          "midi": 68,
          "name": "G#4",
          "ticks": 113376,
          "time": 184.53125,
          "velocity": 0.7874015748031497
        },
        {
          "duration": 0.15625,
          "durationTicks": 96,
          "midi": 25,
          "name": "C#1",
          "ticks": 113472,
          "time": 184.6875,
          "velocity": 0.7874015748031497
        },
        {
          "duration": 0.15625,
          "durationTicks": 96,
          "midi": 53,
          "name": "F3",
          "ticks": 113472,
          "time": 184.6875,
          "velocity": 0.7874015748031497
        },
        {
          "duration": 0.3125,
          "durationTicks": 192,
          "midi": 60,
          "name": "C4",
          "ticks": 113472,
          "time": 184.6875,
          "velocity": 0.7874015748031497
        },
        {
          "duration": 0.3125,
          "durationTicks": 192,
          "midi": 65,
          "name": "F4",
          "ticks": 113568,
          "time": 184.84375,
          "velocity": 0.7874015748031497
        },
        {
          "duration": 0.15625,
          "durationTicks": 96,
          "midi": 25,
          "name": "C#1",
          "ticks": 113568,
          "time": 184.84375,
          "velocity": 0.5905511811023622
        },
        {
          "duration": 0.15625,
          "durationTicks": 96,
          "midi": 53,
          "name": "F3",
          "ticks": 113580,
          "time": 184.86328125,
          "velocity": 0.5905511811023622
        },
        {
          "duration": 0.46875,
          "durationTicks": 288,
          "midi": 55,
          "name": "G3",
          "ticks": 113664,
          "time": 185,
          "velocity": 0.7874015748031497
        },
        {
          "duration": 0.3125,
          "durationTicks": 192,
          "midi": 60,
          "name": "C4",
          "ticks": 113664,
          "time": 185,
          "velocity": 0.7874015748031497
        },
        {
          "duration": 0.46875,
          "durationTicks": 288,
          "midi": 30,
          "name": "F#1",
          "ticks": 113664,
          "time": 185,
          "velocity": 0.7874015748031497
        },
        {
          "duration": 0.3125,
          "durationTicks": 192,
          "midi": 65,
          "name": "F4",
          "ticks": 113760,
          "time": 185.15625,
          "velocity": 0.7874015748031497
        },
        {
          "duration": 0.3125,
          "durationTicks": 192,
          "midi": 67,
          "name": "G4",
          "ticks": 113856,
          "time": 185.3125,
          "velocity": 0.7874015748031497
        },
        {
          "duration": 0.46875,
          "durationTicks": 288,
          "midi": 55,
          "name": "G3",
          "ticks": 113952,
          "time": 185.46875,
          "velocity": 0.7874015748031497
        },
        {
          "duration": 0.46875,
          "durationTicks": 288,
          "midi": 30,
          "name": "F#1",
          "ticks": 113952,
          "time": 185.46875,
          "velocity": 0.7874015748031497
        },
        {
          "duration": 0.3125,
          "durationTicks": 192,
          "midi": 60,
          "name": "C4",
          "ticks": 113952,
          "time": 185.46875,
          "velocity": 0.7874015748031497
        },
        {
          "duration": 0.3125,
          "durationTicks": 192,
          "midi": 65,
          "name": "F4",
          "ticks": 114048,
          "time": 185.625,
          "velocity": 0.7874015748031497
        },
        {
          "duration": 0.3125,
          "durationTicks": 192,
          "midi": 67,
          "name": "G4",
          "ticks": 114144,
          "time": 185.78125,
          "velocity": 0.7874015748031497
        },
        {
          "duration": 0.15625,
          "durationTicks": 96,
          "midi": 53,
          "name": "F3",
          "ticks": 114240,
          "time": 185.9375,
          "velocity": 0.7874015748031497
        },
        {
          "duration": 0.15625,
          "durationTicks": 96,
          "midi": 30,
          "name": "F#1",
          "ticks": 114240,
          "time": 185.9375,
          "velocity": 0.7874015748031497
        },
        {
          "duration": 0.3125,
          "durationTicks": 192,
          "midi": 60,
          "name": "C4",
          "ticks": 114240,
          "time": 185.9375,
          "velocity": 0.7874015748031497
        },
        {
          "duration": 0.15625,
          "durationTicks": 96,
          "midi": 30,
          "name": "F#1",
          "ticks": 114336,
          "time": 186.09375,
          "velocity": 0.5905511811023622
        },
        {
          "duration": 0.3125,
          "durationTicks": 192,
          "midi": 65,
          "name": "F4",
          "ticks": 114336,
          "time": 186.09375,
          "velocity": 0.7874015748031497
        },
        {
          "duration": 0.15625,
          "durationTicks": 96,
          "midi": 53,
          "name": "F3",
          "ticks": 114348,
          "time": 186.11328125,
          "velocity": 0.5905511811023622
        },
        {
          "duration": 0.46875,
          "durationTicks": 288,
          "midi": 30,
          "name": "F#1",
          "ticks": 114432,
          "time": 186.25,
          "velocity": 0.7874015748031497
        },
        {
          "duration": 0.3125,
          "durationTicks": 192,
          "midi": 60,
          "name": "C4",
          "ticks": 114432,
          "time": 186.25,
          "velocity": 0.7874015748031497
        },
        {
          "duration": 0.46875,
          "durationTicks": 288,
          "midi": 55,
          "name": "G3",
          "ticks": 114432,
          "time": 186.25,
          "velocity": 0.7874015748031497
        },
        {
          "duration": 0.3125,
          "durationTicks": 192,
          "midi": 65,
          "name": "F4",
          "ticks": 114528,
          "time": 186.40625,
          "velocity": 0.7874015748031497
        },
        {
          "duration": 0.3125,
          "durationTicks": 192,
          "midi": 67,
          "name": "G4",
          "ticks": 114624,
          "time": 186.5625,
          "velocity": 0.7874015748031497
        },
        {
          "duration": 0.3125,
          "durationTicks": 192,
          "midi": 60,
          "name": "C4",
          "ticks": 114720,
          "time": 186.71875,
          "velocity": 0.7874015748031497
        },
        {
          "duration": 0.46875,
          "durationTicks": 288,
          "midi": 30,
          "name": "F#1",
          "ticks": 114720,
          "time": 186.71875,
          "velocity": 0.7874015748031497
        },
        {
          "duration": 0.46875,
          "durationTicks": 288,
          "midi": 55,
          "name": "G3",
          "ticks": 114720,
          "time": 186.71875,
          "velocity": 0.7874015748031497
        },
        {
          "duration": 0.3125,
          "durationTicks": 192,
          "midi": 65,
          "name": "F4",
          "ticks": 114816,
          "time": 186.875,
          "velocity": 0.7874015748031497
        },
        {
          "duration": 0.3125,
          "durationTicks": 192,
          "midi": 67,
          "name": "G4",
          "ticks": 114912,
          "time": 187.03125,
          "velocity": 0.7874015748031497
        },
        {
          "duration": 0.15625,
          "durationTicks": 96,
          "midi": 53,
          "name": "F3",
          "ticks": 115008,
          "time": 187.1875,
          "velocity": 0.7874015748031497
        },
        {
          "duration": 0.15625,
          "durationTicks": 96,
          "midi": 30,
          "name": "F#1",
          "ticks": 115008,
          "time": 187.1875,
          "velocity": 0.7874015748031497
        },
        {
          "duration": 0.3125,
          "durationTicks": 192,
          "midi": 60,
          "name": "C4",
          "ticks": 115008,
          "time": 187.1875,
          "velocity": 0.7874015748031497
        },
        {
          "duration": 0.3125,
          "durationTicks": 192,
          "midi": 65,
          "name": "F4",
          "ticks": 115104,
          "time": 187.34375,
          "velocity": 0.7874015748031497
        },
        {
          "duration": 0.15625,
          "durationTicks": 96,
          "midi": 30,
          "name": "F#1",
          "ticks": 115104,
          "time": 187.34375,
          "velocity": 0.5905511811023622
        },
        {
          "duration": 0.15625,
          "durationTicks": 96,
          "midi": 53,
          "name": "F3",
          "ticks": 115116,
          "time": 187.36328125,
          "velocity": 0.5905511811023622
        },
        {
          "duration": 0.46875,
          "durationTicks": 288,
          "midi": 58,
          "name": "A#3",
          "ticks": 115200,
          "time": 187.5,
          "velocity": 0.7874015748031497
        },
        {
          "duration": 0.46875,
          "durationTicks": 288,
          "midi": 27,
          "name": "D#1",
          "ticks": 115200,
          "time": 187.5,
          "velocity": 0.7874015748031497
        },
        {
          "duration": 0.3125,
          "durationTicks": 192,
          "midi": 60,
          "name": "C4",
          "ticks": 115200,
          "time": 187.5,
          "velocity": 0.7874015748031497
        },
        {
          "duration": 0.3125,
          "durationTicks": 192,
          "midi": 65,
          "name": "F4",
          "ticks": 115296,
          "time": 187.65625,
          "velocity": 0.7874015748031497
        },
        {
          "duration": 0.3125,
          "durationTicks": 192,
          "midi": 70,
          "name": "A#4",
          "ticks": 115392,
          "time": 187.8125,
          "velocity": 0.7874015748031497
        },
        {
          "duration": 0.3125,
          "durationTicks": 192,
          "midi": 60,
          "name": "C4",
          "ticks": 115488,
          "time": 187.96875,
          "velocity": 0.7874015748031497
        },
        {
          "duration": 0.46875,
          "durationTicks": 288,
          "midi": 27,
          "name": "D#1",
          "ticks": 115488,
          "time": 187.96875,
          "velocity": 0.7874015748031497
        },
        {
          "duration": 0.46875,
          "durationTicks": 288,
          "midi": 58,
          "name": "A#3",
          "ticks": 115488,
          "time": 187.96875,
          "velocity": 0.7874015748031497
        },
        {
          "duration": 0.3125,
          "durationTicks": 192,
          "midi": 65,
          "name": "F4",
          "ticks": 115584,
          "time": 188.125,
          "velocity": 0.7874015748031497
        },
        {
          "duration": 0.3125,
          "durationTicks": 192,
          "midi": 70,
          "name": "A#4",
          "ticks": 115680,
          "time": 188.28125,
          "velocity": 0.7874015748031497
        },
        {
          "duration": 0.15625,
          "durationTicks": 96,
          "midi": 53,
          "name": "F3",
          "ticks": 115776,
          "time": 188.4375,
          "velocity": 0.7874015748031497
        },
        {
          "duration": 0.3125,
          "durationTicks": 192,
          "midi": 27,
          "name": "D#1",
          "ticks": 115776,
          "time": 188.4375,
          "velocity": 0.7874015748031497
        },
        {
          "duration": 0.3125,
          "durationTicks": 192,
          "midi": 60,
          "name": "C4",
          "ticks": 115776,
          "time": 188.4375,
          "velocity": 0.7874015748031497
        },
        {
          "duration": 0.3125,
          "durationTicks": 192,
          "midi": 65,
          "name": "F4",
          "ticks": 115872,
          "time": 188.59375,
          "velocity": 0.7874015748031497
        },
        {
          "duration": 0.15625,
          "durationTicks": 96,
          "midi": 53,
          "name": "F3",
          "ticks": 115884,
          "time": 188.61328125,
          "velocity": 0.5905511811023622
        },
        {
          "duration": 0.46875,
          "durationTicks": 288,
          "midi": 58,
          "name": "A#3",
          "ticks": 115968,
          "time": 188.75,
          "velocity": 0.7874015748031497
        },
        {
          "duration": 0.46875,
          "durationTicks": 288,
          "midi": 27,
          "name": "D#1",
          "ticks": 115968,
          "time": 188.75,
          "velocity": 0.7874015748031497
        },
        {
          "duration": 0.3125,
          "durationTicks": 192,
          "midi": 60,
          "name": "C4",
          "ticks": 115968,
          "time": 188.75,
          "velocity": 0.7874015748031497
        },
        {
          "duration": 0.3125,
          "durationTicks": 192,
          "midi": 65,
          "name": "F4",
          "ticks": 116064,
          "time": 188.90625,
          "velocity": 0.7874015748031497
        },
        {
          "duration": 0.3125,
          "durationTicks": 192,
          "midi": 70,
          "name": "A#4",
          "ticks": 116160,
          "time": 189.0625,
          "velocity": 0.7874015748031497
        },
        {
          "duration": 0.46875,
          "durationTicks": 288,
          "midi": 58,
          "name": "A#3",
          "ticks": 116256,
          "time": 189.21875,
          "velocity": 0.7874015748031497
        },
        {
          "duration": 0.15625,
          "durationTicks": 96,
          "midi": 27,
          "name": "D#1",
          "ticks": 116256,
          "time": 189.21875,
          "velocity": 0.7874015748031497
        },
        {
          "duration": 0.3125,
          "durationTicks": 192,
          "midi": 60,
          "name": "C4",
          "ticks": 116256,
          "time": 189.21875,
          "velocity": 0.7874015748031497
        },
        {
          "duration": 0.3125,
          "durationTicks": 192,
          "midi": 65,
          "name": "F4",
          "ticks": 116352,
          "time": 189.375,
          "velocity": 0.7874015748031497
        },
        {
          "duration": 0.3125,
          "durationTicks": 192,
          "midi": 27,
          "name": "D#1",
          "ticks": 116352,
          "time": 189.375,
          "velocity": 0.5905511811023622
        },
        {
          "duration": 0.3125,
          "durationTicks": 192,
          "midi": 68,
          "name": "G#4",
          "ticks": 116448,
          "time": 189.53125,
          "velocity": 0.7874015748031497
        },
        {
          "duration": 0.15625,
          "durationTicks": 96,
          "midi": 27,
          "name": "D#1",
          "ticks": 116544,
          "time": 189.6875,
          "velocity": 0.7874015748031497
        },
        {
          "duration": 0.15625,
          "durationTicks": 96,
          "midi": 56,
          "name": "G#3",
          "ticks": 116544,
          "time": 189.6875,
          "velocity": 0.7874015748031497
        },
        {
          "duration": 0.3125,
          "durationTicks": 192,
          "midi": 60,
          "name": "C4",
          "ticks": 116544,
          "time": 189.6875,
          "velocity": 0.7874015748031497
        },
        {
          "duration": 0.3125,
          "durationTicks": 192,
          "midi": 67,
          "name": "G4",
          "ticks": 116640,
          "time": 189.84375,
          "velocity": 0.7874015748031497
        },
        {
          "duration": 0.15625,
          "durationTicks": 96,
          "midi": 27,
          "name": "D#1",
          "ticks": 116640,
          "time": 189.84375,
          "velocity": 0.5905511811023622
        },
        {
          "duration": 0.15625,
          "durationTicks": 96,
          "midi": 55,
          "name": "G3",
          "ticks": 116676,
          "time": 189.90234375,
          "velocity": 0.7874015748031497
        },
        {
          "duration": 0.3125,
          "durationTicks": 192,
          "midi": 60,
          "name": "C4",
          "ticks": 116736,
          "time": 190,
          "velocity": 0.7874015748031497
        },
        {
          "duration": 0.46875,
          "durationTicks": 288,
          "midi": 24,
          "name": "C1",
          "ticks": 116736,
          "time": 190,
          "velocity": 0.7874015748031497
        },
        {
          "duration": 0.46875,
          "durationTicks": 288,
          "midi": 55,
          "name": "G3",
          "ticks": 116736,
          "time": 190,
          "velocity": 0.7874015748031497
        },
        {
          "duration": 0.3125,
          "durationTicks": 192,
          "midi": 65,
          "name": "F4",
          "ticks": 116832,
          "time": 190.15625,
          "velocity": 0.7874015748031497
        },
        {
          "duration": 0.3125,
          "durationTicks": 192,
          "midi": 67,
          "name": "G4",
          "ticks": 116928,
          "time": 190.3125,
          "velocity": 0.7874015748031497
        },
        {
          "duration": 0.46875,
          "durationTicks": 288,
          "midi": 24,
          "name": "C1",
          "ticks": 117024,
          "time": 190.46875,
          "velocity": 0.7874015748031497
        },
        {
          "duration": 0.46875,
          "durationTicks": 288,
          "midi": 55,
          "name": "G3",
          "ticks": 117024,
          "time": 190.46875,
          "velocity": 0.7874015748031497
        },
        {
          "duration": 0.3125,
          "durationTicks": 192,
          "midi": 60,
          "name": "C4",
          "ticks": 117024,
          "time": 190.46875,
          "velocity": 0.7874015748031497
        },
        {
          "duration": 0.3125,
          "durationTicks": 192,
          "midi": 65,
          "name": "F4",
          "ticks": 117120,
          "time": 190.625,
          "velocity": 0.7874015748031497
        },
        {
          "duration": 0.3125,
          "durationTicks": 192,
          "midi": 67,
          "name": "G4",
          "ticks": 117216,
          "time": 190.78125,
          "velocity": 0.7874015748031497
        },
        {
          "duration": 0.3125,
          "durationTicks": 192,
          "midi": 60,
          "name": "C4",
          "ticks": 117312,
          "time": 190.9375,
          "velocity": 0.7874015748031497
        },
        {
          "duration": 0.15625,
          "durationTicks": 96,
          "midi": 53,
          "name": "F3",
          "ticks": 117312,
          "time": 190.9375,
          "velocity": 0.7874015748031497
        },
        {
          "duration": 0.15625,
          "durationTicks": 96,
          "midi": 24,
          "name": "C1",
          "ticks": 117312,
          "time": 190.9375,
          "velocity": 0.7874015748031497
        },
        {
          "duration": 0.15625,
          "durationTicks": 96,
          "midi": 24,
          "name": "C1",
          "ticks": 117408,
          "time": 191.09375,
          "velocity": 0.5905511811023622
        },
        {
          "duration": 0.3125,
          "durationTicks": 192,
          "midi": 65,
          "name": "F4",
          "ticks": 117408,
          "time": 191.09375,
          "velocity": 0.7874015748031497
        },
        {
          "duration": 0.15625,
          "durationTicks": 96,
          "midi": 53,
          "name": "F3",
          "ticks": 117420,
          "time": 191.11328125,
          "velocity": 0.5905511811023622
        },
        {
          "duration": 0.46875,
          "durationTicks": 288,
          "midi": 24,
          "name": "C1",
          "ticks": 117504,
          "time": 191.25,
          "velocity": 0.7874015748031497
        },
        {
          "duration": 0.46875,
          "durationTicks": 288,
          "midi": 55,
          "name": "G3",
          "ticks": 117504,
          "time": 191.25,
          "velocity": 0.7874015748031497
        },
        {
          "duration": 0.3125,
          "durationTicks": 192,
          "midi": 60,
          "name": "C4",
          "ticks": 117504,
          "time": 191.25,
          "velocity": 0.7874015748031497
        },
        {
          "duration": 0.3125,
          "durationTicks": 192,
          "midi": 65,
          "name": "F4",
          "ticks": 117600,
          "time": 191.40625,
          "velocity": 0.7874015748031497
        },
        {
          "duration": 0.3125,
          "durationTicks": 192,
          "midi": 67,
          "name": "G4",
          "ticks": 117696,
          "time": 191.5625,
          "velocity": 0.7874015748031497
        },
        {
          "duration": 0.15625,
          "durationTicks": 96,
          "midi": 24,
          "name": "C1",
          "ticks": 117792,
          "time": 191.71875,
          "velocity": 0.7874015748031497
        },
        {
          "duration": 0.3125,
          "durationTicks": 192,
          "midi": 60,
          "name": "C4",
          "ticks": 117792,
          "time": 191.71875,
          "velocity": 0.7874015748031497
        },
        {
          "duration": 0.46875,
          "durationTicks": 288,
          "midi": 55,
          "name": "G3",
          "ticks": 117792,
          "time": 191.71875,
          "velocity": 0.7874015748031497
        },
        {
          "duration": 0.3125,
          "durationTicks": 192,
          "midi": 65,
          "name": "F4",
          "ticks": 117888,
          "time": 191.875,
          "velocity": 0.7874015748031497
        },
        {
          "duration": 0.3125,
          "durationTicks": 192,
          "midi": 24,
          "name": "C1",
          "ticks": 117888,
          "time": 191.875,
          "velocity": 0.5905511811023622
        },
        {
          "duration": 0.3125,
          "durationTicks": 192,
          "midi": 67,
          "name": "G4",
          "ticks": 117984,
          "time": 192.03125,
          "velocity": 0.7874015748031497
        },
        {
          "duration": 0.15625,
          "durationTicks": 96,
          "midi": 53,
          "name": "F3",
          "ticks": 118080,
          "time": 192.1875,
          "velocity": 0.7874015748031497
        },
        {
          "duration": 0.3125,
          "durationTicks": 192,
          "midi": 24,
          "name": "C1",
          "ticks": 118080,
          "time": 192.1875,
          "velocity": 0.7874015748031497
        },
        {
          "duration": 0.3125,
          "durationTicks": 192,
          "midi": 60,
          "name": "C4",
          "ticks": 118080,
          "time": 192.1875,
          "velocity": 0.7874015748031497
        },
        {
          "duration": 0.3125,
          "durationTicks": 192,
          "midi": 65,
          "name": "F4",
          "ticks": 118176,
          "time": 192.34375,
          "velocity": 0.7874015748031497
        },
        {
          "duration": 0.15625,
          "durationTicks": 96,
          "midi": 53,
          "name": "F3",
          "ticks": 118188,
          "time": 192.36328125,
          "velocity": 0.5905511811023622
        },
        {
          "duration": 0.46875,
          "durationTicks": 288,
          "midi": 25,
          "name": "C#1",
          "ticks": 118272,
          "time": 192.5,
          "velocity": 0.7874015748031497
        },
        {
          "duration": 0.46875,
          "durationTicks": 288,
          "midi": 56,
          "name": "G#3",
          "ticks": 118272,
          "time": 192.5,
          "velocity": 0.7874015748031497
        },
        {
          "duration": 0.3125,
          "durationTicks": 192,
          "midi": 60,
          "name": "C4",
          "ticks": 118272,
          "time": 192.5,
          "velocity": 0.7874015748031497
        },
        {
          "duration": 0.3125,
          "durationTicks": 192,
          "midi": 65,
          "name": "F4",
          "ticks": 118368,
          "time": 192.65625,
          "velocity": 0.7874015748031497
        },
        {
          "duration": 0.3125,
          "durationTicks": 192,
          "midi": 68,
          "name": "G#4",
          "ticks": 118464,
          "time": 192.8125,
          "velocity": 0.7874015748031497
        },
        {
          "duration": 0.15625,
          "durationTicks": 96,
          "midi": 25,
          "name": "C#1",
          "ticks": 118560,
          "time": 192.96875,
          "velocity": 0.7874015748031497
        },
        {
          "duration": 0.3125,
          "durationTicks": 192,
          "midi": 60,
          "name": "C4",
          "ticks": 118560,
          "time": 192.96875,
          "velocity": 0.7874015748031497
        },
        {
          "duration": 0.46875,
          "durationTicks": 288,
          "midi": 56,
          "name": "G#3",
          "ticks": 118560,
          "time": 192.96875,
          "velocity": 0.7874015748031497
        },
        {
          "duration": 0.3125,
          "durationTicks": 192,
          "midi": 25,
          "name": "C#1",
          "ticks": 118656,
          "time": 193.125,
          "velocity": 0.5905511811023622
        },
        {
          "duration": 0.3125,
          "durationTicks": 192,
          "midi": 65,
          "name": "F4",
          "ticks": 118656,
          "time": 193.125,
          "velocity": 0.7874015748031497
        },
        {
          "duration": 0.3125,
          "durationTicks": 192,
          "midi": 68,
          "name": "G#4",
          "ticks": 118752,
          "time": 193.28125,
          "velocity": 0.7874015748031497
        },
        {
          "duration": 0.15625,
          "durationTicks": 96,
          "midi": 53,
          "name": "F3",
          "ticks": 118848,
          "time": 193.4375,
          "velocity": 0.7874015748031497
        },
        {
          "duration": 0.3125,
          "durationTicks": 192,
          "midi": 60,
          "name": "C4",
          "ticks": 118848,
          "time": 193.4375,
          "velocity": 0.7874015748031497
        },
        {
          "duration": 0.3125,
          "durationTicks": 192,
          "midi": 25,
          "name": "C#1",
          "ticks": 118848,
          "time": 193.4375,
          "velocity": 0.7874015748031497
        },
        {
          "duration": 0.3125,
          "durationTicks": 192,
          "midi": 65,
          "name": "F4",
          "ticks": 118944,
          "time": 193.59375,
          "velocity": 0.7874015748031497
        },
        {
          "duration": 0.15625,
          "durationTicks": 96,
          "midi": 53,
          "name": "F3",
          "ticks": 118956,
          "time": 193.61328125,
          "velocity": 0.5905511811023622
        },
        {
          "duration": 0.46875,
          "durationTicks": 288,
          "midi": 25,
          "name": "C#1",
          "ticks": 119040,
          "time": 193.75,
          "velocity": 0.7874015748031497
        },
        {
          "duration": 0.46875,
          "durationTicks": 288,
          "midi": 56,
          "name": "G#3",
          "ticks": 119040,
          "time": 193.75,
          "velocity": 0.7874015748031497
        },
        {
          "duration": 0.3125,
          "durationTicks": 192,
          "midi": 60,
          "name": "C4",
          "ticks": 119040,
          "time": 193.75,
          "velocity": 0.7874015748031497
        },
        {
          "duration": 0.3125,
          "durationTicks": 192,
          "midi": 65,
          "name": "F4",
          "ticks": 119136,
          "time": 193.90625,
          "velocity": 0.7874015748031497
        },
        {
          "duration": 0.3125,
          "durationTicks": 192,
          "midi": 68,
          "name": "G#4",
          "ticks": 119232,
          "time": 194.0625,
          "velocity": 0.7874015748031497
        },
        {
          "duration": 0.3125,
          "durationTicks": 192,
          "midi": 60,
          "name": "C4",
          "ticks": 119328,
          "time": 194.21875,
          "velocity": 0.7874015748031497
        },
        {
          "duration": 0.46875,
          "durationTicks": 288,
          "midi": 25,
          "name": "C#1",
          "ticks": 119328,
          "time": 194.21875,
          "velocity": 0.7874015748031497
        },
        {
          "duration": 0.46875,
          "durationTicks": 288,
          "midi": 56,
          "name": "G#3",
          "ticks": 119328,
          "time": 194.21875,
          "velocity": 0.7874015748031497
        },
        {
          "duration": 0.3125,
          "durationTicks": 192,
          "midi": 65,
          "name": "F4",
          "ticks": 119424,
          "time": 194.375,
          "velocity": 0.7874015748031497
        },
        {
          "duration": 0.3125,
          "durationTicks": 192,
          "midi": 68,
          "name": "G#4",
          "ticks": 119520,
          "time": 194.53125,
          "velocity": 0.7874015748031497
        },
        {
          "duration": 0.3125,
          "durationTicks": 192,
          "midi": 60,
          "name": "C4",
          "ticks": 119616,
          "time": 194.6875,
          "velocity": 0.7874015748031497
        },
        {
          "duration": 0.15625,
          "durationTicks": 96,
          "midi": 53,
          "name": "F3",
          "ticks": 119616,
          "time": 194.6875,
          "velocity": 0.7874015748031497
        },
        {
          "duration": 0.15625,
          "durationTicks": 96,
          "midi": 25,
          "name": "C#1",
          "ticks": 119616,
          "time": 194.6875,
          "velocity": 0.7874015748031497
        },
        {
          "duration": 0.3125,
          "durationTicks": 192,
          "midi": 65,
          "name": "F4",
          "ticks": 119712,
          "time": 194.84375,
          "velocity": 0.7874015748031497
        },
        {
          "duration": 0.15625,
          "durationTicks": 96,
          "midi": 25,
          "name": "C#1",
          "ticks": 119712,
          "time": 194.84375,
          "velocity": 0.5905511811023622
        },
        {
          "duration": 0.15625,
          "durationTicks": 96,
          "midi": 53,
          "name": "F3",
          "ticks": 119724,
          "time": 194.86328125,
          "velocity": 0.5905511811023622
        },
        {
          "duration": 0.46875,
          "durationTicks": 288,
          "midi": 55,
          "name": "G3",
          "ticks": 119808,
          "time": 195,
          "velocity": 0.7874015748031497
        },
        {
          "duration": 0.46875,
          "durationTicks": 288,
          "midi": 30,
          "name": "F#1",
          "ticks": 119808,
          "time": 195,
          "velocity": 0.7874015748031497
        },
        {
          "duration": 0.3125,
          "durationTicks": 192,
          "midi": 60,
          "name": "C4",
          "ticks": 119808,
          "time": 195,
          "velocity": 0.7874015748031497
        },
        {
          "duration": 0.3125,
          "durationTicks": 192,
          "midi": 65,
          "name": "F4",
          "ticks": 119904,
          "time": 195.15625,
          "velocity": 0.7874015748031497
        },
        {
          "duration": 0.3125,
          "durationTicks": 192,
          "midi": 67,
          "name": "G4",
          "ticks": 120000,
          "time": 195.3125,
          "velocity": 0.7874015748031497
        },
        {
          "duration": 0.46875,
          "durationTicks": 288,
          "midi": 30,
          "name": "F#1",
          "ticks": 120096,
          "time": 195.46875,
          "velocity": 0.7874015748031497
        },
        {
          "duration": 0.3125,
          "durationTicks": 192,
          "midi": 60,
          "name": "C4",
          "ticks": 120096,
          "time": 195.46875,
          "velocity": 0.7874015748031497
        },
        {
          "duration": 0.46875,
          "durationTicks": 288,
          "midi": 55,
          "name": "G3",
          "ticks": 120096,
          "time": 195.46875,
          "velocity": 0.7874015748031497
        },
        {
          "duration": 0.3125,
          "durationTicks": 192,
          "midi": 65,
          "name": "F4",
          "ticks": 120192,
          "time": 195.625,
          "velocity": 0.7874015748031497
        },
        {
          "duration": 0.3125,
          "durationTicks": 192,
          "midi": 67,
          "name": "G4",
          "ticks": 120288,
          "time": 195.78125,
          "velocity": 0.7874015748031497
        },
        {
          "duration": 0.3125,
          "durationTicks": 192,
          "midi": 60,
          "name": "C4",
          "ticks": 120384,
          "time": 195.9375,
          "velocity": 0.7874015748031497
        },
        {
          "duration": 0.15625,
          "durationTicks": 96,
          "midi": 30,
          "name": "F#1",
          "ticks": 120384,
          "time": 195.9375,
          "velocity": 0.7874015748031497
        },
        {
          "duration": 0.15625,
          "durationTicks": 96,
          "midi": 53,
          "name": "F3",
          "ticks": 120384,
          "time": 195.9375,
          "velocity": 0.7874015748031497
        },
        {
          "duration": 0.15625,
          "durationTicks": 96,
          "midi": 30,
          "name": "F#1",
          "ticks": 120480,
          "time": 196.09375,
          "velocity": 0.5905511811023622
        },
        {
          "duration": 0.3125,
          "durationTicks": 192,
          "midi": 65,
          "name": "F4",
          "ticks": 120480,
          "time": 196.09375,
          "velocity": 0.7874015748031497
        },
        {
          "duration": 0.15625,
          "durationTicks": 96,
          "midi": 53,
          "name": "F3",
          "ticks": 120492,
          "time": 196.11328125,
          "velocity": 0.5905511811023622
        },
        {
          "duration": 0.46875,
          "durationTicks": 288,
          "midi": 30,
          "name": "F#1",
          "ticks": 120576,
          "time": 196.25,
          "velocity": 0.7874015748031497
        },
        {
          "duration": 0.3125,
          "durationTicks": 192,
          "midi": 60,
          "name": "C4",
          "ticks": 120576,
          "time": 196.25,
          "velocity": 0.7874015748031497
        },
        {
          "duration": 0.46875,
          "durationTicks": 288,
          "midi": 55,
          "name": "G3",
          "ticks": 120576,
          "time": 196.25,
          "velocity": 0.7874015748031497
        },
        {
          "duration": 0.3125,
          "durationTicks": 192,
          "midi": 65,
          "name": "F4",
          "ticks": 120672,
          "time": 196.40625,
          "velocity": 0.7874015748031497
        },
        {
          "duration": 0.3125,
          "durationTicks": 192,
          "midi": 67,
          "name": "G4",
          "ticks": 120768,
          "time": 196.5625,
          "velocity": 0.7874015748031497
        },
        {
          "duration": 0.46875,
          "durationTicks": 288,
          "midi": 55,
          "name": "G3",
          "ticks": 120864,
          "time": 196.71875,
          "velocity": 0.7874015748031497
        },
        {
          "duration": 0.3125,
          "durationTicks": 192,
          "midi": 60,
          "name": "C4",
          "ticks": 120864,
          "time": 196.71875,
          "velocity": 0.7874015748031497
        },
        {
          "duration": 0.46875,
          "durationTicks": 288,
          "midi": 30,
          "name": "F#1",
          "ticks": 120864,
          "time": 196.71875,
          "velocity": 0.7874015748031497
        },
        {
          "duration": 0.3125,
          "durationTicks": 192,
          "midi": 65,
          "name": "F4",
          "ticks": 120960,
          "time": 196.875,
          "velocity": 0.7874015748031497
        },
        {
          "duration": 0.3125,
          "durationTicks": 192,
          "midi": 67,
          "name": "G4",
          "ticks": 121056,
          "time": 197.03125,
          "velocity": 0.7874015748031497
        },
        {
          "duration": 0.3125,
          "durationTicks": 192,
          "midi": 60,
          "name": "C4",
          "ticks": 121152,
          "time": 197.1875,
          "velocity": 0.7874015748031497
        },
        {
          "duration": 0.15625,
          "durationTicks": 96,
          "midi": 30,
          "name": "F#1",
          "ticks": 121152,
          "time": 197.1875,
          "velocity": 0.7874015748031497
        },
        {
          "duration": 0.15625,
          "durationTicks": 96,
          "midi": 53,
          "name": "F3",
          "ticks": 121152,
          "time": 197.1875,
          "velocity": 0.7874015748031497
        },
        {
          "duration": 0.15625,
          "durationTicks": 96,
          "midi": 30,
          "name": "F#1",
          "ticks": 121248,
          "time": 197.34375,
          "velocity": 0.5905511811023622
        },
        {
          "duration": 0.3125,
          "durationTicks": 192,
          "midi": 65,
          "name": "F4",
          "ticks": 121248,
          "time": 197.34375,
          "velocity": 0.7874015748031497
        },
        {
          "duration": 0.15625,
          "durationTicks": 96,
          "midi": 53,
          "name": "F3",
          "ticks": 121260,
          "time": 197.36328125,
          "velocity": 0.5905511811023622
        },
        {
          "duration": 0.3125,
          "durationTicks": 192,
          "midi": 60,
          "name": "C4",
          "ticks": 121344,
          "time": 197.5,
          "velocity": 0.7244094488188977
        },
        {
          "duration": 0.46875,
          "durationTicks": 288,
          "midi": 27,
          "name": "D#1",
          "ticks": 121344,
          "time": 197.5,
          "velocity": 0.7244094488188977
        },
        {
          "duration": 0.46875,
          "durationTicks": 288,
          "midi": 58,
          "name": "A#3",
          "ticks": 121344,
          "time": 197.5,
          "velocity": 0.7244094488188977
        },
        {
          "duration": 0.3125,
          "durationTicks": 192,
          "midi": 65,
          "name": "F4",
          "ticks": 121440,
          "time": 197.65625,
          "velocity": 0.7244094488188977
        },
        {
          "duration": 0.3125,
          "durationTicks": 192,
          "midi": 70,
          "name": "A#4",
          "ticks": 121536,
          "time": 197.8125,
          "velocity": 0.7244094488188977
        },
        {
          "duration": 0.46875,
          "durationTicks": 288,
          "midi": 58,
          "name": "A#3",
          "ticks": 121632,
          "time": 197.96875,
          "velocity": 0.6614173228346457
        },
        {
          "duration": 0.3125,
          "durationTicks": 192,
          "midi": 60,
          "name": "C4",
          "ticks": 121632,
          "time": 197.96875,
          "velocity": 0.7244094488188977
        },
        {
          "duration": 0.46875,
          "durationTicks": 288,
          "midi": 27,
          "name": "D#1",
          "ticks": 121632,
          "time": 197.96875,
          "velocity": 0.6614173228346457
        },
        {
          "duration": 0.3125,
          "durationTicks": 192,
          "midi": 65,
          "name": "F4",
          "ticks": 121728,
          "time": 198.125,
          "velocity": 0.6614173228346457
        },
        {
          "duration": 0.3125,
          "durationTicks": 192,
          "midi": 70,
          "name": "A#4",
          "ticks": 121824,
          "time": 198.28125,
          "velocity": 0.6614173228346457
        },
        {
          "duration": 0.15625,
          "durationTicks": 96,
          "midi": 53,
          "name": "F3",
          "ticks": 121920,
          "time": 198.4375,
          "velocity": 0.5984251968503937
        },
        {
          "duration": 0.3125,
          "durationTicks": 192,
          "midi": 27,
          "name": "D#1",
          "ticks": 121920,
          "time": 198.4375,
          "velocity": 0.5984251968503937
        },
        {
          "duration": 0.3125,
          "durationTicks": 192,
          "midi": 60,
          "name": "C4",
          "ticks": 121920,
          "time": 198.4375,
          "velocity": 0.6614173228346457
        },
        {
          "duration": 0.3125,
          "durationTicks": 192,
          "midi": 65,
          "name": "F4",
          "ticks": 122016,
          "time": 198.59375,
          "velocity": 0.6614173228346457
        },
        {
          "duration": 0.15625,
          "durationTicks": 96,
          "midi": 53,
          "name": "F3",
          "ticks": 122028,
          "time": 198.61328125,
          "velocity": 0.5905511811023622
        },
        {
          "duration": 0.3125,
          "durationTicks": 192,
          "midi": 60,
          "name": "C4",
          "ticks": 122112,
          "time": 198.75,
          "velocity": 0.5984251968503937
        },
        {
          "duration": 0.46875,
          "durationTicks": 288,
          "midi": 27,
          "name": "D#1",
          "ticks": 122112,
          "time": 198.75,
          "velocity": 0.5354330708661418
        },
        {
          "duration": 0.46875,
          "durationTicks": 288,
          "midi": 58,
          "name": "A#3",
          "ticks": 122112,
          "time": 198.75,
          "velocity": 0.5354330708661418
        },
        {
          "duration": 0.3125,
          "durationTicks": 192,
          "midi": 65,
          "name": "F4",
          "ticks": 122208,
          "time": 198.90625,
          "velocity": 0.5984251968503937
        },
        {
          "duration": 0.3125,
          "durationTicks": 192,
          "midi": 70,
          "name": "A#4",
          "ticks": 122304,
          "time": 199.0625,
          "velocity": 0.5984251968503937
        },
        {
          "duration": 0.46875,
          "durationTicks": 288,
          "midi": 58,
          "name": "A#3",
          "ticks": 122400,
          "time": 199.21875,
          "velocity": 0.48031496062992124
        },
        {
          "duration": 0.3125,
          "durationTicks": 192,
          "midi": 60,
          "name": "C4",
          "ticks": 122400,
          "time": 199.21875,
          "velocity": 0.5984251968503937
        },
        {
          "duration": 0.15625,
          "durationTicks": 96,
          "midi": 27,
          "name": "D#1",
          "ticks": 122400,
          "time": 199.21875,
          "velocity": 0.48031496062992124
        },
        {
          "duration": 0.3125,
          "durationTicks": 192,
          "midi": 65,
          "name": "F4",
          "ticks": 122496,
          "time": 199.375,
          "velocity": 0.48031496062992124
        },
        {
          "duration": 0.3125,
          "durationTicks": 192,
          "midi": 27,
          "name": "D#1",
          "ticks": 122496,
          "time": 199.375,
          "velocity": 0.5905511811023622
        },
        {
          "duration": 0.3125,
          "durationTicks": 192,
          "midi": 68,
          "name": "G#4",
          "ticks": 122592,
          "time": 199.53125,
          "velocity": 0.48031496062992124
        },
        {
          "duration": 0.15625,
          "durationTicks": 96,
          "midi": 27,
          "name": "D#1",
          "ticks": 122688,
          "time": 199.6875,
          "velocity": 0.4094488188976378
        },
        {
          "duration": 0.15625,
          "durationTicks": 96,
          "midi": 56,
          "name": "G#3",
          "ticks": 122688,
          "time": 199.6875,
          "velocity": 0.4094488188976378
        },
        {
          "duration": 0.3125,
          "durationTicks": 192,
          "midi": 60,
          "name": "C4",
          "ticks": 122688,
          "time": 199.6875,
          "velocity": 0.4094488188976378
        },
        {
          "duration": 0.15625,
          "durationTicks": 96,
          "midi": 27,
          "name": "D#1",
          "ticks": 122784,
          "time": 199.84375,
          "velocity": 0.5905511811023622
        },
        {
          "duration": 0.15625,
          "durationTicks": 96,
          "midi": 67,
          "name": "G4",
          "ticks": 122784,
          "time": 199.84375,
          "velocity": 0.4094488188976378
        },
        {
          "duration": 0.46875,
          "durationTicks": 288,
          "midi": 58,
          "name": "A#3",
          "ticks": 139776,
          "time": 227.5,
          "velocity": 0.7874015748031497
        },
        {
          "duration": 0.3125,
          "durationTicks": 192,
          "midi": 60,
          "name": "C4",
          "ticks": 139776,
          "time": 227.5,
          "velocity": 0.4251968503937008
        },
        {
          "duration": 0.46875,
          "durationTicks": 288,
          "midi": 27,
          "name": "D#1",
          "ticks": 139776,
          "time": 227.5,
          "velocity": 0.7874015748031497
        },
        {
          "duration": 0.3125,
          "durationTicks": 192,
          "midi": 65,
          "name": "F4",
          "ticks": 139872,
          "time": 227.65625,
          "velocity": 0.4251968503937008
        },
        {
          "duration": 0.3125,
          "durationTicks": 192,
          "midi": 70,
          "name": "A#4",
          "ticks": 139968,
          "time": 227.8125,
          "velocity": 0.4645669291338583
        },
        {
          "duration": 0.46875,
          "durationTicks": 288,
          "midi": 27,
          "name": "D#1",
          "ticks": 140064,
          "time": 227.96875,
          "velocity": 0.7874015748031497
        },
        {
          "duration": 0.46875,
          "durationTicks": 288,
          "midi": 58,
          "name": "A#3",
          "ticks": 140064,
          "time": 227.96875,
          "velocity": 0.7874015748031497
        },
        {
          "duration": 0.3125,
          "durationTicks": 192,
          "midi": 60,
          "name": "C4",
          "ticks": 140064,
          "time": 227.96875,
          "velocity": 0.4645669291338583
        },
        {
          "duration": 0.3125,
          "durationTicks": 192,
          "midi": 65,
          "name": "F4",
          "ticks": 140160,
          "time": 228.125,
          "velocity": 0.49606299212598426
        },
        {
          "duration": 0.3125,
          "durationTicks": 192,
          "midi": 70,
          "name": "A#4",
          "ticks": 140256,
          "time": 228.28125,
          "velocity": 0.49606299212598426
        },
        {
          "duration": 0.3125,
          "durationTicks": 192,
          "midi": 60,
          "name": "C4",
          "ticks": 140352,
          "time": 228.4375,
          "velocity": 0.5354330708661418
        },
        {
          "duration": 0.3125,
          "durationTicks": 192,
          "midi": 27,
          "name": "D#1",
          "ticks": 140352,
          "time": 228.4375,
          "velocity": 0.7874015748031497
        },
        {
          "duration": 0.15625,
          "durationTicks": 96,
          "midi": 53,
          "name": "F3",
          "ticks": 140352,
          "time": 228.4375,
          "velocity": 0.7874015748031497
        },
        {
          "duration": 0.3125,
          "durationTicks": 192,
          "midi": 65,
          "name": "F4",
          "ticks": 140448,
          "time": 228.59375,
          "velocity": 0.5354330708661418
        },
        {
          "duration": 0.15625,
          "durationTicks": 96,
          "midi": 53,
          "name": "F3",
          "ticks": 140460,
          "time": 228.61328125,
          "velocity": 0.5905511811023622
        },
        {
          "duration": 0.46875,
          "durationTicks": 288,
          "midi": 27,
          "name": "D#1",
          "ticks": 140544,
          "time": 228.75,
          "velocity": 0.7874015748031497
        },
        {
          "duration": 0.3125,
          "durationTicks": 192,
          "midi": 60,
          "name": "C4",
          "ticks": 140544,
          "time": 228.75,
          "velocity": 0.5905511811023622
        },
        {
          "duration": 0.46875,
          "durationTicks": 288,
          "midi": 58,
          "name": "A#3",
          "ticks": 140544,
          "time": 228.75,
          "velocity": 0.7874015748031497
        },
        {
          "duration": 0.3125,
          "durationTicks": 192,
          "midi": 65,
          "name": "F4",
          "ticks": 140640,
          "time": 228.90625,
          "velocity": 0.5905511811023622
        },
        {
          "duration": 0.3125,
          "durationTicks": 192,
          "midi": 70,
          "name": "A#4",
          "ticks": 140736,
          "time": 229.0625,
          "velocity": 0.6850393700787402
        },
        {
          "duration": 0.46875,
          "durationTicks": 288,
          "midi": 58,
          "name": "A#3",
          "ticks": 140832,
          "time": 229.21875,
          "velocity": 0.7874015748031497
        },
        {
          "duration": 0.15625,
          "durationTicks": 96,
          "midi": 27,
          "name": "D#1",
          "ticks": 140832,
          "time": 229.21875,
          "velocity": 0.7874015748031497
        },
        {
          "duration": 0.3125,
          "durationTicks": 192,
          "midi": 60,
          "name": "C4",
          "ticks": 140832,
          "time": 229.21875,
          "velocity": 0.6850393700787402
        },
        {
          "duration": 0.3125,
          "durationTicks": 192,
          "midi": 27,
          "name": "D#1",
          "ticks": 140928,
          "time": 229.375,
          "velocity": 0.5905511811023622
        },
        {
          "duration": 0.3125,
          "durationTicks": 192,
          "midi": 65,
          "name": "F4",
          "ticks": 140928,
          "time": 229.375,
          "velocity": 0.7322834645669292
        },
        {
          "duration": 0.3125,
          "durationTicks": 192,
          "midi": 68,
          "name": "G#4",
          "ticks": 141024,
          "time": 229.53125,
          "velocity": 0.7322834645669292
        },
        {
          "duration": 0.15625,
          "durationTicks": 96,
          "midi": 27,
          "name": "D#1",
          "ticks": 141120,
          "time": 229.6875,
          "velocity": 0.7874015748031497
        },
        {
          "duration": 0.15625,
          "durationTicks": 96,
          "midi": 56,
          "name": "G#3",
          "ticks": 141120,
          "time": 229.6875,
          "velocity": 0.7874015748031497
        },
        {
          "duration": 0.3125,
          "durationTicks": 192,
          "midi": 60,
          "name": "C4",
          "ticks": 141120,
          "time": 229.6875,
          "velocity": 0.7874015748031497
        },
        {
          "duration": 0.15625,
          "durationTicks": 96,
          "midi": 27,
          "name": "D#1",
          "ticks": 141216,
          "time": 229.84375,
          "velocity": 0.5905511811023622
        },
        {
          "duration": 0.3125,
          "durationTicks": 192,
          "midi": 67,
          "name": "G4",
          "ticks": 141216,
          "time": 229.84375,
          "velocity": 0.7874015748031497
        },
        {
          "duration": 0.15625,
          "durationTicks": 96,
          "midi": 55,
          "name": "G3",
          "ticks": 141252,
          "time": 229.90234375,
          "velocity": 0.7874015748031497
        },
        {
          "duration": 0.3125,
          "durationTicks": 192,
          "midi": 60,
          "name": "C4",
          "ticks": 141312,
          "time": 230,
          "velocity": 0.7874015748031497
        },
        {
          "duration": 0.46875,
          "durationTicks": 288,
          "midi": 55,
          "name": "G3",
          "ticks": 141312,
          "time": 230,
          "velocity": 0.7874015748031497
        },
        {
          "duration": 0.46875,
          "durationTicks": 288,
          "midi": 24,
          "name": "C1",
          "ticks": 141312,
          "time": 230,
          "velocity": 0.7874015748031497
        },
        {
          "duration": 0.3125,
          "durationTicks": 192,
          "midi": 65,
          "name": "F4",
          "ticks": 141408,
          "time": 230.15625,
          "velocity": 0.7874015748031497
        },
        {
          "duration": 0.3125,
          "durationTicks": 192,
          "midi": 67,
          "name": "G4",
          "ticks": 141504,
          "time": 230.3125,
          "velocity": 0.7874015748031497
        },
        {
          "duration": 0.46875,
          "durationTicks": 288,
          "midi": 55,
          "name": "G3",
          "ticks": 141600,
          "time": 230.46875,
          "velocity": 0.7874015748031497
        },
        {
          "duration": 0.3125,
          "durationTicks": 192,
          "midi": 60,
          "name": "C4",
          "ticks": 141600,
          "time": 230.46875,
          "velocity": 0.7874015748031497
        },
        {
          "duration": 0.46875,
          "durationTicks": 288,
          "midi": 24,
          "name": "C1",
          "ticks": 141600,
          "time": 230.46875,
          "velocity": 0.7874015748031497
        },
        {
          "duration": 0.3125,
          "durationTicks": 192,
          "midi": 65,
          "name": "F4",
          "ticks": 141696,
          "time": 230.625,
          "velocity": 0.7874015748031497
        },
        {
          "duration": 0.3125,
          "durationTicks": 192,
          "midi": 67,
          "name": "G4",
          "ticks": 141792,
          "time": 230.78125,
          "velocity": 0.7874015748031497
        },
        {
          "duration": 0.15625,
          "durationTicks": 96,
          "midi": 53,
          "name": "F3",
          "ticks": 141888,
          "time": 230.9375,
          "velocity": 0.7874015748031497
        },
        {
          "duration": 0.15625,
          "durationTicks": 96,
          "midi": 24,
          "name": "C1",
          "ticks": 141888,
          "time": 230.9375,
          "velocity": 0.7874015748031497
        },
        {
          "duration": 0.3125,
          "durationTicks": 192,
          "midi": 60,
          "name": "C4",
          "ticks": 141888,
          "time": 230.9375,
          "velocity": 0.7874015748031497
        },
        {
          "duration": 0.3125,
          "durationTicks": 192,
          "midi": 65,
          "name": "F4",
          "ticks": 141984,
          "time": 231.09375,
          "velocity": 0.7874015748031497
        },
        {
          "duration": 0.15625,
          "durationTicks": 96,
          "midi": 24,
          "name": "C1",
          "ticks": 141984,
          "time": 231.09375,
          "velocity": 0.5905511811023622
        },
        {
          "duration": 0.15625,
          "durationTicks": 96,
          "midi": 53,
          "name": "F3",
          "ticks": 141996,
          "time": 231.11328125,
          "velocity": 0.5905511811023622
        },
        {
          "duration": 0.46875,
          "durationTicks": 288,
          "midi": 55,
          "name": "G3",
          "ticks": 142080,
          "time": 231.25,
          "velocity": 0.7874015748031497
        },
        {
          "duration": 0.3125,
          "durationTicks": 192,
          "midi": 60,
          "name": "C4",
          "ticks": 142080,
          "time": 231.25,
          "velocity": 0.7874015748031497
        },
        {
          "duration": 0.46875,
          "durationTicks": 288,
          "midi": 24,
          "name": "C1",
          "ticks": 142080,
          "time": 231.25,
          "velocity": 0.7874015748031497
        },
        {
          "duration": 0.3125,
          "durationTicks": 192,
          "midi": 65,
          "name": "F4",
          "ticks": 142176,
          "time": 231.40625,
          "velocity": 0.7874015748031497
        },
        {
          "duration": 0.3125,
          "durationTicks": 192,
          "midi": 67,
          "name": "G4",
          "ticks": 142272,
          "time": 231.5625,
          "velocity": 0.7874015748031497
        },
        {
          "duration": 0.3125,
          "durationTicks": 192,
          "midi": 60,
          "name": "C4",
          "ticks": 142368,
          "time": 231.71875,
          "velocity": 0.7874015748031497
        },
        {
          "duration": 0.15625,
          "durationTicks": 96,
          "midi": 24,
          "name": "C1",
          "ticks": 142368,
          "time": 231.71875,
          "velocity": 0.7874015748031497
        },
        {
          "duration": 0.46875,
          "durationTicks": 288,
          "midi": 55,
          "name": "G3",
          "ticks": 142368,
          "time": 231.71875,
          "velocity": 0.7874015748031497
        },
        {
          "duration": 0.3125,
          "durationTicks": 192,
          "midi": 24,
          "name": "C1",
          "ticks": 142464,
          "time": 231.875,
          "velocity": 0.5905511811023622
        },
        {
          "duration": 0.3125,
          "durationTicks": 192,
          "midi": 65,
          "name": "F4",
          "ticks": 142464,
          "time": 231.875,
          "velocity": 0.7874015748031497
        },
        {
          "duration": 0.3125,
          "durationTicks": 192,
          "midi": 67,
          "name": "G4",
          "ticks": 142560,
          "time": 232.03125,
          "velocity": 0.7874015748031497
        },
        {
          "duration": 0.15625,
          "durationTicks": 96,
          "midi": 53,
          "name": "F3",
          "ticks": 142656,
          "time": 232.1875,
          "velocity": 0.7874015748031497
        },
        {
          "duration": 0.3125,
          "durationTicks": 192,
          "midi": 24,
          "name": "C1",
          "ticks": 142656,
          "time": 232.1875,
          "velocity": 0.7874015748031497
        },
        {
          "duration": 0.3125,
          "durationTicks": 192,
          "midi": 60,
          "name": "C4",
          "ticks": 142656,
          "time": 232.1875,
          "velocity": 0.7874015748031497
        },
        {
          "duration": 0.3125,
          "durationTicks": 192,
          "midi": 65,
          "name": "F4",
          "ticks": 142752,
          "time": 232.34375,
          "velocity": 0.7874015748031497
        },
        {
          "duration": 0.15625,
          "durationTicks": 96,
          "midi": 53,
          "name": "F3",
          "ticks": 142764,
          "time": 232.36328125,
          "velocity": 0.5905511811023622
        },
        {
          "duration": 0.3125,
          "durationTicks": 192,
          "midi": 60,
          "name": "C4",
          "ticks": 142848,
          "time": 232.5,
          "velocity": 0.7874015748031497
        },
        {
          "duration": 0.46875,
          "durationTicks": 288,
          "midi": 25,
          "name": "C#1",
          "ticks": 142848,
          "time": 232.5,
          "velocity": 0.7874015748031497
        },
        {
          "duration": 0.46875,
          "durationTicks": 288,
          "midi": 56,
          "name": "G#3",
          "ticks": 142848,
          "time": 232.5,
          "velocity": 0.7874015748031497
        },
        {
          "duration": 0.3125,
          "durationTicks": 192,
          "midi": 65,
          "name": "F4",
          "ticks": 142944,
          "time": 232.65625,
          "velocity": 0.7874015748031497
        },
        {
          "duration": 0.3125,
          "durationTicks": 192,
          "midi": 68,
          "name": "G#4",
          "ticks": 143040,
          "time": 232.8125,
          "velocity": 0.7874015748031497
        },
        {
          "duration": 0.46875,
          "durationTicks": 288,
          "midi": 56,
          "name": "G#3",
          "ticks": 143136,
          "time": 232.96875,
          "velocity": 0.7874015748031497
        },
        {
          "duration": 0.15625,
          "durationTicks": 96,
          "midi": 25,
          "name": "C#1",
          "ticks": 143136,
          "time": 232.96875,
          "velocity": 0.7874015748031497
        },
        {
          "duration": 0.3125,
          "durationTicks": 192,
          "midi": 60,
          "name": "C4",
          "ticks": 143136,
          "time": 232.96875,
          "velocity": 0.7874015748031497
        },
        {
          "duration": 0.3125,
          "durationTicks": 192,
          "midi": 25,
          "name": "C#1",
          "ticks": 143232,
          "time": 233.125,
          "velocity": 0.5905511811023622
        },
        {
          "duration": 0.3125,
          "durationTicks": 192,
          "midi": 65,
          "name": "F4",
          "ticks": 143232,
          "time": 233.125,
          "velocity": 0.7874015748031497
        },
        {
          "duration": 0.3125,
          "durationTicks": 192,
          "midi": 68,
          "name": "G#4",
          "ticks": 143328,
          "time": 233.28125,
          "velocity": 0.7874015748031497
        },
        {
          "duration": 0.3125,
          "durationTicks": 192,
          "midi": 60,
          "name": "C4",
          "ticks": 143424,
          "time": 233.4375,
          "velocity": 0.7874015748031497
        },
        {
          "duration": 0.3125,
          "durationTicks": 192,
          "midi": 25,
          "name": "C#1",
          "ticks": 143424,
          "time": 233.4375,
          "velocity": 0.7874015748031497
        },
        {
          "duration": 0.15625,
          "durationTicks": 96,
          "midi": 53,
          "name": "F3",
          "ticks": 143424,
          "time": 233.4375,
          "velocity": 0.7874015748031497
        },
        {
          "duration": 0.3125,
          "durationTicks": 192,
          "midi": 65,
          "name": "F4",
          "ticks": 143520,
          "time": 233.59375,
          "velocity": 0.7874015748031497
        },
        {
          "duration": 0.15625,
          "durationTicks": 96,
          "midi": 53,
          "name": "F3",
          "ticks": 143532,
          "time": 233.61328125,
          "velocity": 0.5905511811023622
        },
        {
          "duration": 0.3125,
          "durationTicks": 192,
          "midi": 60,
          "name": "C4",
          "ticks": 143616,
          "time": 233.75,
          "velocity": 0.7874015748031497
        },
        {
          "duration": 0.46875,
          "durationTicks": 288,
          "midi": 25,
          "name": "C#1",
          "ticks": 143616,
          "time": 233.75,
          "velocity": 0.7874015748031497
        },
        {
          "duration": 0.46875,
          "durationTicks": 288,
          "midi": 56,
          "name": "G#3",
          "ticks": 143616,
          "time": 233.75,
          "velocity": 0.7874015748031497
        },
        {
          "duration": 0.3125,
          "durationTicks": 192,
          "midi": 65,
          "name": "F4",
          "ticks": 143712,
          "time": 233.90625,
          "velocity": 0.7874015748031497
        },
        {
          "duration": 0.3125,
          "durationTicks": 192,
          "midi": 68,
          "name": "G#4",
          "ticks": 143808,
          "time": 234.0625,
          "velocity": 0.7874015748031497
        },
        {
          "duration": 0.46875,
          "durationTicks": 288,
          "midi": 56,
          "name": "G#3",
          "ticks": 143904,
          "time": 234.21875,
          "velocity": 0.7874015748031497
        },
        {
          "duration": 0.3125,
          "durationTicks": 192,
          "midi": 60,
          "name": "C4",
          "ticks": 143904,
          "time": 234.21875,
          "velocity": 0.7874015748031497
        },
        {
          "duration": 0.46875,
          "durationTicks": 288,
          "midi": 25,
          "name": "C#1",
          "ticks": 143904,
          "time": 234.21875,
          "velocity": 0.7874015748031497
        },
        {
          "duration": 0.3125,
          "durationTicks": 192,
          "midi": 65,
          "name": "F4",
          "ticks": 144000,
          "time": 234.375,
          "velocity": 0.7874015748031497
        },
        {
          "duration": 0.3125,
          "durationTicks": 192,
          "midi": 68,
          "name": "G#4",
          "ticks": 144096,
          "time": 234.53125,
          "velocity": 0.7874015748031497
        },
        {
          "duration": 0.15625,
          "durationTicks": 96,
          "midi": 25,
          "name": "C#1",
          "ticks": 144192,
          "time": 234.6875,
          "velocity": 0.7874015748031497
        },
        {
          "duration": 0.3125,
          "durationTicks": 192,
          "midi": 60,
          "name": "C4",
          "ticks": 144192,
          "time": 234.6875,
          "velocity": 0.7874015748031497
        },
        {
          "duration": 0.15625,
          "durationTicks": 96,
          "midi": 53,
          "name": "F3",
          "ticks": 144192,
          "time": 234.6875,
          "velocity": 0.7874015748031497
        },
        {
          "duration": 0.3125,
          "durationTicks": 192,
          "midi": 65,
          "name": "F4",
          "ticks": 144288,
          "time": 234.84375,
          "velocity": 0.7874015748031497
        },
        {
          "duration": 0.15625,
          "durationTicks": 96,
          "midi": 25,
          "name": "C#1",
          "ticks": 144288,
          "time": 234.84375,
          "velocity": 0.5905511811023622
        },
        {
          "duration": 0.15625,
          "durationTicks": 96,
          "midi": 53,
          "name": "F3",
          "ticks": 144300,
          "time": 234.86328125,
          "velocity": 0.5905511811023622
        },
        {
          "duration": 0.3125,
          "durationTicks": 192,
          "midi": 60,
          "name": "C4",
          "ticks": 144384,
          "time": 235,
          "velocity": 0.7874015748031497
        },
        {
          "duration": 0.46875,
          "durationTicks": 288,
          "midi": 27,
          "name": "D#1",
          "ticks": 144384,
          "time": 235,
          "velocity": 0.7874015748031497
        },
        {
          "duration": 0.46875,
          "durationTicks": 288,
          "midi": 55,
          "name": "G3",
          "ticks": 144384,
          "time": 235,
          "velocity": 0.7874015748031497
        },
        {
          "duration": 0.3125,
          "durationTicks": 192,
          "midi": 65,
          "name": "F4",
          "ticks": 144480,
          "time": 235.15625,
          "velocity": 0.7874015748031497
        },
        {
          "duration": 0.3125,
          "durationTicks": 192,
          "midi": 67,
          "name": "G4",
          "ticks": 144576,
          "time": 235.3125,
          "velocity": 0.7874015748031497
        },
        {
          "duration": 0.46875,
          "durationTicks": 288,
          "midi": 27,
          "name": "D#1",
          "ticks": 144672,
          "time": 235.46875,
          "velocity": 0.7874015748031497
        },
        {
          "duration": 0.46875,
          "durationTicks": 288,
          "midi": 55,
          "name": "G3",
          "ticks": 144672,
          "time": 235.46875,
          "velocity": 0.7874015748031497
        },
        {
          "duration": 0.3125,
          "durationTicks": 192,
          "midi": 60,
          "name": "C4",
          "ticks": 144672,
          "time": 235.46875,
          "velocity": 0.7874015748031497
        },
        {
          "duration": 0.3125,
          "durationTicks": 192,
          "midi": 65,
          "name": "F4",
          "ticks": 144768,
          "time": 235.625,
          "velocity": 0.7874015748031497
        },
        {
          "duration": 0.3125,
          "durationTicks": 192,
          "midi": 67,
          "name": "G4",
          "ticks": 144864,
          "time": 235.78125,
          "velocity": 0.7874015748031497
        },
        {
          "duration": 0.3125,
          "durationTicks": 192,
          "midi": 27,
          "name": "D#1",
          "ticks": 144960,
          "time": 235.9375,
          "velocity": 0.7874015748031497
        },
        {
          "duration": 0.3125,
          "durationTicks": 192,
          "midi": 60,
          "name": "C4",
          "ticks": 144960,
          "time": 235.9375,
          "velocity": 0.7874015748031497
        },
        {
          "duration": 0.15625,
          "durationTicks": 96,
          "midi": 53,
          "name": "F3",
          "ticks": 144960,
          "time": 235.9375,
          "velocity": 0.7874015748031497
        },
        {
          "duration": 0.3125,
          "durationTicks": 192,
          "midi": 65,
          "name": "F4",
          "ticks": 145056,
          "time": 236.09375,
          "velocity": 0.7874015748031497
        },
        {
          "duration": 0.15625,
          "durationTicks": 96,
          "midi": 53,
          "name": "F3",
          "ticks": 145068,
          "time": 236.11328125,
          "velocity": 0.5905511811023622
        },
        {
          "duration": 0.46875,
          "durationTicks": 288,
          "midi": 55,
          "name": "G3",
          "ticks": 145152,
          "time": 236.25,
          "velocity": 0.7874015748031497
        },
        {
          "duration": 0.46875,
          "durationTicks": 288,
          "midi": 27,
          "name": "D#1",
          "ticks": 145152,
          "time": 236.25,
          "velocity": 0.7874015748031497
        },
        {
          "duration": 0.3125,
          "durationTicks": 192,
          "midi": 60,
          "name": "C4",
          "ticks": 145152,
          "time": 236.25,
          "velocity": 0.7874015748031497
        },
        {
          "duration": 0.3125,
          "durationTicks": 192,
          "midi": 65,
          "name": "F4",
          "ticks": 145248,
          "time": 236.40625,
          "velocity": 0.7874015748031497
        },
        {
          "duration": 0.3125,
          "durationTicks": 192,
          "midi": 67,
          "name": "G4",
          "ticks": 145344,
          "time": 236.5625,
          "velocity": 0.7874015748031497
        },
        {
          "duration": 0.3125,
          "durationTicks": 192,
          "midi": 60,
          "name": "C4",
          "ticks": 145440,
          "time": 236.71875,
          "velocity": 0.7874015748031497
        },
        {
          "duration": 0.46875,
          "durationTicks": 288,
          "midi": 55,
          "name": "G3",
          "ticks": 145440,
          "time": 236.71875,
          "velocity": 0.7874015748031497
        },
        {
          "duration": 0.15625,
          "durationTicks": 96,
          "midi": 27,
          "name": "D#1",
          "ticks": 145440,
          "time": 236.71875,
          "velocity": 0.7874015748031497
        },
        {
          "duration": 0.3125,
          "durationTicks": 192,
          "midi": 27,
          "name": "D#1",
          "ticks": 145536,
          "time": 236.875,
          "velocity": 0.5905511811023622
        },
        {
          "duration": 0.3125,
          "durationTicks": 192,
          "midi": 65,
          "name": "F4",
          "ticks": 145536,
          "time": 236.875,
          "velocity": 0.7874015748031497
        },
        {
          "duration": 0.3125,
          "durationTicks": 192,
          "midi": 67,
          "name": "G4",
          "ticks": 145632,
          "time": 237.03125,
          "velocity": 0.7874015748031497
        },
        {
          "duration": 0.15625,
          "durationTicks": 96,
          "midi": 27,
          "name": "D#1",
          "ticks": 145728,
          "time": 237.1875,
          "velocity": 0.7874015748031497
        },
        {
          "duration": 0.15625,
          "durationTicks": 96,
          "midi": 53,
          "name": "F3",
          "ticks": 145728,
          "time": 237.1875,
          "velocity": 0.7874015748031497
        },
        {
          "duration": 0.3125,
          "durationTicks": 192,
          "midi": 60,
          "name": "C4",
          "ticks": 145728,
          "time": 237.1875,
          "velocity": 0.7874015748031497
        },
        {
          "duration": 0.3125,
          "durationTicks": 192,
          "midi": 65,
          "name": "F4",
          "ticks": 145824,
          "time": 237.34375,
          "velocity": 0.7874015748031497
        },
        {
          "duration": 0.15625,
          "durationTicks": 96,
          "midi": 27,
          "name": "D#1",
          "ticks": 145824,
          "time": 237.34375,
          "velocity": 0.5905511811023622
        },
        {
          "duration": 0.15625,
          "durationTicks": 96,
          "midi": 53,
          "name": "F3",
          "ticks": 145836,
          "time": 237.36328125,
          "velocity": 0.5905511811023622
        },
        {
          "duration": 0.46875,
          "durationTicks": 288,
          "midi": 58,
          "name": "A#3",
          "ticks": 145920,
          "time": 237.5,
          "velocity": 0.7874015748031497
        },
        {
          "duration": 0.3125,
          "durationTicks": 192,
          "midi": 60,
          "name": "C4",
          "ticks": 145920,
          "time": 237.5,
          "velocity": 0.7874015748031497
        },
        {
          "duration": 0.46875,
          "durationTicks": 288,
          "midi": 29,
          "name": "F1",
          "ticks": 145920,
          "time": 237.5,
          "velocity": 0.7874015748031497
        },
        {
          "duration": 0.3125,
          "durationTicks": 192,
          "midi": 65,
          "name": "F4",
          "ticks": 146016,
          "time": 237.65625,
          "velocity": 0.7874015748031497
        },
        {
          "duration": 0.3125,
          "durationTicks": 192,
          "midi": 70,
          "name": "A#4",
          "ticks": 146112,
          "time": 237.8125,
          "velocity": 0.7874015748031497
        },
        {
          "duration": 0.3125,
          "durationTicks": 192,
          "midi": 60,
          "name": "C4",
          "ticks": 146208,
          "time": 237.96875,
          "velocity": 0.7874015748031497
        },
        {
          "duration": 0.46875,
          "durationTicks": 288,
          "midi": 29,
          "name": "F1",
          "ticks": 146208,
          "time": 237.96875,
          "velocity": 0.7874015748031497
        },
        {
          "duration": 0.46875,
          "durationTicks": 288,
          "midi": 58,
          "name": "A#3",
          "ticks": 146208,
          "time": 237.96875,
          "velocity": 0.7874015748031497
        },
        {
          "duration": 0.3125,
          "durationTicks": 192,
          "midi": 65,
          "name": "F4",
          "ticks": 146304,
          "time": 238.125,
          "velocity": 0.7874015748031497
        },
        {
          "duration": 0.3125,
          "durationTicks": 192,
          "midi": 70,
          "name": "A#4",
          "ticks": 146400,
          "time": 238.28125,
          "velocity": 0.7874015748031497
        },
        {
          "duration": 0.3125,
          "durationTicks": 192,
          "midi": 60,
          "name": "C4",
          "ticks": 146496,
          "time": 238.4375,
          "velocity": 0.7874015748031497
        },
        {
          "duration": 0.15625,
          "durationTicks": 96,
          "midi": 53,
          "name": "F3",
          "ticks": 146496,
          "time": 238.4375,
          "velocity": 0.7874015748031497
        },
        {
          "duration": 0.15625,
          "durationTicks": 96,
          "midi": 29,
          "name": "F1",
          "ticks": 146496,
          "time": 238.4375,
          "velocity": 0.7874015748031497
        },
        {
          "duration": 0.3125,
          "durationTicks": 192,
          "midi": 65,
          "name": "F4",
          "ticks": 146592,
          "time": 238.59375,
          "velocity": 0.7874015748031497
        },
        {
          "duration": 0.15625,
          "durationTicks": 96,
          "midi": 29,
          "name": "F1",
          "ticks": 146592,
          "time": 238.59375,
          "velocity": 0.5905511811023622
        },
        {
          "duration": 0.15625,
          "durationTicks": 96,
          "midi": 53,
          "name": "F3",
          "ticks": 146604,
          "time": 238.61328125,
          "velocity": 0.5905511811023622
        },
        {
          "duration": 0.3125,
          "durationTicks": 192,
          "midi": 60,
          "name": "C4",
          "ticks": 146688,
          "time": 238.75,
          "velocity": 0.7874015748031497
        },
        {
          "duration": 0.46875,
          "durationTicks": 288,
          "midi": 58,
          "name": "A#3",
          "ticks": 146688,
          "time": 238.75,
          "velocity": 0.7874015748031497
        },
        {
          "duration": 0.46875,
          "durationTicks": 288,
          "midi": 29,
          "name": "F1",
          "ticks": 146688,
          "time": 238.75,
          "velocity": 0.7874015748031497
        },
        {
          "duration": 0.3125,
          "durationTicks": 192,
          "midi": 65,
          "name": "F4",
          "ticks": 146784,
          "time": 238.90625,
          "velocity": 0.7874015748031497
        },
        {
          "duration": 0.3125,
          "durationTicks": 192,
          "midi": 70,
          "name": "A#4",
          "ticks": 146880,
          "time": 239.0625,
          "velocity": 0.7874015748031497
        },
        {
          "duration": 0.3125,
          "durationTicks": 192,
          "midi": 60,
          "name": "C4",
          "ticks": 146976,
          "time": 239.21875,
          "velocity": 0.7874015748031497
        },
        {
          "duration": 0.46875,
          "durationTicks": 288,
          "midi": 29,
          "name": "F1",
          "ticks": 146976,
          "time": 239.21875,
          "velocity": 0.7874015748031497
        },
        {
          "duration": 0.46875,
          "durationTicks": 288,
          "midi": 58,
          "name": "A#3",
          "ticks": 146976,
          "time": 239.21875,
          "velocity": 0.7874015748031497
        },
        {
          "duration": 0.3125,
          "durationTicks": 192,
          "midi": 65,
          "name": "F4",
          "ticks": 147072,
          "time": 239.375,
          "velocity": 0.7874015748031497
        },
        {
          "duration": 0.3125,
          "durationTicks": 192,
          "midi": 68,
          "name": "G#4",
          "ticks": 147168,
          "time": 239.53125,
          "velocity": 0.7874015748031497
        },
        {
          "duration": 0.15625,
          "durationTicks": 96,
          "midi": 56,
          "name": "G#3",
          "ticks": 147264,
          "time": 239.6875,
          "velocity": 0.7874015748031497
        },
        {
          "duration": 0.3125,
          "durationTicks": 192,
          "midi": 60,
          "name": "C4",
          "ticks": 147264,
          "time": 239.6875,
          "velocity": 0.7874015748031497
        },
        {
          "duration": 0.15625,
          "durationTicks": 96,
          "midi": 29,
          "name": "F1",
          "ticks": 147264,
          "time": 239.6875,
          "velocity": 0.7874015748031497
        },
        {
          "duration": 0.3125,
          "durationTicks": 192,
          "midi": 67,
          "name": "G4",
          "ticks": 147360,
          "time": 239.84375,
          "velocity": 0.7874015748031497
        },
        {
          "duration": 0.15625,
          "durationTicks": 96,
          "midi": 29,
          "name": "F1",
          "ticks": 147360,
          "time": 239.84375,
          "velocity": 0.5905511811023622
        },
        {
          "duration": 0.15625,
          "durationTicks": 96,
          "midi": 55,
          "name": "G3",
          "ticks": 147396,
          "time": 239.90234375,
          "velocity": 0.7874015748031497
        },
        {
          "duration": 0.46875,
          "durationTicks": 288,
          "midi": 55,
          "name": "G3",
          "ticks": 147456,
          "time": 240,
          "velocity": 0.7874015748031497
        },
        {
          "duration": 0.3125,
          "durationTicks": 192,
          "midi": 60,
          "name": "C4",
          "ticks": 147456,
          "time": 240,
          "velocity": 0.7874015748031497
        },
        {
          "duration": 0.46875,
          "durationTicks": 288,
          "midi": 24,
          "name": "C1",
          "ticks": 147456,
          "time": 240,
          "velocity": 0.7874015748031497
        },
        {
          "duration": 0.3125,
          "durationTicks": 192,
          "midi": 65,
          "name": "F4",
          "ticks": 147552,
          "time": 240.15625,
          "velocity": 0.7874015748031497
        },
        {
          "duration": 0.3125,
          "durationTicks": 192,
          "midi": 67,
          "name": "G4",
          "ticks": 147648,
          "time": 240.3125,
          "velocity": 0.7874015748031497
        },
        {
          "duration": 0.46875,
          "durationTicks": 288,
          "midi": 24,
          "name": "C1",
          "ticks": 147744,
          "time": 240.46875,
          "velocity": 0.7874015748031497
        },
        {
          "duration": 0.46875,
          "durationTicks": 288,
          "midi": 55,
          "name": "G3",
          "ticks": 147744,
          "time": 240.46875,
          "velocity": 0.7874015748031497
        },
        {
          "duration": 0.3125,
          "durationTicks": 192,
          "midi": 60,
          "name": "C4",
          "ticks": 147744,
          "time": 240.46875,
          "velocity": 0.7874015748031497
        },
        {
          "duration": 0.3125,
          "durationTicks": 192,
          "midi": 65,
          "name": "F4",
          "ticks": 147840,
          "time": 240.625,
          "velocity": 0.7874015748031497
        },
        {
          "duration": 0.3125,
          "durationTicks": 192,
          "midi": 67,
          "name": "G4",
          "ticks": 147936,
          "time": 240.78125,
          "velocity": 0.7874015748031497
        },
        {
          "duration": 0.15625,
          "durationTicks": 96,
          "midi": 24,
          "name": "C1",
          "ticks": 148032,
          "time": 240.9375,
          "velocity": 0.7874015748031497
        },
        {
          "duration": 0.3125,
          "durationTicks": 192,
          "midi": 60,
          "name": "C4",
          "ticks": 148032,
          "time": 240.9375,
          "velocity": 0.7874015748031497
        },
        {
          "duration": 0.15625,
          "durationTicks": 96,
          "midi": 53,
          "name": "F3",
          "ticks": 148032,
          "time": 240.9375,
          "velocity": 0.7874015748031497
        },
        {
          "duration": 0.15625,
          "durationTicks": 96,
          "midi": 24,
          "name": "C1",
          "ticks": 148128,
          "time": 241.09375,
          "velocity": 0.5905511811023622
        },
        {
          "duration": 0.3125,
          "durationTicks": 192,
          "midi": 65,
          "name": "F4",
          "ticks": 148128,
          "time": 241.09375,
          "velocity": 0.7874015748031497
        },
        {
          "duration": 0.15625,
          "durationTicks": 96,
          "midi": 53,
          "name": "F3",
          "ticks": 148140,
          "time": 241.11328125,
          "velocity": 0.5905511811023622
        },
        {
          "duration": 0.46875,
          "durationTicks": 288,
          "midi": 55,
          "name": "G3",
          "ticks": 148224,
          "time": 241.25,
          "velocity": 0.7874015748031497
        },
        {
          "duration": 0.3125,
          "durationTicks": 192,
          "midi": 60,
          "name": "C4",
          "ticks": 148224,
          "time": 241.25,
          "velocity": 0.7874015748031497
        },
        {
          "duration": 0.46875,
          "durationTicks": 288,
          "midi": 24,
          "name": "C1",
          "ticks": 148224,
          "time": 241.25,
          "velocity": 0.7874015748031497
        },
        {
          "duration": 0.3125,
          "durationTicks": 192,
          "midi": 65,
          "name": "F4",
          "ticks": 148320,
          "time": 241.40625,
          "velocity": 0.7874015748031497
        },
        {
          "duration": 0.3125,
          "durationTicks": 192,
          "midi": 67,
          "name": "G4",
          "ticks": 148416,
          "time": 241.5625,
          "velocity": 0.7874015748031497
        },
        {
          "duration": 0.15625,
          "durationTicks": 96,
          "midi": 24,
          "name": "C1",
          "ticks": 148512,
          "time": 241.71875,
          "velocity": 0.7874015748031497
        },
        {
          "duration": 0.3125,
          "durationTicks": 192,
          "midi": 60,
          "name": "C4",
          "ticks": 148512,
          "time": 241.71875,
          "velocity": 0.7874015748031497
        },
        {
          "duration": 0.46875,
          "durationTicks": 288,
          "midi": 55,
          "name": "G3",
          "ticks": 148512,
          "time": 241.71875,
          "velocity": 0.7874015748031497
        },
        {
          "duration": 0.3125,
          "durationTicks": 192,
          "midi": 65,
          "name": "F4",
          "ticks": 148608,
          "time": 241.875,
          "velocity": 0.7874015748031497
        },
        {
          "duration": 0.3125,
          "durationTicks": 192,
          "midi": 24,
          "name": "C1",
          "ticks": 148608,
          "time": 241.875,
          "velocity": 0.5905511811023622
        },
        {
          "duration": 0.3125,
          "durationTicks": 192,
          "midi": 67,
          "name": "G4",
          "ticks": 148704,
          "time": 242.03125,
          "velocity": 0.7874015748031497
        },
        {
          "duration": 0.15625,
          "durationTicks": 96,
          "midi": 53,
          "name": "F3",
          "ticks": 148800,
          "time": 242.1875,
          "velocity": 0.7874015748031497
        },
        {
          "duration": 0.3125,
          "durationTicks": 192,
          "midi": 24,
          "name": "C1",
          "ticks": 148800,
          "time": 242.1875,
          "velocity": 0.7874015748031497
        },
        {
          "duration": 0.3125,
          "durationTicks": 192,
          "midi": 60,
          "name": "C4",
          "ticks": 148800,
          "time": 242.1875,
          "velocity": 0.7874015748031497
        },
        {
          "duration": 0.3125,
          "durationTicks": 192,
          "midi": 65,
          "name": "F4",
          "ticks": 148896,
          "time": 242.34375,
          "velocity": 0.7874015748031497
        },
        {
          "duration": 0.15625,
          "durationTicks": 96,
          "midi": 53,
          "name": "F3",
          "ticks": 148908,
          "time": 242.36328125,
          "velocity": 0.5905511811023622
        },
        {
          "duration": 0.3125,
          "durationTicks": 192,
          "midi": 60,
          "name": "C4",
          "ticks": 148992,
          "time": 242.5,
          "velocity": 0.7874015748031497
        },
        {
          "duration": 0.46875,
          "durationTicks": 288,
          "midi": 25,
          "name": "C#1",
          "ticks": 148992,
          "time": 242.5,
          "velocity": 0.7874015748031497
        },
        {
          "duration": 0.46875,
          "durationTicks": 288,
          "midi": 56,
          "name": "G#3",
          "ticks": 148992,
          "time": 242.5,
          "velocity": 0.7874015748031497
        },
        {
          "duration": 0.3125,
          "durationTicks": 192,
          "midi": 65,
          "name": "F4",
          "ticks": 149088,
          "time": 242.65625,
          "velocity": 0.7874015748031497
        },
        {
          "duration": 0.3125,
          "durationTicks": 192,
          "midi": 68,
          "name": "G#4",
          "ticks": 149184,
          "time": 242.8125,
          "velocity": 0.7874015748031497
        },
        {
          "duration": 0.46875,
          "durationTicks": 288,
          "midi": 56,
          "name": "G#3",
          "ticks": 149280,
          "time": 242.96875,
          "velocity": 0.7874015748031497
        },
        {
          "duration": 0.3125,
          "durationTicks": 192,
          "midi": 60,
          "name": "C4",
          "ticks": 149280,
          "time": 242.96875,
          "velocity": 0.7874015748031497
        },
        {
          "duration": 0.15625,
          "durationTicks": 96,
          "midi": 25,
          "name": "C#1",
          "ticks": 149280,
          "time": 242.96875,
          "velocity": 0.7874015748031497
        },
        {
          "duration": 0.3125,
          "durationTicks": 192,
          "midi": 25,
          "name": "C#1",
          "ticks": 149376,
          "time": 243.125,
          "velocity": 0.5905511811023622
        },
        {
          "duration": 0.3125,
          "durationTicks": 192,
          "midi": 65,
          "name": "F4",
          "ticks": 149376,
          "time": 243.125,
          "velocity": 0.7874015748031497
        },
        {
          "duration": 0.3125,
          "durationTicks": 192,
          "midi": 68,
          "name": "G#4",
          "ticks": 149472,
          "time": 243.28125,
          "velocity": 0.7874015748031497
        },
        {
          "duration": 0.3125,
          "durationTicks": 192,
          "midi": 60,
          "name": "C4",
          "ticks": 149568,
          "time": 243.4375,
          "velocity": 0.7874015748031497
        },
        {
          "duration": 0.15625,
          "durationTicks": 96,
          "midi": 53,
          "name": "F3",
          "ticks": 149568,
          "time": 243.4375,
          "velocity": 0.7874015748031497
        },
        {
          "duration": 0.3125,
          "durationTicks": 192,
          "midi": 25,
          "name": "C#1",
          "ticks": 149568,
          "time": 243.4375,
          "velocity": 0.7874015748031497
        },
        {
          "duration": 0.3125,
          "durationTicks": 192,
          "midi": 65,
          "name": "F4",
          "ticks": 149664,
          "time": 243.59375,
          "velocity": 0.7874015748031497
        },
        {
          "duration": 0.15625,
          "durationTicks": 96,
          "midi": 53,
          "name": "F3",
          "ticks": 149676,
          "time": 243.61328125,
          "velocity": 0.5905511811023622
        },
        {
          "duration": 0.46875,
          "durationTicks": 288,
          "midi": 25,
          "name": "C#1",
          "ticks": 149760,
          "time": 243.75,
          "velocity": 0.7874015748031497
        },
        {
          "duration": 0.46875,
          "durationTicks": 288,
          "midi": 56,
          "name": "G#3",
          "ticks": 149760,
          "time": 243.75,
          "velocity": 0.7874015748031497
        },
        {
          "duration": 0.3125,
          "durationTicks": 192,
          "midi": 60,
          "name": "C4",
          "ticks": 149760,
          "time": 243.75,
          "velocity": 0.7874015748031497
        },
        {
          "duration": 0.3125,
          "durationTicks": 192,
          "midi": 65,
          "name": "F4",
          "ticks": 149856,
          "time": 243.90625,
          "velocity": 0.7874015748031497
        },
        {
          "duration": 0.3125,
          "durationTicks": 192,
          "midi": 68,
          "name": "G#4",
          "ticks": 149952,
          "time": 244.0625,
          "velocity": 0.7874015748031497
        },
        {
          "duration": 0.3125,
          "durationTicks": 192,
          "midi": 60,
          "name": "C4",
          "ticks": 150048,
          "time": 244.21875,
          "velocity": 0.7874015748031497
        },
        {
          "duration": 0.46875,
          "durationTicks": 288,
          "midi": 25,
          "name": "C#1",
          "ticks": 150048,
          "time": 244.21875,
          "velocity": 0.7874015748031497
        },
        {
          "duration": 0.46875,
          "durationTicks": 288,
          "midi": 56,
          "name": "G#3",
          "ticks": 150048,
          "time": 244.21875,
          "velocity": 0.7874015748031497
        },
        {
          "duration": 0.3125,
          "durationTicks": 192,
          "midi": 65,
          "name": "F4",
          "ticks": 150144,
          "time": 244.375,
          "velocity": 0.7874015748031497
        },
        {
          "duration": 0.3125,
          "durationTicks": 192,
          "midi": 68,
          "name": "G#4",
          "ticks": 150240,
          "time": 244.53125,
          "velocity": 0.7874015748031497
        },
        {
          "duration": 0.15625,
          "durationTicks": 96,
          "midi": 25,
          "name": "C#1",
          "ticks": 150336,
          "time": 244.6875,
          "velocity": 0.7874015748031497
        },
        {
          "duration": 0.3125,
          "durationTicks": 192,
          "midi": 60,
          "name": "C4",
          "ticks": 150336,
          "time": 244.6875,
          "velocity": 0.7874015748031497
        },
        {
          "duration": 0.15625,
          "durationTicks": 96,
          "midi": 53,
          "name": "F3",
          "ticks": 150336,
          "time": 244.6875,
          "velocity": 0.7874015748031497
        },
        {
          "duration": 0.15625,
          "durationTicks": 96,
          "midi": 25,
          "name": "C#1",
          "ticks": 150432,
          "time": 244.84375,
          "velocity": 0.5905511811023622
        },
        {
          "duration": 0.3125,
          "durationTicks": 192,
          "midi": 65,
          "name": "F4",
          "ticks": 150432,
          "time": 244.84375,
          "velocity": 0.7874015748031497
        },
        {
          "duration": 0.15625,
          "durationTicks": 96,
          "midi": 53,
          "name": "F3",
          "ticks": 150444,
          "time": 244.86328125,
          "velocity": 0.5905511811023622
        },
        {
          "duration": 0.3125,
          "durationTicks": 192,
          "midi": 60,
          "name": "C4",
          "ticks": 150528,
          "time": 245,
          "velocity": 0.7874015748031497
        },
        {
          "duration": 0.46875,
          "durationTicks": 288,
          "midi": 55,
          "name": "G3",
          "ticks": 150528,
          "time": 245,
          "velocity": 0.7874015748031497
        },
        {
          "duration": 0.46875,
          "durationTicks": 288,
          "midi": 27,
          "name": "D#1",
          "ticks": 150528,
          "time": 245,
          "velocity": 0.7874015748031497
        },
        {
          "duration": 0.3125,
          "durationTicks": 192,
          "midi": 65,
          "name": "F4",
          "ticks": 150624,
          "time": 245.15625,
          "velocity": 0.7874015748031497
        },
        {
          "duration": 0.3125,
          "durationTicks": 192,
          "midi": 67,
          "name": "G4",
          "ticks": 150720,
          "time": 245.3125,
          "velocity": 0.7874015748031497
        },
        {
          "duration": 0.46875,
          "durationTicks": 288,
          "midi": 27,
          "name": "D#1",
          "ticks": 150816,
          "time": 245.46875,
          "velocity": 0.7874015748031497
        },
        {
          "duration": 0.46875,
          "durationTicks": 288,
          "midi": 55,
          "name": "G3",
          "ticks": 150816,
          "time": 245.46875,
          "velocity": 0.7874015748031497
        },
        {
          "duration": 0.3125,
          "durationTicks": 192,
          "midi": 60,
          "name": "C4",
          "ticks": 150816,
          "time": 245.46875,
          "velocity": 0.7874015748031497
        },
        {
          "duration": 0.3125,
          "durationTicks": 192,
          "midi": 65,
          "name": "F4",
          "ticks": 150912,
          "time": 245.625,
          "velocity": 0.7874015748031497
        },
        {
          "duration": 0.3125,
          "durationTicks": 192,
          "midi": 67,
          "name": "G4",
          "ticks": 151008,
          "time": 245.78125,
          "velocity": 0.7874015748031497
        },
        {
          "duration": 0.15625,
          "durationTicks": 96,
          "midi": 53,
          "name": "F3",
          "ticks": 151104,
          "time": 245.9375,
          "velocity": 0.7874015748031497
        },
        {
          "duration": 0.3125,
          "durationTicks": 192,
          "midi": 27,
          "name": "D#1",
          "ticks": 151104,
          "time": 245.9375,
          "velocity": 0.7874015748031497
        },
        {
          "duration": 0.3125,
          "durationTicks": 192,
          "midi": 60,
          "name": "C4",
          "ticks": 151104,
          "time": 245.9375,
          "velocity": 0.7874015748031497
        },
        {
          "duration": 0.3125,
          "durationTicks": 192,
          "midi": 65,
          "name": "F4",
          "ticks": 151200,
          "time": 246.09375,
          "velocity": 0.7874015748031497
        },
        {
          "duration": 0.15625,
          "durationTicks": 96,
          "midi": 53,
          "name": "F3",
          "ticks": 151212,
          "time": 246.11328125,
          "velocity": 0.5905511811023622
        },
        {
          "duration": 0.3125,
          "durationTicks": 192,
          "midi": 60,
          "name": "C4",
          "ticks": 151296,
          "time": 246.25,
          "velocity": 0.7874015748031497
        },
        {
          "duration": 0.46875,
          "durationTicks": 288,
          "midi": 55,
          "name": "G3",
          "ticks": 151296,
          "time": 246.25,
          "velocity": 0.7874015748031497
        },
        {
          "duration": 0.46875,
          "durationTicks": 288,
          "midi": 27,
          "name": "D#1",
          "ticks": 151296,
          "time": 246.25,
          "velocity": 0.7874015748031497
        },
        {
          "duration": 0.3125,
          "durationTicks": 192,
          "midi": 65,
          "name": "F4",
          "ticks": 151392,
          "time": 246.40625,
          "velocity": 0.7874015748031497
        },
        {
          "duration": 0.3125,
          "durationTicks": 192,
          "midi": 67,
          "name": "G4",
          "ticks": 151488,
          "time": 246.5625,
          "velocity": 0.7874015748031497
        },
        {
          "duration": 0.3125,
          "durationTicks": 192,
          "midi": 60,
          "name": "C4",
          "ticks": 151584,
          "time": 246.71875,
          "velocity": 0.7874015748031497
        },
        {
          "duration": 0.46875,
          "durationTicks": 288,
          "midi": 55,
          "name": "G3",
          "ticks": 151584,
          "time": 246.71875,
          "velocity": 0.7874015748031497
        },
        {
          "duration": 0.15625,
          "durationTicks": 96,
          "midi": 27,
          "name": "D#1",
          "ticks": 151584,
          "time": 246.71875,
          "velocity": 0.7874015748031497
        },
        {
          "duration": 0.3125,
          "durationTicks": 192,
          "midi": 27,
          "name": "D#1",
          "ticks": 151680,
          "time": 246.875,
          "velocity": 0.5905511811023622
        },
        {
          "duration": 0.3125,
          "durationTicks": 192,
          "midi": 65,
          "name": "F4",
          "ticks": 151680,
          "time": 246.875,
          "velocity": 0.7874015748031497
        },
        {
          "duration": 0.3125,
          "durationTicks": 192,
          "midi": 67,
          "name": "G4",
          "ticks": 151776,
          "time": 247.03125,
          "velocity": 0.7874015748031497
        },
        {
          "duration": 0.15625,
          "durationTicks": 96,
          "midi": 53,
          "name": "F3",
          "ticks": 151872,
          "time": 247.1875,
          "velocity": 0.7874015748031497
        },
        {
          "duration": 0.3125,
          "durationTicks": 192,
          "midi": 60,
          "name": "C4",
          "ticks": 151872,
          "time": 247.1875,
          "velocity": 0.7874015748031497
        },
        {
          "duration": 0.15625,
          "durationTicks": 96,
          "midi": 27,
          "name": "D#1",
          "ticks": 151872,
          "time": 247.1875,
          "velocity": 0.7874015748031497
        },
        {
          "duration": 0.15625,
          "durationTicks": 96,
          "midi": 27,
          "name": "D#1",
          "ticks": 151968,
          "time": 247.34375,
          "velocity": 0.5905511811023622
        },
        {
          "duration": 0.3125,
          "durationTicks": 192,
          "midi": 65,
          "name": "F4",
          "ticks": 151968,
          "time": 247.34375,
          "velocity": 0.7874015748031497
        },
        {
          "duration": 0.15625,
          "durationTicks": 96,
          "midi": 53,
          "name": "F3",
          "ticks": 151980,
          "time": 247.36328125,
          "velocity": 0.5905511811023622
        },
        {
          "duration": 0.46875,
          "durationTicks": 288,
          "midi": 29,
          "name": "F1",
          "ticks": 152064,
          "time": 247.5,
          "velocity": 0.7874015748031497
        },
        {
          "duration": 0.3125,
          "durationTicks": 192,
          "midi": 60,
          "name": "C4",
          "ticks": 152064,
          "time": 247.5,
          "velocity": 0.7874015748031497
        },
        {
          "duration": 0.46875,
          "durationTicks": 288,
          "midi": 58,
          "name": "A#3",
          "ticks": 152064,
          "time": 247.5,
          "velocity": 0.7874015748031497
        },
        {
          "duration": 0.3125,
          "durationTicks": 192,
          "midi": 65,
          "name": "F4",
          "ticks": 152160,
          "time": 247.65625,
          "velocity": 0.7874015748031497
        },
        {
          "duration": 0.3125,
          "durationTicks": 192,
          "midi": 70,
          "name": "A#4",
          "ticks": 152256,
          "time": 247.8125,
          "velocity": 0.7874015748031497
        },
        {
          "duration": 0.46875,
          "durationTicks": 288,
          "midi": 29,
          "name": "F1",
          "ticks": 152352,
          "time": 247.96875,
          "velocity": 0.7874015748031497
        },
        {
          "duration": 0.46875,
          "durationTicks": 288,
          "midi": 58,
          "name": "A#3",
          "ticks": 152352,
          "time": 247.96875,
          "velocity": 0.7874015748031497
        },
        {
          "duration": 0.3125,
          "durationTicks": 192,
          "midi": 60,
          "name": "C4",
          "ticks": 152352,
          "time": 247.96875,
          "velocity": 0.7874015748031497
        },
        {
          "duration": 0.3125,
          "durationTicks": 192,
          "midi": 65,
          "name": "F4",
          "ticks": 152448,
          "time": 248.125,
          "velocity": 0.7874015748031497
        },
        {
          "duration": 0.3125,
          "durationTicks": 192,
          "midi": 70,
          "name": "A#4",
          "ticks": 152544,
          "time": 248.28125,
          "velocity": 0.7874015748031497
        },
        {
          "duration": 0.3125,
          "durationTicks": 192,
          "midi": 60,
          "name": "C4",
          "ticks": 152640,
          "time": 248.4375,
          "velocity": 0.7874015748031497
        },
        {
          "duration": 0.15625,
          "durationTicks": 96,
          "midi": 29,
          "name": "F1",
          "ticks": 152640,
          "time": 248.4375,
          "velocity": 0.7874015748031497
        },
        {
          "duration": 0.15625,
          "durationTicks": 96,
          "midi": 53,
          "name": "F3",
          "ticks": 152640,
          "time": 248.4375,
          "velocity": 0.7874015748031497
        },
        {
          "duration": 0.3125,
          "durationTicks": 192,
          "midi": 65,
          "name": "F4",
          "ticks": 152736,
          "time": 248.59375,
          "velocity": 0.7874015748031497
        },
        {
          "duration": 0.15625,
          "durationTicks": 96,
          "midi": 29,
          "name": "F1",
          "ticks": 152736,
          "time": 248.59375,
          "velocity": 0.5905511811023622
        },
        {
          "duration": 0.15625,
          "durationTicks": 96,
          "midi": 53,
          "name": "F3",
          "ticks": 152748,
          "time": 248.61328125,
          "velocity": 0.5905511811023622
        },
        {
          "duration": 0.3125,
          "durationTicks": 192,
          "midi": 60,
          "name": "C4",
          "ticks": 152832,
          "time": 248.75,
          "velocity": 0.7874015748031497
        },
        {
          "duration": 0.46875,
          "durationTicks": 288,
          "midi": 58,
          "name": "A#3",
          "ticks": 152832,
          "time": 248.75,
          "velocity": 0.7874015748031497
        },
        {
          "duration": 0.46875,
          "durationTicks": 288,
          "midi": 29,
          "name": "F1",
          "ticks": 152832,
          "time": 248.75,
          "velocity": 0.7874015748031497
        },
        {
          "duration": 0.3125,
          "durationTicks": 192,
          "midi": 65,
          "name": "F4",
          "ticks": 152928,
          "time": 248.90625,
          "velocity": 0.7874015748031497
        },
        {
          "duration": 0.3125,
          "durationTicks": 192,
          "midi": 70,
          "name": "A#4",
          "ticks": 153024,
          "time": 249.0625,
          "velocity": 0.7874015748031497
        },
        {
          "duration": 0.3125,
          "durationTicks": 192,
          "midi": 60,
          "name": "C4",
          "ticks": 153120,
          "time": 249.21875,
          "velocity": 0.7874015748031497
        },
        {
          "duration": 0.46875,
          "durationTicks": 288,
          "midi": 58,
          "name": "A#3",
          "ticks": 153120,
          "time": 249.21875,
          "velocity": 0.7874015748031497
        },
        {
          "duration": 0.46875,
          "durationTicks": 288,
          "midi": 29,
          "name": "F1",
          "ticks": 153120,
          "time": 249.21875,
          "velocity": 0.7874015748031497
        },
        {
          "duration": 0.3125,
          "durationTicks": 192,
          "midi": 65,
          "name": "F4",
          "ticks": 153216,
          "time": 249.375,
          "velocity": 0.7874015748031497
        },
        {
          "duration": 0.3125,
          "durationTicks": 192,
          "midi": 68,
          "name": "G#4",
          "ticks": 153312,
          "time": 249.53125,
          "velocity": 0.7874015748031497
        },
        {
          "duration": 0.15625,
          "durationTicks": 96,
          "midi": 56,
          "name": "G#3",
          "ticks": 153408,
          "time": 249.6875,
          "velocity": 0.7874015748031497
        },
        {
          "duration": 0.3125,
          "durationTicks": 192,
          "midi": 60,
          "name": "C4",
          "ticks": 153408,
          "time": 249.6875,
          "velocity": 0.7874015748031497
        },
        {
          "duration": 0.15625,
          "durationTicks": 96,
          "midi": 29,
          "name": "F1",
          "ticks": 153408,
          "time": 249.6875,
          "velocity": 0.7874015748031497
        },
        {
          "duration": 0.15625,
          "durationTicks": 96,
          "midi": 29,
          "name": "F1",
          "ticks": 153504,
          "time": 249.84375,
          "velocity": 0.5905511811023622
        },
        {
          "duration": 0.3125,
          "durationTicks": 192,
          "midi": 67,
          "name": "G4",
          "ticks": 153504,
          "time": 249.84375,
          "velocity": 0.7874015748031497
        },
        {
          "duration": 0.15625,
          "durationTicks": 96,
          "midi": 55,
          "name": "G3",
          "ticks": 153540,
          "time": 249.90234375,
          "velocity": 0.7874015748031497
        },
        {
          "duration": 0.46875,
          "durationTicks": 288,
          "midi": 24,
          "name": "C1",
          "ticks": 153600,
          "time": 250,
          "velocity": 0.7874015748031497
        },
        {
          "duration": 0.46875,
          "durationTicks": 288,
          "midi": 55,
          "name": "G3",
          "ticks": 153600,
          "time": 250,
          "velocity": 0.7874015748031497
        },
        {
          "duration": 0.3125,
          "durationTicks": 192,
          "midi": 60,
          "name": "C4",
          "ticks": 153600,
          "time": 250,
          "velocity": 0.7874015748031497
        },
        {
          "duration": 0.3125,
          "durationTicks": 192,
          "midi": 65,
          "name": "F4",
          "ticks": 153696,
          "time": 250.15625,
          "velocity": 0.7874015748031497
        },
        {
          "duration": 0.3125,
          "durationTicks": 192,
          "midi": 67,
          "name": "G4",
          "ticks": 153792,
          "time": 250.3125,
          "velocity": 0.7874015748031497
        },
        {
          "duration": 0.46875,
          "durationTicks": 288,
          "midi": 55,
          "name": "G3",
          "ticks": 153888,
          "time": 250.46875,
          "velocity": 0.7874015748031497
        },
        {
          "duration": 0.3125,
          "durationTicks": 192,
          "midi": 60,
          "name": "C4",
          "ticks": 153888,
          "time": 250.46875,
          "velocity": 0.7874015748031497
        },
        {
          "duration": 0.46875,
          "durationTicks": 288,
          "midi": 24,
          "name": "C1",
          "ticks": 153888,
          "time": 250.46875,
          "velocity": 0.7874015748031497
        },
        {
          "duration": 0.3125,
          "durationTicks": 192,
          "midi": 65,
          "name": "F4",
          "ticks": 153984,
          "time": 250.625,
          "velocity": 0.7874015748031497
        },
        {
          "duration": 0.3125,
          "durationTicks": 192,
          "midi": 67,
          "name": "G4",
          "ticks": 154080,
          "time": 250.78125,
          "velocity": 0.7874015748031497
        },
        {
          "duration": 0.15625,
          "durationTicks": 96,
          "midi": 24,
          "name": "C1",
          "ticks": 154176,
          "time": 250.9375,
          "velocity": 0.7874015748031497
        },
        {
          "duration": 0.15625,
          "durationTicks": 96,
          "midi": 53,
          "name": "F3",
          "ticks": 154176,
          "time": 250.9375,
          "velocity": 0.7874015748031497
        },
        {
          "duration": 0.3125,
          "durationTicks": 192,
          "midi": 60,
          "name": "C4",
          "ticks": 154176,
          "time": 250.9375,
          "velocity": 0.7874015748031497
        },
        {
          "duration": 0.15625,
          "durationTicks": 96,
          "midi": 24,
          "name": "C1",
          "ticks": 154272,
          "time": 251.09375,
          "velocity": 0.5905511811023622
        },
        {
          "duration": 0.3125,
          "durationTicks": 192,
          "midi": 65,
          "name": "F4",
          "ticks": 154272,
          "time": 251.09375,
          "velocity": 0.7874015748031497
        },
        {
          "duration": 0.15625,
          "durationTicks": 96,
          "midi": 53,
          "name": "F3",
          "ticks": 154284,
          "time": 251.11328125,
          "velocity": 0.5905511811023622
        },
        {
          "duration": 0.46875,
          "durationTicks": 288,
          "midi": 55,
          "name": "G3",
          "ticks": 154368,
          "time": 251.25,
          "velocity": 0.7874015748031497
        },
        {
          "duration": 0.46875,
          "durationTicks": 288,
          "midi": 24,
          "name": "C1",
          "ticks": 154368,
          "time": 251.25,
          "velocity": 0.7874015748031497
        },
        {
          "duration": 0.3125,
          "durationTicks": 192,
          "midi": 60,
          "name": "C4",
          "ticks": 154368,
          "time": 251.25,
          "velocity": 0.7874015748031497
        },
        {
          "duration": 0.3125,
          "durationTicks": 192,
          "midi": 65,
          "name": "F4",
          "ticks": 154464,
          "time": 251.40625,
          "velocity": 0.7874015748031497
        },
        {
          "duration": 0.3125,
          "durationTicks": 192,
          "midi": 67,
          "name": "G4",
          "ticks": 154560,
          "time": 251.5625,
          "velocity": 0.7874015748031497
        },
        {
          "duration": 0.3125,
          "durationTicks": 192,
          "midi": 60,
          "name": "C4",
          "ticks": 154656,
          "time": 251.71875,
          "velocity": 0.7874015748031497
        },
        {
          "duration": 0.15625,
          "durationTicks": 96,
          "midi": 24,
          "name": "C1",
          "ticks": 154656,
          "time": 251.71875,
          "velocity": 0.7874015748031497
        },
        {
          "duration": 0.46875,
          "durationTicks": 288,
          "midi": 55,
          "name": "G3",
          "ticks": 154656,
          "time": 251.71875,
          "velocity": 0.7874015748031497
        },
        {
          "duration": 0.3125,
          "durationTicks": 192,
          "midi": 24,
          "name": "C1",
          "ticks": 154752,
          "time": 251.875,
          "velocity": 0.5905511811023622
        },
        {
          "duration": 0.3125,
          "durationTicks": 192,
          "midi": 65,
          "name": "F4",
          "ticks": 154752,
          "time": 251.875,
          "velocity": 0.7874015748031497
        },
        {
          "duration": 0.3125,
          "durationTicks": 192,
          "midi": 67,
          "name": "G4",
          "ticks": 154848,
          "time": 252.03125,
          "velocity": 0.7874015748031497
        },
        {
          "duration": 0.3125,
          "durationTicks": 192,
          "midi": 60,
          "name": "C4",
          "ticks": 154944,
          "time": 252.1875,
          "velocity": 0.7874015748031497
        },
        {
          "duration": 0.15625,
          "durationTicks": 96,
          "midi": 53,
          "name": "F3",
          "ticks": 154944,
          "time": 252.1875,
          "velocity": 0.7874015748031497
        },
        {
          "duration": 0.3125,
          "durationTicks": 192,
          "midi": 24,
          "name": "C1",
          "ticks": 154944,
          "time": 252.1875,
          "velocity": 0.7874015748031497
        },
        {
          "duration": 0.3125,
          "durationTicks": 192,
          "midi": 65,
          "name": "F4",
          "ticks": 155040,
          "time": 252.34375,
          "velocity": 0.7874015748031497
        },
        {
          "duration": 0.15625,
          "durationTicks": 96,
          "midi": 53,
          "name": "F3",
          "ticks": 155052,
          "time": 252.36328125,
          "velocity": 0.5905511811023622
        },
        {
          "duration": 0.3125,
          "durationTicks": 192,
          "midi": 60,
          "name": "C4",
          "ticks": 155136,
          "time": 252.5,
          "velocity": 0.7874015748031497
        },
        {
          "duration": 0.46875,
          "durationTicks": 288,
          "midi": 25,
          "name": "C#1",
          "ticks": 155136,
          "time": 252.5,
          "velocity": 0.7874015748031497
        },
        {
          "duration": 0.46875,
          "durationTicks": 288,
          "midi": 56,
          "name": "G#3",
          "ticks": 155136,
          "time": 252.5,
          "velocity": 0.7874015748031497
        },
        {
          "duration": 0.3125,
          "durationTicks": 192,
          "midi": 65,
          "name": "F4",
          "ticks": 155232,
          "time": 252.65625,
          "velocity": 0.7874015748031497
        },
        {
          "duration": 0.3125,
          "durationTicks": 192,
          "midi": 68,
          "name": "G#4",
          "ticks": 155328,
          "time": 252.8125,
          "velocity": 0.7874015748031497
        },
        {
          "duration": 0.15625,
          "durationTicks": 96,
          "midi": 25,
          "name": "C#1",
          "ticks": 155424,
          "time": 252.96875,
          "velocity": 0.7874015748031497
        },
        {
          "duration": 0.46875,
          "durationTicks": 288,
          "midi": 56,
          "name": "G#3",
          "ticks": 155424,
          "time": 252.96875,
          "velocity": 0.7874015748031497
        },
        {
          "duration": 0.3125,
          "durationTicks": 192,
          "midi": 60,
          "name": "C4",
          "ticks": 155424,
          "time": 252.96875,
          "velocity": 0.7874015748031497
        },
        {
          "duration": 0.3125,
          "durationTicks": 192,
          "midi": 25,
          "name": "C#1",
          "ticks": 155520,
          "time": 253.125,
          "velocity": 0.5905511811023622
        },
        {
          "duration": 0.3125,
          "durationTicks": 192,
          "midi": 65,
          "name": "F4",
          "ticks": 155520,
          "time": 253.125,
          "velocity": 0.7874015748031497
        },
        {
          "duration": 0.3125,
          "durationTicks": 192,
          "midi": 68,
          "name": "G#4",
          "ticks": 155616,
          "time": 253.28125,
          "velocity": 0.7874015748031497
        },
        {
          "duration": 0.3125,
          "durationTicks": 192,
          "midi": 25,
          "name": "C#1",
          "ticks": 155712,
          "time": 253.4375,
          "velocity": 0.7874015748031497
        },
        {
          "duration": 0.3125,
          "durationTicks": 192,
          "midi": 60,
          "name": "C4",
          "ticks": 155712,
          "time": 253.4375,
          "velocity": 0.7874015748031497
        },
        {
          "duration": 0.15625,
          "durationTicks": 96,
          "midi": 53,
          "name": "F3",
          "ticks": 155712,
          "time": 253.4375,
          "velocity": 0.7874015748031497
        },
        {
          "duration": 0.3125,
          "durationTicks": 192,
          "midi": 65,
          "name": "F4",
          "ticks": 155808,
          "time": 253.59375,
          "velocity": 0.7874015748031497
        },
        {
          "duration": 0.15625,
          "durationTicks": 96,
          "midi": 53,
          "name": "F3",
          "ticks": 155820,
          "time": 253.61328125,
          "velocity": 0.5905511811023622
        },
        {
          "duration": 0.46875,
          "durationTicks": 288,
          "midi": 56,
          "name": "G#3",
          "ticks": 155904,
          "time": 253.75,
          "velocity": 0.7874015748031497
        },
        {
          "duration": 0.3125,
          "durationTicks": 192,
          "midi": 60,
          "name": "C4",
          "ticks": 155904,
          "time": 253.75,
          "velocity": 0.7874015748031497
        },
        {
          "duration": 0.46875,
          "durationTicks": 288,
          "midi": 25,
          "name": "C#1",
          "ticks": 155904,
          "time": 253.75,
          "velocity": 0.7874015748031497
        },
        {
          "duration": 0.3125,
          "durationTicks": 192,
          "midi": 65,
          "name": "F4",
          "ticks": 156000,
          "time": 253.90625,
          "velocity": 0.7874015748031497
        },
        {
          "duration": 0.3125,
          "durationTicks": 192,
          "midi": 68,
          "name": "G#4",
          "ticks": 156096,
          "time": 254.0625,
          "velocity": 0.7874015748031497
        },
        {
          "duration": 0.46875,
          "durationTicks": 288,
          "midi": 25,
          "name": "C#1",
          "ticks": 156192,
          "time": 254.21875,
          "velocity": 0.7874015748031497
        },
        {
          "duration": 0.3125,
          "durationTicks": 192,
          "midi": 60,
          "name": "C4",
          "ticks": 156192,
          "time": 254.21875,
          "velocity": 0.7874015748031497
        },
        {
          "duration": 0.46875,
          "durationTicks": 288,
          "midi": 56,
          "name": "G#3",
          "ticks": 156192,
          "time": 254.21875,
          "velocity": 0.7874015748031497
        },
        {
          "duration": 0.3125,
          "durationTicks": 192,
          "midi": 65,
          "name": "F4",
          "ticks": 156288,
          "time": 254.375,
          "velocity": 0.7874015748031497
        },
        {
          "duration": 0.3125,
          "durationTicks": 192,
          "midi": 68,
          "name": "G#4",
          "ticks": 156384,
          "time": 254.53125,
          "velocity": 0.7874015748031497
        },
        {
          "duration": 0.15625,
          "durationTicks": 96,
          "midi": 25,
          "name": "C#1",
          "ticks": 156480,
          "time": 254.6875,
          "velocity": 0.7874015748031497
        },
        {
          "duration": 0.15625,
          "durationTicks": 96,
          "midi": 53,
          "name": "F3",
          "ticks": 156480,
          "time": 254.6875,
          "velocity": 0.7874015748031497
        },
        {
          "duration": 0.3125,
          "durationTicks": 192,
          "midi": 60,
          "name": "C4",
          "ticks": 156480,
          "time": 254.6875,
          "velocity": 0.7874015748031497
        },
        {
          "duration": 0.15625,
          "durationTicks": 96,
          "midi": 25,
          "name": "C#1",
          "ticks": 156576,
          "time": 254.84375,
          "velocity": 0.5905511811023622
        },
        {
          "duration": 0.3125,
          "durationTicks": 192,
          "midi": 65,
          "name": "F4",
          "ticks": 156576,
          "time": 254.84375,
          "velocity": 0.7874015748031497
        },
        {
          "duration": 0.15625,
          "durationTicks": 96,
          "midi": 53,
          "name": "F3",
          "ticks": 156588,
          "time": 254.86328125,
          "velocity": 0.5905511811023622
        },
        {
          "duration": 0.3125,
          "durationTicks": 192,
          "midi": 60,
          "name": "C4",
          "ticks": 156672,
          "time": 255,
          "velocity": 0.7874015748031497
        },
        {
          "duration": 0.46875,
          "durationTicks": 288,
          "midi": 27,
          "name": "D#1",
          "ticks": 156672,
          "time": 255,
          "velocity": 0.7874015748031497
        },
        {
          "duration": 0.46875,
          "durationTicks": 288,
          "midi": 55,
          "name": "G3",
          "ticks": 156672,
          "time": 255,
          "velocity": 0.7874015748031497
        },
        {
          "duration": 0.3125,
          "durationTicks": 192,
          "midi": 65,
          "name": "F4",
          "ticks": 156768,
          "time": 255.15625,
          "velocity": 0.7874015748031497
        },
        {
          "duration": 0.3125,
          "durationTicks": 192,
          "midi": 67,
          "name": "G4",
          "ticks": 156864,
          "time": 255.3125,
          "velocity": 0.7874015748031497
        },
        {
          "duration": 0.46875,
          "durationTicks": 288,
          "midi": 55,
          "name": "G3",
          "ticks": 156960,
          "time": 255.46875,
          "velocity": 0.7874015748031497
        },
        {
          "duration": 0.46875,
          "durationTicks": 288,
          "midi": 27,
          "name": "D#1",
          "ticks": 156960,
          "time": 255.46875,
          "velocity": 0.7874015748031497
        },
        {
          "duration": 0.3125,
          "durationTicks": 192,
          "midi": 60,
          "name": "C4",
          "ticks": 156960,
          "time": 255.46875,
          "velocity": 0.7874015748031497
        },
        {
          "duration": 0.3125,
          "durationTicks": 192,
          "midi": 65,
          "name": "F4",
          "ticks": 157056,
          "time": 255.625,
          "velocity": 0.7874015748031497
        },
        {
          "duration": 0.3125,
          "durationTicks": 192,
          "midi": 67,
          "name": "G4",
          "ticks": 157152,
          "time": 255.78125,
          "velocity": 0.7874015748031497
        },
        {
          "duration": 0.3125,
          "durationTicks": 192,
          "midi": 60,
          "name": "C4",
          "ticks": 157248,
          "time": 255.9375,
          "velocity": 0.7874015748031497
        },
        {
          "duration": 0.15625,
          "durationTicks": 96,
          "midi": 53,
          "name": "F3",
          "ticks": 157248,
          "time": 255.9375,
          "velocity": 0.7874015748031497
        },
        {
          "duration": 0.3125,
          "durationTicks": 192,
          "midi": 27,
          "name": "D#1",
          "ticks": 157248,
          "time": 255.9375,
          "velocity": 0.7874015748031497
        },
        {
          "duration": 0.3125,
          "durationTicks": 192,
          "midi": 65,
          "name": "F4",
          "ticks": 157344,
          "time": 256.09375,
          "velocity": 0.7874015748031497
        },
        {
          "duration": 0.15625,
          "durationTicks": 96,
          "midi": 53,
          "name": "F3",
          "ticks": 157356,
          "time": 256.11328125,
          "velocity": 0.5905511811023622
        },
        {
          "duration": 0.3125,
          "durationTicks": 192,
          "midi": 60,
          "name": "C4",
          "ticks": 157440,
          "time": 256.25,
          "velocity": 0.7874015748031497
        },
        {
          "duration": 0.46875,
          "durationTicks": 288,
          "midi": 27,
          "name": "D#1",
          "ticks": 157440,
          "time": 256.25,
          "velocity": 0.7874015748031497
        },
        {
          "duration": 0.46875,
          "durationTicks": 288,
          "midi": 55,
          "name": "G3",
          "ticks": 157440,
          "time": 256.25,
          "velocity": 0.7874015748031497
        },
        {
          "duration": 0.3125,
          "durationTicks": 192,
          "midi": 65,
          "name": "F4",
          "ticks": 157536,
          "time": 256.40625,
          "velocity": 0.7874015748031497
        },
        {
          "duration": 0.3125,
          "durationTicks": 192,
          "midi": 67,
          "name": "G4",
          "ticks": 157632,
          "time": 256.5625,
          "velocity": 0.7874015748031497
        },
        {
          "duration": 0.46875,
          "durationTicks": 288,
          "midi": 55,
          "name": "G3",
          "ticks": 157728,
          "time": 256.71875,
          "velocity": 0.7874015748031497
        },
        {
          "duration": 0.3125,
          "durationTicks": 192,
          "midi": 60,
          "name": "C4",
          "ticks": 157728,
          "time": 256.71875,
          "velocity": 0.7874015748031497
        },
        {
          "duration": 0.15625,
          "durationTicks": 96,
          "midi": 27,
          "name": "D#1",
          "ticks": 157728,
          "time": 256.71875,
          "velocity": 0.7874015748031497
        },
        {
          "duration": 0.3125,
          "durationTicks": 192,
          "midi": 27,
          "name": "D#1",
          "ticks": 157824,
          "time": 256.875,
          "velocity": 0.5905511811023622
        },
        {
          "duration": 0.3125,
          "durationTicks": 192,
          "midi": 65,
          "name": "F4",
          "ticks": 157824,
          "time": 256.875,
          "velocity": 0.7874015748031497
        },
        {
          "duration": 0.3125,
          "durationTicks": 192,
          "midi": 67,
          "name": "G4",
          "ticks": 157920,
          "time": 257.03125,
          "velocity": 0.7874015748031497
        },
        {
          "duration": 0.15625,
          "durationTicks": 96,
          "midi": 53,
          "name": "F3",
          "ticks": 158016,
          "time": 257.1875,
          "velocity": 0.7874015748031497
        },
        {
          "duration": 0.15625,
          "durationTicks": 96,
          "midi": 27,
          "name": "D#1",
          "ticks": 158016,
          "time": 257.1875,
          "velocity": 0.7874015748031497
        },
        {
          "duration": 0.3125,
          "durationTicks": 192,
          "midi": 60,
          "name": "C4",
          "ticks": 158016,
          "time": 257.1875,
          "velocity": 0.7874015748031497
        },
        {
          "duration": 0.15625,
          "durationTicks": 96,
          "midi": 27,
          "name": "D#1",
          "ticks": 158112,
          "time": 257.34375,
          "velocity": 0.5905511811023622
        },
        {
          "duration": 0.3125,
          "durationTicks": 192,
          "midi": 65,
          "name": "F4",
          "ticks": 158112,
          "time": 257.34375,
          "velocity": 0.7874015748031497
        },
        {
          "duration": 0.15625,
          "durationTicks": 96,
          "midi": 53,
          "name": "F3",
          "ticks": 158124,
          "time": 257.36328125,
          "velocity": 0.5905511811023622
        },
        {
          "duration": 0.46875,
          "durationTicks": 288,
          "midi": 29,
          "name": "F1",
          "ticks": 158208,
          "time": 257.5,
          "velocity": 0.7874015748031497
        },
        {
          "duration": 0.46875,
          "durationTicks": 288,
          "midi": 58,
          "name": "A#3",
          "ticks": 158208,
          "time": 257.5,
          "velocity": 0.7874015748031497
        },
        {
          "duration": 0.3125,
          "durationTicks": 192,
          "midi": 60,
          "name": "C4",
          "ticks": 158208,
          "time": 257.5,
          "velocity": 0.7874015748031497
        },
        {
          "duration": 0.3125,
          "durationTicks": 192,
          "midi": 65,
          "name": "F4",
          "ticks": 158304,
          "time": 257.65625,
          "velocity": 0.7874015748031497
        },
        {
          "duration": 0.3125,
          "durationTicks": 192,
          "midi": 70,
          "name": "A#4",
          "ticks": 158400,
          "time": 257.8125,
          "velocity": 0.7874015748031497
        },
        {
          "duration": 0.46875,
          "durationTicks": 288,
          "midi": 58,
          "name": "A#3",
          "ticks": 158496,
          "time": 257.96875,
          "velocity": 0.7874015748031497
        },
        {
          "duration": 0.3125,
          "durationTicks": 192,
          "midi": 60,
          "name": "C4",
          "ticks": 158496,
          "time": 257.96875,
          "velocity": 0.7874015748031497
        },
        {
          "duration": 0.46875,
          "durationTicks": 288,
          "midi": 29,
          "name": "F1",
          "ticks": 158496,
          "time": 257.96875,
          "velocity": 0.7874015748031497
        },
        {
          "duration": 0.3125,
          "durationTicks": 192,
          "midi": 65,
          "name": "F4",
          "ticks": 158592,
          "time": 258.125,
          "velocity": 0.7874015748031497
        },
        {
          "duration": 0.3125,
          "durationTicks": 192,
          "midi": 70,
          "name": "A#4",
          "ticks": 158688,
          "time": 258.28125,
          "velocity": 0.7874015748031497
        },
        {
          "duration": 0.15625,
          "durationTicks": 96,
          "midi": 53,
          "name": "F3",
          "ticks": 158784,
          "time": 258.4375,
          "velocity": 0.7874015748031497
        },
        {
          "duration": 0.3125,
          "durationTicks": 192,
          "midi": 60,
          "name": "C4",
          "ticks": 158784,
          "time": 258.4375,
          "velocity": 0.7874015748031497
        },
        {
          "duration": 0.15625,
          "durationTicks": 96,
          "midi": 29,
          "name": "F1",
          "ticks": 158784,
          "time": 258.4375,
          "velocity": 0.7874015748031497
        },
        {
          "duration": 0.15625,
          "durationTicks": 96,
          "midi": 29,
          "name": "F1",
          "ticks": 158880,
          "time": 258.59375,
          "velocity": 0.5905511811023622
        },
        {
          "duration": 0.3125,
          "durationTicks": 192,
          "midi": 65,
          "name": "F4",
          "ticks": 158880,
          "time": 258.59375,
          "velocity": 0.7874015748031497
        },
        {
          "duration": 0.15625,
          "durationTicks": 96,
          "midi": 53,
          "name": "F3",
          "ticks": 158892,
          "time": 258.61328125,
          "velocity": 0.5905511811023622
        },
        {
          "duration": 0.46875,
          "durationTicks": 288,
          "midi": 58,
          "name": "A#3",
          "ticks": 158976,
          "time": 258.75,
          "velocity": 0.7874015748031497
        },
        {
          "duration": 0.3125,
          "durationTicks": 192,
          "midi": 60,
          "name": "C4",
          "ticks": 158976,
          "time": 258.75,
          "velocity": 0.7874015748031497
        },
        {
          "duration": 0.46875,
          "durationTicks": 288,
          "midi": 29,
          "name": "F1",
          "ticks": 158976,
          "time": 258.75,
          "velocity": 0.7874015748031497
        },
        {
          "duration": 0.3125,
          "durationTicks": 192,
          "midi": 65,
          "name": "F4",
          "ticks": 159072,
          "time": 258.90625,
          "velocity": 0.7874015748031497
        },
        {
          "duration": 0.3125,
          "durationTicks": 192,
          "midi": 70,
          "name": "A#4",
          "ticks": 159168,
          "time": 259.0625,
          "velocity": 0.7874015748031497
        },
        {
          "duration": 0.3125,
          "durationTicks": 192,
          "midi": 60,
          "name": "C4",
          "ticks": 159264,
          "time": 259.21875,
          "velocity": 0.7874015748031497
        },
        {
          "duration": 0.46875,
          "durationTicks": 288,
          "midi": 58,
          "name": "A#3",
          "ticks": 159264,
          "time": 259.21875,
          "velocity": 0.7874015748031497
        },
        {
          "duration": 0.46875,
          "durationTicks": 288,
          "midi": 29,
          "name": "F1",
          "ticks": 159264,
          "time": 259.21875,
          "velocity": 0.7874015748031497
        },
        {
          "duration": 0.3125,
          "durationTicks": 192,
          "midi": 65,
          "name": "F4",
          "ticks": 159360,
          "time": 259.375,
          "velocity": 0.7874015748031497
        },
        {
          "duration": 0.3125,
          "durationTicks": 192,
          "midi": 68,
          "name": "G#4",
          "ticks": 159456,
          "time": 259.53125,
          "velocity": 0.7874015748031497
        },
        {
          "duration": 0.15625,
          "durationTicks": 96,
          "midi": 29,
          "name": "F1",
          "ticks": 159552,
          "time": 259.6875,
          "velocity": 0.7874015748031497
        },
        {
          "duration": 0.15625,
          "durationTicks": 96,
          "midi": 56,
          "name": "G#3",
          "ticks": 159552,
          "time": 259.6875,
          "velocity": 0.7874015748031497
        },
        {
          "duration": 0.3125,
          "durationTicks": 192,
          "midi": 60,
          "name": "C4",
          "ticks": 159552,
          "time": 259.6875,
          "velocity": 0.7874015748031497
        },
        {
          "duration": 0.3125,
          "durationTicks": 192,
          "midi": 67,
          "name": "G4",
          "ticks": 159648,
          "time": 259.84375,
          "velocity": 0.7874015748031497
        },
        {
          "duration": 0.15625,
          "durationTicks": 96,
          "midi": 29,
          "name": "F1",
          "ticks": 159648,
          "time": 259.84375,
          "velocity": 0.5905511811023622
        },
        {
          "duration": 0.15625,
          "durationTicks": 96,
          "midi": 55,
          "name": "G3",
          "ticks": 159684,
          "time": 259.90234375,
          "velocity": 0.7874015748031497
        },
        {
          "duration": 0.46875,
          "durationTicks": 288,
          "midi": 55,
          "name": "G3",
          "ticks": 159744,
          "time": 260,
          "velocity": 0.7874015748031497
        },
        {
          "duration": 0.3125,
          "durationTicks": 192,
          "midi": 60,
          "name": "C4",
          "ticks": 159744,
          "time": 260,
          "velocity": 0.7874015748031497
        },
        {
          "duration": 0.46875,
          "durationTicks": 288,
          "midi": 24,
          "name": "C1",
          "ticks": 159744,
          "time": 260,
          "velocity": 0.7874015748031497
        },
        {
          "duration": 0.3125,
          "durationTicks": 192,
          "midi": 65,
          "name": "F4",
          "ticks": 159840,
          "time": 260.15625,
          "velocity": 0.7874015748031497
        },
        {
          "duration": 0.3125,
          "durationTicks": 192,
          "midi": 67,
          "name": "G4",
          "ticks": 159936,
          "time": 260.3125,
          "velocity": 0.7874015748031497
        },
        {
          "duration": 0.46875,
          "durationTicks": 288,
          "midi": 55,
          "name": "G3",
          "ticks": 160032,
          "time": 260.46875,
          "velocity": 0.7874015748031497
        },
        {
          "duration": 0.3125,
          "durationTicks": 192,
          "midi": 60,
          "name": "C4",
          "ticks": 160032,
          "time": 260.46875,
          "velocity": 0.7874015748031497
        },
        {
          "duration": 0.46875,
          "durationTicks": 288,
          "midi": 24,
          "name": "C1",
          "ticks": 160032,
          "time": 260.46875,
          "velocity": 0.7874015748031497
        },
        {
          "duration": 0.3125,
          "durationTicks": 192,
          "midi": 65,
          "name": "F4",
          "ticks": 160128,
          "time": 260.625,
          "velocity": 0.7874015748031497
        },
        {
          "duration": 0.3125,
          "durationTicks": 192,
          "midi": 67,
          "name": "G4",
          "ticks": 160224,
          "time": 260.78125,
          "velocity": 0.7874015748031497
        },
        {
          "duration": 0.15625,
          "durationTicks": 96,
          "midi": 53,
          "name": "F3",
          "ticks": 160320,
          "time": 260.9375,
          "velocity": 0.7874015748031497
        },
        {
          "duration": 0.3125,
          "durationTicks": 192,
          "midi": 60,
          "name": "C4",
          "ticks": 160320,
          "time": 260.9375,
          "velocity": 0.7874015748031497
        },
        {
          "duration": 0.15625,
          "durationTicks": 96,
          "midi": 24,
          "name": "C1",
          "ticks": 160320,
          "time": 260.9375,
          "velocity": 0.7874015748031497
        },
        {
          "duration": 0.15625,
          "durationTicks": 96,
          "midi": 24,
          "name": "C1",
          "ticks": 160416,
          "time": 261.09375,
          "velocity": 0.5905511811023622
        },
        {
          "duration": 0.3125,
          "durationTicks": 192,
          "midi": 65,
          "name": "F4",
          "ticks": 160416,
          "time": 261.09375,
          "velocity": 0.7874015748031497
        },
        {
          "duration": 0.15625,
          "durationTicks": 96,
          "midi": 53,
          "name": "F3",
          "ticks": 160428,
          "time": 261.11328125,
          "velocity": 0.5905511811023622
        },
        {
          "duration": 0.46875,
          "durationTicks": 288,
          "midi": 55,
          "name": "G3",
          "ticks": 160512,
          "time": 261.25,
          "velocity": 0.7874015748031497
        },
        {
          "duration": 0.3125,
          "durationTicks": 192,
          "midi": 60,
          "name": "C4",
          "ticks": 160512,
          "time": 261.25,
          "velocity": 0.7874015748031497
        },
        {
          "duration": 0.46875,
          "durationTicks": 288,
          "midi": 24,
          "name": "C1",
          "ticks": 160512,
          "time": 261.25,
          "velocity": 0.7874015748031497
        },
        {
          "duration": 0.3125,
          "durationTicks": 192,
          "midi": 65,
          "name": "F4",
          "ticks": 160608,
          "time": 261.40625,
          "velocity": 0.7874015748031497
        },
        {
          "duration": 0.3125,
          "durationTicks": 192,
          "midi": 67,
          "name": "G4",
          "ticks": 160704,
          "time": 261.5625,
          "velocity": 0.7874015748031497
        },
        {
          "duration": 0.3125,
          "durationTicks": 192,
          "midi": 60,
          "name": "C4",
          "ticks": 160800,
          "time": 261.71875,
          "velocity": 0.7874015748031497
        },
        {
          "duration": 0.15625,
          "durationTicks": 96,
          "midi": 24,
          "name": "C1",
          "ticks": 160800,
          "time": 261.71875,
          "velocity": 0.7874015748031497
        },
        {
          "duration": 0.46875,
          "durationTicks": 288,
          "midi": 55,
          "name": "G3",
          "ticks": 160800,
          "time": 261.71875,
          "velocity": 0.7874015748031497
        },
        {
          "duration": 0.3125,
          "durationTicks": 192,
          "midi": 65,
          "name": "F4",
          "ticks": 160896,
          "time": 261.875,
          "velocity": 0.7874015748031497
        },
        {
          "duration": 0.3125,
          "durationTicks": 192,
          "midi": 24,
          "name": "C1",
          "ticks": 160896,
          "time": 261.875,
          "velocity": 0.5905511811023622
        },
        {
          "duration": 0.3125,
          "durationTicks": 192,
          "midi": 67,
          "name": "G4",
          "ticks": 160992,
          "time": 262.03125,
          "velocity": 0.7874015748031497
        },
        {
          "duration": 0.15625,
          "durationTicks": 96,
          "midi": 53,
          "name": "F3",
          "ticks": 161088,
          "time": 262.1875,
          "velocity": 0.7874015748031497
        },
        {
          "duration": 0.3125,
          "durationTicks": 192,
          "midi": 24,
          "name": "C1",
          "ticks": 161088,
          "time": 262.1875,
          "velocity": 0.7874015748031497
        },
        {
          "duration": 0.3125,
          "durationTicks": 192,
          "midi": 60,
          "name": "C4",
          "ticks": 161088,
          "time": 262.1875,
          "velocity": 0.7874015748031497
        },
        {
          "duration": 0.3125,
          "durationTicks": 192,
          "midi": 65,
          "name": "F4",
          "ticks": 161184,
          "time": 262.34375,
          "velocity": 0.7874015748031497
        },
        {
          "duration": 0.15625,
          "durationTicks": 96,
          "midi": 53,
          "name": "F3",
          "ticks": 161196,
          "time": 262.36328125,
          "velocity": 0.5905511811023622
        },
        {
          "duration": 0.46875,
          "durationTicks": 288,
          "midi": 56,
          "name": "G#3",
          "ticks": 161280,
          "time": 262.5,
          "velocity": 0.7874015748031497
        },
        {
          "duration": 0.3125,
          "durationTicks": 192,
          "midi": 60,
          "name": "C4",
          "ticks": 161280,
          "time": 262.5,
          "velocity": 0.7874015748031497
        },
        {
          "duration": 0.46875,
          "durationTicks": 288,
          "midi": 25,
          "name": "C#1",
          "ticks": 161280,
          "time": 262.5,
          "velocity": 0.7874015748031497
        },
        {
          "duration": 0.3125,
          "durationTicks": 192,
          "midi": 65,
          "name": "F4",
          "ticks": 161376,
          "time": 262.65625,
          "velocity": 0.7874015748031497
        },
        {
          "duration": 0.3125,
          "durationTicks": 192,
          "midi": 68,
          "name": "G#4",
          "ticks": 161472,
          "time": 262.8125,
          "velocity": 0.7874015748031497
        },
        {
          "duration": 0.15625,
          "durationTicks": 96,
          "midi": 25,
          "name": "C#1",
          "ticks": 161568,
          "time": 262.96875,
          "velocity": 0.7874015748031497
        },
        {
          "duration": 0.46875,
          "durationTicks": 288,
          "midi": 56,
          "name": "G#3",
          "ticks": 161568,
          "time": 262.96875,
          "velocity": 0.7874015748031497
        },
        {
          "duration": 0.3125,
          "durationTicks": 192,
          "midi": 60,
          "name": "C4",
          "ticks": 161568,
          "time": 262.96875,
          "velocity": 0.7874015748031497
        },
        {
          "duration": 0.3125,
          "durationTicks": 192,
          "midi": 25,
          "name": "C#1",
          "ticks": 161664,
          "time": 263.125,
          "velocity": 0.5905511811023622
        },
        {
          "duration": 0.3125,
          "durationTicks": 192,
          "midi": 65,
          "name": "F4",
          "ticks": 161664,
          "time": 263.125,
          "velocity": 0.7874015748031497
        },
        {
          "duration": 0.3125,
          "durationTicks": 192,
          "midi": 68,
          "name": "G#4",
          "ticks": 161760,
          "time": 263.28125,
          "velocity": 0.7874015748031497
        },
        {
          "duration": 0.3125,
          "durationTicks": 192,
          "midi": 25,
          "name": "C#1",
          "ticks": 161856,
          "time": 263.4375,
          "velocity": 0.7874015748031497
        },
        {
          "duration": 0.15625,
          "durationTicks": 96,
          "midi": 53,
          "name": "F3",
          "ticks": 161856,
          "time": 263.4375,
          "velocity": 0.7874015748031497
        },
        {
          "duration": 0.3125,
          "durationTicks": 192,
          "midi": 60,
          "name": "C4",
          "ticks": 161856,
          "time": 263.4375,
          "velocity": 0.7874015748031497
        },
        {
          "duration": 0.3125,
          "durationTicks": 192,
          "midi": 65,
          "name": "F4",
          "ticks": 161952,
          "time": 263.59375,
          "velocity": 0.7874015748031497
        },
        {
          "duration": 0.15625,
          "durationTicks": 96,
          "midi": 53,
          "name": "F3",
          "ticks": 161964,
          "time": 263.61328125,
          "velocity": 0.5905511811023622
        },
        {
          "duration": 0.3125,
          "durationTicks": 192,
          "midi": 60,
          "name": "C4",
          "ticks": 162048,
          "time": 263.75,
          "velocity": 0.7874015748031497
        },
        {
          "duration": 0.46875,
          "durationTicks": 288,
          "midi": 25,
          "name": "C#1",
          "ticks": 162048,
          "time": 263.75,
          "velocity": 0.7874015748031497
        },
        {
          "duration": 0.46875,
          "durationTicks": 288,
          "midi": 56,
          "name": "G#3",
          "ticks": 162048,
          "time": 263.75,
          "velocity": 0.7874015748031497
        },
        {
          "duration": 0.3125,
          "durationTicks": 192,
          "midi": 65,
          "name": "F4",
          "ticks": 162144,
          "time": 263.90625,
          "velocity": 0.7874015748031497
        },
        {
          "duration": 0.3125,
          "durationTicks": 192,
          "midi": 68,
          "name": "G#4",
          "ticks": 162240,
          "time": 264.0625,
          "velocity": 0.7874015748031497
        },
        {
          "duration": 0.3125,
          "durationTicks": 192,
          "midi": 60,
          "name": "C4",
          "ticks": 162336,
          "time": 264.21875,
          "velocity": 0.7874015748031497
        },
        {
          "duration": 0.46875,
          "durationTicks": 288,
          "midi": 56,
          "name": "G#3",
          "ticks": 162336,
          "time": 264.21875,
          "velocity": 0.7874015748031497
        },
        {
          "duration": 0.46875,
          "durationTicks": 288,
          "midi": 25,
          "name": "C#1",
          "ticks": 162336,
          "time": 264.21875,
          "velocity": 0.7874015748031497
        },
        {
          "duration": 0.3125,
          "durationTicks": 192,
          "midi": 65,
          "name": "F4",
          "ticks": 162432,
          "time": 264.375,
          "velocity": 0.7874015748031497
        },
        {
          "duration": 0.3125,
          "durationTicks": 192,
          "midi": 68,
          "name": "G#4",
          "ticks": 162528,
          "time": 264.53125,
          "velocity": 0.7874015748031497
        },
        {
          "duration": 0.3125,
          "durationTicks": 192,
          "midi": 60,
          "name": "C4",
          "ticks": 162624,
          "time": 264.6875,
          "velocity": 0.7874015748031497
        },
        {
          "duration": 0.15625,
          "durationTicks": 96,
          "midi": 25,
          "name": "C#1",
          "ticks": 162624,
          "time": 264.6875,
          "velocity": 0.7874015748031497
        },
        {
          "duration": 0.15625,
          "durationTicks": 96,
          "midi": 53,
          "name": "F3",
          "ticks": 162624,
          "time": 264.6875,
          "velocity": 0.7874015748031497
        },
        {
          "duration": 0.15625,
          "durationTicks": 96,
          "midi": 25,
          "name": "C#1",
          "ticks": 162720,
          "time": 264.84375,
          "velocity": 0.5905511811023622
        },
        {
          "duration": 0.3125,
          "durationTicks": 192,
          "midi": 65,
          "name": "F4",
          "ticks": 162720,
          "time": 264.84375,
          "velocity": 0.7874015748031497
        },
        {
          "duration": 0.15625,
          "durationTicks": 96,
          "midi": 53,
          "name": "F3",
          "ticks": 162732,
          "time": 264.86328125,
          "velocity": 0.5905511811023622
        },
        {
          "duration": 0.3125,
          "durationTicks": 192,
          "midi": 60,
          "name": "C4",
          "ticks": 162816,
          "time": 265,
          "velocity": 0.7874015748031497
        },
        {
          "duration": 0.46875,
          "durationTicks": 288,
          "midi": 30,
          "name": "F#1",
          "ticks": 162816,
          "time": 265,
          "velocity": 0.7874015748031497
        },
        {
          "duration": 0.46875,
          "durationTicks": 288,
          "midi": 55,
          "name": "G3",
          "ticks": 162816,
          "time": 265,
          "velocity": 0.7874015748031497
        },
        {
          "duration": 0.3125,
          "durationTicks": 192,
          "midi": 65,
          "name": "F4",
          "ticks": 162912,
          "time": 265.15625,
          "velocity": 0.7874015748031497
        },
        {
          "duration": 0.3125,
          "durationTicks": 192,
          "midi": 67,
          "name": "G4",
          "ticks": 163008,
          "time": 265.3125,
          "velocity": 0.7874015748031497
        },
        {
          "duration": 0.3125,
          "durationTicks": 192,
          "midi": 60,
          "name": "C4",
          "ticks": 163104,
          "time": 265.46875,
          "velocity": 0.7874015748031497
        },
        {
          "duration": 0.46875,
          "durationTicks": 288,
          "midi": 30,
          "name": "F#1",
          "ticks": 163104,
          "time": 265.46875,
          "velocity": 0.7874015748031497
        },
        {
          "duration": 0.46875,
          "durationTicks": 288,
          "midi": 55,
          "name": "G3",
          "ticks": 163104,
          "time": 265.46875,
          "velocity": 0.7874015748031497
        },
        {
          "duration": 0.3125,
          "durationTicks": 192,
          "midi": 65,
          "name": "F4",
          "ticks": 163200,
          "time": 265.625,
          "velocity": 0.7874015748031497
        },
        {
          "duration": 0.3125,
          "durationTicks": 192,
          "midi": 67,
          "name": "G4",
          "ticks": 163296,
          "time": 265.78125,
          "velocity": 0.7874015748031497
        },
        {
          "duration": 0.15625,
          "durationTicks": 96,
          "midi": 30,
          "name": "F#1",
          "ticks": 163392,
          "time": 265.9375,
          "velocity": 0.7874015748031497
        },
        {
          "duration": 0.15625,
          "durationTicks": 96,
          "midi": 53,
          "name": "F3",
          "ticks": 163392,
          "time": 265.9375,
          "velocity": 0.7874015748031497
        },
        {
          "duration": 0.3125,
          "durationTicks": 192,
          "midi": 60,
          "name": "C4",
          "ticks": 163392,
          "time": 265.9375,
          "velocity": 0.7874015748031497
        },
        {
          "duration": 0.15625,
          "durationTicks": 96,
          "midi": 30,
          "name": "F#1",
          "ticks": 163488,
          "time": 266.09375,
          "velocity": 0.5905511811023622
        },
        {
          "duration": 0.3125,
          "durationTicks": 192,
          "midi": 65,
          "name": "F4",
          "ticks": 163488,
          "time": 266.09375,
          "velocity": 0.7874015748031497
        },
        {
          "duration": 0.15625,
          "durationTicks": 96,
          "midi": 53,
          "name": "F3",
          "ticks": 163500,
          "time": 266.11328125,
          "velocity": 0.5905511811023622
        },
        {
          "duration": 0.46875,
          "durationTicks": 288,
          "midi": 55,
          "name": "G3",
          "ticks": 163584,
          "time": 266.25,
          "velocity": 0.7874015748031497
        },
        {
          "duration": 0.3125,
          "durationTicks": 192,
          "midi": 60,
          "name": "C4",
          "ticks": 163584,
          "time": 266.25,
          "velocity": 0.7874015748031497
        },
        {
          "duration": 0.46875,
          "durationTicks": 288,
          "midi": 30,
          "name": "F#1",
          "ticks": 163584,
          "time": 266.25,
          "velocity": 0.7874015748031497
        },
        {
          "duration": 0.3125,
          "durationTicks": 192,
          "midi": 65,
          "name": "F4",
          "ticks": 163680,
          "time": 266.40625,
          "velocity": 0.7874015748031497
        },
        {
          "duration": 0.3125,
          "durationTicks": 192,
          "midi": 67,
          "name": "G4",
          "ticks": 163776,
          "time": 266.5625,
          "velocity": 0.7874015748031497
        },
        {
          "duration": 0.46875,
          "durationTicks": 288,
          "midi": 30,
          "name": "F#1",
          "ticks": 163872,
          "time": 266.71875,
          "velocity": 0.7874015748031497
        },
        {
          "duration": 0.46875,
          "durationTicks": 288,
          "midi": 55,
          "name": "G3",
          "ticks": 163872,
          "time": 266.71875,
          "velocity": 0.7874015748031497
        },
        {
          "duration": 0.3125,
          "durationTicks": 192,
          "midi": 60,
          "name": "C4",
          "ticks": 163872,
          "time": 266.71875,
          "velocity": 0.7874015748031497
        },
        {
          "duration": 0.3125,
          "durationTicks": 192,
          "midi": 65,
          "name": "F4",
          "ticks": 163968,
          "time": 266.875,
          "velocity": 0.7874015748031497
        },
        {
          "duration": 0.3125,
          "durationTicks": 192,
          "midi": 67,
          "name": "G4",
          "ticks": 164064,
          "time": 267.03125,
          "velocity": 0.7874015748031497
        },
        {
          "duration": 0.15625,
          "durationTicks": 96,
          "midi": 30,
          "name": "F#1",
          "ticks": 164160,
          "time": 267.1875,
          "velocity": 0.7874015748031497
        },
        {
          "duration": 0.3125,
          "durationTicks": 192,
          "midi": 60,
          "name": "C4",
          "ticks": 164160,
          "time": 267.1875,
          "velocity": 0.7874015748031497
        },
        {
          "duration": 0.15625,
          "durationTicks": 96,
          "midi": 53,
          "name": "F3",
          "ticks": 164160,
          "time": 267.1875,
          "velocity": 0.7874015748031497
        },
        {
          "duration": 0.15625,
          "durationTicks": 96,
          "midi": 30,
          "name": "F#1",
          "ticks": 164256,
          "time": 267.34375,
          "velocity": 0.5905511811023622
        },
        {
          "duration": 0.3125,
          "durationTicks": 192,
          "midi": 65,
          "name": "F4",
          "ticks": 164256,
          "time": 267.34375,
          "velocity": 0.7874015748031497
        },
        {
          "duration": 0.15625,
          "durationTicks": 96,
          "midi": 53,
          "name": "F3",
          "ticks": 164268,
          "time": 267.36328125,
          "velocity": 0.5905511811023622
        },
        {
          "duration": 0.46875,
          "durationTicks": 288,
          "midi": 27,
          "name": "D#1",
          "ticks": 164352,
          "time": 267.5,
          "velocity": 0.7874015748031497
        },
        {
          "duration": 0.46875,
          "durationTicks": 288,
          "midi": 58,
          "name": "A#3",
          "ticks": 164352,
          "time": 267.5,
          "velocity": 0.7874015748031497
        },
        {
          "duration": 0.3125,
          "durationTicks": 192,
          "midi": 60,
          "name": "C4",
          "ticks": 164352,
          "time": 267.5,
          "velocity": 0.7874015748031497
        },
        {
          "duration": 0.3125,
          "durationTicks": 192,
          "midi": 65,
          "name": "F4",
          "ticks": 164448,
          "time": 267.65625,
          "velocity": 0.7874015748031497
        },
        {
          "duration": 0.3125,
          "durationTicks": 192,
          "midi": 70,
          "name": "A#4",
          "ticks": 164544,
          "time": 267.8125,
          "velocity": 0.7874015748031497
        },
        {
          "duration": 0.3125,
          "durationTicks": 192,
          "midi": 60,
          "name": "C4",
          "ticks": 164640,
          "time": 267.96875,
          "velocity": 0.7874015748031497
        },
        {
          "duration": 0.46875,
          "durationTicks": 288,
          "midi": 27,
          "name": "D#1",
          "ticks": 164640,
          "time": 267.96875,
          "velocity": 0.7874015748031497
        },
        {
          "duration": 0.46875,
          "durationTicks": 288,
          "midi": 58,
          "name": "A#3",
          "ticks": 164640,
          "time": 267.96875,
          "velocity": 0.7874015748031497
        },
        {
          "duration": 0.3125,
          "durationTicks": 192,
          "midi": 65,
          "name": "F4",
          "ticks": 164736,
          "time": 268.125,
          "velocity": 0.7874015748031497
        },
        {
          "duration": 0.3125,
          "durationTicks": 192,
          "midi": 70,
          "name": "A#4",
          "ticks": 164832,
          "time": 268.28125,
          "velocity": 0.7874015748031497
        },
        {
          "duration": 0.3125,
          "durationTicks": 192,
          "midi": 60,
          "name": "C4",
          "ticks": 164928,
          "time": 268.4375,
          "velocity": 0.7874015748031497
        },
        {
          "duration": 0.15625,
          "durationTicks": 96,
          "midi": 53,
          "name": "F3",
          "ticks": 164928,
          "time": 268.4375,
          "velocity": 0.7874015748031497
        },
        {
          "duration": 0.3125,
          "durationTicks": 192,
          "midi": 27,
          "name": "D#1",
          "ticks": 164928,
          "time": 268.4375,
          "velocity": 0.7874015748031497
        },
        {
          "duration": 0.3125,
          "durationTicks": 192,
          "midi": 65,
          "name": "F4",
          "ticks": 165024,
          "time": 268.59375,
          "velocity": 0.7874015748031497
        },
        {
          "duration": 0.15625,
          "durationTicks": 96,
          "midi": 53,
          "name": "F3",
          "ticks": 165036,
          "time": 268.61328125,
          "velocity": 0.5905511811023622
        },
        {
          "duration": 0.46875,
          "durationTicks": 288,
          "midi": 27,
          "name": "D#1",
          "ticks": 165120,
          "time": 268.75,
          "velocity": 0.7874015748031497
        },
        {
          "duration": 0.3125,
          "durationTicks": 192,
          "midi": 60,
          "name": "C4",
          "ticks": 165120,
          "time": 268.75,
          "velocity": 0.7874015748031497
        },
        {
          "duration": 0.46875,
          "durationTicks": 288,
          "midi": 58,
          "name": "A#3",
          "ticks": 165120,
          "time": 268.75,
          "velocity": 0.7874015748031497
        },
        {
          "duration": 0.3125,
          "durationTicks": 192,
          "midi": 65,
          "name": "F4",
          "ticks": 165216,
          "time": 268.90625,
          "velocity": 0.7874015748031497
        },
        {
          "duration": 0.3125,
          "durationTicks": 192,
          "midi": 70,
          "name": "A#4",
          "ticks": 165312,
          "time": 269.0625,
          "velocity": 0.7874015748031497
        },
        {
          "duration": 0.3125,
          "durationTicks": 192,
          "midi": 60,
          "name": "C4",
          "ticks": 165408,
          "time": 269.21875,
          "velocity": 0.7874015748031497
        },
        {
          "duration": 0.46875,
          "durationTicks": 288,
          "midi": 58,
          "name": "A#3",
          "ticks": 165408,
          "time": 269.21875,
          "velocity": 0.7874015748031497
        },
        {
          "duration": 0.15625,
          "durationTicks": 96,
          "midi": 27,
          "name": "D#1",
          "ticks": 165408,
          "time": 269.21875,
          "velocity": 0.7874015748031497
        },
        {
          "duration": 0.3125,
          "durationTicks": 192,
          "midi": 65,
          "name": "F4",
          "ticks": 165504,
          "time": 269.375,
          "velocity": 0.7874015748031497
        },
        {
          "duration": 0.3125,
          "durationTicks": 192,
          "midi": 27,
          "name": "D#1",
          "ticks": 165504,
          "time": 269.375,
          "velocity": 0.5905511811023622
        },
        {
          "duration": 0.3125,
          "durationTicks": 192,
          "midi": 68,
          "name": "G#4",
          "ticks": 165600,
          "time": 269.53125,
          "velocity": 0.7874015748031497
        },
        {
          "duration": 0.15625,
          "durationTicks": 96,
          "midi": 27,
          "name": "D#1",
          "ticks": 165696,
          "time": 269.6875,
          "velocity": 0.7874015748031497
        },
        {
          "duration": 0.15625,
          "durationTicks": 96,
          "midi": 56,
          "name": "G#3",
          "ticks": 165696,
          "time": 269.6875,
          "velocity": 0.7874015748031497
        },
        {
          "duration": 0.3125,
          "durationTicks": 192,
          "midi": 60,
          "name": "C4",
          "ticks": 165696,
          "time": 269.6875,
          "velocity": 0.7874015748031497
        },
        {
          "duration": 0.3125,
          "durationTicks": 192,
          "midi": 67,
          "name": "G4",
          "ticks": 165792,
          "time": 269.84375,
          "velocity": 0.7874015748031497
        },
        {
          "duration": 0.15625,
          "durationTicks": 96,
          "midi": 27,
          "name": "D#1",
          "ticks": 165792,
          "time": 269.84375,
          "velocity": 0.5905511811023622
        },
        {
          "duration": 0.15625,
          "durationTicks": 96,
          "midi": 55,
          "name": "G3",
          "ticks": 165828,
          "time": 269.90234375,
          "velocity": 0.7874015748031497
        },
        {
          "duration": 0.3125,
          "durationTicks": 192,
          "midi": 60,
          "name": "C4",
          "ticks": 165888,
          "time": 270,
          "velocity": 0.7874015748031497
        },
        {
          "duration": 0.46875,
          "durationTicks": 288,
          "midi": 55,
          "name": "G3",
          "ticks": 165888,
          "time": 270,
          "velocity": 0.7874015748031497
        },
        {
          "duration": 0.46875,
          "durationTicks": 288,
          "midi": 24,
          "name": "C1",
          "ticks": 165888,
          "time": 270,
          "velocity": 0.7874015748031497
        },
        {
          "duration": 0.3125,
          "durationTicks": 192,
          "midi": 65,
          "name": "F4",
          "ticks": 165984,
          "time": 270.15625,
          "velocity": 0.7874015748031497
        },
        {
          "duration": 0.3125,
          "durationTicks": 192,
          "midi": 67,
          "name": "G4",
          "ticks": 166080,
          "time": 270.3125,
          "velocity": 0.7874015748031497
        },
        {
          "duration": 2.03125,
          "durationTicks": 1248,
          "midi": 25,
          "name": "C#1",
          "ticks": 166176,
          "time": 270.46875,
          "velocity": 0.7874015748031497
        },
        {
          "duration": 0.46875,
          "durationTicks": 288,
          "midi": 55,
          "name": "G3",
          "ticks": 166176,
          "time": 270.46875,
          "velocity": 0.7874015748031497
        },
        {
          "duration": 0.3125,
          "durationTicks": 192,
          "midi": 60,
          "name": "C4",
          "ticks": 166176,
          "time": 270.46875,
          "velocity": 0.7874015748031497
        },
        {
          "duration": 0.3125,
          "durationTicks": 192,
          "midi": 65,
          "name": "F4",
          "ticks": 166272,
          "time": 270.625,
          "velocity": 0.7874015748031497
        },
        {
          "duration": 0.3125,
          "durationTicks": 192,
          "midi": 67,
          "name": "G4",
          "ticks": 166368,
          "time": 270.78125,
          "velocity": 0.7874015748031497
        },
        {
          "duration": 0.3125,
          "durationTicks": 192,
          "midi": 60,
          "name": "C4",
          "ticks": 166464,
          "time": 270.9375,
          "velocity": 0.7874015748031497
        },
        {
          "duration": 0.15625,
          "durationTicks": 96,
          "midi": 53,
          "name": "F3",
          "ticks": 166464,
          "time": 270.9375,
          "velocity": 0.7874015748031497
        },
        {
          "duration": 0.3125,
          "durationTicks": 192,
          "midi": 65,
          "name": "F4",
          "ticks": 166560,
          "time": 271.09375,
          "velocity": 0.7874015748031497
        },
        {
          "duration": 0.15625,
          "durationTicks": 96,
          "midi": 53,
          "name": "F3",
          "ticks": 166572,
          "time": 271.11328125,
          "velocity": 0.5905511811023622
        },
        {
          "duration": 0.3125,
          "durationTicks": 192,
          "midi": 60,
          "name": "C4",
          "ticks": 166656,
          "time": 271.25,
          "velocity": 0.7874015748031497
        },
        {
          "duration": 0.46875,
          "durationTicks": 288,
          "midi": 55,
          "name": "G3",
          "ticks": 166656,
          "time": 271.25,
          "velocity": 0.7874015748031497
        },
        {
          "duration": 0.3125,
          "durationTicks": 192,
          "midi": 65,
          "name": "F4",
          "ticks": 166752,
          "time": 271.40625,
          "velocity": 0.7874015748031497
        },
        {
          "duration": 0.3125,
          "durationTicks": 192,
          "midi": 67,
          "name": "G4",
          "ticks": 166848,
          "time": 271.5625,
          "velocity": 0.7874015748031497
        },
        {
          "duration": 0.46875,
          "durationTicks": 288,
          "midi": 55,
          "name": "G3",
          "ticks": 166944,
          "time": 271.71875,
          "velocity": 0.7874015748031497
        },
        {
          "duration": 0.3125,
          "durationTicks": 192,
          "midi": 60,
          "name": "C4",
          "ticks": 166944,
          "time": 271.71875,
          "velocity": 0.7874015748031497
        },
        {
          "duration": 0.3125,
          "durationTicks": 192,
          "midi": 65,
          "name": "F4",
          "ticks": 167040,
          "time": 271.875,
          "velocity": 0.7874015748031497
        },
        {
          "duration": 0.3125,
          "durationTicks": 192,
          "midi": 67,
          "name": "G4",
          "ticks": 167136,
          "time": 272.03125,
          "velocity": 0.7874015748031497
        },
        {
          "duration": 0.15625,
          "durationTicks": 96,
          "midi": 53,
          "name": "F3",
          "ticks": 167232,
          "time": 272.1875,
          "velocity": 0.7874015748031497
        },
        {
          "duration": 0.3125,
          "durationTicks": 192,
          "midi": 60,
          "name": "C4",
          "ticks": 167232,
          "time": 272.1875,
          "velocity": 0.7874015748031497
        },
        {
          "duration": 0.3125,
          "durationTicks": 192,
          "midi": 65,
          "name": "F4",
          "ticks": 167328,
          "time": 272.34375,
          "velocity": 0.7874015748031497
        },
        {
          "duration": 0.15625,
          "durationTicks": 96,
          "midi": 53,
          "name": "F3",
          "ticks": 167340,
          "time": 272.36328125,
          "velocity": 0.5905511811023622
        },
        {
          "duration": 0.3125,
          "durationTicks": 192,
          "midi": 60,
          "name": "C4",
          "ticks": 167424,
          "time": 272.5,
          "velocity": 0.7874015748031497
        },
        {
          "duration": 0.46875,
          "durationTicks": 288,
          "midi": 24,
          "name": "C1",
          "ticks": 167424,
          "time": 272.5,
          "velocity": 0.7874015748031497
        },
        {
          "duration": 0.46875,
          "durationTicks": 288,
          "midi": 56,
          "name": "G#3",
          "ticks": 167424,
          "time": 272.5,
          "velocity": 0.7874015748031497
        },
        {
          "duration": 0.3125,
          "durationTicks": 192,
          "midi": 65,
          "name": "F4",
          "ticks": 167520,
          "time": 272.65625,
          "velocity": 0.7874015748031497
        },
        {
          "duration": 0.3125,
          "durationTicks": 192,
          "midi": 68,
          "name": "G#4",
          "ticks": 167616,
          "time": 272.8125,
          "velocity": 0.7874015748031497
        },
        {
          "duration": 0.3125,
          "durationTicks": 192,
          "midi": 60,
          "name": "C4",
          "ticks": 167712,
          "time": 272.96875,
          "velocity": 0.7874015748031497
        },
        {
          "duration": 0.46875,
          "durationTicks": 288,
          "midi": 25,
          "name": "C#1",
          "ticks": 167712,
          "time": 272.96875,
          "velocity": 0.7874015748031497
        },
        {
          "duration": 0.46875,
          "durationTicks": 288,
          "midi": 56,
          "name": "G#3",
          "ticks": 167712,
          "time": 272.96875,
          "velocity": 0.7874015748031497
        },
        {
          "duration": 0.3125,
          "durationTicks": 192,
          "midi": 65,
          "name": "F4",
          "ticks": 167808,
          "time": 273.125,
          "velocity": 0.7874015748031497
        },
        {
          "duration": 0.3125,
          "durationTicks": 192,
          "midi": 68,
          "name": "G#4",
          "ticks": 167904,
          "time": 273.28125,
          "velocity": 0.7874015748031497
        },
        {
          "duration": 0.15625,
          "durationTicks": 96,
          "midi": 53,
          "name": "F3",
          "ticks": 168000,
          "time": 273.4375,
          "velocity": 0.7874015748031497
        },
        {
          "duration": 0.3125,
          "durationTicks": 192,
          "midi": 27,
          "name": "D#1",
          "ticks": 168000,
          "time": 273.4375,
          "velocity": 0.7874015748031497
        },
        {
          "duration": 0.3125,
          "durationTicks": 192,
          "midi": 60,
          "name": "C4",
          "ticks": 168000,
          "time": 273.4375,
          "velocity": 0.7874015748031497
        },
        {
          "duration": 0.3125,
          "durationTicks": 192,
          "midi": 65,
          "name": "F4",
          "ticks": 168096,
          "time": 273.59375,
          "velocity": 0.7874015748031497
        },
        {
          "duration": 0.15625,
          "durationTicks": 96,
          "midi": 53,
          "name": "F3",
          "ticks": 168108,
          "time": 273.61328125,
          "velocity": 0.5905511811023622
        },
        {
          "duration": 1.25,
          "durationTicks": 768,
          "midi": 29,
          "name": "F1",
          "ticks": 168192,
          "time": 273.75,
          "velocity": 0.7874015748031497
        },
        {
          "duration": 0.3125,
          "durationTicks": 192,
          "midi": 60,
          "name": "C4",
          "ticks": 168192,
          "time": 273.75,
          "velocity": 0.7874015748031497
        },
        {
          "duration": 0.46875,
          "durationTicks": 288,
          "midi": 56,
          "name": "G#3",
          "ticks": 168192,
          "time": 273.75,
          "velocity": 0.7874015748031497
        },
        {
          "duration": 0.3125,
          "durationTicks": 192,
          "midi": 65,
          "name": "F4",
          "ticks": 168288,
          "time": 273.90625,
          "velocity": 0.7874015748031497
        },
        {
          "duration": 0.3125,
          "durationTicks": 192,
          "midi": 68,
          "name": "G#4",
          "ticks": 168384,
          "time": 274.0625,
          "velocity": 0.7874015748031497
        },
        {
          "duration": 0.3125,
          "durationTicks": 192,
          "midi": 60,
          "name": "C4",
          "ticks": 168480,
          "time": 274.21875,
          "velocity": 0.7874015748031497
        },
        {
          "duration": 0.46875,
          "durationTicks": 288,
          "midi": 56,
          "name": "G#3",
          "ticks": 168480,
          "time": 274.21875,
          "velocity": 0.7874015748031497
        },
        {
          "duration": 0.3125,
          "durationTicks": 192,
          "midi": 65,
          "name": "F4",
          "ticks": 168576,
          "time": 274.375,
          "velocity": 0.7874015748031497
        },
        {
          "duration": 0.3125,
          "durationTicks": 192,
          "midi": 68,
          "name": "G#4",
          "ticks": 168672,
          "time": 274.53125,
          "velocity": 0.7874015748031497
        },
        {
          "duration": 0.3125,
          "durationTicks": 192,
          "midi": 60,
          "name": "C4",
          "ticks": 168768,
          "time": 274.6875,
          "velocity": 0.7874015748031497
        },
        {
          "duration": 0.15625,
          "durationTicks": 96,
          "midi": 53,
          "name": "F3",
          "ticks": 168768,
          "time": 274.6875,
          "velocity": 0.7874015748031497
        },
        {
          "duration": 0.3125,
          "durationTicks": 192,
          "midi": 65,
          "name": "F4",
          "ticks": 168864,
          "time": 274.84375,
          "velocity": 0.7874015748031497
        },
        {
          "duration": 0.15625,
          "durationTicks": 96,
          "midi": 53,
          "name": "F3",
          "ticks": 168876,
          "time": 274.86328125,
          "velocity": 0.5905511811023622
        },
        {
          "duration": 0.46875,
          "durationTicks": 288,
          "midi": 24,
          "name": "C1",
          "ticks": 168960,
          "time": 275,
          "velocity": 0.7874015748031497
        },
        {
          "duration": 0.46875,
          "durationTicks": 288,
          "midi": 55,
          "name": "G3",
          "ticks": 168960,
          "time": 275,
          "velocity": 0.7874015748031497
        },
        {
          "duration": 0.3125,
          "durationTicks": 192,
          "midi": 60,
          "name": "C4",
          "ticks": 168960,
          "time": 275,
          "velocity": 0.7874015748031497
        },
        {
          "duration": 0.3125,
          "durationTicks": 192,
          "midi": 65,
          "name": "F4",
          "ticks": 169056,
          "time": 275.15625,
          "velocity": 0.7874015748031497
        },
        {
          "duration": 0.3125,
          "durationTicks": 192,
          "midi": 67,
          "name": "G4",
          "ticks": 169152,
          "time": 275.3125,
          "velocity": 0.7874015748031497
        },
        {
          "duration": 2.03125,
          "durationTicks": 1248,
          "midi": 25,
          "name": "C#1",
          "ticks": 169248,
          "time": 275.46875,
          "velocity": 0.7874015748031497
        },
        {
          "duration": 0.3125,
          "durationTicks": 192,
          "midi": 60,
          "name": "C4",
          "ticks": 169248,
          "time": 275.46875,
          "velocity": 0.7874015748031497
        },
        {
          "duration": 0.46875,
          "durationTicks": 288,
          "midi": 55,
          "name": "G3",
          "ticks": 169248,
          "time": 275.46875,
          "velocity": 0.7874015748031497
        },
        {
          "duration": 0.3125,
          "durationTicks": 192,
          "midi": 65,
          "name": "F4",
          "ticks": 169344,
          "time": 275.625,
          "velocity": 0.7874015748031497
        },
        {
          "duration": 0.3125,
          "durationTicks": 192,
          "midi": 67,
          "name": "G4",
          "ticks": 169440,
          "time": 275.78125,
          "velocity": 0.7874015748031497
        },
        {
          "duration": 0.3125,
          "durationTicks": 192,
          "midi": 60,
          "name": "C4",
          "ticks": 169536,
          "time": 275.9375,
          "velocity": 0.7874015748031497
        },
        {
          "duration": 0.15625,
          "durationTicks": 96,
          "midi": 53,
          "name": "F3",
          "ticks": 169536,
          "time": 275.9375,
          "velocity": 0.7874015748031497
        },
        {
          "duration": 0.3125,
          "durationTicks": 192,
          "midi": 65,
          "name": "F4",
          "ticks": 169632,
          "time": 276.09375,
          "velocity": 0.7874015748031497
        },
        {
          "duration": 0.15625,
          "durationTicks": 96,
          "midi": 53,
          "name": "F3",
          "ticks": 169644,
          "time": 276.11328125,
          "velocity": 0.5905511811023622
        },
        {
          "duration": 0.46875,
          "durationTicks": 288,
          "midi": 55,
          "name": "G3",
          "ticks": 169728,
          "time": 276.25,
          "velocity": 0.7874015748031497
        },
        {
          "duration": 0.3125,
          "durationTicks": 192,
          "midi": 60,
          "name": "C4",
          "ticks": 169728,
          "time": 276.25,
          "velocity": 0.7874015748031497
        },
        {
          "duration": 0.3125,
          "durationTicks": 192,
          "midi": 65,
          "name": "F4",
          "ticks": 169824,
          "time": 276.40625,
          "velocity": 0.7874015748031497
        },
        {
          "duration": 0.3125,
          "durationTicks": 192,
          "midi": 67,
          "name": "G4",
          "ticks": 169920,
          "time": 276.5625,
          "velocity": 0.7874015748031497
        },
        {
          "duration": 0.46875,
          "durationTicks": 288,
          "midi": 55,
          "name": "G3",
          "ticks": 170016,
          "time": 276.71875,
          "velocity": 0.7874015748031497
        },
        {
          "duration": 0.3125,
          "durationTicks": 192,
          "midi": 60,
          "name": "C4",
          "ticks": 170016,
          "time": 276.71875,
          "velocity": 0.7874015748031497
        },
        {
          "duration": 0.3125,
          "durationTicks": 192,
          "midi": 65,
          "name": "F4",
          "ticks": 170112,
          "time": 276.875,
          "velocity": 0.7874015748031497
        },
        {
          "duration": 0.3125,
          "durationTicks": 192,
          "midi": 67,
          "name": "G4",
          "ticks": 170208,
          "time": 277.03125,
          "velocity": 0.7874015748031497
        },
        {
          "duration": 0.15625,
          "durationTicks": 96,
          "midi": 53,
          "name": "F3",
          "ticks": 170304,
          "time": 277.1875,
          "velocity": 0.7874015748031497
        },
        {
          "duration": 0.3125,
          "durationTicks": 192,
          "midi": 60,
          "name": "C4",
          "ticks": 170304,
          "time": 277.1875,
          "velocity": 0.7874015748031497
        },
        {
          "duration": 0.3125,
          "durationTicks": 192,
          "midi": 65,
          "name": "F4",
          "ticks": 170400,
          "time": 277.34375,
          "velocity": 0.7874015748031497
        },
        {
          "duration": 0.15625,
          "durationTicks": 96,
          "midi": 53,
          "name": "F3",
          "ticks": 170412,
          "time": 277.36328125,
          "velocity": 0.5905511811023622
        },
        {
          "duration": 0.46875,
          "durationTicks": 288,
          "midi": 29,
          "name": "F1",
          "ticks": 170496,
          "time": 277.5,
          "velocity": 0.7874015748031497
        },
        {
          "duration": 0.3125,
          "durationTicks": 192,
          "midi": 60,
          "name": "C4",
          "ticks": 170496,
          "time": 277.5,
          "velocity": 0.7874015748031497
        },
        {
          "duration": 0.46875,
          "durationTicks": 288,
          "midi": 58,
          "name": "A#3",
          "ticks": 170496,
          "time": 277.5,
          "velocity": 0.7874015748031497
        },
        {
          "duration": 0.3125,
          "durationTicks": 192,
          "midi": 65,
          "name": "F4",
          "ticks": 170592,
          "time": 277.65625,
          "velocity": 0.7874015748031497
        },
        {
          "duration": 0.3125,
          "durationTicks": 192,
          "midi": 70,
          "name": "A#4",
          "ticks": 170688,
          "time": 277.8125,
          "velocity": 0.7874015748031497
        },
        {
          "duration": 0.3125,
          "durationTicks": 192,
          "midi": 60,
          "name": "C4",
          "ticks": 170784,
          "time": 277.96875,
          "velocity": 0.7874015748031497
        },
        {
          "duration": 0.46875,
          "durationTicks": 288,
          "midi": 27,
          "name": "D#1",
          "ticks": 170784,
          "time": 277.96875,
          "velocity": 0.7874015748031497
        },
        {
          "duration": 0.46875,
          "durationTicks": 288,
          "midi": 58,
          "name": "A#3",
          "ticks": 170784,
          "time": 277.96875,
          "velocity": 0.7874015748031497
        },
        {
          "duration": 0.3125,
          "durationTicks": 192,
          "midi": 65,
          "name": "F4",
          "ticks": 170880,
          "time": 278.125,
          "velocity": 0.7874015748031497
        },
        {
          "duration": 0.3125,
          "durationTicks": 192,
          "midi": 70,
          "name": "A#4",
          "ticks": 170976,
          "time": 278.28125,
          "velocity": 0.7874015748031497
        },
        {
          "duration": 0.15625,
          "durationTicks": 96,
          "midi": 53,
          "name": "F3",
          "ticks": 171072,
          "time": 278.4375,
          "velocity": 0.7874015748031497
        },
        {
          "duration": 0.3125,
          "durationTicks": 192,
          "midi": 60,
          "name": "C4",
          "ticks": 171072,
          "time": 278.4375,
          "velocity": 0.7874015748031497
        },
        {
          "duration": 0.3125,
          "durationTicks": 192,
          "midi": 26,
          "name": "D1",
          "ticks": 171072,
          "time": 278.4375,
          "velocity": 0.7874015748031497
        },
        {
          "duration": 0.3125,
          "durationTicks": 192,
          "midi": 65,
          "name": "F4",
          "ticks": 171168,
          "time": 278.59375,
          "velocity": 0.7874015748031497
        },
        {
          "duration": 0.15625,
          "durationTicks": 96,
          "midi": 53,
          "name": "F3",
          "ticks": 171180,
          "time": 278.61328125,
          "velocity": 0.5905511811023622
        },
        {
          "duration": 0.3125,
          "durationTicks": 192,
          "midi": 60,
          "name": "C4",
          "ticks": 171264,
          "time": 278.75,
          "velocity": 0.7874015748031497
        },
        {
          "duration": 0.46875,
          "durationTicks": 288,
          "midi": 58,
          "name": "A#3",
          "ticks": 171264,
          "time": 278.75,
          "velocity": 0.7874015748031497
        },
        {
          "duration": 0.46875,
          "durationTicks": 288,
          "midi": 27,
          "name": "D#1",
          "ticks": 171264,
          "time": 278.75,
          "velocity": 0.7874015748031497
        },
        {
          "duration": 0.3125,
          "durationTicks": 192,
          "midi": 65,
          "name": "F4",
          "ticks": 171360,
          "time": 278.90625,
          "velocity": 0.7874015748031497
        },
        {
          "duration": 0.3125,
          "durationTicks": 192,
          "midi": 70,
          "name": "A#4",
          "ticks": 171456,
          "time": 279.0625,
          "velocity": 0.7874015748031497
        },
        {
          "duration": 0.46875,
          "durationTicks": 288,
          "midi": 58,
          "name": "A#3",
          "ticks": 171552,
          "time": 279.21875,
          "velocity": 0.7874015748031497
        },
        {
          "duration": 0.3125,
          "durationTicks": 192,
          "midi": 60,
          "name": "C4",
          "ticks": 171552,
          "time": 279.21875,
          "velocity": 0.7874015748031497
        },
        {
          "duration": 0.46875,
          "durationTicks": 288,
          "midi": 26,
          "name": "D1",
          "ticks": 171552,
          "time": 279.21875,
          "velocity": 0.7874015748031497
        },
        {
          "duration": 0.3125,
          "durationTicks": 192,
          "midi": 65,
          "name": "F4",
          "ticks": 171648,
          "time": 279.375,
          "velocity": 0.7874015748031497
        },
        {
          "duration": 0.3125,
          "durationTicks": 192,
          "midi": 68,
          "name": "G#4",
          "ticks": 171744,
          "time": 279.53125,
          "velocity": 0.7874015748031497
        },
        {
          "duration": 0.3125,
          "durationTicks": 192,
          "midi": 25,
          "name": "C#1",
          "ticks": 171840,
          "time": 279.6875,
          "velocity": 0.7874015748031497
        },
        {
          "duration": 0.3125,
          "durationTicks": 192,
          "midi": 60,
          "name": "C4",
          "ticks": 171840,
          "time": 279.6875,
          "velocity": 0.7874015748031497
        },
        {
          "duration": 0.15625,
          "durationTicks": 96,
          "midi": 56,
          "name": "G#3",
          "ticks": 171840,
          "time": 279.6875,
          "velocity": 0.7874015748031497
        },
        {
          "duration": 0.3125,
          "durationTicks": 192,
          "midi": 67,
          "name": "G4",
          "ticks": 171936,
          "time": 279.84375,
          "velocity": 0.7874015748031497
        },
        {
          "duration": 0.15625,
          "durationTicks": 96,
          "midi": 55,
          "name": "G3",
          "ticks": 171972,
          "time": 279.90234375,
          "velocity": 0.7874015748031497
        },
        {
          "duration": 0.3125,
          "durationTicks": 192,
          "midi": 60,
          "name": "C4",
          "ticks": 172032,
          "time": 280,
          "velocity": 0.7874015748031497
        },
        {
          "duration": 0.46875,
          "durationTicks": 288,
          "midi": 24,
          "name": "C1",
          "ticks": 172032,
          "time": 280,
          "velocity": 0.7874015748031497
        },
        {
          "duration": 0.46875,
          "durationTicks": 288,
          "midi": 55,
          "name": "G3",
          "ticks": 172032,
          "time": 280,
          "velocity": 0.7874015748031497
        },
        {
          "duration": 0.3125,
          "durationTicks": 192,
          "midi": 65,
          "name": "F4",
          "ticks": 172128,
          "time": 280.15625,
          "velocity": 0.7874015748031497
        },
        {
          "duration": 0.3125,
          "durationTicks": 192,
          "midi": 67,
          "name": "G4",
          "ticks": 172224,
          "time": 280.3125,
          "velocity": 0.7874015748031497
        },
        {
          "duration": 0.46875,
          "durationTicks": 288,
          "midi": 55,
          "name": "G3",
          "ticks": 172320,
          "time": 280.46875,
          "velocity": 0.7874015748031497
        },
        {
          "duration": 0.46875,
          "durationTicks": 288,
          "midi": 24,
          "name": "C1",
          "ticks": 172320,
          "time": 280.46875,
          "velocity": 0.7874015748031497
        },
        {
          "duration": 0.3125,
          "durationTicks": 192,
          "midi": 60,
          "name": "C4",
          "ticks": 172320,
          "time": 280.46875,
          "velocity": 0.7874015748031497
        },
        {
          "duration": 0.3125,
          "durationTicks": 192,
          "midi": 65,
          "name": "F4",
          "ticks": 172416,
          "time": 280.625,
          "velocity": 0.7874015748031497
        },
        {
          "duration": 0.3125,
          "durationTicks": 192,
          "midi": 67,
          "name": "G4",
          "ticks": 172512,
          "time": 280.78125,
          "velocity": 0.7874015748031497
        },
        {
          "duration": 0.15625,
          "durationTicks": 96,
          "midi": 24,
          "name": "C1",
          "ticks": 172608,
          "time": 280.9375,
          "velocity": 0.7874015748031497
        },
        {
          "duration": 0.3125,
          "durationTicks": 192,
          "midi": 60,
          "name": "C4",
          "ticks": 172608,
          "time": 280.9375,
          "velocity": 0.7874015748031497
        },
        {
          "duration": 0.15625,
          "durationTicks": 96,
          "midi": 53,
          "name": "F3",
          "ticks": 172608,
          "time": 280.9375,
          "velocity": 0.7874015748031497
        },
        {
          "duration": 0.3125,
          "durationTicks": 192,
          "midi": 65,
          "name": "F4",
          "ticks": 172704,
          "time": 281.09375,
          "velocity": 0.7874015748031497
        },
        {
          "duration": 0.15625,
          "durationTicks": 96,
          "midi": 24,
          "name": "C1",
          "ticks": 172704,
          "time": 281.09375,
          "velocity": 0.5905511811023622
        },
        {
          "duration": 0.15625,
          "durationTicks": 96,
          "midi": 53,
          "name": "F3",
          "ticks": 172716,
          "time": 281.11328125,
          "velocity": 0.5905511811023622
        },
        {
          "duration": 0.3125,
          "durationTicks": 192,
          "midi": 60,
          "name": "C4",
          "ticks": 172800,
          "time": 281.25,
          "velocity": 0.7874015748031497
        },
        {
          "duration": 0.46875,
          "durationTicks": 288,
          "midi": 24,
          "name": "C1",
          "ticks": 172800,
          "time": 281.25,
          "velocity": 0.7874015748031497
        },
        {
          "duration": 0.46875,
          "durationTicks": 288,
          "midi": 55,
          "name": "G3",
          "ticks": 172800,
          "time": 281.25,
          "velocity": 0.7874015748031497
        },
        {
          "duration": 0.3125,
          "durationTicks": 192,
          "midi": 65,
          "name": "F4",
          "ticks": 172896,
          "time": 281.40625,
          "velocity": 0.7874015748031497
        },
        {
          "duration": 0.3125,
          "durationTicks": 192,
          "midi": 67,
          "name": "G4",
          "ticks": 172992,
          "time": 281.5625,
          "velocity": 0.7874015748031497
        },
        {
          "duration": 0.3125,
          "durationTicks": 192,
          "midi": 60,
          "name": "C4",
          "ticks": 173088,
          "time": 281.71875,
          "velocity": 0.7874015748031497
        },
        {
          "duration": 0.46875,
          "durationTicks": 288,
          "midi": 55,
          "name": "G3",
          "ticks": 173088,
          "time": 281.71875,
          "velocity": 0.7874015748031497
        },
        {
          "duration": 0.15625,
          "durationTicks": 96,
          "midi": 24,
          "name": "C1",
          "ticks": 173088,
          "time": 281.71875,
          "velocity": 0.7874015748031497
        },
        {
          "duration": 0.3125,
          "durationTicks": 192,
          "midi": 24,
          "name": "C1",
          "ticks": 173184,
          "time": 281.875,
          "velocity": 0.5905511811023622
        },
        {
          "duration": 0.3125,
          "durationTicks": 192,
          "midi": 65,
          "name": "F4",
          "ticks": 173184,
          "time": 281.875,
          "velocity": 0.7874015748031497
        },
        {
          "duration": 0.3125,
          "durationTicks": 192,
          "midi": 67,
          "name": "G4",
          "ticks": 173280,
          "time": 282.03125,
          "velocity": 0.7874015748031497
        },
        {
          "duration": 0.3125,
          "durationTicks": 192,
          "midi": 24,
          "name": "C1",
          "ticks": 173376,
          "time": 282.1875,
          "velocity": 0.7874015748031497
        },
        {
          "duration": 0.3125,
          "durationTicks": 192,
          "midi": 60,
          "name": "C4",
          "ticks": 173376,
          "time": 282.1875,
          "velocity": 0.7874015748031497
        },
        {
          "duration": 0.15625,
          "durationTicks": 96,
          "midi": 53,
          "name": "F3",
          "ticks": 173376,
          "time": 282.1875,
          "velocity": 0.7874015748031497
        },
        {
          "duration": 0.3125,
          "durationTicks": 192,
          "midi": 65,
          "name": "F4",
          "ticks": 173472,
          "time": 282.34375,
          "velocity": 0.7874015748031497
        },
        {
          "duration": 0.15625,
          "durationTicks": 96,
          "midi": 53,
          "name": "F3",
          "ticks": 173484,
          "time": 282.36328125,
          "velocity": 0.5905511811023622
        },
        {
          "duration": 0.46875,
          "durationTicks": 288,
          "midi": 25,
          "name": "C#1",
          "ticks": 173568,
          "time": 282.5,
          "velocity": 0.7874015748031497
        },
        {
          "duration": 0.3125,
          "durationTicks": 192,
          "midi": 60,
          "name": "C4",
          "ticks": 173568,
          "time": 282.5,
          "velocity": 0.7874015748031497
        },
        {
          "duration": 0.46875,
          "durationTicks": 288,
          "midi": 56,
          "name": "G#3",
          "ticks": 173568,
          "time": 282.5,
          "velocity": 0.7874015748031497
        },
        {
          "duration": 0.3125,
          "durationTicks": 192,
          "midi": 65,
          "name": "F4",
          "ticks": 173664,
          "time": 282.65625,
          "velocity": 0.7874015748031497
        },
        {
          "duration": 0.3125,
          "durationTicks": 192,
          "midi": 68,
          "name": "G#4",
          "ticks": 173760,
          "time": 282.8125,
          "velocity": 0.7874015748031497
        },
        {
          "duration": 0.46875,
          "durationTicks": 288,
          "midi": 56,
          "name": "G#3",
          "ticks": 173856,
          "time": 282.96875,
          "velocity": 0.7874015748031497
        },
        {
          "duration": 0.15625,
          "durationTicks": 96,
          "midi": 25,
          "name": "C#1",
          "ticks": 173856,
          "time": 282.96875,
          "velocity": 0.7874015748031497
        },
        {
          "duration": 0.3125,
          "durationTicks": 192,
          "midi": 60,
          "name": "C4",
          "ticks": 173856,
          "time": 282.96875,
          "velocity": 0.7874015748031497
        },
        {
          "duration": 0.3125,
          "durationTicks": 192,
          "midi": 65,
          "name": "F4",
          "ticks": 173952,
          "time": 283.125,
          "velocity": 0.7874015748031497
        },
        {
          "duration": 0.3125,
          "durationTicks": 192,
          "midi": 25,
          "name": "C#1",
          "ticks": 173952,
          "time": 283.125,
          "velocity": 0.5905511811023622
        },
        {
          "duration": 0.3125,
          "durationTicks": 192,
          "midi": 68,
          "name": "G#4",
          "ticks": 174048,
          "time": 283.28125,
          "velocity": 0.7874015748031497
        },
        {
          "duration": 0.15625,
          "durationTicks": 96,
          "midi": 53,
          "name": "F3",
          "ticks": 174144,
          "time": 283.4375,
          "velocity": 0.7874015748031497
        },
        {
          "duration": 0.3125,
          "durationTicks": 192,
          "midi": 25,
          "name": "C#1",
          "ticks": 174144,
          "time": 283.4375,
          "velocity": 0.7874015748031497
        },
        {
          "duration": 0.3125,
          "durationTicks": 192,
          "midi": 60,
          "name": "C4",
          "ticks": 174144,
          "time": 283.4375,
          "velocity": 0.7874015748031497
        },
        {
          "duration": 0.3125,
          "durationTicks": 192,
          "midi": 65,
          "name": "F4",
          "ticks": 174240,
          "time": 283.59375,
          "velocity": 0.7874015748031497
        },
        {
          "duration": 0.15625,
          "durationTicks": 96,
          "midi": 53,
          "name": "F3",
          "ticks": 174252,
          "time": 283.61328125,
          "velocity": 0.5905511811023622
        },
        {
          "duration": 0.3125,
          "durationTicks": 192,
          "midi": 60,
          "name": "C4",
          "ticks": 174336,
          "time": 283.75,
          "velocity": 0.7874015748031497
        },
        {
          "duration": 0.46875,
          "durationTicks": 288,
          "midi": 56,
          "name": "G#3",
          "ticks": 174336,
          "time": 283.75,
          "velocity": 0.7874015748031497
        },
        {
          "duration": 0.46875,
          "durationTicks": 288,
          "midi": 25,
          "name": "C#1",
          "ticks": 174336,
          "time": 283.75,
          "velocity": 0.7874015748031497
        },
        {
          "duration": 0.3125,
          "durationTicks": 192,
          "midi": 65,
          "name": "F4",
          "ticks": 174432,
          "time": 283.90625,
          "velocity": 0.7874015748031497
        },
        {
          "duration": 0.3125,
          "durationTicks": 192,
          "midi": 68,
          "name": "G#4",
          "ticks": 174528,
          "time": 284.0625,
          "velocity": 0.7874015748031497
        },
        {
          "duration": 0.46875,
          "durationTicks": 288,
          "midi": 56,
          "name": "G#3",
          "ticks": 174624,
          "time": 284.21875,
          "velocity": 0.7874015748031497
        },
        {
          "duration": 0.46875,
          "durationTicks": 288,
          "midi": 25,
          "name": "C#1",
          "ticks": 174624,
          "time": 284.21875,
          "velocity": 0.7874015748031497
        },
        {
          "duration": 0.3125,
          "durationTicks": 192,
          "midi": 60,
          "name": "C4",
          "ticks": 174624,
          "time": 284.21875,
          "velocity": 0.7874015748031497
        },
        {
          "duration": 0.3125,
          "durationTicks": 192,
          "midi": 65,
          "name": "F4",
          "ticks": 174720,
          "time": 284.375,
          "velocity": 0.7874015748031497
        },
        {
          "duration": 0.3125,
          "durationTicks": 192,
          "midi": 68,
          "name": "G#4",
          "ticks": 174816,
          "time": 284.53125,
          "velocity": 0.7874015748031497
        },
        {
          "duration": 0.15625,
          "durationTicks": 96,
          "midi": 25,
          "name": "C#1",
          "ticks": 174912,
          "time": 284.6875,
          "velocity": 0.7874015748031497
        },
        {
          "duration": 0.3125,
          "durationTicks": 192,
          "midi": 60,
          "name": "C4",
          "ticks": 174912,
          "time": 284.6875,
          "velocity": 0.7874015748031497
        },
        {
          "duration": 0.15625,
          "durationTicks": 96,
          "midi": 53,
          "name": "F3",
          "ticks": 174912,
          "time": 284.6875,
          "velocity": 0.7874015748031497
        },
        {
          "duration": 0.15625,
          "durationTicks": 96,
          "midi": 25,
          "name": "C#1",
          "ticks": 175008,
          "time": 284.84375,
          "velocity": 0.5905511811023622
        },
        {
          "duration": 0.3125,
          "durationTicks": 192,
          "midi": 65,
          "name": "F4",
          "ticks": 175008,
          "time": 284.84375,
          "velocity": 0.7874015748031497
        },
        {
          "duration": 0.15625,
          "durationTicks": 96,
          "midi": 53,
          "name": "F3",
          "ticks": 175020,
          "time": 284.86328125,
          "velocity": 0.5905511811023622
        },
        {
          "duration": 0.46875,
          "durationTicks": 288,
          "midi": 27,
          "name": "D#1",
          "ticks": 175104,
          "time": 285,
          "velocity": 0.7874015748031497
        },
        {
          "duration": 0.46875,
          "durationTicks": 288,
          "midi": 55,
          "name": "G3",
          "ticks": 175104,
          "time": 285,
          "velocity": 0.7874015748031497
        },
        {
          "duration": 0.3125,
          "durationTicks": 192,
          "midi": 60,
          "name": "C4",
          "ticks": 175104,
          "time": 285,
          "velocity": 0.7874015748031497
        },
        {
          "duration": 0.3125,
          "durationTicks": 192,
          "midi": 65,
          "name": "F4",
          "ticks": 175200,
          "time": 285.15625,
          "velocity": 0.7874015748031497
        },
        {
          "duration": 0.3125,
          "durationTicks": 192,
          "midi": 67,
          "name": "G4",
          "ticks": 175296,
          "time": 285.3125,
          "velocity": 0.7874015748031497
        },
        {
          "duration": 0.3125,
          "durationTicks": 192,
          "midi": 60,
          "name": "C4",
          "ticks": 175392,
          "time": 285.46875,
          "velocity": 0.7874015748031497
        },
        {
          "duration": 0.46875,
          "durationTicks": 288,
          "midi": 27,
          "name": "D#1",
          "ticks": 175392,
          "time": 285.46875,
          "velocity": 0.7874015748031497
        },
        {
          "duration": 0.46875,
          "durationTicks": 288,
          "midi": 55,
          "name": "G3",
          "ticks": 175392,
          "time": 285.46875,
          "velocity": 0.7874015748031497
        },
        {
          "duration": 0.3125,
          "durationTicks": 192,
          "midi": 65,
          "name": "F4",
          "ticks": 175488,
          "time": 285.625,
          "velocity": 0.7874015748031497
        },
        {
          "duration": 0.3125,
          "durationTicks": 192,
          "midi": 67,
          "name": "G4",
          "ticks": 175584,
          "time": 285.78125,
          "velocity": 0.7874015748031497
        },
        {
          "duration": 0.3125,
          "durationTicks": 192,
          "midi": 27,
          "name": "D#1",
          "ticks": 175680,
          "time": 285.9375,
          "velocity": 0.7874015748031497
        },
        {
          "duration": 0.3125,
          "durationTicks": 192,
          "midi": 60,
          "name": "C4",
          "ticks": 175680,
          "time": 285.9375,
          "velocity": 0.7874015748031497
        },
        {
          "duration": 0.15625,
          "durationTicks": 96,
          "midi": 53,
          "name": "F3",
          "ticks": 175680,
          "time": 285.9375,
          "velocity": 0.7874015748031497
        },
        {
          "duration": 0.3125,
          "durationTicks": 192,
          "midi": 65,
          "name": "F4",
          "ticks": 175776,
          "time": 286.09375,
          "velocity": 0.7874015748031497
        },
        {
          "duration": 0.15625,
          "durationTicks": 96,
          "midi": 53,
          "name": "F3",
          "ticks": 175788,
          "time": 286.11328125,
          "velocity": 0.5905511811023622
        },
        {
          "duration": 0.46875,
          "durationTicks": 288,
          "midi": 55,
          "name": "G3",
          "ticks": 175872,
          "time": 286.25,
          "velocity": 0.7874015748031497
        },
        {
          "duration": 0.46875,
          "durationTicks": 288,
          "midi": 27,
          "name": "D#1",
          "ticks": 175872,
          "time": 286.25,
          "velocity": 0.7874015748031497
        },
        {
          "duration": 0.3125,
          "durationTicks": 192,
          "midi": 60,
          "name": "C4",
          "ticks": 175872,
          "time": 286.25,
          "velocity": 0.7874015748031497
        },
        {
          "duration": 0.3125,
          "durationTicks": 192,
          "midi": 65,
          "name": "F4",
          "ticks": 175968,
          "time": 286.40625,
          "velocity": 0.7874015748031497
        },
        {
          "duration": 0.3125,
          "durationTicks": 192,
          "midi": 67,
          "name": "G4",
          "ticks": 176064,
          "time": 286.5625,
          "velocity": 0.7874015748031497
        },
        {
          "duration": 0.15625,
          "durationTicks": 96,
          "midi": 27,
          "name": "D#1",
          "ticks": 176160,
          "time": 286.71875,
          "velocity": 0.7874015748031497
        },
        {
          "duration": 0.3125,
          "durationTicks": 192,
          "midi": 60,
          "name": "C4",
          "ticks": 176160,
          "time": 286.71875,
          "velocity": 0.7874015748031497
        },
        {
          "duration": 0.46875,
          "durationTicks": 288,
          "midi": 55,
          "name": "G3",
          "ticks": 176160,
          "time": 286.71875,
          "velocity": 0.7874015748031497
        },
        {
          "duration": 0.3125,
          "durationTicks": 192,
          "midi": 65,
          "name": "F4",
          "ticks": 176256,
          "time": 286.875,
          "velocity": 0.7874015748031497
        },
        {
          "duration": 0.3125,
          "durationTicks": 192,
          "midi": 27,
          "name": "D#1",
          "ticks": 176256,
          "time": 286.875,
          "velocity": 0.5905511811023622
        },
        {
          "duration": 0.3125,
          "durationTicks": 192,
          "midi": 67,
          "name": "G4",
          "ticks": 176352,
          "time": 287.03125,
          "velocity": 0.7874015748031497
        },
        {
          "duration": 0.3125,
          "durationTicks": 192,
          "midi": 60,
          "name": "C4",
          "ticks": 176448,
          "time": 287.1875,
          "velocity": 0.7874015748031497
        },
        {
          "duration": 0.15625,
          "durationTicks": 96,
          "midi": 27,
          "name": "D#1",
          "ticks": 176448,
          "time": 287.1875,
          "velocity": 0.7874015748031497
        },
        {
          "duration": 0.15625,
          "durationTicks": 96,
          "midi": 53,
          "name": "F3",
          "ticks": 176448,
          "time": 287.1875,
          "velocity": 0.7874015748031497
        },
        {
          "duration": 0.15625,
          "durationTicks": 96,
          "midi": 27,
          "name": "D#1",
          "ticks": 176544,
          "time": 287.34375,
          "velocity": 0.5905511811023622
        },
        {
          "duration": 0.3125,
          "durationTicks": 192,
          "midi": 65,
          "name": "F4",
          "ticks": 176544,
          "time": 287.34375,
          "velocity": 0.7874015748031497
        },
        {
          "duration": 0.15625,
          "durationTicks": 96,
          "midi": 53,
          "name": "F3",
          "ticks": 176556,
          "time": 287.36328125,
          "velocity": 0.5905511811023622
        },
        {
          "duration": 0.3125,
          "durationTicks": 192,
          "midi": 60,
          "name": "C4",
          "ticks": 176640,
          "time": 287.5,
          "velocity": 0.7874015748031497
        },
        {
          "duration": 0.46875,
          "durationTicks": 288,
          "midi": 29,
          "name": "F1",
          "ticks": 176640,
          "time": 287.5,
          "velocity": 0.7874015748031497
        },
        {
          "duration": 0.46875,
          "durationTicks": 288,
          "midi": 58,
          "name": "A#3",
          "ticks": 176640,
          "time": 287.5,
          "velocity": 0.7874015748031497
        },
        {
          "duration": 0.3125,
          "durationTicks": 192,
          "midi": 65,
          "name": "F4",
          "ticks": 176736,
          "time": 287.65625,
          "velocity": 0.7874015748031497
        },
        {
          "duration": 0.3125,
          "durationTicks": 192,
          "midi": 70,
          "name": "A#4",
          "ticks": 176832,
          "time": 287.8125,
          "velocity": 0.7874015748031497
        },
        {
          "duration": 0.46875,
          "durationTicks": 288,
          "midi": 58,
          "name": "A#3",
          "ticks": 176928,
          "time": 287.96875,
          "velocity": 0.7874015748031497
        },
        {
          "duration": 0.3125,
          "durationTicks": 192,
          "midi": 60,
          "name": "C4",
          "ticks": 176928,
          "time": 287.96875,
          "velocity": 0.7874015748031497
        },
        {
          "duration": 0.46875,
          "durationTicks": 288,
          "midi": 29,
          "name": "F1",
          "ticks": 176928,
          "time": 287.96875,
          "velocity": 0.7874015748031497
        },
        {
          "duration": 0.3125,
          "durationTicks": 192,
          "midi": 65,
          "name": "F4",
          "ticks": 177024,
          "time": 288.125,
          "velocity": 0.7874015748031497
        },
        {
          "duration": 0.3125,
          "durationTicks": 192,
          "midi": 70,
          "name": "A#4",
          "ticks": 177120,
          "time": 288.28125,
          "velocity": 0.7874015748031497
        },
        {
          "duration": 0.15625,
          "durationTicks": 96,
          "midi": 53,
          "name": "F3",
          "ticks": 177216,
          "time": 288.4375,
          "velocity": 0.7874015748031497
        },
        {
          "duration": 0.3125,
          "durationTicks": 192,
          "midi": 60,
          "name": "C4",
          "ticks": 177216,
          "time": 288.4375,
          "velocity": 0.7874015748031497
        },
        {
          "duration": 0.15625,
          "durationTicks": 96,
          "midi": 29,
          "name": "F1",
          "ticks": 177216,
          "time": 288.4375,
          "velocity": 0.7874015748031497
        },
        {
          "duration": 0.3125,
          "durationTicks": 192,
          "midi": 65,
          "name": "F4",
          "ticks": 177312,
          "time": 288.59375,
          "velocity": 0.7874015748031497
        },
        {
          "duration": 0.15625,
          "durationTicks": 96,
          "midi": 29,
          "name": "F1",
          "ticks": 177312,
          "time": 288.59375,
          "velocity": 0.5905511811023622
        },
        {
          "duration": 0.15625,
          "durationTicks": 96,
          "midi": 53,
          "name": "F3",
          "ticks": 177324,
          "time": 288.61328125,
          "velocity": 0.5905511811023622
        },
        {
          "duration": 0.3125,
          "durationTicks": 192,
          "midi": 60,
          "name": "C4",
          "ticks": 177408,
          "time": 288.75,
          "velocity": 0.7874015748031497
        },
        {
          "duration": 0.46875,
          "durationTicks": 288,
          "midi": 29,
          "name": "F1",
          "ticks": 177408,
          "time": 288.75,
          "velocity": 0.7874015748031497
        },
        {
          "duration": 0.46875,
          "durationTicks": 288,
          "midi": 58,
          "name": "A#3",
          "ticks": 177408,
          "time": 288.75,
          "velocity": 0.7874015748031497
        },
        {
          "duration": 0.3125,
          "durationTicks": 192,
          "midi": 65,
          "name": "F4",
          "ticks": 177504,
          "time": 288.90625,
          "velocity": 0.7874015748031497
        },
        {
          "duration": 0.3125,
          "durationTicks": 192,
          "midi": 70,
          "name": "A#4",
          "ticks": 177600,
          "time": 289.0625,
          "velocity": 0.7874015748031497
        },
        {
          "duration": 0.3125,
          "durationTicks": 192,
          "midi": 60,
          "name": "C4",
          "ticks": 177696,
          "time": 289.21875,
          "velocity": 0.7874015748031497
        },
        {
          "duration": 0.46875,
          "durationTicks": 288,
          "midi": 29,
          "name": "F1",
          "ticks": 177696,
          "time": 289.21875,
          "velocity": 0.7874015748031497
        },
        {
          "duration": 0.46875,
          "durationTicks": 288,
          "midi": 58,
          "name": "A#3",
          "ticks": 177696,
          "time": 289.21875,
          "velocity": 0.7874015748031497
        },
        {
          "duration": 0.3125,
          "durationTicks": 192,
          "midi": 65,
          "name": "F4",
          "ticks": 177792,
          "time": 289.375,
          "velocity": 0.7874015748031497
        },
        {
          "duration": 0.3125,
          "durationTicks": 192,
          "midi": 68,
          "name": "G#4",
          "ticks": 177888,
          "time": 289.53125,
          "velocity": 0.7874015748031497
        },
        {
          "duration": 0.15625,
          "durationTicks": 96,
          "midi": 56,
          "name": "G#3",
          "ticks": 177984,
          "time": 289.6875,
          "velocity": 0.7874015748031497
        },
        {
          "duration": 0.15625,
          "durationTicks": 96,
          "midi": 29,
          "name": "F1",
          "ticks": 177984,
          "time": 289.6875,
          "velocity": 0.7874015748031497
        },
        {
          "duration": 0.3125,
          "durationTicks": 192,
          "midi": 60,
          "name": "C4",
          "ticks": 177984,
          "time": 289.6875,
          "velocity": 0.7874015748031497
        },
        {
          "duration": 0.3125,
          "durationTicks": 192,
          "midi": 67,
          "name": "G4",
          "ticks": 178080,
          "time": 289.84375,
          "velocity": 0.7874015748031497
        },
        {
          "duration": 0.15625,
          "durationTicks": 96,
          "midi": 29,
          "name": "F1",
          "ticks": 178080,
          "time": 289.84375,
          "velocity": 0.5905511811023622
        },
        {
          "duration": 0.15625,
          "durationTicks": 96,
          "midi": 55,
          "name": "G3",
          "ticks": 178116,
          "time": 289.90234375,
          "velocity": 0.7874015748031497
        },
        {
          "duration": 0.3125,
          "durationTicks": 192,
          "midi": 60,
          "name": "C4",
          "ticks": 178176,
          "time": 290,
          "velocity": 0.7874015748031497
        },
        {
          "duration": 0.46875,
          "durationTicks": 288,
          "midi": 24,
          "name": "C1",
          "ticks": 178176,
          "time": 290,
          "velocity": 0.7874015748031497
        },
        {
          "duration": 0.46875,
          "durationTicks": 288,
          "midi": 55,
          "name": "G3",
          "ticks": 178176,
          "time": 290,
          "velocity": 0.7874015748031497
        },
        {
          "duration": 0.3125,
          "durationTicks": 192,
          "midi": 65,
          "name": "F4",
          "ticks": 178272,
          "time": 290.15625,
          "velocity": 0.7874015748031497
        },
        {
          "duration": 0.3125,
          "durationTicks": 192,
          "midi": 67,
          "name": "G4",
          "ticks": 178368,
          "time": 290.3125,
          "velocity": 0.7874015748031497
        },
        {
          "duration": 0.3125,
          "durationTicks": 192,
          "midi": 60,
          "name": "C4",
          "ticks": 178464,
          "time": 290.46875,
          "velocity": 0.7874015748031497
        },
        {
          "duration": 0.46875,
          "durationTicks": 288,
          "midi": 24,
          "name": "C1",
          "ticks": 178464,
          "time": 290.46875,
          "velocity": 0.7874015748031497
        },
        {
          "duration": 0.46875,
          "durationTicks": 288,
          "midi": 55,
          "name": "G3",
          "ticks": 178464,
          "time": 290.46875,
          "velocity": 0.7874015748031497
        },
        {
          "duration": 0.3125,
          "durationTicks": 192,
          "midi": 65,
          "name": "F4",
          "ticks": 178560,
          "time": 290.625,
          "velocity": 0.7874015748031497
        },
        {
          "duration": 0.3125,
          "durationTicks": 192,
          "midi": 67,
          "name": "G4",
          "ticks": 178656,
          "time": 290.78125,
          "velocity": 0.7874015748031497
        },
        {
          "duration": 0.15625,
          "durationTicks": 96,
          "midi": 53,
          "name": "F3",
          "ticks": 178752,
          "time": 290.9375,
          "velocity": 0.7874015748031497
        },
        {
          "duration": 0.3125,
          "durationTicks": 192,
          "midi": 60,
          "name": "C4",
          "ticks": 178752,
          "time": 290.9375,
          "velocity": 0.7874015748031497
        },
        {
          "duration": 0.15625,
          "durationTicks": 96,
          "midi": 24,
          "name": "C1",
          "ticks": 178752,
          "time": 290.9375,
          "velocity": 0.7874015748031497
        },
        {
          "duration": 0.15625,
          "durationTicks": 96,
          "midi": 24,
          "name": "C1",
          "ticks": 178848,
          "time": 291.09375,
          "velocity": 0.5905511811023622
        },
        {
          "duration": 0.3125,
          "durationTicks": 192,
          "midi": 65,
          "name": "F4",
          "ticks": 178848,
          "time": 291.09375,
          "velocity": 0.7874015748031497
        },
        {
          "duration": 0.15625,
          "durationTicks": 96,
          "midi": 53,
          "name": "F3",
          "ticks": 178860,
          "time": 291.11328125,
          "velocity": 0.5905511811023622
        },
        {
          "duration": 0.46875,
          "durationTicks": 288,
          "midi": 55,
          "name": "G3",
          "ticks": 178944,
          "time": 291.25,
          "velocity": 0.7874015748031497
        },
        {
          "duration": 0.3125,
          "durationTicks": 192,
          "midi": 60,
          "name": "C4",
          "ticks": 178944,
          "time": 291.25,
          "velocity": 0.7874015748031497
        },
        {
          "duration": 0.46875,
          "durationTicks": 288,
          "midi": 24,
          "name": "C1",
          "ticks": 178944,
          "time": 291.25,
          "velocity": 0.7874015748031497
        },
        {
          "duration": 0.3125,
          "durationTicks": 192,
          "midi": 65,
          "name": "F4",
          "ticks": 179040,
          "time": 291.40625,
          "velocity": 0.7874015748031497
        },
        {
          "duration": 0.3125,
          "durationTicks": 192,
          "midi": 67,
          "name": "G4",
          "ticks": 179136,
          "time": 291.5625,
          "velocity": 0.7874015748031497
        },
        {
          "duration": 0.46875,
          "durationTicks": 288,
          "midi": 55,
          "name": "G3",
          "ticks": 179232,
          "time": 291.71875,
          "velocity": 0.7874015748031497
        },
        {
          "duration": 0.15625,
          "durationTicks": 96,
          "midi": 24,
          "name": "C1",
          "ticks": 179232,
          "time": 291.71875,
          "velocity": 0.7874015748031497
        },
        {
          "duration": 0.3125,
          "durationTicks": 192,
          "midi": 60,
          "name": "C4",
          "ticks": 179232,
          "time": 291.71875,
          "velocity": 0.7874015748031497
        },
        {
          "duration": 0.3125,
          "durationTicks": 192,
          "midi": 65,
          "name": "F4",
          "ticks": 179328,
          "time": 291.875,
          "velocity": 0.7874015748031497
        },
        {
          "duration": 0.3125,
          "durationTicks": 192,
          "midi": 24,
          "name": "C1",
          "ticks": 179328,
          "time": 291.875,
          "velocity": 0.5905511811023622
        },
        {
          "duration": 0.3125,
          "durationTicks": 192,
          "midi": 67,
          "name": "G4",
          "ticks": 179424,
          "time": 292.03125,
          "velocity": 0.7874015748031497
        },
        {
          "duration": 0.15625,
          "durationTicks": 96,
          "midi": 53,
          "name": "F3",
          "ticks": 179520,
          "time": 292.1875,
          "velocity": 0.7874015748031497
        },
        {
          "duration": 0.3125,
          "durationTicks": 192,
          "midi": 24,
          "name": "C1",
          "ticks": 179520,
          "time": 292.1875,
          "velocity": 0.7874015748031497
        },
        {
          "duration": 0.3125,
          "durationTicks": 192,
          "midi": 60,
          "name": "C4",
          "ticks": 179520,
          "time": 292.1875,
          "velocity": 0.7874015748031497
        },
        {
          "duration": 0.3125,
          "durationTicks": 192,
          "midi": 65,
          "name": "F4",
          "ticks": 179616,
          "time": 292.34375,
          "velocity": 0.7874015748031497
        },
        {
          "duration": 0.15625,
          "durationTicks": 96,
          "midi": 53,
          "name": "F3",
          "ticks": 179628,
          "time": 292.36328125,
          "velocity": 0.5905511811023622
        },
        {
          "duration": 0.3125,
          "durationTicks": 192,
          "midi": 60,
          "name": "C4",
          "ticks": 179712,
          "time": 292.5,
          "velocity": 0.7874015748031497
        },
        {
          "duration": 0.46875,
          "durationTicks": 288,
          "midi": 25,
          "name": "C#1",
          "ticks": 179712,
          "time": 292.5,
          "velocity": 0.7874015748031497
        },
        {
          "duration": 0.46875,
          "durationTicks": 288,
          "midi": 56,
          "name": "G#3",
          "ticks": 179712,
          "time": 292.5,
          "velocity": 0.7874015748031497
        },
        {
          "duration": 0.3125,
          "durationTicks": 192,
          "midi": 65,
          "name": "F4",
          "ticks": 179808,
          "time": 292.65625,
          "velocity": 0.7874015748031497
        },
        {
          "duration": 0.3125,
          "durationTicks": 192,
          "midi": 68,
          "name": "G#4",
          "ticks": 179904,
          "time": 292.8125,
          "velocity": 0.7874015748031497
        },
        {
          "duration": 0.46875,
          "durationTicks": 288,
          "midi": 56,
          "name": "G#3",
          "ticks": 180000,
          "time": 292.96875,
          "velocity": 0.7874015748031497
        },
        {
          "duration": 0.15625,
          "durationTicks": 96,
          "midi": 25,
          "name": "C#1",
          "ticks": 180000,
          "time": 292.96875,
          "velocity": 0.7874015748031497
        },
        {
          "duration": 0.3125,
          "durationTicks": 192,
          "midi": 60,
          "name": "C4",
          "ticks": 180000,
          "time": 292.96875,
          "velocity": 0.7874015748031497
        },
        {
          "duration": 0.3125,
          "durationTicks": 192,
          "midi": 25,
          "name": "C#1",
          "ticks": 180096,
          "time": 293.125,
          "velocity": 0.5905511811023622
        },
        {
          "duration": 0.3125,
          "durationTicks": 192,
          "midi": 65,
          "name": "F4",
          "ticks": 180096,
          "time": 293.125,
          "velocity": 0.7874015748031497
        },
        {
          "duration": 0.3125,
          "durationTicks": 192,
          "midi": 68,
          "name": "G#4",
          "ticks": 180192,
          "time": 293.28125,
          "velocity": 0.7874015748031497
        },
        {
          "duration": 0.3125,
          "durationTicks": 192,
          "midi": 60,
          "name": "C4",
          "ticks": 180288,
          "time": 293.4375,
          "velocity": 0.7874015748031497
        },
        {
          "duration": 0.15625,
          "durationTicks": 96,
          "midi": 53,
          "name": "F3",
          "ticks": 180288,
          "time": 293.4375,
          "velocity": 0.7874015748031497
        },
        {
          "duration": 0.3125,
          "durationTicks": 192,
          "midi": 25,
          "name": "C#1",
          "ticks": 180288,
          "time": 293.4375,
          "velocity": 0.7874015748031497
        },
        {
          "duration": 0.3125,
          "durationTicks": 192,
          "midi": 65,
          "name": "F4",
          "ticks": 180384,
          "time": 293.59375,
          "velocity": 0.7874015748031497
        },
        {
          "duration": 0.15625,
          "durationTicks": 96,
          "midi": 53,
          "name": "F3",
          "ticks": 180396,
          "time": 293.61328125,
          "velocity": 0.5905511811023622
        },
        {
          "duration": 0.46875,
          "durationTicks": 288,
          "midi": 56,
          "name": "G#3",
          "ticks": 180480,
          "time": 293.75,
          "velocity": 0.7874015748031497
        },
        {
          "duration": 0.3125,
          "durationTicks": 192,
          "midi": 60,
          "name": "C4",
          "ticks": 180480,
          "time": 293.75,
          "velocity": 0.7874015748031497
        },
        {
          "duration": 0.46875,
          "durationTicks": 288,
          "midi": 25,
          "name": "C#1",
          "ticks": 180480,
          "time": 293.75,
          "velocity": 0.7874015748031497
        },
        {
          "duration": 0.3125,
          "durationTicks": 192,
          "midi": 65,
          "name": "F4",
          "ticks": 180576,
          "time": 293.90625,
          "velocity": 0.7874015748031497
        },
        {
          "duration": 0.3125,
          "durationTicks": 192,
          "midi": 68,
          "name": "G#4",
          "ticks": 180672,
          "time": 294.0625,
          "velocity": 0.7874015748031497
        },
        {
          "duration": 0.46875,
          "durationTicks": 288,
          "midi": 25,
          "name": "C#1",
          "ticks": 180768,
          "time": 294.21875,
          "velocity": 0.7874015748031497
        },
        {
          "duration": 0.3125,
          "durationTicks": 192,
          "midi": 60,
          "name": "C4",
          "ticks": 180768,
          "time": 294.21875,
          "velocity": 0.7874015748031497
        },
        {
          "duration": 0.46875,
          "durationTicks": 288,
          "midi": 56,
          "name": "G#3",
          "ticks": 180768,
          "time": 294.21875,
          "velocity": 0.7874015748031497
        },
        {
          "duration": 0.3125,
          "durationTicks": 192,
          "midi": 65,
          "name": "F4",
          "ticks": 180864,
          "time": 294.375,
          "velocity": 0.7874015748031497
        },
        {
          "duration": 0.3125,
          "durationTicks": 192,
          "midi": 68,
          "name": "G#4",
          "ticks": 180960,
          "time": 294.53125,
          "velocity": 0.7874015748031497
        },
        {
          "duration": 0.15625,
          "durationTicks": 96,
          "midi": 25,
          "name": "C#1",
          "ticks": 181056,
          "time": 294.6875,
          "velocity": 0.7874015748031497
        },
        {
          "duration": 0.15625,
          "durationTicks": 96,
          "midi": 53,
          "name": "F3",
          "ticks": 181056,
          "time": 294.6875,
          "velocity": 0.7874015748031497
        },
        {
          "duration": 0.3125,
          "durationTicks": 192,
          "midi": 60,
          "name": "C4",
          "ticks": 181056,
          "time": 294.6875,
          "velocity": 0.7874015748031497
        },
        {
          "duration": 0.3125,
          "durationTicks": 192,
          "midi": 65,
          "name": "F4",
          "ticks": 181152,
          "time": 294.84375,
          "velocity": 0.7874015748031497
        },
        {
          "duration": 0.15625,
          "durationTicks": 96,
          "midi": 25,
          "name": "C#1",
          "ticks": 181152,
          "time": 294.84375,
          "velocity": 0.5905511811023622
        },
        {
          "duration": 0.15625,
          "durationTicks": 96,
          "midi": 53,
          "name": "F3",
          "ticks": 181164,
          "time": 294.86328125,
          "velocity": 0.5905511811023622
        },
        {
          "duration": 0.3125,
          "durationTicks": 192,
          "midi": 60,
          "name": "C4",
          "ticks": 181248,
          "time": 295,
          "velocity": 0.7874015748031497
        },
        {
          "duration": 0.46875,
          "durationTicks": 288,
          "midi": 55,
          "name": "G3",
          "ticks": 181248,
          "time": 295,
          "velocity": 0.7874015748031497
        },
        {
          "duration": 0.46875,
          "durationTicks": 288,
          "midi": 27,
          "name": "D#1",
          "ticks": 181248,
          "time": 295,
          "velocity": 0.7874015748031497
        },
        {
          "duration": 0.3125,
          "durationTicks": 192,
          "midi": 65,
          "name": "F4",
          "ticks": 181344,
          "time": 295.15625,
          "velocity": 0.7874015748031497
        },
        {
          "duration": 0.3125,
          "durationTicks": 192,
          "midi": 67,
          "name": "G4",
          "ticks": 181440,
          "time": 295.3125,
          "velocity": 0.7874015748031497
        },
        {
          "duration": 0.46875,
          "durationTicks": 288,
          "midi": 55,
          "name": "G3",
          "ticks": 181536,
          "time": 295.46875,
          "velocity": 0.7874015748031497
        },
        {
          "duration": 0.3125,
          "durationTicks": 192,
          "midi": 60,
          "name": "C4",
          "ticks": 181536,
          "time": 295.46875,
          "velocity": 0.7874015748031497
        },
        {
          "duration": 0.46875,
          "durationTicks": 288,
          "midi": 27,
          "name": "D#1",
          "ticks": 181536,
          "time": 295.46875,
          "velocity": 0.7874015748031497
        },
        {
          "duration": 0.3125,
          "durationTicks": 192,
          "midi": 65,
          "name": "F4",
          "ticks": 181632,
          "time": 295.625,
          "velocity": 0.7874015748031497
        },
        {
          "duration": 0.3125,
          "durationTicks": 192,
          "midi": 67,
          "name": "G4",
          "ticks": 181728,
          "time": 295.78125,
          "velocity": 0.7874015748031497
        },
        {
          "duration": 0.3125,
          "durationTicks": 192,
          "midi": 60,
          "name": "C4",
          "ticks": 181824,
          "time": 295.9375,
          "velocity": 0.7874015748031497
        },
        {
          "duration": 0.3125,
          "durationTicks": 192,
          "midi": 27,
          "name": "D#1",
          "ticks": 181824,
          "time": 295.9375,
          "velocity": 0.7874015748031497
        },
        {
          "duration": 0.15625,
          "durationTicks": 96,
          "midi": 53,
          "name": "F3",
          "ticks": 181824,
          "time": 295.9375,
          "velocity": 0.7874015748031497
        },
        {
          "duration": 0.3125,
          "durationTicks": 192,
          "midi": 65,
          "name": "F4",
          "ticks": 181920,
          "time": 296.09375,
          "velocity": 0.7874015748031497
        },
        {
          "duration": 0.15625,
          "durationTicks": 96,
          "midi": 53,
          "name": "F3",
          "ticks": 181932,
          "time": 296.11328125,
          "velocity": 0.5905511811023622
        },
        {
          "duration": 0.46875,
          "durationTicks": 288,
          "midi": 27,
          "name": "D#1",
          "ticks": 182016,
          "time": 296.25,
          "velocity": 0.7874015748031497
        },
        {
          "duration": 0.46875,
          "durationTicks": 288,
          "midi": 55,
          "name": "G3",
          "ticks": 182016,
          "time": 296.25,
          "velocity": 0.7874015748031497
        },
        {
          "duration": 0.3125,
          "durationTicks": 192,
          "midi": 60,
          "name": "C4",
          "ticks": 182016,
          "time": 296.25,
          "velocity": 0.7874015748031497
        },
        {
          "duration": 0.3125,
          "durationTicks": 192,
          "midi": 65,
          "name": "F4",
          "ticks": 182112,
          "time": 296.40625,
          "velocity": 0.7874015748031497
        },
        {
          "duration": 0.3125,
          "durationTicks": 192,
          "midi": 67,
          "name": "G4",
          "ticks": 182208,
          "time": 296.5625,
          "velocity": 0.7874015748031497
        },
        {
          "duration": 0.3125,
          "durationTicks": 192,
          "midi": 60,
          "name": "C4",
          "ticks": 182304,
          "time": 296.71875,
          "velocity": 0.7874015748031497
        },
        {
          "duration": 0.46875,
          "durationTicks": 288,
          "midi": 55,
          "name": "G3",
          "ticks": 182304,
          "time": 296.71875,
          "velocity": 0.7874015748031497
        },
        {
          "duration": 0.15625,
          "durationTicks": 96,
          "midi": 27,
          "name": "D#1",
          "ticks": 182304,
          "time": 296.71875,
          "velocity": 0.7874015748031497
        },
        {
          "duration": 0.3125,
          "durationTicks": 192,
          "midi": 27,
          "name": "D#1",
          "ticks": 182400,
          "time": 296.875,
          "velocity": 0.5905511811023622
        },
        {
          "duration": 0.3125,
          "durationTicks": 192,
          "midi": 65,
          "name": "F4",
          "ticks": 182400,
          "time": 296.875,
          "velocity": 0.7874015748031497
        },
        {
          "duration": 0.3125,
          "durationTicks": 192,
          "midi": 67,
          "name": "G4",
          "ticks": 182496,
          "time": 297.03125,
          "velocity": 0.7874015748031497
        },
        {
          "duration": 0.15625,
          "durationTicks": 96,
          "midi": 27,
          "name": "D#1",
          "ticks": 182592,
          "time": 297.1875,
          "velocity": 0.7874015748031497
        },
        {
          "duration": 0.3125,
          "durationTicks": 192,
          "midi": 60,
          "name": "C4",
          "ticks": 182592,
          "time": 297.1875,
          "velocity": 0.7874015748031497
        },
        {
          "duration": 0.15625,
          "durationTicks": 96,
          "midi": 53,
          "name": "F3",
          "ticks": 182592,
          "time": 297.1875,
          "velocity": 0.7874015748031497
        },
        {
          "duration": 0.15625,
          "durationTicks": 96,
          "midi": 27,
          "name": "D#1",
          "ticks": 182688,
          "time": 297.34375,
          "velocity": 0.5905511811023622
        },
        {
          "duration": 0.3125,
          "durationTicks": 192,
          "midi": 65,
          "name": "F4",
          "ticks": 182688,
          "time": 297.34375,
          "velocity": 0.7874015748031497
        },
        {
          "duration": 0.15625,
          "durationTicks": 96,
          "midi": 53,
          "name": "F3",
          "ticks": 182700,
          "time": 297.36328125,
          "velocity": 0.5905511811023622
        },
        {
          "duration": 0.46875,
          "durationTicks": 288,
          "midi": 29,
          "name": "F1",
          "ticks": 182784,
          "time": 297.5,
          "velocity": 0.7874015748031497
        },
        {
          "duration": 0.3125,
          "durationTicks": 192,
          "midi": 60,
          "name": "C4",
          "ticks": 182784,
          "time": 297.5,
          "velocity": 0.7874015748031497
        },
        {
          "duration": 0.46875,
          "durationTicks": 288,
          "midi": 58,
          "name": "A#3",
          "ticks": 182784,
          "time": 297.5,
          "velocity": 0.7874015748031497
        },
        {
          "duration": 0.3125,
          "durationTicks": 192,
          "midi": 65,
          "name": "F4",
          "ticks": 182880,
          "time": 297.65625,
          "velocity": 0.7874015748031497
        },
        {
          "duration": 0.3125,
          "durationTicks": 192,
          "midi": 70,
          "name": "A#4",
          "ticks": 182976,
          "time": 297.8125,
          "velocity": 0.7874015748031497
        },
        {
          "duration": 0.46875,
          "durationTicks": 288,
          "midi": 58,
          "name": "A#3",
          "ticks": 183072,
          "time": 297.96875,
          "velocity": 0.7874015748031497
        },
        {
          "duration": 0.46875,
          "durationTicks": 288,
          "midi": 29,
          "name": "F1",
          "ticks": 183072,
          "time": 297.96875,
          "velocity": 0.7874015748031497
        },
        {
          "duration": 0.3125,
          "durationTicks": 192,
          "midi": 60,
          "name": "C4",
          "ticks": 183072,
          "time": 297.96875,
          "velocity": 0.7874015748031497
        },
        {
          "duration": 0.3125,
          "durationTicks": 192,
          "midi": 65,
          "name": "F4",
          "ticks": 183168,
          "time": 298.125,
          "velocity": 0.7874015748031497
        },
        {
          "duration": 0.3125,
          "durationTicks": 192,
          "midi": 70,
          "name": "A#4",
          "ticks": 183264,
          "time": 298.28125,
          "velocity": 0.7874015748031497
        },
        {
          "duration": 0.15625,
          "durationTicks": 96,
          "midi": 29,
          "name": "F1",
          "ticks": 183360,
          "time": 298.4375,
          "velocity": 0.7874015748031497
        },
        {
          "duration": 0.15625,
          "durationTicks": 96,
          "midi": 53,
          "name": "F3",
          "ticks": 183360,
          "time": 298.4375,
          "velocity": 0.7874015748031497
        },
        {
          "duration": 0.3125,
          "durationTicks": 192,
          "midi": 60,
          "name": "C4",
          "ticks": 183360,
          "time": 298.4375,
          "velocity": 0.7874015748031497
        },
        {
          "duration": 0.3125,
          "durationTicks": 192,
          "midi": 65,
          "name": "F4",
          "ticks": 183456,
          "time": 298.59375,
          "velocity": 0.7874015748031497
        },
        {
          "duration": 0.15625,
          "durationTicks": 96,
          "midi": 29,
          "name": "F1",
          "ticks": 183456,
          "time": 298.59375,
          "velocity": 0.5905511811023622
        },
        {
          "duration": 0.15625,
          "durationTicks": 96,
          "midi": 53,
          "name": "F3",
          "ticks": 183468,
          "time": 298.61328125,
          "velocity": 0.5905511811023622
        },
        {
          "duration": 0.3125,
          "durationTicks": 192,
          "midi": 60,
          "name": "C4",
          "ticks": 183552,
          "time": 298.75,
          "velocity": 0.7874015748031497
        },
        {
          "duration": 0.46875,
          "durationTicks": 288,
          "midi": 29,
          "name": "F1",
          "ticks": 183552,
          "time": 298.75,
          "velocity": 0.7874015748031497
        },
        {
          "duration": 0.46875,
          "durationTicks": 288,
          "midi": 58,
          "name": "A#3",
          "ticks": 183552,
          "time": 298.75,
          "velocity": 0.7874015748031497
        },
        {
          "duration": 0.3125,
          "durationTicks": 192,
          "midi": 65,
          "name": "F4",
          "ticks": 183648,
          "time": 298.90625,
          "velocity": 0.7874015748031497
        },
        {
          "duration": 0.3125,
          "durationTicks": 192,
          "midi": 70,
          "name": "A#4",
          "ticks": 183744,
          "time": 299.0625,
          "velocity": 0.7874015748031497
        },
        {
          "duration": 0.46875,
          "durationTicks": 288,
          "midi": 29,
          "name": "F1",
          "ticks": 183840,
          "time": 299.21875,
          "velocity": 0.7874015748031497
        },
        {
          "duration": 0.3125,
          "durationTicks": 192,
          "midi": 60,
          "name": "C4",
          "ticks": 183840,
          "time": 299.21875,
          "velocity": 0.7874015748031497
        },
        {
          "duration": 0.46875,
          "durationTicks": 288,
          "midi": 58,
          "name": "A#3",
          "ticks": 183840,
          "time": 299.21875,
          "velocity": 0.7874015748031497
        },
        {
          "duration": 0.3125,
          "durationTicks": 192,
          "midi": 65,
          "name": "F4",
          "ticks": 183936,
          "time": 299.375,
          "velocity": 0.7874015748031497
        },
        {
          "duration": 0.3125,
          "durationTicks": 192,
          "midi": 68,
          "name": "G#4",
          "ticks": 184032,
          "time": 299.53125,
          "velocity": 0.7874015748031497
        },
        {
          "duration": 0.15625,
          "durationTicks": 96,
          "midi": 29,
          "name": "F1",
          "ticks": 184128,
          "time": 299.6875,
          "velocity": 0.7874015748031497
        },
        {
          "duration": 0.15625,
          "durationTicks": 96,
          "midi": 56,
          "name": "G#3",
          "ticks": 184128,
          "time": 299.6875,
          "velocity": 0.7874015748031497
        },
        {
          "duration": 0.3125,
          "durationTicks": 192,
          "midi": 60,
          "name": "C4",
          "ticks": 184128,
          "time": 299.6875,
          "velocity": 0.7874015748031497
        },
        {
          "duration": 0.3125,
          "durationTicks": 192,
          "midi": 67,
          "name": "G4",
          "ticks": 184224,
          "time": 299.84375,
          "velocity": 0.7874015748031497
        },
        {
          "duration": 0.15625,
          "durationTicks": 96,
          "midi": 29,
          "name": "F1",
          "ticks": 184224,
          "time": 299.84375,
          "velocity": 0.5905511811023622
        },
        {
          "duration": 0.15625,
          "durationTicks": 96,
          "midi": 55,
          "name": "G3",
          "ticks": 184260,
          "time": 299.90234375,
          "velocity": 0.7874015748031497
        },
        {
          "duration": 0.3125,
          "durationTicks": 192,
          "midi": 60,
          "name": "C4",
          "ticks": 184320,
          "time": 300,
          "velocity": 0.7874015748031497
        },
        {
          "duration": 0.46875,
          "durationTicks": 288,
          "midi": 55,
          "name": "G3",
          "ticks": 184320,
          "time": 300,
          "velocity": 0.7874015748031497
        },
        {
          "duration": 0.46875,
          "durationTicks": 288,
          "midi": 24,
          "name": "C1",
          "ticks": 184320,
          "time": 300,
          "velocity": 0.7874015748031497
        },
        {
          "duration": 0.3125,
          "durationTicks": 192,
          "midi": 65,
          "name": "F4",
          "ticks": 184416,
          "time": 300.15625,
          "velocity": 0.7874015748031497
        },
        {
          "duration": 0.3125,
          "durationTicks": 192,
          "midi": 67,
          "name": "G4",
          "ticks": 184512,
          "time": 300.3125,
          "velocity": 0.7874015748031497
        },
        {
          "duration": 0.3125,
          "durationTicks": 192,
          "midi": 60,
          "name": "C4",
          "ticks": 184608,
          "time": 300.46875,
          "velocity": 0.7874015748031497
        },
        {
          "duration": 0.46875,
          "durationTicks": 288,
          "midi": 24,
          "name": "C1",
          "ticks": 184608,
          "time": 300.46875,
          "velocity": 0.7874015748031497
        },
        {
          "duration": 0.46875,
          "durationTicks": 288,
          "midi": 55,
          "name": "G3",
          "ticks": 184608,
          "time": 300.46875,
          "velocity": 0.7874015748031497
        },
        {
          "duration": 0.3125,
          "durationTicks": 192,
          "midi": 65,
          "name": "F4",
          "ticks": 184704,
          "time": 300.625,
          "velocity": 0.7874015748031497
        },
        {
          "duration": 0.3125,
          "durationTicks": 192,
          "midi": 67,
          "name": "G4",
          "ticks": 184800,
          "time": 300.78125,
          "velocity": 0.7874015748031497
        },
        {
          "duration": 0.3125,
          "durationTicks": 192,
          "midi": 60,
          "name": "C4",
          "ticks": 184896,
          "time": 300.9375,
          "velocity": 0.7874015748031497
        },
        {
          "duration": 0.15625,
          "durationTicks": 96,
          "midi": 24,
          "name": "C1",
          "ticks": 184896,
          "time": 300.9375,
          "velocity": 0.7874015748031497
        },
        {
          "duration": 0.15625,
          "durationTicks": 96,
          "midi": 53,
          "name": "F3",
          "ticks": 184896,
          "time": 300.9375,
          "velocity": 0.7874015748031497
        },
        {
          "duration": 0.15625,
          "durationTicks": 96,
          "midi": 24,
          "name": "C1",
          "ticks": 184992,
          "time": 301.09375,
          "velocity": 0.5905511811023622
        },
        {
          "duration": 0.3125,
          "durationTicks": 192,
          "midi": 65,
          "name": "F4",
          "ticks": 184992,
          "time": 301.09375,
          "velocity": 0.7874015748031497
        },
        {
          "duration": 0.15625,
          "durationTicks": 96,
          "midi": 53,
          "name": "F3",
          "ticks": 185004,
          "time": 301.11328125,
          "velocity": 0.5905511811023622
        },
        {
          "duration": 0.3125,
          "durationTicks": 192,
          "midi": 60,
          "name": "C4",
          "ticks": 185088,
          "time": 301.25,
          "velocity": 0.7874015748031497
        },
        {
          "duration": 0.46875,
          "durationTicks": 288,
          "midi": 55,
          "name": "G3",
          "ticks": 185088,
          "time": 301.25,
          "velocity": 0.7874015748031497
        },
        {
          "duration": 0.46875,
          "durationTicks": 288,
          "midi": 24,
          "name": "C1",
          "ticks": 185088,
          "time": 301.25,
          "velocity": 0.7874015748031497
        },
        {
          "duration": 0.3125,
          "durationTicks": 192,
          "midi": 65,
          "name": "F4",
          "ticks": 185184,
          "time": 301.40625,
          "velocity": 0.7874015748031497
        },
        {
          "duration": 0.3125,
          "durationTicks": 192,
          "midi": 67,
          "name": "G4",
          "ticks": 185280,
          "time": 301.5625,
          "velocity": 0.7874015748031497
        },
        {
          "duration": 0.46875,
          "durationTicks": 288,
          "midi": 55,
          "name": "G3",
          "ticks": 185376,
          "time": 301.71875,
          "velocity": 0.7874015748031497
        },
        {
          "duration": 0.15625,
          "durationTicks": 96,
          "midi": 24,
          "name": "C1",
          "ticks": 185376,
          "time": 301.71875,
          "velocity": 0.7874015748031497
        },
        {
          "duration": 0.3125,
          "durationTicks": 192,
          "midi": 60,
          "name": "C4",
          "ticks": 185376,
          "time": 301.71875,
          "velocity": 0.7874015748031497
        },
        {
          "duration": 0.3125,
          "durationTicks": 192,
          "midi": 24,
          "name": "C1",
          "ticks": 185472,
          "time": 301.875,
          "velocity": 0.5905511811023622
        },
        {
          "duration": 0.3125,
          "durationTicks": 192,
          "midi": 65,
          "name": "F4",
          "ticks": 185472,
          "time": 301.875,
          "velocity": 0.7874015748031497
        },
        {
          "duration": 0.3125,
          "durationTicks": 192,
          "midi": 67,
          "name": "G4",
          "ticks": 185568,
          "time": 302.03125,
          "velocity": 0.7874015748031497
        },
        {
          "duration": 0.15625,
          "durationTicks": 96,
          "midi": 53,
          "name": "F3",
          "ticks": 185664,
          "time": 302.1875,
          "velocity": 0.7874015748031497
        },
        {
          "duration": 0.3125,
          "durationTicks": 192,
          "midi": 24,
          "name": "C1",
          "ticks": 185664,
          "time": 302.1875,
          "velocity": 0.7874015748031497
        },
        {
          "duration": 0.3125,
          "durationTicks": 192,
          "midi": 60,
          "name": "C4",
          "ticks": 185664,
          "time": 302.1875,
          "velocity": 0.7874015748031497
        },
        {
          "duration": 0.3125,
          "durationTicks": 192,
          "midi": 65,
          "name": "F4",
          "ticks": 185760,
          "time": 302.34375,
          "velocity": 0.7874015748031497
        },
        {
          "duration": 0.15625,
          "durationTicks": 96,
          "midi": 53,
          "name": "F3",
          "ticks": 185772,
          "time": 302.36328125,
          "velocity": 0.5905511811023622
        },
        {
          "duration": 0.3125,
          "durationTicks": 192,
          "midi": 60,
          "name": "C4",
          "ticks": 185856,
          "time": 302.5,
          "velocity": 0.7874015748031497
        },
        {
          "duration": 0.46875,
          "durationTicks": 288,
          "midi": 25,
          "name": "C#1",
          "ticks": 185856,
          "time": 302.5,
          "velocity": 0.7874015748031497
        },
        {
          "duration": 0.46875,
          "durationTicks": 288,
          "midi": 56,
          "name": "G#3",
          "ticks": 185856,
          "time": 302.5,
          "velocity": 0.7874015748031497
        },
        {
          "duration": 0.3125,
          "durationTicks": 192,
          "midi": 65,
          "name": "F4",
          "ticks": 185952,
          "time": 302.65625,
          "velocity": 0.7874015748031497
        },
        {
          "duration": 0.3125,
          "durationTicks": 192,
          "midi": 68,
          "name": "G#4",
          "ticks": 186048,
          "time": 302.8125,
          "velocity": 0.7874015748031497
        },
        {
          "duration": 0.46875,
          "durationTicks": 288,
          "midi": 56,
          "name": "G#3",
          "ticks": 186144,
          "time": 302.96875,
          "velocity": 0.7874015748031497
        },
        {
          "duration": 0.3125,
          "durationTicks": 192,
          "midi": 60,
          "name": "C4",
          "ticks": 186144,
          "time": 302.96875,
          "velocity": 0.7874015748031497
        },
        {
          "duration": 0.15625,
          "durationTicks": 96,
          "midi": 25,
          "name": "C#1",
          "ticks": 186144,
          "time": 302.96875,
          "velocity": 0.7874015748031497
        },
        {
          "duration": 0.3125,
          "durationTicks": 192,
          "midi": 25,
          "name": "C#1",
          "ticks": 186240,
          "time": 303.125,
          "velocity": 0.5905511811023622
        },
        {
          "duration": 0.3125,
          "durationTicks": 192,
          "midi": 65,
          "name": "F4",
          "ticks": 186240,
          "time": 303.125,
          "velocity": 0.7874015748031497
        },
        {
          "duration": 0.3125,
          "durationTicks": 192,
          "midi": 68,
          "name": "G#4",
          "ticks": 186336,
          "time": 303.28125,
          "velocity": 0.7874015748031497
        },
        {
          "duration": 0.3125,
          "durationTicks": 192,
          "midi": 25,
          "name": "C#1",
          "ticks": 186432,
          "time": 303.4375,
          "velocity": 0.7874015748031497
        },
        {
          "duration": 0.3125,
          "durationTicks": 192,
          "midi": 60,
          "name": "C4",
          "ticks": 186432,
          "time": 303.4375,
          "velocity": 0.7874015748031497
        },
        {
          "duration": 0.15625,
          "durationTicks": 96,
          "midi": 53,
          "name": "F3",
          "ticks": 186432,
          "time": 303.4375,
          "velocity": 0.7874015748031497
        },
        {
          "duration": 0.3125,
          "durationTicks": 192,
          "midi": 65,
          "name": "F4",
          "ticks": 186528,
          "time": 303.59375,
          "velocity": 0.7874015748031497
        },
        {
          "duration": 0.15625,
          "durationTicks": 96,
          "midi": 53,
          "name": "F3",
          "ticks": 186540,
          "time": 303.61328125,
          "velocity": 0.5905511811023622
        },
        {
          "duration": 0.46875,
          "durationTicks": 288,
          "midi": 56,
          "name": "G#3",
          "ticks": 186624,
          "time": 303.75,
          "velocity": 0.7874015748031497
        },
        {
          "duration": 0.3125,
          "durationTicks": 192,
          "midi": 60,
          "name": "C4",
          "ticks": 186624,
          "time": 303.75,
          "velocity": 0.7874015748031497
        },
        {
          "duration": 0.46875,
          "durationTicks": 288,
          "midi": 25,
          "name": "C#1",
          "ticks": 186624,
          "time": 303.75,
          "velocity": 0.7874015748031497
        },
        {
          "duration": 0.3125,
          "durationTicks": 192,
          "midi": 65,
          "name": "F4",
          "ticks": 186720,
          "time": 303.90625,
          "velocity": 0.7874015748031497
        },
        {
          "duration": 0.3125,
          "durationTicks": 192,
          "midi": 68,
          "name": "G#4",
          "ticks": 186816,
          "time": 304.0625,
          "velocity": 0.7874015748031497
        },
        {
          "duration": 0.46875,
          "durationTicks": 288,
          "midi": 56,
          "name": "G#3",
          "ticks": 186912,
          "time": 304.21875,
          "velocity": 0.7874015748031497
        },
        {
          "duration": 0.3125,
          "durationTicks": 192,
          "midi": 60,
          "name": "C4",
          "ticks": 186912,
          "time": 304.21875,
          "velocity": 0.7874015748031497
        },
        {
          "duration": 0.46875,
          "durationTicks": 288,
          "midi": 25,
          "name": "C#1",
          "ticks": 186912,
          "time": 304.21875,
          "velocity": 0.7874015748031497
        },
        {
          "duration": 0.3125,
          "durationTicks": 192,
          "midi": 65,
          "name": "F4",
          "ticks": 187008,
          "time": 304.375,
          "velocity": 0.7874015748031497
        },
        {
          "duration": 0.3125,
          "durationTicks": 192,
          "midi": 68,
          "name": "G#4",
          "ticks": 187104,
          "time": 304.53125,
          "velocity": 0.7874015748031497
        },
        {
          "duration": 0.3125,
          "durationTicks": 192,
          "midi": 60,
          "name": "C4",
          "ticks": 187200,
          "time": 304.6875,
          "velocity": 0.7874015748031497
        },
        {
          "duration": 0.15625,
          "durationTicks": 96,
          "midi": 25,
          "name": "C#1",
          "ticks": 187200,
          "time": 304.6875,
          "velocity": 0.7874015748031497
        },
        {
          "duration": 0.15625,
          "durationTicks": 96,
          "midi": 53,
          "name": "F3",
          "ticks": 187200,
          "time": 304.6875,
          "velocity": 0.7874015748031497
        },
        {
          "duration": 0.15625,
          "durationTicks": 96,
          "midi": 25,
          "name": "C#1",
          "ticks": 187296,
          "time": 304.84375,
          "velocity": 0.5905511811023622
        },
        {
          "duration": 0.3125,
          "durationTicks": 192,
          "midi": 65,
          "name": "F4",
          "ticks": 187296,
          "time": 304.84375,
          "velocity": 0.7874015748031497
        },
        {
          "duration": 0.15625,
          "durationTicks": 96,
          "midi": 53,
          "name": "F3",
          "ticks": 187308,
          "time": 304.86328125,
          "velocity": 0.5905511811023622
        },
        {
          "duration": 0.3125,
          "durationTicks": 192,
          "midi": 60,
          "name": "C4",
          "ticks": 187392,
          "time": 305,
          "velocity": 0.7874015748031497
        },
        {
          "duration": 0.46875,
          "durationTicks": 288,
          "midi": 30,
          "name": "F#1",
          "ticks": 187392,
          "time": 305,
          "velocity": 0.7874015748031497
        },
        {
          "duration": 0.46875,
          "durationTicks": 288,
          "midi": 55,
          "name": "G3",
          "ticks": 187392,
          "time": 305,
          "velocity": 0.7874015748031497
        },
        {
          "duration": 0.3125,
          "durationTicks": 192,
          "midi": 65,
          "name": "F4",
          "ticks": 187488,
          "time": 305.15625,
          "velocity": 0.7874015748031497
        },
        {
          "duration": 0.3125,
          "durationTicks": 192,
          "midi": 67,
          "name": "G4",
          "ticks": 187584,
          "time": 305.3125,
          "velocity": 0.7874015748031497
        },
        {
          "duration": 0.3125,
          "durationTicks": 192,
          "midi": 60,
          "name": "C4",
          "ticks": 187680,
          "time": 305.46875,
          "velocity": 0.7874015748031497
        },
        {
          "duration": 0.46875,
          "durationTicks": 288,
          "midi": 30,
          "name": "F#1",
          "ticks": 187680,
          "time": 305.46875,
          "velocity": 0.7874015748031497
        },
        {
          "duration": 0.46875,
          "durationTicks": 288,
          "midi": 55,
          "name": "G3",
          "ticks": 187680,
          "time": 305.46875,
          "velocity": 0.7874015748031497
        },
        {
          "duration": 0.3125,
          "durationTicks": 192,
          "midi": 65,
          "name": "F4",
          "ticks": 187776,
          "time": 305.625,
          "velocity": 0.7874015748031497
        },
        {
          "duration": 0.3125,
          "durationTicks": 192,
          "midi": 67,
          "name": "G4",
          "ticks": 187872,
          "time": 305.78125,
          "velocity": 0.7874015748031497
        },
        {
          "duration": 0.3125,
          "durationTicks": 192,
          "midi": 60,
          "name": "C4",
          "ticks": 187968,
          "time": 305.9375,
          "velocity": 0.7874015748031497
        },
        {
          "duration": 0.15625,
          "durationTicks": 96,
          "midi": 30,
          "name": "F#1",
          "ticks": 187968,
          "time": 305.9375,
          "velocity": 0.7874015748031497
        },
        {
          "duration": 0.15625,
          "durationTicks": 96,
          "midi": 53,
          "name": "F3",
          "ticks": 187968,
          "time": 305.9375,
          "velocity": 0.7874015748031497
        },
        {
          "duration": 0.15625,
          "durationTicks": 96,
          "midi": 30,
          "name": "F#1",
          "ticks": 188064,
          "time": 306.09375,
          "velocity": 0.5905511811023622
        },
        {
          "duration": 0.3125,
          "durationTicks": 192,
          "midi": 65,
          "name": "F4",
          "ticks": 188064,
          "time": 306.09375,
          "velocity": 0.7874015748031497
        },
        {
          "duration": 0.15625,
          "durationTicks": 96,
          "midi": 53,
          "name": "F3",
          "ticks": 188076,
          "time": 306.11328125,
          "velocity": 0.5905511811023622
        },
        {
          "duration": 0.46875,
          "durationTicks": 288,
          "midi": 55,
          "name": "G3",
          "ticks": 188160,
          "time": 306.25,
          "velocity": 0.7874015748031497
        },
        {
          "duration": 0.3125,
          "durationTicks": 192,
          "midi": 60,
          "name": "C4",
          "ticks": 188160,
          "time": 306.25,
          "velocity": 0.7874015748031497
        },
        {
          "duration": 0.46875,
          "durationTicks": 288,
          "midi": 30,
          "name": "F#1",
          "ticks": 188160,
          "time": 306.25,
          "velocity": 0.7874015748031497
        },
        {
          "duration": 0.3125,
          "durationTicks": 192,
          "midi": 65,
          "name": "F4",
          "ticks": 188256,
          "time": 306.40625,
          "velocity": 0.7874015748031497
        },
        {
          "duration": 0.3125,
          "durationTicks": 192,
          "midi": 67,
          "name": "G4",
          "ticks": 188352,
          "time": 306.5625,
          "velocity": 0.7874015748031497
        },
        {
          "duration": 0.46875,
          "durationTicks": 288,
          "midi": 30,
          "name": "F#1",
          "ticks": 188448,
          "time": 306.71875,
          "velocity": 0.7874015748031497
        },
        {
          "duration": 0.46875,
          "durationTicks": 288,
          "midi": 55,
          "name": "G3",
          "ticks": 188448,
          "time": 306.71875,
          "velocity": 0.7874015748031497
        },
        {
          "duration": 0.3125,
          "durationTicks": 192,
          "midi": 60,
          "name": "C4",
          "ticks": 188448,
          "time": 306.71875,
          "velocity": 0.7874015748031497
        },
        {
          "duration": 0.3125,
          "durationTicks": 192,
          "midi": 65,
          "name": "F4",
          "ticks": 188544,
          "time": 306.875,
          "velocity": 0.7874015748031497
        },
        {
          "duration": 0.3125,
          "durationTicks": 192,
          "midi": 67,
          "name": "G4",
          "ticks": 188640,
          "time": 307.03125,
          "velocity": 0.7874015748031497
        },
        {
          "duration": 0.15625,
          "durationTicks": 96,
          "midi": 30,
          "name": "F#1",
          "ticks": 188736,
          "time": 307.1875,
          "velocity": 0.7874015748031497
        },
        {
          "duration": 0.15625,
          "durationTicks": 96,
          "midi": 53,
          "name": "F3",
          "ticks": 188736,
          "time": 307.1875,
          "velocity": 0.7874015748031497
        },
        {
          "duration": 0.3125,
          "durationTicks": 192,
          "midi": 60,
          "name": "C4",
          "ticks": 188736,
          "time": 307.1875,
          "velocity": 0.7874015748031497
        },
        {
          "duration": 0.3125,
          "durationTicks": 192,
          "midi": 65,
          "name": "F4",
          "ticks": 188832,
          "time": 307.34375,
          "velocity": 0.7874015748031497
        },
        {
          "duration": 0.15625,
          "durationTicks": 96,
          "midi": 30,
          "name": "F#1",
          "ticks": 188832,
          "time": 307.34375,
          "velocity": 0.5905511811023622
        },
        {
          "duration": 0.15625,
          "durationTicks": 96,
          "midi": 53,
          "name": "F3",
          "ticks": 188844,
          "time": 307.36328125,
          "velocity": 0.5905511811023622
        },
        {
          "duration": 0.3125,
          "durationTicks": 192,
          "midi": 60,
          "name": "C4",
          "ticks": 188928,
          "time": 307.5,
          "velocity": 0.7874015748031497
        },
        {
          "duration": 0.46875,
          "durationTicks": 288,
          "midi": 58,
          "name": "A#3",
          "ticks": 188928,
          "time": 307.5,
          "velocity": 0.7874015748031497
        },
        {
          "duration": 0.46875,
          "durationTicks": 288,
          "midi": 27,
          "name": "D#1",
          "ticks": 188928,
          "time": 307.5,
          "velocity": 0.7874015748031497
        },
        {
          "duration": 0.3125,
          "durationTicks": 192,
          "midi": 65,
          "name": "F4",
          "ticks": 189024,
          "time": 307.65625,
          "velocity": 0.7874015748031497
        },
        {
          "duration": 0.3125,
          "durationTicks": 192,
          "midi": 70,
          "name": "A#4",
          "ticks": 189120,
          "time": 307.8125,
          "velocity": 0.7874015748031497
        },
        {
          "duration": 0.3125,
          "durationTicks": 192,
          "midi": 60,
          "name": "C4",
          "ticks": 189216,
          "time": 307.96875,
          "velocity": 0.7874015748031497
        },
        {
          "duration": 0.46875,
          "durationTicks": 288,
          "midi": 27,
          "name": "D#1",
          "ticks": 189216,
          "time": 307.96875,
          "velocity": 0.7874015748031497
        },
        {
          "duration": 0.46875,
          "durationTicks": 288,
          "midi": 58,
          "name": "A#3",
          "ticks": 189216,
          "time": 307.96875,
          "velocity": 0.7874015748031497
        },
        {
          "duration": 0.3125,
          "durationTicks": 192,
          "midi": 65,
          "name": "F4",
          "ticks": 189312,
          "time": 308.125,
          "velocity": 0.7874015748031497
        },
        {
          "duration": 0.3125,
          "durationTicks": 192,
          "midi": 70,
          "name": "A#4",
          "ticks": 189408,
          "time": 308.28125,
          "velocity": 0.7874015748031497
        },
        {
          "duration": 0.3125,
          "durationTicks": 192,
          "midi": 27,
          "name": "D#1",
          "ticks": 189504,
          "time": 308.4375,
          "velocity": 0.7874015748031497
        },
        {
          "duration": 0.3125,
          "durationTicks": 192,
          "midi": 60,
          "name": "C4",
          "ticks": 189504,
          "time": 308.4375,
          "velocity": 0.7874015748031497
        },
        {
          "duration": 0.15625,
          "durationTicks": 96,
          "midi": 53,
          "name": "F3",
          "ticks": 189504,
          "time": 308.4375,
          "velocity": 0.7874015748031497
        },
        {
          "duration": 0.3125,
          "durationTicks": 192,
          "midi": 65,
          "name": "F4",
          "ticks": 189600,
          "time": 308.59375,
          "velocity": 0.7874015748031497
        },
        {
          "duration": 0.15625,
          "durationTicks": 96,
          "midi": 53,
          "name": "F3",
          "ticks": 189612,
          "time": 308.61328125,
          "velocity": 0.5905511811023622
        },
        {
          "duration": 0.46875,
          "durationTicks": 288,
          "midi": 27,
          "name": "D#1",
          "ticks": 189696,
          "time": 308.75,
          "velocity": 0.7874015748031497
        },
        {
          "duration": 0.46875,
          "durationTicks": 288,
          "midi": 58,
          "name": "A#3",
          "ticks": 189696,
          "time": 308.75,
          "velocity": 0.7874015748031497
        },
        {
          "duration": 0.3125,
          "durationTicks": 192,
          "midi": 60,
          "name": "C4",
          "ticks": 189696,
          "time": 308.75,
          "velocity": 0.7874015748031497
        },
        {
          "duration": 0.3125,
          "durationTicks": 192,
          "midi": 65,
          "name": "F4",
          "ticks": 189792,
          "time": 308.90625,
          "velocity": 0.7874015748031497
        },
        {
          "duration": 0.3125,
          "durationTicks": 192,
          "midi": 70,
          "name": "A#4",
          "ticks": 189888,
          "time": 309.0625,
          "velocity": 0.7874015748031497
        },
        {
          "duration": 0.46875,
          "durationTicks": 288,
          "midi": 58,
          "name": "A#3",
          "ticks": 189984,
          "time": 309.21875,
          "velocity": 0.7874015748031497
        },
        {
          "duration": 0.15625,
          "durationTicks": 96,
          "midi": 27,
          "name": "D#1",
          "ticks": 189984,
          "time": 309.21875,
          "velocity": 0.7874015748031497
        },
        {
          "duration": 0.3125,
          "durationTicks": 192,
          "midi": 60,
          "name": "C4",
          "ticks": 189984,
          "time": 309.21875,
          "velocity": 0.7874015748031497
        },
        {
          "duration": 0.3125,
          "durationTicks": 192,
          "midi": 27,
          "name": "D#1",
          "ticks": 190080,
          "time": 309.375,
          "velocity": 0.5905511811023622
        },
        {
          "duration": 0.3125,
          "durationTicks": 192,
          "midi": 65,
          "name": "F4",
          "ticks": 190080,
          "time": 309.375,
          "velocity": 0.7874015748031497
        },
        {
          "duration": 0.3125,
          "durationTicks": 192,
          "midi": 68,
          "name": "G#4",
          "ticks": 190176,
          "time": 309.53125,
          "velocity": 0.7874015748031497
        },
        {
          "duration": 0.3125,
          "durationTicks": 192,
          "midi": 60,
          "name": "C4",
          "ticks": 190272,
          "time": 309.6875,
          "velocity": 0.7874015748031497
        },
        {
          "duration": 0.15625,
          "durationTicks": 96,
          "midi": 56,
          "name": "G#3",
          "ticks": 190272,
          "time": 309.6875,
          "velocity": 0.7874015748031497
        },
        {
          "duration": 0.15625,
          "durationTicks": 96,
          "midi": 27,
          "name": "D#1",
          "ticks": 190272,
          "time": 309.6875,
          "velocity": 0.7874015748031497
        },
        {
          "duration": 0.3125,
          "durationTicks": 192,
          "midi": 67,
          "name": "G4",
          "ticks": 190368,
          "time": 309.84375,
          "velocity": 0.7874015748031497
        },
        {
          "duration": 0.15625,
          "durationTicks": 96,
          "midi": 27,
          "name": "D#1",
          "ticks": 190368,
          "time": 309.84375,
          "velocity": 0.5905511811023622
        },
        {
          "duration": 0.15625,
          "durationTicks": 96,
          "midi": 55,
          "name": "G3",
          "ticks": 190404,
          "time": 309.90234375,
          "velocity": 0.7874015748031497
        },
        {
          "duration": 0.3125,
          "durationTicks": 192,
          "midi": 60,
          "name": "C4",
          "ticks": 190464,
          "time": 310,
          "velocity": 0.7874015748031497
        },
        {
          "duration": 0.46875,
          "durationTicks": 288,
          "midi": 24,
          "name": "C1",
          "ticks": 190464,
          "time": 310,
          "velocity": 0.7874015748031497
        },
        {
          "duration": 0.46875,
          "durationTicks": 288,
          "midi": 55,
          "name": "G3",
          "ticks": 190464,
          "time": 310,
          "velocity": 0.7874015748031497
        },
        {
          "duration": 0.3125,
          "durationTicks": 192,
          "midi": 65,
          "name": "F4",
          "ticks": 190560,
          "time": 310.15625,
          "velocity": 0.7874015748031497
        },
        {
          "duration": 0.3125,
          "durationTicks": 192,
          "midi": 67,
          "name": "G4",
          "ticks": 190656,
          "time": 310.3125,
          "velocity": 0.7874015748031497
        },
        {
          "duration": 0.3125,
          "durationTicks": 192,
          "midi": 60,
          "name": "C4",
          "ticks": 190752,
          "time": 310.46875,
          "velocity": 0.7874015748031497
        },
        {
          "duration": 0.46875,
          "durationTicks": 288,
          "midi": 24,
          "name": "C1",
          "ticks": 190752,
          "time": 310.46875,
          "velocity": 0.7874015748031497
        },
        {
          "duration": 0.46875,
          "durationTicks": 288,
          "midi": 55,
          "name": "G3",
          "ticks": 190752,
          "time": 310.46875,
          "velocity": 0.7874015748031497
        },
        {
          "duration": 0.3125,
          "durationTicks": 192,
          "midi": 65,
          "name": "F4",
          "ticks": 190848,
          "time": 310.625,
          "velocity": 0.7874015748031497
        },
        {
          "duration": 0.3125,
          "durationTicks": 192,
          "midi": 67,
          "name": "G4",
          "ticks": 190944,
          "time": 310.78125,
          "velocity": 0.7874015748031497
        },
        {
          "duration": 0.3125,
          "durationTicks": 192,
          "midi": 60,
          "name": "C4",
          "ticks": 191040,
          "time": 310.9375,
          "velocity": 0.7874015748031497
        },
        {
          "duration": 0.15625,
          "durationTicks": 96,
          "midi": 53,
          "name": "F3",
          "ticks": 191040,
          "time": 310.9375,
          "velocity": 0.7874015748031497
        },
        {
          "duration": 0.15625,
          "durationTicks": 96,
          "midi": 24,
          "name": "C1",
          "ticks": 191040,
          "time": 310.9375,
          "velocity": 0.7874015748031497
        },
        {
          "duration": 0.3125,
          "durationTicks": 192,
          "midi": 65,
          "name": "F4",
          "ticks": 191136,
          "time": 311.09375,
          "velocity": 0.7874015748031497
        },
        {
          "duration": 0.15625,
          "durationTicks": 96,
          "midi": 24,
          "name": "C1",
          "ticks": 191136,
          "time": 311.09375,
          "velocity": 0.5905511811023622
        },
        {
          "duration": 0.15625,
          "durationTicks": 96,
          "midi": 53,
          "name": "F3",
          "ticks": 191148,
          "time": 311.11328125,
          "velocity": 0.5905511811023622
        },
        {
          "duration": 0.3125,
          "durationTicks": 192,
          "midi": 60,
          "name": "C4",
          "ticks": 191232,
          "time": 311.25,
          "velocity": 0.7874015748031497
        },
        {
          "duration": 0.46875,
          "durationTicks": 288,
          "midi": 24,
          "name": "C1",
          "ticks": 191232,
          "time": 311.25,
          "velocity": 0.7874015748031497
        },
        {
          "duration": 0.46875,
          "durationTicks": 288,
          "midi": 55,
          "name": "G3",
          "ticks": 191232,
          "time": 311.25,
          "velocity": 0.7874015748031497
        },
        {
          "duration": 0.3125,
          "durationTicks": 192,
          "midi": 65,
          "name": "F4",
          "ticks": 191328,
          "time": 311.40625,
          "velocity": 0.7874015748031497
        },
        {
          "duration": 0.3125,
          "durationTicks": 192,
          "midi": 67,
          "name": "G4",
          "ticks": 191424,
          "time": 311.5625,
          "velocity": 0.7874015748031497
        },
        {
          "duration": 0.3125,
          "durationTicks": 192,
          "midi": 60,
          "name": "C4",
          "ticks": 191520,
          "time": 311.71875,
          "velocity": 0.7874015748031497
        },
        {
          "duration": 0.15625,
          "durationTicks": 96,
          "midi": 24,
          "name": "C1",
          "ticks": 191520,
          "time": 311.71875,
          "velocity": 0.7874015748031497
        },
        {
          "duration": 0.46875,
          "durationTicks": 288,
          "midi": 55,
          "name": "G3",
          "ticks": 191520,
          "time": 311.71875,
          "velocity": 0.7874015748031497
        },
        {
          "duration": 0.3125,
          "durationTicks": 192,
          "midi": 65,
          "name": "F4",
          "ticks": 191616,
          "time": 311.875,
          "velocity": 0.7874015748031497
        },
        {
          "duration": 0.3125,
          "durationTicks": 192,
          "midi": 24,
          "name": "C1",
          "ticks": 191616,
          "time": 311.875,
          "velocity": 0.5905511811023622
        },
        {
          "duration": 0.3125,
          "durationTicks": 192,
          "midi": 67,
          "name": "G4",
          "ticks": 191712,
          "time": 312.03125,
          "velocity": 0.7874015748031497
        },
        {
          "duration": 0.15625,
          "durationTicks": 96,
          "midi": 53,
          "name": "F3",
          "ticks": 191808,
          "time": 312.1875,
          "velocity": 0.7874015748031497
        },
        {
          "duration": 0.3125,
          "durationTicks": 192,
          "midi": 24,
          "name": "C1",
          "ticks": 191808,
          "time": 312.1875,
          "velocity": 0.7874015748031497
        },
        {
          "duration": 0.3125,
          "durationTicks": 192,
          "midi": 60,
          "name": "C4",
          "ticks": 191808,
          "time": 312.1875,
          "velocity": 0.7874015748031497
        },
        {
          "duration": 0.3125,
          "durationTicks": 192,
          "midi": 65,
          "name": "F4",
          "ticks": 191904,
          "time": 312.34375,
          "velocity": 0.7874015748031497
        },
        {
          "duration": 0.15625,
          "durationTicks": 96,
          "midi": 53,
          "name": "F3",
          "ticks": 191916,
          "time": 312.36328125,
          "velocity": 0.5905511811023622
        },
        {
          "duration": 0.3125,
          "durationTicks": 192,
          "midi": 25,
          "name": "C#1",
          "ticks": 192000,
          "time": 312.5,
          "velocity": 0.7874015748031497
        },
        {
          "duration": 0.3125,
          "durationTicks": 192,
          "midi": 60,
          "name": "C4",
          "ticks": 192000,
          "time": 312.5,
          "velocity": 0.7874015748031497
        },
        {
          "duration": 0.46875,
          "durationTicks": 288,
          "midi": 56,
          "name": "G#3",
          "ticks": 192000,
          "time": 312.5,
          "velocity": 0.7874015748031497
        },
        {
          "duration": 0.3125,
          "durationTicks": 192,
          "midi": 65,
          "name": "F4",
          "ticks": 192096,
          "time": 312.65625,
          "velocity": 0.7874015748031497
        },
        {
          "duration": 0.3125,
          "durationTicks": 192,
          "midi": 68,
          "name": "G#4",
          "ticks": 192192,
          "time": 312.8125,
          "velocity": 0.7874015748031497
        },
        {
          "duration": 0.3125,
          "durationTicks": 192,
          "midi": 60,
          "name": "C4",
          "ticks": 192288,
          "time": 312.96875,
          "velocity": 0.7874015748031497
        },
        {
          "duration": 0.46875,
          "durationTicks": 288,
          "midi": 56,
          "name": "G#3",
          "ticks": 192288,
          "time": 312.96875,
          "velocity": 0.7874015748031497
        },
        {
          "duration": 0.3125,
          "durationTicks": 192,
          "midi": 65,
          "name": "F4",
          "ticks": 192384,
          "time": 313.125,
          "velocity": 0.7874015748031497
        },
        {
          "duration": 0.3125,
          "durationTicks": 192,
          "midi": 68,
          "name": "G#4",
          "ticks": 192480,
          "time": 313.28125,
          "velocity": 0.7874015748031497
        },
        {
          "duration": 0.3125,
          "durationTicks": 192,
          "midi": 60,
          "name": "C4",
          "ticks": 192576,
          "time": 313.4375,
          "velocity": 0.7874015748031497
        },
        {
          "duration": 0.15625,
          "durationTicks": 96,
          "midi": 53,
          "name": "F3",
          "ticks": 192576,
          "time": 313.4375,
          "velocity": 0.7874015748031497
        },
        {
          "duration": 0.3125,
          "durationTicks": 192,
          "midi": 65,
          "name": "F4",
          "ticks": 192672,
          "time": 313.59375,
          "velocity": 0.7874015748031497
        },
        {
          "duration": 0.15625,
          "durationTicks": 96,
          "midi": 53,
          "name": "F3",
          "ticks": 192684,
          "time": 313.61328125,
          "velocity": 0.5905511811023622
        },
        {
          "duration": 0.3125,
          "durationTicks": 192,
          "midi": 60,
          "name": "C4",
          "ticks": 192768,
          "time": 313.75,
          "velocity": 0.7874015748031497
        },
        {
          "duration": 0.46875,
          "durationTicks": 288,
          "midi": 56,
          "name": "G#3",
          "ticks": 192768,
          "time": 313.75,
          "velocity": 0.7874015748031497
        },
        {
          "duration": 0.3125,
          "durationTicks": 192,
          "midi": 65,
          "name": "F4",
          "ticks": 192864,
          "time": 313.90625,
          "velocity": 0.7874015748031497
        },
        {
          "duration": 0.3125,
          "durationTicks": 192,
          "midi": 68,
          "name": "G#4",
          "ticks": 192960,
          "time": 314.0625,
          "velocity": 0.7874015748031497
        },
        {
          "duration": 0.3125,
          "durationTicks": 192,
          "midi": 60,
          "name": "C4",
          "ticks": 193056,
          "time": 314.21875,
          "velocity": 0.7874015748031497
        },
        {
          "duration": 0.46875,
          "durationTicks": 288,
          "midi": 56,
          "name": "G#3",
          "ticks": 193056,
          "time": 314.21875,
          "velocity": 0.7874015748031497
        },
        {
          "duration": 0.3125,
          "durationTicks": 192,
          "midi": 65,
          "name": "F4",
          "ticks": 193152,
          "time": 314.375,
          "velocity": 0.7874015748031497
        },
        {
          "duration": 0.3125,
          "durationTicks": 192,
          "midi": 68,
          "name": "G#4",
          "ticks": 193248,
          "time": 314.53125,
          "velocity": 0.7874015748031497
        },
        {
          "duration": 0.3125,
          "durationTicks": 192,
          "midi": 60,
          "name": "C4",
          "ticks": 193344,
          "time": 314.6875,
          "velocity": 0.7874015748031497
        },
        {
          "duration": 0.15625,
          "durationTicks": 96,
          "midi": 53,
          "name": "F3",
          "ticks": 193344,
          "time": 314.6875,
          "velocity": 0.7874015748031497
        },
        {
          "duration": 0.3125,
          "durationTicks": 192,
          "midi": 65,
          "name": "F4",
          "ticks": 193440,
          "time": 314.84375,
          "velocity": 0.7874015748031497
        },
        {
          "duration": 0.15625,
          "durationTicks": 96,
          "midi": 53,
          "name": "F3",
          "ticks": 193452,
          "time": 314.86328125,
          "velocity": 0.5905511811023622
        },
        {
          "duration": 0.3125,
          "durationTicks": 192,
          "midi": 60,
          "name": "C4",
          "ticks": 193536,
          "time": 315,
          "velocity": 0.7874015748031497
        },
        {
          "duration": 0.3125,
          "durationTicks": 192,
          "midi": 55,
          "name": "G3",
          "ticks": 193536,
          "time": 315,
          "velocity": 0.7874015748031497
        },
        {
          "duration": 0.3125,
          "durationTicks": 192,
          "midi": 65,
          "name": "F4",
          "ticks": 193632,
          "time": 315.15625,
          "velocity": 0.7874015748031497
        },
        {
          "duration": 0.3125,
          "durationTicks": 192,
          "midi": 67,
          "name": "G4",
          "ticks": 193728,
          "time": 315.3125,
          "velocity": 0.7874015748031497
        },
        {
          "duration": 0.3125,
          "durationTicks": 192,
          "midi": 60,
          "name": "C4",
          "ticks": 193824,
          "time": 315.46875,
          "velocity": 0.7874015748031497
        },
        {
          "duration": 0.3125,
          "durationTicks": 192,
          "midi": 65,
          "name": "F4",
          "ticks": 193920,
          "time": 315.625,
          "velocity": 0.7874015748031497
        },
        {
          "duration": 0.3125,
          "durationTicks": 192,
          "midi": 67,
          "name": "G4",
          "ticks": 194016,
          "time": 315.78125,
          "velocity": 0.7874015748031497
        },
        {
          "duration": 0.3125,
          "durationTicks": 192,
          "midi": 60,
          "name": "C4",
          "ticks": 194112,
          "time": 315.9375,
          "velocity": 0.7874015748031497
        },
        {
          "duration": 0.3125,
          "durationTicks": 192,
          "midi": 65,
          "name": "F4",
          "ticks": 194208,
          "time": 316.09375,
          "velocity": 0.7874015748031497
        },
        {
          "duration": 0.3125,
          "durationTicks": 192,
          "midi": 60,
          "name": "C4",
          "ticks": 194304,
          "time": 316.25,
          "velocity": 0.7874015748031497
        },
        {
          "duration": 0.3125,
          "durationTicks": 192,
          "midi": 65,
          "name": "F4",
          "ticks": 194400,
          "time": 316.40625,
          "velocity": 0.7874015748031497
        },
        {
          "duration": 0.3125,
          "durationTicks": 192,
          "midi": 67,
          "name": "G4",
          "ticks": 194496,
          "time": 316.5625,
          "velocity": 0.7874015748031497
        },
        {
          "duration": 0.3125,
          "durationTicks": 192,
          "midi": 60,
          "name": "C4",
          "ticks": 194592,
          "time": 316.71875,
          "velocity": 0.7874015748031497
        },
        {
          "duration": 0.3125,
          "durationTicks": 192,
          "midi": 65,
          "name": "F4",
          "ticks": 194688,
          "time": 316.875,
          "velocity": 0.7874015748031497
        },
        {
          "duration": 0.3125,
          "durationTicks": 192,
          "midi": 67,
          "name": "G4",
          "ticks": 194784,
          "time": 317.03125,
          "velocity": 0.7874015748031497
        },
        {
          "duration": 0.3125,
          "durationTicks": 192,
          "midi": 60,
          "name": "C4",
          "ticks": 194880,
          "time": 317.1875,
          "velocity": 0.7874015748031497
        },
        {
          "duration": 0.3125,
          "durationTicks": 192,
          "midi": 65,
          "name": "F4",
          "ticks": 194976,
          "time": 317.34375,
          "velocity": 0.7874015748031497
        },
        {
          "duration": 0.3125,
          "durationTicks": 192,
          "midi": 60,
          "name": "C4",
          "ticks": 195072,
          "time": 317.5,
          "velocity": 0.7244094488188977
        },
        {
          "duration": 0.3125,
          "durationTicks": 192,
          "midi": 65,
          "name": "F4",
          "ticks": 195168,
          "time": 317.65625,
          "velocity": 0.7244094488188977
        },
        {
          "duration": 0.3125,
          "durationTicks": 192,
          "midi": 70,
          "name": "A#4",
          "ticks": 195264,
          "time": 317.8125,
          "velocity": 0.7244094488188977
        },
        {
          "duration": 0.3125,
          "durationTicks": 192,
          "midi": 60,
          "name": "C4",
          "ticks": 195360,
          "time": 317.96875,
          "velocity": 0.7244094488188977
        },
        {
          "duration": 0.3125,
          "durationTicks": 192,
          "midi": 65,
          "name": "F4",
          "ticks": 195456,
          "time": 318.125,
          "velocity": 0.6614173228346457
        },
        {
          "duration": 0.3125,
          "durationTicks": 192,
          "midi": 70,
          "name": "A#4",
          "ticks": 195552,
          "time": 318.28125,
          "velocity": 0.6614173228346457
        },
        {
          "duration": 0.3125,
          "durationTicks": 192,
          "midi": 60,
          "name": "C4",
          "ticks": 195648,
          "time": 318.4375,
          "velocity": 0.6614173228346457
        },
        {
          "duration": 0.3125,
          "durationTicks": 192,
          "midi": 65,
          "name": "F4",
          "ticks": 195744,
          "time": 318.59375,
          "velocity": 0.6614173228346457
        },
        {
          "duration": 0.3125,
          "durationTicks": 192,
          "midi": 60,
          "name": "C4",
          "ticks": 195840,
          "time": 318.75,
          "velocity": 0.5984251968503937
        },
        {
          "duration": 0.3125,
          "durationTicks": 192,
          "midi": 65,
          "name": "F4",
          "ticks": 195936,
          "time": 318.90625,
          "velocity": 0.5984251968503937
        },
        {
          "duration": 0.3125,
          "durationTicks": 192,
          "midi": 70,
          "name": "A#4",
          "ticks": 196032,
          "time": 319.0625,
          "velocity": 0.5984251968503937
        },
        {
          "duration": 0.3125,
          "durationTicks": 192,
          "midi": 60,
          "name": "C4",
          "ticks": 196128,
          "time": 319.21875,
          "velocity": 0.5984251968503937
        },
        {
          "duration": 0.3125,
          "durationTicks": 192,
          "midi": 65,
          "name": "F4",
          "ticks": 196224,
          "time": 319.375,
          "velocity": 0.48031496062992124
        },
        {
          "duration": 0.3125,
          "durationTicks": 192,
          "midi": 68,
          "name": "G#4",
          "ticks": 196320,
          "time": 319.53125,
          "velocity": 0.48031496062992124
        },
        {
          "duration": 0.3125,
          "durationTicks": 192,
          "midi": 60,
          "name": "C4",
          "ticks": 196416,
          "time": 319.6875,
          "velocity": 0.4094488188976378
        },
        {
          "duration": 0.15625,
          "durationTicks": 96,
          "midi": 67,
          "name": "G4",
          "ticks": 196512,
          "time": 319.84375,
          "velocity": 0.4094488188976378
        }
      ],
      "endOfTrackTicks": 196608
    },
    {
      "channel": 3,
      "controlChanges": {},
      "pitchBends": [],
      "instrument": {
        "family": "reed",
        "number": 64,
        "name": "soprano sax"
      },
      "name": "Saxophone",
      "notes": [
        {
          "duration": 0.15625,
          "durationTicks": 96,
          "midi": 48,
          "name": "C3",
          "ticks": 12288,
          "time": 20,
          "velocity": 0.6850393700787402
        },
        {
          "duration": 0.15625,
          "durationTicks": 96,
          "midi": 53,
          "name": "F3",
          "ticks": 12480,
          "time": 20.3125,
          "velocity": 0.6850393700787402
        },
        {
          "duration": 1.25,
          "durationTicks": 768,
          "midi": 55,
          "name": "G3",
          "ticks": 12672,
          "time": 20.625,
          "velocity": 0.6850393700787402
        },
        {
          "duration": 0.15625,
          "durationTicks": 96,
          "midi": 53,
          "name": "F3",
          "ticks": 13632,
          "time": 22.1875,
          "velocity": 0.6850393700787402
        },
        {
          "duration": 0.15625,
          "durationTicks": 96,
          "midi": 55,
          "name": "G3",
          "ticks": 13728,
          "time": 22.34375,
          "velocity": 0.6850393700787402
        },
        {
          "duration": 0.3125,
          "durationTicks": 192,
          "midi": 56,
          "name": "G#3",
          "ticks": 13824,
          "time": 22.5,
          "velocity": 0.6850393700787402
        },
        {
          "duration": 0.3125,
          "durationTicks": 192,
          "midi": 55,
          "name": "G3",
          "ticks": 14208,
          "time": 23.125,
          "velocity": 0.6850393700787402
        },
        {
          "duration": 0.9375,
          "durationTicks": 576,
          "midi": 53,
          "name": "F3",
          "ticks": 14592,
          "time": 23.75,
          "velocity": 0.6850393700787402
        },
        {
          "duration": 1.875,
          "durationTicks": 1152,
          "midi": 51,
          "name": "D#3",
          "ticks": 15360,
          "time": 25,
          "velocity": 0.6850393700787402
        },
        {
          "duration": 0.15625,
          "durationTicks": 96,
          "midi": 46,
          "name": "A#2",
          "ticks": 16704,
          "time": 27.1875,
          "velocity": 0.6850393700787402
        },
        {
          "duration": 2.1875,
          "durationTicks": 1344,
          "midi": 48,
          "name": "C3",
          "ticks": 16896,
          "time": 27.5,
          "velocity": 0.6850393700787402
        },
        {
          "duration": 0.3125,
          "durationTicks": 192,
          "midi": 54,
          "name": "F#3",
          "ticks": 17664,
          "time": 28.75,
          "velocity": 0.6850393700787402
        },
        {
          "duration": 0.3125,
          "durationTicks": 192,
          "midi": 53,
          "name": "F3",
          "ticks": 18048,
          "time": 29.375,
          "velocity": 0.6850393700787402
        },
        {
          "duration": 0.15625,
          "durationTicks": 96,
          "midi": 48,
          "name": "C3",
          "ticks": 18432,
          "time": 30,
          "velocity": 0.6850393700787402
        },
        {
          "duration": 0.15625,
          "durationTicks": 96,
          "midi": 53,
          "name": "F3",
          "ticks": 18624,
          "time": 30.3125,
          "velocity": 0.6850393700787402
        },
        {
          "duration": 1.25,
          "durationTicks": 768,
          "midi": 55,
          "name": "G3",
          "ticks": 18816,
          "time": 30.625,
          "velocity": 0.6850393700787402
        },
        {
          "duration": 0.15625,
          "durationTicks": 96,
          "midi": 53,
          "name": "F3",
          "ticks": 19776,
          "time": 32.1875,
          "velocity": 0.6850393700787402
        },
        {
          "duration": 0.15625,
          "durationTicks": 96,
          "midi": 55,
          "name": "G3",
          "ticks": 19872,
          "time": 32.34375,
          "velocity": 0.6850393700787402
        },
        {
          "duration": 0.3125,
          "durationTicks": 192,
          "midi": 56,
          "name": "G#3",
          "ticks": 19968,
          "time": 32.5,
          "velocity": 0.6850393700787402
        },
        {
          "duration": 0.3125,
          "durationTicks": 192,
          "midi": 58,
          "name": "A#3",
          "ticks": 20352,
          "time": 33.125,
          "velocity": 0.6850393700787402
        },
        {
          "duration": 0.9375,
          "durationTicks": 576,
          "midi": 60,
          "name": "C4",
          "ticks": 20736,
          "time": 33.75,
          "velocity": 0.7874015748031497
        },
        {
          "duration": 1.5625,
          "durationTicks": 960,
          "midi": 61,
          "name": "C#4",
          "ticks": 21504,
          "time": 35,
          "velocity": 0.7874015748031497
        },
        {
          "duration": 0.15625,
          "durationTicks": 96,
          "midi": 63,
          "name": "D#4",
          "ticks": 22656,
          "time": 36.875,
          "velocity": 0.7874015748031497
        },
        {
          "duration": 0.15625,
          "durationTicks": 96,
          "midi": 61,
          "name": "C#4",
          "ticks": 22848,
          "time": 37.1875,
          "velocity": 0.7874015748031497
        },
        {
          "duration": 0.9375,
          "durationTicks": 576,
          "midi": 60,
          "name": "C4",
          "ticks": 23040,
          "time": 37.5,
          "velocity": 0.7874015748031497
        },
        {
          "duration": 0.3125,
          "durationTicks": 192,
          "midi": 58,
          "name": "A#3",
          "ticks": 23808,
          "time": 38.75,
          "velocity": 0.6850393700787402
        },
        {
          "duration": 0.3125,
          "durationTicks": 192,
          "midi": 56,
          "name": "G#3",
          "ticks": 24192,
          "time": 39.375,
          "velocity": 0.6850393700787402
        },
        {
          "duration": 0.15625,
          "durationTicks": 96,
          "midi": 48,
          "name": "C3",
          "ticks": 24576,
          "time": 40,
          "velocity": 0.6850393700787402
        },
        {
          "duration": 0.15625,
          "durationTicks": 96,
          "midi": 53,
          "name": "F3",
          "ticks": 24768,
          "time": 40.3125,
          "velocity": 0.6850393700787402
        },
        {
          "duration": 1.25,
          "durationTicks": 768,
          "midi": 55,
          "name": "G3",
          "ticks": 24960,
          "time": 40.625,
          "velocity": 0.6850393700787402
        },
        {
          "duration": 0.15625,
          "durationTicks": 96,
          "midi": 53,
          "name": "F3",
          "ticks": 25920,
          "time": 42.1875,
          "velocity": 0.6850393700787402
        },
        {
          "duration": 0.15625,
          "durationTicks": 96,
          "midi": 55,
          "name": "G3",
          "ticks": 26016,
          "time": 42.34375,
          "velocity": 0.6850393700787402
        },
        {
          "duration": 0.3125,
          "durationTicks": 192,
          "midi": 56,
          "name": "G#3",
          "ticks": 26112,
          "time": 42.5,
          "velocity": 0.6850393700787402
        },
        {
          "duration": 0.3125,
          "durationTicks": 192,
          "midi": 55,
          "name": "G3",
          "ticks": 26496,
          "time": 43.125,
          "velocity": 0.6850393700787402
        },
        {
          "duration": 0.9375,
          "durationTicks": 576,
          "midi": 53,
          "name": "F3",
          "ticks": 26880,
          "time": 43.75,
          "velocity": 0.6850393700787402
        },
        {
          "duration": 1.875,
          "durationTicks": 1152,
          "midi": 51,
          "name": "D#3",
          "ticks": 27648,
          "time": 45,
          "velocity": 0.6850393700787402
        },
        {
          "duration": 0.15625,
          "durationTicks": 96,
          "midi": 46,
          "name": "A#2",
          "ticks": 28992,
          "time": 47.1875,
          "velocity": 0.6850393700787402
        },
        {
          "duration": 2.1875,
          "durationTicks": 1344,
          "midi": 48,
          "name": "C3",
          "ticks": 29184,
          "time": 47.5,
          "velocity": 0.6850393700787402
        },
        {
          "duration": 0.3125,
          "durationTicks": 192,
          "midi": 54,
          "name": "F#3",
          "ticks": 29952,
          "time": 48.75,
          "velocity": 0.6850393700787402
        },
        {
          "duration": 0.3125,
          "durationTicks": 192,
          "midi": 53,
          "name": "F3",
          "ticks": 30336,
          "time": 49.375,
          "velocity": 0.6850393700787402
        },
        {
          "duration": 0.15625,
          "durationTicks": 96,
          "midi": 48,
          "name": "C3",
          "ticks": 30720,
          "time": 50,
          "velocity": 0.6850393700787402
        },
        {
          "duration": 0.15625,
          "durationTicks": 96,
          "midi": 53,
          "name": "F3",
          "ticks": 30912,
          "time": 50.3125,
          "velocity": 0.6850393700787402
        },
        {
          "duration": 1.25,
          "durationTicks": 768,
          "midi": 55,
          "name": "G3",
          "ticks": 31104,
          "time": 50.625,
          "velocity": 0.6850393700787402
        },
        {
          "duration": 0.15625,
          "durationTicks": 96,
          "midi": 53,
          "name": "F3",
          "ticks": 32064,
          "time": 52.1875,
          "velocity": 0.6850393700787402
        },
        {
          "duration": 0.15625,
          "durationTicks": 96,
          "midi": 55,
          "name": "G3",
          "ticks": 32160,
          "time": 52.34375,
          "velocity": 0.6850393700787402
        },
        {
          "duration": 0.3125,
          "durationTicks": 192,
          "midi": 56,
          "name": "G#3",
          "ticks": 32256,
          "time": 52.5,
          "velocity": 0.6850393700787402
        },
        {
          "duration": 0.3125,
          "durationTicks": 192,
          "midi": 58,
          "name": "A#3",
          "ticks": 32640,
          "time": 53.125,
          "velocity": 0.6850393700787402
        },
        {
          "duration": 0.9375,
          "durationTicks": 576,
          "midi": 60,
          "name": "C4",
          "ticks": 33024,
          "time": 53.75,
          "velocity": 0.7874015748031497
        },
        {
          "duration": 1.5625,
          "durationTicks": 960,
          "midi": 61,
          "name": "C#4",
          "ticks": 33792,
          "time": 55,
          "velocity": 0.7874015748031497
        },
        {
          "duration": 0.15625,
          "durationTicks": 96,
          "midi": 63,
          "name": "D#4",
          "ticks": 34944,
          "time": 56.875,
          "velocity": 0.7874015748031497
        },
        {
          "duration": 0.15625,
          "durationTicks": 96,
          "midi": 61,
          "name": "C#4",
          "ticks": 35136,
          "time": 57.1875,
          "velocity": 0.7874015748031497
        },
        {
          "duration": 0.9375,
          "durationTicks": 576,
          "midi": 60,
          "name": "C4",
          "ticks": 35328,
          "time": 57.5,
          "velocity": 0.7874015748031497
        },
        {
          "duration": 0.3125,
          "durationTicks": 192,
          "midi": 58,
          "name": "A#3",
          "ticks": 36096,
          "time": 58.75,
          "velocity": 0.6850393700787402
        },
        {
          "duration": 0.3125,
          "durationTicks": 192,
          "midi": 56,
          "name": "G#3",
          "ticks": 36480,
          "time": 59.375,
          "velocity": 0.6850393700787402
        },
        {
          "duration": 0.15625,
          "durationTicks": 96,
          "midi": 48,
          "name": "C3",
          "ticks": 36864,
          "time": 60,
          "velocity": 0.6850393700787402
        },
        {
          "duration": 0.15625,
          "durationTicks": 96,
          "midi": 53,
          "name": "F3",
          "ticks": 37056,
          "time": 60.3125,
          "velocity": 0.6850393700787402
        },
        {
          "duration": 1.25,
          "durationTicks": 768,
          "midi": 55,
          "name": "G3",
          "ticks": 37248,
          "time": 60.625,
          "velocity": 0.6850393700787402
        },
        {
          "duration": 0.15625,
          "durationTicks": 96,
          "midi": 53,
          "name": "F3",
          "ticks": 38208,
          "time": 62.1875,
          "velocity": 0.6850393700787402
        },
        {
          "duration": 0.15625,
          "durationTicks": 96,
          "midi": 55,
          "name": "G3",
          "ticks": 38304,
          "time": 62.34375,
          "velocity": 0.6850393700787402
        },
        {
          "duration": 0.3125,
          "durationTicks": 192,
          "midi": 56,
          "name": "G#3",
          "ticks": 38400,
          "time": 62.5,
          "velocity": 0.6850393700787402
        },
        {
          "duration": 0.3125,
          "durationTicks": 192,
          "midi": 55,
          "name": "G3",
          "ticks": 38784,
          "time": 63.125,
          "velocity": 0.6850393700787402
        },
        {
          "duration": 0.9375,
          "durationTicks": 576,
          "midi": 53,
          "name": "F3",
          "ticks": 39168,
          "time": 63.75,
          "velocity": 0.6850393700787402
        },
        {
          "duration": 1.875,
          "durationTicks": 1152,
          "midi": 51,
          "name": "D#3",
          "ticks": 39936,
          "time": 65,
          "velocity": 0.6850393700787402
        },
        {
          "duration": 0.15625,
          "durationTicks": 96,
          "midi": 46,
          "name": "A#2",
          "ticks": 41280,
          "time": 67.1875,
          "velocity": 0.6850393700787402
        },
        {
          "duration": 2.1875,
          "durationTicks": 1344,
          "midi": 48,
          "name": "C3",
          "ticks": 41472,
          "time": 67.5,
          "velocity": 0.6850393700787402
        },
        {
          "duration": 0.3125,
          "durationTicks": 192,
          "midi": 55,
          "name": "G3",
          "ticks": 42240,
          "time": 68.75,
          "velocity": 0.6850393700787402
        },
        {
          "duration": 0.3125,
          "durationTicks": 192,
          "midi": 56,
          "name": "G#3",
          "ticks": 42624,
          "time": 69.375,
          "velocity": 0.6850393700787402
        },
        {
          "duration": 0.15625,
          "durationTicks": 96,
          "midi": 48,
          "name": "C3",
          "ticks": 43008,
          "time": 70,
          "velocity": 0.6850393700787402
        },
        {
          "duration": 0.15625,
          "durationTicks": 96,
          "midi": 53,
          "name": "F3",
          "ticks": 43200,
          "time": 70.3125,
          "velocity": 0.6850393700787402
        },
        {
          "duration": 1.25,
          "durationTicks": 768,
          "midi": 55,
          "name": "G3",
          "ticks": 43392,
          "time": 70.625,
          "velocity": 0.6850393700787402
        },
        {
          "duration": 0.15625,
          "durationTicks": 96,
          "midi": 53,
          "name": "F3",
          "ticks": 44352,
          "time": 72.1875,
          "velocity": 0.6850393700787402
        },
        {
          "duration": 0.15625,
          "durationTicks": 96,
          "midi": 55,
          "name": "G3",
          "ticks": 44448,
          "time": 72.34375,
          "velocity": 0.6850393700787402
        },
        {
          "duration": 0.3125,
          "durationTicks": 192,
          "midi": 56,
          "name": "G#3",
          "ticks": 44544,
          "time": 72.5,
          "velocity": 0.6850393700787402
        },
        {
          "duration": 0.3125,
          "durationTicks": 192,
          "midi": 58,
          "name": "A#3",
          "ticks": 44928,
          "time": 73.125,
          "velocity": 0.6850393700787402
        },
        {
          "duration": 0.9375,
          "durationTicks": 576,
          "midi": 60,
          "name": "C4",
          "ticks": 45312,
          "time": 73.75,
          "velocity": 0.7874015748031497
        },
        {
          "duration": 1.5625,
          "durationTicks": 960,
          "midi": 61,
          "name": "C#4",
          "ticks": 46080,
          "time": 75,
          "velocity": 0.7874015748031497
        },
        {
          "duration": 0.15625,
          "durationTicks": 96,
          "midi": 65,
          "name": "F4",
          "ticks": 47232,
          "time": 76.875,
          "velocity": 0.7480314960629921
        },
        {
          "duration": 0.15625,
          "durationTicks": 96,
          "midi": 67,
          "name": "G4",
          "ticks": 47424,
          "time": 77.1875,
          "velocity": 0.7480314960629921
        },
        {
          "duration": 0.9375,
          "durationTicks": 576,
          "midi": 68,
          "name": "G#4",
          "ticks": 47616,
          "time": 77.5,
          "velocity": 0.7480314960629921
        },
        {
          "duration": 0.3125,
          "durationTicks": 192,
          "midi": 67,
          "name": "G4",
          "ticks": 48384,
          "time": 78.75,
          "velocity": 0.7480314960629921
        },
        {
          "duration": 0.3125,
          "durationTicks": 192,
          "midi": 60,
          "name": "C4",
          "ticks": 48768,
          "time": 79.375,
          "velocity": 0.7874015748031497
        },
        {
          "duration": 0.15625,
          "durationTicks": 96,
          "midi": 48,
          "name": "C3",
          "ticks": 49152,
          "time": 80,
          "velocity": 0.6850393700787402
        },
        {
          "duration": 0.15625,
          "durationTicks": 96,
          "midi": 48,
          "name": "C3",
          "ticks": 55296,
          "time": 90,
          "velocity": 0.6850393700787402
        },
        {
          "duration": 0.15625,
          "durationTicks": 96,
          "midi": 49,
          "name": "C#3",
          "ticks": 56832,
          "time": 92.5,
          "velocity": 0.6850393700787402
        },
        {
          "duration": 0.15625,
          "durationTicks": 96,
          "midi": 51,
          "name": "D#3",
          "ticks": 58368,
          "time": 95,
          "velocity": 0.6850393700787402
        },
        {
          "duration": 0.15625,
          "durationTicks": 96,
          "midi": 65,
          "name": "F4",
          "ticks": 59520,
          "time": 96.875,
          "velocity": 0.7480314960629921
        },
        {
          "duration": 0.15625,
          "durationTicks": 96,
          "midi": 67,
          "name": "G4",
          "ticks": 59712,
          "time": 97.1875,
          "velocity": 0.7480314960629921
        },
        {
          "duration": 0.9375,
          "durationTicks": 576,
          "midi": 68,
          "name": "G#4",
          "ticks": 59904,
          "time": 97.5,
          "velocity": 0.7480314960629921
        },
        {
          "duration": 0.3125,
          "durationTicks": 192,
          "midi": 67,
          "name": "G4",
          "ticks": 60672,
          "time": 98.75,
          "velocity": 0.7480314960629921
        },
        {
          "duration": 0.3125,
          "durationTicks": 192,
          "midi": 60,
          "name": "C4",
          "ticks": 61056,
          "time": 99.375,
          "velocity": 0.7874015748031497
        },
        {
          "duration": 0.15625,
          "durationTicks": 96,
          "midi": 48,
          "name": "C3",
          "ticks": 61440,
          "time": 100,
          "velocity": 0.6850393700787402
        },
        {
          "duration": 0.15625,
          "durationTicks": 96,
          "midi": 53,
          "name": "F3",
          "ticks": 61632,
          "time": 100.3125,
          "velocity": 0.6850393700787402
        },
        {
          "duration": 0.15625,
          "durationTicks": 96,
          "midi": 55,
          "name": "G3",
          "ticks": 61824,
          "time": 100.625,
          "velocity": 0.6850393700787402
        },
        {
          "duration": 0.15625,
          "durationTicks": 96,
          "midi": 48,
          "name": "C3",
          "ticks": 62016,
          "time": 100.9375,
          "velocity": 0.6850393700787402
        },
        {
          "duration": 0.15625,
          "durationTicks": 96,
          "midi": 53,
          "name": "F3",
          "ticks": 62208,
          "time": 101.25,
          "velocity": 0.6850393700787402
        },
        {
          "duration": 0.15625,
          "durationTicks": 96,
          "midi": 55,
          "name": "G3",
          "ticks": 62400,
          "time": 101.5625,
          "velocity": 0.6850393700787402
        },
        {
          "duration": 0.15625,
          "durationTicks": 96,
          "midi": 48,
          "name": "C3",
          "ticks": 62592,
          "time": 101.875,
          "velocity": 0.6850393700787402
        },
        {
          "duration": 0.15625,
          "durationTicks": 96,
          "midi": 53,
          "name": "F3",
          "ticks": 62784,
          "time": 102.1875,
          "velocity": 0.6850393700787402
        },
        {
          "duration": 0.15625,
          "durationTicks": 96,
          "midi": 48,
          "name": "C3",
          "ticks": 62976,
          "time": 102.5,
          "velocity": 0.6850393700787402
        },
        {
          "duration": 0.15625,
          "durationTicks": 96,
          "midi": 53,
          "name": "F3",
          "ticks": 63168,
          "time": 102.8125,
          "velocity": 0.6850393700787402
        },
        {
          "duration": 0.15625,
          "durationTicks": 96,
          "midi": 56,
          "name": "G#3",
          "ticks": 63360,
          "time": 103.125,
          "velocity": 0.6850393700787402
        },
        {
          "duration": 0.15625,
          "durationTicks": 96,
          "midi": 48,
          "name": "C3",
          "ticks": 63552,
          "time": 103.4375,
          "velocity": 0.6850393700787402
        },
        {
          "duration": 0.15625,
          "durationTicks": 96,
          "midi": 53,
          "name": "F3",
          "ticks": 63744,
          "time": 103.75,
          "velocity": 0.6850393700787402
        },
        {
          "duration": 0.15625,
          "durationTicks": 96,
          "midi": 56,
          "name": "G#3",
          "ticks": 63936,
          "time": 104.0625,
          "velocity": 0.6850393700787402
        },
        {
          "duration": 0.15625,
          "durationTicks": 96,
          "midi": 48,
          "name": "C3",
          "ticks": 64128,
          "time": 104.375,
          "velocity": 0.6850393700787402
        },
        {
          "duration": 0.15625,
          "durationTicks": 96,
          "midi": 53,
          "name": "F3",
          "ticks": 64320,
          "time": 104.6875,
          "velocity": 0.6850393700787402
        },
        {
          "duration": 0.15625,
          "durationTicks": 96,
          "midi": 48,
          "name": "C3",
          "ticks": 64512,
          "time": 105,
          "velocity": 0.6850393700787402
        },
        {
          "duration": 0.15625,
          "durationTicks": 96,
          "midi": 53,
          "name": "F3",
          "ticks": 64704,
          "time": 105.3125,
          "velocity": 0.6850393700787402
        },
        {
          "duration": 0.15625,
          "durationTicks": 96,
          "midi": 55,
          "name": "G3",
          "ticks": 64896,
          "time": 105.625,
          "velocity": 0.6850393700787402
        },
        {
          "duration": 0.15625,
          "durationTicks": 96,
          "midi": 48,
          "name": "C3",
          "ticks": 65088,
          "time": 105.9375,
          "velocity": 0.6850393700787402
        },
        {
          "duration": 0.15625,
          "durationTicks": 96,
          "midi": 53,
          "name": "F3",
          "ticks": 65280,
          "time": 106.25,
          "velocity": 0.6850393700787402
        },
        {
          "duration": 0.15625,
          "durationTicks": 96,
          "midi": 55,
          "name": "G3",
          "ticks": 65472,
          "time": 106.5625,
          "velocity": 0.6850393700787402
        },
        {
          "duration": 0.15625,
          "durationTicks": 96,
          "midi": 48,
          "name": "C3",
          "ticks": 65664,
          "time": 106.875,
          "velocity": 0.6850393700787402
        },
        {
          "duration": 0.15625,
          "durationTicks": 96,
          "midi": 53,
          "name": "F3",
          "ticks": 65856,
          "time": 107.1875,
          "velocity": 0.6850393700787402
        },
        {
          "duration": 0.15625,
          "durationTicks": 96,
          "midi": 48,
          "name": "C3",
          "ticks": 66048,
          "time": 107.5,
          "velocity": 0.6850393700787402
        },
        {
          "duration": 0.15625,
          "durationTicks": 96,
          "midi": 53,
          "name": "F3",
          "ticks": 66240,
          "time": 107.8125,
          "velocity": 0.6850393700787402
        },
        {
          "duration": 0.15625,
          "durationTicks": 96,
          "midi": 58,
          "name": "A#3",
          "ticks": 66432,
          "time": 108.125,
          "velocity": 0.6850393700787402
        },
        {
          "duration": 0.15625,
          "durationTicks": 96,
          "midi": 48,
          "name": "C3",
          "ticks": 66624,
          "time": 108.4375,
          "velocity": 0.6850393700787402
        },
        {
          "duration": 0.15625,
          "durationTicks": 96,
          "midi": 53,
          "name": "F3",
          "ticks": 66816,
          "time": 108.75,
          "velocity": 0.6850393700787402
        },
        {
          "duration": 0.15625,
          "durationTicks": 96,
          "midi": 58,
          "name": "A#3",
          "ticks": 67008,
          "time": 109.0625,
          "velocity": 0.6850393700787402
        },
        {
          "duration": 0.15625,
          "durationTicks": 96,
          "midi": 56,
          "name": "G#3",
          "ticks": 67200,
          "time": 109.375,
          "velocity": 0.6850393700787402
        },
        {
          "duration": 0.15625,
          "durationTicks": 96,
          "midi": 55,
          "name": "G3",
          "ticks": 67392,
          "time": 109.6875,
          "velocity": 0.6850393700787402
        },
        {
          "duration": 0.15625,
          "durationTicks": 96,
          "midi": 48,
          "name": "C3",
          "ticks": 67584,
          "time": 110,
          "velocity": 0.6850393700787402
        },
        {
          "duration": 0.15625,
          "durationTicks": 96,
          "midi": 53,
          "name": "F3",
          "ticks": 67776,
          "time": 110.3125,
          "velocity": 0.6850393700787402
        },
        {
          "duration": 1.25,
          "durationTicks": 768,
          "midi": 55,
          "name": "G3",
          "ticks": 67968,
          "time": 110.625,
          "velocity": 0.6850393700787402
        },
        {
          "duration": 0.15625,
          "durationTicks": 96,
          "midi": 53,
          "name": "F3",
          "ticks": 68928,
          "time": 112.1875,
          "velocity": 0.6850393700787402
        },
        {
          "duration": 0.15625,
          "durationTicks": 96,
          "midi": 55,
          "name": "G3",
          "ticks": 69024,
          "time": 112.34375,
          "velocity": 0.6850393700787402
        },
        {
          "duration": 0.3125,
          "durationTicks": 192,
          "midi": 56,
          "name": "G#3",
          "ticks": 69120,
          "time": 112.5,
          "velocity": 0.6850393700787402
        },
        {
          "duration": 0.3125,
          "durationTicks": 192,
          "midi": 55,
          "name": "G3",
          "ticks": 69504,
          "time": 113.125,
          "velocity": 0.6850393700787402
        },
        {
          "duration": 0.9375,
          "durationTicks": 576,
          "midi": 53,
          "name": "F3",
          "ticks": 69888,
          "time": 113.75,
          "velocity": 0.6850393700787402
        },
        {
          "duration": 1.875,
          "durationTicks": 1152,
          "midi": 51,
          "name": "D#3",
          "ticks": 70656,
          "time": 115,
          "velocity": 0.6850393700787402
        },
        {
          "duration": 0.15625,
          "durationTicks": 96,
          "midi": 46,
          "name": "A#2",
          "ticks": 72000,
          "time": 117.1875,
          "velocity": 0.6850393700787402
        },
        {
          "duration": 2.1875,
          "durationTicks": 1344,
          "midi": 48,
          "name": "C3",
          "ticks": 72192,
          "time": 117.5,
          "velocity": 0.6850393700787402
        },
        {
          "duration": 0.3125,
          "durationTicks": 192,
          "midi": 55,
          "name": "G3",
          "ticks": 72960,
          "time": 118.75,
          "velocity": 0.6850393700787402
        },
        {
          "duration": 0.3125,
          "durationTicks": 192,
          "midi": 56,
          "name": "G#3",
          "ticks": 73344,
          "time": 119.375,
          "velocity": 0.6850393700787402
        },
        {
          "duration": 0.15625,
          "durationTicks": 96,
          "midi": 48,
          "name": "C3",
          "ticks": 73728,
          "time": 120,
          "velocity": 0.6850393700787402
        },
        {
          "duration": 0.15625,
          "durationTicks": 96,
          "midi": 53,
          "name": "F3",
          "ticks": 73920,
          "time": 120.3125,
          "velocity": 0.6850393700787402
        },
        {
          "duration": 1.71875,
          "durationTicks": 1056,
          "midi": 55,
          "name": "G3",
          "ticks": 74112,
          "time": 120.625,
          "velocity": 0.6850393700787402
        },
        {
          "duration": 2.1875,
          "durationTicks": 1344,
          "midi": 56,
          "name": "G#3",
          "ticks": 75264,
          "time": 122.5,
          "velocity": 0.6850393700787402
        },
        {
          "duration": 0.15625,
          "durationTicks": 96,
          "midi": 48,
          "name": "C3",
          "ticks": 76800,
          "time": 125,
          "velocity": 0.6850393700787402
        },
        {
          "duration": 0.15625,
          "durationTicks": 96,
          "midi": 53,
          "name": "F3",
          "ticks": 76992,
          "time": 125.3125,
          "velocity": 0.6850393700787402
        },
        {
          "duration": 1.71875,
          "durationTicks": 1056,
          "midi": 55,
          "name": "G3",
          "ticks": 77184,
          "time": 125.625,
          "velocity": 0.6850393700787402
        },
        {
          "duration": 0.15625,
          "durationTicks": 96,
          "midi": 58,
          "name": "A#3",
          "ticks": 78336,
          "time": 127.5,
          "velocity": 0.6850393700787402
        },
        {
          "duration": 1.875,
          "durationTicks": 1152,
          "midi": 60,
          "name": "C4",
          "ticks": 78528,
          "time": 127.8125,
          "velocity": 0.7874015748031497
        },
        {
          "duration": 0.15625,
          "durationTicks": 96,
          "midi": 48,
          "name": "C3",
          "ticks": 79872,
          "time": 130,
          "velocity": 0.6850393700787402
        },
        {
          "duration": 0.15625,
          "durationTicks": 96,
          "midi": 53,
          "name": "F3",
          "ticks": 80064,
          "time": 130.3125,
          "velocity": 0.6850393700787402
        },
        {
          "duration": 0.15625,
          "durationTicks": 96,
          "midi": 55,
          "name": "G3",
          "ticks": 80256,
          "time": 130.625,
          "velocity": 0.6850393700787402
        },
        {
          "duration": 0.15625,
          "durationTicks": 96,
          "midi": 48,
          "name": "C3",
          "ticks": 80448,
          "time": 130.9375,
          "velocity": 0.6850393700787402
        },
        {
          "duration": 0.15625,
          "durationTicks": 96,
          "midi": 53,
          "name": "F3",
          "ticks": 80640,
          "time": 131.25,
          "velocity": 0.6850393700787402
        },
        {
          "duration": 0.15625,
          "durationTicks": 96,
          "midi": 55,
          "name": "G3",
          "ticks": 80832,
          "time": 131.5625,
          "velocity": 0.6850393700787402
        },
        {
          "duration": 0.15625,
          "durationTicks": 96,
          "midi": 48,
          "name": "C3",
          "ticks": 81024,
          "time": 131.875,
          "velocity": 0.6850393700787402
        },
        {
          "duration": 0.15625,
          "durationTicks": 96,
          "midi": 53,
          "name": "F3",
          "ticks": 81216,
          "time": 132.1875,
          "velocity": 0.6850393700787402
        },
        {
          "duration": 0.15625,
          "durationTicks": 96,
          "midi": 48,
          "name": "C3",
          "ticks": 81408,
          "time": 132.5,
          "velocity": 0.6850393700787402
        },
        {
          "duration": 0.15625,
          "durationTicks": 96,
          "midi": 53,
          "name": "F3",
          "ticks": 81600,
          "time": 132.8125,
          "velocity": 0.6850393700787402
        },
        {
          "duration": 0.15625,
          "durationTicks": 96,
          "midi": 56,
          "name": "G#3",
          "ticks": 81792,
          "time": 133.125,
          "velocity": 0.6850393700787402
        },
        {
          "duration": 0.15625,
          "durationTicks": 96,
          "midi": 48,
          "name": "C3",
          "ticks": 81984,
          "time": 133.4375,
          "velocity": 0.6850393700787402
        },
        {
          "duration": 0.15625,
          "durationTicks": 96,
          "midi": 53,
          "name": "F3",
          "ticks": 82176,
          "time": 133.75,
          "velocity": 0.6850393700787402
        },
        {
          "duration": 0.15625,
          "durationTicks": 96,
          "midi": 56,
          "name": "G#3",
          "ticks": 82368,
          "time": 134.0625,
          "velocity": 0.6850393700787402
        },
        {
          "duration": 0.15625,
          "durationTicks": 96,
          "midi": 48,
          "name": "C3",
          "ticks": 82560,
          "time": 134.375,
          "velocity": 0.6850393700787402
        },
        {
          "duration": 0.15625,
          "durationTicks": 96,
          "midi": 53,
          "name": "F3",
          "ticks": 82752,
          "time": 134.6875,
          "velocity": 0.6850393700787402
        },
        {
          "duration": 0.15625,
          "durationTicks": 96,
          "midi": 48,
          "name": "C3",
          "ticks": 82944,
          "time": 135,
          "velocity": 0.6850393700787402
        },
        {
          "duration": 0.15625,
          "durationTicks": 96,
          "midi": 53,
          "name": "F3",
          "ticks": 83136,
          "time": 135.3125,
          "velocity": 0.6850393700787402
        },
        {
          "duration": 0.15625,
          "durationTicks": 96,
          "midi": 55,
          "name": "G3",
          "ticks": 83328,
          "time": 135.625,
          "velocity": 0.6850393700787402
        },
        {
          "duration": 0.15625,
          "durationTicks": 96,
          "midi": 48,
          "name": "C3",
          "ticks": 83520,
          "time": 135.9375,
          "velocity": 0.6850393700787402
        },
        {
          "duration": 0.15625,
          "durationTicks": 96,
          "midi": 53,
          "name": "F3",
          "ticks": 83712,
          "time": 136.25,
          "velocity": 0.6850393700787402
        },
        {
          "duration": 0.15625,
          "durationTicks": 96,
          "midi": 55,
          "name": "G3",
          "ticks": 83904,
          "time": 136.5625,
          "velocity": 0.6850393700787402
        },
        {
          "duration": 0.15625,
          "durationTicks": 96,
          "midi": 48,
          "name": "C3",
          "ticks": 84096,
          "time": 136.875,
          "velocity": 0.6850393700787402
        },
        {
          "duration": 0.15625,
          "durationTicks": 96,
          "midi": 53,
          "name": "F3",
          "ticks": 84288,
          "time": 137.1875,
          "velocity": 0.6850393700787402
        },
        {
          "duration": 0.15625,
          "durationTicks": 96,
          "midi": 48,
          "name": "C3",
          "ticks": 84480,
          "time": 137.5,
          "velocity": 0.6850393700787402
        },
        {
          "duration": 0.15625,
          "durationTicks": 96,
          "midi": 53,
          "name": "F3",
          "ticks": 84672,
          "time": 137.8125,
          "velocity": 0.6850393700787402
        },
        {
          "duration": 0.15625,
          "durationTicks": 96,
          "midi": 58,
          "name": "A#3",
          "ticks": 84864,
          "time": 138.125,
          "velocity": 0.6850393700787402
        },
        {
          "duration": 0.15625,
          "durationTicks": 96,
          "midi": 48,
          "name": "C3",
          "ticks": 85056,
          "time": 138.4375,
          "velocity": 0.6850393700787402
        },
        {
          "duration": 0.15625,
          "durationTicks": 96,
          "midi": 53,
          "name": "F3",
          "ticks": 85248,
          "time": 138.75,
          "velocity": 0.6850393700787402
        },
        {
          "duration": 0.15625,
          "durationTicks": 96,
          "midi": 58,
          "name": "A#3",
          "ticks": 85440,
          "time": 139.0625,
          "velocity": 0.6850393700787402
        },
        {
          "duration": 0.15625,
          "durationTicks": 96,
          "midi": 56,
          "name": "G#3",
          "ticks": 85632,
          "time": 139.375,
          "velocity": 0.6850393700787402
        },
        {
          "duration": 0.15625,
          "durationTicks": 96,
          "midi": 55,
          "name": "G3",
          "ticks": 85824,
          "time": 139.6875,
          "velocity": 0.6850393700787402
        },
        {
          "duration": 0.15625,
          "durationTicks": 96,
          "midi": 48,
          "name": "C3",
          "ticks": 86016,
          "time": 140,
          "velocity": 0.6850393700787402
        },
        {
          "duration": 0.15625,
          "durationTicks": 96,
          "midi": 53,
          "name": "F3",
          "ticks": 86208,
          "time": 140.3125,
          "velocity": 0.6850393700787402
        },
        {
          "duration": 1.25,
          "durationTicks": 768,
          "midi": 55,
          "name": "G3",
          "ticks": 86400,
          "time": 140.625,
          "velocity": 0.6850393700787402
        },
        {
          "duration": 0.15625,
          "durationTicks": 96,
          "midi": 56,
          "name": "G#3",
          "ticks": 87168,
          "time": 141.875,
          "velocity": 0.6850393700787402
        },
        {
          "duration": 0.15625,
          "durationTicks": 96,
          "midi": 55,
          "name": "G3",
          "ticks": 87264,
          "time": 142.03125,
          "velocity": 0.6850393700787402
        },
        {
          "duration": 0.15625,
          "durationTicks": 96,
          "midi": 53,
          "name": "F3",
          "ticks": 87360,
          "time": 142.1875,
          "velocity": 0.6850393700787402
        },
        {
          "duration": 0.15625,
          "durationTicks": 96,
          "midi": 55,
          "name": "G3",
          "ticks": 87456,
          "time": 142.34375,
          "velocity": 0.6850393700787402
        },
        {
          "duration": 0.3125,
          "durationTicks": 192,
          "midi": 56,
          "name": "G#3",
          "ticks": 87552,
          "time": 142.5,
          "velocity": 0.6850393700787402
        },
        {
          "duration": 0.3125,
          "durationTicks": 192,
          "midi": 55,
          "name": "G3",
          "ticks": 87936,
          "time": 143.125,
          "velocity": 0.6850393700787402
        },
        {
          "duration": 0.9375,
          "durationTicks": 576,
          "midi": 56,
          "name": "G#3",
          "ticks": 88320,
          "time": 143.75,
          "velocity": 0.6850393700787402
        },
        {
          "duration": 1.875,
          "durationTicks": 1152,
          "midi": 58,
          "name": "A#3",
          "ticks": 89088,
          "time": 145,
          "velocity": 0.6850393700787402
        },
        {
          "duration": 0.15625,
          "durationTicks": 96,
          "midi": 56,
          "name": "G#3",
          "ticks": 90432,
          "time": 147.1875,
          "velocity": 0.6850393700787402
        },
        {
          "duration": 0.15625,
          "durationTicks": 96,
          "midi": 55,
          "name": "G3",
          "ticks": 90528,
          "time": 147.34375,
          "velocity": 0.6850393700787402
        },
        {
          "duration": 0.3125,
          "durationTicks": 192,
          "midi": 60,
          "name": "C4",
          "ticks": 90624,
          "time": 147.5,
          "velocity": 0.7874015748031497
        },
        {
          "duration": 0.3125,
          "durationTicks": 192,
          "midi": 58,
          "name": "A#3",
          "ticks": 91008,
          "time": 148.125,
          "velocity": 0.6850393700787402
        },
        {
          "duration": 0.3125,
          "durationTicks": 192,
          "midi": 56,
          "name": "G#3",
          "ticks": 91392,
          "time": 148.75,
          "velocity": 0.6850393700787402
        },
        {
          "duration": 0.3125,
          "durationTicks": 192,
          "midi": 55,
          "name": "G3",
          "ticks": 91776,
          "time": 149.375,
          "velocity": 0.6850393700787402
        },
        {
          "duration": 0.15625,
          "durationTicks": 96,
          "midi": 48,
          "name": "C3",
          "ticks": 92160,
          "time": 150,
          "velocity": 0.6850393700787402
        },
        {
          "duration": 0.15625,
          "durationTicks": 96,
          "midi": 53,
          "name": "F3",
          "ticks": 92352,
          "time": 150.3125,
          "velocity": 0.6850393700787402
        },
        {
          "duration": 1.25,
          "durationTicks": 768,
          "midi": 55,
          "name": "G3",
          "ticks": 92544,
          "time": 150.625,
          "velocity": 0.6850393700787402
        },
        {
          "duration": 0.15625,
          "durationTicks": 96,
          "midi": 56,
          "name": "G#3",
          "ticks": 93312,
          "time": 151.875,
          "velocity": 0.6850393700787402
        },
        {
          "duration": 0.15625,
          "durationTicks": 96,
          "midi": 55,
          "name": "G3",
          "ticks": 93408,
          "time": 152.03125,
          "velocity": 0.6850393700787402
        },
        {
          "duration": 0.15625,
          "durationTicks": 96,
          "midi": 53,
          "name": "F3",
          "ticks": 93504,
          "time": 152.1875,
          "velocity": 0.6850393700787402
        },
        {
          "duration": 0.15625,
          "durationTicks": 96,
          "midi": 55,
          "name": "G3",
          "ticks": 93600,
          "time": 152.34375,
          "velocity": 0.6850393700787402
        },
        {
          "duration": 0.3125,
          "durationTicks": 192,
          "midi": 56,
          "name": "G#3",
          "ticks": 93696,
          "time": 152.5,
          "velocity": 0.6850393700787402
        },
        {
          "duration": 0.3125,
          "durationTicks": 192,
          "midi": 55,
          "name": "G3",
          "ticks": 94080,
          "time": 153.125,
          "velocity": 0.6850393700787402
        },
        {
          "duration": 0.9375,
          "durationTicks": 576,
          "midi": 56,
          "name": "G#3",
          "ticks": 94464,
          "time": 153.75,
          "velocity": 0.6850393700787402
        },
        {
          "duration": 1.875,
          "durationTicks": 1152,
          "midi": 58,
          "name": "A#3",
          "ticks": 95232,
          "time": 155,
          "velocity": 0.6850393700787402
        },
        {
          "duration": 0.15625,
          "durationTicks": 96,
          "midi": 56,
          "name": "G#3",
          "ticks": 96576,
          "time": 157.1875,
          "velocity": 0.6850393700787402
        },
        {
          "duration": 0.15625,
          "durationTicks": 96,
          "midi": 55,
          "name": "G3",
          "ticks": 96672,
          "time": 157.34375,
          "velocity": 0.6850393700787402
        },
        {
          "duration": 0.3125,
          "durationTicks": 192,
          "midi": 60,
          "name": "C4",
          "ticks": 96768,
          "time": 157.5,
          "velocity": 0.7874015748031497
        },
        {
          "duration": 0.3125,
          "durationTicks": 192,
          "midi": 58,
          "name": "A#3",
          "ticks": 97152,
          "time": 158.125,
          "velocity": 0.6850393700787402
        },
        {
          "duration": 0.3125,
          "durationTicks": 192,
          "midi": 56,
          "name": "G#3",
          "ticks": 97536,
          "time": 158.75,
          "velocity": 0.6850393700787402
        },
        {
          "duration": 0.3125,
          "durationTicks": 192,
          "midi": 55,
          "name": "G3",
          "ticks": 97920,
          "time": 159.375,
          "velocity": 0.6850393700787402
        },
        {
          "duration": 1.875,
          "durationTicks": 1152,
          "midi": 53,
          "name": "F3",
          "ticks": 98304,
          "time": 160,
          "velocity": 0.6850393700787402
        },
        {
          "duration": 1.875,
          "durationTicks": 1152,
          "midi": 60,
          "name": "C4",
          "ticks": 104448,
          "time": 170,
          "velocity": 0.7874015748031497
        },
        {
          "duration": 1.875,
          "durationTicks": 1152,
          "midi": 60,
          "name": "C4",
          "ticks": 110592,
          "time": 180,
          "velocity": 0.7874015748031497
        },
        {
          "duration": 0.15625,
          "durationTicks": 96,
          "midi": 48,
          "name": "C3",
          "ticks": 122880,
          "time": 200,
          "velocity": 0.6850393700787402
        },
        {
          "duration": 0.15625,
          "durationTicks": 96,
          "midi": 53,
          "name": "F3",
          "ticks": 123072,
          "time": 200.3125,
          "velocity": 0.6850393700787402
        },
        {
          "duration": 1.25,
          "durationTicks": 768,
          "midi": 55,
          "name": "G3",
          "ticks": 123264,
          "time": 200.625,
          "velocity": 0.6850393700787402
        },
        {
          "duration": 0.15625,
          "durationTicks": 96,
          "midi": 53,
          "name": "F3",
          "ticks": 124224,
          "time": 202.1875,
          "velocity": 0.6850393700787402
        },
        {
          "duration": 0.15625,
          "durationTicks": 96,
          "midi": 55,
          "name": "G3",
          "ticks": 124320,
          "time": 202.34375,
          "velocity": 0.6850393700787402
        },
        {
          "duration": 0.3125,
          "durationTicks": 192,
          "midi": 56,
          "name": "G#3",
          "ticks": 124416,
          "time": 202.5,
          "velocity": 0.6850393700787402
        },
        {
          "duration": 0.3125,
          "durationTicks": 192,
          "midi": 55,
          "name": "G3",
          "ticks": 124800,
          "time": 203.125,
          "velocity": 0.6850393700787402
        },
        {
          "duration": 0.9375,
          "durationTicks": 576,
          "midi": 53,
          "name": "F3",
          "ticks": 125184,
          "time": 203.75,
          "velocity": 0.6850393700787402
        },
        {
          "duration": 1.875,
          "durationTicks": 1152,
          "midi": 51,
          "name": "D#3",
          "ticks": 125952,
          "time": 205,
          "velocity": 0.6850393700787402
        },
        {
          "duration": 0.15625,
          "durationTicks": 96,
          "midi": 46,
          "name": "A#2",
          "ticks": 127296,
          "time": 207.1875,
          "velocity": 0.6850393700787402
        },
        {
          "duration": 2.1875,
          "durationTicks": 1344,
          "midi": 48,
          "name": "C3",
          "ticks": 127488,
          "time": 207.5,
          "velocity": 0.6850393700787402
        },
        {
          "duration": 0.3125,
          "durationTicks": 192,
          "midi": 55,
          "name": "G3",
          "ticks": 128256,
          "time": 208.75,
          "velocity": 0.6850393700787402
        },
        {
          "duration": 0.3125,
          "durationTicks": 192,
          "midi": 56,
          "name": "G#3",
          "ticks": 128640,
          "time": 209.375,
          "velocity": 0.6850393700787402
        },
        {
          "duration": 0.15625,
          "durationTicks": 96,
          "midi": 48,
          "name": "C3",
          "ticks": 129024,
          "time": 210,
          "velocity": 0.6850393700787402
        },
        {
          "duration": 0.15625,
          "durationTicks": 96,
          "midi": 53,
          "name": "F3",
          "ticks": 129216,
          "time": 210.3125,
          "velocity": 0.6850393700787402
        },
        {
          "duration": 1.25,
          "durationTicks": 768,
          "midi": 55,
          "name": "G3",
          "ticks": 129408,
          "time": 210.625,
          "velocity": 0.6850393700787402
        },
        {
          "duration": 0.15625,
          "durationTicks": 96,
          "midi": 53,
          "name": "F3",
          "ticks": 130368,
          "time": 212.1875,
          "velocity": 0.6850393700787402
        },
        {
          "duration": 0.15625,
          "durationTicks": 96,
          "midi": 55,
          "name": "G3",
          "ticks": 130464,
          "time": 212.34375,
          "velocity": 0.6850393700787402
        },
        {
          "duration": 0.3125,
          "durationTicks": 192,
          "midi": 56,
          "name": "G#3",
          "ticks": 130560,
          "time": 212.5,
          "velocity": 0.6850393700787402
        },
        {
          "duration": 0.3125,
          "durationTicks": 192,
          "midi": 55,
          "name": "G3",
          "ticks": 130944,
          "time": 213.125,
          "velocity": 0.6850393700787402
        },
        {
          "duration": 0.9375,
          "durationTicks": 576,
          "midi": 53,
          "name": "F3",
          "ticks": 131328,
          "time": 213.75,
          "velocity": 0.6850393700787402
        },
        {
          "duration": 1.875,
          "durationTicks": 1152,
          "midi": 51,
          "name": "D#3",
          "ticks": 132096,
          "time": 215,
          "velocity": 0.6850393700787402
        },
        {
          "duration": 0.15625,
          "durationTicks": 96,
          "midi": 46,
          "name": "A#2",
          "ticks": 133440,
          "time": 217.1875,
          "velocity": 0.6850393700787402
        },
        {
          "duration": 2.1875,
          "durationTicks": 1344,
          "midi": 48,
          "name": "C3",
          "ticks": 133632,
          "time": 217.5,
          "velocity": 0.6850393700787402
        },
        {
          "duration": 0.3125,
          "durationTicks": 192,
          "midi": 55,
          "name": "G3",
          "ticks": 134400,
          "time": 218.75,
          "velocity": 0.6850393700787402
        },
        {
          "duration": 0.3125,
          "durationTicks": 192,
          "midi": 56,
          "name": "G#3",
          "ticks": 134784,
          "time": 219.375,
          "velocity": 0.6850393700787402
        },
        {
          "duration": 0.15625,
          "durationTicks": 96,
          "midi": 48,
          "name": "C3",
          "ticks": 135168,
          "time": 220,
          "velocity": 0.6850393700787402
        },
        {
          "duration": 0.15625,
          "durationTicks": 96,
          "midi": 53,
          "name": "F3",
          "ticks": 135360,
          "time": 220.3125,
          "velocity": 0.6850393700787402
        },
        {
          "duration": 1.25,
          "durationTicks": 768,
          "midi": 55,
          "name": "G3",
          "ticks": 135552,
          "time": 220.625,
          "velocity": 0.6850393700787402
        },
        {
          "duration": 0.15625,
          "durationTicks": 96,
          "midi": 53,
          "name": "F3",
          "ticks": 136512,
          "time": 222.1875,
          "velocity": 0.6850393700787402
        },
        {
          "duration": 0.15625,
          "durationTicks": 96,
          "midi": 55,
          "name": "G3",
          "ticks": 136608,
          "time": 222.34375,
          "velocity": 0.6850393700787402
        },
        {
          "duration": 0.3125,
          "durationTicks": 192,
          "midi": 56,
          "name": "G#3",
          "ticks": 136704,
          "time": 222.5,
          "velocity": 0.6850393700787402
        },
        {
          "duration": 0.3125,
          "durationTicks": 192,
          "midi": 58,
          "name": "A#3",
          "ticks": 137088,
          "time": 223.125,
          "velocity": 0.6850393700787402
        },
        {
          "duration": 0.9375,
          "durationTicks": 576,
          "midi": 60,
          "name": "C4",
          "ticks": 137472,
          "time": 223.75,
          "velocity": 0.7874015748031497
        },
        {
          "duration": 1.5625,
          "durationTicks": 960,
          "midi": 61,
          "name": "C#4",
          "ticks": 138240,
          "time": 225,
          "velocity": 0.7874015748031497
        },
        {
          "duration": 0.15625,
          "durationTicks": 96,
          "midi": 65,
          "name": "F4",
          "ticks": 139392,
          "time": 226.875,
          "velocity": 0.7480314960629921
        },
        {
          "duration": 0.15625,
          "durationTicks": 96,
          "midi": 67,
          "name": "G4",
          "ticks": 139584,
          "time": 227.1875,
          "velocity": 0.7480314960629921
        },
        {
          "duration": 0.9375,
          "durationTicks": 576,
          "midi": 68,
          "name": "G#4",
          "ticks": 139776,
          "time": 227.5,
          "velocity": 0.7480314960629921
        },
        {
          "duration": 0.625,
          "durationTicks": 384,
          "midi": 67,
          "name": "G4",
          "ticks": 140352,
          "time": 228.4375,
          "velocity": 0.7480314960629921
        },
        {
          "duration": 0.3125,
          "durationTicks": 192,
          "midi": 65,
          "name": "F4",
          "ticks": 140928,
          "time": 229.375,
          "velocity": 0.7480314960629921
        },
        {
          "duration": 0.9375,
          "durationTicks": 576,
          "midi": 63,
          "name": "D#4",
          "ticks": 141120,
          "time": 229.6875,
          "velocity": 0.7874015748031497
        },
        {
          "duration": 0.15625,
          "durationTicks": 96,
          "midi": 48,
          "name": "C3",
          "ticks": 141312,
          "time": 230,
          "velocity": 0.6850393700787402
        },
        {
          "duration": 0.15625,
          "durationTicks": 96,
          "midi": 53,
          "name": "F3",
          "ticks": 141504,
          "time": 230.3125,
          "velocity": 0.6850393700787402
        },
        {
          "duration": 1.25,
          "durationTicks": 768,
          "midi": 55,
          "name": "G3",
          "ticks": 141696,
          "time": 230.625,
          "velocity": 0.6850393700787402
        },
        {
          "duration": 0.15625,
          "durationTicks": 96,
          "midi": 53,
          "name": "F3",
          "ticks": 142656,
          "time": 232.1875,
          "velocity": 0.6850393700787402
        },
        {
          "duration": 0.15625,
          "durationTicks": 96,
          "midi": 55,
          "name": "G3",
          "ticks": 142752,
          "time": 232.34375,
          "velocity": 0.6850393700787402
        },
        {
          "duration": 0.3125,
          "durationTicks": 192,
          "midi": 56,
          "name": "G#3",
          "ticks": 142848,
          "time": 232.5,
          "velocity": 0.6850393700787402
        },
        {
          "duration": 0.3125,
          "durationTicks": 192,
          "midi": 55,
          "name": "G3",
          "ticks": 143232,
          "time": 233.125,
          "velocity": 0.6850393700787402
        },
        {
          "duration": 0.9375,
          "durationTicks": 576,
          "midi": 53,
          "name": "F3",
          "ticks": 143616,
          "time": 233.75,
          "velocity": 0.6850393700787402
        },
        {
          "duration": 1.875,
          "durationTicks": 1152,
          "midi": 51,
          "name": "D#3",
          "ticks": 144384,
          "time": 235,
          "velocity": 0.6850393700787402
        },
        {
          "duration": 0.15625,
          "durationTicks": 96,
          "midi": 46,
          "name": "A#2",
          "ticks": 145728,
          "time": 237.1875,
          "velocity": 0.6850393700787402
        },
        {
          "duration": 2.1875,
          "durationTicks": 1344,
          "midi": 48,
          "name": "C3",
          "ticks": 145920,
          "time": 237.5,
          "velocity": 0.6850393700787402
        },
        {
          "duration": 0.3125,
          "durationTicks": 192,
          "midi": 55,
          "name": "G3",
          "ticks": 146688,
          "time": 238.75,
          "velocity": 0.6850393700787402
        },
        {
          "duration": 0.3125,
          "durationTicks": 192,
          "midi": 56,
          "name": "G#3",
          "ticks": 147072,
          "time": 239.375,
          "velocity": 0.6850393700787402
        },
        {
          "duration": 0.15625,
          "durationTicks": 96,
          "midi": 48,
          "name": "C3",
          "ticks": 147456,
          "time": 240,
          "velocity": 0.6850393700787402
        },
        {
          "duration": 0.15625,
          "durationTicks": 96,
          "midi": 53,
          "name": "F3",
          "ticks": 147648,
          "time": 240.3125,
          "velocity": 0.6850393700787402
        },
        {
          "duration": 0.15625,
          "durationTicks": 96,
          "midi": 55,
          "name": "G3",
          "ticks": 147840,
          "time": 240.625,
          "velocity": 0.6850393700787402
        },
        {
          "duration": 0.15625,
          "durationTicks": 96,
          "midi": 48,
          "name": "C3",
          "ticks": 148032,
          "time": 240.9375,
          "velocity": 0.6850393700787402
        },
        {
          "duration": 0.15625,
          "durationTicks": 96,
          "midi": 53,
          "name": "F3",
          "ticks": 148224,
          "time": 241.25,
          "velocity": 0.6850393700787402
        },
        {
          "duration": 0.15625,
          "durationTicks": 96,
          "midi": 55,
          "name": "G3",
          "ticks": 148416,
          "time": 241.5625,
          "velocity": 0.6850393700787402
        },
        {
          "duration": 0.15625,
          "durationTicks": 96,
          "midi": 48,
          "name": "C3",
          "ticks": 148608,
          "time": 241.875,
          "velocity": 0.6850393700787402
        },
        {
          "duration": 0.15625,
          "durationTicks": 96,
          "midi": 53,
          "name": "F3",
          "ticks": 148800,
          "time": 242.1875,
          "velocity": 0.6850393700787402
        },
        {
          "duration": 0.15625,
          "durationTicks": 96,
          "midi": 48,
          "name": "C3",
          "ticks": 148992,
          "time": 242.5,
          "velocity": 0.6850393700787402
        },
        {
          "duration": 0.15625,
          "durationTicks": 96,
          "midi": 53,
          "name": "F3",
          "ticks": 149184,
          "time": 242.8125,
          "velocity": 0.6850393700787402
        },
        {
          "duration": 0.15625,
          "durationTicks": 96,
          "midi": 56,
          "name": "G#3",
          "ticks": 149376,
          "time": 243.125,
          "velocity": 0.6850393700787402
        },
        {
          "duration": 0.15625,
          "durationTicks": 96,
          "midi": 48,
          "name": "C3",
          "ticks": 149568,
          "time": 243.4375,
          "velocity": 0.6850393700787402
        },
        {
          "duration": 0.15625,
          "durationTicks": 96,
          "midi": 53,
          "name": "F3",
          "ticks": 149760,
          "time": 243.75,
          "velocity": 0.6850393700787402
        },
        {
          "duration": 0.15625,
          "durationTicks": 96,
          "midi": 56,
          "name": "G#3",
          "ticks": 149952,
          "time": 244.0625,
          "velocity": 0.6850393700787402
        },
        {
          "duration": 0.15625,
          "durationTicks": 96,
          "midi": 48,
          "name": "C3",
          "ticks": 150144,
          "time": 244.375,
          "velocity": 0.6850393700787402
        },
        {
          "duration": 0.15625,
          "durationTicks": 96,
          "midi": 53,
          "name": "F3",
          "ticks": 150336,
          "time": 244.6875,
          "velocity": 0.6850393700787402
        },
        {
          "duration": 0.15625,
          "durationTicks": 96,
          "midi": 48,
          "name": "C3",
          "ticks": 150528,
          "time": 245,
          "velocity": 0.6850393700787402
        },
        {
          "duration": 0.15625,
          "durationTicks": 96,
          "midi": 53,
          "name": "F3",
          "ticks": 150720,
          "time": 245.3125,
          "velocity": 0.6850393700787402
        },
        {
          "duration": 0.15625,
          "durationTicks": 96,
          "midi": 55,
          "name": "G3",
          "ticks": 150912,
          "time": 245.625,
          "velocity": 0.6850393700787402
        },
        {
          "duration": 0.15625,
          "durationTicks": 96,
          "midi": 48,
          "name": "C3",
          "ticks": 151104,
          "time": 245.9375,
          "velocity": 0.6850393700787402
        },
        {
          "duration": 0.15625,
          "durationTicks": 96,
          "midi": 53,
          "name": "F3",
          "ticks": 151296,
          "time": 246.25,
          "velocity": 0.6850393700787402
        },
        {
          "duration": 0.15625,
          "durationTicks": 96,
          "midi": 55,
          "name": "G3",
          "ticks": 151488,
          "time": 246.5625,
          "velocity": 0.6850393700787402
        },
        {
          "duration": 0.15625,
          "durationTicks": 96,
          "midi": 48,
          "name": "C3",
          "ticks": 151680,
          "time": 246.875,
          "velocity": 0.6850393700787402
        },
        {
          "duration": 0.15625,
          "durationTicks": 96,
          "midi": 53,
          "name": "F3",
          "ticks": 151872,
          "time": 247.1875,
          "velocity": 0.6850393700787402
        },
        {
          "duration": 0.15625,
          "durationTicks": 96,
          "midi": 48,
          "name": "C3",
          "ticks": 152064,
          "time": 247.5,
          "velocity": 0.6850393700787402
        },
        {
          "duration": 0.15625,
          "durationTicks": 96,
          "midi": 53,
          "name": "F3",
          "ticks": 152256,
          "time": 247.8125,
          "velocity": 0.6850393700787402
        },
        {
          "duration": 0.15625,
          "durationTicks": 96,
          "midi": 58,
          "name": "A#3",
          "ticks": 152448,
          "time": 248.125,
          "velocity": 0.6850393700787402
        },
        {
          "duration": 0.15625,
          "durationTicks": 96,
          "midi": 48,
          "name": "C3",
          "ticks": 152640,
          "time": 248.4375,
          "velocity": 0.6850393700787402
        },
        {
          "duration": 0.15625,
          "durationTicks": 96,
          "midi": 53,
          "name": "F3",
          "ticks": 152832,
          "time": 248.75,
          "velocity": 0.6850393700787402
        },
        {
          "duration": 0.15625,
          "durationTicks": 96,
          "midi": 58,
          "name": "A#3",
          "ticks": 153024,
          "time": 249.0625,
          "velocity": 0.6850393700787402
        },
        {
          "duration": 0.15625,
          "durationTicks": 96,
          "midi": 56,
          "name": "G#3",
          "ticks": 153216,
          "time": 249.375,
          "velocity": 0.6850393700787402
        },
        {
          "duration": 0.15625,
          "durationTicks": 96,
          "midi": 55,
          "name": "G3",
          "ticks": 153408,
          "time": 249.6875,
          "velocity": 0.6850393700787402
        },
        {
          "duration": 0.15625,
          "durationTicks": 96,
          "midi": 48,
          "name": "C3",
          "ticks": 153600,
          "time": 250,
          "velocity": 0.6850393700787402
        },
        {
          "duration": 0.15625,
          "durationTicks": 96,
          "midi": 53,
          "name": "F3",
          "ticks": 153792,
          "time": 250.3125,
          "velocity": 0.6850393700787402
        },
        {
          "duration": 1.25,
          "durationTicks": 768,
          "midi": 55,
          "name": "G3",
          "ticks": 153984,
          "time": 250.625,
          "velocity": 0.6850393700787402
        },
        {
          "duration": 0.15625,
          "durationTicks": 96,
          "midi": 53,
          "name": "F3",
          "ticks": 154944,
          "time": 252.1875,
          "velocity": 0.6850393700787402
        },
        {
          "duration": 0.15625,
          "durationTicks": 96,
          "midi": 55,
          "name": "G3",
          "ticks": 155040,
          "time": 252.34375,
          "velocity": 0.6850393700787402
        },
        {
          "duration": 0.3125,
          "durationTicks": 192,
          "midi": 56,
          "name": "G#3",
          "ticks": 155136,
          "time": 252.5,
          "velocity": 0.6850393700787402
        },
        {
          "duration": 0.3125,
          "durationTicks": 192,
          "midi": 55,
          "name": "G3",
          "ticks": 155520,
          "time": 253.125,
          "velocity": 0.6850393700787402
        },
        {
          "duration": 0.9375,
          "durationTicks": 576,
          "midi": 53,
          "name": "F3",
          "ticks": 155904,
          "time": 253.75,
          "velocity": 0.6850393700787402
        },
        {
          "duration": 1.875,
          "durationTicks": 1152,
          "midi": 51,
          "name": "D#3",
          "ticks": 156672,
          "time": 255,
          "velocity": 0.6850393700787402
        },
        {
          "duration": 0.15625,
          "durationTicks": 96,
          "midi": 46,
          "name": "A#2",
          "ticks": 158016,
          "time": 257.1875,
          "velocity": 0.6850393700787402
        },
        {
          "duration": 2.1875,
          "durationTicks": 1344,
          "midi": 48,
          "name": "C3",
          "ticks": 158208,
          "time": 257.5,
          "velocity": 0.6850393700787402
        },
        {
          "duration": 0.3125,
          "durationTicks": 192,
          "midi": 55,
          "name": "G3",
          "ticks": 158976,
          "time": 258.75,
          "velocity": 0.6850393700787402
        },
        {
          "duration": 0.3125,
          "durationTicks": 192,
          "midi": 56,
          "name": "G#3",
          "ticks": 159360,
          "time": 259.375,
          "velocity": 0.6850393700787402
        },
        {
          "duration": 0.15625,
          "durationTicks": 96,
          "midi": 48,
          "name": "C3",
          "ticks": 159744,
          "time": 260,
          "velocity": 0.6850393700787402
        },
        {
          "duration": 0.15625,
          "durationTicks": 96,
          "midi": 53,
          "name": "F3",
          "ticks": 159936,
          "time": 260.3125,
          "velocity": 0.6850393700787402
        },
        {
          "duration": 1.25,
          "durationTicks": 768,
          "midi": 55,
          "name": "G3",
          "ticks": 160128,
          "time": 260.625,
          "velocity": 0.6850393700787402
        },
        {
          "duration": 0.15625,
          "durationTicks": 96,
          "midi": 56,
          "name": "G#3",
          "ticks": 160896,
          "time": 261.875,
          "velocity": 0.6850393700787402
        },
        {
          "duration": 0.15625,
          "durationTicks": 96,
          "midi": 55,
          "name": "G3",
          "ticks": 160992,
          "time": 262.03125,
          "velocity": 0.6850393700787402
        },
        {
          "duration": 0.15625,
          "durationTicks": 96,
          "midi": 53,
          "name": "F3",
          "ticks": 161088,
          "time": 262.1875,
          "velocity": 0.6850393700787402
        },
        {
          "duration": 0.15625,
          "durationTicks": 96,
          "midi": 55,
          "name": "G3",
          "ticks": 161184,
          "time": 262.34375,
          "velocity": 0.6850393700787402
        },
        {
          "duration": 0.3125,
          "durationTicks": 192,
          "midi": 56,
          "name": "G#3",
          "ticks": 161280,
          "time": 262.5,
          "velocity": 0.6850393700787402
        },
        {
          "duration": 0.3125,
          "durationTicks": 192,
          "midi": 55,
          "name": "G3",
          "ticks": 161664,
          "time": 263.125,
          "velocity": 0.6850393700787402
        },
        {
          "duration": 0.9375,
          "durationTicks": 576,
          "midi": 56,
          "name": "G#3",
          "ticks": 162048,
          "time": 263.75,
          "velocity": 0.6850393700787402
        },
        {
          "duration": 1.875,
          "durationTicks": 1152,
          "midi": 58,
          "name": "A#3",
          "ticks": 162816,
          "time": 265,
          "velocity": 0.6850393700787402
        },
        {
          "duration": 0.15625,
          "durationTicks": 96,
          "midi": 56,
          "name": "G#3",
          "ticks": 164160,
          "time": 267.1875,
          "velocity": 0.6850393700787402
        },
        {
          "duration": 0.15625,
          "durationTicks": 96,
          "midi": 55,
          "name": "G3",
          "ticks": 164256,
          "time": 267.34375,
          "velocity": 0.6850393700787402
        },
        {
          "duration": 0.3125,
          "durationTicks": 192,
          "midi": 60,
          "name": "C4",
          "ticks": 164352,
          "time": 267.5,
          "velocity": 0.7874015748031497
        },
        {
          "duration": 0.3125,
          "durationTicks": 192,
          "midi": 58,
          "name": "A#3",
          "ticks": 164736,
          "time": 268.125,
          "velocity": 0.6850393700787402
        },
        {
          "duration": 0.3125,
          "durationTicks": 192,
          "midi": 56,
          "name": "G#3",
          "ticks": 165120,
          "time": 268.75,
          "velocity": 0.6850393700787402
        },
        {
          "duration": 0.3125,
          "durationTicks": 192,
          "midi": 55,
          "name": "G3",
          "ticks": 165504,
          "time": 269.375,
          "velocity": 0.6850393700787402
        },
        {
          "duration": 0.15625,
          "durationTicks": 96,
          "midi": 48,
          "name": "C3",
          "ticks": 165888,
          "time": 270,
          "velocity": 0.6850393700787402
        },
        {
          "duration": 0.15625,
          "durationTicks": 96,
          "midi": 53,
          "name": "F3",
          "ticks": 166080,
          "time": 270.3125,
          "velocity": 0.6850393700787402
        },
        {
          "duration": 1.71875,
          "durationTicks": 1056,
          "midi": 55,
          "name": "G3",
          "ticks": 166272,
          "time": 270.625,
          "velocity": 0.6850393700787402
        },
        {
          "duration": 2.1875,
          "durationTicks": 1344,
          "midi": 56,
          "name": "G#3",
          "ticks": 167424,
          "time": 272.5,
          "velocity": 0.6850393700787402
        },
        {
          "duration": 0.15625,
          "durationTicks": 96,
          "midi": 48,
          "name": "C3",
          "ticks": 168960,
          "time": 275,
          "velocity": 0.6850393700787402
        },
        {
          "duration": 0.15625,
          "durationTicks": 96,
          "midi": 53,
          "name": "F3",
          "ticks": 169152,
          "time": 275.3125,
          "velocity": 0.6850393700787402
        },
        {
          "duration": 1.71875,
          "durationTicks": 1056,
          "midi": 55,
          "name": "G3",
          "ticks": 169344,
          "time": 275.625,
          "velocity": 0.6850393700787402
        },
        {
          "duration": 0.15625,
          "durationTicks": 96,
          "midi": 58,
          "name": "A#3",
          "ticks": 170496,
          "time": 277.5,
          "velocity": 0.6850393700787402
        },
        {
          "duration": 1.875,
          "durationTicks": 1152,
          "midi": 60,
          "name": "C4",
          "ticks": 170688,
          "time": 277.8125,
          "velocity": 0.7874015748031497
        },
        {
          "duration": 0.15625,
          "durationTicks": 96,
          "midi": 48,
          "name": "C3",
          "ticks": 172032,
          "time": 280,
          "velocity": 0.6850393700787402
        },
        {
          "duration": 0.15625,
          "durationTicks": 96,
          "midi": 53,
          "name": "F3",
          "ticks": 172224,
          "time": 280.3125,
          "velocity": 0.6850393700787402
        },
        {
          "duration": 1.25,
          "durationTicks": 768,
          "midi": 55,
          "name": "G3",
          "ticks": 172416,
          "time": 280.625,
          "velocity": 0.6850393700787402
        },
        {
          "duration": 0.15625,
          "durationTicks": 96,
          "midi": 53,
          "name": "F3",
          "ticks": 173376,
          "time": 282.1875,
          "velocity": 0.6850393700787402
        },
        {
          "duration": 0.15625,
          "durationTicks": 96,
          "midi": 55,
          "name": "G3",
          "ticks": 173472,
          "time": 282.34375,
          "velocity": 0.6850393700787402
        },
        {
          "duration": 0.3125,
          "durationTicks": 192,
          "midi": 56,
          "name": "G#3",
          "ticks": 173568,
          "time": 282.5,
          "velocity": 0.6850393700787402
        },
        {
          "duration": 0.3125,
          "durationTicks": 192,
          "midi": 55,
          "name": "G3",
          "ticks": 173952,
          "time": 283.125,
          "velocity": 0.6850393700787402
        },
        {
          "duration": 0.9375,
          "durationTicks": 576,
          "midi": 53,
          "name": "F3",
          "ticks": 174336,
          "time": 283.75,
          "velocity": 0.6850393700787402
        },
        {
          "duration": 1.875,
          "durationTicks": 1152,
          "midi": 51,
          "name": "D#3",
          "ticks": 175104,
          "time": 285,
          "velocity": 0.6850393700787402
        },
        {
          "duration": 0.15625,
          "durationTicks": 96,
          "midi": 46,
          "name": "A#2",
          "ticks": 176448,
          "time": 287.1875,
          "velocity": 0.6850393700787402
        },
        {
          "duration": 2.1875,
          "durationTicks": 1344,
          "midi": 48,
          "name": "C3",
          "ticks": 176640,
          "time": 287.5,
          "velocity": 0.6850393700787402
        },
        {
          "duration": 0.3125,
          "durationTicks": 192,
          "midi": 55,
          "name": "G3",
          "ticks": 177408,
          "time": 288.75,
          "velocity": 0.6850393700787402
        },
        {
          "duration": 0.3125,
          "durationTicks": 192,
          "midi": 56,
          "name": "G#3",
          "ticks": 177792,
          "time": 289.375,
          "velocity": 0.6850393700787402
        },
        {
          "duration": 0.15625,
          "durationTicks": 96,
          "midi": 48,
          "name": "C3",
          "ticks": 178176,
          "time": 290,
          "velocity": 0.6850393700787402
        },
        {
          "duration": 0.15625,
          "durationTicks": 96,
          "midi": 53,
          "name": "F3",
          "ticks": 178368,
          "time": 290.3125,
          "velocity": 0.6850393700787402
        },
        {
          "duration": 1.25,
          "durationTicks": 768,
          "midi": 55,
          "name": "G3",
          "ticks": 178560,
          "time": 290.625,
          "velocity": 0.6850393700787402
        },
        {
          "duration": 0.15625,
          "durationTicks": 96,
          "midi": 53,
          "name": "F3",
          "ticks": 179520,
          "time": 292.1875,
          "velocity": 0.6850393700787402
        },
        {
          "duration": 0.15625,
          "durationTicks": 96,
          "midi": 55,
          "name": "G3",
          "ticks": 179616,
          "time": 292.34375,
          "velocity": 0.6850393700787402
        },
        {
          "duration": 0.3125,
          "durationTicks": 192,
          "midi": 56,
          "name": "G#3",
          "ticks": 179712,
          "time": 292.5,
          "velocity": 0.6850393700787402
        },
        {
          "duration": 0.3125,
          "durationTicks": 192,
          "midi": 58,
          "name": "A#3",
          "ticks": 180096,
          "time": 293.125,
          "velocity": 0.6850393700787402
        },
        {
          "duration": 0.9375,
          "durationTicks": 576,
          "midi": 60,
          "name": "C4",
          "ticks": 180480,
          "time": 293.75,
          "velocity": 0.7874015748031497
        },
        {
          "duration": 1.5625,
          "durationTicks": 960,
          "midi": 61,
          "name": "C#4",
          "ticks": 181248,
          "time": 295,
          "velocity": 0.7874015748031497
        },
        {
          "duration": 0.15625,
          "durationTicks": 96,
          "midi": 65,
          "name": "F4",
          "ticks": 182400,
          "time": 296.875,
          "velocity": 0.7480314960629921
        },
        {
          "duration": 0.15625,
          "durationTicks": 96,
          "midi": 67,
          "name": "G4",
          "ticks": 182592,
          "time": 297.1875,
          "velocity": 0.7480314960629921
        },
        {
          "duration": 0.9375,
          "durationTicks": 576,
          "midi": 68,
          "name": "G#4",
          "ticks": 182784,
          "time": 297.5,
          "velocity": 0.7480314960629921
        },
        {
          "duration": 0.625,
          "durationTicks": 384,
          "midi": 67,
          "name": "G4",
          "ticks": 183360,
          "time": 298.4375,
          "velocity": 0.7480314960629921
        },
        {
          "duration": 0.3125,
          "durationTicks": 192,
          "midi": 65,
          "name": "F4",
          "ticks": 183936,
          "time": 299.375,
          "velocity": 0.7480314960629921
        },
        {
          "duration": 2.1875,
          "durationTicks": 1344,
          "midi": 63,
          "name": "D#4",
          "ticks": 184128,
          "time": 299.6875,
          "velocity": 0.7874015748031497
        },
        {
          "duration": 1.875,
          "durationTicks": 1152,
          "midi": 60,
          "name": "C4",
          "ticks": 184320,
          "time": 300,
          "velocity": 0.7874015748031497
        }
      ],
      "endOfTrackTicks": 185472
    },
    {
      "channel": 4,
      "controlChanges": {},
      "pitchBends": [],
      "instrument": {
        "family": "ensemble",
        "number": 50,
        "name": "synthstrings 1"
      },
      "name": "Pop Synth",
      "notes": [
        {
          "duration": 0.15625,
          "durationTicks": 96,
          "midi": 84,
          "name": "C6",
          "ticks": 24576,
          "time": 40,
          "velocity": 0.7874015748031497
        },
        {
          "duration": 0.15625,
          "durationTicks": 96,
          "midi": 89,
          "name": "F6",
          "ticks": 24672,
          "time": 40.15625,
          "velocity": 0.6850393700787402
        },
        {
          "duration": 0.15625,
          "durationTicks": 96,
          "midi": 91,
          "name": "G6",
          "ticks": 24768,
          "time": 40.3125,
          "velocity": 0.7874015748031497
        },
        {
          "duration": 0.15625,
          "durationTicks": 96,
          "midi": 84,
          "name": "C6",
          "ticks": 24864,
          "time": 40.46875,
          "velocity": 0.6850393700787402
        },
        {
          "duration": 0.15625,
          "durationTicks": 96,
          "midi": 89,
          "name": "F6",
          "ticks": 24960,
          "time": 40.625,
          "velocity": 0.7874015748031497
        },
        {
          "duration": 0.15625,
          "durationTicks": 96,
          "midi": 91,
          "name": "G6",
          "ticks": 25056,
          "time": 40.78125,
          "velocity": 0.6850393700787402
        },
        {
          "duration": 0.15625,
          "durationTicks": 96,
          "midi": 84,
          "name": "C6",
          "ticks": 25152,
          "time": 40.9375,
          "velocity": 0.7874015748031497
        },
        {
          "duration": 0.15625,
          "durationTicks": 96,
          "midi": 89,
          "name": "F6",
          "ticks": 25248,
          "time": 41.09375,
          "velocity": 0.5905511811023622
        },
        {
          "duration": 0.15625,
          "durationTicks": 96,
          "midi": 84,
          "name": "C6",
          "ticks": 25344,
          "time": 41.25,
          "velocity": 0.7874015748031497
        },
        {
          "duration": 0.15625,
          "durationTicks": 96,
          "midi": 89,
          "name": "F6",
          "ticks": 25440,
          "time": 41.40625,
          "velocity": 0.6850393700787402
        },
        {
          "duration": 0.15625,
          "durationTicks": 96,
          "midi": 91,
          "name": "G6",
          "ticks": 25536,
          "time": 41.5625,
          "velocity": 0.7874015748031497
        },
        {
          "duration": 0.15625,
          "durationTicks": 96,
          "midi": 84,
          "name": "C6",
          "ticks": 25632,
          "time": 41.71875,
          "velocity": 0.5905511811023622
        },
        {
          "duration": 0.15625,
          "durationTicks": 96,
          "midi": 89,
          "name": "F6",
          "ticks": 25728,
          "time": 41.875,
          "velocity": 0.7874015748031497
        },
        {
          "duration": 0.15625,
          "durationTicks": 96,
          "midi": 91,
          "name": "G6",
          "ticks": 25824,
          "time": 42.03125,
          "velocity": 0.6850393700787402
        },
        {
          "duration": 0.15625,
          "durationTicks": 96,
          "midi": 84,
          "name": "C6",
          "ticks": 25920,
          "time": 42.1875,
          "velocity": 0.7874015748031497
        },
        {
          "duration": 0.15625,
          "durationTicks": 96,
          "midi": 89,
          "name": "F6",
          "ticks": 26016,
          "time": 42.34375,
          "velocity": 0.5905511811023622
        },
        {
          "duration": 0.15625,
          "durationTicks": 96,
          "midi": 84,
          "name": "C6",
          "ticks": 26112,
          "time": 42.5,
          "velocity": 0.7874015748031497
        },
        {
          "duration": 0.15625,
          "durationTicks": 96,
          "midi": 89,
          "name": "F6",
          "ticks": 26208,
          "time": 42.65625,
          "velocity": 0.6850393700787402
        },
        {
          "duration": 0.15625,
          "durationTicks": 96,
          "midi": 92,
          "name": "G#6",
          "ticks": 26304,
          "time": 42.8125,
          "velocity": 0.7874015748031497
        },
        {
          "duration": 0.15625,
          "durationTicks": 96,
          "midi": 84,
          "name": "C6",
          "ticks": 26400,
          "time": 42.96875,
          "velocity": 0.5905511811023622
        },
        {
          "duration": 0.15625,
          "durationTicks": 96,
          "midi": 89,
          "name": "F6",
          "ticks": 26496,
          "time": 43.125,
          "velocity": 0.7874015748031497
        },
        {
          "duration": 0.15625,
          "durationTicks": 96,
          "midi": 92,
          "name": "G#6",
          "ticks": 26592,
          "time": 43.28125,
          "velocity": 0.6850393700787402
        },
        {
          "duration": 0.15625,
          "durationTicks": 96,
          "midi": 84,
          "name": "C6",
          "ticks": 26688,
          "time": 43.4375,
          "velocity": 0.7874015748031497
        },
        {
          "duration": 0.15625,
          "durationTicks": 96,
          "midi": 89,
          "name": "F6",
          "ticks": 26784,
          "time": 43.59375,
          "velocity": 0.5905511811023622
        },
        {
          "duration": 0.15625,
          "durationTicks": 96,
          "midi": 84,
          "name": "C6",
          "ticks": 26880,
          "time": 43.75,
          "velocity": 0.7874015748031497
        },
        {
          "duration": 0.15625,
          "durationTicks": 96,
          "midi": 89,
          "name": "F6",
          "ticks": 26976,
          "time": 43.90625,
          "velocity": 0.6850393700787402
        },
        {
          "duration": 0.15625,
          "durationTicks": 96,
          "midi": 92,
          "name": "G#6",
          "ticks": 27072,
          "time": 44.0625,
          "velocity": 0.7874015748031497
        },
        {
          "duration": 0.15625,
          "durationTicks": 96,
          "midi": 84,
          "name": "C6",
          "ticks": 27168,
          "time": 44.21875,
          "velocity": 0.5905511811023622
        },
        {
          "duration": 0.15625,
          "durationTicks": 96,
          "midi": 89,
          "name": "F6",
          "ticks": 27264,
          "time": 44.375,
          "velocity": 0.7874015748031497
        },
        {
          "duration": 0.15625,
          "durationTicks": 96,
          "midi": 92,
          "name": "G#6",
          "ticks": 27360,
          "time": 44.53125,
          "velocity": 0.6850393700787402
        },
        {
          "duration": 0.15625,
          "durationTicks": 96,
          "midi": 84,
          "name": "C6",
          "ticks": 27456,
          "time": 44.6875,
          "velocity": 0.7874015748031497
        },
        {
          "duration": 0.15625,
          "durationTicks": 96,
          "midi": 89,
          "name": "F6",
          "ticks": 27552,
          "time": 44.84375,
          "velocity": 0.5905511811023622
        },
        {
          "duration": 0.15625,
          "durationTicks": 96,
          "midi": 84,
          "name": "C6",
          "ticks": 27648,
          "time": 45,
          "velocity": 0.7874015748031497
        },
        {
          "duration": 0.15625,
          "durationTicks": 96,
          "midi": 89,
          "name": "F6",
          "ticks": 27744,
          "time": 45.15625,
          "velocity": 0.6850393700787402
        },
        {
          "duration": 0.15625,
          "durationTicks": 96,
          "midi": 91,
          "name": "G6",
          "ticks": 27840,
          "time": 45.3125,
          "velocity": 0.7874015748031497
        },
        {
          "duration": 0.15625,
          "durationTicks": 96,
          "midi": 84,
          "name": "C6",
          "ticks": 27936,
          "time": 45.46875,
          "velocity": 0.5905511811023622
        },
        {
          "duration": 0.15625,
          "durationTicks": 96,
          "midi": 89,
          "name": "F6",
          "ticks": 28032,
          "time": 45.625,
          "velocity": 0.7874015748031497
        },
        {
          "duration": 0.15625,
          "durationTicks": 96,
          "midi": 91,
          "name": "G6",
          "ticks": 28128,
          "time": 45.78125,
          "velocity": 0.6850393700787402
        },
        {
          "duration": 0.15625,
          "durationTicks": 96,
          "midi": 84,
          "name": "C6",
          "ticks": 28224,
          "time": 45.9375,
          "velocity": 0.7874015748031497
        },
        {
          "duration": 0.15625,
          "durationTicks": 96,
          "midi": 89,
          "name": "F6",
          "ticks": 28320,
          "time": 46.09375,
          "velocity": 0.5905511811023622
        },
        {
          "duration": 0.15625,
          "durationTicks": 96,
          "midi": 84,
          "name": "C6",
          "ticks": 28416,
          "time": 46.25,
          "velocity": 0.7874015748031497
        },
        {
          "duration": 0.15625,
          "durationTicks": 96,
          "midi": 89,
          "name": "F6",
          "ticks": 28512,
          "time": 46.40625,
          "velocity": 0.6850393700787402
        },
        {
          "duration": 0.15625,
          "durationTicks": 96,
          "midi": 91,
          "name": "G6",
          "ticks": 28608,
          "time": 46.5625,
          "velocity": 0.7874015748031497
        },
        {
          "duration": 0.15625,
          "durationTicks": 96,
          "midi": 84,
          "name": "C6",
          "ticks": 28704,
          "time": 46.71875,
          "velocity": 0.5905511811023622
        },
        {
          "duration": 0.15625,
          "durationTicks": 96,
          "midi": 89,
          "name": "F6",
          "ticks": 28800,
          "time": 46.875,
          "velocity": 0.7874015748031497
        },
        {
          "duration": 0.15625,
          "durationTicks": 96,
          "midi": 91,
          "name": "G6",
          "ticks": 28896,
          "time": 47.03125,
          "velocity": 0.6850393700787402
        },
        {
          "duration": 0.15625,
          "durationTicks": 96,
          "midi": 84,
          "name": "C6",
          "ticks": 28992,
          "time": 47.1875,
          "velocity": 0.7874015748031497
        },
        {
          "duration": 0.15625,
          "durationTicks": 96,
          "midi": 89,
          "name": "F6",
          "ticks": 29088,
          "time": 47.34375,
          "velocity": 0.5905511811023622
        },
        {
          "duration": 0.15625,
          "durationTicks": 96,
          "midi": 84,
          "name": "C6",
          "ticks": 29184,
          "time": 47.5,
          "velocity": 0.7874015748031497
        },
        {
          "duration": 0.15625,
          "durationTicks": 96,
          "midi": 89,
          "name": "F6",
          "ticks": 29280,
          "time": 47.65625,
          "velocity": 0.6850393700787402
        },
        {
          "duration": 0.15625,
          "durationTicks": 96,
          "midi": 94,
          "name": "A#6",
          "ticks": 29376,
          "time": 47.8125,
          "velocity": 0.7874015748031497
        },
        {
          "duration": 0.15625,
          "durationTicks": 96,
          "midi": 84,
          "name": "C6",
          "ticks": 29472,
          "time": 47.96875,
          "velocity": 0.5905511811023622
        },
        {
          "duration": 0.15625,
          "durationTicks": 96,
          "midi": 89,
          "name": "F6",
          "ticks": 29568,
          "time": 48.125,
          "velocity": 0.7874015748031497
        },
        {
          "duration": 0.15625,
          "durationTicks": 96,
          "midi": 94,
          "name": "A#6",
          "ticks": 29664,
          "time": 48.28125,
          "velocity": 0.6850393700787402
        },
        {
          "duration": 0.15625,
          "durationTicks": 96,
          "midi": 84,
          "name": "C6",
          "ticks": 29760,
          "time": 48.4375,
          "velocity": 0.7874015748031497
        },
        {
          "duration": 0.15625,
          "durationTicks": 96,
          "midi": 89,
          "name": "F6",
          "ticks": 29856,
          "time": 48.59375,
          "velocity": 0.5905511811023622
        },
        {
          "duration": 0.15625,
          "durationTicks": 96,
          "midi": 84,
          "name": "C6",
          "ticks": 29952,
          "time": 48.75,
          "velocity": 0.7874015748031497
        },
        {
          "duration": 0.15625,
          "durationTicks": 96,
          "midi": 89,
          "name": "F6",
          "ticks": 30048,
          "time": 48.90625,
          "velocity": 0.6850393700787402
        },
        {
          "duration": 0.15625,
          "durationTicks": 96,
          "midi": 94,
          "name": "A#6",
          "ticks": 30144,
          "time": 49.0625,
          "velocity": 0.7874015748031497
        },
        {
          "duration": 0.15625,
          "durationTicks": 96,
          "midi": 84,
          "name": "C6",
          "ticks": 30240,
          "time": 49.21875,
          "velocity": 0.5905511811023622
        },
        {
          "duration": 0.15625,
          "durationTicks": 96,
          "midi": 89,
          "name": "F6",
          "ticks": 30336,
          "time": 49.375,
          "velocity": 0.7874015748031497
        },
        {
          "duration": 0.15625,
          "durationTicks": 96,
          "midi": 94,
          "name": "A#6",
          "ticks": 30432,
          "time": 49.53125,
          "velocity": 0.6850393700787402
        },
        {
          "duration": 0.15625,
          "durationTicks": 96,
          "midi": 92,
          "name": "G#6",
          "ticks": 30528,
          "time": 49.6875,
          "velocity": 0.7874015748031497
        },
        {
          "duration": 0.15625,
          "durationTicks": 96,
          "midi": 91,
          "name": "G6",
          "ticks": 30624,
          "time": 49.84375,
          "velocity": 0.6456692913385826
        },
        {
          "duration": 0.15625,
          "durationTicks": 96,
          "midi": 84,
          "name": "C6",
          "ticks": 30720,
          "time": 50,
          "velocity": 0.7874015748031497
        },
        {
          "duration": 0.15625,
          "durationTicks": 96,
          "midi": 89,
          "name": "F6",
          "ticks": 30816,
          "time": 50.15625,
          "velocity": 0.6850393700787402
        },
        {
          "duration": 0.15625,
          "durationTicks": 96,
          "midi": 91,
          "name": "G6",
          "ticks": 30912,
          "time": 50.3125,
          "velocity": 0.7874015748031497
        },
        {
          "duration": 0.15625,
          "durationTicks": 96,
          "midi": 84,
          "name": "C6",
          "ticks": 31008,
          "time": 50.46875,
          "velocity": 0.6850393700787402
        },
        {
          "duration": 0.15625,
          "durationTicks": 96,
          "midi": 89,
          "name": "F6",
          "ticks": 31104,
          "time": 50.625,
          "velocity": 0.7874015748031497
        },
        {
          "duration": 0.15625,
          "durationTicks": 96,
          "midi": 91,
          "name": "G6",
          "ticks": 31200,
          "time": 50.78125,
          "velocity": 0.6850393700787402
        },
        {
          "duration": 0.15625,
          "durationTicks": 96,
          "midi": 84,
          "name": "C6",
          "ticks": 31296,
          "time": 50.9375,
          "velocity": 0.7874015748031497
        },
        {
          "duration": 0.15625,
          "durationTicks": 96,
          "midi": 89,
          "name": "F6",
          "ticks": 31392,
          "time": 51.09375,
          "velocity": 0.5905511811023622
        },
        {
          "duration": 0.15625,
          "durationTicks": 96,
          "midi": 84,
          "name": "C6",
          "ticks": 31488,
          "time": 51.25,
          "velocity": 0.7874015748031497
        },
        {
          "duration": 0.15625,
          "durationTicks": 96,
          "midi": 89,
          "name": "F6",
          "ticks": 31584,
          "time": 51.40625,
          "velocity": 0.6850393700787402
        },
        {
          "duration": 0.15625,
          "durationTicks": 96,
          "midi": 91,
          "name": "G6",
          "ticks": 31680,
          "time": 51.5625,
          "velocity": 0.7874015748031497
        },
        {
          "duration": 0.15625,
          "durationTicks": 96,
          "midi": 84,
          "name": "C6",
          "ticks": 31776,
          "time": 51.71875,
          "velocity": 0.5905511811023622
        },
        {
          "duration": 0.15625,
          "durationTicks": 96,
          "midi": 89,
          "name": "F6",
          "ticks": 31872,
          "time": 51.875,
          "velocity": 0.7874015748031497
        },
        {
          "duration": 0.15625,
          "durationTicks": 96,
          "midi": 91,
          "name": "G6",
          "ticks": 31968,
          "time": 52.03125,
          "velocity": 0.6850393700787402
        },
        {
          "duration": 0.15625,
          "durationTicks": 96,
          "midi": 84,
          "name": "C6",
          "ticks": 32064,
          "time": 52.1875,
          "velocity": 0.7874015748031497
        },
        {
          "duration": 0.15625,
          "durationTicks": 96,
          "midi": 89,
          "name": "F6",
          "ticks": 32160,
          "time": 52.34375,
          "velocity": 0.5905511811023622
        },
        {
          "duration": 0.15625,
          "durationTicks": 96,
          "midi": 84,
          "name": "C6",
          "ticks": 32256,
          "time": 52.5,
          "velocity": 0.7874015748031497
        },
        {
          "duration": 0.15625,
          "durationTicks": 96,
          "midi": 89,
          "name": "F6",
          "ticks": 32352,
          "time": 52.65625,
          "velocity": 0.6850393700787402
        },
        {
          "duration": 0.15625,
          "durationTicks": 96,
          "midi": 92,
          "name": "G#6",
          "ticks": 32448,
          "time": 52.8125,
          "velocity": 0.7874015748031497
        },
        {
          "duration": 0.15625,
          "durationTicks": 96,
          "midi": 84,
          "name": "C6",
          "ticks": 32544,
          "time": 52.96875,
          "velocity": 0.5905511811023622
        },
        {
          "duration": 0.15625,
          "durationTicks": 96,
          "midi": 89,
          "name": "F6",
          "ticks": 32640,
          "time": 53.125,
          "velocity": 0.7874015748031497
        },
        {
          "duration": 0.15625,
          "durationTicks": 96,
          "midi": 92,
          "name": "G#6",
          "ticks": 32736,
          "time": 53.28125,
          "velocity": 0.6850393700787402
        },
        {
          "duration": 0.15625,
          "durationTicks": 96,
          "midi": 84,
          "name": "C6",
          "ticks": 32832,
          "time": 53.4375,
          "velocity": 0.7874015748031497
        },
        {
          "duration": 0.15625,
          "durationTicks": 96,
          "midi": 89,
          "name": "F6",
          "ticks": 32928,
          "time": 53.59375,
          "velocity": 0.5905511811023622
        },
        {
          "duration": 0.15625,
          "durationTicks": 96,
          "midi": 84,
          "name": "C6",
          "ticks": 33024,
          "time": 53.75,
          "velocity": 0.7874015748031497
        },
        {
          "duration": 0.15625,
          "durationTicks": 96,
          "midi": 89,
          "name": "F6",
          "ticks": 33120,
          "time": 53.90625,
          "velocity": 0.6850393700787402
        },
        {
          "duration": 0.15625,
          "durationTicks": 96,
          "midi": 92,
          "name": "G#6",
          "ticks": 33216,
          "time": 54.0625,
          "velocity": 0.7874015748031497
        },
        {
          "duration": 0.15625,
          "durationTicks": 96,
          "midi": 84,
          "name": "C6",
          "ticks": 33312,
          "time": 54.21875,
          "velocity": 0.5905511811023622
        },
        {
          "duration": 0.15625,
          "durationTicks": 96,
          "midi": 89,
          "name": "F6",
          "ticks": 33408,
          "time": 54.375,
          "velocity": 0.7874015748031497
        },
        {
          "duration": 0.15625,
          "durationTicks": 96,
          "midi": 92,
          "name": "G#6",
          "ticks": 33504,
          "time": 54.53125,
          "velocity": 0.6850393700787402
        },
        {
          "duration": 0.15625,
          "durationTicks": 96,
          "midi": 84,
          "name": "C6",
          "ticks": 33600,
          "time": 54.6875,
          "velocity": 0.7874015748031497
        },
        {
          "duration": 0.15625,
          "durationTicks": 96,
          "midi": 89,
          "name": "F6",
          "ticks": 33696,
          "time": 54.84375,
          "velocity": 0.5905511811023622
        },
        {
          "duration": 0.15625,
          "durationTicks": 96,
          "midi": 84,
          "name": "C6",
          "ticks": 33792,
          "time": 55,
          "velocity": 0.7874015748031497
        },
        {
          "duration": 0.15625,
          "durationTicks": 96,
          "midi": 89,
          "name": "F6",
          "ticks": 33888,
          "time": 55.15625,
          "velocity": 0.6850393700787402
        },
        {
          "duration": 0.15625,
          "durationTicks": 96,
          "midi": 91,
          "name": "G6",
          "ticks": 33984,
          "time": 55.3125,
          "velocity": 0.7874015748031497
        },
        {
          "duration": 0.15625,
          "durationTicks": 96,
          "midi": 84,
          "name": "C6",
          "ticks": 34080,
          "time": 55.46875,
          "velocity": 0.5905511811023622
        },
        {
          "duration": 0.15625,
          "durationTicks": 96,
          "midi": 89,
          "name": "F6",
          "ticks": 34176,
          "time": 55.625,
          "velocity": 0.7874015748031497
        },
        {
          "duration": 0.15625,
          "durationTicks": 96,
          "midi": 91,
          "name": "G6",
          "ticks": 34272,
          "time": 55.78125,
          "velocity": 0.6850393700787402
        },
        {
          "duration": 0.15625,
          "durationTicks": 96,
          "midi": 84,
          "name": "C6",
          "ticks": 34368,
          "time": 55.9375,
          "velocity": 0.7874015748031497
        },
        {
          "duration": 0.15625,
          "durationTicks": 96,
          "midi": 89,
          "name": "F6",
          "ticks": 34464,
          "time": 56.09375,
          "velocity": 0.5905511811023622
        },
        {
          "duration": 0.15625,
          "durationTicks": 96,
          "midi": 84,
          "name": "C6",
          "ticks": 34560,
          "time": 56.25,
          "velocity": 0.7874015748031497
        },
        {
          "duration": 0.15625,
          "durationTicks": 96,
          "midi": 89,
          "name": "F6",
          "ticks": 34656,
          "time": 56.40625,
          "velocity": 0.6850393700787402
        },
        {
          "duration": 0.15625,
          "durationTicks": 96,
          "midi": 91,
          "name": "G6",
          "ticks": 34752,
          "time": 56.5625,
          "velocity": 0.7874015748031497
        },
        {
          "duration": 0.15625,
          "durationTicks": 96,
          "midi": 84,
          "name": "C6",
          "ticks": 34848,
          "time": 56.71875,
          "velocity": 0.5905511811023622
        },
        {
          "duration": 0.15625,
          "durationTicks": 96,
          "midi": 89,
          "name": "F6",
          "ticks": 34944,
          "time": 56.875,
          "velocity": 0.7874015748031497
        },
        {
          "duration": 0.15625,
          "durationTicks": 96,
          "midi": 91,
          "name": "G6",
          "ticks": 35040,
          "time": 57.03125,
          "velocity": 0.6850393700787402
        },
        {
          "duration": 0.15625,
          "durationTicks": 96,
          "midi": 84,
          "name": "C6",
          "ticks": 35136,
          "time": 57.1875,
          "velocity": 0.7874015748031497
        },
        {
          "duration": 0.15625,
          "durationTicks": 96,
          "midi": 89,
          "name": "F6",
          "ticks": 35232,
          "time": 57.34375,
          "velocity": 0.5905511811023622
        },
        {
          "duration": 0.15625,
          "durationTicks": 96,
          "midi": 84,
          "name": "C6",
          "ticks": 35328,
          "time": 57.5,
          "velocity": 0.7874015748031497
        },
        {
          "duration": 0.15625,
          "durationTicks": 96,
          "midi": 89,
          "name": "F6",
          "ticks": 35424,
          "time": 57.65625,
          "velocity": 0.6850393700787402
        },
        {
          "duration": 0.15625,
          "durationTicks": 96,
          "midi": 94,
          "name": "A#6",
          "ticks": 35520,
          "time": 57.8125,
          "velocity": 0.7874015748031497
        },
        {
          "duration": 0.15625,
          "durationTicks": 96,
          "midi": 84,
          "name": "C6",
          "ticks": 35616,
          "time": 57.96875,
          "velocity": 0.5905511811023622
        },
        {
          "duration": 0.15625,
          "durationTicks": 96,
          "midi": 89,
          "name": "F6",
          "ticks": 35712,
          "time": 58.125,
          "velocity": 0.7874015748031497
        },
        {
          "duration": 0.15625,
          "durationTicks": 96,
          "midi": 94,
          "name": "A#6",
          "ticks": 35808,
          "time": 58.28125,
          "velocity": 0.6850393700787402
        },
        {
          "duration": 0.15625,
          "durationTicks": 96,
          "midi": 84,
          "name": "C6",
          "ticks": 35904,
          "time": 58.4375,
          "velocity": 0.7874015748031497
        },
        {
          "duration": 0.15625,
          "durationTicks": 96,
          "midi": 89,
          "name": "F6",
          "ticks": 36000,
          "time": 58.59375,
          "velocity": 0.5905511811023622
        },
        {
          "duration": 0.15625,
          "durationTicks": 96,
          "midi": 84,
          "name": "C6",
          "ticks": 36096,
          "time": 58.75,
          "velocity": 0.7874015748031497
        },
        {
          "duration": 0.15625,
          "durationTicks": 96,
          "midi": 89,
          "name": "F6",
          "ticks": 36192,
          "time": 58.90625,
          "velocity": 0.6850393700787402
        },
        {
          "duration": 0.15625,
          "durationTicks": 96,
          "midi": 94,
          "name": "A#6",
          "ticks": 36288,
          "time": 59.0625,
          "velocity": 0.7874015748031497
        },
        {
          "duration": 0.15625,
          "durationTicks": 96,
          "midi": 84,
          "name": "C6",
          "ticks": 36384,
          "time": 59.21875,
          "velocity": 0.5905511811023622
        },
        {
          "duration": 0.15625,
          "durationTicks": 96,
          "midi": 89,
          "name": "F6",
          "ticks": 36480,
          "time": 59.375,
          "velocity": 0.7874015748031497
        },
        {
          "duration": 0.15625,
          "durationTicks": 96,
          "midi": 94,
          "name": "A#6",
          "ticks": 36576,
          "time": 59.53125,
          "velocity": 0.6850393700787402
        },
        {
          "duration": 0.15625,
          "durationTicks": 96,
          "midi": 92,
          "name": "G#6",
          "ticks": 36672,
          "time": 59.6875,
          "velocity": 0.7874015748031497
        },
        {
          "duration": 0.15625,
          "durationTicks": 96,
          "midi": 91,
          "name": "G6",
          "ticks": 36768,
          "time": 59.84375,
          "velocity": 0.6456692913385826
        },
        {
          "duration": 0.15625,
          "durationTicks": 96,
          "midi": 84,
          "name": "C6",
          "ticks": 36864,
          "time": 60,
          "velocity": 0.7874015748031497
        },
        {
          "duration": 0.15625,
          "durationTicks": 96,
          "midi": 89,
          "name": "F6",
          "ticks": 36960,
          "time": 60.15625,
          "velocity": 0.6850393700787402
        },
        {
          "duration": 0.15625,
          "durationTicks": 96,
          "midi": 91,
          "name": "G6",
          "ticks": 37056,
          "time": 60.3125,
          "velocity": 0.7874015748031497
        },
        {
          "duration": 0.15625,
          "durationTicks": 96,
          "midi": 84,
          "name": "C6",
          "ticks": 37152,
          "time": 60.46875,
          "velocity": 0.6850393700787402
        },
        {
          "duration": 0.15625,
          "durationTicks": 96,
          "midi": 89,
          "name": "F6",
          "ticks": 37248,
          "time": 60.625,
          "velocity": 0.7874015748031497
        },
        {
          "duration": 0.15625,
          "durationTicks": 96,
          "midi": 91,
          "name": "G6",
          "ticks": 37344,
          "time": 60.78125,
          "velocity": 0.6850393700787402
        },
        {
          "duration": 0.15625,
          "durationTicks": 96,
          "midi": 84,
          "name": "C6",
          "ticks": 37440,
          "time": 60.9375,
          "velocity": 0.7874015748031497
        },
        {
          "duration": 0.15625,
          "durationTicks": 96,
          "midi": 89,
          "name": "F6",
          "ticks": 37536,
          "time": 61.09375,
          "velocity": 0.5905511811023622
        },
        {
          "duration": 0.15625,
          "durationTicks": 96,
          "midi": 84,
          "name": "C6",
          "ticks": 37632,
          "time": 61.25,
          "velocity": 0.7874015748031497
        },
        {
          "duration": 0.15625,
          "durationTicks": 96,
          "midi": 89,
          "name": "F6",
          "ticks": 37728,
          "time": 61.40625,
          "velocity": 0.6850393700787402
        },
        {
          "duration": 0.15625,
          "durationTicks": 96,
          "midi": 91,
          "name": "G6",
          "ticks": 37824,
          "time": 61.5625,
          "velocity": 0.7874015748031497
        },
        {
          "duration": 0.15625,
          "durationTicks": 96,
          "midi": 84,
          "name": "C6",
          "ticks": 37920,
          "time": 61.71875,
          "velocity": 0.5905511811023622
        },
        {
          "duration": 0.15625,
          "durationTicks": 96,
          "midi": 89,
          "name": "F6",
          "ticks": 38016,
          "time": 61.875,
          "velocity": 0.7874015748031497
        },
        {
          "duration": 0.15625,
          "durationTicks": 96,
          "midi": 91,
          "name": "G6",
          "ticks": 38112,
          "time": 62.03125,
          "velocity": 0.6850393700787402
        },
        {
          "duration": 0.15625,
          "durationTicks": 96,
          "midi": 84,
          "name": "C6",
          "ticks": 38208,
          "time": 62.1875,
          "velocity": 0.7874015748031497
        },
        {
          "duration": 0.15625,
          "durationTicks": 96,
          "midi": 89,
          "name": "F6",
          "ticks": 38304,
          "time": 62.34375,
          "velocity": 0.5905511811023622
        },
        {
          "duration": 0.15625,
          "durationTicks": 96,
          "midi": 84,
          "name": "C6",
          "ticks": 38400,
          "time": 62.5,
          "velocity": 0.7874015748031497
        },
        {
          "duration": 0.15625,
          "durationTicks": 96,
          "midi": 89,
          "name": "F6",
          "ticks": 38496,
          "time": 62.65625,
          "velocity": 0.6850393700787402
        },
        {
          "duration": 0.15625,
          "durationTicks": 96,
          "midi": 92,
          "name": "G#6",
          "ticks": 38592,
          "time": 62.8125,
          "velocity": 0.7874015748031497
        },
        {
          "duration": 0.15625,
          "durationTicks": 96,
          "midi": 84,
          "name": "C6",
          "ticks": 38688,
          "time": 62.96875,
          "velocity": 0.5905511811023622
        },
        {
          "duration": 0.15625,
          "durationTicks": 96,
          "midi": 89,
          "name": "F6",
          "ticks": 38784,
          "time": 63.125,
          "velocity": 0.7874015748031497
        },
        {
          "duration": 0.15625,
          "durationTicks": 96,
          "midi": 92,
          "name": "G#6",
          "ticks": 38880,
          "time": 63.28125,
          "velocity": 0.6850393700787402
        },
        {
          "duration": 0.15625,
          "durationTicks": 96,
          "midi": 84,
          "name": "C6",
          "ticks": 38976,
          "time": 63.4375,
          "velocity": 0.7874015748031497
        },
        {
          "duration": 0.15625,
          "durationTicks": 96,
          "midi": 89,
          "name": "F6",
          "ticks": 39072,
          "time": 63.59375,
          "velocity": 0.5905511811023622
        },
        {
          "duration": 0.15625,
          "durationTicks": 96,
          "midi": 84,
          "name": "C6",
          "ticks": 39168,
          "time": 63.75,
          "velocity": 0.7874015748031497
        },
        {
          "duration": 0.15625,
          "durationTicks": 96,
          "midi": 89,
          "name": "F6",
          "ticks": 39264,
          "time": 63.90625,
          "velocity": 0.6850393700787402
        },
        {
          "duration": 0.15625,
          "durationTicks": 96,
          "midi": 92,
          "name": "G#6",
          "ticks": 39360,
          "time": 64.0625,
          "velocity": 0.7874015748031497
        },
        {
          "duration": 0.15625,
          "durationTicks": 96,
          "midi": 84,
          "name": "C6",
          "ticks": 39456,
          "time": 64.21875,
          "velocity": 0.5905511811023622
        },
        {
          "duration": 0.15625,
          "durationTicks": 96,
          "midi": 89,
          "name": "F6",
          "ticks": 39552,
          "time": 64.375,
          "velocity": 0.7874015748031497
        },
        {
          "duration": 0.15625,
          "durationTicks": 96,
          "midi": 92,
          "name": "G#6",
          "ticks": 39648,
          "time": 64.53125,
          "velocity": 0.6850393700787402
        },
        {
          "duration": 0.15625,
          "durationTicks": 96,
          "midi": 84,
          "name": "C6",
          "ticks": 39744,
          "time": 64.6875,
          "velocity": 0.7874015748031497
        },
        {
          "duration": 0.15625,
          "durationTicks": 96,
          "midi": 89,
          "name": "F6",
          "ticks": 39840,
          "time": 64.84375,
          "velocity": 0.5905511811023622
        },
        {
          "duration": 0.15625,
          "durationTicks": 96,
          "midi": 84,
          "name": "C6",
          "ticks": 39936,
          "time": 65,
          "velocity": 0.7874015748031497
        },
        {
          "duration": 0.15625,
          "durationTicks": 96,
          "midi": 89,
          "name": "F6",
          "ticks": 40032,
          "time": 65.15625,
          "velocity": 0.6850393700787402
        },
        {
          "duration": 0.15625,
          "durationTicks": 96,
          "midi": 91,
          "name": "G6",
          "ticks": 40128,
          "time": 65.3125,
          "velocity": 0.7874015748031497
        },
        {
          "duration": 0.15625,
          "durationTicks": 96,
          "midi": 84,
          "name": "C6",
          "ticks": 40224,
          "time": 65.46875,
          "velocity": 0.5905511811023622
        },
        {
          "duration": 0.15625,
          "durationTicks": 96,
          "midi": 89,
          "name": "F6",
          "ticks": 40320,
          "time": 65.625,
          "velocity": 0.7874015748031497
        },
        {
          "duration": 0.15625,
          "durationTicks": 96,
          "midi": 91,
          "name": "G6",
          "ticks": 40416,
          "time": 65.78125,
          "velocity": 0.6850393700787402
        },
        {
          "duration": 0.15625,
          "durationTicks": 96,
          "midi": 84,
          "name": "C6",
          "ticks": 40512,
          "time": 65.9375,
          "velocity": 0.7874015748031497
        },
        {
          "duration": 0.15625,
          "durationTicks": 96,
          "midi": 89,
          "name": "F6",
          "ticks": 40608,
          "time": 66.09375,
          "velocity": 0.5905511811023622
        },
        {
          "duration": 0.15625,
          "durationTicks": 96,
          "midi": 84,
          "name": "C6",
          "ticks": 40704,
          "time": 66.25,
          "velocity": 0.7874015748031497
        },
        {
          "duration": 0.15625,
          "durationTicks": 96,
          "midi": 89,
          "name": "F6",
          "ticks": 40800,
          "time": 66.40625,
          "velocity": 0.6850393700787402
        },
        {
          "duration": 0.15625,
          "durationTicks": 96,
          "midi": 91,
          "name": "G6",
          "ticks": 40896,
          "time": 66.5625,
          "velocity": 0.7874015748031497
        },
        {
          "duration": 0.15625,
          "durationTicks": 96,
          "midi": 84,
          "name": "C6",
          "ticks": 40992,
          "time": 66.71875,
          "velocity": 0.5905511811023622
        },
        {
          "duration": 0.15625,
          "durationTicks": 96,
          "midi": 89,
          "name": "F6",
          "ticks": 41088,
          "time": 66.875,
          "velocity": 0.7874015748031497
        },
        {
          "duration": 0.15625,
          "durationTicks": 96,
          "midi": 91,
          "name": "G6",
          "ticks": 41184,
          "time": 67.03125,
          "velocity": 0.6850393700787402
        },
        {
          "duration": 0.15625,
          "durationTicks": 96,
          "midi": 84,
          "name": "C6",
          "ticks": 41280,
          "time": 67.1875,
          "velocity": 0.7874015748031497
        },
        {
          "duration": 0.15625,
          "durationTicks": 96,
          "midi": 89,
          "name": "F6",
          "ticks": 41376,
          "time": 67.34375,
          "velocity": 0.5905511811023622
        },
        {
          "duration": 0.15625,
          "durationTicks": 96,
          "midi": 84,
          "name": "C6",
          "ticks": 41472,
          "time": 67.5,
          "velocity": 0.7874015748031497
        },
        {
          "duration": 0.15625,
          "durationTicks": 96,
          "midi": 89,
          "name": "F6",
          "ticks": 41568,
          "time": 67.65625,
          "velocity": 0.6850393700787402
        },
        {
          "duration": 0.15625,
          "durationTicks": 96,
          "midi": 94,
          "name": "A#6",
          "ticks": 41664,
          "time": 67.8125,
          "velocity": 0.7874015748031497
        },
        {
          "duration": 0.15625,
          "durationTicks": 96,
          "midi": 84,
          "name": "C6",
          "ticks": 41760,
          "time": 67.96875,
          "velocity": 0.5905511811023622
        },
        {
          "duration": 0.15625,
          "durationTicks": 96,
          "midi": 89,
          "name": "F6",
          "ticks": 41856,
          "time": 68.125,
          "velocity": 0.7874015748031497
        },
        {
          "duration": 0.15625,
          "durationTicks": 96,
          "midi": 94,
          "name": "A#6",
          "ticks": 41952,
          "time": 68.28125,
          "velocity": 0.6850393700787402
        },
        {
          "duration": 0.15625,
          "durationTicks": 96,
          "midi": 84,
          "name": "C6",
          "ticks": 42048,
          "time": 68.4375,
          "velocity": 0.7874015748031497
        },
        {
          "duration": 0.15625,
          "durationTicks": 96,
          "midi": 89,
          "name": "F6",
          "ticks": 42144,
          "time": 68.59375,
          "velocity": 0.5905511811023622
        },
        {
          "duration": 0.15625,
          "durationTicks": 96,
          "midi": 84,
          "name": "C6",
          "ticks": 42240,
          "time": 68.75,
          "velocity": 0.7874015748031497
        },
        {
          "duration": 0.15625,
          "durationTicks": 96,
          "midi": 89,
          "name": "F6",
          "ticks": 42336,
          "time": 68.90625,
          "velocity": 0.6850393700787402
        },
        {
          "duration": 0.15625,
          "durationTicks": 96,
          "midi": 94,
          "name": "A#6",
          "ticks": 42432,
          "time": 69.0625,
          "velocity": 0.7874015748031497
        },
        {
          "duration": 0.15625,
          "durationTicks": 96,
          "midi": 84,
          "name": "C6",
          "ticks": 42528,
          "time": 69.21875,
          "velocity": 0.5905511811023622
        },
        {
          "duration": 0.15625,
          "durationTicks": 96,
          "midi": 89,
          "name": "F6",
          "ticks": 42624,
          "time": 69.375,
          "velocity": 0.7874015748031497
        },
        {
          "duration": 0.15625,
          "durationTicks": 96,
          "midi": 94,
          "name": "A#6",
          "ticks": 42720,
          "time": 69.53125,
          "velocity": 0.6850393700787402
        },
        {
          "duration": 0.15625,
          "durationTicks": 96,
          "midi": 92,
          "name": "G#6",
          "ticks": 42816,
          "time": 69.6875,
          "velocity": 0.7874015748031497
        },
        {
          "duration": 0.15625,
          "durationTicks": 96,
          "midi": 91,
          "name": "G6",
          "ticks": 42912,
          "time": 69.84375,
          "velocity": 0.6456692913385826
        },
        {
          "duration": 0.15625,
          "durationTicks": 96,
          "midi": 84,
          "name": "C6",
          "ticks": 43008,
          "time": 70,
          "velocity": 0.7874015748031497
        },
        {
          "duration": 0.15625,
          "durationTicks": 96,
          "midi": 89,
          "name": "F6",
          "ticks": 43104,
          "time": 70.15625,
          "velocity": 0.6850393700787402
        },
        {
          "duration": 0.15625,
          "durationTicks": 96,
          "midi": 91,
          "name": "G6",
          "ticks": 43200,
          "time": 70.3125,
          "velocity": 0.7874015748031497
        },
        {
          "duration": 0.15625,
          "durationTicks": 96,
          "midi": 84,
          "name": "C6",
          "ticks": 43296,
          "time": 70.46875,
          "velocity": 0.6850393700787402
        },
        {
          "duration": 0.15625,
          "durationTicks": 96,
          "midi": 89,
          "name": "F6",
          "ticks": 43392,
          "time": 70.625,
          "velocity": 0.7874015748031497
        },
        {
          "duration": 0.15625,
          "durationTicks": 96,
          "midi": 91,
          "name": "G6",
          "ticks": 43488,
          "time": 70.78125,
          "velocity": 0.6850393700787402
        },
        {
          "duration": 0.15625,
          "durationTicks": 96,
          "midi": 84,
          "name": "C6",
          "ticks": 43584,
          "time": 70.9375,
          "velocity": 0.7874015748031497
        },
        {
          "duration": 0.15625,
          "durationTicks": 96,
          "midi": 89,
          "name": "F6",
          "ticks": 43680,
          "time": 71.09375,
          "velocity": 0.5905511811023622
        },
        {
          "duration": 0.15625,
          "durationTicks": 96,
          "midi": 84,
          "name": "C6",
          "ticks": 43776,
          "time": 71.25,
          "velocity": 0.7874015748031497
        },
        {
          "duration": 0.15625,
          "durationTicks": 96,
          "midi": 89,
          "name": "F6",
          "ticks": 43872,
          "time": 71.40625,
          "velocity": 0.6850393700787402
        },
        {
          "duration": 0.15625,
          "durationTicks": 96,
          "midi": 91,
          "name": "G6",
          "ticks": 43968,
          "time": 71.5625,
          "velocity": 0.7874015748031497
        },
        {
          "duration": 0.15625,
          "durationTicks": 96,
          "midi": 84,
          "name": "C6",
          "ticks": 44064,
          "time": 71.71875,
          "velocity": 0.5905511811023622
        },
        {
          "duration": 0.15625,
          "durationTicks": 96,
          "midi": 89,
          "name": "F6",
          "ticks": 44160,
          "time": 71.875,
          "velocity": 0.7874015748031497
        },
        {
          "duration": 0.15625,
          "durationTicks": 96,
          "midi": 91,
          "name": "G6",
          "ticks": 44256,
          "time": 72.03125,
          "velocity": 0.6850393700787402
        },
        {
          "duration": 0.15625,
          "durationTicks": 96,
          "midi": 84,
          "name": "C6",
          "ticks": 44352,
          "time": 72.1875,
          "velocity": 0.7874015748031497
        },
        {
          "duration": 0.15625,
          "durationTicks": 96,
          "midi": 89,
          "name": "F6",
          "ticks": 44448,
          "time": 72.34375,
          "velocity": 0.5905511811023622
        },
        {
          "duration": 0.15625,
          "durationTicks": 96,
          "midi": 84,
          "name": "C6",
          "ticks": 44544,
          "time": 72.5,
          "velocity": 0.7874015748031497
        },
        {
          "duration": 0.15625,
          "durationTicks": 96,
          "midi": 89,
          "name": "F6",
          "ticks": 44640,
          "time": 72.65625,
          "velocity": 0.6850393700787402
        },
        {
          "duration": 0.15625,
          "durationTicks": 96,
          "midi": 92,
          "name": "G#6",
          "ticks": 44736,
          "time": 72.8125,
          "velocity": 0.7874015748031497
        },
        {
          "duration": 0.15625,
          "durationTicks": 96,
          "midi": 84,
          "name": "C6",
          "ticks": 44832,
          "time": 72.96875,
          "velocity": 0.5905511811023622
        },
        {
          "duration": 0.15625,
          "durationTicks": 96,
          "midi": 89,
          "name": "F6",
          "ticks": 44928,
          "time": 73.125,
          "velocity": 0.7874015748031497
        },
        {
          "duration": 0.15625,
          "durationTicks": 96,
          "midi": 92,
          "name": "G#6",
          "ticks": 45024,
          "time": 73.28125,
          "velocity": 0.6850393700787402
        },
        {
          "duration": 0.15625,
          "durationTicks": 96,
          "midi": 84,
          "name": "C6",
          "ticks": 45120,
          "time": 73.4375,
          "velocity": 0.7874015748031497
        },
        {
          "duration": 0.15625,
          "durationTicks": 96,
          "midi": 89,
          "name": "F6",
          "ticks": 45216,
          "time": 73.59375,
          "velocity": 0.5905511811023622
        },
        {
          "duration": 0.15625,
          "durationTicks": 96,
          "midi": 84,
          "name": "C6",
          "ticks": 45312,
          "time": 73.75,
          "velocity": 0.7874015748031497
        },
        {
          "duration": 0.15625,
          "durationTicks": 96,
          "midi": 89,
          "name": "F6",
          "ticks": 45408,
          "time": 73.90625,
          "velocity": 0.6850393700787402
        },
        {
          "duration": 0.15625,
          "durationTicks": 96,
          "midi": 92,
          "name": "G#6",
          "ticks": 45504,
          "time": 74.0625,
          "velocity": 0.7874015748031497
        },
        {
          "duration": 0.15625,
          "durationTicks": 96,
          "midi": 84,
          "name": "C6",
          "ticks": 45600,
          "time": 74.21875,
          "velocity": 0.5905511811023622
        },
        {
          "duration": 0.15625,
          "durationTicks": 96,
          "midi": 89,
          "name": "F6",
          "ticks": 45696,
          "time": 74.375,
          "velocity": 0.7874015748031497
        },
        {
          "duration": 0.15625,
          "durationTicks": 96,
          "midi": 92,
          "name": "G#6",
          "ticks": 45792,
          "time": 74.53125,
          "velocity": 0.6850393700787402
        },
        {
          "duration": 0.15625,
          "durationTicks": 96,
          "midi": 84,
          "name": "C6",
          "ticks": 45888,
          "time": 74.6875,
          "velocity": 0.7874015748031497
        },
        {
          "duration": 0.15625,
          "durationTicks": 96,
          "midi": 89,
          "name": "F6",
          "ticks": 45984,
          "time": 74.84375,
          "velocity": 0.5905511811023622
        },
        {
          "duration": 0.15625,
          "durationTicks": 96,
          "midi": 84,
          "name": "C6",
          "ticks": 46080,
          "time": 75,
          "velocity": 0.7874015748031497
        },
        {
          "duration": 0.15625,
          "durationTicks": 96,
          "midi": 89,
          "name": "F6",
          "ticks": 46176,
          "time": 75.15625,
          "velocity": 0.6850393700787402
        },
        {
          "duration": 0.15625,
          "durationTicks": 96,
          "midi": 91,
          "name": "G6",
          "ticks": 46272,
          "time": 75.3125,
          "velocity": 0.7874015748031497
        },
        {
          "duration": 0.15625,
          "durationTicks": 96,
          "midi": 84,
          "name": "C6",
          "ticks": 46368,
          "time": 75.46875,
          "velocity": 0.5905511811023622
        },
        {
          "duration": 0.15625,
          "durationTicks": 96,
          "midi": 89,
          "name": "F6",
          "ticks": 46464,
          "time": 75.625,
          "velocity": 0.7874015748031497
        },
        {
          "duration": 0.15625,
          "durationTicks": 96,
          "midi": 91,
          "name": "G6",
          "ticks": 46560,
          "time": 75.78125,
          "velocity": 0.6850393700787402
        },
        {
          "duration": 0.15625,
          "durationTicks": 96,
          "midi": 84,
          "name": "C6",
          "ticks": 46656,
          "time": 75.9375,
          "velocity": 0.7874015748031497
        },
        {
          "duration": 0.15625,
          "durationTicks": 96,
          "midi": 89,
          "name": "F6",
          "ticks": 46752,
          "time": 76.09375,
          "velocity": 0.5905511811023622
        },
        {
          "duration": 0.15625,
          "durationTicks": 96,
          "midi": 84,
          "name": "C6",
          "ticks": 46848,
          "time": 76.25,
          "velocity": 0.7874015748031497
        },
        {
          "duration": 0.15625,
          "durationTicks": 96,
          "midi": 89,
          "name": "F6",
          "ticks": 46944,
          "time": 76.40625,
          "velocity": 0.6850393700787402
        },
        {
          "duration": 0.15625,
          "durationTicks": 96,
          "midi": 91,
          "name": "G6",
          "ticks": 47040,
          "time": 76.5625,
          "velocity": 0.7874015748031497
        },
        {
          "duration": 0.15625,
          "durationTicks": 96,
          "midi": 84,
          "name": "C6",
          "ticks": 47136,
          "time": 76.71875,
          "velocity": 0.5905511811023622
        },
        {
          "duration": 0.15625,
          "durationTicks": 96,
          "midi": 89,
          "name": "F6",
          "ticks": 47232,
          "time": 76.875,
          "velocity": 0.7874015748031497
        },
        {
          "duration": 0.15625,
          "durationTicks": 96,
          "midi": 91,
          "name": "G6",
          "ticks": 47328,
          "time": 77.03125,
          "velocity": 0.6850393700787402
        },
        {
          "duration": 0.15625,
          "durationTicks": 96,
          "midi": 84,
          "name": "C6",
          "ticks": 47424,
          "time": 77.1875,
          "velocity": 0.7874015748031497
        },
        {
          "duration": 0.15625,
          "durationTicks": 96,
          "midi": 89,
          "name": "F6",
          "ticks": 47520,
          "time": 77.34375,
          "velocity": 0.5905511811023622
        },
        {
          "duration": 0.15625,
          "durationTicks": 96,
          "midi": 92,
          "name": "G#6",
          "ticks": 47616,
          "time": 77.5,
          "velocity": 0.7874015748031497
        },
        {
          "duration": 0.15625,
          "durationTicks": 96,
          "midi": 91,
          "name": "G6",
          "ticks": 47712,
          "time": 77.65625,
          "velocity": 0.6850393700787402
        },
        {
          "duration": 0.15625,
          "durationTicks": 96,
          "midi": 89,
          "name": "F6",
          "ticks": 47808,
          "time": 77.8125,
          "velocity": 0.7874015748031497
        },
        {
          "duration": 0.15625,
          "durationTicks": 96,
          "midi": 87,
          "name": "D#6",
          "ticks": 47904,
          "time": 77.96875,
          "velocity": 0.5905511811023622
        },
        {
          "duration": 0.15625,
          "durationTicks": 96,
          "midi": 85,
          "name": "C#6",
          "ticks": 48000,
          "time": 78.125,
          "velocity": 0.7874015748031497
        },
        {
          "duration": 0.15625,
          "durationTicks": 96,
          "midi": 84,
          "name": "C6",
          "ticks": 48096,
          "time": 78.28125,
          "velocity": 0.6850393700787402
        },
        {
          "duration": 0.15625,
          "durationTicks": 96,
          "midi": 82,
          "name": "A#5",
          "ticks": 48192,
          "time": 78.4375,
          "velocity": 0.7874015748031497
        },
        {
          "duration": 0.15625,
          "durationTicks": 96,
          "midi": 80,
          "name": "G#5",
          "ticks": 48288,
          "time": 78.59375,
          "velocity": 0.5905511811023622
        },
        {
          "duration": 0.15625,
          "durationTicks": 96,
          "midi": 79,
          "name": "G5",
          "ticks": 48384,
          "time": 78.75,
          "velocity": 0.7874015748031497
        },
        {
          "duration": 0.15625,
          "durationTicks": 96,
          "midi": 77,
          "name": "F5",
          "ticks": 48480,
          "time": 78.90625,
          "velocity": 0.6850393700787402
        },
        {
          "duration": 0.15625,
          "durationTicks": 96,
          "midi": 75,
          "name": "D#5",
          "ticks": 48576,
          "time": 79.0625,
          "velocity": 0.7874015748031497
        },
        {
          "duration": 0.15625,
          "durationTicks": 96,
          "midi": 73,
          "name": "C#5",
          "ticks": 48672,
          "time": 79.21875,
          "velocity": 0.5905511811023622
        },
        {
          "duration": 0.15625,
          "durationTicks": 96,
          "midi": 72,
          "name": "C5",
          "ticks": 48768,
          "time": 79.375,
          "velocity": 0.7874015748031497
        },
        {
          "duration": 0.15625,
          "durationTicks": 96,
          "midi": 70,
          "name": "A#4",
          "ticks": 48864,
          "time": 79.53125,
          "velocity": 0.6850393700787402
        },
        {
          "duration": 0.15625,
          "durationTicks": 96,
          "midi": 68,
          "name": "G#4",
          "ticks": 48960,
          "time": 79.6875,
          "velocity": 0.7165354330708661
        },
        {
          "duration": 0.15625,
          "durationTicks": 96,
          "midi": 75,
          "name": "D#5",
          "ticks": 49056,
          "time": 79.84375,
          "velocity": 0.6456692913385826
        },
        {
          "duration": 0.15625,
          "durationTicks": 96,
          "midi": 77,
          "name": "F5",
          "ticks": 49152,
          "time": 80,
          "velocity": 0.7874015748031497
        },
        {
          "duration": 0.15625,
          "durationTicks": 96,
          "midi": 79,
          "name": "G5",
          "ticks": 49248,
          "time": 80.15625,
          "velocity": 0.6850393700787402
        },
        {
          "duration": 0.15625,
          "durationTicks": 96,
          "midi": 80,
          "name": "G#5",
          "ticks": 49344,
          "time": 80.3125,
          "velocity": 0.7874015748031497
        },
        {
          "duration": 0.15625,
          "durationTicks": 96,
          "midi": 84,
          "name": "C6",
          "ticks": 49440,
          "time": 80.46875,
          "velocity": 0.6850393700787402
        },
        {
          "duration": 0.625,
          "durationTicks": 384,
          "midi": 77,
          "name": "F5",
          "ticks": 49536,
          "time": 80.625,
          "velocity": 0.7874015748031497
        },
        {
          "duration": 0.15625,
          "durationTicks": 96,
          "midi": 84,
          "name": "C6",
          "ticks": 55296,
          "time": 90,
          "velocity": 0.7874015748031497
        },
        {
          "duration": 0.15625,
          "durationTicks": 96,
          "midi": 89,
          "name": "F6",
          "ticks": 55392,
          "time": 90.15625,
          "velocity": 0.6850393700787402
        },
        {
          "duration": 0.15625,
          "durationTicks": 96,
          "midi": 91,
          "name": "G6",
          "ticks": 55488,
          "time": 90.3125,
          "velocity": 0.7874015748031497
        },
        {
          "duration": 0.15625,
          "durationTicks": 96,
          "midi": 84,
          "name": "C6",
          "ticks": 55584,
          "time": 90.46875,
          "velocity": 0.6850393700787402
        },
        {
          "duration": 0.15625,
          "durationTicks": 96,
          "midi": 89,
          "name": "F6",
          "ticks": 55968,
          "time": 91.09375,
          "velocity": 0.7874015748031497
        },
        {
          "duration": 0.15625,
          "durationTicks": 96,
          "midi": 91,
          "name": "G6",
          "ticks": 56064,
          "time": 91.25,
          "velocity": 0.6456692913385826
        },
        {
          "duration": 0.15625,
          "durationTicks": 96,
          "midi": 84,
          "name": "C6",
          "ticks": 58368,
          "time": 95,
          "velocity": 0.7874015748031497
        },
        {
          "duration": 0.15625,
          "durationTicks": 96,
          "midi": 89,
          "name": "F6",
          "ticks": 58464,
          "time": 95.15625,
          "velocity": 0.6850393700787402
        },
        {
          "duration": 0.15625,
          "durationTicks": 96,
          "midi": 91,
          "name": "G6",
          "ticks": 58560,
          "time": 95.3125,
          "velocity": 0.7874015748031497
        },
        {
          "duration": 0.15625,
          "durationTicks": 96,
          "midi": 84,
          "name": "C6",
          "ticks": 58656,
          "time": 95.46875,
          "velocity": 0.6850393700787402
        },
        {
          "duration": 0.15625,
          "durationTicks": 96,
          "midi": 89,
          "name": "F6",
          "ticks": 59040,
          "time": 96.09375,
          "velocity": 0.7874015748031497
        },
        {
          "duration": 0.15625,
          "durationTicks": 96,
          "midi": 94,
          "name": "A#6",
          "ticks": 59136,
          "time": 96.25,
          "velocity": 0.6456692913385826
        },
        {
          "duration": 0.15625,
          "durationTicks": 96,
          "midi": 92,
          "name": "G#6",
          "ticks": 59520,
          "time": 96.875,
          "velocity": 0.7874015748031497
        },
        {
          "duration": 0.15625,
          "durationTicks": 96,
          "midi": 91,
          "name": "G6",
          "ticks": 59808,
          "time": 97.34375,
          "velocity": 0.5905511811023622
        },
        {
          "duration": 0.15625,
          "durationTicks": 96,
          "midi": 89,
          "name": "F6",
          "ticks": 60096,
          "time": 97.8125,
          "velocity": 0.7874015748031497
        },
        {
          "duration": 0.15625,
          "durationTicks": 96,
          "midi": 87,
          "name": "D#6",
          "ticks": 60288,
          "time": 98.125,
          "velocity": 0.6062992125984252
        },
        {
          "duration": 0.15625,
          "durationTicks": 96,
          "midi": 85,
          "name": "C#6",
          "ticks": 60576,
          "time": 98.59375,
          "velocity": 0.7874015748031497
        },
        {
          "duration": 0.15625,
          "durationTicks": 96,
          "midi": 84,
          "name": "C6",
          "ticks": 60864,
          "time": 99.0625,
          "velocity": 0.6141732283464567
        },
        {
          "duration": 0.15625,
          "durationTicks": 96,
          "midi": 82,
          "name": "A#5",
          "ticks": 61056,
          "time": 99.375,
          "velocity": 0.7874015748031497
        },
        {
          "duration": 0.15625,
          "durationTicks": 96,
          "midi": 80,
          "name": "G#5",
          "ticks": 61152,
          "time": 99.53125,
          "velocity": 0.6456692913385826
        },
        {
          "duration": 0.15625,
          "durationTicks": 96,
          "midi": 79,
          "name": "G5",
          "ticks": 61248,
          "time": 99.6875,
          "velocity": 0.7874015748031497
        },
        {
          "duration": 0.15625,
          "durationTicks": 96,
          "midi": 84,
          "name": "C6",
          "ticks": 61440,
          "time": 100,
          "velocity": 0.7874015748031497
        },
        {
          "duration": 0.15625,
          "durationTicks": 96,
          "midi": 89,
          "name": "F6",
          "ticks": 61536,
          "time": 100.15625,
          "velocity": 0.6850393700787402
        },
        {
          "duration": 0.15625,
          "durationTicks": 96,
          "midi": 91,
          "name": "G6",
          "ticks": 61632,
          "time": 100.3125,
          "velocity": 0.7874015748031497
        },
        {
          "duration": 0.15625,
          "durationTicks": 96,
          "midi": 84,
          "name": "C6",
          "ticks": 61728,
          "time": 100.46875,
          "velocity": 0.6850393700787402
        },
        {
          "duration": 0.15625,
          "durationTicks": 96,
          "midi": 89,
          "name": "F6",
          "ticks": 62112,
          "time": 101.09375,
          "velocity": 0.7874015748031497
        },
        {
          "duration": 0.15625,
          "durationTicks": 96,
          "midi": 91,
          "name": "G6",
          "ticks": 62208,
          "time": 101.25,
          "velocity": 0.6456692913385826
        },
        {
          "duration": 0.3125,
          "durationTicks": 192,
          "midi": 89,
          "name": "F6",
          "ticks": 62592,
          "time": 101.875,
          "velocity": 0.7874015748031497
        },
        {
          "duration": 0.15625,
          "durationTicks": 96,
          "midi": 91,
          "name": "G6",
          "ticks": 62784,
          "time": 102.1875,
          "velocity": 0.6299212598425197
        },
        {
          "duration": 0.15625,
          "durationTicks": 96,
          "midi": 84,
          "name": "C6",
          "ticks": 62976,
          "time": 102.5,
          "velocity": 0.7874015748031497
        },
        {
          "duration": 0.15625,
          "durationTicks": 96,
          "midi": 89,
          "name": "F6",
          "ticks": 63072,
          "time": 102.65625,
          "velocity": 0.6850393700787402
        },
        {
          "duration": 0.15625,
          "durationTicks": 96,
          "midi": 92,
          "name": "G#6",
          "ticks": 63168,
          "time": 102.8125,
          "velocity": 0.7874015748031497
        },
        {
          "duration": 0.15625,
          "durationTicks": 96,
          "midi": 84,
          "name": "C6",
          "ticks": 63264,
          "time": 102.96875,
          "velocity": 0.6850393700787402
        },
        {
          "duration": 0.15625,
          "durationTicks": 96,
          "midi": 89,
          "name": "F6",
          "ticks": 63648,
          "time": 103.59375,
          "velocity": 0.7874015748031497
        },
        {
          "duration": 0.15625,
          "durationTicks": 96,
          "midi": 92,
          "name": "G#6",
          "ticks": 63744,
          "time": 103.75,
          "velocity": 0.6456692913385826
        },
        {
          "duration": 0.3125,
          "durationTicks": 192,
          "midi": 87,
          "name": "D#6",
          "ticks": 64128,
          "time": 104.375,
          "velocity": 0.7874015748031497
        },
        {
          "duration": 0.15625,
          "durationTicks": 96,
          "midi": 86,
          "name": "D6",
          "ticks": 64320,
          "time": 104.6875,
          "velocity": 0.6299212598425197
        },
        {
          "duration": 0.15625,
          "durationTicks": 96,
          "midi": 84,
          "name": "C6",
          "ticks": 64512,
          "time": 105,
          "velocity": 0.7874015748031497
        },
        {
          "duration": 0.15625,
          "durationTicks": 96,
          "midi": 89,
          "name": "F6",
          "ticks": 64608,
          "time": 105.15625,
          "velocity": 0.6850393700787402
        },
        {
          "duration": 0.15625,
          "durationTicks": 96,
          "midi": 91,
          "name": "G6",
          "ticks": 64704,
          "time": 105.3125,
          "velocity": 0.7874015748031497
        },
        {
          "duration": 0.15625,
          "durationTicks": 96,
          "midi": 84,
          "name": "C6",
          "ticks": 64800,
          "time": 105.46875,
          "velocity": 0.6850393700787402
        },
        {
          "duration": 0.15625,
          "durationTicks": 96,
          "midi": 89,
          "name": "F6",
          "ticks": 65184,
          "time": 106.09375,
          "velocity": 0.7874015748031497
        },
        {
          "duration": 0.15625,
          "durationTicks": 96,
          "midi": 91,
          "name": "G6",
          "ticks": 65280,
          "time": 106.25,
          "velocity": 0.6456692913385826
        },
        {
          "duration": 0.3125,
          "durationTicks": 192,
          "midi": 89,
          "name": "F6",
          "ticks": 65664,
          "time": 106.875,
          "velocity": 0.7874015748031497
        },
        {
          "duration": 0.15625,
          "durationTicks": 96,
          "midi": 91,
          "name": "G6",
          "ticks": 65856,
          "time": 107.1875,
          "velocity": 0.6299212598425197
        },
        {
          "duration": 0.15625,
          "durationTicks": 96,
          "midi": 84,
          "name": "C6",
          "ticks": 66048,
          "time": 107.5,
          "velocity": 0.7874015748031497
        },
        {
          "duration": 0.15625,
          "durationTicks": 96,
          "midi": 89,
          "name": "F6",
          "ticks": 66144,
          "time": 107.65625,
          "velocity": 0.6850393700787402
        },
        {
          "duration": 0.15625,
          "durationTicks": 96,
          "midi": 92,
          "name": "G#6",
          "ticks": 66240,
          "time": 107.8125,
          "velocity": 0.7874015748031497
        },
        {
          "duration": 0.15625,
          "durationTicks": 96,
          "midi": 84,
          "name": "C6",
          "ticks": 66336,
          "time": 107.96875,
          "velocity": 0.6850393700787402
        },
        {
          "duration": 0.15625,
          "durationTicks": 96,
          "midi": 89,
          "name": "F6",
          "ticks": 66720,
          "time": 108.59375,
          "velocity": 0.7874015748031497
        },
        {
          "duration": 0.15625,
          "durationTicks": 96,
          "midi": 92,
          "name": "G#6",
          "ticks": 66816,
          "time": 108.75,
          "velocity": 0.6456692913385826
        },
        {
          "duration": 0.3125,
          "durationTicks": 192,
          "midi": 91,
          "name": "G6",
          "ticks": 67200,
          "time": 109.375,
          "velocity": 0.7874015748031497
        },
        {
          "duration": 0.15625,
          "durationTicks": 96,
          "midi": 87,
          "name": "D#6",
          "ticks": 67392,
          "time": 109.6875,
          "velocity": 0.6299212598425197
        },
        {
          "duration": 0.15625,
          "durationTicks": 96,
          "midi": 84,
          "name": "C6",
          "ticks": 67584,
          "time": 110,
          "velocity": 0.7874015748031497
        },
        {
          "duration": 0.15625,
          "durationTicks": 96,
          "midi": 89,
          "name": "F6",
          "ticks": 67680,
          "time": 110.15625,
          "velocity": 0.6850393700787402
        },
        {
          "duration": 0.15625,
          "durationTicks": 96,
          "midi": 91,
          "name": "G6",
          "ticks": 67776,
          "time": 110.3125,
          "velocity": 0.7874015748031497
        },
        {
          "duration": 0.15625,
          "durationTicks": 96,
          "midi": 84,
          "name": "C6",
          "ticks": 67872,
          "time": 110.46875,
          "velocity": 0.6850393700787402
        },
        {
          "duration": 0.15625,
          "durationTicks": 96,
          "midi": 89,
          "name": "F6",
          "ticks": 68256,
          "time": 111.09375,
          "velocity": 0.7874015748031497
        },
        {
          "duration": 0.15625,
          "durationTicks": 96,
          "midi": 91,
          "name": "G6",
          "ticks": 68352,
          "time": 111.25,
          "velocity": 0.6456692913385826
        },
        {
          "duration": 0.3125,
          "durationTicks": 192,
          "midi": 89,
          "name": "F6",
          "ticks": 68736,
          "time": 111.875,
          "velocity": 0.7874015748031497
        },
        {
          "duration": 0.15625,
          "durationTicks": 96,
          "midi": 91,
          "name": "G6",
          "ticks": 68928,
          "time": 112.1875,
          "velocity": 0.6299212598425197
        },
        {
          "duration": 0.15625,
          "durationTicks": 96,
          "midi": 84,
          "name": "C6",
          "ticks": 69120,
          "time": 112.5,
          "velocity": 0.7874015748031497
        },
        {
          "duration": 0.15625,
          "durationTicks": 96,
          "midi": 89,
          "name": "F6",
          "ticks": 69216,
          "time": 112.65625,
          "velocity": 0.6850393700787402
        },
        {
          "duration": 0.15625,
          "durationTicks": 96,
          "midi": 92,
          "name": "G#6",
          "ticks": 69312,
          "time": 112.8125,
          "velocity": 0.7874015748031497
        },
        {
          "duration": 0.15625,
          "durationTicks": 96,
          "midi": 84,
          "name": "C6",
          "ticks": 69408,
          "time": 112.96875,
          "velocity": 0.6850393700787402
        },
        {
          "duration": 0.15625,
          "durationTicks": 96,
          "midi": 89,
          "name": "F6",
          "ticks": 69792,
          "time": 113.59375,
          "velocity": 0.7874015748031497
        },
        {
          "duration": 0.15625,
          "durationTicks": 96,
          "midi": 92,
          "name": "G#6",
          "ticks": 69888,
          "time": 113.75,
          "velocity": 0.6456692913385826
        },
        {
          "duration": 0.3125,
          "durationTicks": 192,
          "midi": 87,
          "name": "D#6",
          "ticks": 70272,
          "time": 114.375,
          "velocity": 0.7874015748031497
        },
        {
          "duration": 0.15625,
          "durationTicks": 96,
          "midi": 86,
          "name": "D6",
          "ticks": 70464,
          "time": 114.6875,
          "velocity": 0.6299212598425197
        },
        {
          "duration": 0.15625,
          "durationTicks": 96,
          "midi": 84,
          "name": "C6",
          "ticks": 70656,
          "time": 115,
          "velocity": 0.7874015748031497
        },
        {
          "duration": 0.15625,
          "durationTicks": 96,
          "midi": 89,
          "name": "F6",
          "ticks": 70752,
          "time": 115.15625,
          "velocity": 0.6850393700787402
        },
        {
          "duration": 0.15625,
          "durationTicks": 96,
          "midi": 91,
          "name": "G6",
          "ticks": 70848,
          "time": 115.3125,
          "velocity": 0.7874015748031497
        },
        {
          "duration": 0.15625,
          "durationTicks": 96,
          "midi": 84,
          "name": "C6",
          "ticks": 70944,
          "time": 115.46875,
          "velocity": 0.6850393700787402
        },
        {
          "duration": 0.15625,
          "durationTicks": 96,
          "midi": 89,
          "name": "F6",
          "ticks": 71328,
          "time": 116.09375,
          "velocity": 0.7874015748031497
        },
        {
          "duration": 0.15625,
          "durationTicks": 96,
          "midi": 91,
          "name": "G6",
          "ticks": 71424,
          "time": 116.25,
          "velocity": 0.6456692913385826
        },
        {
          "duration": 0.3125,
          "durationTicks": 192,
          "midi": 89,
          "name": "F6",
          "ticks": 71808,
          "time": 116.875,
          "velocity": 0.7874015748031497
        },
        {
          "duration": 0.15625,
          "durationTicks": 96,
          "midi": 91,
          "name": "G6",
          "ticks": 72000,
          "time": 117.1875,
          "velocity": 0.6299212598425197
        },
        {
          "duration": 0.15625,
          "durationTicks": 96,
          "midi": 84,
          "name": "C6",
          "ticks": 72192,
          "time": 117.5,
          "velocity": 0.7874015748031497
        },
        {
          "duration": 0.15625,
          "durationTicks": 96,
          "midi": 89,
          "name": "F6",
          "ticks": 72288,
          "time": 117.65625,
          "velocity": 0.6850393700787402
        },
        {
          "duration": 0.15625,
          "durationTicks": 96,
          "midi": 92,
          "name": "G#6",
          "ticks": 72384,
          "time": 117.8125,
          "velocity": 0.7874015748031497
        },
        {
          "duration": 0.15625,
          "durationTicks": 96,
          "midi": 84,
          "name": "C6",
          "ticks": 72480,
          "time": 117.96875,
          "velocity": 0.6850393700787402
        },
        {
          "duration": 0.15625,
          "durationTicks": 96,
          "midi": 89,
          "name": "F6",
          "ticks": 72864,
          "time": 118.59375,
          "velocity": 0.7874015748031497
        },
        {
          "duration": 0.15625,
          "durationTicks": 96,
          "midi": 92,
          "name": "G#6",
          "ticks": 72960,
          "time": 118.75,
          "velocity": 0.6456692913385826
        },
        {
          "duration": 0.3125,
          "durationTicks": 192,
          "midi": 91,
          "name": "G6",
          "ticks": 73344,
          "time": 119.375,
          "velocity": 0.7874015748031497
        },
        {
          "duration": 0.15625,
          "durationTicks": 96,
          "midi": 87,
          "name": "D#6",
          "ticks": 73536,
          "time": 119.6875,
          "velocity": 0.6299212598425197
        },
        {
          "duration": 0.15625,
          "durationTicks": 96,
          "midi": 84,
          "name": "C6",
          "ticks": 73728,
          "time": 120,
          "velocity": 0.7874015748031497
        },
        {
          "duration": 0.15625,
          "durationTicks": 96,
          "midi": 89,
          "name": "F6",
          "ticks": 73824,
          "time": 120.15625,
          "velocity": 0.6850393700787402
        },
        {
          "duration": 0.15625,
          "durationTicks": 96,
          "midi": 91,
          "name": "G6",
          "ticks": 73920,
          "time": 120.3125,
          "velocity": 0.7874015748031497
        },
        {
          "duration": 0.15625,
          "durationTicks": 96,
          "midi": 84,
          "name": "C6",
          "ticks": 74016,
          "time": 120.46875,
          "velocity": 0.6850393700787402
        },
        {
          "duration": 0.15625,
          "durationTicks": 96,
          "midi": 89,
          "name": "F6",
          "ticks": 74400,
          "time": 121.09375,
          "velocity": 0.7874015748031497
        },
        {
          "duration": 0.15625,
          "durationTicks": 96,
          "midi": 91,
          "name": "G6",
          "ticks": 74496,
          "time": 121.25,
          "velocity": 0.6456692913385826
        },
        {
          "duration": 0.15625,
          "durationTicks": 96,
          "midi": 84,
          "name": "C6",
          "ticks": 76800,
          "time": 125,
          "velocity": 0.7874015748031497
        },
        {
          "duration": 0.15625,
          "durationTicks": 96,
          "midi": 89,
          "name": "F6",
          "ticks": 76896,
          "time": 125.15625,
          "velocity": 0.6850393700787402
        },
        {
          "duration": 0.15625,
          "durationTicks": 96,
          "midi": 91,
          "name": "G6",
          "ticks": 76992,
          "time": 125.3125,
          "velocity": 0.7874015748031497
        },
        {
          "duration": 0.15625,
          "durationTicks": 96,
          "midi": 84,
          "name": "C6",
          "ticks": 77088,
          "time": 125.46875,
          "velocity": 0.6850393700787402
        },
        {
          "duration": 0.15625,
          "durationTicks": 96,
          "midi": 89,
          "name": "F6",
          "ticks": 77472,
          "time": 126.09375,
          "velocity": 0.7874015748031497
        },
        {
          "duration": 0.15625,
          "durationTicks": 96,
          "midi": 94,
          "name": "A#6",
          "ticks": 77568,
          "time": 126.25,
          "velocity": 0.6456692913385826
        },
        {
          "duration": 0.15625,
          "durationTicks": 96,
          "midi": 84,
          "name": "C6",
          "ticks": 79872,
          "time": 130,
          "velocity": 0.7874015748031497
        },
        {
          "duration": 0.15625,
          "durationTicks": 96,
          "midi": 89,
          "name": "F6",
          "ticks": 79968,
          "time": 130.15625,
          "velocity": 0.6850393700787402
        },
        {
          "duration": 0.15625,
          "durationTicks": 96,
          "midi": 91,
          "name": "G6",
          "ticks": 80064,
          "time": 130.3125,
          "velocity": 0.7874015748031497
        },
        {
          "duration": 0.15625,
          "durationTicks": 96,
          "midi": 84,
          "name": "C6",
          "ticks": 80160,
          "time": 130.46875,
          "velocity": 0.6850393700787402
        },
        {
          "duration": 0.15625,
          "durationTicks": 96,
          "midi": 89,
          "name": "F6",
          "ticks": 80544,
          "time": 131.09375,
          "velocity": 0.7874015748031497
        },
        {
          "duration": 0.15625,
          "durationTicks": 96,
          "midi": 91,
          "name": "G6",
          "ticks": 80640,
          "time": 131.25,
          "velocity": 0.6456692913385826
        },
        {
          "duration": 0.3125,
          "durationTicks": 192,
          "midi": 89,
          "name": "F6",
          "ticks": 81024,
          "time": 131.875,
          "velocity": 0.7874015748031497
        },
        {
          "duration": 0.15625,
          "durationTicks": 96,
          "midi": 91,
          "name": "G6",
          "ticks": 81216,
          "time": 132.1875,
          "velocity": 0.6299212598425197
        },
        {
          "duration": 0.15625,
          "durationTicks": 96,
          "midi": 84,
          "name": "C6",
          "ticks": 81408,
          "time": 132.5,
          "velocity": 0.7874015748031497
        },
        {
          "duration": 0.15625,
          "durationTicks": 96,
          "midi": 89,
          "name": "F6",
          "ticks": 81504,
          "time": 132.65625,
          "velocity": 0.6850393700787402
        },
        {
          "duration": 0.15625,
          "durationTicks": 96,
          "midi": 92,
          "name": "G#6",
          "ticks": 81600,
          "time": 132.8125,
          "velocity": 0.7874015748031497
        },
        {
          "duration": 0.15625,
          "durationTicks": 96,
          "midi": 84,
          "name": "C6",
          "ticks": 81696,
          "time": 132.96875,
          "velocity": 0.6850393700787402
        },
        {
          "duration": 0.15625,
          "durationTicks": 96,
          "midi": 89,
          "name": "F6",
          "ticks": 82080,
          "time": 133.59375,
          "velocity": 0.7874015748031497
        },
        {
          "duration": 0.15625,
          "durationTicks": 96,
          "midi": 92,
          "name": "G#6",
          "ticks": 82176,
          "time": 133.75,
          "velocity": 0.6456692913385826
        },
        {
          "duration": 0.3125,
          "durationTicks": 192,
          "midi": 87,
          "name": "D#6",
          "ticks": 82560,
          "time": 134.375,
          "velocity": 0.7874015748031497
        },
        {
          "duration": 0.15625,
          "durationTicks": 96,
          "midi": 86,
          "name": "D6",
          "ticks": 82752,
          "time": 134.6875,
          "velocity": 0.6299212598425197
        },
        {
          "duration": 0.15625,
          "durationTicks": 96,
          "midi": 84,
          "name": "C6",
          "ticks": 82944,
          "time": 135,
          "velocity": 0.7874015748031497
        },
        {
          "duration": 0.15625,
          "durationTicks": 96,
          "midi": 89,
          "name": "F6",
          "ticks": 83040,
          "time": 135.15625,
          "velocity": 0.6850393700787402
        },
        {
          "duration": 0.15625,
          "durationTicks": 96,
          "midi": 91,
          "name": "G6",
          "ticks": 83136,
          "time": 135.3125,
          "velocity": 0.7874015748031497
        },
        {
          "duration": 0.15625,
          "durationTicks": 96,
          "midi": 84,
          "name": "C6",
          "ticks": 83232,
          "time": 135.46875,
          "velocity": 0.6850393700787402
        },
        {
          "duration": 0.15625,
          "durationTicks": 96,
          "midi": 89,
          "name": "F6",
          "ticks": 83616,
          "time": 136.09375,
          "velocity": 0.7874015748031497
        },
        {
          "duration": 0.15625,
          "durationTicks": 96,
          "midi": 91,
          "name": "G6",
          "ticks": 83712,
          "time": 136.25,
          "velocity": 0.6456692913385826
        },
        {
          "duration": 0.3125,
          "durationTicks": 192,
          "midi": 89,
          "name": "F6",
          "ticks": 84096,
          "time": 136.875,
          "velocity": 0.7874015748031497
        },
        {
          "duration": 0.15625,
          "durationTicks": 96,
          "midi": 91,
          "name": "G6",
          "ticks": 84288,
          "time": 137.1875,
          "velocity": 0.6299212598425197
        },
        {
          "duration": 0.15625,
          "durationTicks": 96,
          "midi": 84,
          "name": "C6",
          "ticks": 84480,
          "time": 137.5,
          "velocity": 0.7874015748031497
        },
        {
          "duration": 0.15625,
          "durationTicks": 96,
          "midi": 89,
          "name": "F6",
          "ticks": 84576,
          "time": 137.65625,
          "velocity": 0.6850393700787402
        },
        {
          "duration": 0.15625,
          "durationTicks": 96,
          "midi": 92,
          "name": "G#6",
          "ticks": 84672,
          "time": 137.8125,
          "velocity": 0.7874015748031497
        },
        {
          "duration": 0.15625,
          "durationTicks": 96,
          "midi": 84,
          "name": "C6",
          "ticks": 84768,
          "time": 137.96875,
          "velocity": 0.6850393700787402
        },
        {
          "duration": 0.15625,
          "durationTicks": 96,
          "midi": 89,
          "name": "F6",
          "ticks": 85152,
          "time": 138.59375,
          "velocity": 0.7874015748031497
        },
        {
          "duration": 0.15625,
          "durationTicks": 96,
          "midi": 92,
          "name": "G#6",
          "ticks": 85248,
          "time": 138.75,
          "velocity": 0.6456692913385826
        },
        {
          "duration": 0.3125,
          "durationTicks": 192,
          "midi": 91,
          "name": "G6",
          "ticks": 85632,
          "time": 139.375,
          "velocity": 0.7874015748031497
        },
        {
          "duration": 0.15625,
          "durationTicks": 96,
          "midi": 87,
          "name": "D#6",
          "ticks": 85824,
          "time": 139.6875,
          "velocity": 0.6299212598425197
        },
        {
          "duration": 0.15625,
          "durationTicks": 96,
          "midi": 84,
          "name": "C6",
          "ticks": 86016,
          "time": 140,
          "velocity": 0.7874015748031497
        },
        {
          "duration": 0.15625,
          "durationTicks": 96,
          "midi": 89,
          "name": "F6",
          "ticks": 86112,
          "time": 140.15625,
          "velocity": 0.6850393700787402
        },
        {
          "duration": 0.15625,
          "durationTicks": 96,
          "midi": 91,
          "name": "G6",
          "ticks": 86208,
          "time": 140.3125,
          "velocity": 0.7874015748031497
        },
        {
          "duration": 0.15625,
          "durationTicks": 96,
          "midi": 84,
          "name": "C6",
          "ticks": 86304,
          "time": 140.46875,
          "velocity": 0.6850393700787402
        },
        {
          "duration": 0.15625,
          "durationTicks": 96,
          "midi": 89,
          "name": "F6",
          "ticks": 86400,
          "time": 140.625,
          "velocity": 0.7874015748031497
        },
        {
          "duration": 0.15625,
          "durationTicks": 96,
          "midi": 91,
          "name": "G6",
          "ticks": 86496,
          "time": 140.78125,
          "velocity": 0.6850393700787402
        },
        {
          "duration": 0.15625,
          "durationTicks": 96,
          "midi": 84,
          "name": "C6",
          "ticks": 86592,
          "time": 140.9375,
          "velocity": 0.7874015748031497
        },
        {
          "duration": 0.15625,
          "durationTicks": 96,
          "midi": 89,
          "name": "F6",
          "ticks": 86688,
          "time": 141.09375,
          "velocity": 0.5905511811023622
        },
        {
          "duration": 0.15625,
          "durationTicks": 96,
          "midi": 84,
          "name": "C6",
          "ticks": 86784,
          "time": 141.25,
          "velocity": 0.7874015748031497
        },
        {
          "duration": 0.15625,
          "durationTicks": 96,
          "midi": 89,
          "name": "F6",
          "ticks": 86880,
          "time": 141.40625,
          "velocity": 0.6850393700787402
        },
        {
          "duration": 0.15625,
          "durationTicks": 96,
          "midi": 91,
          "name": "G6",
          "ticks": 86976,
          "time": 141.5625,
          "velocity": 0.7874015748031497
        },
        {
          "duration": 0.15625,
          "durationTicks": 96,
          "midi": 84,
          "name": "C6",
          "ticks": 87072,
          "time": 141.71875,
          "velocity": 0.5905511811023622
        },
        {
          "duration": 0.15625,
          "durationTicks": 96,
          "midi": 89,
          "name": "F6",
          "ticks": 87168,
          "time": 141.875,
          "velocity": 0.7874015748031497
        },
        {
          "duration": 0.15625,
          "durationTicks": 96,
          "midi": 91,
          "name": "G6",
          "ticks": 87264,
          "time": 142.03125,
          "velocity": 0.6850393700787402
        },
        {
          "duration": 0.15625,
          "durationTicks": 96,
          "midi": 84,
          "name": "C6",
          "ticks": 87360,
          "time": 142.1875,
          "velocity": 0.7874015748031497
        },
        {
          "duration": 0.15625,
          "durationTicks": 96,
          "midi": 89,
          "name": "F6",
          "ticks": 87456,
          "time": 142.34375,
          "velocity": 0.5905511811023622
        },
        {
          "duration": 0.15625,
          "durationTicks": 96,
          "midi": 84,
          "name": "C6",
          "ticks": 87552,
          "time": 142.5,
          "velocity": 0.7874015748031497
        },
        {
          "duration": 0.15625,
          "durationTicks": 96,
          "midi": 89,
          "name": "F6",
          "ticks": 87648,
          "time": 142.65625,
          "velocity": 0.6850393700787402
        },
        {
          "duration": 0.15625,
          "durationTicks": 96,
          "midi": 92,
          "name": "G#6",
          "ticks": 87744,
          "time": 142.8125,
          "velocity": 0.7874015748031497
        },
        {
          "duration": 0.15625,
          "durationTicks": 96,
          "midi": 84,
          "name": "C6",
          "ticks": 87840,
          "time": 142.96875,
          "velocity": 0.5905511811023622
        },
        {
          "duration": 0.15625,
          "durationTicks": 96,
          "midi": 89,
          "name": "F6",
          "ticks": 87936,
          "time": 143.125,
          "velocity": 0.7874015748031497
        },
        {
          "duration": 0.15625,
          "durationTicks": 96,
          "midi": 92,
          "name": "G#6",
          "ticks": 88032,
          "time": 143.28125,
          "velocity": 0.6850393700787402
        },
        {
          "duration": 0.15625,
          "durationTicks": 96,
          "midi": 84,
          "name": "C6",
          "ticks": 88128,
          "time": 143.4375,
          "velocity": 0.7874015748031497
        },
        {
          "duration": 0.15625,
          "durationTicks": 96,
          "midi": 89,
          "name": "F6",
          "ticks": 88224,
          "time": 143.59375,
          "velocity": 0.5905511811023622
        },
        {
          "duration": 0.15625,
          "durationTicks": 96,
          "midi": 84,
          "name": "C6",
          "ticks": 88320,
          "time": 143.75,
          "velocity": 0.7874015748031497
        },
        {
          "duration": 0.15625,
          "durationTicks": 96,
          "midi": 89,
          "name": "F6",
          "ticks": 88416,
          "time": 143.90625,
          "velocity": 0.6850393700787402
        },
        {
          "duration": 0.15625,
          "durationTicks": 96,
          "midi": 92,
          "name": "G#6",
          "ticks": 88512,
          "time": 144.0625,
          "velocity": 0.7874015748031497
        },
        {
          "duration": 0.15625,
          "durationTicks": 96,
          "midi": 84,
          "name": "C6",
          "ticks": 88608,
          "time": 144.21875,
          "velocity": 0.5905511811023622
        },
        {
          "duration": 0.15625,
          "durationTicks": 96,
          "midi": 89,
          "name": "F6",
          "ticks": 88704,
          "time": 144.375,
          "velocity": 0.7874015748031497
        },
        {
          "duration": 0.15625,
          "durationTicks": 96,
          "midi": 92,
          "name": "G#6",
          "ticks": 88800,
          "time": 144.53125,
          "velocity": 0.6850393700787402
        },
        {
          "duration": 0.15625,
          "durationTicks": 96,
          "midi": 84,
          "name": "C6",
          "ticks": 88896,
          "time": 144.6875,
          "velocity": 0.7874015748031497
        },
        {
          "duration": 0.15625,
          "durationTicks": 96,
          "midi": 89,
          "name": "F6",
          "ticks": 88992,
          "time": 144.84375,
          "velocity": 0.5905511811023622
        },
        {
          "duration": 0.15625,
          "durationTicks": 96,
          "midi": 84,
          "name": "C6",
          "ticks": 89088,
          "time": 145,
          "velocity": 0.7874015748031497
        },
        {
          "duration": 0.15625,
          "durationTicks": 96,
          "midi": 89,
          "name": "F6",
          "ticks": 89184,
          "time": 145.15625,
          "velocity": 0.6850393700787402
        },
        {
          "duration": 0.15625,
          "durationTicks": 96,
          "midi": 91,
          "name": "G6",
          "ticks": 89280,
          "time": 145.3125,
          "velocity": 0.7874015748031497
        },
        {
          "duration": 0.15625,
          "durationTicks": 96,
          "midi": 84,
          "name": "C6",
          "ticks": 89376,
          "time": 145.46875,
          "velocity": 0.5905511811023622
        },
        {
          "duration": 0.15625,
          "durationTicks": 96,
          "midi": 89,
          "name": "F6",
          "ticks": 89472,
          "time": 145.625,
          "velocity": 0.7874015748031497
        },
        {
          "duration": 0.15625,
          "durationTicks": 96,
          "midi": 91,
          "name": "G6",
          "ticks": 89568,
          "time": 145.78125,
          "velocity": 0.6850393700787402
        },
        {
          "duration": 0.15625,
          "durationTicks": 96,
          "midi": 84,
          "name": "C6",
          "ticks": 89664,
          "time": 145.9375,
          "velocity": 0.7874015748031497
        },
        {
          "duration": 0.15625,
          "durationTicks": 96,
          "midi": 89,
          "name": "F6",
          "ticks": 89760,
          "time": 146.09375,
          "velocity": 0.5905511811023622
        },
        {
          "duration": 0.15625,
          "durationTicks": 96,
          "midi": 84,
          "name": "C6",
          "ticks": 89856,
          "time": 146.25,
          "velocity": 0.7874015748031497
        },
        {
          "duration": 0.15625,
          "durationTicks": 96,
          "midi": 89,
          "name": "F6",
          "ticks": 89952,
          "time": 146.40625,
          "velocity": 0.6850393700787402
        },
        {
          "duration": 0.15625,
          "durationTicks": 96,
          "midi": 91,
          "name": "G6",
          "ticks": 90048,
          "time": 146.5625,
          "velocity": 0.7874015748031497
        },
        {
          "duration": 0.15625,
          "durationTicks": 96,
          "midi": 84,
          "name": "C6",
          "ticks": 90144,
          "time": 146.71875,
          "velocity": 0.5905511811023622
        },
        {
          "duration": 0.15625,
          "durationTicks": 96,
          "midi": 89,
          "name": "F6",
          "ticks": 90240,
          "time": 146.875,
          "velocity": 0.7874015748031497
        },
        {
          "duration": 0.15625,
          "durationTicks": 96,
          "midi": 91,
          "name": "G6",
          "ticks": 90336,
          "time": 147.03125,
          "velocity": 0.6850393700787402
        },
        {
          "duration": 0.15625,
          "durationTicks": 96,
          "midi": 84,
          "name": "C6",
          "ticks": 90432,
          "time": 147.1875,
          "velocity": 0.7874015748031497
        },
        {
          "duration": 0.15625,
          "durationTicks": 96,
          "midi": 89,
          "name": "F6",
          "ticks": 90528,
          "time": 147.34375,
          "velocity": 0.5905511811023622
        },
        {
          "duration": 0.15625,
          "durationTicks": 96,
          "midi": 84,
          "name": "C6",
          "ticks": 90624,
          "time": 147.5,
          "velocity": 0.7874015748031497
        },
        {
          "duration": 0.15625,
          "durationTicks": 96,
          "midi": 89,
          "name": "F6",
          "ticks": 90720,
          "time": 147.65625,
          "velocity": 0.6850393700787402
        },
        {
          "duration": 0.15625,
          "durationTicks": 96,
          "midi": 94,
          "name": "A#6",
          "ticks": 90816,
          "time": 147.8125,
          "velocity": 0.7874015748031497
        },
        {
          "duration": 0.15625,
          "durationTicks": 96,
          "midi": 84,
          "name": "C6",
          "ticks": 90912,
          "time": 147.96875,
          "velocity": 0.5905511811023622
        },
        {
          "duration": 0.15625,
          "durationTicks": 96,
          "midi": 89,
          "name": "F6",
          "ticks": 91008,
          "time": 148.125,
          "velocity": 0.7874015748031497
        },
        {
          "duration": 0.15625,
          "durationTicks": 96,
          "midi": 94,
          "name": "A#6",
          "ticks": 91104,
          "time": 148.28125,
          "velocity": 0.6850393700787402
        },
        {
          "duration": 0.15625,
          "durationTicks": 96,
          "midi": 84,
          "name": "C6",
          "ticks": 91200,
          "time": 148.4375,
          "velocity": 0.7874015748031497
        },
        {
          "duration": 0.15625,
          "durationTicks": 96,
          "midi": 89,
          "name": "F6",
          "ticks": 91296,
          "time": 148.59375,
          "velocity": 0.5905511811023622
        },
        {
          "duration": 0.15625,
          "durationTicks": 96,
          "midi": 84,
          "name": "C6",
          "ticks": 91392,
          "time": 148.75,
          "velocity": 0.7874015748031497
        },
        {
          "duration": 0.15625,
          "durationTicks": 96,
          "midi": 89,
          "name": "F6",
          "ticks": 91488,
          "time": 148.90625,
          "velocity": 0.6850393700787402
        },
        {
          "duration": 0.15625,
          "durationTicks": 96,
          "midi": 94,
          "name": "A#6",
          "ticks": 91584,
          "time": 149.0625,
          "velocity": 0.7874015748031497
        },
        {
          "duration": 0.15625,
          "durationTicks": 96,
          "midi": 84,
          "name": "C6",
          "ticks": 91680,
          "time": 149.21875,
          "velocity": 0.5905511811023622
        },
        {
          "duration": 0.15625,
          "durationTicks": 96,
          "midi": 89,
          "name": "F6",
          "ticks": 91776,
          "time": 149.375,
          "velocity": 0.7874015748031497
        },
        {
          "duration": 0.15625,
          "durationTicks": 96,
          "midi": 94,
          "name": "A#6",
          "ticks": 91872,
          "time": 149.53125,
          "velocity": 0.6850393700787402
        },
        {
          "duration": 0.15625,
          "durationTicks": 96,
          "midi": 92,
          "name": "G#6",
          "ticks": 91968,
          "time": 149.6875,
          "velocity": 0.7874015748031497
        },
        {
          "duration": 0.15625,
          "durationTicks": 96,
          "midi": 91,
          "name": "G6",
          "ticks": 92064,
          "time": 149.84375,
          "velocity": 0.6456692913385826
        },
        {
          "duration": 0.15625,
          "durationTicks": 96,
          "midi": 84,
          "name": "C6",
          "ticks": 92160,
          "time": 150,
          "velocity": 0.7874015748031497
        },
        {
          "duration": 0.15625,
          "durationTicks": 96,
          "midi": 89,
          "name": "F6",
          "ticks": 92256,
          "time": 150.15625,
          "velocity": 0.6850393700787402
        },
        {
          "duration": 0.15625,
          "durationTicks": 96,
          "midi": 91,
          "name": "G6",
          "ticks": 92352,
          "time": 150.3125,
          "velocity": 0.7874015748031497
        },
        {
          "duration": 0.15625,
          "durationTicks": 96,
          "midi": 84,
          "name": "C6",
          "ticks": 92448,
          "time": 150.46875,
          "velocity": 0.6850393700787402
        },
        {
          "duration": 0.15625,
          "durationTicks": 96,
          "midi": 89,
          "name": "F6",
          "ticks": 92544,
          "time": 150.625,
          "velocity": 0.7874015748031497
        },
        {
          "duration": 0.15625,
          "durationTicks": 96,
          "midi": 91,
          "name": "G6",
          "ticks": 92640,
          "time": 150.78125,
          "velocity": 0.6850393700787402
        },
        {
          "duration": 0.15625,
          "durationTicks": 96,
          "midi": 84,
          "name": "C6",
          "ticks": 92736,
          "time": 150.9375,
          "velocity": 0.7874015748031497
        },
        {
          "duration": 0.15625,
          "durationTicks": 96,
          "midi": 89,
          "name": "F6",
          "ticks": 92832,
          "time": 151.09375,
          "velocity": 0.5905511811023622
        },
        {
          "duration": 0.15625,
          "durationTicks": 96,
          "midi": 84,
          "name": "C6",
          "ticks": 92928,
          "time": 151.25,
          "velocity": 0.7874015748031497
        },
        {
          "duration": 0.15625,
          "durationTicks": 96,
          "midi": 89,
          "name": "F6",
          "ticks": 93024,
          "time": 151.40625,
          "velocity": 0.6850393700787402
        },
        {
          "duration": 0.15625,
          "durationTicks": 96,
          "midi": 91,
          "name": "G6",
          "ticks": 93120,
          "time": 151.5625,
          "velocity": 0.7874015748031497
        },
        {
          "duration": 0.15625,
          "durationTicks": 96,
          "midi": 84,
          "name": "C6",
          "ticks": 93216,
          "time": 151.71875,
          "velocity": 0.5905511811023622
        },
        {
          "duration": 0.15625,
          "durationTicks": 96,
          "midi": 89,
          "name": "F6",
          "ticks": 93312,
          "time": 151.875,
          "velocity": 0.7874015748031497
        },
        {
          "duration": 0.15625,
          "durationTicks": 96,
          "midi": 91,
          "name": "G6",
          "ticks": 93408,
          "time": 152.03125,
          "velocity": 0.6850393700787402
        },
        {
          "duration": 0.15625,
          "durationTicks": 96,
          "midi": 84,
          "name": "C6",
          "ticks": 93504,
          "time": 152.1875,
          "velocity": 0.7874015748031497
        },
        {
          "duration": 0.15625,
          "durationTicks": 96,
          "midi": 89,
          "name": "F6",
          "ticks": 93600,
          "time": 152.34375,
          "velocity": 0.5905511811023622
        },
        {
          "duration": 0.15625,
          "durationTicks": 96,
          "midi": 84,
          "name": "C6",
          "ticks": 93696,
          "time": 152.5,
          "velocity": 0.7874015748031497
        },
        {
          "duration": 0.15625,
          "durationTicks": 96,
          "midi": 89,
          "name": "F6",
          "ticks": 93792,
          "time": 152.65625,
          "velocity": 0.6850393700787402
        },
        {
          "duration": 0.15625,
          "durationTicks": 96,
          "midi": 92,
          "name": "G#6",
          "ticks": 93888,
          "time": 152.8125,
          "velocity": 0.7874015748031497
        },
        {
          "duration": 0.15625,
          "durationTicks": 96,
          "midi": 84,
          "name": "C6",
          "ticks": 93984,
          "time": 152.96875,
          "velocity": 0.5905511811023622
        },
        {
          "duration": 0.15625,
          "durationTicks": 96,
          "midi": 89,
          "name": "F6",
          "ticks": 94080,
          "time": 153.125,
          "velocity": 0.7874015748031497
        },
        {
          "duration": 0.15625,
          "durationTicks": 96,
          "midi": 92,
          "name": "G#6",
          "ticks": 94176,
          "time": 153.28125,
          "velocity": 0.6850393700787402
        },
        {
          "duration": 0.15625,
          "durationTicks": 96,
          "midi": 84,
          "name": "C6",
          "ticks": 94272,
          "time": 153.4375,
          "velocity": 0.7874015748031497
        },
        {
          "duration": 0.15625,
          "durationTicks": 96,
          "midi": 89,
          "name": "F6",
          "ticks": 94368,
          "time": 153.59375,
          "velocity": 0.5905511811023622
        },
        {
          "duration": 0.15625,
          "durationTicks": 96,
          "midi": 84,
          "name": "C6",
          "ticks": 94464,
          "time": 153.75,
          "velocity": 0.7874015748031497
        },
        {
          "duration": 0.15625,
          "durationTicks": 96,
          "midi": 89,
          "name": "F6",
          "ticks": 94560,
          "time": 153.90625,
          "velocity": 0.6850393700787402
        },
        {
          "duration": 0.15625,
          "durationTicks": 96,
          "midi": 92,
          "name": "G#6",
          "ticks": 94656,
          "time": 154.0625,
          "velocity": 0.7874015748031497
        },
        {
          "duration": 0.15625,
          "durationTicks": 96,
          "midi": 84,
          "name": "C6",
          "ticks": 94752,
          "time": 154.21875,
          "velocity": 0.5905511811023622
        },
        {
          "duration": 0.15625,
          "durationTicks": 96,
          "midi": 89,
          "name": "F6",
          "ticks": 94848,
          "time": 154.375,
          "velocity": 0.7874015748031497
        },
        {
          "duration": 0.15625,
          "durationTicks": 96,
          "midi": 92,
          "name": "G#6",
          "ticks": 94944,
          "time": 154.53125,
          "velocity": 0.6850393700787402
        },
        {
          "duration": 0.15625,
          "durationTicks": 96,
          "midi": 84,
          "name": "C6",
          "ticks": 95040,
          "time": 154.6875,
          "velocity": 0.7874015748031497
        },
        {
          "duration": 0.15625,
          "durationTicks": 96,
          "midi": 89,
          "name": "F6",
          "ticks": 95136,
          "time": 154.84375,
          "velocity": 0.5905511811023622
        },
        {
          "duration": 0.15625,
          "durationTicks": 96,
          "midi": 84,
          "name": "C6",
          "ticks": 95232,
          "time": 155,
          "velocity": 0.7874015748031497
        },
        {
          "duration": 0.15625,
          "durationTicks": 96,
          "midi": 89,
          "name": "F6",
          "ticks": 95328,
          "time": 155.15625,
          "velocity": 0.6850393700787402
        },
        {
          "duration": 0.15625,
          "durationTicks": 96,
          "midi": 91,
          "name": "G6",
          "ticks": 95424,
          "time": 155.3125,
          "velocity": 0.7874015748031497
        },
        {
          "duration": 0.15625,
          "durationTicks": 96,
          "midi": 84,
          "name": "C6",
          "ticks": 95520,
          "time": 155.46875,
          "velocity": 0.5905511811023622
        },
        {
          "duration": 0.15625,
          "durationTicks": 96,
          "midi": 89,
          "name": "F6",
          "ticks": 95616,
          "time": 155.625,
          "velocity": 0.7874015748031497
        },
        {
          "duration": 0.15625,
          "durationTicks": 96,
          "midi": 91,
          "name": "G6",
          "ticks": 95712,
          "time": 155.78125,
          "velocity": 0.6850393700787402
        },
        {
          "duration": 0.15625,
          "durationTicks": 96,
          "midi": 84,
          "name": "C6",
          "ticks": 95808,
          "time": 155.9375,
          "velocity": 0.7874015748031497
        },
        {
          "duration": 0.15625,
          "durationTicks": 96,
          "midi": 89,
          "name": "F6",
          "ticks": 95904,
          "time": 156.09375,
          "velocity": 0.5905511811023622
        },
        {
          "duration": 0.15625,
          "durationTicks": 96,
          "midi": 84,
          "name": "C6",
          "ticks": 96000,
          "time": 156.25,
          "velocity": 0.7874015748031497
        },
        {
          "duration": 0.15625,
          "durationTicks": 96,
          "midi": 89,
          "name": "F6",
          "ticks": 96096,
          "time": 156.40625,
          "velocity": 0.6850393700787402
        },
        {
          "duration": 0.15625,
          "durationTicks": 96,
          "midi": 91,
          "name": "G6",
          "ticks": 96192,
          "time": 156.5625,
          "velocity": 0.7874015748031497
        },
        {
          "duration": 0.15625,
          "durationTicks": 96,
          "midi": 84,
          "name": "C6",
          "ticks": 96288,
          "time": 156.71875,
          "velocity": 0.5905511811023622
        },
        {
          "duration": 0.15625,
          "durationTicks": 96,
          "midi": 89,
          "name": "F6",
          "ticks": 96384,
          "time": 156.875,
          "velocity": 0.7874015748031497
        },
        {
          "duration": 0.15625,
          "durationTicks": 96,
          "midi": 91,
          "name": "G6",
          "ticks": 96480,
          "time": 157.03125,
          "velocity": 0.6850393700787402
        },
        {
          "duration": 0.15625,
          "durationTicks": 96,
          "midi": 84,
          "name": "C6",
          "ticks": 96576,
          "time": 157.1875,
          "velocity": 0.7874015748031497
        },
        {
          "duration": 0.15625,
          "durationTicks": 96,
          "midi": 89,
          "name": "F6",
          "ticks": 96672,
          "time": 157.34375,
          "velocity": 0.5905511811023622
        },
        {
          "duration": 0.15625,
          "durationTicks": 96,
          "midi": 84,
          "name": "C6",
          "ticks": 96768,
          "time": 157.5,
          "velocity": 0.7874015748031497
        },
        {
          "duration": 0.15625,
          "durationTicks": 96,
          "midi": 89,
          "name": "F6",
          "ticks": 96864,
          "time": 157.65625,
          "velocity": 0.6850393700787402
        },
        {
          "duration": 0.15625,
          "durationTicks": 96,
          "midi": 94,
          "name": "A#6",
          "ticks": 96960,
          "time": 157.8125,
          "velocity": 0.7874015748031497
        },
        {
          "duration": 0.15625,
          "durationTicks": 96,
          "midi": 84,
          "name": "C6",
          "ticks": 97056,
          "time": 157.96875,
          "velocity": 0.5905511811023622
        },
        {
          "duration": 0.15625,
          "durationTicks": 96,
          "midi": 89,
          "name": "F6",
          "ticks": 97152,
          "time": 158.125,
          "velocity": 0.7874015748031497
        },
        {
          "duration": 0.15625,
          "durationTicks": 96,
          "midi": 94,
          "name": "A#6",
          "ticks": 97248,
          "time": 158.28125,
          "velocity": 0.6850393700787402
        },
        {
          "duration": 0.15625,
          "durationTicks": 96,
          "midi": 84,
          "name": "C6",
          "ticks": 97344,
          "time": 158.4375,
          "velocity": 0.7874015748031497
        },
        {
          "duration": 0.15625,
          "durationTicks": 96,
          "midi": 89,
          "name": "F6",
          "ticks": 97440,
          "time": 158.59375,
          "velocity": 0.5905511811023622
        },
        {
          "duration": 0.15625,
          "durationTicks": 96,
          "midi": 84,
          "name": "C6",
          "ticks": 97536,
          "time": 158.75,
          "velocity": 0.7874015748031497
        },
        {
          "duration": 0.15625,
          "durationTicks": 96,
          "midi": 89,
          "name": "F6",
          "ticks": 97632,
          "time": 158.90625,
          "velocity": 0.6850393700787402
        },
        {
          "duration": 0.15625,
          "durationTicks": 96,
          "midi": 94,
          "name": "A#6",
          "ticks": 97728,
          "time": 159.0625,
          "velocity": 0.7874015748031497
        },
        {
          "duration": 0.15625,
          "durationTicks": 96,
          "midi": 84,
          "name": "C6",
          "ticks": 97824,
          "time": 159.21875,
          "velocity": 0.5905511811023622
        },
        {
          "duration": 0.15625,
          "durationTicks": 96,
          "midi": 89,
          "name": "F6",
          "ticks": 97920,
          "time": 159.375,
          "velocity": 0.7874015748031497
        },
        {
          "duration": 0.15625,
          "durationTicks": 96,
          "midi": 94,
          "name": "A#6",
          "ticks": 98016,
          "time": 159.53125,
          "velocity": 0.6850393700787402
        },
        {
          "duration": 0.15625,
          "durationTicks": 96,
          "midi": 92,
          "name": "G#6",
          "ticks": 98112,
          "time": 159.6875,
          "velocity": 0.7874015748031497
        },
        {
          "duration": 0.15625,
          "durationTicks": 96,
          "midi": 91,
          "name": "G6",
          "ticks": 98208,
          "time": 159.84375,
          "velocity": 0.6456692913385826
        },
        {
          "duration": 0.15625,
          "durationTicks": 96,
          "midi": 84,
          "name": "C6",
          "ticks": 98304,
          "time": 160,
          "velocity": 0.7874015748031497
        },
        {
          "duration": 0.15625,
          "durationTicks": 96,
          "midi": 89,
          "name": "F6",
          "ticks": 98400,
          "time": 160.15625,
          "velocity": 0.6850393700787402
        },
        {
          "duration": 0.15625,
          "durationTicks": 96,
          "midi": 91,
          "name": "G6",
          "ticks": 98496,
          "time": 160.3125,
          "velocity": 0.7874015748031497
        },
        {
          "duration": 0.15625,
          "durationTicks": 96,
          "midi": 84,
          "name": "C6",
          "ticks": 98592,
          "time": 160.46875,
          "velocity": 0.6850393700787402
        },
        {
          "duration": 0.15625,
          "durationTicks": 96,
          "midi": 89,
          "name": "F6",
          "ticks": 98688,
          "time": 160.625,
          "velocity": 0.7874015748031497
        },
        {
          "duration": 0.15625,
          "durationTicks": 96,
          "midi": 91,
          "name": "G6",
          "ticks": 98784,
          "time": 160.78125,
          "velocity": 0.6850393700787402
        },
        {
          "duration": 0.15625,
          "durationTicks": 96,
          "midi": 84,
          "name": "C6",
          "ticks": 98880,
          "time": 160.9375,
          "velocity": 0.7874015748031497
        },
        {
          "duration": 0.15625,
          "durationTicks": 96,
          "midi": 89,
          "name": "F6",
          "ticks": 98976,
          "time": 161.09375,
          "velocity": 0.5905511811023622
        },
        {
          "duration": 0.15625,
          "durationTicks": 96,
          "midi": 84,
          "name": "C6",
          "ticks": 99072,
          "time": 161.25,
          "velocity": 0.7874015748031497
        },
        {
          "duration": 0.15625,
          "durationTicks": 96,
          "midi": 89,
          "name": "F6",
          "ticks": 99168,
          "time": 161.40625,
          "velocity": 0.6850393700787402
        },
        {
          "duration": 0.15625,
          "durationTicks": 96,
          "midi": 91,
          "name": "G6",
          "ticks": 99264,
          "time": 161.5625,
          "velocity": 0.7874015748031497
        },
        {
          "duration": 0.15625,
          "durationTicks": 96,
          "midi": 84,
          "name": "C6",
          "ticks": 99360,
          "time": 161.71875,
          "velocity": 0.5905511811023622
        },
        {
          "duration": 0.15625,
          "durationTicks": 96,
          "midi": 89,
          "name": "F6",
          "ticks": 99456,
          "time": 161.875,
          "velocity": 0.7874015748031497
        },
        {
          "duration": 0.15625,
          "durationTicks": 96,
          "midi": 91,
          "name": "G6",
          "ticks": 99552,
          "time": 162.03125,
          "velocity": 0.6850393700787402
        },
        {
          "duration": 0.15625,
          "durationTicks": 96,
          "midi": 84,
          "name": "C6",
          "ticks": 99648,
          "time": 162.1875,
          "velocity": 0.7874015748031497
        },
        {
          "duration": 0.15625,
          "durationTicks": 96,
          "midi": 89,
          "name": "F6",
          "ticks": 99744,
          "time": 162.34375,
          "velocity": 0.5905511811023622
        },
        {
          "duration": 0.15625,
          "durationTicks": 96,
          "midi": 84,
          "name": "C6",
          "ticks": 99840,
          "time": 162.5,
          "velocity": 0.7874015748031497
        },
        {
          "duration": 0.15625,
          "durationTicks": 96,
          "midi": 89,
          "name": "F6",
          "ticks": 99936,
          "time": 162.65625,
          "velocity": 0.6850393700787402
        },
        {
          "duration": 0.15625,
          "durationTicks": 96,
          "midi": 92,
          "name": "G#6",
          "ticks": 100032,
          "time": 162.8125,
          "velocity": 0.7874015748031497
        },
        {
          "duration": 0.15625,
          "durationTicks": 96,
          "midi": 84,
          "name": "C6",
          "ticks": 100128,
          "time": 162.96875,
          "velocity": 0.5905511811023622
        },
        {
          "duration": 0.15625,
          "durationTicks": 96,
          "midi": 89,
          "name": "F6",
          "ticks": 100224,
          "time": 163.125,
          "velocity": 0.7874015748031497
        },
        {
          "duration": 0.15625,
          "durationTicks": 96,
          "midi": 92,
          "name": "G#6",
          "ticks": 100320,
          "time": 163.28125,
          "velocity": 0.6850393700787402
        },
        {
          "duration": 0.15625,
          "durationTicks": 96,
          "midi": 84,
          "name": "C6",
          "ticks": 100416,
          "time": 163.4375,
          "velocity": 0.7874015748031497
        },
        {
          "duration": 0.15625,
          "durationTicks": 96,
          "midi": 89,
          "name": "F6",
          "ticks": 100512,
          "time": 163.59375,
          "velocity": 0.5905511811023622
        },
        {
          "duration": 0.15625,
          "durationTicks": 96,
          "midi": 84,
          "name": "C6",
          "ticks": 100608,
          "time": 163.75,
          "velocity": 0.7874015748031497
        },
        {
          "duration": 0.15625,
          "durationTicks": 96,
          "midi": 89,
          "name": "F6",
          "ticks": 100704,
          "time": 163.90625,
          "velocity": 0.6850393700787402
        },
        {
          "duration": 0.15625,
          "durationTicks": 96,
          "midi": 92,
          "name": "G#6",
          "ticks": 100800,
          "time": 164.0625,
          "velocity": 0.7874015748031497
        },
        {
          "duration": 0.15625,
          "durationTicks": 96,
          "midi": 84,
          "name": "C6",
          "ticks": 100896,
          "time": 164.21875,
          "velocity": 0.5905511811023622
        },
        {
          "duration": 0.15625,
          "durationTicks": 96,
          "midi": 89,
          "name": "F6",
          "ticks": 100992,
          "time": 164.375,
          "velocity": 0.7874015748031497
        },
        {
          "duration": 0.15625,
          "durationTicks": 96,
          "midi": 92,
          "name": "G#6",
          "ticks": 101088,
          "time": 164.53125,
          "velocity": 0.6850393700787402
        },
        {
          "duration": 0.15625,
          "durationTicks": 96,
          "midi": 84,
          "name": "C6",
          "ticks": 101184,
          "time": 164.6875,
          "velocity": 0.7874015748031497
        },
        {
          "duration": 0.15625,
          "durationTicks": 96,
          "midi": 89,
          "name": "F6",
          "ticks": 101280,
          "time": 164.84375,
          "velocity": 0.5905511811023622
        },
        {
          "duration": 0.15625,
          "durationTicks": 96,
          "midi": 84,
          "name": "C6",
          "ticks": 101376,
          "time": 165,
          "velocity": 0.7874015748031497
        },
        {
          "duration": 0.15625,
          "durationTicks": 96,
          "midi": 89,
          "name": "F6",
          "ticks": 101472,
          "time": 165.15625,
          "velocity": 0.6850393700787402
        },
        {
          "duration": 0.15625,
          "durationTicks": 96,
          "midi": 91,
          "name": "G6",
          "ticks": 101568,
          "time": 165.3125,
          "velocity": 0.7874015748031497
        },
        {
          "duration": 0.15625,
          "durationTicks": 96,
          "midi": 84,
          "name": "C6",
          "ticks": 101664,
          "time": 165.46875,
          "velocity": 0.5905511811023622
        },
        {
          "duration": 0.15625,
          "durationTicks": 96,
          "midi": 89,
          "name": "F6",
          "ticks": 101760,
          "time": 165.625,
          "velocity": 0.7874015748031497
        },
        {
          "duration": 0.15625,
          "durationTicks": 96,
          "midi": 91,
          "name": "G6",
          "ticks": 101856,
          "time": 165.78125,
          "velocity": 0.6850393700787402
        },
        {
          "duration": 0.15625,
          "durationTicks": 96,
          "midi": 84,
          "name": "C6",
          "ticks": 101952,
          "time": 165.9375,
          "velocity": 0.7874015748031497
        },
        {
          "duration": 0.15625,
          "durationTicks": 96,
          "midi": 89,
          "name": "F6",
          "ticks": 102048,
          "time": 166.09375,
          "velocity": 0.5905511811023622
        },
        {
          "duration": 0.15625,
          "durationTicks": 96,
          "midi": 84,
          "name": "C6",
          "ticks": 102144,
          "time": 166.25,
          "velocity": 0.7874015748031497
        },
        {
          "duration": 0.15625,
          "durationTicks": 96,
          "midi": 89,
          "name": "F6",
          "ticks": 102240,
          "time": 166.40625,
          "velocity": 0.6850393700787402
        },
        {
          "duration": 0.15625,
          "durationTicks": 96,
          "midi": 91,
          "name": "G6",
          "ticks": 102336,
          "time": 166.5625,
          "velocity": 0.7874015748031497
        },
        {
          "duration": 0.15625,
          "durationTicks": 96,
          "midi": 84,
          "name": "C6",
          "ticks": 102432,
          "time": 166.71875,
          "velocity": 0.5905511811023622
        },
        {
          "duration": 0.15625,
          "durationTicks": 96,
          "midi": 89,
          "name": "F6",
          "ticks": 102528,
          "time": 166.875,
          "velocity": 0.7874015748031497
        },
        {
          "duration": 0.15625,
          "durationTicks": 96,
          "midi": 91,
          "name": "G6",
          "ticks": 102624,
          "time": 167.03125,
          "velocity": 0.6850393700787402
        },
        {
          "duration": 0.15625,
          "durationTicks": 96,
          "midi": 84,
          "name": "C6",
          "ticks": 102720,
          "time": 167.1875,
          "velocity": 0.7874015748031497
        },
        {
          "duration": 0.15625,
          "durationTicks": 96,
          "midi": 89,
          "name": "F6",
          "ticks": 102816,
          "time": 167.34375,
          "velocity": 0.5905511811023622
        },
        {
          "duration": 0.15625,
          "durationTicks": 96,
          "midi": 84,
          "name": "C6",
          "ticks": 102912,
          "time": 167.5,
          "velocity": 0.7874015748031497
        },
        {
          "duration": 0.15625,
          "durationTicks": 96,
          "midi": 89,
          "name": "F6",
          "ticks": 103008,
          "time": 167.65625,
          "velocity": 0.6850393700787402
        },
        {
          "duration": 0.15625,
          "durationTicks": 96,
          "midi": 94,
          "name": "A#6",
          "ticks": 103104,
          "time": 167.8125,
          "velocity": 0.7874015748031497
        },
        {
          "duration": 0.15625,
          "durationTicks": 96,
          "midi": 84,
          "name": "C6",
          "ticks": 103200,
          "time": 167.96875,
          "velocity": 0.5905511811023622
        },
        {
          "duration": 0.15625,
          "durationTicks": 96,
          "midi": 89,
          "name": "F6",
          "ticks": 103296,
          "time": 168.125,
          "velocity": 0.7874015748031497
        },
        {
          "duration": 0.15625,
          "durationTicks": 96,
          "midi": 94,
          "name": "A#6",
          "ticks": 103392,
          "time": 168.28125,
          "velocity": 0.6850393700787402
        },
        {
          "duration": 0.15625,
          "durationTicks": 96,
          "midi": 84,
          "name": "C6",
          "ticks": 103488,
          "time": 168.4375,
          "velocity": 0.7874015748031497
        },
        {
          "duration": 0.15625,
          "durationTicks": 96,
          "midi": 89,
          "name": "F6",
          "ticks": 103584,
          "time": 168.59375,
          "velocity": 0.5905511811023622
        },
        {
          "duration": 0.15625,
          "durationTicks": 96,
          "midi": 84,
          "name": "C6",
          "ticks": 103680,
          "time": 168.75,
          "velocity": 0.7874015748031497
        },
        {
          "duration": 0.15625,
          "durationTicks": 96,
          "midi": 89,
          "name": "F6",
          "ticks": 103776,
          "time": 168.90625,
          "velocity": 0.6850393700787402
        },
        {
          "duration": 0.15625,
          "durationTicks": 96,
          "midi": 94,
          "name": "A#6",
          "ticks": 103872,
          "time": 169.0625,
          "velocity": 0.7874015748031497
        },
        {
          "duration": 0.15625,
          "durationTicks": 96,
          "midi": 84,
          "name": "C6",
          "ticks": 103968,
          "time": 169.21875,
          "velocity": 0.5905511811023622
        },
        {
          "duration": 0.15625,
          "durationTicks": 96,
          "midi": 89,
          "name": "F6",
          "ticks": 104064,
          "time": 169.375,
          "velocity": 0.7874015748031497
        },
        {
          "duration": 0.15625,
          "durationTicks": 96,
          "midi": 94,
          "name": "A#6",
          "ticks": 104160,
          "time": 169.53125,
          "velocity": 0.6850393700787402
        },
        {
          "duration": 0.15625,
          "durationTicks": 96,
          "midi": 92,
          "name": "G#6",
          "ticks": 104256,
          "time": 169.6875,
          "velocity": 0.7874015748031497
        },
        {
          "duration": 0.15625,
          "durationTicks": 96,
          "midi": 91,
          "name": "G6",
          "ticks": 104352,
          "time": 169.84375,
          "velocity": 0.6456692913385826
        },
        {
          "duration": 0.15625,
          "durationTicks": 96,
          "midi": 84,
          "name": "C6",
          "ticks": 104448,
          "time": 170,
          "velocity": 0.7874015748031497
        },
        {
          "duration": 0.15625,
          "durationTicks": 96,
          "midi": 89,
          "name": "F6",
          "ticks": 104544,
          "time": 170.15625,
          "velocity": 0.6850393700787402
        },
        {
          "duration": 0.15625,
          "durationTicks": 96,
          "midi": 91,
          "name": "G6",
          "ticks": 104640,
          "time": 170.3125,
          "velocity": 0.7874015748031497
        },
        {
          "duration": 0.15625,
          "durationTicks": 96,
          "midi": 84,
          "name": "C6",
          "ticks": 104736,
          "time": 170.46875,
          "velocity": 0.6850393700787402
        },
        {
          "duration": 0.15625,
          "durationTicks": 96,
          "midi": 89,
          "name": "F6",
          "ticks": 104832,
          "time": 170.625,
          "velocity": 0.7874015748031497
        },
        {
          "duration": 0.15625,
          "durationTicks": 96,
          "midi": 91,
          "name": "G6",
          "ticks": 104928,
          "time": 170.78125,
          "velocity": 0.6850393700787402
        },
        {
          "duration": 0.15625,
          "durationTicks": 96,
          "midi": 84,
          "name": "C6",
          "ticks": 105024,
          "time": 170.9375,
          "velocity": 0.7874015748031497
        },
        {
          "duration": 0.15625,
          "durationTicks": 96,
          "midi": 89,
          "name": "F6",
          "ticks": 105120,
          "time": 171.09375,
          "velocity": 0.5905511811023622
        },
        {
          "duration": 0.15625,
          "durationTicks": 96,
          "midi": 84,
          "name": "C6",
          "ticks": 105216,
          "time": 171.25,
          "velocity": 0.7874015748031497
        },
        {
          "duration": 0.15625,
          "durationTicks": 96,
          "midi": 89,
          "name": "F6",
          "ticks": 105312,
          "time": 171.40625,
          "velocity": 0.6850393700787402
        },
        {
          "duration": 0.15625,
          "durationTicks": 96,
          "midi": 91,
          "name": "G6",
          "ticks": 105408,
          "time": 171.5625,
          "velocity": 0.7874015748031497
        },
        {
          "duration": 0.15625,
          "durationTicks": 96,
          "midi": 84,
          "name": "C6",
          "ticks": 105504,
          "time": 171.71875,
          "velocity": 0.5905511811023622
        },
        {
          "duration": 0.15625,
          "durationTicks": 96,
          "midi": 89,
          "name": "F6",
          "ticks": 105600,
          "time": 171.875,
          "velocity": 0.7874015748031497
        },
        {
          "duration": 0.15625,
          "durationTicks": 96,
          "midi": 91,
          "name": "G6",
          "ticks": 105696,
          "time": 172.03125,
          "velocity": 0.6850393700787402
        },
        {
          "duration": 0.15625,
          "durationTicks": 96,
          "midi": 84,
          "name": "C6",
          "ticks": 105792,
          "time": 172.1875,
          "velocity": 0.7874015748031497
        },
        {
          "duration": 0.15625,
          "durationTicks": 96,
          "midi": 89,
          "name": "F6",
          "ticks": 105888,
          "time": 172.34375,
          "velocity": 0.5905511811023622
        },
        {
          "duration": 0.15625,
          "durationTicks": 96,
          "midi": 84,
          "name": "C6",
          "ticks": 105984,
          "time": 172.5,
          "velocity": 0.7874015748031497
        },
        {
          "duration": 0.15625,
          "durationTicks": 96,
          "midi": 89,
          "name": "F6",
          "ticks": 106080,
          "time": 172.65625,
          "velocity": 0.6850393700787402
        },
        {
          "duration": 0.15625,
          "durationTicks": 96,
          "midi": 92,
          "name": "G#6",
          "ticks": 106176,
          "time": 172.8125,
          "velocity": 0.7874015748031497
        },
        {
          "duration": 0.15625,
          "durationTicks": 96,
          "midi": 84,
          "name": "C6",
          "ticks": 106272,
          "time": 172.96875,
          "velocity": 0.5905511811023622
        },
        {
          "duration": 0.15625,
          "durationTicks": 96,
          "midi": 89,
          "name": "F6",
          "ticks": 106368,
          "time": 173.125,
          "velocity": 0.7874015748031497
        },
        {
          "duration": 0.15625,
          "durationTicks": 96,
          "midi": 92,
          "name": "G#6",
          "ticks": 106464,
          "time": 173.28125,
          "velocity": 0.6850393700787402
        },
        {
          "duration": 0.15625,
          "durationTicks": 96,
          "midi": 84,
          "name": "C6",
          "ticks": 106560,
          "time": 173.4375,
          "velocity": 0.7874015748031497
        },
        {
          "duration": 0.15625,
          "durationTicks": 96,
          "midi": 89,
          "name": "F6",
          "ticks": 106656,
          "time": 173.59375,
          "velocity": 0.5905511811023622
        },
        {
          "duration": 0.15625,
          "durationTicks": 96,
          "midi": 84,
          "name": "C6",
          "ticks": 106752,
          "time": 173.75,
          "velocity": 0.7874015748031497
        },
        {
          "duration": 0.15625,
          "durationTicks": 96,
          "midi": 89,
          "name": "F6",
          "ticks": 106848,
          "time": 173.90625,
          "velocity": 0.6850393700787402
        },
        {
          "duration": 0.15625,
          "durationTicks": 96,
          "midi": 92,
          "name": "G#6",
          "ticks": 106944,
          "time": 174.0625,
          "velocity": 0.7874015748031497
        },
        {
          "duration": 0.15625,
          "durationTicks": 96,
          "midi": 84,
          "name": "C6",
          "ticks": 107040,
          "time": 174.21875,
          "velocity": 0.5905511811023622
        },
        {
          "duration": 0.15625,
          "durationTicks": 96,
          "midi": 89,
          "name": "F6",
          "ticks": 107136,
          "time": 174.375,
          "velocity": 0.7874015748031497
        },
        {
          "duration": 0.15625,
          "durationTicks": 96,
          "midi": 92,
          "name": "G#6",
          "ticks": 107232,
          "time": 174.53125,
          "velocity": 0.6850393700787402
        },
        {
          "duration": 0.15625,
          "durationTicks": 96,
          "midi": 84,
          "name": "C6",
          "ticks": 107328,
          "time": 174.6875,
          "velocity": 0.7874015748031497
        },
        {
          "duration": 0.15625,
          "durationTicks": 96,
          "midi": 89,
          "name": "F6",
          "ticks": 107424,
          "time": 174.84375,
          "velocity": 0.5905511811023622
        },
        {
          "duration": 0.15625,
          "durationTicks": 96,
          "midi": 84,
          "name": "C6",
          "ticks": 107520,
          "time": 175,
          "velocity": 0.7874015748031497
        },
        {
          "duration": 0.15625,
          "durationTicks": 96,
          "midi": 89,
          "name": "F6",
          "ticks": 107616,
          "time": 175.15625,
          "velocity": 0.6850393700787402
        },
        {
          "duration": 0.15625,
          "durationTicks": 96,
          "midi": 91,
          "name": "G6",
          "ticks": 107712,
          "time": 175.3125,
          "velocity": 0.7874015748031497
        },
        {
          "duration": 0.15625,
          "durationTicks": 96,
          "midi": 84,
          "name": "C6",
          "ticks": 107808,
          "time": 175.46875,
          "velocity": 0.5905511811023622
        },
        {
          "duration": 0.15625,
          "durationTicks": 96,
          "midi": 89,
          "name": "F6",
          "ticks": 107904,
          "time": 175.625,
          "velocity": 0.7874015748031497
        },
        {
          "duration": 0.15625,
          "durationTicks": 96,
          "midi": 91,
          "name": "G6",
          "ticks": 108000,
          "time": 175.78125,
          "velocity": 0.6850393700787402
        },
        {
          "duration": 0.15625,
          "durationTicks": 96,
          "midi": 84,
          "name": "C6",
          "ticks": 108096,
          "time": 175.9375,
          "velocity": 0.7874015748031497
        },
        {
          "duration": 0.15625,
          "durationTicks": 96,
          "midi": 89,
          "name": "F6",
          "ticks": 108192,
          "time": 176.09375,
          "velocity": 0.5905511811023622
        },
        {
          "duration": 0.15625,
          "durationTicks": 96,
          "midi": 84,
          "name": "C6",
          "ticks": 108288,
          "time": 176.25,
          "velocity": 0.7874015748031497
        },
        {
          "duration": 0.15625,
          "durationTicks": 96,
          "midi": 89,
          "name": "F6",
          "ticks": 108384,
          "time": 176.40625,
          "velocity": 0.6850393700787402
        },
        {
          "duration": 0.15625,
          "durationTicks": 96,
          "midi": 91,
          "name": "G6",
          "ticks": 108480,
          "time": 176.5625,
          "velocity": 0.7874015748031497
        },
        {
          "duration": 0.15625,
          "durationTicks": 96,
          "midi": 84,
          "name": "C6",
          "ticks": 108576,
          "time": 176.71875,
          "velocity": 0.5905511811023622
        },
        {
          "duration": 0.15625,
          "durationTicks": 96,
          "midi": 89,
          "name": "F6",
          "ticks": 108672,
          "time": 176.875,
          "velocity": 0.7874015748031497
        },
        {
          "duration": 0.15625,
          "durationTicks": 96,
          "midi": 91,
          "name": "G6",
          "ticks": 108768,
          "time": 177.03125,
          "velocity": 0.6850393700787402
        },
        {
          "duration": 0.15625,
          "durationTicks": 96,
          "midi": 84,
          "name": "C6",
          "ticks": 108864,
          "time": 177.1875,
          "velocity": 0.7874015748031497
        },
        {
          "duration": 0.15625,
          "durationTicks": 96,
          "midi": 89,
          "name": "F6",
          "ticks": 108960,
          "time": 177.34375,
          "velocity": 0.5905511811023622
        },
        {
          "duration": 0.15625,
          "durationTicks": 96,
          "midi": 84,
          "name": "C6",
          "ticks": 109056,
          "time": 177.5,
          "velocity": 0.7874015748031497
        },
        {
          "duration": 0.15625,
          "durationTicks": 96,
          "midi": 89,
          "name": "F6",
          "ticks": 109152,
          "time": 177.65625,
          "velocity": 0.6850393700787402
        },
        {
          "duration": 0.15625,
          "durationTicks": 96,
          "midi": 94,
          "name": "A#6",
          "ticks": 109248,
          "time": 177.8125,
          "velocity": 0.7874015748031497
        },
        {
          "duration": 0.15625,
          "durationTicks": 96,
          "midi": 84,
          "name": "C6",
          "ticks": 109344,
          "time": 177.96875,
          "velocity": 0.5905511811023622
        },
        {
          "duration": 0.15625,
          "durationTicks": 96,
          "midi": 89,
          "name": "F6",
          "ticks": 109440,
          "time": 178.125,
          "velocity": 0.7874015748031497
        },
        {
          "duration": 0.15625,
          "durationTicks": 96,
          "midi": 94,
          "name": "A#6",
          "ticks": 109536,
          "time": 178.28125,
          "velocity": 0.6850393700787402
        },
        {
          "duration": 0.15625,
          "durationTicks": 96,
          "midi": 84,
          "name": "C6",
          "ticks": 109632,
          "time": 178.4375,
          "velocity": 0.7874015748031497
        },
        {
          "duration": 0.15625,
          "durationTicks": 96,
          "midi": 89,
          "name": "F6",
          "ticks": 109728,
          "time": 178.59375,
          "velocity": 0.5905511811023622
        },
        {
          "duration": 0.15625,
          "durationTicks": 96,
          "midi": 84,
          "name": "C6",
          "ticks": 109824,
          "time": 178.75,
          "velocity": 0.7874015748031497
        },
        {
          "duration": 0.15625,
          "durationTicks": 96,
          "midi": 89,
          "name": "F6",
          "ticks": 109920,
          "time": 178.90625,
          "velocity": 0.6850393700787402
        },
        {
          "duration": 0.15625,
          "durationTicks": 96,
          "midi": 94,
          "name": "A#6",
          "ticks": 110016,
          "time": 179.0625,
          "velocity": 0.7874015748031497
        },
        {
          "duration": 0.15625,
          "durationTicks": 96,
          "midi": 84,
          "name": "C6",
          "ticks": 110112,
          "time": 179.21875,
          "velocity": 0.5905511811023622
        },
        {
          "duration": 0.15625,
          "durationTicks": 96,
          "midi": 89,
          "name": "F6",
          "ticks": 110208,
          "time": 179.375,
          "velocity": 0.7874015748031497
        },
        {
          "duration": 0.15625,
          "durationTicks": 96,
          "midi": 94,
          "name": "A#6",
          "ticks": 110304,
          "time": 179.53125,
          "velocity": 0.6850393700787402
        },
        {
          "duration": 0.15625,
          "durationTicks": 96,
          "midi": 92,
          "name": "G#6",
          "ticks": 110400,
          "time": 179.6875,
          "velocity": 0.7874015748031497
        },
        {
          "duration": 0.15625,
          "durationTicks": 96,
          "midi": 91,
          "name": "G6",
          "ticks": 110496,
          "time": 179.84375,
          "velocity": 0.6456692913385826
        },
        {
          "duration": 0.15625,
          "durationTicks": 96,
          "midi": 84,
          "name": "C6",
          "ticks": 110592,
          "time": 180,
          "velocity": 0.7874015748031497
        },
        {
          "duration": 0.15625,
          "durationTicks": 96,
          "midi": 89,
          "name": "F6",
          "ticks": 110688,
          "time": 180.15625,
          "velocity": 0.6850393700787402
        },
        {
          "duration": 0.15625,
          "durationTicks": 96,
          "midi": 91,
          "name": "G6",
          "ticks": 110784,
          "time": 180.3125,
          "velocity": 0.7874015748031497
        },
        {
          "duration": 0.15625,
          "durationTicks": 96,
          "midi": 84,
          "name": "C6",
          "ticks": 110880,
          "time": 180.46875,
          "velocity": 0.6850393700787402
        },
        {
          "duration": 0.15625,
          "durationTicks": 96,
          "midi": 89,
          "name": "F6",
          "ticks": 110976,
          "time": 180.625,
          "velocity": 0.7874015748031497
        },
        {
          "duration": 0.15625,
          "durationTicks": 96,
          "midi": 91,
          "name": "G6",
          "ticks": 111072,
          "time": 180.78125,
          "velocity": 0.6850393700787402
        },
        {
          "duration": 0.15625,
          "durationTicks": 96,
          "midi": 84,
          "name": "C6",
          "ticks": 111168,
          "time": 180.9375,
          "velocity": 0.7874015748031497
        },
        {
          "duration": 0.15625,
          "durationTicks": 96,
          "midi": 89,
          "name": "F6",
          "ticks": 111264,
          "time": 181.09375,
          "velocity": 0.5905511811023622
        },
        {
          "duration": 0.15625,
          "durationTicks": 96,
          "midi": 84,
          "name": "C6",
          "ticks": 111360,
          "time": 181.25,
          "velocity": 0.7874015748031497
        },
        {
          "duration": 0.15625,
          "durationTicks": 96,
          "midi": 89,
          "name": "F6",
          "ticks": 111456,
          "time": 181.40625,
          "velocity": 0.6850393700787402
        },
        {
          "duration": 0.15625,
          "durationTicks": 96,
          "midi": 91,
          "name": "G6",
          "ticks": 111552,
          "time": 181.5625,
          "velocity": 0.7874015748031497
        },
        {
          "duration": 0.15625,
          "durationTicks": 96,
          "midi": 84,
          "name": "C6",
          "ticks": 111648,
          "time": 181.71875,
          "velocity": 0.5905511811023622
        },
        {
          "duration": 0.15625,
          "durationTicks": 96,
          "midi": 89,
          "name": "F6",
          "ticks": 111744,
          "time": 181.875,
          "velocity": 0.7874015748031497
        },
        {
          "duration": 0.15625,
          "durationTicks": 96,
          "midi": 91,
          "name": "G6",
          "ticks": 111840,
          "time": 182.03125,
          "velocity": 0.6850393700787402
        },
        {
          "duration": 0.15625,
          "durationTicks": 96,
          "midi": 84,
          "name": "C6",
          "ticks": 111936,
          "time": 182.1875,
          "velocity": 0.7874015748031497
        },
        {
          "duration": 0.15625,
          "durationTicks": 96,
          "midi": 89,
          "name": "F6",
          "ticks": 112032,
          "time": 182.34375,
          "velocity": 0.5905511811023622
        },
        {
          "duration": 0.15625,
          "durationTicks": 96,
          "midi": 84,
          "name": "C6",
          "ticks": 112128,
          "time": 182.5,
          "velocity": 0.7874015748031497
        },
        {
          "duration": 0.15625,
          "durationTicks": 96,
          "midi": 89,
          "name": "F6",
          "ticks": 112224,
          "time": 182.65625,
          "velocity": 0.6850393700787402
        },
        {
          "duration": 0.15625,
          "durationTicks": 96,
          "midi": 92,
          "name": "G#6",
          "ticks": 112320,
          "time": 182.8125,
          "velocity": 0.7874015748031497
        },
        {
          "duration": 0.15625,
          "durationTicks": 96,
          "midi": 84,
          "name": "C6",
          "ticks": 112416,
          "time": 182.96875,
          "velocity": 0.5905511811023622
        },
        {
          "duration": 0.15625,
          "durationTicks": 96,
          "midi": 89,
          "name": "F6",
          "ticks": 112512,
          "time": 183.125,
          "velocity": 0.7874015748031497
        },
        {
          "duration": 0.15625,
          "durationTicks": 96,
          "midi": 92,
          "name": "G#6",
          "ticks": 112608,
          "time": 183.28125,
          "velocity": 0.6850393700787402
        },
        {
          "duration": 0.15625,
          "durationTicks": 96,
          "midi": 84,
          "name": "C6",
          "ticks": 112704,
          "time": 183.4375,
          "velocity": 0.7874015748031497
        },
        {
          "duration": 0.15625,
          "durationTicks": 96,
          "midi": 89,
          "name": "F6",
          "ticks": 112800,
          "time": 183.59375,
          "velocity": 0.5905511811023622
        },
        {
          "duration": 0.15625,
          "durationTicks": 96,
          "midi": 84,
          "name": "C6",
          "ticks": 112896,
          "time": 183.75,
          "velocity": 0.7874015748031497
        },
        {
          "duration": 0.15625,
          "durationTicks": 96,
          "midi": 89,
          "name": "F6",
          "ticks": 112992,
          "time": 183.90625,
          "velocity": 0.6850393700787402
        },
        {
          "duration": 0.15625,
          "durationTicks": 96,
          "midi": 92,
          "name": "G#6",
          "ticks": 113088,
          "time": 184.0625,
          "velocity": 0.7874015748031497
        },
        {
          "duration": 0.15625,
          "durationTicks": 96,
          "midi": 84,
          "name": "C6",
          "ticks": 113184,
          "time": 184.21875,
          "velocity": 0.5905511811023622
        },
        {
          "duration": 0.15625,
          "durationTicks": 96,
          "midi": 89,
          "name": "F6",
          "ticks": 113280,
          "time": 184.375,
          "velocity": 0.7874015748031497
        },
        {
          "duration": 0.15625,
          "durationTicks": 96,
          "midi": 92,
          "name": "G#6",
          "ticks": 113376,
          "time": 184.53125,
          "velocity": 0.6850393700787402
        },
        {
          "duration": 0.15625,
          "durationTicks": 96,
          "midi": 84,
          "name": "C6",
          "ticks": 113472,
          "time": 184.6875,
          "velocity": 0.7874015748031497
        },
        {
          "duration": 0.15625,
          "durationTicks": 96,
          "midi": 89,
          "name": "F6",
          "ticks": 113568,
          "time": 184.84375,
          "velocity": 0.5905511811023622
        },
        {
          "duration": 0.15625,
          "durationTicks": 96,
          "midi": 84,
          "name": "C6",
          "ticks": 113664,
          "time": 185,
          "velocity": 0.7874015748031497
        },
        {
          "duration": 0.15625,
          "durationTicks": 96,
          "midi": 89,
          "name": "F6",
          "ticks": 113760,
          "time": 185.15625,
          "velocity": 0.6850393700787402
        },
        {
          "duration": 0.15625,
          "durationTicks": 96,
          "midi": 91,
          "name": "G6",
          "ticks": 113856,
          "time": 185.3125,
          "velocity": 0.7874015748031497
        },
        {
          "duration": 0.15625,
          "durationTicks": 96,
          "midi": 84,
          "name": "C6",
          "ticks": 113952,
          "time": 185.46875,
          "velocity": 0.5905511811023622
        },
        {
          "duration": 0.15625,
          "durationTicks": 96,
          "midi": 89,
          "name": "F6",
          "ticks": 114048,
          "time": 185.625,
          "velocity": 0.7874015748031497
        },
        {
          "duration": 0.15625,
          "durationTicks": 96,
          "midi": 91,
          "name": "G6",
          "ticks": 114144,
          "time": 185.78125,
          "velocity": 0.6850393700787402
        },
        {
          "duration": 0.15625,
          "durationTicks": 96,
          "midi": 84,
          "name": "C6",
          "ticks": 114240,
          "time": 185.9375,
          "velocity": 0.7874015748031497
        },
        {
          "duration": 0.15625,
          "durationTicks": 96,
          "midi": 89,
          "name": "F6",
          "ticks": 114336,
          "time": 186.09375,
          "velocity": 0.5905511811023622
        },
        {
          "duration": 0.15625,
          "durationTicks": 96,
          "midi": 84,
          "name": "C6",
          "ticks": 114432,
          "time": 186.25,
          "velocity": 0.7874015748031497
        },
        {
          "duration": 0.15625,
          "durationTicks": 96,
          "midi": 89,
          "name": "F6",
          "ticks": 114528,
          "time": 186.40625,
          "velocity": 0.6850393700787402
        },
        {
          "duration": 0.15625,
          "durationTicks": 96,
          "midi": 91,
          "name": "G6",
          "ticks": 114624,
          "time": 186.5625,
          "velocity": 0.7874015748031497
        },
        {
          "duration": 0.15625,
          "durationTicks": 96,
          "midi": 84,
          "name": "C6",
          "ticks": 114720,
          "time": 186.71875,
          "velocity": 0.5905511811023622
        },
        {
          "duration": 0.15625,
          "durationTicks": 96,
          "midi": 89,
          "name": "F6",
          "ticks": 114816,
          "time": 186.875,
          "velocity": 0.7874015748031497
        },
        {
          "duration": 0.15625,
          "durationTicks": 96,
          "midi": 91,
          "name": "G6",
          "ticks": 114912,
          "time": 187.03125,
          "velocity": 0.6850393700787402
        },
        {
          "duration": 0.15625,
          "durationTicks": 96,
          "midi": 84,
          "name": "C6",
          "ticks": 115008,
          "time": 187.1875,
          "velocity": 0.7874015748031497
        },
        {
          "duration": 0.15625,
          "durationTicks": 96,
          "midi": 89,
          "name": "F6",
          "ticks": 115104,
          "time": 187.34375,
          "velocity": 0.5905511811023622
        },
        {
          "duration": 0.15625,
          "durationTicks": 96,
          "midi": 84,
          "name": "C6",
          "ticks": 115200,
          "time": 187.5,
          "velocity": 0.7874015748031497
        },
        {
          "duration": 0.15625,
          "durationTicks": 96,
          "midi": 89,
          "name": "F6",
          "ticks": 115296,
          "time": 187.65625,
          "velocity": 0.6850393700787402
        },
        {
          "duration": 0.15625,
          "durationTicks": 96,
          "midi": 94,
          "name": "A#6",
          "ticks": 115392,
          "time": 187.8125,
          "velocity": 0.7874015748031497
        },
        {
          "duration": 0.15625,
          "durationTicks": 96,
          "midi": 84,
          "name": "C6",
          "ticks": 115488,
          "time": 187.96875,
          "velocity": 0.5905511811023622
        },
        {
          "duration": 0.15625,
          "durationTicks": 96,
          "midi": 89,
          "name": "F6",
          "ticks": 115584,
          "time": 188.125,
          "velocity": 0.7874015748031497
        },
        {
          "duration": 0.15625,
          "durationTicks": 96,
          "midi": 94,
          "name": "A#6",
          "ticks": 115680,
          "time": 188.28125,
          "velocity": 0.6850393700787402
        },
        {
          "duration": 0.15625,
          "durationTicks": 96,
          "midi": 84,
          "name": "C6",
          "ticks": 115776,
          "time": 188.4375,
          "velocity": 0.7874015748031497
        },
        {
          "duration": 0.15625,
          "durationTicks": 96,
          "midi": 89,
          "name": "F6",
          "ticks": 115872,
          "time": 188.59375,
          "velocity": 0.5905511811023622
        },
        {
          "duration": 0.15625,
          "durationTicks": 96,
          "midi": 84,
          "name": "C6",
          "ticks": 115968,
          "time": 188.75,
          "velocity": 0.7874015748031497
        },
        {
          "duration": 0.15625,
          "durationTicks": 96,
          "midi": 89,
          "name": "F6",
          "ticks": 116064,
          "time": 188.90625,
          "velocity": 0.6850393700787402
        },
        {
          "duration": 0.15625,
          "durationTicks": 96,
          "midi": 94,
          "name": "A#6",
          "ticks": 116160,
          "time": 189.0625,
          "velocity": 0.7874015748031497
        },
        {
          "duration": 0.15625,
          "durationTicks": 96,
          "midi": 84,
          "name": "C6",
          "ticks": 116256,
          "time": 189.21875,
          "velocity": 0.5905511811023622
        },
        {
          "duration": 0.15625,
          "durationTicks": 96,
          "midi": 89,
          "name": "F6",
          "ticks": 116352,
          "time": 189.375,
          "velocity": 0.7874015748031497
        },
        {
          "duration": 0.15625,
          "durationTicks": 96,
          "midi": 94,
          "name": "A#6",
          "ticks": 116448,
          "time": 189.53125,
          "velocity": 0.6850393700787402
        },
        {
          "duration": 0.15625,
          "durationTicks": 96,
          "midi": 92,
          "name": "G#6",
          "ticks": 116544,
          "time": 189.6875,
          "velocity": 0.7874015748031497
        },
        {
          "duration": 0.15625,
          "durationTicks": 96,
          "midi": 91,
          "name": "G6",
          "ticks": 116640,
          "time": 189.84375,
          "velocity": 0.6456692913385826
        },
        {
          "duration": 0.15625,
          "durationTicks": 96,
          "midi": 84,
          "name": "C6",
          "ticks": 116736,
          "time": 190,
          "velocity": 0.7874015748031497
        },
        {
          "duration": 0.15625,
          "durationTicks": 96,
          "midi": 89,
          "name": "F6",
          "ticks": 116832,
          "time": 190.15625,
          "velocity": 0.6850393700787402
        },
        {
          "duration": 0.15625,
          "durationTicks": 96,
          "midi": 91,
          "name": "G6",
          "ticks": 116928,
          "time": 190.3125,
          "velocity": 0.7874015748031497
        },
        {
          "duration": 0.15625,
          "durationTicks": 96,
          "midi": 84,
          "name": "C6",
          "ticks": 117024,
          "time": 190.46875,
          "velocity": 0.6850393700787402
        },
        {
          "duration": 0.15625,
          "durationTicks": 96,
          "midi": 89,
          "name": "F6",
          "ticks": 117408,
          "time": 191.09375,
          "velocity": 0.7874015748031497
        },
        {
          "duration": 0.15625,
          "durationTicks": 96,
          "midi": 91,
          "name": "G6",
          "ticks": 117504,
          "time": 191.25,
          "velocity": 0.6456692913385826
        },
        {
          "duration": 0.15625,
          "durationTicks": 96,
          "midi": 84,
          "name": "C6",
          "ticks": 119808,
          "time": 195,
          "velocity": 0.7874015748031497
        },
        {
          "duration": 0.15625,
          "durationTicks": 96,
          "midi": 89,
          "name": "F6",
          "ticks": 119904,
          "time": 195.15625,
          "velocity": 0.6850393700787402
        },
        {
          "duration": 0.15625,
          "durationTicks": 96,
          "midi": 91,
          "name": "G6",
          "ticks": 120000,
          "time": 195.3125,
          "velocity": 0.7874015748031497
        },
        {
          "duration": 0.15625,
          "durationTicks": 96,
          "midi": 84,
          "name": "C6",
          "ticks": 120096,
          "time": 195.46875,
          "velocity": 0.6850393700787402
        },
        {
          "duration": 0.15625,
          "durationTicks": 96,
          "midi": 89,
          "name": "F6",
          "ticks": 120480,
          "time": 196.09375,
          "velocity": 0.7874015748031497
        },
        {
          "duration": 0.15625,
          "durationTicks": 96,
          "midi": 94,
          "name": "A#6",
          "ticks": 120576,
          "time": 196.25,
          "velocity": 0.6456692913385826
        },
        {
          "duration": 0.15625,
          "durationTicks": 96,
          "midi": 92,
          "name": "G#6",
          "ticks": 120960,
          "time": 196.875,
          "velocity": 0.7874015748031497
        },
        {
          "duration": 0.15625,
          "durationTicks": 96,
          "midi": 91,
          "name": "G6",
          "ticks": 121248,
          "time": 197.34375,
          "velocity": 0.5905511811023622
        },
        {
          "duration": 0.15625,
          "durationTicks": 96,
          "midi": 89,
          "name": "F6",
          "ticks": 121536,
          "time": 197.8125,
          "velocity": 0.7874015748031497
        },
        {
          "duration": 0.15625,
          "durationTicks": 96,
          "midi": 87,
          "name": "D#6",
          "ticks": 121728,
          "time": 198.125,
          "velocity": 0.6062992125984252
        },
        {
          "duration": 0.15625,
          "durationTicks": 96,
          "midi": 85,
          "name": "C#6",
          "ticks": 122016,
          "time": 198.59375,
          "velocity": 0.7874015748031497
        },
        {
          "duration": 0.15625,
          "durationTicks": 96,
          "midi": 84,
          "name": "C6",
          "ticks": 122304,
          "time": 199.0625,
          "velocity": 0.6141732283464567
        },
        {
          "duration": 0.15625,
          "durationTicks": 96,
          "midi": 82,
          "name": "A#5",
          "ticks": 122496,
          "time": 199.375,
          "velocity": 0.7874015748031497
        },
        {
          "duration": 0.15625,
          "durationTicks": 96,
          "midi": 80,
          "name": "G#5",
          "ticks": 122592,
          "time": 199.53125,
          "velocity": 0.6456692913385826
        },
        {
          "duration": 0.15625,
          "durationTicks": 96,
          "midi": 79,
          "name": "G5",
          "ticks": 122688,
          "time": 199.6875,
          "velocity": 0.7874015748031497
        },
        {
          "duration": 0.15625,
          "durationTicks": 96,
          "midi": 84,
          "name": "C6",
          "ticks": 122880,
          "time": 200,
          "velocity": 0.7874015748031497
        },
        {
          "duration": 0.15625,
          "durationTicks": 96,
          "midi": 89,
          "name": "F6",
          "ticks": 122976,
          "time": 200.15625,
          "velocity": 0.6850393700787402
        },
        {
          "duration": 0.15625,
          "durationTicks": 96,
          "midi": 91,
          "name": "G6",
          "ticks": 123072,
          "time": 200.3125,
          "velocity": 0.7874015748031497
        },
        {
          "duration": 0.15625,
          "durationTicks": 96,
          "midi": 84,
          "name": "C6",
          "ticks": 123168,
          "time": 200.46875,
          "velocity": 0.6850393700787402
        },
        {
          "duration": 0.15625,
          "durationTicks": 96,
          "midi": 92,
          "name": "G#6",
          "ticks": 139776,
          "time": 227.5,
          "velocity": 0.7874015748031497
        },
        {
          "duration": 0.15625,
          "durationTicks": 96,
          "midi": 91,
          "name": "G6",
          "ticks": 139872,
          "time": 227.65625,
          "velocity": 0.6850393700787402
        },
        {
          "duration": 0.15625,
          "durationTicks": 96,
          "midi": 89,
          "name": "F6",
          "ticks": 139968,
          "time": 227.8125,
          "velocity": 0.7874015748031497
        },
        {
          "duration": 0.15625,
          "durationTicks": 96,
          "midi": 87,
          "name": "D#6",
          "ticks": 140064,
          "time": 227.96875,
          "velocity": 0.5905511811023622
        },
        {
          "duration": 0.15625,
          "durationTicks": 96,
          "midi": 85,
          "name": "C#6",
          "ticks": 140160,
          "time": 228.125,
          "velocity": 0.7874015748031497
        },
        {
          "duration": 0.15625,
          "durationTicks": 96,
          "midi": 84,
          "name": "C6",
          "ticks": 140256,
          "time": 228.28125,
          "velocity": 0.6850393700787402
        },
        {
          "duration": 0.15625,
          "durationTicks": 96,
          "midi": 82,
          "name": "A#5",
          "ticks": 140352,
          "time": 228.4375,
          "velocity": 0.7874015748031497
        },
        {
          "duration": 0.15625,
          "durationTicks": 96,
          "midi": 80,
          "name": "G#5",
          "ticks": 140448,
          "time": 228.59375,
          "velocity": 0.5905511811023622
        },
        {
          "duration": 0.15625,
          "durationTicks": 96,
          "midi": 79,
          "name": "G5",
          "ticks": 140544,
          "time": 228.75,
          "velocity": 0.7874015748031497
        },
        {
          "duration": 0.15625,
          "durationTicks": 96,
          "midi": 77,
          "name": "F5",
          "ticks": 140640,
          "time": 228.90625,
          "velocity": 0.6850393700787402
        },
        {
          "duration": 0.15625,
          "durationTicks": 96,
          "midi": 75,
          "name": "D#5",
          "ticks": 140736,
          "time": 229.0625,
          "velocity": 0.7874015748031497
        },
        {
          "duration": 0.15625,
          "durationTicks": 96,
          "midi": 73,
          "name": "C#5",
          "ticks": 140832,
          "time": 229.21875,
          "velocity": 0.5905511811023622
        },
        {
          "duration": 0.15625,
          "durationTicks": 96,
          "midi": 72,
          "name": "C5",
          "ticks": 140928,
          "time": 229.375,
          "velocity": 0.7874015748031497
        },
        {
          "duration": 0.15625,
          "durationTicks": 96,
          "midi": 70,
          "name": "A#4",
          "ticks": 141024,
          "time": 229.53125,
          "velocity": 0.6850393700787402
        },
        {
          "duration": 0.15625,
          "durationTicks": 96,
          "midi": 68,
          "name": "G#4",
          "ticks": 141120,
          "time": 229.6875,
          "velocity": 0.7165354330708661
        },
        {
          "duration": 0.15625,
          "durationTicks": 96,
          "midi": 75,
          "name": "D#5",
          "ticks": 141216,
          "time": 229.84375,
          "velocity": 0.6456692913385826
        },
        {
          "duration": 0.15625,
          "durationTicks": 96,
          "midi": 84,
          "name": "C6",
          "ticks": 141312,
          "time": 230,
          "velocity": 0.7874015748031497
        },
        {
          "duration": 0.15625,
          "durationTicks": 96,
          "midi": 89,
          "name": "F6",
          "ticks": 141408,
          "time": 230.15625,
          "velocity": 0.6850393700787402
        },
        {
          "duration": 0.15625,
          "durationTicks": 96,
          "midi": 91,
          "name": "G6",
          "ticks": 141504,
          "time": 230.3125,
          "velocity": 0.7874015748031497
        },
        {
          "duration": 0.15625,
          "durationTicks": 96,
          "midi": 84,
          "name": "C6",
          "ticks": 141600,
          "time": 230.46875,
          "velocity": 0.6850393700787402
        },
        {
          "duration": 0.15625,
          "durationTicks": 96,
          "midi": 89,
          "name": "F6",
          "ticks": 141696,
          "time": 230.625,
          "velocity": 0.7874015748031497
        },
        {
          "duration": 0.15625,
          "durationTicks": 96,
          "midi": 91,
          "name": "G6",
          "ticks": 141792,
          "time": 230.78125,
          "velocity": 0.6850393700787402
        },
        {
          "duration": 0.15625,
          "durationTicks": 96,
          "midi": 84,
          "name": "C6",
          "ticks": 141888,
          "time": 230.9375,
          "velocity": 0.7874015748031497
        },
        {
          "duration": 0.15625,
          "durationTicks": 96,
          "midi": 89,
          "name": "F6",
          "ticks": 141984,
          "time": 231.09375,
          "velocity": 0.5905511811023622
        },
        {
          "duration": 0.15625,
          "durationTicks": 96,
          "midi": 84,
          "name": "C6",
          "ticks": 142080,
          "time": 231.25,
          "velocity": 0.7874015748031497
        },
        {
          "duration": 0.15625,
          "durationTicks": 96,
          "midi": 89,
          "name": "F6",
          "ticks": 142176,
          "time": 231.40625,
          "velocity": 0.6850393700787402
        },
        {
          "duration": 0.15625,
          "durationTicks": 96,
          "midi": 91,
          "name": "G6",
          "ticks": 142272,
          "time": 231.5625,
          "velocity": 0.7874015748031497
        },
        {
          "duration": 0.15625,
          "durationTicks": 96,
          "midi": 84,
          "name": "C6",
          "ticks": 142368,
          "time": 231.71875,
          "velocity": 0.5905511811023622
        },
        {
          "duration": 0.15625,
          "durationTicks": 96,
          "midi": 89,
          "name": "F6",
          "ticks": 142464,
          "time": 231.875,
          "velocity": 0.7874015748031497
        },
        {
          "duration": 0.15625,
          "durationTicks": 96,
          "midi": 91,
          "name": "G6",
          "ticks": 142560,
          "time": 232.03125,
          "velocity": 0.6850393700787402
        },
        {
          "duration": 0.15625,
          "durationTicks": 96,
          "midi": 84,
          "name": "C6",
          "ticks": 142656,
          "time": 232.1875,
          "velocity": 0.7874015748031497
        },
        {
          "duration": 0.15625,
          "durationTicks": 96,
          "midi": 89,
          "name": "F6",
          "ticks": 142752,
          "time": 232.34375,
          "velocity": 0.5905511811023622
        },
        {
          "duration": 0.15625,
          "durationTicks": 96,
          "midi": 84,
          "name": "C6",
          "ticks": 142848,
          "time": 232.5,
          "velocity": 0.7874015748031497
        },
        {
          "duration": 0.15625,
          "durationTicks": 96,
          "midi": 89,
          "name": "F6",
          "ticks": 142944,
          "time": 232.65625,
          "velocity": 0.6850393700787402
        },
        {
          "duration": 0.15625,
          "durationTicks": 96,
          "midi": 92,
          "name": "G#6",
          "ticks": 143040,
          "time": 232.8125,
          "velocity": 0.7874015748031497
        },
        {
          "duration": 0.15625,
          "durationTicks": 96,
          "midi": 84,
          "name": "C6",
          "ticks": 143136,
          "time": 232.96875,
          "velocity": 0.5905511811023622
        },
        {
          "duration": 0.15625,
          "durationTicks": 96,
          "midi": 89,
          "name": "F6",
          "ticks": 143232,
          "time": 233.125,
          "velocity": 0.7874015748031497
        },
        {
          "duration": 0.15625,
          "durationTicks": 96,
          "midi": 92,
          "name": "G#6",
          "ticks": 143328,
          "time": 233.28125,
          "velocity": 0.6850393700787402
        },
        {
          "duration": 0.15625,
          "durationTicks": 96,
          "midi": 84,
          "name": "C6",
          "ticks": 143424,
          "time": 233.4375,
          "velocity": 0.7874015748031497
        },
        {
          "duration": 0.15625,
          "durationTicks": 96,
          "midi": 89,
          "name": "F6",
          "ticks": 143520,
          "time": 233.59375,
          "velocity": 0.5905511811023622
        },
        {
          "duration": 0.15625,
          "durationTicks": 96,
          "midi": 84,
          "name": "C6",
          "ticks": 143616,
          "time": 233.75,
          "velocity": 0.7874015748031497
        },
        {
          "duration": 0.15625,
          "durationTicks": 96,
          "midi": 89,
          "name": "F6",
          "ticks": 143712,
          "time": 233.90625,
          "velocity": 0.6850393700787402
        },
        {
          "duration": 0.15625,
          "durationTicks": 96,
          "midi": 92,
          "name": "G#6",
          "ticks": 143808,
          "time": 234.0625,
          "velocity": 0.7874015748031497
        },
        {
          "duration": 0.15625,
          "durationTicks": 96,
          "midi": 84,
          "name": "C6",
          "ticks": 143904,
          "time": 234.21875,
          "velocity": 0.5905511811023622
        },
        {
          "duration": 0.15625,
          "durationTicks": 96,
          "midi": 89,
          "name": "F6",
          "ticks": 144000,
          "time": 234.375,
          "velocity": 0.7874015748031497
        },
        {
          "duration": 0.15625,
          "durationTicks": 96,
          "midi": 92,
          "name": "G#6",
          "ticks": 144096,
          "time": 234.53125,
          "velocity": 0.6850393700787402
        },
        {
          "duration": 0.15625,
          "durationTicks": 96,
          "midi": 84,
          "name": "C6",
          "ticks": 144192,
          "time": 234.6875,
          "velocity": 0.7874015748031497
        },
        {
          "duration": 0.15625,
          "durationTicks": 96,
          "midi": 89,
          "name": "F6",
          "ticks": 144288,
          "time": 234.84375,
          "velocity": 0.5905511811023622
        },
        {
          "duration": 0.15625,
          "durationTicks": 96,
          "midi": 84,
          "name": "C6",
          "ticks": 144384,
          "time": 235,
          "velocity": 0.7874015748031497
        },
        {
          "duration": 0.15625,
          "durationTicks": 96,
          "midi": 89,
          "name": "F6",
          "ticks": 144480,
          "time": 235.15625,
          "velocity": 0.6850393700787402
        },
        {
          "duration": 0.15625,
          "durationTicks": 96,
          "midi": 91,
          "name": "G6",
          "ticks": 144576,
          "time": 235.3125,
          "velocity": 0.7874015748031497
        },
        {
          "duration": 0.15625,
          "durationTicks": 96,
          "midi": 84,
          "name": "C6",
          "ticks": 144672,
          "time": 235.46875,
          "velocity": 0.5905511811023622
        },
        {
          "duration": 0.15625,
          "durationTicks": 96,
          "midi": 89,
          "name": "F6",
          "ticks": 144768,
          "time": 235.625,
          "velocity": 0.7874015748031497
        },
        {
          "duration": 0.15625,
          "durationTicks": 96,
          "midi": 91,
          "name": "G6",
          "ticks": 144864,
          "time": 235.78125,
          "velocity": 0.6850393700787402
        },
        {
          "duration": 0.15625,
          "durationTicks": 96,
          "midi": 84,
          "name": "C6",
          "ticks": 144960,
          "time": 235.9375,
          "velocity": 0.7874015748031497
        },
        {
          "duration": 0.15625,
          "durationTicks": 96,
          "midi": 89,
          "name": "F6",
          "ticks": 145056,
          "time": 236.09375,
          "velocity": 0.5905511811023622
        },
        {
          "duration": 0.15625,
          "durationTicks": 96,
          "midi": 84,
          "name": "C6",
          "ticks": 145152,
          "time": 236.25,
          "velocity": 0.7874015748031497
        },
        {
          "duration": 0.15625,
          "durationTicks": 96,
          "midi": 89,
          "name": "F6",
          "ticks": 145248,
          "time": 236.40625,
          "velocity": 0.6850393700787402
        },
        {
          "duration": 0.15625,
          "durationTicks": 96,
          "midi": 91,
          "name": "G6",
          "ticks": 145344,
          "time": 236.5625,
          "velocity": 0.7874015748031497
        },
        {
          "duration": 0.15625,
          "durationTicks": 96,
          "midi": 84,
          "name": "C6",
          "ticks": 145440,
          "time": 236.71875,
          "velocity": 0.5905511811023622
        },
        {
          "duration": 0.15625,
          "durationTicks": 96,
          "midi": 89,
          "name": "F6",
          "ticks": 145536,
          "time": 236.875,
          "velocity": 0.7874015748031497
        },
        {
          "duration": 0.15625,
          "durationTicks": 96,
          "midi": 91,
          "name": "G6",
          "ticks": 145632,
          "time": 237.03125,
          "velocity": 0.6850393700787402
        },
        {
          "duration": 0.15625,
          "durationTicks": 96,
          "midi": 84,
          "name": "C6",
          "ticks": 145728,
          "time": 237.1875,
          "velocity": 0.7874015748031497
        },
        {
          "duration": 0.15625,
          "durationTicks": 96,
          "midi": 89,
          "name": "F6",
          "ticks": 145824,
          "time": 237.34375,
          "velocity": 0.5905511811023622
        },
        {
          "duration": 0.15625,
          "durationTicks": 96,
          "midi": 84,
          "name": "C6",
          "ticks": 145920,
          "time": 237.5,
          "velocity": 0.7874015748031497
        },
        {
          "duration": 0.15625,
          "durationTicks": 96,
          "midi": 89,
          "name": "F6",
          "ticks": 146016,
          "time": 237.65625,
          "velocity": 0.6850393700787402
        },
        {
          "duration": 0.15625,
          "durationTicks": 96,
          "midi": 94,
          "name": "A#6",
          "ticks": 146112,
          "time": 237.8125,
          "velocity": 0.7874015748031497
        },
        {
          "duration": 0.15625,
          "durationTicks": 96,
          "midi": 84,
          "name": "C6",
          "ticks": 146208,
          "time": 237.96875,
          "velocity": 0.5905511811023622
        },
        {
          "duration": 0.15625,
          "durationTicks": 96,
          "midi": 89,
          "name": "F6",
          "ticks": 146304,
          "time": 238.125,
          "velocity": 0.7874015748031497
        },
        {
          "duration": 0.15625,
          "durationTicks": 96,
          "midi": 94,
          "name": "A#6",
          "ticks": 146400,
          "time": 238.28125,
          "velocity": 0.6850393700787402
        },
        {
          "duration": 0.15625,
          "durationTicks": 96,
          "midi": 84,
          "name": "C6",
          "ticks": 146496,
          "time": 238.4375,
          "velocity": 0.7874015748031497
        },
        {
          "duration": 0.15625,
          "durationTicks": 96,
          "midi": 89,
          "name": "F6",
          "ticks": 146592,
          "time": 238.59375,
          "velocity": 0.5905511811023622
        },
        {
          "duration": 0.15625,
          "durationTicks": 96,
          "midi": 84,
          "name": "C6",
          "ticks": 146688,
          "time": 238.75,
          "velocity": 0.7874015748031497
        },
        {
          "duration": 0.15625,
          "durationTicks": 96,
          "midi": 89,
          "name": "F6",
          "ticks": 146784,
          "time": 238.90625,
          "velocity": 0.6850393700787402
        },
        {
          "duration": 0.15625,
          "durationTicks": 96,
          "midi": 94,
          "name": "A#6",
          "ticks": 146880,
          "time": 239.0625,
          "velocity": 0.7874015748031497
        },
        {
          "duration": 0.15625,
          "durationTicks": 96,
          "midi": 84,
          "name": "C6",
          "ticks": 146976,
          "time": 239.21875,
          "velocity": 0.5905511811023622
        },
        {
          "duration": 0.15625,
          "durationTicks": 96,
          "midi": 89,
          "name": "F6",
          "ticks": 147072,
          "time": 239.375,
          "velocity": 0.7874015748031497
        },
        {
          "duration": 0.15625,
          "durationTicks": 96,
          "midi": 94,
          "name": "A#6",
          "ticks": 147168,
          "time": 239.53125,
          "velocity": 0.6850393700787402
        },
        {
          "duration": 0.15625,
          "durationTicks": 96,
          "midi": 92,
          "name": "G#6",
          "ticks": 147264,
          "time": 239.6875,
          "velocity": 0.7874015748031497
        },
        {
          "duration": 0.15625,
          "durationTicks": 96,
          "midi": 91,
          "name": "G6",
          "ticks": 147360,
          "time": 239.84375,
          "velocity": 0.6456692913385826
        },
        {
          "duration": 0.15625,
          "durationTicks": 96,
          "midi": 84,
          "name": "C6",
          "ticks": 147456,
          "time": 240,
          "velocity": 0.7874015748031497
        },
        {
          "duration": 0.15625,
          "durationTicks": 96,
          "midi": 89,
          "name": "F6",
          "ticks": 147552,
          "time": 240.15625,
          "velocity": 0.6850393700787402
        },
        {
          "duration": 0.15625,
          "durationTicks": 96,
          "midi": 91,
          "name": "G6",
          "ticks": 147648,
          "time": 240.3125,
          "velocity": 0.7874015748031497
        },
        {
          "duration": 0.15625,
          "durationTicks": 96,
          "midi": 84,
          "name": "C6",
          "ticks": 147744,
          "time": 240.46875,
          "velocity": 0.6850393700787402
        },
        {
          "duration": 0.15625,
          "durationTicks": 96,
          "midi": 89,
          "name": "F6",
          "ticks": 147840,
          "time": 240.625,
          "velocity": 0.7874015748031497
        },
        {
          "duration": 0.15625,
          "durationTicks": 96,
          "midi": 91,
          "name": "G6",
          "ticks": 147936,
          "time": 240.78125,
          "velocity": 0.6850393700787402
        },
        {
          "duration": 0.15625,
          "durationTicks": 96,
          "midi": 84,
          "name": "C6",
          "ticks": 148032,
          "time": 240.9375,
          "velocity": 0.7874015748031497
        },
        {
          "duration": 0.15625,
          "durationTicks": 96,
          "midi": 89,
          "name": "F6",
          "ticks": 148128,
          "time": 241.09375,
          "velocity": 0.5905511811023622
        },
        {
          "duration": 0.15625,
          "durationTicks": 96,
          "midi": 84,
          "name": "C6",
          "ticks": 148224,
          "time": 241.25,
          "velocity": 0.7874015748031497
        },
        {
          "duration": 0.15625,
          "durationTicks": 96,
          "midi": 89,
          "name": "F6",
          "ticks": 148320,
          "time": 241.40625,
          "velocity": 0.6850393700787402
        },
        {
          "duration": 0.15625,
          "durationTicks": 96,
          "midi": 91,
          "name": "G6",
          "ticks": 148416,
          "time": 241.5625,
          "velocity": 0.7874015748031497
        },
        {
          "duration": 0.15625,
          "durationTicks": 96,
          "midi": 84,
          "name": "C6",
          "ticks": 148512,
          "time": 241.71875,
          "velocity": 0.5905511811023622
        },
        {
          "duration": 0.15625,
          "durationTicks": 96,
          "midi": 89,
          "name": "F6",
          "ticks": 148608,
          "time": 241.875,
          "velocity": 0.7874015748031497
        },
        {
          "duration": 0.15625,
          "durationTicks": 96,
          "midi": 91,
          "name": "G6",
          "ticks": 148704,
          "time": 242.03125,
          "velocity": 0.6850393700787402
        },
        {
          "duration": 0.15625,
          "durationTicks": 96,
          "midi": 84,
          "name": "C6",
          "ticks": 148800,
          "time": 242.1875,
          "velocity": 0.7874015748031497
        },
        {
          "duration": 0.15625,
          "durationTicks": 96,
          "midi": 89,
          "name": "F6",
          "ticks": 148896,
          "time": 242.34375,
          "velocity": 0.5905511811023622
        },
        {
          "duration": 0.15625,
          "durationTicks": 96,
          "midi": 84,
          "name": "C6",
          "ticks": 148992,
          "time": 242.5,
          "velocity": 0.7874015748031497
        },
        {
          "duration": 0.15625,
          "durationTicks": 96,
          "midi": 89,
          "name": "F6",
          "ticks": 149088,
          "time": 242.65625,
          "velocity": 0.6850393700787402
        },
        {
          "duration": 0.15625,
          "durationTicks": 96,
          "midi": 92,
          "name": "G#6",
          "ticks": 149184,
          "time": 242.8125,
          "velocity": 0.7874015748031497
        },
        {
          "duration": 0.15625,
          "durationTicks": 96,
          "midi": 84,
          "name": "C6",
          "ticks": 149280,
          "time": 242.96875,
          "velocity": 0.5905511811023622
        },
        {
          "duration": 0.15625,
          "durationTicks": 96,
          "midi": 89,
          "name": "F6",
          "ticks": 149376,
          "time": 243.125,
          "velocity": 0.7874015748031497
        },
        {
          "duration": 0.15625,
          "durationTicks": 96,
          "midi": 92,
          "name": "G#6",
          "ticks": 149472,
          "time": 243.28125,
          "velocity": 0.6850393700787402
        },
        {
          "duration": 0.15625,
          "durationTicks": 96,
          "midi": 84,
          "name": "C6",
          "ticks": 149568,
          "time": 243.4375,
          "velocity": 0.7874015748031497
        },
        {
          "duration": 0.15625,
          "durationTicks": 96,
          "midi": 89,
          "name": "F6",
          "ticks": 149664,
          "time": 243.59375,
          "velocity": 0.5905511811023622
        },
        {
          "duration": 0.15625,
          "durationTicks": 96,
          "midi": 84,
          "name": "C6",
          "ticks": 149760,
          "time": 243.75,
          "velocity": 0.7874015748031497
        },
        {
          "duration": 0.15625,
          "durationTicks": 96,
          "midi": 89,
          "name": "F6",
          "ticks": 149856,
          "time": 243.90625,
          "velocity": 0.6850393700787402
        },
        {
          "duration": 0.15625,
          "durationTicks": 96,
          "midi": 92,
          "name": "G#6",
          "ticks": 149952,
          "time": 244.0625,
          "velocity": 0.7874015748031497
        },
        {
          "duration": 0.15625,
          "durationTicks": 96,
          "midi": 84,
          "name": "C6",
          "ticks": 150048,
          "time": 244.21875,
          "velocity": 0.5905511811023622
        },
        {
          "duration": 0.15625,
          "durationTicks": 96,
          "midi": 89,
          "name": "F6",
          "ticks": 150144,
          "time": 244.375,
          "velocity": 0.7874015748031497
        },
        {
          "duration": 0.15625,
          "durationTicks": 96,
          "midi": 92,
          "name": "G#6",
          "ticks": 150240,
          "time": 244.53125,
          "velocity": 0.6850393700787402
        },
        {
          "duration": 0.15625,
          "durationTicks": 96,
          "midi": 84,
          "name": "C6",
          "ticks": 150336,
          "time": 244.6875,
          "velocity": 0.7874015748031497
        },
        {
          "duration": 0.15625,
          "durationTicks": 96,
          "midi": 89,
          "name": "F6",
          "ticks": 150432,
          "time": 244.84375,
          "velocity": 0.5905511811023622
        },
        {
          "duration": 0.15625,
          "durationTicks": 96,
          "midi": 84,
          "name": "C6",
          "ticks": 150528,
          "time": 245,
          "velocity": 0.7874015748031497
        },
        {
          "duration": 0.15625,
          "durationTicks": 96,
          "midi": 89,
          "name": "F6",
          "ticks": 150624,
          "time": 245.15625,
          "velocity": 0.6850393700787402
        },
        {
          "duration": 0.15625,
          "durationTicks": 96,
          "midi": 91,
          "name": "G6",
          "ticks": 150720,
          "time": 245.3125,
          "velocity": 0.7874015748031497
        },
        {
          "duration": 0.15625,
          "durationTicks": 96,
          "midi": 84,
          "name": "C6",
          "ticks": 150816,
          "time": 245.46875,
          "velocity": 0.5905511811023622
        },
        {
          "duration": 0.15625,
          "durationTicks": 96,
          "midi": 89,
          "name": "F6",
          "ticks": 150912,
          "time": 245.625,
          "velocity": 0.7874015748031497
        },
        {
          "duration": 0.15625,
          "durationTicks": 96,
          "midi": 91,
          "name": "G6",
          "ticks": 151008,
          "time": 245.78125,
          "velocity": 0.6850393700787402
        },
        {
          "duration": 0.15625,
          "durationTicks": 96,
          "midi": 84,
          "name": "C6",
          "ticks": 151104,
          "time": 245.9375,
          "velocity": 0.7874015748031497
        },
        {
          "duration": 0.15625,
          "durationTicks": 96,
          "midi": 89,
          "name": "F6",
          "ticks": 151200,
          "time": 246.09375,
          "velocity": 0.5905511811023622
        },
        {
          "duration": 0.15625,
          "durationTicks": 96,
          "midi": 84,
          "name": "C6",
          "ticks": 151296,
          "time": 246.25,
          "velocity": 0.7874015748031497
        },
        {
          "duration": 0.15625,
          "durationTicks": 96,
          "midi": 89,
          "name": "F6",
          "ticks": 151392,
          "time": 246.40625,
          "velocity": 0.6850393700787402
        },
        {
          "duration": 0.15625,
          "durationTicks": 96,
          "midi": 91,
          "name": "G6",
          "ticks": 151488,
          "time": 246.5625,
          "velocity": 0.7874015748031497
        },
        {
          "duration": 0.15625,
          "durationTicks": 96,
          "midi": 84,
          "name": "C6",
          "ticks": 151584,
          "time": 246.71875,
          "velocity": 0.5905511811023622
        },
        {
          "duration": 0.15625,
          "durationTicks": 96,
          "midi": 89,
          "name": "F6",
          "ticks": 151680,
          "time": 246.875,
          "velocity": 0.7874015748031497
        },
        {
          "duration": 0.15625,
          "durationTicks": 96,
          "midi": 91,
          "name": "G6",
          "ticks": 151776,
          "time": 247.03125,
          "velocity": 0.6850393700787402
        },
        {
          "duration": 0.15625,
          "durationTicks": 96,
          "midi": 84,
          "name": "C6",
          "ticks": 151872,
          "time": 247.1875,
          "velocity": 0.7874015748031497
        },
        {
          "duration": 0.15625,
          "durationTicks": 96,
          "midi": 89,
          "name": "F6",
          "ticks": 151968,
          "time": 247.34375,
          "velocity": 0.5905511811023622
        },
        {
          "duration": 0.15625,
          "durationTicks": 96,
          "midi": 84,
          "name": "C6",
          "ticks": 152064,
          "time": 247.5,
          "velocity": 0.7874015748031497
        },
        {
          "duration": 0.15625,
          "durationTicks": 96,
          "midi": 89,
          "name": "F6",
          "ticks": 152160,
          "time": 247.65625,
          "velocity": 0.6850393700787402
        },
        {
          "duration": 0.15625,
          "durationTicks": 96,
          "midi": 94,
          "name": "A#6",
          "ticks": 152256,
          "time": 247.8125,
          "velocity": 0.7874015748031497
        },
        {
          "duration": 0.15625,
          "durationTicks": 96,
          "midi": 84,
          "name": "C6",
          "ticks": 152352,
          "time": 247.96875,
          "velocity": 0.5905511811023622
        },
        {
          "duration": 0.15625,
          "durationTicks": 96,
          "midi": 89,
          "name": "F6",
          "ticks": 152448,
          "time": 248.125,
          "velocity": 0.7874015748031497
        },
        {
          "duration": 0.15625,
          "durationTicks": 96,
          "midi": 94,
          "name": "A#6",
          "ticks": 152544,
          "time": 248.28125,
          "velocity": 0.6850393700787402
        },
        {
          "duration": 0.15625,
          "durationTicks": 96,
          "midi": 84,
          "name": "C6",
          "ticks": 152640,
          "time": 248.4375,
          "velocity": 0.7874015748031497
        },
        {
          "duration": 0.15625,
          "durationTicks": 96,
          "midi": 89,
          "name": "F6",
          "ticks": 152736,
          "time": 248.59375,
          "velocity": 0.5905511811023622
        },
        {
          "duration": 0.15625,
          "durationTicks": 96,
          "midi": 84,
          "name": "C6",
          "ticks": 152832,
          "time": 248.75,
          "velocity": 0.7874015748031497
        },
        {
          "duration": 0.15625,
          "durationTicks": 96,
          "midi": 89,
          "name": "F6",
          "ticks": 152928,
          "time": 248.90625,
          "velocity": 0.6850393700787402
        },
        {
          "duration": 0.15625,
          "durationTicks": 96,
          "midi": 94,
          "name": "A#6",
          "ticks": 153024,
          "time": 249.0625,
          "velocity": 0.7874015748031497
        },
        {
          "duration": 0.15625,
          "durationTicks": 96,
          "midi": 84,
          "name": "C6",
          "ticks": 153120,
          "time": 249.21875,
          "velocity": 0.5905511811023622
        },
        {
          "duration": 0.15625,
          "durationTicks": 96,
          "midi": 89,
          "name": "F6",
          "ticks": 153216,
          "time": 249.375,
          "velocity": 0.7874015748031497
        },
        {
          "duration": 0.15625,
          "durationTicks": 96,
          "midi": 94,
          "name": "A#6",
          "ticks": 153312,
          "time": 249.53125,
          "velocity": 0.6850393700787402
        },
        {
          "duration": 0.15625,
          "durationTicks": 96,
          "midi": 92,
          "name": "G#6",
          "ticks": 153408,
          "time": 249.6875,
          "velocity": 0.7874015748031497
        },
        {
          "duration": 0.15625,
          "durationTicks": 96,
          "midi": 91,
          "name": "G6",
          "ticks": 153504,
          "time": 249.84375,
          "velocity": 0.6456692913385826
        },
        {
          "duration": 0.15625,
          "durationTicks": 96,
          "midi": 84,
          "name": "C6",
          "ticks": 153600,
          "time": 250,
          "velocity": 0.7874015748031497
        },
        {
          "duration": 0.15625,
          "durationTicks": 96,
          "midi": 89,
          "name": "F6",
          "ticks": 153696,
          "time": 250.15625,
          "velocity": 0.6850393700787402
        },
        {
          "duration": 0.15625,
          "durationTicks": 96,
          "midi": 91,
          "name": "G6",
          "ticks": 153792,
          "time": 250.3125,
          "velocity": 0.7874015748031497
        },
        {
          "duration": 0.15625,
          "durationTicks": 96,
          "midi": 84,
          "name": "C6",
          "ticks": 153888,
          "time": 250.46875,
          "velocity": 0.6850393700787402
        },
        {
          "duration": 0.15625,
          "durationTicks": 96,
          "midi": 89,
          "name": "F6",
          "ticks": 154272,
          "time": 251.09375,
          "velocity": 0.7874015748031497
        },
        {
          "duration": 0.15625,
          "durationTicks": 96,
          "midi": 91,
          "name": "G6",
          "ticks": 154368,
          "time": 251.25,
          "velocity": 0.6456692913385826
        },
        {
          "duration": 0.3125,
          "durationTicks": 192,
          "midi": 89,
          "name": "F6",
          "ticks": 154752,
          "time": 251.875,
          "velocity": 0.7874015748031497
        },
        {
          "duration": 0.15625,
          "durationTicks": 96,
          "midi": 91,
          "name": "G6",
          "ticks": 154944,
          "time": 252.1875,
          "velocity": 0.6299212598425197
        },
        {
          "duration": 0.15625,
          "durationTicks": 96,
          "midi": 84,
          "name": "C6",
          "ticks": 155136,
          "time": 252.5,
          "velocity": 0.7874015748031497
        },
        {
          "duration": 0.15625,
          "durationTicks": 96,
          "midi": 89,
          "name": "F6",
          "ticks": 155232,
          "time": 252.65625,
          "velocity": 0.6850393700787402
        },
        {
          "duration": 0.15625,
          "durationTicks": 96,
          "midi": 92,
          "name": "G#6",
          "ticks": 155328,
          "time": 252.8125,
          "velocity": 0.7874015748031497
        },
        {
          "duration": 0.15625,
          "durationTicks": 96,
          "midi": 84,
          "name": "C6",
          "ticks": 155424,
          "time": 252.96875,
          "velocity": 0.6850393700787402
        },
        {
          "duration": 0.15625,
          "durationTicks": 96,
          "midi": 89,
          "name": "F6",
          "ticks": 155808,
          "time": 253.59375,
          "velocity": 0.7874015748031497
        },
        {
          "duration": 0.15625,
          "durationTicks": 96,
          "midi": 92,
          "name": "G#6",
          "ticks": 155904,
          "time": 253.75,
          "velocity": 0.6456692913385826
        },
        {
          "duration": 0.3125,
          "durationTicks": 192,
          "midi": 87,
          "name": "D#6",
          "ticks": 156288,
          "time": 254.375,
          "velocity": 0.7874015748031497
        },
        {
          "duration": 0.15625,
          "durationTicks": 96,
          "midi": 86,
          "name": "D6",
          "ticks": 156480,
          "time": 254.6875,
          "velocity": 0.6299212598425197
        },
        {
          "duration": 0.15625,
          "durationTicks": 96,
          "midi": 84,
          "name": "C6",
          "ticks": 156672,
          "time": 255,
          "velocity": 0.7874015748031497
        },
        {
          "duration": 0.15625,
          "durationTicks": 96,
          "midi": 89,
          "name": "F6",
          "ticks": 156768,
          "time": 255.15625,
          "velocity": 0.6850393700787402
        },
        {
          "duration": 0.15625,
          "durationTicks": 96,
          "midi": 91,
          "name": "G6",
          "ticks": 156864,
          "time": 255.3125,
          "velocity": 0.7874015748031497
        },
        {
          "duration": 0.15625,
          "durationTicks": 96,
          "midi": 84,
          "name": "C6",
          "ticks": 156960,
          "time": 255.46875,
          "velocity": 0.6850393700787402
        },
        {
          "duration": 0.15625,
          "durationTicks": 96,
          "midi": 89,
          "name": "F6",
          "ticks": 157344,
          "time": 256.09375,
          "velocity": 0.7874015748031497
        },
        {
          "duration": 0.15625,
          "durationTicks": 96,
          "midi": 91,
          "name": "G6",
          "ticks": 157440,
          "time": 256.25,
          "velocity": 0.6456692913385826
        },
        {
          "duration": 0.3125,
          "durationTicks": 192,
          "midi": 89,
          "name": "F6",
          "ticks": 157824,
          "time": 256.875,
          "velocity": 0.7874015748031497
        },
        {
          "duration": 0.15625,
          "durationTicks": 96,
          "midi": 91,
          "name": "G6",
          "ticks": 158016,
          "time": 257.1875,
          "velocity": 0.6299212598425197
        },
        {
          "duration": 0.15625,
          "durationTicks": 96,
          "midi": 84,
          "name": "C6",
          "ticks": 158208,
          "time": 257.5,
          "velocity": 0.7874015748031497
        },
        {
          "duration": 0.15625,
          "durationTicks": 96,
          "midi": 89,
          "name": "F6",
          "ticks": 158304,
          "time": 257.65625,
          "velocity": 0.6850393700787402
        },
        {
          "duration": 0.15625,
          "durationTicks": 96,
          "midi": 92,
          "name": "G#6",
          "ticks": 158400,
          "time": 257.8125,
          "velocity": 0.7874015748031497
        },
        {
          "duration": 0.15625,
          "durationTicks": 96,
          "midi": 84,
          "name": "C6",
          "ticks": 158496,
          "time": 257.96875,
          "velocity": 0.6850393700787402
        },
        {
          "duration": 0.15625,
          "durationTicks": 96,
          "midi": 89,
          "name": "F6",
          "ticks": 158880,
          "time": 258.59375,
          "velocity": 0.7874015748031497
        },
        {
          "duration": 0.15625,
          "durationTicks": 96,
          "midi": 92,
          "name": "G#6",
          "ticks": 158976,
          "time": 258.75,
          "velocity": 0.6456692913385826
        },
        {
          "duration": 0.3125,
          "durationTicks": 192,
          "midi": 91,
          "name": "G6",
          "ticks": 159360,
          "time": 259.375,
          "velocity": 0.7874015748031497
        },
        {
          "duration": 0.15625,
          "durationTicks": 96,
          "midi": 87,
          "name": "D#6",
          "ticks": 159552,
          "time": 259.6875,
          "velocity": 0.6299212598425197
        },
        {
          "duration": 0.15625,
          "durationTicks": 96,
          "midi": 84,
          "name": "C6",
          "ticks": 159744,
          "time": 260,
          "velocity": 0.7874015748031497
        },
        {
          "duration": 0.15625,
          "durationTicks": 96,
          "midi": 89,
          "name": "F6",
          "ticks": 159840,
          "time": 260.15625,
          "velocity": 0.6850393700787402
        },
        {
          "duration": 0.15625,
          "durationTicks": 96,
          "midi": 91,
          "name": "G6",
          "ticks": 159936,
          "time": 260.3125,
          "velocity": 0.7874015748031497
        },
        {
          "duration": 0.15625,
          "durationTicks": 96,
          "midi": 84,
          "name": "C6",
          "ticks": 160032,
          "time": 260.46875,
          "velocity": 0.6850393700787402
        },
        {
          "duration": 0.15625,
          "durationTicks": 96,
          "midi": 89,
          "name": "F6",
          "ticks": 160416,
          "time": 261.09375,
          "velocity": 0.7874015748031497
        },
        {
          "duration": 0.15625,
          "durationTicks": 96,
          "midi": 91,
          "name": "G6",
          "ticks": 160512,
          "time": 261.25,
          "velocity": 0.6456692913385826
        },
        {
          "duration": 0.3125,
          "durationTicks": 192,
          "midi": 89,
          "name": "F6",
          "ticks": 160896,
          "time": 261.875,
          "velocity": 0.7874015748031497
        },
        {
          "duration": 0.15625,
          "durationTicks": 96,
          "midi": 91,
          "name": "G6",
          "ticks": 161088,
          "time": 262.1875,
          "velocity": 0.6299212598425197
        },
        {
          "duration": 0.15625,
          "durationTicks": 96,
          "midi": 84,
          "name": "C6",
          "ticks": 161280,
          "time": 262.5,
          "velocity": 0.7874015748031497
        },
        {
          "duration": 0.15625,
          "durationTicks": 96,
          "midi": 89,
          "name": "F6",
          "ticks": 161376,
          "time": 262.65625,
          "velocity": 0.6850393700787402
        },
        {
          "duration": 0.15625,
          "durationTicks": 96,
          "midi": 92,
          "name": "G#6",
          "ticks": 161472,
          "time": 262.8125,
          "velocity": 0.7874015748031497
        },
        {
          "duration": 0.15625,
          "durationTicks": 96,
          "midi": 84,
          "name": "C6",
          "ticks": 161568,
          "time": 262.96875,
          "velocity": 0.6850393700787402
        },
        {
          "duration": 0.15625,
          "durationTicks": 96,
          "midi": 89,
          "name": "F6",
          "ticks": 161952,
          "time": 263.59375,
          "velocity": 0.7874015748031497
        },
        {
          "duration": 0.15625,
          "durationTicks": 96,
          "midi": 92,
          "name": "G#6",
          "ticks": 162048,
          "time": 263.75,
          "velocity": 0.6456692913385826
        },
        {
          "duration": 0.3125,
          "durationTicks": 192,
          "midi": 87,
          "name": "D#6",
          "ticks": 162432,
          "time": 264.375,
          "velocity": 0.7874015748031497
        },
        {
          "duration": 0.15625,
          "durationTicks": 96,
          "midi": 86,
          "name": "D6",
          "ticks": 162624,
          "time": 264.6875,
          "velocity": 0.6299212598425197
        },
        {
          "duration": 0.15625,
          "durationTicks": 96,
          "midi": 84,
          "name": "C6",
          "ticks": 162816,
          "time": 265,
          "velocity": 0.7874015748031497
        },
        {
          "duration": 0.15625,
          "durationTicks": 96,
          "midi": 89,
          "name": "F6",
          "ticks": 162912,
          "time": 265.15625,
          "velocity": 0.6850393700787402
        },
        {
          "duration": 0.15625,
          "durationTicks": 96,
          "midi": 91,
          "name": "G6",
          "ticks": 163008,
          "time": 265.3125,
          "velocity": 0.7874015748031497
        },
        {
          "duration": 0.15625,
          "durationTicks": 96,
          "midi": 84,
          "name": "C6",
          "ticks": 163104,
          "time": 265.46875,
          "velocity": 0.6850393700787402
        },
        {
          "duration": 0.15625,
          "durationTicks": 96,
          "midi": 89,
          "name": "F6",
          "ticks": 163488,
          "time": 266.09375,
          "velocity": 0.7874015748031497
        },
        {
          "duration": 0.15625,
          "durationTicks": 96,
          "midi": 91,
          "name": "G6",
          "ticks": 163584,
          "time": 266.25,
          "velocity": 0.6456692913385826
        },
        {
          "duration": 0.3125,
          "durationTicks": 192,
          "midi": 89,
          "name": "F6",
          "ticks": 163968,
          "time": 266.875,
          "velocity": 0.7874015748031497
        },
        {
          "duration": 0.15625,
          "durationTicks": 96,
          "midi": 91,
          "name": "G6",
          "ticks": 164160,
          "time": 267.1875,
          "velocity": 0.6299212598425197
        },
        {
          "duration": 0.15625,
          "durationTicks": 96,
          "midi": 84,
          "name": "C6",
          "ticks": 164352,
          "time": 267.5,
          "velocity": 0.7874015748031497
        },
        {
          "duration": 0.15625,
          "durationTicks": 96,
          "midi": 89,
          "name": "F6",
          "ticks": 164448,
          "time": 267.65625,
          "velocity": 0.6850393700787402
        },
        {
          "duration": 0.15625,
          "durationTicks": 96,
          "midi": 92,
          "name": "G#6",
          "ticks": 164544,
          "time": 267.8125,
          "velocity": 0.7874015748031497
        },
        {
          "duration": 0.15625,
          "durationTicks": 96,
          "midi": 84,
          "name": "C6",
          "ticks": 164640,
          "time": 267.96875,
          "velocity": 0.6850393700787402
        },
        {
          "duration": 0.15625,
          "durationTicks": 96,
          "midi": 89,
          "name": "F6",
          "ticks": 165024,
          "time": 268.59375,
          "velocity": 0.7874015748031497
        },
        {
          "duration": 0.15625,
          "durationTicks": 96,
          "midi": 92,
          "name": "G#6",
          "ticks": 165120,
          "time": 268.75,
          "velocity": 0.6456692913385826
        },
        {
          "duration": 0.3125,
          "durationTicks": 192,
          "midi": 91,
          "name": "G6",
          "ticks": 165504,
          "time": 269.375,
          "velocity": 0.7874015748031497
        },
        {
          "duration": 0.15625,
          "durationTicks": 96,
          "midi": 87,
          "name": "D#6",
          "ticks": 165696,
          "time": 269.6875,
          "velocity": 0.6299212598425197
        },
        {
          "duration": 0.15625,
          "durationTicks": 96,
          "midi": 84,
          "name": "C6",
          "ticks": 165888,
          "time": 270,
          "velocity": 0.7874015748031497
        },
        {
          "duration": 0.15625,
          "durationTicks": 96,
          "midi": 89,
          "name": "F6",
          "ticks": 165984,
          "time": 270.15625,
          "velocity": 0.6850393700787402
        },
        {
          "duration": 0.15625,
          "durationTicks": 96,
          "midi": 91,
          "name": "G6",
          "ticks": 166080,
          "time": 270.3125,
          "velocity": 0.7874015748031497
        },
        {
          "duration": 0.15625,
          "durationTicks": 96,
          "midi": 84,
          "name": "C6",
          "ticks": 166176,
          "time": 270.46875,
          "velocity": 0.6850393700787402
        },
        {
          "duration": 0.15625,
          "durationTicks": 96,
          "midi": 89,
          "name": "F6",
          "ticks": 166560,
          "time": 271.09375,
          "velocity": 0.7874015748031497
        },
        {
          "duration": 0.15625,
          "durationTicks": 96,
          "midi": 91,
          "name": "G6",
          "ticks": 166656,
          "time": 271.25,
          "velocity": 0.6456692913385826
        },
        {
          "duration": 0.15625,
          "durationTicks": 96,
          "midi": 84,
          "name": "C6",
          "ticks": 168960,
          "time": 275,
          "velocity": 0.7874015748031497
        },
        {
          "duration": 0.15625,
          "durationTicks": 96,
          "midi": 89,
          "name": "F6",
          "ticks": 169056,
          "time": 275.15625,
          "velocity": 0.6850393700787402
        },
        {
          "duration": 0.15625,
          "durationTicks": 96,
          "midi": 91,
          "name": "G6",
          "ticks": 169152,
          "time": 275.3125,
          "velocity": 0.7874015748031497
        },
        {
          "duration": 0.15625,
          "durationTicks": 96,
          "midi": 84,
          "name": "C6",
          "ticks": 169248,
          "time": 275.46875,
          "velocity": 0.6850393700787402
        },
        {
          "duration": 0.15625,
          "durationTicks": 96,
          "midi": 89,
          "name": "F6",
          "ticks": 169632,
          "time": 276.09375,
          "velocity": 0.7874015748031497
        },
        {
          "duration": 0.15625,
          "durationTicks": 96,
          "midi": 94,
          "name": "A#6",
          "ticks": 169728,
          "time": 276.25,
          "velocity": 0.6456692913385826
        },
        {
          "duration": 0.15625,
          "durationTicks": 96,
          "midi": 84,
          "name": "C6",
          "ticks": 172032,
          "time": 280,
          "velocity": 0.7874015748031497
        },
        {
          "duration": 0.15625,
          "durationTicks": 96,
          "midi": 89,
          "name": "F6",
          "ticks": 172128,
          "time": 280.15625,
          "velocity": 0.6850393700787402
        },
        {
          "duration": 0.15625,
          "durationTicks": 96,
          "midi": 91,
          "name": "G6",
          "ticks": 172224,
          "time": 280.3125,
          "velocity": 0.7874015748031497
        },
        {
          "duration": 0.15625,
          "durationTicks": 96,
          "midi": 84,
          "name": "C6",
          "ticks": 172320,
          "time": 280.46875,
          "velocity": 0.6850393700787402
        },
        {
          "duration": 0.15625,
          "durationTicks": 96,
          "midi": 89,
          "name": "F6",
          "ticks": 172416,
          "time": 280.625,
          "velocity": 0.7874015748031497
        },
        {
          "duration": 0.15625,
          "durationTicks": 96,
          "midi": 91,
          "name": "G6",
          "ticks": 172512,
          "time": 280.78125,
          "velocity": 0.6850393700787402
        },
        {
          "duration": 0.15625,
          "durationTicks": 96,
          "midi": 84,
          "name": "C6",
          "ticks": 172608,
          "time": 280.9375,
          "velocity": 0.7874015748031497
        },
        {
          "duration": 0.15625,
          "durationTicks": 96,
          "midi": 89,
          "name": "F6",
          "ticks": 172704,
          "time": 281.09375,
          "velocity": 0.5905511811023622
        },
        {
          "duration": 0.15625,
          "durationTicks": 96,
          "midi": 84,
          "name": "C6",
          "ticks": 172800,
          "time": 281.25,
          "velocity": 0.7874015748031497
        },
        {
          "duration": 0.15625,
          "durationTicks": 96,
          "midi": 89,
          "name": "F6",
          "ticks": 172896,
          "time": 281.40625,
          "velocity": 0.6850393700787402
        },
        {
          "duration": 0.15625,
          "durationTicks": 96,
          "midi": 91,
          "name": "G6",
          "ticks": 172992,
          "time": 281.5625,
          "velocity": 0.7874015748031497
        },
        {
          "duration": 0.15625,
          "durationTicks": 96,
          "midi": 84,
          "name": "C6",
          "ticks": 173088,
          "time": 281.71875,
          "velocity": 0.5905511811023622
        },
        {
          "duration": 0.15625,
          "durationTicks": 96,
          "midi": 89,
          "name": "F6",
          "ticks": 173184,
          "time": 281.875,
          "velocity": 0.7874015748031497
        },
        {
          "duration": 0.15625,
          "durationTicks": 96,
          "midi": 91,
          "name": "G6",
          "ticks": 173280,
          "time": 282.03125,
          "velocity": 0.6850393700787402
        },
        {
          "duration": 0.15625,
          "durationTicks": 96,
          "midi": 84,
          "name": "C6",
          "ticks": 173376,
          "time": 282.1875,
          "velocity": 0.7874015748031497
        },
        {
          "duration": 0.15625,
          "durationTicks": 96,
          "midi": 89,
          "name": "F6",
          "ticks": 173472,
          "time": 282.34375,
          "velocity": 0.5905511811023622
        },
        {
          "duration": 0.15625,
          "durationTicks": 96,
          "midi": 84,
          "name": "C6",
          "ticks": 173568,
          "time": 282.5,
          "velocity": 0.7874015748031497
        },
        {
          "duration": 0.15625,
          "durationTicks": 96,
          "midi": 89,
          "name": "F6",
          "ticks": 173664,
          "time": 282.65625,
          "velocity": 0.6850393700787402
        },
        {
          "duration": 0.15625,
          "durationTicks": 96,
          "midi": 92,
          "name": "G#6",
          "ticks": 173760,
          "time": 282.8125,
          "velocity": 0.7874015748031497
        },
        {
          "duration": 0.15625,
          "durationTicks": 96,
          "midi": 84,
          "name": "C6",
          "ticks": 173856,
          "time": 282.96875,
          "velocity": 0.5905511811023622
        },
        {
          "duration": 0.15625,
          "durationTicks": 96,
          "midi": 89,
          "name": "F6",
          "ticks": 173952,
          "time": 283.125,
          "velocity": 0.7874015748031497
        },
        {
          "duration": 0.15625,
          "durationTicks": 96,
          "midi": 92,
          "name": "G#6",
          "ticks": 174048,
          "time": 283.28125,
          "velocity": 0.6850393700787402
        },
        {
          "duration": 0.15625,
          "durationTicks": 96,
          "midi": 84,
          "name": "C6",
          "ticks": 174144,
          "time": 283.4375,
          "velocity": 0.7874015748031497
        },
        {
          "duration": 0.15625,
          "durationTicks": 96,
          "midi": 89,
          "name": "F6",
          "ticks": 174240,
          "time": 283.59375,
          "velocity": 0.5905511811023622
        },
        {
          "duration": 0.15625,
          "durationTicks": 96,
          "midi": 84,
          "name": "C6",
          "ticks": 174336,
          "time": 283.75,
          "velocity": 0.7874015748031497
        },
        {
          "duration": 0.15625,
          "durationTicks": 96,
          "midi": 89,
          "name": "F6",
          "ticks": 174432,
          "time": 283.90625,
          "velocity": 0.6850393700787402
        },
        {
          "duration": 0.15625,
          "durationTicks": 96,
          "midi": 92,
          "name": "G#6",
          "ticks": 174528,
          "time": 284.0625,
          "velocity": 0.7874015748031497
        },
        {
          "duration": 0.15625,
          "durationTicks": 96,
          "midi": 84,
          "name": "C6",
          "ticks": 174624,
          "time": 284.21875,
          "velocity": 0.5905511811023622
        },
        {
          "duration": 0.15625,
          "durationTicks": 96,
          "midi": 89,
          "name": "F6",
          "ticks": 174720,
          "time": 284.375,
          "velocity": 0.7874015748031497
        },
        {
          "duration": 0.15625,
          "durationTicks": 96,
          "midi": 92,
          "name": "G#6",
          "ticks": 174816,
          "time": 284.53125,
          "velocity": 0.6850393700787402
        },
        {
          "duration": 0.15625,
          "durationTicks": 96,
          "midi": 84,
          "name": "C6",
          "ticks": 174912,
          "time": 284.6875,
          "velocity": 0.7874015748031497
        },
        {
          "duration": 0.15625,
          "durationTicks": 96,
          "midi": 89,
          "name": "F6",
          "ticks": 175008,
          "time": 284.84375,
          "velocity": 0.5905511811023622
        },
        {
          "duration": 0.15625,
          "durationTicks": 96,
          "midi": 84,
          "name": "C6",
          "ticks": 175104,
          "time": 285,
          "velocity": 0.7874015748031497
        },
        {
          "duration": 0.15625,
          "durationTicks": 96,
          "midi": 89,
          "name": "F6",
          "ticks": 175200,
          "time": 285.15625,
          "velocity": 0.6850393700787402
        },
        {
          "duration": 0.15625,
          "durationTicks": 96,
          "midi": 91,
          "name": "G6",
          "ticks": 175296,
          "time": 285.3125,
          "velocity": 0.7874015748031497
        },
        {
          "duration": 0.15625,
          "durationTicks": 96,
          "midi": 84,
          "name": "C6",
          "ticks": 175392,
          "time": 285.46875,
          "velocity": 0.5905511811023622
        },
        {
          "duration": 0.15625,
          "durationTicks": 96,
          "midi": 89,
          "name": "F6",
          "ticks": 175488,
          "time": 285.625,
          "velocity": 0.7874015748031497
        },
        {
          "duration": 0.15625,
          "durationTicks": 96,
          "midi": 91,
          "name": "G6",
          "ticks": 175584,
          "time": 285.78125,
          "velocity": 0.6850393700787402
        },
        {
          "duration": 0.15625,
          "durationTicks": 96,
          "midi": 84,
          "name": "C6",
          "ticks": 175680,
          "time": 285.9375,
          "velocity": 0.7874015748031497
        },
        {
          "duration": 0.15625,
          "durationTicks": 96,
          "midi": 89,
          "name": "F6",
          "ticks": 175776,
          "time": 286.09375,
          "velocity": 0.5905511811023622
        },
        {
          "duration": 0.15625,
          "durationTicks": 96,
          "midi": 84,
          "name": "C6",
          "ticks": 175872,
          "time": 286.25,
          "velocity": 0.7874015748031497
        },
        {
          "duration": 0.15625,
          "durationTicks": 96,
          "midi": 89,
          "name": "F6",
          "ticks": 175968,
          "time": 286.40625,
          "velocity": 0.6850393700787402
        },
        {
          "duration": 0.15625,
          "durationTicks": 96,
          "midi": 91,
          "name": "G6",
          "ticks": 176064,
          "time": 286.5625,
          "velocity": 0.7874015748031497
        },
        {
          "duration": 0.15625,
          "durationTicks": 96,
          "midi": 84,
          "name": "C6",
          "ticks": 176160,
          "time": 286.71875,
          "velocity": 0.5905511811023622
        },
        {
          "duration": 0.15625,
          "durationTicks": 96,
          "midi": 89,
          "name": "F6",
          "ticks": 176256,
          "time": 286.875,
          "velocity": 0.7874015748031497
        },
        {
          "duration": 0.15625,
          "durationTicks": 96,
          "midi": 91,
          "name": "G6",
          "ticks": 176352,
          "time": 287.03125,
          "velocity": 0.6850393700787402
        },
        {
          "duration": 0.15625,
          "durationTicks": 96,
          "midi": 84,
          "name": "C6",
          "ticks": 176448,
          "time": 287.1875,
          "velocity": 0.7874015748031497
        },
        {
          "duration": 0.15625,
          "durationTicks": 96,
          "midi": 89,
          "name": "F6",
          "ticks": 176544,
          "time": 287.34375,
          "velocity": 0.5905511811023622
        },
        {
          "duration": 0.15625,
          "durationTicks": 96,
          "midi": 84,
          "name": "C6",
          "ticks": 176640,
          "time": 287.5,
          "velocity": 0.7874015748031497
        },
        {
          "duration": 0.15625,
          "durationTicks": 96,
          "midi": 89,
          "name": "F6",
          "ticks": 176736,
          "time": 287.65625,
          "velocity": 0.6850393700787402
        },
        {
          "duration": 0.15625,
          "durationTicks": 96,
          "midi": 94,
          "name": "A#6",
          "ticks": 176832,
          "time": 287.8125,
          "velocity": 0.7874015748031497
        },
        {
          "duration": 0.15625,
          "durationTicks": 96,
          "midi": 84,
          "name": "C6",
          "ticks": 176928,
          "time": 287.96875,
          "velocity": 0.5905511811023622
        },
        {
          "duration": 0.15625,
          "durationTicks": 96,
          "midi": 89,
          "name": "F6",
          "ticks": 177024,
          "time": 288.125,
          "velocity": 0.7874015748031497
        },
        {
          "duration": 0.15625,
          "durationTicks": 96,
          "midi": 94,
          "name": "A#6",
          "ticks": 177120,
          "time": 288.28125,
          "velocity": 0.6850393700787402
        },
        {
          "duration": 0.15625,
          "durationTicks": 96,
          "midi": 84,
          "name": "C6",
          "ticks": 177216,
          "time": 288.4375,
          "velocity": 0.7874015748031497
        },
        {
          "duration": 0.15625,
          "durationTicks": 96,
          "midi": 89,
          "name": "F6",
          "ticks": 177312,
          "time": 288.59375,
          "velocity": 0.5905511811023622
        },
        {
          "duration": 0.15625,
          "durationTicks": 96,
          "midi": 84,
          "name": "C6",
          "ticks": 177408,
          "time": 288.75,
          "velocity": 0.7874015748031497
        },
        {
          "duration": 0.15625,
          "durationTicks": 96,
          "midi": 89,
          "name": "F6",
          "ticks": 177504,
          "time": 288.90625,
          "velocity": 0.6850393700787402
        },
        {
          "duration": 0.15625,
          "durationTicks": 96,
          "midi": 94,
          "name": "A#6",
          "ticks": 177600,
          "time": 289.0625,
          "velocity": 0.7874015748031497
        },
        {
          "duration": 0.15625,
          "durationTicks": 96,
          "midi": 84,
          "name": "C6",
          "ticks": 177696,
          "time": 289.21875,
          "velocity": 0.5905511811023622
        },
        {
          "duration": 0.15625,
          "durationTicks": 96,
          "midi": 89,
          "name": "F6",
          "ticks": 177792,
          "time": 289.375,
          "velocity": 0.7874015748031497
        },
        {
          "duration": 0.15625,
          "durationTicks": 96,
          "midi": 94,
          "name": "A#6",
          "ticks": 177888,
          "time": 289.53125,
          "velocity": 0.6850393700787402
        },
        {
          "duration": 0.15625,
          "durationTicks": 96,
          "midi": 92,
          "name": "G#6",
          "ticks": 177984,
          "time": 289.6875,
          "velocity": 0.7874015748031497
        },
        {
          "duration": 0.15625,
          "durationTicks": 96,
          "midi": 91,
          "name": "G6",
          "ticks": 178080,
          "time": 289.84375,
          "velocity": 0.6456692913385826
        },
        {
          "duration": 0.15625,
          "durationTicks": 96,
          "midi": 84,
          "name": "C6",
          "ticks": 178176,
          "time": 290,
          "velocity": 0.7874015748031497
        },
        {
          "duration": 0.15625,
          "durationTicks": 96,
          "midi": 89,
          "name": "F6",
          "ticks": 178272,
          "time": 290.15625,
          "velocity": 0.6850393700787402
        },
        {
          "duration": 0.15625,
          "durationTicks": 96,
          "midi": 91,
          "name": "G6",
          "ticks": 178368,
          "time": 290.3125,
          "velocity": 0.7874015748031497
        },
        {
          "duration": 0.15625,
          "durationTicks": 96,
          "midi": 84,
          "name": "C6",
          "ticks": 178464,
          "time": 290.46875,
          "velocity": 0.6850393700787402
        },
        {
          "duration": 0.15625,
          "durationTicks": 96,
          "midi": 89,
          "name": "F6",
          "ticks": 178560,
          "time": 290.625,
          "velocity": 0.7874015748031497
        },
        {
          "duration": 0.15625,
          "durationTicks": 96,
          "midi": 91,
          "name": "G6",
          "ticks": 178656,
          "time": 290.78125,
          "velocity": 0.6850393700787402
        },
        {
          "duration": 0.15625,
          "durationTicks": 96,
          "midi": 84,
          "name": "C6",
          "ticks": 178752,
          "time": 290.9375,
          "velocity": 0.7874015748031497
        },
        {
          "duration": 0.15625,
          "durationTicks": 96,
          "midi": 89,
          "name": "F6",
          "ticks": 178848,
          "time": 291.09375,
          "velocity": 0.5905511811023622
        },
        {
          "duration": 0.15625,
          "durationTicks": 96,
          "midi": 84,
          "name": "C6",
          "ticks": 178944,
          "time": 291.25,
          "velocity": 0.7874015748031497
        },
        {
          "duration": 0.15625,
          "durationTicks": 96,
          "midi": 89,
          "name": "F6",
          "ticks": 179040,
          "time": 291.40625,
          "velocity": 0.6850393700787402
        },
        {
          "duration": 0.15625,
          "durationTicks": 96,
          "midi": 91,
          "name": "G6",
          "ticks": 179136,
          "time": 291.5625,
          "velocity": 0.7874015748031497
        },
        {
          "duration": 0.15625,
          "durationTicks": 96,
          "midi": 84,
          "name": "C6",
          "ticks": 179232,
          "time": 291.71875,
          "velocity": 0.5905511811023622
        },
        {
          "duration": 0.15625,
          "durationTicks": 96,
          "midi": 89,
          "name": "F6",
          "ticks": 179328,
          "time": 291.875,
          "velocity": 0.7874015748031497
        },
        {
          "duration": 0.15625,
          "durationTicks": 96,
          "midi": 91,
          "name": "G6",
          "ticks": 179424,
          "time": 292.03125,
          "velocity": 0.6850393700787402
        },
        {
          "duration": 0.15625,
          "durationTicks": 96,
          "midi": 84,
          "name": "C6",
          "ticks": 179520,
          "time": 292.1875,
          "velocity": 0.7874015748031497
        },
        {
          "duration": 0.15625,
          "durationTicks": 96,
          "midi": 89,
          "name": "F6",
          "ticks": 179616,
          "time": 292.34375,
          "velocity": 0.5905511811023622
        },
        {
          "duration": 0.15625,
          "durationTicks": 96,
          "midi": 84,
          "name": "C6",
          "ticks": 179712,
          "time": 292.5,
          "velocity": 0.7874015748031497
        },
        {
          "duration": 0.15625,
          "durationTicks": 96,
          "midi": 89,
          "name": "F6",
          "ticks": 179808,
          "time": 292.65625,
          "velocity": 0.6850393700787402
        },
        {
          "duration": 0.15625,
          "durationTicks": 96,
          "midi": 92,
          "name": "G#6",
          "ticks": 179904,
          "time": 292.8125,
          "velocity": 0.7874015748031497
        },
        {
          "duration": 0.15625,
          "durationTicks": 96,
          "midi": 84,
          "name": "C6",
          "ticks": 180000,
          "time": 292.96875,
          "velocity": 0.5905511811023622
        },
        {
          "duration": 0.15625,
          "durationTicks": 96,
          "midi": 89,
          "name": "F6",
          "ticks": 180096,
          "time": 293.125,
          "velocity": 0.7874015748031497
        },
        {
          "duration": 0.15625,
          "durationTicks": 96,
          "midi": 92,
          "name": "G#6",
          "ticks": 180192,
          "time": 293.28125,
          "velocity": 0.6850393700787402
        },
        {
          "duration": 0.15625,
          "durationTicks": 96,
          "midi": 84,
          "name": "C6",
          "ticks": 180288,
          "time": 293.4375,
          "velocity": 0.7874015748031497
        },
        {
          "duration": 0.15625,
          "durationTicks": 96,
          "midi": 89,
          "name": "F6",
          "ticks": 180384,
          "time": 293.59375,
          "velocity": 0.5905511811023622
        },
        {
          "duration": 0.15625,
          "durationTicks": 96,
          "midi": 84,
          "name": "C6",
          "ticks": 180480,
          "time": 293.75,
          "velocity": 0.7874015748031497
        },
        {
          "duration": 0.15625,
          "durationTicks": 96,
          "midi": 89,
          "name": "F6",
          "ticks": 180576,
          "time": 293.90625,
          "velocity": 0.6850393700787402
        },
        {
          "duration": 0.15625,
          "durationTicks": 96,
          "midi": 92,
          "name": "G#6",
          "ticks": 180672,
          "time": 294.0625,
          "velocity": 0.7874015748031497
        },
        {
          "duration": 0.15625,
          "durationTicks": 96,
          "midi": 84,
          "name": "C6",
          "ticks": 180768,
          "time": 294.21875,
          "velocity": 0.5905511811023622
        },
        {
          "duration": 0.15625,
          "durationTicks": 96,
          "midi": 89,
          "name": "F6",
          "ticks": 180864,
          "time": 294.375,
          "velocity": 0.7874015748031497
        },
        {
          "duration": 0.15625,
          "durationTicks": 96,
          "midi": 92,
          "name": "G#6",
          "ticks": 180960,
          "time": 294.53125,
          "velocity": 0.6850393700787402
        },
        {
          "duration": 0.15625,
          "durationTicks": 96,
          "midi": 84,
          "name": "C6",
          "ticks": 181056,
          "time": 294.6875,
          "velocity": 0.7874015748031497
        },
        {
          "duration": 0.15625,
          "durationTicks": 96,
          "midi": 89,
          "name": "F6",
          "ticks": 181152,
          "time": 294.84375,
          "velocity": 0.5905511811023622
        },
        {
          "duration": 0.15625,
          "durationTicks": 96,
          "midi": 84,
          "name": "C6",
          "ticks": 181248,
          "time": 295,
          "velocity": 0.7874015748031497
        },
        {
          "duration": 0.15625,
          "durationTicks": 96,
          "midi": 89,
          "name": "F6",
          "ticks": 181344,
          "time": 295.15625,
          "velocity": 0.6850393700787402
        },
        {
          "duration": 0.15625,
          "durationTicks": 96,
          "midi": 91,
          "name": "G6",
          "ticks": 181440,
          "time": 295.3125,
          "velocity": 0.7874015748031497
        },
        {
          "duration": 0.15625,
          "durationTicks": 96,
          "midi": 84,
          "name": "C6",
          "ticks": 181536,
          "time": 295.46875,
          "velocity": 0.5905511811023622
        },
        {
          "duration": 0.15625,
          "durationTicks": 96,
          "midi": 89,
          "name": "F6",
          "ticks": 181632,
          "time": 295.625,
          "velocity": 0.7874015748031497
        },
        {
          "duration": 0.15625,
          "durationTicks": 96,
          "midi": 91,
          "name": "G6",
          "ticks": 181728,
          "time": 295.78125,
          "velocity": 0.6850393700787402
        },
        {
          "duration": 0.15625,
          "durationTicks": 96,
          "midi": 84,
          "name": "C6",
          "ticks": 181824,
          "time": 295.9375,
          "velocity": 0.7874015748031497
        },
        {
          "duration": 0.15625,
          "durationTicks": 96,
          "midi": 89,
          "name": "F6",
          "ticks": 181920,
          "time": 296.09375,
          "velocity": 0.5905511811023622
        },
        {
          "duration": 0.15625,
          "durationTicks": 96,
          "midi": 84,
          "name": "C6",
          "ticks": 182016,
          "time": 296.25,
          "velocity": 0.7874015748031497
        },
        {
          "duration": 0.15625,
          "durationTicks": 96,
          "midi": 89,
          "name": "F6",
          "ticks": 182112,
          "time": 296.40625,
          "velocity": 0.6850393700787402
        },
        {
          "duration": 0.15625,
          "durationTicks": 96,
          "midi": 91,
          "name": "G6",
          "ticks": 182208,
          "time": 296.5625,
          "velocity": 0.7874015748031497
        },
        {
          "duration": 0.15625,
          "durationTicks": 96,
          "midi": 84,
          "name": "C6",
          "ticks": 182304,
          "time": 296.71875,
          "velocity": 0.5905511811023622
        },
        {
          "duration": 0.15625,
          "durationTicks": 96,
          "midi": 89,
          "name": "F6",
          "ticks": 182400,
          "time": 296.875,
          "velocity": 0.7874015748031497
        },
        {
          "duration": 0.15625,
          "durationTicks": 96,
          "midi": 91,
          "name": "G6",
          "ticks": 182496,
          "time": 297.03125,
          "velocity": 0.6850393700787402
        },
        {
          "duration": 0.15625,
          "durationTicks": 96,
          "midi": 84,
          "name": "C6",
          "ticks": 182592,
          "time": 297.1875,
          "velocity": 0.7874015748031497
        },
        {
          "duration": 0.15625,
          "durationTicks": 96,
          "midi": 89,
          "name": "F6",
          "ticks": 182688,
          "time": 297.34375,
          "velocity": 0.5905511811023622
        },
        {
          "duration": 0.15625,
          "durationTicks": 96,
          "midi": 92,
          "name": "G#6",
          "ticks": 182784,
          "time": 297.5,
          "velocity": 0.7874015748031497
        },
        {
          "duration": 0.15625,
          "durationTicks": 96,
          "midi": 91,
          "name": "G6",
          "ticks": 182880,
          "time": 297.65625,
          "velocity": 0.6850393700787402
        },
        {
          "duration": 0.15625,
          "durationTicks": 96,
          "midi": 89,
          "name": "F6",
          "ticks": 182976,
          "time": 297.8125,
          "velocity": 0.7874015748031497
        },
        {
          "duration": 0.15625,
          "durationTicks": 96,
          "midi": 87,
          "name": "D#6",
          "ticks": 183072,
          "time": 297.96875,
          "velocity": 0.5905511811023622
        },
        {
          "duration": 0.15625,
          "durationTicks": 96,
          "midi": 85,
          "name": "C#6",
          "ticks": 183168,
          "time": 298.125,
          "velocity": 0.7874015748031497
        },
        {
          "duration": 0.15625,
          "durationTicks": 96,
          "midi": 84,
          "name": "C6",
          "ticks": 183264,
          "time": 298.28125,
          "velocity": 0.6850393700787402
        },
        {
          "duration": 0.15625,
          "durationTicks": 96,
          "midi": 82,
          "name": "A#5",
          "ticks": 183360,
          "time": 298.4375,
          "velocity": 0.7874015748031497
        },
        {
          "duration": 0.15625,
          "durationTicks": 96,
          "midi": 80,
          "name": "G#5",
          "ticks": 183456,
          "time": 298.59375,
          "velocity": 0.5905511811023622
        },
        {
          "duration": 0.15625,
          "durationTicks": 96,
          "midi": 79,
          "name": "G5",
          "ticks": 183552,
          "time": 298.75,
          "velocity": 0.7874015748031497
        },
        {
          "duration": 0.15625,
          "durationTicks": 96,
          "midi": 77,
          "name": "F5",
          "ticks": 183648,
          "time": 298.90625,
          "velocity": 0.6850393700787402
        },
        {
          "duration": 0.15625,
          "durationTicks": 96,
          "midi": 75,
          "name": "D#5",
          "ticks": 183744,
          "time": 299.0625,
          "velocity": 0.7874015748031497
        },
        {
          "duration": 0.15625,
          "durationTicks": 96,
          "midi": 73,
          "name": "C#5",
          "ticks": 183840,
          "time": 299.21875,
          "velocity": 0.5905511811023622
        },
        {
          "duration": 0.15625,
          "durationTicks": 96,
          "midi": 72,
          "name": "C5",
          "ticks": 183936,
          "time": 299.375,
          "velocity": 0.7874015748031497
        },
        {
          "duration": 0.15625,
          "durationTicks": 96,
          "midi": 70,
          "name": "A#4",
          "ticks": 184032,
          "time": 299.53125,
          "velocity": 0.6850393700787402
        },
        {
          "duration": 0.15625,
          "durationTicks": 96,
          "midi": 68,
          "name": "G#4",
          "ticks": 184128,
          "time": 299.6875,
          "velocity": 0.7165354330708661
        },
        {
          "duration": 0.15625,
          "durationTicks": 96,
          "midi": 75,
          "name": "D#5",
          "ticks": 184224,
          "time": 299.84375,
          "velocity": 0.6456692913385826
        },
        {
          "duration": 0.15625,
          "durationTicks": 96,
          "midi": 84,
          "name": "C6",
          "ticks": 184320,
          "time": 300,
          "velocity": 0.7874015748031497
        },
        {
          "duration": 0.15625,
          "durationTicks": 96,
          "midi": 89,
          "name": "F6",
          "ticks": 184416,
          "time": 300.15625,
          "velocity": 0.6850393700787402
        },
        {
          "duration": 0.15625,
          "durationTicks": 96,
          "midi": 91,
          "name": "G6",
          "ticks": 184512,
          "time": 300.3125,
          "velocity": 0.7874015748031497
        },
        {
          "duration": 0.15625,
          "durationTicks": 96,
          "midi": 84,
          "name": "C6",
          "ticks": 184608,
          "time": 300.46875,
          "velocity": 0.6850393700787402
        },
        {
          "duration": 0.625,
          "durationTicks": 384,
          "midi": 72,
          "name": "C5",
          "ticks": 190464,
          "time": 310,
          "velocity": 0.7874015748031497
        },
        {
          "duration": 0.625,
          "durationTicks": 384,
          "midi": 77,
          "name": "F5",
          "ticks": 190464,
          "time": 310,
          "velocity": 0.7874015748031497
        }
      ],
      "endOfTrackTicks": 190848
    },
    {
      "channel": 9,
      "controlChanges": {},
      "pitchBends": [],
      "instrument": {
        "family": "drums",
        "number": 0,
        "name": "standard kit"
      },
      "name": "Electric Drum Kit",
      "notes": [
        {
          "duration": 0.625,
          "durationTicks": 384,
          "midi": 36,
          "name": "C2",
          "ticks": 24576,
          "time": 40,
          "velocity": 0.7874015748031497
        },
        {
          "duration": 9.6875,
          "durationTicks": 5952,
          "midi": 57,
          "name": "A3",
          "ticks": 24576,
          "time": 40,
          "velocity": 0.7874015748031497
        },
        {
          "duration": 0.625,
          "durationTicks": 384,
          "midi": 36,
          "name": "C2",
          "ticks": 24960,
          "time": 40.625,
          "velocity": 0.7874015748031497
        },
        {
          "duration": 0.625,
          "durationTicks": 384,
          "midi": 36,
          "name": "C2",
          "ticks": 25344,
          "time": 41.25,
          "velocity": 0.7874015748031497
        },
        {
          "duration": 0.625,
          "durationTicks": 384,
          "midi": 36,
          "name": "C2",
          "ticks": 25728,
          "time": 41.875,
          "velocity": 0.7874015748031497
        },
        {
          "duration": 0.625,
          "durationTicks": 384,
          "midi": 36,
          "name": "C2",
          "ticks": 26112,
          "time": 42.5,
          "velocity": 0.7874015748031497
        },
        {
          "duration": 0.625,
          "durationTicks": 384,
          "midi": 36,
          "name": "C2",
          "ticks": 26496,
          "time": 43.125,
          "velocity": 0.7874015748031497
        },
        {
          "duration": 0.625,
          "durationTicks": 384,
          "midi": 36,
          "name": "C2",
          "ticks": 26880,
          "time": 43.75,
          "velocity": 0.7874015748031497
        },
        {
          "duration": 0.625,
          "durationTicks": 384,
          "midi": 36,
          "name": "C2",
          "ticks": 27264,
          "time": 44.375,
          "velocity": 0.7874015748031497
        },
        {
          "duration": 0.625,
          "durationTicks": 384,
          "midi": 36,
          "name": "C2",
          "ticks": 27648,
          "time": 45,
          "velocity": 0.7874015748031497
        },
        {
          "duration": 0.625,
          "durationTicks": 384,
          "midi": 36,
          "name": "C2",
          "ticks": 28032,
          "time": 45.625,
          "velocity": 0.7874015748031497
        },
        {
          "duration": 0.625,
          "durationTicks": 384,
          "midi": 36,
          "name": "C2",
          "ticks": 28416,
          "time": 46.25,
          "velocity": 0.7874015748031497
        },
        {
          "duration": 0.625,
          "durationTicks": 384,
          "midi": 36,
          "name": "C2",
          "ticks": 28800,
          "time": 46.875,
          "velocity": 0.7874015748031497
        },
        {
          "duration": 0.625,
          "durationTicks": 384,
          "midi": 36,
          "name": "C2",
          "ticks": 29184,
          "time": 47.5,
          "velocity": 0.7874015748031497
        },
        {
          "duration": 0.625,
          "durationTicks": 384,
          "midi": 36,
          "name": "C2",
          "ticks": 29568,
          "time": 48.125,
          "velocity": 0.7874015748031497
        },
        {
          "duration": 0.625,
          "durationTicks": 384,
          "midi": 36,
          "name": "C2",
          "ticks": 29952,
          "time": 48.75,
          "velocity": 0.7874015748031497
        },
        {
          "duration": 0.15625,
          "durationTicks": 96,
          "midi": 40,
          "name": "E2",
          "ticks": 30048,
          "time": 48.90625,
          "velocity": 0.4094488188976378
        },
        {
          "duration": 0.15625,
          "durationTicks": 96,
          "midi": 40,
          "name": "E2",
          "ticks": 30144,
          "time": 49.0625,
          "velocity": 0.5354330708661418
        },
        {
          "duration": 0.15625,
          "durationTicks": 96,
          "midi": 40,
          "name": "E2",
          "ticks": 30240,
          "time": 49.21875,
          "velocity": 0.6614173228346457
        },
        {
          "duration": 1.25,
          "durationTicks": 768,
          "midi": 40,
          "name": "E2",
          "ticks": 30336,
          "time": 49.375,
          "velocity": 0.7874015748031497
        },
        {
          "duration": 0.3125,
          "durationTicks": 192,
          "midi": 36,
          "name": "C2",
          "ticks": 30336,
          "time": 49.375,
          "velocity": 0.7874015748031497
        },
        {
          "duration": 0.3125,
          "durationTicks": 192,
          "midi": 36,
          "name": "C2",
          "ticks": 30528,
          "time": 49.6875,
          "velocity": 0.7874015748031497
        },
        {
          "duration": 0.3125,
          "durationTicks": 192,
          "midi": 55,
          "name": "G3",
          "ticks": 30528,
          "time": 49.6875,
          "velocity": 0.7874015748031497
        },
        {
          "duration": 8.75,
          "durationTicks": 5376,
          "midi": 57,
          "name": "A3",
          "ticks": 30720,
          "time": 50,
          "velocity": 0.7874015748031497
        },
        {
          "duration": 0.625,
          "durationTicks": 384,
          "midi": 36,
          "name": "C2",
          "ticks": 30720,
          "time": 50,
          "velocity": 0.7874015748031497
        },
        {
          "duration": 0.625,
          "durationTicks": 384,
          "midi": 36,
          "name": "C2",
          "ticks": 31104,
          "time": 50.625,
          "velocity": 0.7874015748031497
        },
        {
          "duration": 1.25,
          "durationTicks": 768,
          "midi": 40,
          "name": "E2",
          "ticks": 31104,
          "time": 50.625,
          "velocity": 0.7874015748031497
        },
        {
          "duration": 0.625,
          "durationTicks": 384,
          "midi": 36,
          "name": "C2",
          "ticks": 31488,
          "time": 51.25,
          "velocity": 0.7874015748031497
        },
        {
          "duration": 0.625,
          "durationTicks": 384,
          "midi": 36,
          "name": "C2",
          "ticks": 31872,
          "time": 51.875,
          "velocity": 0.7874015748031497
        },
        {
          "duration": 1.25,
          "durationTicks": 768,
          "midi": 40,
          "name": "E2",
          "ticks": 31872,
          "time": 51.875,
          "velocity": 0.7874015748031497
        },
        {
          "duration": 0.625,
          "durationTicks": 384,
          "midi": 36,
          "name": "C2",
          "ticks": 32256,
          "time": 52.5,
          "velocity": 0.7874015748031497
        },
        {
          "duration": 0.78125,
          "durationTicks": 480,
          "midi": 40,
          "name": "E2",
          "ticks": 32640,
          "time": 53.125,
          "velocity": 0.7874015748031497
        },
        {
          "duration": 0.625,
          "durationTicks": 384,
          "midi": 36,
          "name": "C2",
          "ticks": 32640,
          "time": 53.125,
          "velocity": 0.7874015748031497
        },
        {
          "duration": 0.625,
          "durationTicks": 384,
          "midi": 36,
          "name": "C2",
          "ticks": 33024,
          "time": 53.75,
          "velocity": 0.7874015748031497
        },
        {
          "duration": 0.46875,
          "durationTicks": 288,
          "midi": 40,
          "name": "E2",
          "ticks": 33120,
          "time": 53.90625,
          "velocity": 0.7874015748031497
        },
        {
          "duration": 0.625,
          "durationTicks": 384,
          "midi": 36,
          "name": "C2",
          "ticks": 33408,
          "time": 54.375,
          "velocity": 0.7874015748031497
        },
        {
          "duration": 1.25,
          "durationTicks": 768,
          "midi": 40,
          "name": "E2",
          "ticks": 33408,
          "time": 54.375,
          "velocity": 0.7874015748031497
        },
        {
          "duration": 0.625,
          "durationTicks": 384,
          "midi": 36,
          "name": "C2",
          "ticks": 33792,
          "time": 55,
          "velocity": 0.7874015748031497
        },
        {
          "duration": 0.625,
          "durationTicks": 384,
          "midi": 36,
          "name": "C2",
          "ticks": 34176,
          "time": 55.625,
          "velocity": 0.7874015748031497
        },
        {
          "duration": 1.25,
          "durationTicks": 768,
          "midi": 40,
          "name": "E2",
          "ticks": 34176,
          "time": 55.625,
          "velocity": 0.7874015748031497
        },
        {
          "duration": 0.625,
          "durationTicks": 384,
          "midi": 36,
          "name": "C2",
          "ticks": 34560,
          "time": 56.25,
          "velocity": 0.7874015748031497
        },
        {
          "duration": 0.625,
          "durationTicks": 384,
          "midi": 36,
          "name": "C2",
          "ticks": 34944,
          "time": 56.875,
          "velocity": 0.7874015748031497
        },
        {
          "duration": 1.25,
          "durationTicks": 768,
          "midi": 40,
          "name": "E2",
          "ticks": 34944,
          "time": 56.875,
          "velocity": 0.7874015748031497
        },
        {
          "duration": 0.625,
          "durationTicks": 384,
          "midi": 36,
          "name": "C2",
          "ticks": 35328,
          "time": 57.5,
          "velocity": 0.7874015748031497
        },
        {
          "duration": 0.625,
          "durationTicks": 384,
          "midi": 36,
          "name": "C2",
          "ticks": 35712,
          "time": 58.125,
          "velocity": 0.7874015748031497
        },
        {
          "duration": 0.78125,
          "durationTicks": 480,
          "midi": 40,
          "name": "E2",
          "ticks": 35712,
          "time": 58.125,
          "velocity": 0.7874015748031497
        },
        {
          "duration": 0.625,
          "durationTicks": 384,
          "midi": 36,
          "name": "C2",
          "ticks": 36096,
          "time": 58.75,
          "velocity": 0.7874015748031497
        },
        {
          "duration": 0.3125,
          "durationTicks": 192,
          "midi": 55,
          "name": "G3",
          "ticks": 36096,
          "time": 58.75,
          "velocity": 0.5354330708661418
        },
        {
          "duration": 0.46875,
          "durationTicks": 288,
          "midi": 40,
          "name": "E2",
          "ticks": 36192,
          "time": 58.90625,
          "velocity": 0.7874015748031497
        },
        {
          "duration": 0.3125,
          "durationTicks": 192,
          "midi": 55,
          "name": "G3",
          "ticks": 36288,
          "time": 59.0625,
          "velocity": 0.5984251968503937
        },
        {
          "duration": 0.3125,
          "durationTicks": 192,
          "midi": 36,
          "name": "C2",
          "ticks": 36480,
          "time": 59.375,
          "velocity": 0.7874015748031497
        },
        {
          "duration": 0.3125,
          "durationTicks": 192,
          "midi": 40,
          "name": "E2",
          "ticks": 36480,
          "time": 59.375,
          "velocity": 0.7874015748031497
        },
        {
          "duration": 0.3125,
          "durationTicks": 192,
          "midi": 55,
          "name": "G3",
          "ticks": 36480,
          "time": 59.375,
          "velocity": 0.6614173228346457
        },
        {
          "duration": 0.3125,
          "durationTicks": 192,
          "midi": 36,
          "name": "C2",
          "ticks": 36672,
          "time": 59.6875,
          "velocity": 0.7874015748031497
        },
        {
          "duration": 0.15625,
          "durationTicks": 96,
          "midi": 55,
          "name": "G3",
          "ticks": 36672,
          "time": 59.6875,
          "velocity": 0.7244094488188977
        },
        {
          "duration": 0.09765625,
          "durationTicks": 60,
          "midi": 40,
          "name": "E2",
          "ticks": 36672,
          "time": 59.6875,
          "velocity": 0.7874015748031497
        },
        {
          "duration": 0.05859375,
          "durationTicks": 36,
          "midi": 40,
          "name": "E2",
          "ticks": 36732,
          "time": 59.78515625,
          "velocity": 0.7874015748031497
        },
        {
          "duration": 0.15625,
          "durationTicks": 96,
          "midi": 55,
          "name": "G3",
          "ticks": 36768,
          "time": 59.84375,
          "velocity": 0.7874015748031497
        },
        {
          "duration": 0.15625,
          "durationTicks": 96,
          "midi": 40,
          "name": "E2",
          "ticks": 36768,
          "time": 59.84375,
          "velocity": 0.7874015748031497
        },
        {
          "duration": 0.625,
          "durationTicks": 384,
          "midi": 40,
          "name": "E2",
          "ticks": 36828,
          "time": 59.94140625,
          "velocity": 0.7874015748031497
        },
        {
          "duration": 10,
          "durationTicks": 6144,
          "midi": 57,
          "name": "A3",
          "ticks": 36864,
          "time": 60,
          "velocity": 0.7874015748031497
        },
        {
          "duration": 0.625,
          "durationTicks": 384,
          "midi": 36,
          "name": "C2",
          "ticks": 36864,
          "time": 60,
          "velocity": 0.7874015748031497
        },
        {
          "duration": 0.625,
          "durationTicks": 384,
          "midi": 36,
          "name": "C2",
          "ticks": 37248,
          "time": 60.625,
          "velocity": 0.7874015748031497
        },
        {
          "duration": 1.25,
          "durationTicks": 768,
          "midi": 40,
          "name": "E2",
          "ticks": 37248,
          "time": 60.625,
          "velocity": 0.7874015748031497
        },
        {
          "duration": 0.625,
          "durationTicks": 384,
          "midi": 36,
          "name": "C2",
          "ticks": 37632,
          "time": 61.25,
          "velocity": 0.7874015748031497
        },
        {
          "duration": 1.25,
          "durationTicks": 768,
          "midi": 40,
          "name": "E2",
          "ticks": 38016,
          "time": 61.875,
          "velocity": 0.7874015748031497
        },
        {
          "duration": 0.625,
          "durationTicks": 384,
          "midi": 36,
          "name": "C2",
          "ticks": 38016,
          "time": 61.875,
          "velocity": 0.7874015748031497
        },
        {
          "duration": 0.625,
          "durationTicks": 384,
          "midi": 36,
          "name": "C2",
          "ticks": 38400,
          "time": 62.5,
          "velocity": 0.7874015748031497
        },
        {
          "duration": 0.625,
          "durationTicks": 384,
          "midi": 36,
          "name": "C2",
          "ticks": 38784,
          "time": 63.125,
          "velocity": 0.7874015748031497
        },
        {
          "duration": 0.78125,
          "durationTicks": 480,
          "midi": 40,
          "name": "E2",
          "ticks": 38784,
          "time": 63.125,
          "velocity": 0.7874015748031497
        },
        {
          "duration": 0.625,
          "durationTicks": 384,
          "midi": 36,
          "name": "C2",
          "ticks": 39168,
          "time": 63.75,
          "velocity": 0.7874015748031497
        },
        {
          "duration": 0.46875,
          "durationTicks": 288,
          "midi": 40,
          "name": "E2",
          "ticks": 39264,
          "time": 63.90625,
          "velocity": 0.7874015748031497
        },
        {
          "duration": 1.25,
          "durationTicks": 768,
          "midi": 40,
          "name": "E2",
          "ticks": 39552,
          "time": 64.375,
          "velocity": 0.7874015748031497
        },
        {
          "duration": 0.625,
          "durationTicks": 384,
          "midi": 36,
          "name": "C2",
          "ticks": 39552,
          "time": 64.375,
          "velocity": 0.7874015748031497
        },
        {
          "duration": 0.625,
          "durationTicks": 384,
          "midi": 36,
          "name": "C2",
          "ticks": 39936,
          "time": 65,
          "velocity": 0.7874015748031497
        },
        {
          "duration": 1.25,
          "durationTicks": 768,
          "midi": 40,
          "name": "E2",
          "ticks": 40320,
          "time": 65.625,
          "velocity": 0.7874015748031497
        },
        {
          "duration": 0.625,
          "durationTicks": 384,
          "midi": 36,
          "name": "C2",
          "ticks": 40320,
          "time": 65.625,
          "velocity": 0.7874015748031497
        },
        {
          "duration": 0.625,
          "durationTicks": 384,
          "midi": 36,
          "name": "C2",
          "ticks": 40704,
          "time": 66.25,
          "velocity": 0.7874015748031497
        },
        {
          "duration": 0.625,
          "durationTicks": 384,
          "midi": 36,
          "name": "C2",
          "ticks": 41088,
          "time": 66.875,
          "velocity": 0.7874015748031497
        },
        {
          "duration": 1.25,
          "durationTicks": 768,
          "midi": 40,
          "name": "E2",
          "ticks": 41088,
          "time": 66.875,
          "velocity": 0.7874015748031497
        },
        {
          "duration": 0.625,
          "durationTicks": 384,
          "midi": 36,
          "name": "C2",
          "ticks": 41472,
          "time": 67.5,
          "velocity": 0.7874015748031497
        },
        {
          "duration": 0.78125,
          "durationTicks": 480,
          "midi": 40,
          "name": "E2",
          "ticks": 41856,
          "time": 68.125,
          "velocity": 0.7874015748031497
        },
        {
          "duration": 0.625,
          "durationTicks": 384,
          "midi": 36,
          "name": "C2",
          "ticks": 41856,
          "time": 68.125,
          "velocity": 0.7874015748031497
        },
        {
          "duration": 0.625,
          "durationTicks": 384,
          "midi": 36,
          "name": "C2",
          "ticks": 42240,
          "time": 68.75,
          "velocity": 0.7874015748031497
        },
        {
          "duration": 0.46875,
          "durationTicks": 288,
          "midi": 40,
          "name": "E2",
          "ticks": 42336,
          "time": 68.90625,
          "velocity": 0.7874015748031497
        },
        {
          "duration": 0.3125,
          "durationTicks": 192,
          "midi": 36,
          "name": "C2",
          "ticks": 42624,
          "time": 69.375,
          "velocity": 0.7874015748031497
        },
        {
          "duration": 0.3125,
          "durationTicks": 192,
          "midi": 40,
          "name": "E2",
          "ticks": 42624,
          "time": 69.375,
          "velocity": 0.7874015748031497
        },
        {
          "duration": 0.3125,
          "durationTicks": 192,
          "midi": 36,
          "name": "C2",
          "ticks": 42816,
          "time": 69.6875,
          "velocity": 0.7874015748031497
        },
        {
          "duration": 0.15625,
          "durationTicks": 96,
          "midi": 40,
          "name": "E2",
          "ticks": 42816,
          "time": 69.6875,
          "velocity": 0.7874015748031497
        },
        {
          "duration": 0.15625,
          "durationTicks": 96,
          "midi": 40,
          "name": "E2",
          "ticks": 42912,
          "time": 69.84375,
          "velocity": 0.7874015748031497
        },
        {
          "duration": 0.625,
          "durationTicks": 384,
          "midi": 40,
          "name": "E2",
          "ticks": 42972,
          "time": 69.94140625,
          "velocity": 0.7874015748031497
        },
        {
          "duration": 0.46875,
          "durationTicks": 288,
          "midi": 36,
          "name": "C2",
          "ticks": 43008,
          "time": 70,
          "velocity": 0.7874015748031497
        },
        {
          "duration": 10,
          "durationTicks": 6144,
          "midi": 57,
          "name": "A3",
          "ticks": 43008,
          "time": 70,
          "velocity": 0.7874015748031497
        },
        {
          "duration": 0.46875,
          "durationTicks": 288,
          "midi": 36,
          "name": "C2",
          "ticks": 43296,
          "time": 70.46875,
          "velocity": 0.7874015748031497
        },
        {
          "duration": 1.25,
          "durationTicks": 768,
          "midi": 40,
          "name": "E2",
          "ticks": 43392,
          "time": 70.625,
          "velocity": 0.7874015748031497
        },
        {
          "duration": 0.625,
          "durationTicks": 384,
          "midi": 36,
          "name": "C2",
          "ticks": 43584,
          "time": 70.9375,
          "velocity": 0.7874015748031497
        },
        {
          "duration": 0.46875,
          "durationTicks": 288,
          "midi": 36,
          "name": "C2",
          "ticks": 43968,
          "time": 71.5625,
          "velocity": 0.7874015748031497
        },
        {
          "duration": 0.46875,
          "durationTicks": 288,
          "midi": 40,
          "name": "E2",
          "ticks": 44160,
          "time": 71.875,
          "velocity": 0.7874015748031497
        },
        {
          "duration": 0.15625,
          "durationTicks": 96,
          "midi": 36,
          "name": "C2",
          "ticks": 44256,
          "time": 72.03125,
          "velocity": 0.7874015748031497
        },
        {
          "duration": 0.3125,
          "durationTicks": 192,
          "midi": 36,
          "name": "C2",
          "ticks": 44352,
          "time": 72.1875,
          "velocity": 0.7874015748031497
        },
        {
          "duration": 0.78125,
          "durationTicks": 480,
          "midi": 40,
          "name": "E2",
          "ticks": 44448,
          "time": 72.34375,
          "velocity": 0.7874015748031497
        },
        {
          "duration": 0.46875,
          "durationTicks": 288,
          "midi": 36,
          "name": "C2",
          "ticks": 44544,
          "time": 72.5,
          "velocity": 0.7874015748031497
        },
        {
          "duration": 0.46875,
          "durationTicks": 288,
          "midi": 36,
          "name": "C2",
          "ticks": 44832,
          "time": 72.96875,
          "velocity": 0.7874015748031497
        },
        {
          "duration": 1.25,
          "durationTicks": 768,
          "midi": 40,
          "name": "E2",
          "ticks": 44928,
          "time": 73.125,
          "velocity": 0.7874015748031497
        },
        {
          "duration": 0.625,
          "durationTicks": 384,
          "midi": 36,
          "name": "C2",
          "ticks": 45120,
          "time": 73.4375,
          "velocity": 0.7874015748031497
        },
        {
          "duration": 0.625,
          "durationTicks": 384,
          "midi": 36,
          "name": "C2",
          "ticks": 45504,
          "time": 74.0625,
          "velocity": 0.7874015748031497
        },
        {
          "duration": 1.25,
          "durationTicks": 768,
          "midi": 40,
          "name": "E2",
          "ticks": 45696,
          "time": 74.375,
          "velocity": 0.7874015748031497
        },
        {
          "duration": 0.3125,
          "durationTicks": 192,
          "midi": 36,
          "name": "C2",
          "ticks": 45888,
          "time": 74.6875,
          "velocity": 0.7874015748031497
        },
        {
          "duration": 0.46875,
          "durationTicks": 288,
          "midi": 36,
          "name": "C2",
          "ticks": 46080,
          "time": 75,
          "velocity": 0.7874015748031497
        },
        {
          "duration": 0.46875,
          "durationTicks": 288,
          "midi": 36,
          "name": "C2",
          "ticks": 46368,
          "time": 75.46875,
          "velocity": 0.7874015748031497
        },
        {
          "duration": 1.25,
          "durationTicks": 768,
          "midi": 40,
          "name": "E2",
          "ticks": 46464,
          "time": 75.625,
          "velocity": 0.7874015748031497
        },
        {
          "duration": 0.625,
          "durationTicks": 384,
          "midi": 36,
          "name": "C2",
          "ticks": 46656,
          "time": 75.9375,
          "velocity": 0.7874015748031497
        },
        {
          "duration": 0.46875,
          "durationTicks": 288,
          "midi": 36,
          "name": "C2",
          "ticks": 47040,
          "time": 76.5625,
          "velocity": 0.7874015748031497
        },
        {
          "duration": 0.46875,
          "durationTicks": 288,
          "midi": 40,
          "name": "E2",
          "ticks": 47232,
          "time": 76.875,
          "velocity": 0.7874015748031497
        },
        {
          "duration": 0.15625,
          "durationTicks": 96,
          "midi": 36,
          "name": "C2",
          "ticks": 47328,
          "time": 77.03125,
          "velocity": 0.7874015748031497
        },
        {
          "duration": 0.3125,
          "durationTicks": 192,
          "midi": 36,
          "name": "C2",
          "ticks": 47424,
          "time": 77.1875,
          "velocity": 0.7874015748031497
        },
        {
          "duration": 0.78125,
          "durationTicks": 480,
          "midi": 40,
          "name": "E2",
          "ticks": 47520,
          "time": 77.34375,
          "velocity": 0.7874015748031497
        },
        {
          "duration": 0.46875,
          "durationTicks": 288,
          "midi": 36,
          "name": "C2",
          "ticks": 47616,
          "time": 77.5,
          "velocity": 0.7874015748031497
        },
        {
          "duration": 0.46875,
          "durationTicks": 288,
          "midi": 36,
          "name": "C2",
          "ticks": 47904,
          "time": 77.96875,
          "velocity": 0.7874015748031497
        },
        {
          "duration": 1.25,
          "durationTicks": 768,
          "midi": 40,
          "name": "E2",
          "ticks": 48000,
          "time": 78.125,
          "velocity": 0.7874015748031497
        },
        {
          "duration": 0.625,
          "durationTicks": 384,
          "midi": 36,
          "name": "C2",
          "ticks": 48192,
          "time": 78.4375,
          "velocity": 0.7874015748031497
        },
        {
          "duration": 0.46875,
          "durationTicks": 288,
          "midi": 36,
          "name": "C2",
          "ticks": 48576,
          "time": 79.0625,
          "velocity": 0.7874015748031497
        },
        {
          "duration": 0.3125,
          "durationTicks": 192,
          "midi": 40,
          "name": "E2",
          "ticks": 48768,
          "time": 79.375,
          "velocity": 0.7874015748031497
        },
        {
          "duration": 0.15625,
          "durationTicks": 96,
          "midi": 36,
          "name": "C2",
          "ticks": 48864,
          "time": 79.53125,
          "velocity": 0.7874015748031497
        },
        {
          "duration": 0,
          "durationTicks": 0,
          "midi": 40,
          "name": "E2",
          "ticks": 48960,
          "time": 79.6875,
          "velocity": 0.7874015748031497
        },
        {
          "duration": 0.3125,
          "durationTicks": 192,
          "midi": 36,
          "name": "C2",
          "ticks": 48960,
          "time": 79.6875,
          "velocity": 0.7874015748031497
        },
        {
          "duration": 0,
          "durationTicks": 0,
          "midi": 40,
          "name": "E2",
          "ticks": 48996,
          "time": 79.74609375,
          "velocity": 0.7874015748031497
        },
        {
          "duration": 0,
          "durationTicks": 0,
          "midi": 40,
          "name": "E2",
          "ticks": 49032,
          "time": 79.8046875,
          "velocity": 0.7874015748031497
        },
        {
          "duration": 0,
          "durationTicks": 0,
          "midi": 40,
          "name": "E2",
          "ticks": 49056,
          "time": 79.84375,
          "velocity": 0.7874015748031497
        },
        {
          "duration": 0,
          "durationTicks": 0,
          "midi": 40,
          "name": "E2",
          "ticks": 49092,
          "time": 79.90234375,
          "velocity": 0.7874015748031497
        },
        {
          "duration": 14.375,
          "durationTicks": 8832,
          "midi": 40,
          "name": "E2",
          "ticks": 49128,
          "time": 79.9609375,
          "velocity": 0.7874015748031497
        },
        {
          "duration": 2.5,
          "durationTicks": 1536,
          "midi": 57,
          "name": "A3",
          "ticks": 49152,
          "time": 80,
          "velocity": 0.7874015748031497
        },
        {
          "duration": 0.46875,
          "durationTicks": 288,
          "midi": 36,
          "name": "C2",
          "ticks": 49152,
          "time": 80,
          "velocity": 0.7874015748031497
        },
        {
          "duration": 0.46875,
          "durationTicks": 288,
          "midi": 36,
          "name": "C2",
          "ticks": 49440,
          "time": 80.46875,
          "velocity": 0.6614173228346457
        },
        {
          "duration": 0.46875,
          "durationTicks": 288,
          "midi": 36,
          "name": "C2",
          "ticks": 49728,
          "time": 80.9375,
          "velocity": 0.5354330708661418
        },
        {
          "duration": 0.15625,
          "durationTicks": 96,
          "midi": 36,
          "name": "C2",
          "ticks": 50016,
          "time": 81.40625,
          "velocity": 0.4094488188976378
        },
        {
          "duration": 0.15625,
          "durationTicks": 96,
          "midi": 36,
          "name": "C2",
          "ticks": 50112,
          "time": 81.5625,
          "velocity": 0.4094488188976378
        },
        {
          "duration": 0.15625,
          "durationTicks": 96,
          "midi": 36,
          "name": "C2",
          "ticks": 50208,
          "time": 81.71875,
          "velocity": 0.4015748031496063
        },
        {
          "duration": 0.625,
          "durationTicks": 384,
          "midi": 36,
          "name": "C2",
          "ticks": 50304,
          "time": 81.875,
          "velocity": 0.3937007874015748
        },
        {
          "duration": 0.46875,
          "durationTicks": 288,
          "midi": 57,
          "name": "A3",
          "ticks": 50688,
          "time": 82.5,
          "velocity": 0.7874015748031497
        },
        {
          "duration": 0.46875,
          "durationTicks": 288,
          "midi": 36,
          "name": "C2",
          "ticks": 50688,
          "time": 82.5,
          "velocity": 0.7874015748031497
        },
        {
          "duration": 0.46875,
          "durationTicks": 288,
          "midi": 36,
          "name": "C2",
          "ticks": 50976,
          "time": 82.96875,
          "velocity": 0.7874015748031497
        },
        {
          "duration": 0.46875,
          "durationTicks": 288,
          "midi": 57,
          "name": "A3",
          "ticks": 50976,
          "time": 82.96875,
          "velocity": 0.7874015748031497
        },
        {
          "duration": 0.3125,
          "durationTicks": 192,
          "midi": 36,
          "name": "C2",
          "ticks": 51264,
          "time": 83.4375,
          "velocity": 0.7874015748031497
        },
        {
          "duration": 0.3125,
          "durationTicks": 192,
          "midi": 57,
          "name": "A3",
          "ticks": 51264,
          "time": 83.4375,
          "velocity": 0.7874015748031497
        },
        {
          "duration": 6.25,
          "durationTicks": 3840,
          "midi": 57,
          "name": "A3",
          "ticks": 51456,
          "time": 83.75,
          "velocity": 0.7874015748031497
        },
        {
          "duration": 6.25,
          "durationTicks": 3840,
          "midi": 36,
          "name": "C2",
          "ticks": 51456,
          "time": 83.75,
          "velocity": 0.7874015748031497
        },
        {
          "duration": 2.5,
          "durationTicks": 1536,
          "midi": 57,
          "name": "A3",
          "ticks": 55296,
          "time": 90,
          "velocity": 0.7874015748031497
        },
        {
          "duration": 0.46875,
          "durationTicks": 288,
          "midi": 36,
          "name": "C2",
          "ticks": 55296,
          "time": 90,
          "velocity": 0.7874015748031497
        },
        {
          "duration": 0.46875,
          "durationTicks": 288,
          "midi": 36,
          "name": "C2",
          "ticks": 55584,
          "time": 90.46875,
          "velocity": 0.6614173228346457
        },
        {
          "duration": 0.46875,
          "durationTicks": 288,
          "midi": 36,
          "name": "C2",
          "ticks": 55872,
          "time": 90.9375,
          "velocity": 0.5354330708661418
        },
        {
          "duration": 0.15625,
          "durationTicks": 96,
          "midi": 36,
          "name": "C2",
          "ticks": 56160,
          "time": 91.40625,
          "velocity": 0.4094488188976378
        },
        {
          "duration": 0.15625,
          "durationTicks": 96,
          "midi": 36,
          "name": "C2",
          "ticks": 56256,
          "time": 91.5625,
          "velocity": 0.4094488188976378
        },
        {
          "duration": 0.15625,
          "durationTicks": 96,
          "midi": 36,
          "name": "C2",
          "ticks": 56352,
          "time": 91.71875,
          "velocity": 0.4015748031496063
        },
        {
          "duration": 0.625,
          "durationTicks": 384,
          "midi": 36,
          "name": "C2",
          "ticks": 56448,
          "time": 91.875,
          "velocity": 0.3937007874015748
        },
        {
          "duration": 0.46875,
          "durationTicks": 288,
          "midi": 36,
          "name": "C2",
          "ticks": 56832,
          "time": 92.5,
          "velocity": 0.7874015748031497
        },
        {
          "duration": 0.46875,
          "durationTicks": 288,
          "midi": 57,
          "name": "A3",
          "ticks": 56832,
          "time": 92.5,
          "velocity": 0.7874015748031497
        },
        {
          "duration": 0.46875,
          "durationTicks": 288,
          "midi": 57,
          "name": "A3",
          "ticks": 57120,
          "time": 92.96875,
          "velocity": 0.7874015748031497
        },
        {
          "duration": 0.46875,
          "durationTicks": 288,
          "midi": 36,
          "name": "C2",
          "ticks": 57120,
          "time": 92.96875,
          "velocity": 0.7874015748031497
        },
        {
          "duration": 0.3125,
          "durationTicks": 192,
          "midi": 36,
          "name": "C2",
          "ticks": 57408,
          "time": 93.4375,
          "velocity": 0.7874015748031497
        },
        {
          "duration": 0.3125,
          "durationTicks": 192,
          "midi": 57,
          "name": "A3",
          "ticks": 57408,
          "time": 93.4375,
          "velocity": 0.7874015748031497
        },
        {
          "duration": 1.40625,
          "durationTicks": 864,
          "midi": 36,
          "name": "C2",
          "ticks": 57600,
          "time": 93.75,
          "velocity": 0.7874015748031497
        },
        {
          "duration": 1.25,
          "durationTicks": 768,
          "midi": 57,
          "name": "A3",
          "ticks": 57600,
          "time": 93.75,
          "velocity": 0.7874015748031497
        },
        {
          "duration": 0.625,
          "durationTicks": 384,
          "midi": 40,
          "name": "E2",
          "ticks": 57984,
          "time": 94.375,
          "velocity": 0.7874015748031497
        },
        {
          "duration": 0.15625,
          "durationTicks": 96,
          "midi": 40,
          "name": "E2",
          "ticks": 58368,
          "time": 95,
          "velocity": 0.4094488188976378
        },
        {
          "duration": 5,
          "durationTicks": 3072,
          "midi": 57,
          "name": "A3",
          "ticks": 58368,
          "time": 95,
          "velocity": 0.6850393700787402
        },
        {
          "duration": 0.15625,
          "durationTicks": 96,
          "midi": 40,
          "name": "E2",
          "ticks": 58464,
          "time": 95.15625,
          "velocity": 0.4409448818897638
        },
        {
          "duration": 0.15625,
          "durationTicks": 96,
          "midi": 40,
          "name": "E2",
          "ticks": 58560,
          "time": 95.3125,
          "velocity": 0.4409448818897638
        },
        {
          "duration": 0.15625,
          "durationTicks": 96,
          "midi": 40,
          "name": "E2",
          "ticks": 58656,
          "time": 95.46875,
          "velocity": 0.4645669291338583
        },
        {
          "duration": 0.15625,
          "durationTicks": 96,
          "midi": 40,
          "name": "E2",
          "ticks": 58752,
          "time": 95.625,
          "velocity": 0.4645669291338583
        },
        {
          "duration": 0.15625,
          "durationTicks": 96,
          "midi": 40,
          "name": "E2",
          "ticks": 58848,
          "time": 95.78125,
          "velocity": 0.4881889763779528
        },
        {
          "duration": 0.15625,
          "durationTicks": 96,
          "midi": 40,
          "name": "E2",
          "ticks": 58944,
          "time": 95.9375,
          "velocity": 0.4881889763779528
        },
        {
          "duration": 0.15625,
          "durationTicks": 96,
          "midi": 40,
          "name": "E2",
          "ticks": 59040,
          "time": 96.09375,
          "velocity": 0.5118110236220472
        },
        {
          "duration": 0.15625,
          "durationTicks": 96,
          "midi": 40,
          "name": "E2",
          "ticks": 59136,
          "time": 96.25,
          "velocity": 0.5118110236220472
        },
        {
          "duration": 0.15625,
          "durationTicks": 96,
          "midi": 40,
          "name": "E2",
          "ticks": 59232,
          "time": 96.40625,
          "velocity": 0.5354330708661418
        },
        {
          "duration": 0.15625,
          "durationTicks": 96,
          "midi": 40,
          "name": "E2",
          "ticks": 59328,
          "time": 96.5625,
          "velocity": 0.5354330708661418
        },
        {
          "duration": 0.15625,
          "durationTicks": 96,
          "midi": 40,
          "name": "E2",
          "ticks": 59424,
          "time": 96.71875,
          "velocity": 0.5669291338582677
        },
        {
          "duration": 0.15625,
          "durationTicks": 96,
          "midi": 40,
          "name": "E2",
          "ticks": 59520,
          "time": 96.875,
          "velocity": 0.5669291338582677
        },
        {
          "duration": 0.15625,
          "durationTicks": 96,
          "midi": 40,
          "name": "E2",
          "ticks": 59616,
          "time": 97.03125,
          "velocity": 0.5905511811023622
        },
        {
          "duration": 0.15625,
          "durationTicks": 96,
          "midi": 40,
          "name": "E2",
          "ticks": 59712,
          "time": 97.1875,
          "velocity": 0.5905511811023622
        },
        {
          "duration": 0.15625,
          "durationTicks": 96,
          "midi": 40,
          "name": "E2",
          "ticks": 59808,
          "time": 97.34375,
          "velocity": 0.6141732283464567
        },
        {
          "duration": 0.15625,
          "durationTicks": 96,
          "midi": 40,
          "name": "E2",
          "ticks": 59904,
          "time": 97.5,
          "velocity": 0.6141732283464567
        },
        {
          "duration": 0.15625,
          "durationTicks": 96,
          "midi": 40,
          "name": "E2",
          "ticks": 60000,
          "time": 97.65625,
          "velocity": 0.6377952755905512
        },
        {
          "duration": 0.15625,
          "durationTicks": 96,
          "midi": 40,
          "name": "E2",
          "ticks": 60096,
          "time": 97.8125,
          "velocity": 0.6377952755905512
        },
        {
          "duration": 0.15625,
          "durationTicks": 96,
          "midi": 40,
          "name": "E2",
          "ticks": 60192,
          "time": 97.96875,
          "velocity": 0.6614173228346457
        },
        {
          "duration": 0.15625,
          "durationTicks": 96,
          "midi": 40,
          "name": "E2",
          "ticks": 60288,
          "time": 98.125,
          "velocity": 0.6614173228346457
        },
        {
          "duration": 0.15625,
          "durationTicks": 96,
          "midi": 40,
          "name": "E2",
          "ticks": 60384,
          "time": 98.28125,
          "velocity": 0.6850393700787402
        },
        {
          "duration": 0.15625,
          "durationTicks": 96,
          "midi": 40,
          "name": "E2",
          "ticks": 60480,
          "time": 98.4375,
          "velocity": 0.6850393700787402
        },
        {
          "duration": 0.15625,
          "durationTicks": 96,
          "midi": 40,
          "name": "E2",
          "ticks": 60576,
          "time": 98.59375,
          "velocity": 0.7165354330708661
        },
        {
          "duration": 0.15625,
          "durationTicks": 96,
          "midi": 40,
          "name": "E2",
          "ticks": 60672,
          "time": 98.75,
          "velocity": 0.7165354330708661
        },
        {
          "duration": 0.15625,
          "durationTicks": 96,
          "midi": 40,
          "name": "E2",
          "ticks": 60768,
          "time": 98.90625,
          "velocity": 0.7322834645669292
        },
        {
          "duration": 0.15625,
          "durationTicks": 96,
          "midi": 40,
          "name": "E2",
          "ticks": 60864,
          "time": 99.0625,
          "velocity": 0.7322834645669292
        },
        {
          "duration": 0.15625,
          "durationTicks": 96,
          "midi": 40,
          "name": "E2",
          "ticks": 60960,
          "time": 99.21875,
          "velocity": 0.7637795275590551
        },
        {
          "duration": 0,
          "durationTicks": 0,
          "midi": 40,
          "name": "E2",
          "ticks": 61056,
          "time": 99.375,
          "velocity": 0.7795275590551181
        },
        {
          "duration": 0.13671875,
          "durationTicks": 84,
          "midi": 40,
          "name": "E2",
          "ticks": 61068,
          "time": 99.39453125,
          "velocity": 0.7637795275590551
        },
        {
          "duration": 0.01953125,
          "durationTicks": 12,
          "midi": 40,
          "name": "E2",
          "ticks": 61152,
          "time": 99.53125,
          "velocity": 0.7795275590551181
        },
        {
          "duration": 0.15625,
          "durationTicks": 96,
          "midi": 40,
          "name": "E2",
          "ticks": 61164,
          "time": 99.55078125,
          "velocity": 0.7874015748031497
        },
        {
          "duration": 0.15625,
          "durationTicks": 96,
          "midi": 40,
          "name": "E2",
          "ticks": 61248,
          "time": 99.6875,
          "velocity": 0.7874015748031497
        },
        {
          "duration": 0.13671875,
          "durationTicks": 84,
          "midi": 40,
          "name": "E2",
          "ticks": 61344,
          "time": 99.84375,
          "velocity": 0.7874015748031497
        },
        {
          "duration": 0.01953125,
          "durationTicks": 12,
          "midi": 40,
          "name": "E2",
          "ticks": 61428,
          "time": 99.98046875,
          "velocity": 0.7874015748031497
        },
        {
          "duration": 0.46875,
          "durationTicks": 288,
          "midi": 36,
          "name": "C2",
          "ticks": 61440,
          "time": 100,
          "velocity": 0.7874015748031497
        },
        {
          "duration": 10,
          "durationTicks": 6144,
          "midi": 55,
          "name": "G3",
          "ticks": 61440,
          "time": 100,
          "velocity": 0.7874015748031497
        },
        {
          "duration": 0.3125,
          "durationTicks": 192,
          "midi": 59,
          "name": "B3",
          "ticks": 61440,
          "time": 100,
          "velocity": 0.7874015748031497
        },
        {
          "duration": 0.3125,
          "durationTicks": 192,
          "midi": 59,
          "name": "B3",
          "ticks": 61632,
          "time": 100.3125,
          "velocity": 0.6614173228346457
        },
        {
          "duration": 0.78125,
          "durationTicks": 480,
          "midi": 36,
          "name": "C2",
          "ticks": 61728,
          "time": 100.46875,
          "velocity": 0.7874015748031497
        },
        {
          "duration": 1.25,
          "durationTicks": 768,
          "midi": 40,
          "name": "E2",
          "ticks": 61824,
          "time": 100.625,
          "velocity": 0.7874015748031497
        },
        {
          "duration": 0.3125,
          "durationTicks": 192,
          "midi": 59,
          "name": "B3",
          "ticks": 61824,
          "time": 100.625,
          "velocity": 0.7874015748031497
        },
        {
          "duration": 0.3125,
          "durationTicks": 192,
          "midi": 59,
          "name": "B3",
          "ticks": 62016,
          "time": 100.9375,
          "velocity": 0.6614173228346457
        },
        {
          "duration": 0.46875,
          "durationTicks": 288,
          "midi": 36,
          "name": "C2",
          "ticks": 62208,
          "time": 101.25,
          "velocity": 0.7874015748031497
        },
        {
          "duration": 0.3125,
          "durationTicks": 192,
          "midi": 59,
          "name": "B3",
          "ticks": 62208,
          "time": 101.25,
          "velocity": 0.7874015748031497
        },
        {
          "duration": 0.3125,
          "durationTicks": 192,
          "midi": 59,
          "name": "B3",
          "ticks": 62400,
          "time": 101.5625,
          "velocity": 0.6614173228346457
        },
        {
          "duration": 0.78125,
          "durationTicks": 480,
          "midi": 36,
          "name": "C2",
          "ticks": 62496,
          "time": 101.71875,
          "velocity": 0.7874015748031497
        },
        {
          "duration": 1.25,
          "durationTicks": 768,
          "midi": 40,
          "name": "E2",
          "ticks": 62592,
          "time": 101.875,
          "velocity": 0.7874015748031497
        },
        {
          "duration": 0.3125,
          "durationTicks": 192,
          "midi": 59,
          "name": "B3",
          "ticks": 62592,
          "time": 101.875,
          "velocity": 0.7874015748031497
        },
        {
          "duration": 0.3125,
          "durationTicks": 192,
          "midi": 59,
          "name": "B3",
          "ticks": 62784,
          "time": 102.1875,
          "velocity": 0.6614173228346457
        },
        {
          "duration": 0.3125,
          "durationTicks": 192,
          "midi": 36,
          "name": "C2",
          "ticks": 62976,
          "time": 102.5,
          "velocity": 0.7874015748031497
        },
        {
          "duration": 0.3125,
          "durationTicks": 192,
          "midi": 59,
          "name": "B3",
          "ticks": 62976,
          "time": 102.5,
          "velocity": 0.7874015748031497
        },
        {
          "duration": 0.9375,
          "durationTicks": 576,
          "midi": 36,
          "name": "C2",
          "ticks": 63168,
          "time": 102.8125,
          "velocity": 0.7874015748031497
        },
        {
          "duration": 0.3125,
          "durationTicks": 192,
          "midi": 59,
          "name": "B3",
          "ticks": 63168,
          "time": 102.8125,
          "velocity": 0.6614173228346457
        },
        {
          "duration": 0.3125,
          "durationTicks": 192,
          "midi": 59,
          "name": "B3",
          "ticks": 63360,
          "time": 103.125,
          "velocity": 0.7874015748031497
        },
        {
          "duration": 1.25,
          "durationTicks": 768,
          "midi": 40,
          "name": "E2",
          "ticks": 63360,
          "time": 103.125,
          "velocity": 0.7874015748031497
        },
        {
          "duration": 0.3125,
          "durationTicks": 192,
          "midi": 59,
          "name": "B3",
          "ticks": 63552,
          "time": 103.4375,
          "velocity": 0.6614173228346457
        },
        {
          "duration": 0.3125,
          "durationTicks": 192,
          "midi": 59,
          "name": "B3",
          "ticks": 63744,
          "time": 103.75,
          "velocity": 0.7874015748031497
        },
        {
          "duration": 1.25,
          "durationTicks": 768,
          "midi": 36,
          "name": "C2",
          "ticks": 63744,
          "time": 103.75,
          "velocity": 0.7874015748031497
        },
        {
          "duration": 0.3125,
          "durationTicks": 192,
          "midi": 59,
          "name": "B3",
          "ticks": 63936,
          "time": 104.0625,
          "velocity": 0.6614173228346457
        },
        {
          "duration": 0.3125,
          "durationTicks": 192,
          "midi": 59,
          "name": "B3",
          "ticks": 64128,
          "time": 104.375,
          "velocity": 0.7874015748031497
        },
        {
          "duration": 1.25,
          "durationTicks": 768,
          "midi": 40,
          "name": "E2",
          "ticks": 64128,
          "time": 104.375,
          "velocity": 0.7874015748031497
        },
        {
          "duration": 0.3125,
          "durationTicks": 192,
          "midi": 59,
          "name": "B3",
          "ticks": 64320,
          "time": 104.6875,
          "velocity": 0.6614173228346457
        },
        {
          "duration": 0.3125,
          "durationTicks": 192,
          "midi": 59,
          "name": "B3",
          "ticks": 64512,
          "time": 105,
          "velocity": 0.7874015748031497
        },
        {
          "duration": 0.46875,
          "durationTicks": 288,
          "midi": 36,
          "name": "C2",
          "ticks": 64512,
          "time": 105,
          "velocity": 0.7874015748031497
        },
        {
          "duration": 0.3125,
          "durationTicks": 192,
          "midi": 59,
          "name": "B3",
          "ticks": 64704,
          "time": 105.3125,
          "velocity": 0.6614173228346457
        },
        {
          "duration": 0.78125,
          "durationTicks": 480,
          "midi": 36,
          "name": "C2",
          "ticks": 64800,
          "time": 105.46875,
          "velocity": 0.7874015748031497
        },
        {
          "duration": 1.25,
          "durationTicks": 768,
          "midi": 40,
          "name": "E2",
          "ticks": 64896,
          "time": 105.625,
          "velocity": 0.7874015748031497
        },
        {
          "duration": 0.3125,
          "durationTicks": 192,
          "midi": 59,
          "name": "B3",
          "ticks": 64896,
          "time": 105.625,
          "velocity": 0.7874015748031497
        },
        {
          "duration": 0.3125,
          "durationTicks": 192,
          "midi": 59,
          "name": "B3",
          "ticks": 65088,
          "time": 105.9375,
          "velocity": 0.6614173228346457
        },
        {
          "duration": 0.46875,
          "durationTicks": 288,
          "midi": 36,
          "name": "C2",
          "ticks": 65280,
          "time": 106.25,
          "velocity": 0.7874015748031497
        },
        {
          "duration": 0.3125,
          "durationTicks": 192,
          "midi": 59,
          "name": "B3",
          "ticks": 65280,
          "time": 106.25,
          "velocity": 0.7874015748031497
        },
        {
          "duration": 0.3125,
          "durationTicks": 192,
          "midi": 59,
          "name": "B3",
          "ticks": 65472,
          "time": 106.5625,
          "velocity": 0.6614173228346457
        },
        {
          "duration": 0.78125,
          "durationTicks": 480,
          "midi": 36,
          "name": "C2",
          "ticks": 65568,
          "time": 106.71875,
          "velocity": 0.7874015748031497
        },
        {
          "duration": 1.25,
          "durationTicks": 768,
          "midi": 40,
          "name": "E2",
          "ticks": 65664,
          "time": 106.875,
          "velocity": 0.7874015748031497
        },
        {
          "duration": 0.3125,
          "durationTicks": 192,
          "midi": 59,
          "name": "B3",
          "ticks": 65664,
          "time": 106.875,
          "velocity": 0.7874015748031497
        },
        {
          "duration": 0.3125,
          "durationTicks": 192,
          "midi": 59,
          "name": "B3",
          "ticks": 65856,
          "time": 107.1875,
          "velocity": 0.6614173228346457
        },
        {
          "duration": 0.3125,
          "durationTicks": 192,
          "midi": 59,
          "name": "B3",
          "ticks": 66048,
          "time": 107.5,
          "velocity": 0.7874015748031497
        },
        {
          "duration": 0.3125,
          "durationTicks": 192,
          "midi": 36,
          "name": "C2",
          "ticks": 66048,
          "time": 107.5,
          "velocity": 0.7874015748031497
        },
        {
          "duration": 0.9375,
          "durationTicks": 576,
          "midi": 36,
          "name": "C2",
          "ticks": 66240,
          "time": 107.8125,
          "velocity": 0.7874015748031497
        },
        {
          "duration": 0.3125,
          "durationTicks": 192,
          "midi": 59,
          "name": "B3",
          "ticks": 66240,
          "time": 107.8125,
          "velocity": 0.6614173228346457
        },
        {
          "duration": 0.3125,
          "durationTicks": 192,
          "midi": 59,
          "name": "B3",
          "ticks": 66432,
          "time": 108.125,
          "velocity": 0.7874015748031497
        },
        {
          "duration": 1.25,
          "durationTicks": 768,
          "midi": 40,
          "name": "E2",
          "ticks": 66432,
          "time": 108.125,
          "velocity": 0.7874015748031497
        },
        {
          "duration": 0.3125,
          "durationTicks": 192,
          "midi": 59,
          "name": "B3",
          "ticks": 66624,
          "time": 108.4375,
          "velocity": 0.6614173228346457
        },
        {
          "duration": 0.3125,
          "durationTicks": 192,
          "midi": 59,
          "name": "B3",
          "ticks": 66816,
          "time": 108.75,
          "velocity": 0.7874015748031497
        },
        {
          "duration": 1.25,
          "durationTicks": 768,
          "midi": 36,
          "name": "C2",
          "ticks": 66816,
          "time": 108.75,
          "velocity": 0.7874015748031497
        },
        {
          "duration": 0.3125,
          "durationTicks": 192,
          "midi": 59,
          "name": "B3",
          "ticks": 67008,
          "time": 109.0625,
          "velocity": 0.6614173228346457
        },
        {
          "duration": 0.3125,
          "durationTicks": 192,
          "midi": 59,
          "name": "B3",
          "ticks": 67200,
          "time": 109.375,
          "velocity": 0.7874015748031497
        },
        {
          "duration": 1.25,
          "durationTicks": 768,
          "midi": 40,
          "name": "E2",
          "ticks": 67200,
          "time": 109.375,
          "velocity": 0.7874015748031497
        },
        {
          "duration": 0.3125,
          "durationTicks": 192,
          "midi": 59,
          "name": "B3",
          "ticks": 67392,
          "time": 109.6875,
          "velocity": 0.6614173228346457
        },
        {
          "duration": 0.3125,
          "durationTicks": 192,
          "midi": 59,
          "name": "B3",
          "ticks": 67584,
          "time": 110,
          "velocity": 0.7874015748031497
        },
        {
          "duration": 10,
          "durationTicks": 6144,
          "midi": 55,
          "name": "G3",
          "ticks": 67584,
          "time": 110,
          "velocity": 0.7874015748031497
        },
        {
          "duration": 0.46875,
          "durationTicks": 288,
          "midi": 36,
          "name": "C2",
          "ticks": 67584,
          "time": 110,
          "velocity": 0.7874015748031497
        },
        {
          "duration": 0.3125,
          "durationTicks": 192,
          "midi": 59,
          "name": "B3",
          "ticks": 67776,
          "time": 110.3125,
          "velocity": 0.6614173228346457
        },
        {
          "duration": 0.78125,
          "durationTicks": 480,
          "midi": 36,
          "name": "C2",
          "ticks": 67872,
          "time": 110.46875,
          "velocity": 0.7874015748031497
        },
        {
          "duration": 1.25,
          "durationTicks": 768,
          "midi": 40,
          "name": "E2",
          "ticks": 67968,
          "time": 110.625,
          "velocity": 0.7874015748031497
        },
        {
          "duration": 0.3125,
          "durationTicks": 192,
          "midi": 59,
          "name": "B3",
          "ticks": 67968,
          "time": 110.625,
          "velocity": 0.7874015748031497
        },
        {
          "duration": 0.3125,
          "durationTicks": 192,
          "midi": 59,
          "name": "B3",
          "ticks": 68160,
          "time": 110.9375,
          "velocity": 0.6614173228346457
        },
        {
          "duration": 0.3125,
          "durationTicks": 192,
          "midi": 59,
          "name": "B3",
          "ticks": 68352,
          "time": 111.25,
          "velocity": 0.7874015748031497
        },
        {
          "duration": 0.46875,
          "durationTicks": 288,
          "midi": 36,
          "name": "C2",
          "ticks": 68352,
          "time": 111.25,
          "velocity": 0.7874015748031497
        },
        {
          "duration": 0.3125,
          "durationTicks": 192,
          "midi": 59,
          "name": "B3",
          "ticks": 68544,
          "time": 111.5625,
          "velocity": 0.6614173228346457
        },
        {
          "duration": 0.78125,
          "durationTicks": 480,
          "midi": 36,
          "name": "C2",
          "ticks": 68640,
          "time": 111.71875,
          "velocity": 0.7874015748031497
        },
        {
          "duration": 0.3125,
          "durationTicks": 192,
          "midi": 59,
          "name": "B3",
          "ticks": 68736,
          "time": 111.875,
          "velocity": 0.7874015748031497
        },
        {
          "duration": 1.25,
          "durationTicks": 768,
          "midi": 40,
          "name": "E2",
          "ticks": 68736,
          "time": 111.875,
          "velocity": 0.7874015748031497
        },
        {
          "duration": 0.3125,
          "durationTicks": 192,
          "midi": 59,
          "name": "B3",
          "ticks": 68928,
          "time": 112.1875,
          "velocity": 0.6614173228346457
        },
        {
          "duration": 0.3125,
          "durationTicks": 192,
          "midi": 36,
          "name": "C2",
          "ticks": 69120,
          "time": 112.5,
          "velocity": 0.7874015748031497
        },
        {
          "duration": 0.3125,
          "durationTicks": 192,
          "midi": 59,
          "name": "B3",
          "ticks": 69120,
          "time": 112.5,
          "velocity": 0.7874015748031497
        },
        {
          "duration": 0.9375,
          "durationTicks": 576,
          "midi": 36,
          "name": "C2",
          "ticks": 69312,
          "time": 112.8125,
          "velocity": 0.7874015748031497
        },
        {
          "duration": 0.3125,
          "durationTicks": 192,
          "midi": 59,
          "name": "B3",
          "ticks": 69312,
          "time": 112.8125,
          "velocity": 0.6614173228346457
        },
        {
          "duration": 1.25,
          "durationTicks": 768,
          "midi": 40,
          "name": "E2",
          "ticks": 69504,
          "time": 113.125,
          "velocity": 0.7874015748031497
        },
        {
          "duration": 0.3125,
          "durationTicks": 192,
          "midi": 59,
          "name": "B3",
          "ticks": 69504,
          "time": 113.125,
          "velocity": 0.7874015748031497
        },
        {
          "duration": 0.3125,
          "durationTicks": 192,
          "midi": 59,
          "name": "B3",
          "ticks": 69696,
          "time": 113.4375,
          "velocity": 0.6614173228346457
        },
        {
          "duration": 0.3125,
          "durationTicks": 192,
          "midi": 59,
          "name": "B3",
          "ticks": 69888,
          "time": 113.75,
          "velocity": 0.7874015748031497
        },
        {
          "duration": 1.25,
          "durationTicks": 768,
          "midi": 36,
          "name": "C2",
          "ticks": 69888,
          "time": 113.75,
          "velocity": 0.7874015748031497
        },
        {
          "duration": 0.3125,
          "durationTicks": 192,
          "midi": 59,
          "name": "B3",
          "ticks": 70080,
          "time": 114.0625,
          "velocity": 0.6614173228346457
        },
        {
          "duration": 0.3125,
          "durationTicks": 192,
          "midi": 59,
          "name": "B3",
          "ticks": 70272,
          "time": 114.375,
          "velocity": 0.7874015748031497
        },
        {
          "duration": 1.25,
          "durationTicks": 768,
          "midi": 40,
          "name": "E2",
          "ticks": 70272,
          "time": 114.375,
          "velocity": 0.7874015748031497
        },
        {
          "duration": 0.3125,
          "durationTicks": 192,
          "midi": 59,
          "name": "B3",
          "ticks": 70464,
          "time": 114.6875,
          "velocity": 0.6614173228346457
        },
        {
          "duration": 0.3125,
          "durationTicks": 192,
          "midi": 59,
          "name": "B3",
          "ticks": 70656,
          "time": 115,
          "velocity": 0.7874015748031497
        },
        {
          "duration": 0.46875,
          "durationTicks": 288,
          "midi": 36,
          "name": "C2",
          "ticks": 70656,
          "time": 115,
          "velocity": 0.7874015748031497
        },
        {
          "duration": 0.3125,
          "durationTicks": 192,
          "midi": 59,
          "name": "B3",
          "ticks": 70848,
          "time": 115.3125,
          "velocity": 0.6614173228346457
        },
        {
          "duration": 0.78125,
          "durationTicks": 480,
          "midi": 36,
          "name": "C2",
          "ticks": 70944,
          "time": 115.46875,
          "velocity": 0.7874015748031497
        },
        {
          "duration": 0.3125,
          "durationTicks": 192,
          "midi": 59,
          "name": "B3",
          "ticks": 71040,
          "time": 115.625,
          "velocity": 0.7874015748031497
        },
        {
          "duration": 1.25,
          "durationTicks": 768,
          "midi": 40,
          "name": "E2",
          "ticks": 71040,
          "time": 115.625,
          "velocity": 0.7874015748031497
        },
        {
          "duration": 0.3125,
          "durationTicks": 192,
          "midi": 59,
          "name": "B3",
          "ticks": 71232,
          "time": 115.9375,
          "velocity": 0.6614173228346457
        },
        {
          "duration": 0.3125,
          "durationTicks": 192,
          "midi": 59,
          "name": "B3",
          "ticks": 71424,
          "time": 116.25,
          "velocity": 0.7874015748031497
        },
        {
          "duration": 0.46875,
          "durationTicks": 288,
          "midi": 36,
          "name": "C2",
          "ticks": 71424,
          "time": 116.25,
          "velocity": 0.7874015748031497
        },
        {
          "duration": 0.3125,
          "durationTicks": 192,
          "midi": 59,
          "name": "B3",
          "ticks": 71616,
          "time": 116.5625,
          "velocity": 0.6614173228346457
        },
        {
          "duration": 0.78125,
          "durationTicks": 480,
          "midi": 36,
          "name": "C2",
          "ticks": 71712,
          "time": 116.71875,
          "velocity": 0.7874015748031497
        },
        {
          "duration": 1.25,
          "durationTicks": 768,
          "midi": 40,
          "name": "E2",
          "ticks": 71808,
          "time": 116.875,
          "velocity": 0.7874015748031497
        },
        {
          "duration": 0.3125,
          "durationTicks": 192,
          "midi": 59,
          "name": "B3",
          "ticks": 71808,
          "time": 116.875,
          "velocity": 0.7874015748031497
        },
        {
          "duration": 0.3125,
          "durationTicks": 192,
          "midi": 59,
          "name": "B3",
          "ticks": 72000,
          "time": 117.1875,
          "velocity": 0.6614173228346457
        },
        {
          "duration": 0.3125,
          "durationTicks": 192,
          "midi": 36,
          "name": "C2",
          "ticks": 72192,
          "time": 117.5,
          "velocity": 0.7874015748031497
        },
        {
          "duration": 0.3125,
          "durationTicks": 192,
          "midi": 59,
          "name": "B3",
          "ticks": 72192,
          "time": 117.5,
          "velocity": 0.7874015748031497
        },
        {
          "duration": 0.9375,
          "durationTicks": 576,
          "midi": 36,
          "name": "C2",
          "ticks": 72384,
          "time": 117.8125,
          "velocity": 0.7874015748031497
        },
        {
          "duration": 0.3125,
          "durationTicks": 192,
          "midi": 59,
          "name": "B3",
          "ticks": 72384,
          "time": 117.8125,
          "velocity": 0.6614173228346457
        },
        {
          "duration": 1.25,
          "durationTicks": 768,
          "midi": 40,
          "name": "E2",
          "ticks": 72576,
          "time": 118.125,
          "velocity": 0.7874015748031497
        },
        {
          "duration": 0.3125,
          "durationTicks": 192,
          "midi": 59,
          "name": "B3",
          "ticks": 72576,
          "time": 118.125,
          "velocity": 0.7874015748031497
        },
        {
          "duration": 0.3125,
          "durationTicks": 192,
          "midi": 59,
          "name": "B3",
          "ticks": 72768,
          "time": 118.4375,
          "velocity": 0.6614173228346457
        },
        {
          "duration": 0.3125,
          "durationTicks": 192,
          "midi": 59,
          "name": "B3",
          "ticks": 72960,
          "time": 118.75,
          "velocity": 0.7874015748031497
        },
        {
          "duration": 1.25,
          "durationTicks": 768,
          "midi": 36,
          "name": "C2",
          "ticks": 72960,
          "time": 118.75,
          "velocity": 0.7874015748031497
        },
        {
          "duration": 0.3125,
          "durationTicks": 192,
          "midi": 59,
          "name": "B3",
          "ticks": 73152,
          "time": 119.0625,
          "velocity": 0.6614173228346457
        },
        {
          "duration": 0.3125,
          "durationTicks": 192,
          "midi": 59,
          "name": "B3",
          "ticks": 73344,
          "time": 119.375,
          "velocity": 0.7874015748031497
        },
        {
          "duration": 5,
          "durationTicks": 3072,
          "midi": 40,
          "name": "E2",
          "ticks": 73344,
          "time": 119.375,
          "velocity": 0.7874015748031497
        },
        {
          "duration": 0.625,
          "durationTicks": 384,
          "midi": 59,
          "name": "B3",
          "ticks": 73536,
          "time": 119.6875,
          "velocity": 0.6614173228346457
        },
        {
          "duration": 2.5,
          "durationTicks": 1536,
          "midi": 57,
          "name": "A3",
          "ticks": 73728,
          "time": 120,
          "velocity": 0.7874015748031497
        },
        {
          "duration": 0.46875,
          "durationTicks": 288,
          "midi": 36,
          "name": "C2",
          "ticks": 73728,
          "time": 120,
          "velocity": 0.7874015748031497
        },
        {
          "duration": 0.46875,
          "durationTicks": 288,
          "midi": 36,
          "name": "C2",
          "ticks": 74016,
          "time": 120.46875,
          "velocity": 0.6614173228346457
        },
        {
          "duration": 0.46875,
          "durationTicks": 288,
          "midi": 36,
          "name": "C2",
          "ticks": 74304,
          "time": 120.9375,
          "velocity": 0.5354330708661418
        },
        {
          "duration": 0.15625,
          "durationTicks": 96,
          "midi": 36,
          "name": "C2",
          "ticks": 74592,
          "time": 121.40625,
          "velocity": 0.4094488188976378
        },
        {
          "duration": 0.15625,
          "durationTicks": 96,
          "midi": 36,
          "name": "C2",
          "ticks": 74688,
          "time": 121.5625,
          "velocity": 0.4094488188976378
        },
        {
          "duration": 0.15625,
          "durationTicks": 96,
          "midi": 36,
          "name": "C2",
          "ticks": 74784,
          "time": 121.71875,
          "velocity": 0.4015748031496063
        },
        {
          "duration": 0.625,
          "durationTicks": 384,
          "midi": 36,
          "name": "C2",
          "ticks": 74880,
          "time": 121.875,
          "velocity": 0.3937007874015748
        },
        {
          "duration": 0.46875,
          "durationTicks": 288,
          "midi": 57,
          "name": "A3",
          "ticks": 75264,
          "time": 122.5,
          "velocity": 0.7874015748031497
        },
        {
          "duration": 0.46875,
          "durationTicks": 288,
          "midi": 36,
          "name": "C2",
          "ticks": 75264,
          "time": 122.5,
          "velocity": 0.7874015748031497
        },
        {
          "duration": 0.46875,
          "durationTicks": 288,
          "midi": 36,
          "name": "C2",
          "ticks": 75552,
          "time": 122.96875,
          "velocity": 0.7874015748031497
        },
        {
          "duration": 0.46875,
          "durationTicks": 288,
          "midi": 57,
          "name": "A3",
          "ticks": 75552,
          "time": 122.96875,
          "velocity": 0.7874015748031497
        },
        {
          "duration": 0.3125,
          "durationTicks": 192,
          "midi": 36,
          "name": "C2",
          "ticks": 75840,
          "time": 123.4375,
          "velocity": 0.7874015748031497
        },
        {
          "duration": 0.3125,
          "durationTicks": 192,
          "midi": 57,
          "name": "A3",
          "ticks": 75840,
          "time": 123.4375,
          "velocity": 0.7874015748031497
        },
        {
          "duration": 1.25,
          "durationTicks": 768,
          "midi": 57,
          "name": "A3",
          "ticks": 76032,
          "time": 123.75,
          "velocity": 0.7874015748031497
        },
        {
          "duration": 5.15625,
          "durationTicks": 3168,
          "midi": 36,
          "name": "C2",
          "ticks": 76032,
          "time": 123.75,
          "velocity": 0.7874015748031497
        },
        {
          "duration": 4.375,
          "durationTicks": 2688,
          "midi": 40,
          "name": "E2",
          "ticks": 76416,
          "time": 124.375,
          "velocity": 0.7874015748031497
        },
        {
          "duration": 5,
          "durationTicks": 3072,
          "midi": 57,
          "name": "A3",
          "ticks": 76800,
          "time": 125,
          "velocity": 0.6850393700787402
        },
        {
          "duration": 0.15625,
          "durationTicks": 96,
          "midi": 40,
          "name": "E2",
          "ticks": 79104,
          "time": 128.75,
          "velocity": 0.7165354330708661
        },
        {
          "duration": 0.15625,
          "durationTicks": 96,
          "midi": 40,
          "name": "E2",
          "ticks": 79200,
          "time": 128.90625,
          "velocity": 0.7322834645669292
        },
        {
          "duration": 0.15625,
          "durationTicks": 96,
          "midi": 40,
          "name": "E2",
          "ticks": 79296,
          "time": 129.0625,
          "velocity": 0.7322834645669292
        },
        {
          "duration": 0.15625,
          "durationTicks": 96,
          "midi": 40,
          "name": "E2",
          "ticks": 79392,
          "time": 129.21875,
          "velocity": 0.7637795275590551
        },
        {
          "duration": 0,
          "durationTicks": 0,
          "midi": 40,
          "name": "E2",
          "ticks": 79488,
          "time": 129.375,
          "velocity": 0.7795275590551181
        },
        {
          "duration": 0.13671875,
          "durationTicks": 84,
          "midi": 40,
          "name": "E2",
          "ticks": 79500,
          "time": 129.39453125,
          "velocity": 0.7637795275590551
        },
        {
          "duration": 0.01953125,
          "durationTicks": 12,
          "midi": 40,
          "name": "E2",
          "ticks": 79584,
          "time": 129.53125,
          "velocity": 0.7795275590551181
        },
        {
          "duration": 0.15625,
          "durationTicks": 96,
          "midi": 40,
          "name": "E2",
          "ticks": 79596,
          "time": 129.55078125,
          "velocity": 0.7874015748031497
        },
        {
          "duration": 0.15625,
          "durationTicks": 96,
          "midi": 40,
          "name": "E2",
          "ticks": 79680,
          "time": 129.6875,
          "velocity": 0.7874015748031497
        },
        {
          "duration": 0.13671875,
          "durationTicks": 84,
          "midi": 40,
          "name": "E2",
          "ticks": 79776,
          "time": 129.84375,
          "velocity": 0.7874015748031497
        },
        {
          "duration": 0.01953125,
          "durationTicks": 12,
          "midi": 40,
          "name": "E2",
          "ticks": 79860,
          "time": 129.98046875,
          "velocity": 0.7874015748031497
        },
        {
          "duration": 10,
          "durationTicks": 6144,
          "midi": 55,
          "name": "G3",
          "ticks": 79872,
          "time": 130,
          "velocity": 0.7874015748031497
        },
        {
          "duration": 0.3125,
          "durationTicks": 192,
          "midi": 59,
          "name": "B3",
          "ticks": 79872,
          "time": 130,
          "velocity": 0.7874015748031497
        },
        {
          "duration": 0.46875,
          "durationTicks": 288,
          "midi": 36,
          "name": "C2",
          "ticks": 79872,
          "time": 130,
          "velocity": 0.7874015748031497
        },
        {
          "duration": 0.3125,
          "durationTicks": 192,
          "midi": 59,
          "name": "B3",
          "ticks": 80064,
          "time": 130.3125,
          "velocity": 0.6614173228346457
        },
        {
          "duration": 0.78125,
          "durationTicks": 480,
          "midi": 36,
          "name": "C2",
          "ticks": 80160,
          "time": 130.46875,
          "velocity": 0.7874015748031497
        },
        {
          "duration": 0.3125,
          "durationTicks": 192,
          "midi": 59,
          "name": "B3",
          "ticks": 80256,
          "time": 130.625,
          "velocity": 0.7874015748031497
        },
        {
          "duration": 1.25,
          "durationTicks": 768,
          "midi": 40,
          "name": "E2",
          "ticks": 80256,
          "time": 130.625,
          "velocity": 0.7874015748031497
        },
        {
          "duration": 0.3125,
          "durationTicks": 192,
          "midi": 59,
          "name": "B3",
          "ticks": 80448,
          "time": 130.9375,
          "velocity": 0.6614173228346457
        },
        {
          "duration": 0.3125,
          "durationTicks": 192,
          "midi": 59,
          "name": "B3",
          "ticks": 80640,
          "time": 131.25,
          "velocity": 0.7874015748031497
        },
        {
          "duration": 0.46875,
          "durationTicks": 288,
          "midi": 36,
          "name": "C2",
          "ticks": 80640,
          "time": 131.25,
          "velocity": 0.7874015748031497
        },
        {
          "duration": 0.3125,
          "durationTicks": 192,
          "midi": 59,
          "name": "B3",
          "ticks": 80832,
          "time": 131.5625,
          "velocity": 0.6614173228346457
        },
        {
          "duration": 0.78125,
          "durationTicks": 480,
          "midi": 36,
          "name": "C2",
          "ticks": 80928,
          "time": 131.71875,
          "velocity": 0.7874015748031497
        },
        {
          "duration": 0.3125,
          "durationTicks": 192,
          "midi": 59,
          "name": "B3",
          "ticks": 81024,
          "time": 131.875,
          "velocity": 0.7874015748031497
        },
        {
          "duration": 1.25,
          "durationTicks": 768,
          "midi": 40,
          "name": "E2",
          "ticks": 81024,
          "time": 131.875,
          "velocity": 0.7874015748031497
        },
        {
          "duration": 0.3125,
          "durationTicks": 192,
          "midi": 59,
          "name": "B3",
          "ticks": 81216,
          "time": 132.1875,
          "velocity": 0.6614173228346457
        },
        {
          "duration": 0.3125,
          "durationTicks": 192,
          "midi": 59,
          "name": "B3",
          "ticks": 81408,
          "time": 132.5,
          "velocity": 0.7874015748031497
        },
        {
          "duration": 0.3125,
          "durationTicks": 192,
          "midi": 36,
          "name": "C2",
          "ticks": 81408,
          "time": 132.5,
          "velocity": 0.7874015748031497
        },
        {
          "duration": 0.3125,
          "durationTicks": 192,
          "midi": 59,
          "name": "B3",
          "ticks": 81600,
          "time": 132.8125,
          "velocity": 0.6614173228346457
        },
        {
          "duration": 0.9375,
          "durationTicks": 576,
          "midi": 36,
          "name": "C2",
          "ticks": 81600,
          "time": 132.8125,
          "velocity": 0.7874015748031497
        },
        {
          "duration": 0.3125,
          "durationTicks": 192,
          "midi": 59,
          "name": "B3",
          "ticks": 81792,
          "time": 133.125,
          "velocity": 0.7874015748031497
        },
        {
          "duration": 1.25,
          "durationTicks": 768,
          "midi": 40,
          "name": "E2",
          "ticks": 81792,
          "time": 133.125,
          "velocity": 0.7874015748031497
        },
        {
          "duration": 0.3125,
          "durationTicks": 192,
          "midi": 59,
          "name": "B3",
          "ticks": 81984,
          "time": 133.4375,
          "velocity": 0.6614173228346457
        },
        {
          "duration": 1.25,
          "durationTicks": 768,
          "midi": 36,
          "name": "C2",
          "ticks": 82176,
          "time": 133.75,
          "velocity": 0.7874015748031497
        },
        {
          "duration": 0.3125,
          "durationTicks": 192,
          "midi": 59,
          "name": "B3",
          "ticks": 82176,
          "time": 133.75,
          "velocity": 0.7874015748031497
        },
        {
          "duration": 0.3125,
          "durationTicks": 192,
          "midi": 59,
          "name": "B3",
          "ticks": 82368,
          "time": 134.0625,
          "velocity": 0.6614173228346457
        },
        {
          "duration": 0.3125,
          "durationTicks": 192,
          "midi": 59,
          "name": "B3",
          "ticks": 82560,
          "time": 134.375,
          "velocity": 0.7874015748031497
        },
        {
          "duration": 1.25,
          "durationTicks": 768,
          "midi": 40,
          "name": "E2",
          "ticks": 82560,
          "time": 134.375,
          "velocity": 0.7874015748031497
        },
        {
          "duration": 0.3125,
          "durationTicks": 192,
          "midi": 59,
          "name": "B3",
          "ticks": 82752,
          "time": 134.6875,
          "velocity": 0.6614173228346457
        },
        {
          "duration": 0.3125,
          "durationTicks": 192,
          "midi": 59,
          "name": "B3",
          "ticks": 82944,
          "time": 135,
          "velocity": 0.7874015748031497
        },
        {
          "duration": 0.46875,
          "durationTicks": 288,
          "midi": 36,
          "name": "C2",
          "ticks": 82944,
          "time": 135,
          "velocity": 0.7874015748031497
        },
        {
          "duration": 0.3125,
          "durationTicks": 192,
          "midi": 59,
          "name": "B3",
          "ticks": 83136,
          "time": 135.3125,
          "velocity": 0.6614173228346457
        },
        {
          "duration": 0.78125,
          "durationTicks": 480,
          "midi": 36,
          "name": "C2",
          "ticks": 83232,
          "time": 135.46875,
          "velocity": 0.7874015748031497
        },
        {
          "duration": 1.25,
          "durationTicks": 768,
          "midi": 40,
          "name": "E2",
          "ticks": 83328,
          "time": 135.625,
          "velocity": 0.7874015748031497
        },
        {
          "duration": 0.3125,
          "durationTicks": 192,
          "midi": 59,
          "name": "B3",
          "ticks": 83328,
          "time": 135.625,
          "velocity": 0.7874015748031497
        },
        {
          "duration": 0.3125,
          "durationTicks": 192,
          "midi": 59,
          "name": "B3",
          "ticks": 83520,
          "time": 135.9375,
          "velocity": 0.6614173228346457
        },
        {
          "duration": 0.46875,
          "durationTicks": 288,
          "midi": 36,
          "name": "C2",
          "ticks": 83712,
          "time": 136.25,
          "velocity": 0.7874015748031497
        },
        {
          "duration": 0.3125,
          "durationTicks": 192,
          "midi": 59,
          "name": "B3",
          "ticks": 83712,
          "time": 136.25,
          "velocity": 0.7874015748031497
        },
        {
          "duration": 0.3125,
          "durationTicks": 192,
          "midi": 59,
          "name": "B3",
          "ticks": 83904,
          "time": 136.5625,
          "velocity": 0.6614173228346457
        },
        {
          "duration": 0.78125,
          "durationTicks": 480,
          "midi": 36,
          "name": "C2",
          "ticks": 84000,
          "time": 136.71875,
          "velocity": 0.7874015748031497
        },
        {
          "duration": 1.25,
          "durationTicks": 768,
          "midi": 40,
          "name": "E2",
          "ticks": 84096,
          "time": 136.875,
          "velocity": 0.7874015748031497
        },
        {
          "duration": 0.3125,
          "durationTicks": 192,
          "midi": 59,
          "name": "B3",
          "ticks": 84096,
          "time": 136.875,
          "velocity": 0.7874015748031497
        },
        {
          "duration": 0.3125,
          "durationTicks": 192,
          "midi": 59,
          "name": "B3",
          "ticks": 84288,
          "time": 137.1875,
          "velocity": 0.6614173228346457
        },
        {
          "duration": 0.3125,
          "durationTicks": 192,
          "midi": 36,
          "name": "C2",
          "ticks": 84480,
          "time": 137.5,
          "velocity": 0.7874015748031497
        },
        {
          "duration": 0.3125,
          "durationTicks": 192,
          "midi": 59,
          "name": "B3",
          "ticks": 84480,
          "time": 137.5,
          "velocity": 0.7874015748031497
        },
        {
          "duration": 0.3125,
          "durationTicks": 192,
          "midi": 59,
          "name": "B3",
          "ticks": 84672,
          "time": 137.8125,
          "velocity": 0.6614173228346457
        },
        {
          "duration": 0.9375,
          "durationTicks": 576,
          "midi": 36,
          "name": "C2",
          "ticks": 84672,
          "time": 137.8125,
          "velocity": 0.7874015748031497
        },
        {
          "duration": 0.3125,
          "durationTicks": 192,
          "midi": 59,
          "name": "B3",
          "ticks": 84864,
          "time": 138.125,
          "velocity": 0.7874015748031497
        },
        {
          "duration": 1.25,
          "durationTicks": 768,
          "midi": 40,
          "name": "E2",
          "ticks": 84864,
          "time": 138.125,
          "velocity": 0.7874015748031497
        },
        {
          "duration": 0.3125,
          "durationTicks": 192,
          "midi": 59,
          "name": "B3",
          "ticks": 85056,
          "time": 138.4375,
          "velocity": 0.6614173228346457
        },
        {
          "duration": 1.25,
          "durationTicks": 768,
          "midi": 36,
          "name": "C2",
          "ticks": 85248,
          "time": 138.75,
          "velocity": 0.7874015748031497
        },
        {
          "duration": 0.3125,
          "durationTicks": 192,
          "midi": 59,
          "name": "B3",
          "ticks": 85248,
          "time": 138.75,
          "velocity": 0.7874015748031497
        },
        {
          "duration": 0.3125,
          "durationTicks": 192,
          "midi": 59,
          "name": "B3",
          "ticks": 85440,
          "time": 139.0625,
          "velocity": 0.6614173228346457
        },
        {
          "duration": 11.25,
          "durationTicks": 6912,
          "midi": 40,
          "name": "E2",
          "ticks": 85632,
          "time": 139.375,
          "velocity": 0.7874015748031497
        },
        {
          "duration": 0.3125,
          "durationTicks": 192,
          "midi": 59,
          "name": "B3",
          "ticks": 85632,
          "time": 139.375,
          "velocity": 0.7874015748031497
        },
        {
          "duration": 0.3125,
          "durationTicks": 192,
          "midi": 59,
          "name": "B3",
          "ticks": 85824,
          "time": 139.6875,
          "velocity": 0.6614173228346457
        },
        {
          "duration": 0.3125,
          "durationTicks": 192,
          "midi": 59,
          "name": "B3",
          "ticks": 86016,
          "time": 140,
          "velocity": 0.7874015748031497
        },
        {
          "duration": 0.625,
          "durationTicks": 384,
          "midi": 36,
          "name": "C2",
          "ticks": 86016,
          "time": 140,
          "velocity": 0.7874015748031497
        },
        {
          "duration": 10,
          "durationTicks": 6144,
          "midi": 55,
          "name": "G3",
          "ticks": 86016,
          "time": 140,
          "velocity": 0.7874015748031497
        },
        {
          "duration": 0.3125,
          "durationTicks": 192,
          "midi": 59,
          "name": "B3",
          "ticks": 86208,
          "time": 140.3125,
          "velocity": 0.6614173228346457
        },
        {
          "duration": 0.3125,
          "durationTicks": 192,
          "midi": 59,
          "name": "B3",
          "ticks": 86400,
          "time": 140.625,
          "velocity": 0.7874015748031497
        },
        {
          "duration": 0.625,
          "durationTicks": 384,
          "midi": 36,
          "name": "C2",
          "ticks": 86400,
          "time": 140.625,
          "velocity": 0.7874015748031497
        },
        {
          "duration": 0.3125,
          "durationTicks": 192,
          "midi": 59,
          "name": "B3",
          "ticks": 86592,
          "time": 140.9375,
          "velocity": 0.6614173228346457
        },
        {
          "duration": 0.625,
          "durationTicks": 384,
          "midi": 36,
          "name": "C2",
          "ticks": 86784,
          "time": 141.25,
          "velocity": 0.7874015748031497
        },
        {
          "duration": 0.3125,
          "durationTicks": 192,
          "midi": 59,
          "name": "B3",
          "ticks": 86784,
          "time": 141.25,
          "velocity": 0.7874015748031497
        },
        {
          "duration": 0.3125,
          "durationTicks": 192,
          "midi": 59,
          "name": "B3",
          "ticks": 86976,
          "time": 141.5625,
          "velocity": 0.6614173228346457
        },
        {
          "duration": 0.625,
          "durationTicks": 384,
          "midi": 36,
          "name": "C2",
          "ticks": 87168,
          "time": 141.875,
          "velocity": 0.7874015748031497
        },
        {
          "duration": 0.3125,
          "durationTicks": 192,
          "midi": 59,
          "name": "B3",
          "ticks": 87168,
          "time": 141.875,
          "velocity": 0.7874015748031497
        },
        {
          "duration": 0.3125,
          "durationTicks": 192,
          "midi": 59,
          "name": "B3",
          "ticks": 87360,
          "time": 142.1875,
          "velocity": 0.6614173228346457
        },
        {
          "duration": 0.3125,
          "durationTicks": 192,
          "midi": 59,
          "name": "B3",
          "ticks": 87552,
          "time": 142.5,
          "velocity": 0.7874015748031497
        },
        {
          "duration": 0.625,
          "durationTicks": 384,
          "midi": 36,
          "name": "C2",
          "ticks": 87552,
          "time": 142.5,
          "velocity": 0.7874015748031497
        },
        {
          "duration": 0.3125,
          "durationTicks": 192,
          "midi": 59,
          "name": "B3",
          "ticks": 87744,
          "time": 142.8125,
          "velocity": 0.6614173228346457
        },
        {
          "duration": 0.625,
          "durationTicks": 384,
          "midi": 36,
          "name": "C2",
          "ticks": 87936,
          "time": 143.125,
          "velocity": 0.7874015748031497
        },
        {
          "duration": 0.3125,
          "durationTicks": 192,
          "midi": 59,
          "name": "B3",
          "ticks": 87936,
          "time": 143.125,
          "velocity": 0.7874015748031497
        },
        {
          "duration": 0.3125,
          "durationTicks": 192,
          "midi": 59,
          "name": "B3",
          "ticks": 88128,
          "time": 143.4375,
          "velocity": 0.6614173228346457
        },
        {
          "duration": 0.3125,
          "durationTicks": 192,
          "midi": 59,
          "name": "B3",
          "ticks": 88320,
          "time": 143.75,
          "velocity": 0.7874015748031497
        },
        {
          "duration": 0.625,
          "durationTicks": 384,
          "midi": 36,
          "name": "C2",
          "ticks": 88320,
          "time": 143.75,
          "velocity": 0.7874015748031497
        },
        {
          "duration": 0.3125,
          "durationTicks": 192,
          "midi": 59,
          "name": "B3",
          "ticks": 88512,
          "time": 144.0625,
          "velocity": 0.6614173228346457
        },
        {
          "duration": 0.3125,
          "durationTicks": 192,
          "midi": 59,
          "name": "B3",
          "ticks": 88704,
          "time": 144.375,
          "velocity": 0.7874015748031497
        },
        {
          "duration": 0.625,
          "durationTicks": 384,
          "midi": 36,
          "name": "C2",
          "ticks": 88704,
          "time": 144.375,
          "velocity": 0.7874015748031497
        },
        {
          "duration": 0.3125,
          "durationTicks": 192,
          "midi": 59,
          "name": "B3",
          "ticks": 88896,
          "time": 144.6875,
          "velocity": 0.6614173228346457
        },
        {
          "duration": 0.3125,
          "durationTicks": 192,
          "midi": 59,
          "name": "B3",
          "ticks": 89088,
          "time": 145,
          "velocity": 0.7874015748031497
        },
        {
          "duration": 0.625,
          "durationTicks": 384,
          "midi": 36,
          "name": "C2",
          "ticks": 89088,
          "time": 145,
          "velocity": 0.7874015748031497
        },
        {
          "duration": 0.3125,
          "durationTicks": 192,
          "midi": 59,
          "name": "B3",
          "ticks": 89280,
          "time": 145.3125,
          "velocity": 0.6614173228346457
        },
        {
          "duration": 0.3125,
          "durationTicks": 192,
          "midi": 59,
          "name": "B3",
          "ticks": 89472,
          "time": 145.625,
          "velocity": 0.7874015748031497
        },
        {
          "duration": 0.625,
          "durationTicks": 384,
          "midi": 36,
          "name": "C2",
          "ticks": 89472,
          "time": 145.625,
          "velocity": 0.7874015748031497
        },
        {
          "duration": 0.3125,
          "durationTicks": 192,
          "midi": 59,
          "name": "B3",
          "ticks": 89664,
          "time": 145.9375,
          "velocity": 0.6614173228346457
        },
        {
          "duration": 0.625,
          "durationTicks": 384,
          "midi": 36,
          "name": "C2",
          "ticks": 89856,
          "time": 146.25,
          "velocity": 0.7874015748031497
        },
        {
          "duration": 0.3125,
          "durationTicks": 192,
          "midi": 59,
          "name": "B3",
          "ticks": 89856,
          "time": 146.25,
          "velocity": 0.7874015748031497
        },
        {
          "duration": 0.3125,
          "durationTicks": 192,
          "midi": 59,
          "name": "B3",
          "ticks": 90048,
          "time": 146.5625,
          "velocity": 0.6614173228346457
        },
        {
          "duration": 0.3125,
          "durationTicks": 192,
          "midi": 59,
          "name": "B3",
          "ticks": 90240,
          "time": 146.875,
          "velocity": 0.7874015748031497
        },
        {
          "duration": 0.625,
          "durationTicks": 384,
          "midi": 36,
          "name": "C2",
          "ticks": 90240,
          "time": 146.875,
          "velocity": 0.7874015748031497
        },
        {
          "duration": 0.3125,
          "durationTicks": 192,
          "midi": 59,
          "name": "B3",
          "ticks": 90432,
          "time": 147.1875,
          "velocity": 0.6614173228346457
        },
        {
          "duration": 0.3125,
          "durationTicks": 192,
          "midi": 59,
          "name": "B3",
          "ticks": 90624,
          "time": 147.5,
          "velocity": 0.7874015748031497
        },
        {
          "duration": 0.625,
          "durationTicks": 384,
          "midi": 36,
          "name": "C2",
          "ticks": 90624,
          "time": 147.5,
          "velocity": 0.7874015748031497
        },
        {
          "duration": 0.3125,
          "durationTicks": 192,
          "midi": 59,
          "name": "B3",
          "ticks": 90816,
          "time": 147.8125,
          "velocity": 0.6614173228346457
        },
        {
          "duration": 0.625,
          "durationTicks": 384,
          "midi": 36,
          "name": "C2",
          "ticks": 91008,
          "time": 148.125,
          "velocity": 0.7874015748031497
        },
        {
          "duration": 0.3125,
          "durationTicks": 192,
          "midi": 59,
          "name": "B3",
          "ticks": 91008,
          "time": 148.125,
          "velocity": 0.7874015748031497
        },
        {
          "duration": 0.3125,
          "durationTicks": 192,
          "midi": 59,
          "name": "B3",
          "ticks": 91200,
          "time": 148.4375,
          "velocity": 0.6614173228346457
        },
        {
          "duration": 0.3125,
          "durationTicks": 192,
          "midi": 59,
          "name": "B3",
          "ticks": 91392,
          "time": 148.75,
          "velocity": 0.7874015748031497
        },
        {
          "duration": 0.625,
          "durationTicks": 384,
          "midi": 36,
          "name": "C2",
          "ticks": 91392,
          "time": 148.75,
          "velocity": 0.7874015748031497
        },
        {
          "duration": 0.3125,
          "durationTicks": 192,
          "midi": 59,
          "name": "B3",
          "ticks": 91584,
          "time": 149.0625,
          "velocity": 0.6614173228346457
        },
        {
          "duration": 0.3125,
          "durationTicks": 192,
          "midi": 36,
          "name": "C2",
          "ticks": 91776,
          "time": 149.375,
          "velocity": 0.7874015748031497
        },
        {
          "duration": 0.3125,
          "durationTicks": 192,
          "midi": 59,
          "name": "B3",
          "ticks": 91776,
          "time": 149.375,
          "velocity": 0.7874015748031497
        },
        {
          "duration": 0.3125,
          "durationTicks": 192,
          "midi": 59,
          "name": "B3",
          "ticks": 91968,
          "time": 149.6875,
          "velocity": 0.6614173228346457
        },
        {
          "duration": 0.3125,
          "durationTicks": 192,
          "midi": 36,
          "name": "C2",
          "ticks": 91968,
          "time": 149.6875,
          "velocity": 0.7874015748031497
        },
        {
          "duration": 0.3125,
          "durationTicks": 192,
          "midi": 59,
          "name": "B3",
          "ticks": 92160,
          "time": 150,
          "velocity": 0.6614173228346457
        },
        {
          "duration": 0.625,
          "durationTicks": 384,
          "midi": 36,
          "name": "C2",
          "ticks": 92160,
          "time": 150,
          "velocity": 0.7874015748031497
        },
        {
          "duration": 9.6875,
          "durationTicks": 5952,
          "midi": 55,
          "name": "G3",
          "ticks": 92160,
          "time": 150,
          "velocity": 0.7874015748031497
        },
        {
          "duration": 0.3125,
          "durationTicks": 192,
          "midi": 59,
          "name": "B3",
          "ticks": 92352,
          "time": 150.3125,
          "velocity": 0.7874015748031497
        },
        {
          "duration": 1.25,
          "durationTicks": 768,
          "midi": 40,
          "name": "E2",
          "ticks": 92544,
          "time": 150.625,
          "velocity": 0.7874015748031497
        },
        {
          "duration": 0.625,
          "durationTicks": 384,
          "midi": 36,
          "name": "C2",
          "ticks": 92544,
          "time": 150.625,
          "velocity": 0.7874015748031497
        },
        {
          "duration": 0.3125,
          "durationTicks": 192,
          "midi": 59,
          "name": "B3",
          "ticks": 92544,
          "time": 150.625,
          "velocity": 0.6614173228346457
        },
        {
          "duration": 0.3125,
          "durationTicks": 192,
          "midi": 59,
          "name": "B3",
          "ticks": 92736,
          "time": 150.9375,
          "velocity": 0.7874015748031497
        },
        {
          "duration": 0.3125,
          "durationTicks": 192,
          "midi": 59,
          "name": "B3",
          "ticks": 92928,
          "time": 151.25,
          "velocity": 0.6614173228346457
        },
        {
          "duration": 0.625,
          "durationTicks": 384,
          "midi": 36,
          "name": "C2",
          "ticks": 92928,
          "time": 151.25,
          "velocity": 0.7874015748031497
        },
        {
          "duration": 0.3125,
          "durationTicks": 192,
          "midi": 59,
          "name": "B3",
          "ticks": 93120,
          "time": 151.5625,
          "velocity": 0.7874015748031497
        },
        {
          "duration": 0.3125,
          "durationTicks": 192,
          "midi": 59,
          "name": "B3",
          "ticks": 93312,
          "time": 151.875,
          "velocity": 0.6614173228346457
        },
        {
          "duration": 1.25,
          "durationTicks": 768,
          "midi": 40,
          "name": "E2",
          "ticks": 93312,
          "time": 151.875,
          "velocity": 0.7874015748031497
        },
        {
          "duration": 0.625,
          "durationTicks": 384,
          "midi": 36,
          "name": "C2",
          "ticks": 93312,
          "time": 151.875,
          "velocity": 0.7874015748031497
        },
        {
          "duration": 0.3125,
          "durationTicks": 192,
          "midi": 59,
          "name": "B3",
          "ticks": 93504,
          "time": 152.1875,
          "velocity": 0.7874015748031497
        },
        {
          "duration": 0.3125,
          "durationTicks": 192,
          "midi": 59,
          "name": "B3",
          "ticks": 93696,
          "time": 152.5,
          "velocity": 0.6614173228346457
        },
        {
          "duration": 0.625,
          "durationTicks": 384,
          "midi": 36,
          "name": "C2",
          "ticks": 93696,
          "time": 152.5,
          "velocity": 0.7874015748031497
        },
        {
          "duration": 0.3125,
          "durationTicks": 192,
          "midi": 59,
          "name": "B3",
          "ticks": 93888,
          "time": 152.8125,
          "velocity": 0.7874015748031497
        },
        {
          "duration": 0.78125,
          "durationTicks": 480,
          "midi": 40,
          "name": "E2",
          "ticks": 94080,
          "time": 153.125,
          "velocity": 0.7874015748031497
        },
        {
          "duration": 0.3125,
          "durationTicks": 192,
          "midi": 59,
          "name": "B3",
          "ticks": 94080,
          "time": 153.125,
          "velocity": 0.6614173228346457
        },
        {
          "duration": 0.625,
          "durationTicks": 384,
          "midi": 36,
          "name": "C2",
          "ticks": 94080,
          "time": 153.125,
          "velocity": 0.7874015748031497
        },
        {
          "duration": 0.3125,
          "durationTicks": 192,
          "midi": 59,
          "name": "B3",
          "ticks": 94272,
          "time": 153.4375,
          "velocity": 0.7874015748031497
        },
        {
          "duration": 0.3125,
          "durationTicks": 192,
          "midi": 59,
          "name": "B3",
          "ticks": 94464,
          "time": 153.75,
          "velocity": 0.6614173228346457
        },
        {
          "duration": 0.625,
          "durationTicks": 384,
          "midi": 36,
          "name": "C2",
          "ticks": 94464,
          "time": 153.75,
          "velocity": 0.7874015748031497
        },
        {
          "duration": 0.46875,
          "durationTicks": 288,
          "midi": 40,
          "name": "E2",
          "ticks": 94560,
          "time": 153.90625,
          "velocity": 0.7874015748031497
        },
        {
          "duration": 0.3125,
          "durationTicks": 192,
          "midi": 59,
          "name": "B3",
          "ticks": 94656,
          "time": 154.0625,
          "velocity": 0.7874015748031497
        },
        {
          "duration": 0.625,
          "durationTicks": 384,
          "midi": 36,
          "name": "C2",
          "ticks": 94848,
          "time": 154.375,
          "velocity": 0.7874015748031497
        },
        {
          "duration": 1.25,
          "durationTicks": 768,
          "midi": 40,
          "name": "E2",
          "ticks": 94848,
          "time": 154.375,
          "velocity": 0.7874015748031497
        },
        {
          "duration": 0.3125,
          "durationTicks": 192,
          "midi": 59,
          "name": "B3",
          "ticks": 94848,
          "time": 154.375,
          "velocity": 0.6614173228346457
        },
        {
          "duration": 0.3125,
          "durationTicks": 192,
          "midi": 59,
          "name": "B3",
          "ticks": 95040,
          "time": 154.6875,
          "velocity": 0.7874015748031497
        },
        {
          "duration": 0.3125,
          "durationTicks": 192,
          "midi": 59,
          "name": "B3",
          "ticks": 95232,
          "time": 155,
          "velocity": 0.6614173228346457
        },
        {
          "duration": 0.625,
          "durationTicks": 384,
          "midi": 36,
          "name": "C2",
          "ticks": 95232,
          "time": 155,
          "velocity": 0.7874015748031497
        },
        {
          "duration": 0.3125,
          "durationTicks": 192,
          "midi": 59,
          "name": "B3",
          "ticks": 95424,
          "time": 155.3125,
          "velocity": 0.7874015748031497
        },
        {
          "duration": 0.3125,
          "durationTicks": 192,
          "midi": 59,
          "name": "B3",
          "ticks": 95616,
          "time": 155.625,
          "velocity": 0.6614173228346457
        },
        {
          "duration": 0.625,
          "durationTicks": 384,
          "midi": 36,
          "name": "C2",
          "ticks": 95616,
          "time": 155.625,
          "velocity": 0.7874015748031497
        },
        {
          "duration": 1.25,
          "durationTicks": 768,
          "midi": 40,
          "name": "E2",
          "ticks": 95616,
          "time": 155.625,
          "velocity": 0.7874015748031497
        },
        {
          "duration": 0.3125,
          "durationTicks": 192,
          "midi": 59,
          "name": "B3",
          "ticks": 95808,
          "time": 155.9375,
          "velocity": 0.7874015748031497
        },
        {
          "duration": 0.3125,
          "durationTicks": 192,
          "midi": 59,
          "name": "B3",
          "ticks": 96000,
          "time": 156.25,
          "velocity": 0.6614173228346457
        },
        {
          "duration": 0.625,
          "durationTicks": 384,
          "midi": 36,
          "name": "C2",
          "ticks": 96000,
          "time": 156.25,
          "velocity": 0.7874015748031497
        },
        {
          "duration": 0.3125,
          "durationTicks": 192,
          "midi": 59,
          "name": "B3",
          "ticks": 96192,
          "time": 156.5625,
          "velocity": 0.7874015748031497
        },
        {
          "duration": 0.625,
          "durationTicks": 384,
          "midi": 36,
          "name": "C2",
          "ticks": 96384,
          "time": 156.875,
          "velocity": 0.7874015748031497
        },
        {
          "duration": 1.25,
          "durationTicks": 768,
          "midi": 40,
          "name": "E2",
          "ticks": 96384,
          "time": 156.875,
          "velocity": 0.7874015748031497
        },
        {
          "duration": 0.3125,
          "durationTicks": 192,
          "midi": 59,
          "name": "B3",
          "ticks": 96384,
          "time": 156.875,
          "velocity": 0.6614173228346457
        },
        {
          "duration": 0.3125,
          "durationTicks": 192,
          "midi": 59,
          "name": "B3",
          "ticks": 96576,
          "time": 157.1875,
          "velocity": 0.7874015748031497
        },
        {
          "duration": 0.3125,
          "durationTicks": 192,
          "midi": 59,
          "name": "B3",
          "ticks": 96768,
          "time": 157.5,
          "velocity": 0.6614173228346457
        },
        {
          "duration": 0.625,
          "durationTicks": 384,
          "midi": 36,
          "name": "C2",
          "ticks": 96768,
          "time": 157.5,
          "velocity": 0.7874015748031497
        },
        {
          "duration": 0.3125,
          "durationTicks": 192,
          "midi": 59,
          "name": "B3",
          "ticks": 96960,
          "time": 157.8125,
          "velocity": 0.7874015748031497
        },
        {
          "duration": 0.78125,
          "durationTicks": 480,
          "midi": 40,
          "name": "E2",
          "ticks": 97152,
          "time": 158.125,
          "velocity": 0.7874015748031497
        },
        {
          "duration": 0.3125,
          "durationTicks": 192,
          "midi": 59,
          "name": "B3",
          "ticks": 97152,
          "time": 158.125,
          "velocity": 0.6614173228346457
        },
        {
          "duration": 0.625,
          "durationTicks": 384,
          "midi": 36,
          "name": "C2",
          "ticks": 97152,
          "time": 158.125,
          "velocity": 0.7874015748031497
        },
        {
          "duration": 0.3125,
          "durationTicks": 192,
          "midi": 59,
          "name": "B3",
          "ticks": 97344,
          "time": 158.4375,
          "velocity": 0.7874015748031497
        },
        {
          "duration": 0.3125,
          "durationTicks": 192,
          "midi": 59,
          "name": "B3",
          "ticks": 97536,
          "time": 158.75,
          "velocity": 0.6614173228346457
        },
        {
          "duration": 0.625,
          "durationTicks": 384,
          "midi": 36,
          "name": "C2",
          "ticks": 97536,
          "time": 158.75,
          "velocity": 0.7874015748031497
        },
        {
          "duration": 0.46875,
          "durationTicks": 288,
          "midi": 40,
          "name": "E2",
          "ticks": 97632,
          "time": 158.90625,
          "velocity": 0.7874015748031497
        },
        {
          "duration": 0.3125,
          "durationTicks": 192,
          "midi": 59,
          "name": "B3",
          "ticks": 97728,
          "time": 159.0625,
          "velocity": 0.7874015748031497
        },
        {
          "duration": 0.3125,
          "durationTicks": 192,
          "midi": 40,
          "name": "E2",
          "ticks": 97920,
          "time": 159.375,
          "velocity": 0.7874015748031497
        },
        {
          "duration": 0.625,
          "durationTicks": 384,
          "midi": 59,
          "name": "B3",
          "ticks": 97920,
          "time": 159.375,
          "velocity": 0.6614173228346457
        },
        {
          "duration": 0.3125,
          "durationTicks": 192,
          "midi": 36,
          "name": "C2",
          "ticks": 97920,
          "time": 159.375,
          "velocity": 0.7874015748031497
        },
        {
          "duration": 0.3125,
          "durationTicks": 192,
          "midi": 55,
          "name": "G3",
          "ticks": 98112,
          "time": 159.6875,
          "velocity": 0.7874015748031497
        },
        {
          "duration": 0.3125,
          "durationTicks": 192,
          "midi": 36,
          "name": "C2",
          "ticks": 98112,
          "time": 159.6875,
          "velocity": 0.7874015748031497
        },
        {
          "duration": 0.09765625,
          "durationTicks": 60,
          "midi": 40,
          "name": "E2",
          "ticks": 98112,
          "time": 159.6875,
          "velocity": 0.7874015748031497
        },
        {
          "duration": 0.05859375,
          "durationTicks": 36,
          "midi": 40,
          "name": "E2",
          "ticks": 98172,
          "time": 159.78515625,
          "velocity": 0.7874015748031497
        },
        {
          "duration": 0.15625,
          "durationTicks": 96,
          "midi": 40,
          "name": "E2",
          "ticks": 98208,
          "time": 159.84375,
          "velocity": 0.7874015748031497
        },
        {
          "duration": 0.625,
          "durationTicks": 384,
          "midi": 40,
          "name": "E2",
          "ticks": 98268,
          "time": 159.94140625,
          "velocity": 0.7874015748031497
        },
        {
          "duration": 9.6875,
          "durationTicks": 5952,
          "midi": 55,
          "name": "G3",
          "ticks": 98304,
          "time": 160,
          "velocity": 0.7874015748031497
        },
        {
          "duration": 0.3125,
          "durationTicks": 192,
          "midi": 59,
          "name": "B3",
          "ticks": 98304,
          "time": 160,
          "velocity": 0.6614173228346457
        },
        {
          "duration": 0.625,
          "durationTicks": 384,
          "midi": 36,
          "name": "C2",
          "ticks": 98304,
          "time": 160,
          "velocity": 0.7874015748031497
        },
        {
          "duration": 0.3125,
          "durationTicks": 192,
          "midi": 59,
          "name": "B3",
          "ticks": 98496,
          "time": 160.3125,
          "velocity": 0.7874015748031497
        },
        {
          "duration": 0.3125,
          "durationTicks": 192,
          "midi": 59,
          "name": "B3",
          "ticks": 98688,
          "time": 160.625,
          "velocity": 0.6614173228346457
        },
        {
          "duration": 1.25,
          "durationTicks": 768,
          "midi": 40,
          "name": "E2",
          "ticks": 98688,
          "time": 160.625,
          "velocity": 0.7874015748031497
        },
        {
          "duration": 0.625,
          "durationTicks": 384,
          "midi": 36,
          "name": "C2",
          "ticks": 98688,
          "time": 160.625,
          "velocity": 0.7874015748031497
        },
        {
          "duration": 0.3125,
          "durationTicks": 192,
          "midi": 59,
          "name": "B3",
          "ticks": 98880,
          "time": 160.9375,
          "velocity": 0.7874015748031497
        },
        {
          "duration": 0.3125,
          "durationTicks": 192,
          "midi": 59,
          "name": "B3",
          "ticks": 99072,
          "time": 161.25,
          "velocity": 0.6614173228346457
        },
        {
          "duration": 0.625,
          "durationTicks": 384,
          "midi": 36,
          "name": "C2",
          "ticks": 99072,
          "time": 161.25,
          "velocity": 0.7874015748031497
        },
        {
          "duration": 0.3125,
          "durationTicks": 192,
          "midi": 59,
          "name": "B3",
          "ticks": 99264,
          "time": 161.5625,
          "velocity": 0.7874015748031497
        },
        {
          "duration": 0.625,
          "durationTicks": 384,
          "midi": 36,
          "name": "C2",
          "ticks": 99456,
          "time": 161.875,
          "velocity": 0.7874015748031497
        },
        {
          "duration": 1.25,
          "durationTicks": 768,
          "midi": 40,
          "name": "E2",
          "ticks": 99456,
          "time": 161.875,
          "velocity": 0.7874015748031497
        },
        {
          "duration": 0.3125,
          "durationTicks": 192,
          "midi": 59,
          "name": "B3",
          "ticks": 99456,
          "time": 161.875,
          "velocity": 0.6614173228346457
        },
        {
          "duration": 0.3125,
          "durationTicks": 192,
          "midi": 59,
          "name": "B3",
          "ticks": 99648,
          "time": 162.1875,
          "velocity": 0.7874015748031497
        },
        {
          "duration": 0.3125,
          "durationTicks": 192,
          "midi": 59,
          "name": "B3",
          "ticks": 99840,
          "time": 162.5,
          "velocity": 0.6614173228346457
        },
        {
          "duration": 0.625,
          "durationTicks": 384,
          "midi": 36,
          "name": "C2",
          "ticks": 99840,
          "time": 162.5,
          "velocity": 0.7874015748031497
        },
        {
          "duration": 0.3125,
          "durationTicks": 192,
          "midi": 59,
          "name": "B3",
          "ticks": 100032,
          "time": 162.8125,
          "velocity": 0.7874015748031497
        },
        {
          "duration": 0.3125,
          "durationTicks": 192,
          "midi": 59,
          "name": "B3",
          "ticks": 100224,
          "time": 163.125,
          "velocity": 0.6614173228346457
        },
        {
          "duration": 0.625,
          "durationTicks": 384,
          "midi": 36,
          "name": "C2",
          "ticks": 100224,
          "time": 163.125,
          "velocity": 0.7874015748031497
        },
        {
          "duration": 0.78125,
          "durationTicks": 480,
          "midi": 40,
          "name": "E2",
          "ticks": 100224,
          "time": 163.125,
          "velocity": 0.7874015748031497
        },
        {
          "duration": 0.3125,
          "durationTicks": 192,
          "midi": 59,
          "name": "B3",
          "ticks": 100416,
          "time": 163.4375,
          "velocity": 0.7874015748031497
        },
        {
          "duration": 0.3125,
          "durationTicks": 192,
          "midi": 59,
          "name": "B3",
          "ticks": 100608,
          "time": 163.75,
          "velocity": 0.6614173228346457
        },
        {
          "duration": 0.625,
          "durationTicks": 384,
          "midi": 36,
          "name": "C2",
          "ticks": 100608,
          "time": 163.75,
          "velocity": 0.7874015748031497
        },
        {
          "duration": 0.46875,
          "durationTicks": 288,
          "midi": 40,
          "name": "E2",
          "ticks": 100704,
          "time": 163.90625,
          "velocity": 0.7874015748031497
        },
        {
          "duration": 0.3125,
          "durationTicks": 192,
          "midi": 59,
          "name": "B3",
          "ticks": 100800,
          "time": 164.0625,
          "velocity": 0.7874015748031497
        },
        {
          "duration": 0.625,
          "durationTicks": 384,
          "midi": 36,
          "name": "C2",
          "ticks": 100992,
          "time": 164.375,
          "velocity": 0.7874015748031497
        },
        {
          "duration": 0.3125,
          "durationTicks": 192,
          "midi": 59,
          "name": "B3",
          "ticks": 100992,
          "time": 164.375,
          "velocity": 0.6614173228346457
        },
        {
          "duration": 1.25,
          "durationTicks": 768,
          "midi": 40,
          "name": "E2",
          "ticks": 100992,
          "time": 164.375,
          "velocity": 0.7874015748031497
        },
        {
          "duration": 0.3125,
          "durationTicks": 192,
          "midi": 59,
          "name": "B3",
          "ticks": 101184,
          "time": 164.6875,
          "velocity": 0.7874015748031497
        },
        {
          "duration": 0.3125,
          "durationTicks": 192,
          "midi": 59,
          "name": "B3",
          "ticks": 101376,
          "time": 165,
          "velocity": 0.6614173228346457
        },
        {
          "duration": 0.625,
          "durationTicks": 384,
          "midi": 36,
          "name": "C2",
          "ticks": 101376,
          "time": 165,
          "velocity": 0.7874015748031497
        },
        {
          "duration": 0.3125,
          "durationTicks": 192,
          "midi": 59,
          "name": "B3",
          "ticks": 101568,
          "time": 165.3125,
          "velocity": 0.7874015748031497
        },
        {
          "duration": 0.625,
          "durationTicks": 384,
          "midi": 36,
          "name": "C2",
          "ticks": 101760,
          "time": 165.625,
          "velocity": 0.7874015748031497
        },
        {
          "duration": 1.25,
          "durationTicks": 768,
          "midi": 40,
          "name": "E2",
          "ticks": 101760,
          "time": 165.625,
          "velocity": 0.7874015748031497
        },
        {
          "duration": 0.3125,
          "durationTicks": 192,
          "midi": 59,
          "name": "B3",
          "ticks": 101760,
          "time": 165.625,
          "velocity": 0.6614173228346457
        },
        {
          "duration": 0.3125,
          "durationTicks": 192,
          "midi": 59,
          "name": "B3",
          "ticks": 101952,
          "time": 165.9375,
          "velocity": 0.7874015748031497
        },
        {
          "duration": 0.625,
          "durationTicks": 384,
          "midi": 36,
          "name": "C2",
          "ticks": 102144,
          "time": 166.25,
          "velocity": 0.7874015748031497
        },
        {
          "duration": 0.3125,
          "durationTicks": 192,
          "midi": 59,
          "name": "B3",
          "ticks": 102144,
          "time": 166.25,
          "velocity": 0.6614173228346457
        },
        {
          "duration": 0.3125,
          "durationTicks": 192,
          "midi": 59,
          "name": "B3",
          "ticks": 102336,
          "time": 166.5625,
          "velocity": 0.7874015748031497
        },
        {
          "duration": 0.3125,
          "durationTicks": 192,
          "midi": 59,
          "name": "B3",
          "ticks": 102528,
          "time": 166.875,
          "velocity": 0.6614173228346457
        },
        {
          "duration": 0.625,
          "durationTicks": 384,
          "midi": 36,
          "name": "C2",
          "ticks": 102528,
          "time": 166.875,
          "velocity": 0.7874015748031497
        },
        {
          "duration": 1.25,
          "durationTicks": 768,
          "midi": 40,
          "name": "E2",
          "ticks": 102528,
          "time": 166.875,
          "velocity": 0.7874015748031497
        },
        {
          "duration": 0.3125,
          "durationTicks": 192,
          "midi": 59,
          "name": "B3",
          "ticks": 102720,
          "time": 167.1875,
          "velocity": 0.7874015748031497
        },
        {
          "duration": 0.3125,
          "durationTicks": 192,
          "midi": 59,
          "name": "B3",
          "ticks": 102912,
          "time": 167.5,
          "velocity": 0.6614173228346457
        },
        {
          "duration": 0.625,
          "durationTicks": 384,
          "midi": 36,
          "name": "C2",
          "ticks": 102912,
          "time": 167.5,
          "velocity": 0.7874015748031497
        },
        {
          "duration": 0.3125,
          "durationTicks": 192,
          "midi": 59,
          "name": "B3",
          "ticks": 103104,
          "time": 167.8125,
          "velocity": 0.7874015748031497
        },
        {
          "duration": 0.3125,
          "durationTicks": 192,
          "midi": 59,
          "name": "B3",
          "ticks": 103296,
          "time": 168.125,
          "velocity": 0.6614173228346457
        },
        {
          "duration": 0.625,
          "durationTicks": 384,
          "midi": 36,
          "name": "C2",
          "ticks": 103296,
          "time": 168.125,
          "velocity": 0.7874015748031497
        },
        {
          "duration": 0.78125,
          "durationTicks": 480,
          "midi": 40,
          "name": "E2",
          "ticks": 103296,
          "time": 168.125,
          "velocity": 0.7874015748031497
        },
        {
          "duration": 0.3125,
          "durationTicks": 192,
          "midi": 59,
          "name": "B3",
          "ticks": 103488,
          "time": 168.4375,
          "velocity": 0.7874015748031497
        },
        {
          "duration": 0.625,
          "durationTicks": 384,
          "midi": 36,
          "name": "C2",
          "ticks": 103680,
          "time": 168.75,
          "velocity": 0.7874015748031497
        },
        {
          "duration": 0.3125,
          "durationTicks": 192,
          "midi": 59,
          "name": "B3",
          "ticks": 103680,
          "time": 168.75,
          "velocity": 0.6614173228346457
        },
        {
          "duration": 0.46875,
          "durationTicks": 288,
          "midi": 40,
          "name": "E2",
          "ticks": 103776,
          "time": 168.90625,
          "velocity": 0.7874015748031497
        },
        {
          "duration": 0.3125,
          "durationTicks": 192,
          "midi": 59,
          "name": "B3",
          "ticks": 103872,
          "time": 169.0625,
          "velocity": 0.7874015748031497
        },
        {
          "duration": 0.3125,
          "durationTicks": 192,
          "midi": 36,
          "name": "C2",
          "ticks": 104064,
          "time": 169.375,
          "velocity": 0.7874015748031497
        },
        {
          "duration": 0.3125,
          "durationTicks": 192,
          "midi": 40,
          "name": "E2",
          "ticks": 104064,
          "time": 169.375,
          "velocity": 0.7874015748031497
        },
        {
          "duration": 0.625,
          "durationTicks": 384,
          "midi": 59,
          "name": "B3",
          "ticks": 104064,
          "time": 169.375,
          "velocity": 0.6614173228346457
        },
        {
          "duration": 0.3125,
          "durationTicks": 192,
          "midi": 55,
          "name": "G3",
          "ticks": 104256,
          "time": 169.6875,
          "velocity": 0.7874015748031497
        },
        {
          "duration": 0.09765625,
          "durationTicks": 60,
          "midi": 40,
          "name": "E2",
          "ticks": 104256,
          "time": 169.6875,
          "velocity": 0.7874015748031497
        },
        {
          "duration": 0.3125,
          "durationTicks": 192,
          "midi": 36,
          "name": "C2",
          "ticks": 104256,
          "time": 169.6875,
          "velocity": 0.7874015748031497
        },
        {
          "duration": 0.05859375,
          "durationTicks": 36,
          "midi": 40,
          "name": "E2",
          "ticks": 104316,
          "time": 169.78515625,
          "velocity": 0.7874015748031497
        },
        {
          "duration": 0.15625,
          "durationTicks": 96,
          "midi": 40,
          "name": "E2",
          "ticks": 104352,
          "time": 169.84375,
          "velocity": 0.7874015748031497
        },
        {
          "duration": 30,
          "durationTicks": 18432,
          "midi": 40,
          "name": "E2",
          "ticks": 104412,
          "time": 169.94140625,
          "velocity": 0.7874015748031497
        },
        {
          "duration": 0.3125,
          "durationTicks": 192,
          "midi": 59,
          "name": "B3",
          "ticks": 104448,
          "time": 170,
          "velocity": 0.6614173228346457
        },
        {
          "duration": 9.6875,
          "durationTicks": 5952,
          "midi": 55,
          "name": "G3",
          "ticks": 104448,
          "time": 170,
          "velocity": 0.7874015748031497
        },
        {
          "duration": 0.625,
          "durationTicks": 384,
          "midi": 36,
          "name": "C2",
          "ticks": 104448,
          "time": 170,
          "velocity": 0.7874015748031497
        },
        {
          "duration": 0.3125,
          "durationTicks": 192,
          "midi": 59,
          "name": "B3",
          "ticks": 104640,
          "time": 170.3125,
          "velocity": 0.7874015748031497
        },
        {
          "duration": 0.3125,
          "durationTicks": 192,
          "midi": 59,
          "name": "B3",
          "ticks": 104832,
          "time": 170.625,
          "velocity": 0.6614173228346457
        },
        {
          "duration": 0.625,
          "durationTicks": 384,
          "midi": 36,
          "name": "C2",
          "ticks": 104832,
          "time": 170.625,
          "velocity": 0.7874015748031497
        },
        {
          "duration": 0.3125,
          "durationTicks": 192,
          "midi": 59,
          "name": "B3",
          "ticks": 105024,
          "time": 170.9375,
          "velocity": 0.7874015748031497
        },
        {
          "duration": 0.3125,
          "durationTicks": 192,
          "midi": 59,
          "name": "B3",
          "ticks": 105216,
          "time": 171.25,
          "velocity": 0.6614173228346457
        },
        {
          "duration": 0.625,
          "durationTicks": 384,
          "midi": 36,
          "name": "C2",
          "ticks": 105216,
          "time": 171.25,
          "velocity": 0.7874015748031497
        },
        {
          "duration": 0.3125,
          "durationTicks": 192,
          "midi": 59,
          "name": "B3",
          "ticks": 105408,
          "time": 171.5625,
          "velocity": 0.7874015748031497
        },
        {
          "duration": 0.3125,
          "durationTicks": 192,
          "midi": 59,
          "name": "B3",
          "ticks": 105600,
          "time": 171.875,
          "velocity": 0.6614173228346457
        },
        {
          "duration": 0.625,
          "durationTicks": 384,
          "midi": 36,
          "name": "C2",
          "ticks": 105600,
          "time": 171.875,
          "velocity": 0.7874015748031497
        },
        {
          "duration": 0.3125,
          "durationTicks": 192,
          "midi": 59,
          "name": "B3",
          "ticks": 105792,
          "time": 172.1875,
          "velocity": 0.7874015748031497
        },
        {
          "duration": 0.3125,
          "durationTicks": 192,
          "midi": 59,
          "name": "B3",
          "ticks": 105984,
          "time": 172.5,
          "velocity": 0.6614173228346457
        },
        {
          "duration": 0.625,
          "durationTicks": 384,
          "midi": 36,
          "name": "C2",
          "ticks": 105984,
          "time": 172.5,
          "velocity": 0.7874015748031497
        },
        {
          "duration": 0.3125,
          "durationTicks": 192,
          "midi": 59,
          "name": "B3",
          "ticks": 106176,
          "time": 172.8125,
          "velocity": 0.7874015748031497
        },
        {
          "duration": 0.3125,
          "durationTicks": 192,
          "midi": 59,
          "name": "B3",
          "ticks": 106368,
          "time": 173.125,
          "velocity": 0.6614173228346457
        },
        {
          "duration": 0.625,
          "durationTicks": 384,
          "midi": 36,
          "name": "C2",
          "ticks": 106368,
          "time": 173.125,
          "velocity": 0.7874015748031497
        },
        {
          "duration": 0.3125,
          "durationTicks": 192,
          "midi": 59,
          "name": "B3",
          "ticks": 106560,
          "time": 173.4375,
          "velocity": 0.7874015748031497
        },
        {
          "duration": 0.625,
          "durationTicks": 384,
          "midi": 36,
          "name": "C2",
          "ticks": 106752,
          "time": 173.75,
          "velocity": 0.7874015748031497
        },
        {
          "duration": 0.3125,
          "durationTicks": 192,
          "midi": 59,
          "name": "B3",
          "ticks": 106752,
          "time": 173.75,
          "velocity": 0.6614173228346457
        },
        {
          "duration": 0.3125,
          "durationTicks": 192,
          "midi": 59,
          "name": "B3",
          "ticks": 106944,
          "time": 174.0625,
          "velocity": 0.7874015748031497
        },
        {
          "duration": 0.625,
          "durationTicks": 384,
          "midi": 36,
          "name": "C2",
          "ticks": 107136,
          "time": 174.375,
          "velocity": 0.7874015748031497
        },
        {
          "duration": 0.3125,
          "durationTicks": 192,
          "midi": 59,
          "name": "B3",
          "ticks": 107136,
          "time": 174.375,
          "velocity": 0.6614173228346457
        },
        {
          "duration": 0.3125,
          "durationTicks": 192,
          "midi": 59,
          "name": "B3",
          "ticks": 107328,
          "time": 174.6875,
          "velocity": 0.7874015748031497
        },
        {
          "duration": 0.3125,
          "durationTicks": 192,
          "midi": 59,
          "name": "B3",
          "ticks": 107520,
          "time": 175,
          "velocity": 0.6614173228346457
        },
        {
          "duration": 0.625,
          "durationTicks": 384,
          "midi": 36,
          "name": "C2",
          "ticks": 107520,
          "time": 175,
          "velocity": 0.7874015748031497
        },
        {
          "duration": 0.3125,
          "durationTicks": 192,
          "midi": 59,
          "name": "B3",
          "ticks": 107712,
          "time": 175.3125,
          "velocity": 0.7874015748031497
        },
        {
          "duration": 0.3125,
          "durationTicks": 192,
          "midi": 59,
          "name": "B3",
          "ticks": 107904,
          "time": 175.625,
          "velocity": 0.6614173228346457
        },
        {
          "duration": 0.625,
          "durationTicks": 384,
          "midi": 36,
          "name": "C2",
          "ticks": 107904,
          "time": 175.625,
          "velocity": 0.7874015748031497
        },
        {
          "duration": 0.3125,
          "durationTicks": 192,
          "midi": 59,
          "name": "B3",
          "ticks": 108096,
          "time": 175.9375,
          "velocity": 0.7874015748031497
        },
        {
          "duration": 0.3125,
          "durationTicks": 192,
          "midi": 59,
          "name": "B3",
          "ticks": 108288,
          "time": 176.25,
          "velocity": 0.6614173228346457
        },
        {
          "duration": 0.625,
          "durationTicks": 384,
          "midi": 36,
          "name": "C2",
          "ticks": 108288,
          "time": 176.25,
          "velocity": 0.7874015748031497
        },
        {
          "duration": 0.3125,
          "durationTicks": 192,
          "midi": 59,
          "name": "B3",
          "ticks": 108480,
          "time": 176.5625,
          "velocity": 0.7874015748031497
        },
        {
          "duration": 0.3125,
          "durationTicks": 192,
          "midi": 59,
          "name": "B3",
          "ticks": 108672,
          "time": 176.875,
          "velocity": 0.6614173228346457
        },
        {
          "duration": 0.625,
          "durationTicks": 384,
          "midi": 36,
          "name": "C2",
          "ticks": 108672,
          "time": 176.875,
          "velocity": 0.7874015748031497
        },
        {
          "duration": 0.3125,
          "durationTicks": 192,
          "midi": 59,
          "name": "B3",
          "ticks": 108864,
          "time": 177.1875,
          "velocity": 0.7874015748031497
        },
        {
          "duration": 0.625,
          "durationTicks": 384,
          "midi": 36,
          "name": "C2",
          "ticks": 109056,
          "time": 177.5,
          "velocity": 0.7874015748031497
        },
        {
          "duration": 0.3125,
          "durationTicks": 192,
          "midi": 59,
          "name": "B3",
          "ticks": 109056,
          "time": 177.5,
          "velocity": 0.6614173228346457
        },
        {
          "duration": 0.3125,
          "durationTicks": 192,
          "midi": 59,
          "name": "B3",
          "ticks": 109248,
          "time": 177.8125,
          "velocity": 0.7874015748031497
        },
        {
          "duration": 0.3125,
          "durationTicks": 192,
          "midi": 59,
          "name": "B3",
          "ticks": 109440,
          "time": 178.125,
          "velocity": 0.6614173228346457
        },
        {
          "duration": 0.625,
          "durationTicks": 384,
          "midi": 36,
          "name": "C2",
          "ticks": 109440,
          "time": 178.125,
          "velocity": 0.7874015748031497
        },
        {
          "duration": 0.3125,
          "durationTicks": 192,
          "midi": 59,
          "name": "B3",
          "ticks": 109632,
          "time": 178.4375,
          "velocity": 0.7874015748031497
        },
        {
          "duration": 0.3125,
          "durationTicks": 192,
          "midi": 59,
          "name": "B3",
          "ticks": 109824,
          "time": 178.75,
          "velocity": 0.6614173228346457
        },
        {
          "duration": 0.625,
          "durationTicks": 384,
          "midi": 36,
          "name": "C2",
          "ticks": 109824,
          "time": 178.75,
          "velocity": 0.7874015748031497
        },
        {
          "duration": 0.3125,
          "durationTicks": 192,
          "midi": 59,
          "name": "B3",
          "ticks": 110016,
          "time": 179.0625,
          "velocity": 0.7874015748031497
        },
        {
          "duration": 0.3125,
          "durationTicks": 192,
          "midi": 36,
          "name": "C2",
          "ticks": 110208,
          "time": 179.375,
          "velocity": 0.7874015748031497
        },
        {
          "duration": 0.9375,
          "durationTicks": 576,
          "midi": 59,
          "name": "B3",
          "ticks": 110208,
          "time": 179.375,
          "velocity": 0.6614173228346457
        },
        {
          "duration": 0.3125,
          "durationTicks": 192,
          "midi": 36,
          "name": "C2",
          "ticks": 110400,
          "time": 179.6875,
          "velocity": 0.7874015748031497
        },
        {
          "duration": 0.3125,
          "durationTicks": 192,
          "midi": 55,
          "name": "G3",
          "ticks": 110400,
          "time": 179.6875,
          "velocity": 0.7874015748031497
        },
        {
          "duration": 1.25,
          "durationTicks": 768,
          "midi": 36,
          "name": "C2",
          "ticks": 110592,
          "time": 180,
          "velocity": 0.7874015748031497
        },
        {
          "duration": 10,
          "durationTicks": 6144,
          "midi": 57,
          "name": "A3",
          "ticks": 110592,
          "time": 180,
          "velocity": 0.7874015748031497
        },
        {
          "duration": 1.25,
          "durationTicks": 768,
          "midi": 36,
          "name": "C2",
          "ticks": 111360,
          "time": 181.25,
          "velocity": 0.7874015748031497
        },
        {
          "duration": 1.25,
          "durationTicks": 768,
          "midi": 36,
          "name": "C2",
          "ticks": 112128,
          "time": 182.5,
          "velocity": 0.7874015748031497
        },
        {
          "duration": 1.25,
          "durationTicks": 768,
          "midi": 36,
          "name": "C2",
          "ticks": 112896,
          "time": 183.75,
          "velocity": 0.7874015748031497
        },
        {
          "duration": 1.25,
          "durationTicks": 768,
          "midi": 36,
          "name": "C2",
          "ticks": 113664,
          "time": 185,
          "velocity": 0.7874015748031497
        },
        {
          "duration": 1.25,
          "durationTicks": 768,
          "midi": 36,
          "name": "C2",
          "ticks": 114432,
          "time": 186.25,
          "velocity": 0.7874015748031497
        },
        {
          "duration": 1.25,
          "durationTicks": 768,
          "midi": 36,
          "name": "C2",
          "ticks": 115200,
          "time": 187.5,
          "velocity": 0.7874015748031497
        },
        {
          "duration": 0.625,
          "durationTicks": 384,
          "midi": 36,
          "name": "C2",
          "ticks": 115968,
          "time": 188.75,
          "velocity": 0.7874015748031497
        },
        {
          "duration": 0.3125,
          "durationTicks": 192,
          "midi": 36,
          "name": "C2",
          "ticks": 116352,
          "time": 189.375,
          "velocity": 0.7874015748031497
        },
        {
          "duration": 0.3125,
          "durationTicks": 192,
          "midi": 36,
          "name": "C2",
          "ticks": 116544,
          "time": 189.6875,
          "velocity": 0.7874015748031497
        },
        {
          "duration": 10,
          "durationTicks": 6144,
          "midi": 57,
          "name": "A3",
          "ticks": 116736,
          "time": 190,
          "velocity": 0.7874015748031497
        },
        {
          "duration": 10,
          "durationTicks": 6144,
          "midi": 36,
          "name": "C2",
          "ticks": 116736,
          "time": 190,
          "velocity": 0.7874015748031497
        },
        {
          "duration": 2.5,
          "durationTicks": 1536,
          "midi": 57,
          "name": "A3",
          "ticks": 135168,
          "time": 220,
          "velocity": 0.7874015748031497
        },
        {
          "duration": 2.5,
          "durationTicks": 1536,
          "midi": 36,
          "name": "C2",
          "ticks": 135168,
          "time": 220,
          "velocity": 0.7874015748031497
        },
        {
          "duration": 0.46875,
          "durationTicks": 288,
          "midi": 36,
          "name": "C2",
          "ticks": 136704,
          "time": 222.5,
          "velocity": 0.7874015748031497
        },
        {
          "duration": 0.46875,
          "durationTicks": 288,
          "midi": 57,
          "name": "A3",
          "ticks": 136704,
          "time": 222.5,
          "velocity": 0.7874015748031497
        },
        {
          "duration": 0.46875,
          "durationTicks": 288,
          "midi": 36,
          "name": "C2",
          "ticks": 136992,
          "time": 222.96875,
          "velocity": 0.7874015748031497
        },
        {
          "duration": 0.46875,
          "durationTicks": 288,
          "midi": 57,
          "name": "A3",
          "ticks": 136992,
          "time": 222.96875,
          "velocity": 0.7874015748031497
        },
        {
          "duration": 0.3125,
          "durationTicks": 192,
          "midi": 36,
          "name": "C2",
          "ticks": 137280,
          "time": 223.4375,
          "velocity": 0.7874015748031497
        },
        {
          "duration": 0.3125,
          "durationTicks": 192,
          "midi": 57,
          "name": "A3",
          "ticks": 137280,
          "time": 223.4375,
          "velocity": 0.7874015748031497
        },
        {
          "duration": 1.40625,
          "durationTicks": 864,
          "midi": 36,
          "name": "C2",
          "ticks": 137472,
          "time": 223.75,
          "velocity": 0.7874015748031497
        },
        {
          "duration": 1.25,
          "durationTicks": 768,
          "midi": 57,
          "name": "A3",
          "ticks": 137472,
          "time": 223.75,
          "velocity": 0.7874015748031497
        },
        {
          "duration": 0.625,
          "durationTicks": 384,
          "midi": 40,
          "name": "E2",
          "ticks": 137856,
          "time": 224.375,
          "velocity": 0.7874015748031497
        },
        {
          "duration": 5,
          "durationTicks": 3072,
          "midi": 57,
          "name": "A3",
          "ticks": 138240,
          "time": 225,
          "velocity": 0.6850393700787402
        },
        {
          "duration": 0.15625,
          "durationTicks": 96,
          "midi": 40,
          "name": "E2",
          "ticks": 138240,
          "time": 225,
          "velocity": 0.4094488188976378
        },
        {
          "duration": 0.15625,
          "durationTicks": 96,
          "midi": 40,
          "name": "E2",
          "ticks": 138336,
          "time": 225.15625,
          "velocity": 0.4409448818897638
        },
        {
          "duration": 0.15625,
          "durationTicks": 96,
          "midi": 40,
          "name": "E2",
          "ticks": 138432,
          "time": 225.3125,
          "velocity": 0.4409448818897638
        },
        {
          "duration": 0.15625,
          "durationTicks": 96,
          "midi": 40,
          "name": "E2",
          "ticks": 138528,
          "time": 225.46875,
          "velocity": 0.4645669291338583
        },
        {
          "duration": 0.15625,
          "durationTicks": 96,
          "midi": 40,
          "name": "E2",
          "ticks": 138624,
          "time": 225.625,
          "velocity": 0.4645669291338583
        },
        {
          "duration": 0.15625,
          "durationTicks": 96,
          "midi": 40,
          "name": "E2",
          "ticks": 138720,
          "time": 225.78125,
          "velocity": 0.4881889763779528
        },
        {
          "duration": 0.15625,
          "durationTicks": 96,
          "midi": 40,
          "name": "E2",
          "ticks": 138816,
          "time": 225.9375,
          "velocity": 0.4881889763779528
        },
        {
          "duration": 0.15625,
          "durationTicks": 96,
          "midi": 40,
          "name": "E2",
          "ticks": 138912,
          "time": 226.09375,
          "velocity": 0.5118110236220472
        },
        {
          "duration": 0.15625,
          "durationTicks": 96,
          "midi": 40,
          "name": "E2",
          "ticks": 139008,
          "time": 226.25,
          "velocity": 0.5118110236220472
        },
        {
          "duration": 0.15625,
          "durationTicks": 96,
          "midi": 40,
          "name": "E2",
          "ticks": 139104,
          "time": 226.40625,
          "velocity": 0.5354330708661418
        },
        {
          "duration": 0.15625,
          "durationTicks": 96,
          "midi": 40,
          "name": "E2",
          "ticks": 139200,
          "time": 226.5625,
          "velocity": 0.5354330708661418
        },
        {
          "duration": 0.15625,
          "durationTicks": 96,
          "midi": 40,
          "name": "E2",
          "ticks": 139296,
          "time": 226.71875,
          "velocity": 0.5669291338582677
        },
        {
          "duration": 0.15625,
          "durationTicks": 96,
          "midi": 40,
          "name": "E2",
          "ticks": 139392,
          "time": 226.875,
          "velocity": 0.5669291338582677
        },
        {
          "duration": 0.15625,
          "durationTicks": 96,
          "midi": 40,
          "name": "E2",
          "ticks": 139488,
          "time": 227.03125,
          "velocity": 0.5905511811023622
        },
        {
          "duration": 0.15625,
          "durationTicks": 96,
          "midi": 40,
          "name": "E2",
          "ticks": 139584,
          "time": 227.1875,
          "velocity": 0.5905511811023622
        },
        {
          "duration": 0.15625,
          "durationTicks": 96,
          "midi": 40,
          "name": "E2",
          "ticks": 139680,
          "time": 227.34375,
          "velocity": 0.6141732283464567
        },
        {
          "duration": 0.15625,
          "durationTicks": 96,
          "midi": 40,
          "name": "E2",
          "ticks": 139776,
          "time": 227.5,
          "velocity": 0.6141732283464567
        },
        {
          "duration": 0.15625,
          "durationTicks": 96,
          "midi": 40,
          "name": "E2",
          "ticks": 139872,
          "time": 227.65625,
          "velocity": 0.6377952755905512
        },
        {
          "duration": 0.15625,
          "durationTicks": 96,
          "midi": 40,
          "name": "E2",
          "ticks": 139968,
          "time": 227.8125,
          "velocity": 0.6377952755905512
        },
        {
          "duration": 0.15625,
          "durationTicks": 96,
          "midi": 40,
          "name": "E2",
          "ticks": 140064,
          "time": 227.96875,
          "velocity": 0.6614173228346457
        },
        {
          "duration": 0.15625,
          "durationTicks": 96,
          "midi": 40,
          "name": "E2",
          "ticks": 140160,
          "time": 228.125,
          "velocity": 0.6614173228346457
        },
        {
          "duration": 0.15625,
          "durationTicks": 96,
          "midi": 40,
          "name": "E2",
          "ticks": 140256,
          "time": 228.28125,
          "velocity": 0.6850393700787402
        },
        {
          "duration": 0.15625,
          "durationTicks": 96,
          "midi": 40,
          "name": "E2",
          "ticks": 140352,
          "time": 228.4375,
          "velocity": 0.6850393700787402
        },
        {
          "duration": 0.15625,
          "durationTicks": 96,
          "midi": 40,
          "name": "E2",
          "ticks": 140448,
          "time": 228.59375,
          "velocity": 0.7165354330708661
        },
        {
          "duration": 0.15625,
          "durationTicks": 96,
          "midi": 40,
          "name": "E2",
          "ticks": 140544,
          "time": 228.75,
          "velocity": 0.7165354330708661
        },
        {
          "duration": 0.15625,
          "durationTicks": 96,
          "midi": 40,
          "name": "E2",
          "ticks": 140640,
          "time": 228.90625,
          "velocity": 0.7322834645669292
        },
        {
          "duration": 0.15625,
          "durationTicks": 96,
          "midi": 40,
          "name": "E2",
          "ticks": 140736,
          "time": 229.0625,
          "velocity": 0.7322834645669292
        },
        {
          "duration": 0.15625,
          "durationTicks": 96,
          "midi": 40,
          "name": "E2",
          "ticks": 140832,
          "time": 229.21875,
          "velocity": 0.7637795275590551
        },
        {
          "duration": 0,
          "durationTicks": 0,
          "midi": 40,
          "name": "E2",
          "ticks": 140928,
          "time": 229.375,
          "velocity": 0.7795275590551181
        },
        {
          "duration": 0.13671875,
          "durationTicks": 84,
          "midi": 40,
          "name": "E2",
          "ticks": 140940,
          "time": 229.39453125,
          "velocity": 0.7637795275590551
        },
        {
          "duration": 0.01953125,
          "durationTicks": 12,
          "midi": 40,
          "name": "E2",
          "ticks": 141024,
          "time": 229.53125,
          "velocity": 0.7795275590551181
        },
        {
          "duration": 0.15625,
          "durationTicks": 96,
          "midi": 40,
          "name": "E2",
          "ticks": 141036,
          "time": 229.55078125,
          "velocity": 0.7874015748031497
        },
        {
          "duration": 0.15625,
          "durationTicks": 96,
          "midi": 40,
          "name": "E2",
          "ticks": 141120,
          "time": 229.6875,
          "velocity": 0.7874015748031497
        },
        {
          "duration": 0.13671875,
          "durationTicks": 84,
          "midi": 40,
          "name": "E2",
          "ticks": 141216,
          "time": 229.84375,
          "velocity": 0.7874015748031497
        },
        {
          "duration": 0.01953125,
          "durationTicks": 12,
          "midi": 40,
          "name": "E2",
          "ticks": 141300,
          "time": 229.98046875,
          "velocity": 0.7874015748031497
        },
        {
          "duration": 9.375,
          "durationTicks": 5760,
          "midi": 57,
          "name": "A3",
          "ticks": 141312,
          "time": 230,
          "velocity": 0.7874015748031497
        },
        {
          "duration": 0.46875,
          "durationTicks": 288,
          "midi": 36,
          "name": "C2",
          "ticks": 141312,
          "time": 230,
          "velocity": 0.7874015748031497
        },
        {
          "duration": 0.3125,
          "durationTicks": 192,
          "midi": 59,
          "name": "B3",
          "ticks": 141312,
          "time": 230,
          "velocity": 0.7874015748031497
        },
        {
          "duration": 0.3125,
          "durationTicks": 192,
          "midi": 59,
          "name": "B3",
          "ticks": 141504,
          "time": 230.3125,
          "velocity": 0.6614173228346457
        },
        {
          "duration": 0.15625,
          "durationTicks": 96,
          "midi": 36,
          "name": "C2",
          "ticks": 141600,
          "time": 230.46875,
          "velocity": 0.7874015748031497
        },
        {
          "duration": 0.625,
          "durationTicks": 384,
          "midi": 40,
          "name": "E2",
          "ticks": 141696,
          "time": 230.625,
          "velocity": 0.7874015748031497
        },
        {
          "duration": 0.3125,
          "durationTicks": 192,
          "midi": 59,
          "name": "B3",
          "ticks": 141696,
          "time": 230.625,
          "velocity": 0.7874015748031497
        },
        {
          "duration": 0.3125,
          "durationTicks": 192,
          "midi": 59,
          "name": "B3",
          "ticks": 141888,
          "time": 230.9375,
          "velocity": 0.6614173228346457
        },
        {
          "duration": 0.46875,
          "durationTicks": 288,
          "midi": 36,
          "name": "C2",
          "ticks": 142080,
          "time": 231.25,
          "velocity": 0.7874015748031497
        },
        {
          "duration": 0.3125,
          "durationTicks": 192,
          "midi": 59,
          "name": "B3",
          "ticks": 142080,
          "time": 231.25,
          "velocity": 0.7874015748031497
        },
        {
          "duration": 0.3125,
          "durationTicks": 192,
          "midi": 59,
          "name": "B3",
          "ticks": 142272,
          "time": 231.5625,
          "velocity": 0.6614173228346457
        },
        {
          "duration": 0.15625,
          "durationTicks": 96,
          "midi": 36,
          "name": "C2",
          "ticks": 142368,
          "time": 231.71875,
          "velocity": 0.7874015748031497
        },
        {
          "duration": 0.625,
          "durationTicks": 384,
          "midi": 40,
          "name": "E2",
          "ticks": 142464,
          "time": 231.875,
          "velocity": 0.7874015748031497
        },
        {
          "duration": 0.3125,
          "durationTicks": 192,
          "midi": 59,
          "name": "B3",
          "ticks": 142464,
          "time": 231.875,
          "velocity": 0.7874015748031497
        },
        {
          "duration": 0.3125,
          "durationTicks": 192,
          "midi": 59,
          "name": "B3",
          "ticks": 142656,
          "time": 232.1875,
          "velocity": 0.6614173228346457
        },
        {
          "duration": 0.3125,
          "durationTicks": 192,
          "midi": 36,
          "name": "C2",
          "ticks": 142848,
          "time": 232.5,
          "velocity": 0.7874015748031497
        },
        {
          "duration": 0.3125,
          "durationTicks": 192,
          "midi": 59,
          "name": "B3",
          "ticks": 142848,
          "time": 232.5,
          "velocity": 0.7874015748031497
        },
        {
          "duration": 0.3125,
          "durationTicks": 192,
          "midi": 36,
          "name": "C2",
          "ticks": 143040,
          "time": 232.8125,
          "velocity": 0.7874015748031497
        },
        {
          "duration": 0.3125,
          "durationTicks": 192,
          "midi": 59,
          "name": "B3",
          "ticks": 143040,
          "time": 232.8125,
          "velocity": 0.6614173228346457
        },
        {
          "duration": 0.3125,
          "durationTicks": 192,
          "midi": 59,
          "name": "B3",
          "ticks": 143232,
          "time": 233.125,
          "velocity": 0.7874015748031497
        },
        {
          "duration": 0.625,
          "durationTicks": 384,
          "midi": 40,
          "name": "E2",
          "ticks": 143232,
          "time": 233.125,
          "velocity": 0.7874015748031497
        },
        {
          "duration": 0.3125,
          "durationTicks": 192,
          "midi": 59,
          "name": "B3",
          "ticks": 143424,
          "time": 233.4375,
          "velocity": 0.6614173228346457
        },
        {
          "duration": 0.3125,
          "durationTicks": 192,
          "midi": 59,
          "name": "B3",
          "ticks": 143616,
          "time": 233.75,
          "velocity": 0.7874015748031497
        },
        {
          "duration": 0.15625,
          "durationTicks": 96,
          "midi": 36,
          "name": "C2",
          "ticks": 143616,
          "time": 233.75,
          "velocity": 0.7874015748031497
        },
        {
          "duration": 0.46875,
          "durationTicks": 288,
          "midi": 40,
          "name": "E2",
          "ticks": 143712,
          "time": 233.90625,
          "velocity": 0.7874015748031497
        },
        {
          "duration": 0.3125,
          "durationTicks": 192,
          "midi": 59,
          "name": "B3",
          "ticks": 143808,
          "time": 234.0625,
          "velocity": 0.6614173228346457
        },
        {
          "duration": 0.3125,
          "durationTicks": 192,
          "midi": 59,
          "name": "B3",
          "ticks": 144000,
          "time": 234.375,
          "velocity": 0.7874015748031497
        },
        {
          "duration": 0.625,
          "durationTicks": 384,
          "midi": 40,
          "name": "E2",
          "ticks": 144000,
          "time": 234.375,
          "velocity": 0.7874015748031497
        },
        {
          "duration": 0.3125,
          "durationTicks": 192,
          "midi": 59,
          "name": "B3",
          "ticks": 144192,
          "time": 234.6875,
          "velocity": 0.6614173228346457
        },
        {
          "duration": 0.46875,
          "durationTicks": 288,
          "midi": 36,
          "name": "C2",
          "ticks": 144384,
          "time": 235,
          "velocity": 0.7874015748031497
        },
        {
          "duration": 0.3125,
          "durationTicks": 192,
          "midi": 59,
          "name": "B3",
          "ticks": 144384,
          "time": 235,
          "velocity": 0.7874015748031497
        },
        {
          "duration": 0.3125,
          "durationTicks": 192,
          "midi": 59,
          "name": "B3",
          "ticks": 144576,
          "time": 235.3125,
          "velocity": 0.6614173228346457
        },
        {
          "duration": 0.15625,
          "durationTicks": 96,
          "midi": 36,
          "name": "C2",
          "ticks": 144672,
          "time": 235.46875,
          "velocity": 0.7874015748031497
        },
        {
          "duration": 0.3125,
          "durationTicks": 192,
          "midi": 59,
          "name": "B3",
          "ticks": 144768,
          "time": 235.625,
          "velocity": 0.7874015748031497
        },
        {
          "duration": 0.625,
          "durationTicks": 384,
          "midi": 40,
          "name": "E2",
          "ticks": 144768,
          "time": 235.625,
          "velocity": 0.7874015748031497
        },
        {
          "duration": 0.3125,
          "durationTicks": 192,
          "midi": 59,
          "name": "B3",
          "ticks": 144960,
          "time": 235.9375,
          "velocity": 0.6614173228346457
        },
        {
          "duration": 0.46875,
          "durationTicks": 288,
          "midi": 36,
          "name": "C2",
          "ticks": 145152,
          "time": 236.25,
          "velocity": 0.7874015748031497
        },
        {
          "duration": 0.3125,
          "durationTicks": 192,
          "midi": 59,
          "name": "B3",
          "ticks": 145152,
          "time": 236.25,
          "velocity": 0.7874015748031497
        },
        {
          "duration": 0.3125,
          "durationTicks": 192,
          "midi": 59,
          "name": "B3",
          "ticks": 145344,
          "time": 236.5625,
          "velocity": 0.6614173228346457
        },
        {
          "duration": 0.15625,
          "durationTicks": 96,
          "midi": 36,
          "name": "C2",
          "ticks": 145440,
          "time": 236.71875,
          "velocity": 0.7874015748031497
        },
        {
          "duration": 0.625,
          "durationTicks": 384,
          "midi": 40,
          "name": "E2",
          "ticks": 145536,
          "time": 236.875,
          "velocity": 0.7874015748031497
        },
        {
          "duration": 0.3125,
          "durationTicks": 192,
          "midi": 59,
          "name": "B3",
          "ticks": 145536,
          "time": 236.875,
          "velocity": 0.7874015748031497
        },
        {
          "duration": 0.3125,
          "durationTicks": 192,
          "midi": 59,
          "name": "B3",
          "ticks": 145728,
          "time": 237.1875,
          "velocity": 0.6614173228346457
        },
        {
          "duration": 0.3125,
          "durationTicks": 192,
          "midi": 59,
          "name": "B3",
          "ticks": 145920,
          "time": 237.5,
          "velocity": 0.7874015748031497
        },
        {
          "duration": 0.3125,
          "durationTicks": 192,
          "midi": 36,
          "name": "C2",
          "ticks": 145920,
          "time": 237.5,
          "velocity": 0.7874015748031497
        },
        {
          "duration": 0.3125,
          "durationTicks": 192,
          "midi": 36,
          "name": "C2",
          "ticks": 146112,
          "time": 237.8125,
          "velocity": 0.7874015748031497
        },
        {
          "duration": 0.3125,
          "durationTicks": 192,
          "midi": 59,
          "name": "B3",
          "ticks": 146112,
          "time": 237.8125,
          "velocity": 0.6614173228346457
        },
        {
          "duration": 0.3125,
          "durationTicks": 192,
          "midi": 59,
          "name": "B3",
          "ticks": 146304,
          "time": 238.125,
          "velocity": 0.7874015748031497
        },
        {
          "duration": 0.625,
          "durationTicks": 384,
          "midi": 40,
          "name": "E2",
          "ticks": 146304,
          "time": 238.125,
          "velocity": 0.7874015748031497
        },
        {
          "duration": 0.3125,
          "durationTicks": 192,
          "midi": 59,
          "name": "B3",
          "ticks": 146496,
          "time": 238.4375,
          "velocity": 0.6614173228346457
        },
        {
          "duration": 0.3125,
          "durationTicks": 192,
          "midi": 59,
          "name": "B3",
          "ticks": 146688,
          "time": 238.75,
          "velocity": 0.7874015748031497
        },
        {
          "duration": 0.625,
          "durationTicks": 384,
          "midi": 36,
          "name": "C2",
          "ticks": 146688,
          "time": 238.75,
          "velocity": 0.7874015748031497
        },
        {
          "duration": 0.3125,
          "durationTicks": 192,
          "midi": 59,
          "name": "B3",
          "ticks": 146880,
          "time": 239.0625,
          "velocity": 0.6614173228346457
        },
        {
          "duration": 0.3125,
          "durationTicks": 192,
          "midi": 55,
          "name": "G3",
          "ticks": 147072,
          "time": 239.375,
          "velocity": 0.7874015748031497
        },
        {
          "duration": 0.3125,
          "durationTicks": 192,
          "midi": 59,
          "name": "B3",
          "ticks": 147072,
          "time": 239.375,
          "velocity": 0.7874015748031497
        },
        {
          "duration": 0.3125,
          "durationTicks": 192,
          "midi": 40,
          "name": "E2",
          "ticks": 147072,
          "time": 239.375,
          "velocity": 0.7874015748031497
        },
        {
          "duration": 0.3125,
          "durationTicks": 192,
          "midi": 55,
          "name": "G3",
          "ticks": 147264,
          "time": 239.6875,
          "velocity": 0.7874015748031497
        },
        {
          "duration": 0.3125,
          "durationTicks": 192,
          "midi": 59,
          "name": "B3",
          "ticks": 147264,
          "time": 239.6875,
          "velocity": 0.6614173228346457
        },
        {
          "duration": 0.15625,
          "durationTicks": 96,
          "midi": 40,
          "name": "E2",
          "ticks": 147264,
          "time": 239.6875,
          "velocity": 0.7874015748031497
        },
        {
          "duration": 0.13671875,
          "durationTicks": 84,
          "midi": 40,
          "name": "E2",
          "ticks": 147360,
          "time": 239.84375,
          "velocity": 0.7874015748031497
        },
        {
          "duration": 0.01953125,
          "durationTicks": 12,
          "midi": 40,
          "name": "E2",
          "ticks": 147444,
          "time": 239.98046875,
          "velocity": 0.7874015748031497
        },
        {
          "duration": 0.3125,
          "durationTicks": 192,
          "midi": 59,
          "name": "B3",
          "ticks": 147456,
          "time": 240,
          "velocity": 0.7874015748031497
        },
        {
          "duration": 10,
          "durationTicks": 6144,
          "midi": 55,
          "name": "G3",
          "ticks": 147456,
          "time": 240,
          "velocity": 0.7874015748031497
        },
        {
          "duration": 0.46875,
          "durationTicks": 288,
          "midi": 36,
          "name": "C2",
          "ticks": 147456,
          "time": 240,
          "velocity": 0.7874015748031497
        },
        {
          "duration": 0.3125,
          "durationTicks": 192,
          "midi": 59,
          "name": "B3",
          "ticks": 147648,
          "time": 240.3125,
          "velocity": 0.6614173228346457
        },
        {
          "duration": 0.15625,
          "durationTicks": 96,
          "midi": 36,
          "name": "C2",
          "ticks": 147744,
          "time": 240.46875,
          "velocity": 0.7874015748031497
        },
        {
          "duration": 0.3125,
          "durationTicks": 192,
          "midi": 59,
          "name": "B3",
          "ticks": 147840,
          "time": 240.625,
          "velocity": 0.7874015748031497
        },
        {
          "duration": 0.625,
          "durationTicks": 384,
          "midi": 40,
          "name": "E2",
          "ticks": 147840,
          "time": 240.625,
          "velocity": 0.7874015748031497
        },
        {
          "duration": 0.3125,
          "durationTicks": 192,
          "midi": 59,
          "name": "B3",
          "ticks": 148032,
          "time": 240.9375,
          "velocity": 0.6614173228346457
        },
        {
          "duration": 0.46875,
          "durationTicks": 288,
          "midi": 36,
          "name": "C2",
          "ticks": 148224,
          "time": 241.25,
          "velocity": 0.7874015748031497
        },
        {
          "duration": 0.3125,
          "durationTicks": 192,
          "midi": 59,
          "name": "B3",
          "ticks": 148224,
          "time": 241.25,
          "velocity": 0.7874015748031497
        },
        {
          "duration": 0.3125,
          "durationTicks": 192,
          "midi": 59,
          "name": "B3",
          "ticks": 148416,
          "time": 241.5625,
          "velocity": 0.6614173228346457
        },
        {
          "duration": 0.15625,
          "durationTicks": 96,
          "midi": 36,
          "name": "C2",
          "ticks": 148512,
          "time": 241.71875,
          "velocity": 0.7874015748031497
        },
        {
          "duration": 0.625,
          "durationTicks": 384,
          "midi": 40,
          "name": "E2",
          "ticks": 148608,
          "time": 241.875,
          "velocity": 0.7874015748031497
        },
        {
          "duration": 0.3125,
          "durationTicks": 192,
          "midi": 59,
          "name": "B3",
          "ticks": 148608,
          "time": 241.875,
          "velocity": 0.7874015748031497
        },
        {
          "duration": 0.3125,
          "durationTicks": 192,
          "midi": 59,
          "name": "B3",
          "ticks": 148800,
          "time": 242.1875,
          "velocity": 0.6614173228346457
        },
        {
          "duration": 0.3125,
          "durationTicks": 192,
          "midi": 36,
          "name": "C2",
          "ticks": 148992,
          "time": 242.5,
          "velocity": 0.7874015748031497
        },
        {
          "duration": 0.3125,
          "durationTicks": 192,
          "midi": 59,
          "name": "B3",
          "ticks": 148992,
          "time": 242.5,
          "velocity": 0.7874015748031497
        },
        {
          "duration": 0.3125,
          "durationTicks": 192,
          "midi": 36,
          "name": "C2",
          "ticks": 149184,
          "time": 242.8125,
          "velocity": 0.7874015748031497
        },
        {
          "duration": 0.3125,
          "durationTicks": 192,
          "midi": 59,
          "name": "B3",
          "ticks": 149184,
          "time": 242.8125,
          "velocity": 0.6614173228346457
        },
        {
          "duration": 0.3125,
          "durationTicks": 192,
          "midi": 59,
          "name": "B3",
          "ticks": 149376,
          "time": 243.125,
          "velocity": 0.7874015748031497
        },
        {
          "duration": 0.625,
          "durationTicks": 384,
          "midi": 40,
          "name": "E2",
          "ticks": 149376,
          "time": 243.125,
          "velocity": 0.7874015748031497
        },
        {
          "duration": 0.3125,
          "durationTicks": 192,
          "midi": 59,
          "name": "B3",
          "ticks": 149568,
          "time": 243.4375,
          "velocity": 0.6614173228346457
        },
        {
          "duration": 0.15625,
          "durationTicks": 96,
          "midi": 36,
          "name": "C2",
          "ticks": 149760,
          "time": 243.75,
          "velocity": 0.7874015748031497
        },
        {
          "duration": 0.3125,
          "durationTicks": 192,
          "midi": 59,
          "name": "B3",
          "ticks": 149760,
          "time": 243.75,
          "velocity": 0.7874015748031497
        },
        {
          "duration": 0.46875,
          "durationTicks": 288,
          "midi": 40,
          "name": "E2",
          "ticks": 149856,
          "time": 243.90625,
          "velocity": 0.7874015748031497
        },
        {
          "duration": 0.3125,
          "durationTicks": 192,
          "midi": 59,
          "name": "B3",
          "ticks": 149952,
          "time": 244.0625,
          "velocity": 0.6614173228346457
        },
        {
          "duration": 0.625,
          "durationTicks": 384,
          "midi": 40,
          "name": "E2",
          "ticks": 150144,
          "time": 244.375,
          "velocity": 0.7874015748031497
        },
        {
          "duration": 0.3125,
          "durationTicks": 192,
          "midi": 59,
          "name": "B3",
          "ticks": 150144,
          "time": 244.375,
          "velocity": 0.7874015748031497
        },
        {
          "duration": 0.3125,
          "durationTicks": 192,
          "midi": 59,
          "name": "B3",
          "ticks": 150336,
          "time": 244.6875,
          "velocity": 0.6614173228346457
        },
        {
          "duration": 0.46875,
          "durationTicks": 288,
          "midi": 36,
          "name": "C2",
          "ticks": 150528,
          "time": 245,
          "velocity": 0.7874015748031497
        },
        {
          "duration": 0.3125,
          "durationTicks": 192,
          "midi": 59,
          "name": "B3",
          "ticks": 150528,
          "time": 245,
          "velocity": 0.7874015748031497
        },
        {
          "duration": 0.3125,
          "durationTicks": 192,
          "midi": 59,
          "name": "B3",
          "ticks": 150720,
          "time": 245.3125,
          "velocity": 0.6614173228346457
        },
        {
          "duration": 0.15625,
          "durationTicks": 96,
          "midi": 36,
          "name": "C2",
          "ticks": 150816,
          "time": 245.46875,
          "velocity": 0.7874015748031497
        },
        {
          "duration": 0.3125,
          "durationTicks": 192,
          "midi": 59,
          "name": "B3",
          "ticks": 150912,
          "time": 245.625,
          "velocity": 0.7874015748031497
        },
        {
          "duration": 0.625,
          "durationTicks": 384,
          "midi": 40,
          "name": "E2",
          "ticks": 150912,
          "time": 245.625,
          "velocity": 0.7874015748031497
        },
        {
          "duration": 0.3125,
          "durationTicks": 192,
          "midi": 59,
          "name": "B3",
          "ticks": 151104,
          "time": 245.9375,
          "velocity": 0.6614173228346457
        },
        {
          "duration": 0.46875,
          "durationTicks": 288,
          "midi": 36,
          "name": "C2",
          "ticks": 151296,
          "time": 246.25,
          "velocity": 0.7874015748031497
        },
        {
          "duration": 0.3125,
          "durationTicks": 192,
          "midi": 59,
          "name": "B3",
          "ticks": 151296,
          "time": 246.25,
          "velocity": 0.7874015748031497
        },
        {
          "duration": 0.3125,
          "durationTicks": 192,
          "midi": 59,
          "name": "B3",
          "ticks": 151488,
          "time": 246.5625,
          "velocity": 0.6614173228346457
        },
        {
          "duration": 0.15625,
          "durationTicks": 96,
          "midi": 36,
          "name": "C2",
          "ticks": 151584,
          "time": 246.71875,
          "velocity": 0.7874015748031497
        },
        {
          "duration": 0.3125,
          "durationTicks": 192,
          "midi": 59,
          "name": "B3",
          "ticks": 151680,
          "time": 246.875,
          "velocity": 0.7874015748031497
        },
        {
          "duration": 0.625,
          "durationTicks": 384,
          "midi": 40,
          "name": "E2",
          "ticks": 151680,
          "time": 246.875,
          "velocity": 0.7874015748031497
        },
        {
          "duration": 0.3125,
          "durationTicks": 192,
          "midi": 59,
          "name": "B3",
          "ticks": 151872,
          "time": 247.1875,
          "velocity": 0.6614173228346457
        },
        {
          "duration": 0.3125,
          "durationTicks": 192,
          "midi": 59,
          "name": "B3",
          "ticks": 152064,
          "time": 247.5,
          "velocity": 0.7874015748031497
        },
        {
          "duration": 0.3125,
          "durationTicks": 192,
          "midi": 36,
          "name": "C2",
          "ticks": 152064,
          "time": 247.5,
          "velocity": 0.7874015748031497
        },
        {
          "duration": 0.3125,
          "durationTicks": 192,
          "midi": 59,
          "name": "B3",
          "ticks": 152256,
          "time": 247.8125,
          "velocity": 0.6614173228346457
        },
        {
          "duration": 0.3125,
          "durationTicks": 192,
          "midi": 36,
          "name": "C2",
          "ticks": 152256,
          "time": 247.8125,
          "velocity": 0.7874015748031497
        },
        {
          "duration": 0.625,
          "durationTicks": 384,
          "midi": 40,
          "name": "E2",
          "ticks": 152448,
          "time": 248.125,
          "velocity": 0.7874015748031497
        },
        {
          "duration": 0.3125,
          "durationTicks": 192,
          "midi": 59,
          "name": "B3",
          "ticks": 152448,
          "time": 248.125,
          "velocity": 0.7874015748031497
        },
        {
          "duration": 0.3125,
          "durationTicks": 192,
          "midi": 59,
          "name": "B3",
          "ticks": 152640,
          "time": 248.4375,
          "velocity": 0.6614173228346457
        },
        {
          "duration": 0.3125,
          "durationTicks": 192,
          "midi": 59,
          "name": "B3",
          "ticks": 152832,
          "time": 248.75,
          "velocity": 0.7874015748031497
        },
        {
          "duration": 0.625,
          "durationTicks": 384,
          "midi": 36,
          "name": "C2",
          "ticks": 152832,
          "time": 248.75,
          "velocity": 0.7874015748031497
        },
        {
          "duration": 0.3125,
          "durationTicks": 192,
          "midi": 59,
          "name": "B3",
          "ticks": 153024,
          "time": 249.0625,
          "velocity": 0.6614173228346457
        },
        {
          "duration": 0.625,
          "durationTicks": 384,
          "midi": 40,
          "name": "E2",
          "ticks": 153216,
          "time": 249.375,
          "velocity": 0.7874015748031497
        },
        {
          "duration": 0.3125,
          "durationTicks": 192,
          "midi": 59,
          "name": "B3",
          "ticks": 153216,
          "time": 249.375,
          "velocity": 0.7874015748031497
        },
        {
          "duration": 0.3125,
          "durationTicks": 192,
          "midi": 59,
          "name": "B3",
          "ticks": 153408,
          "time": 249.6875,
          "velocity": 0.6614173228346457
        },
        {
          "duration": 0.3125,
          "durationTicks": 192,
          "midi": 59,
          "name": "B3",
          "ticks": 153600,
          "time": 250,
          "velocity": 0.7874015748031497
        },
        {
          "duration": 0.46875,
          "durationTicks": 288,
          "midi": 36,
          "name": "C2",
          "ticks": 153600,
          "time": 250,
          "velocity": 0.7874015748031497
        },
        {
          "duration": 10,
          "durationTicks": 6144,
          "midi": 55,
          "name": "G3",
          "ticks": 153600,
          "time": 250,
          "velocity": 0.7874015748031497
        },
        {
          "duration": 0.3125,
          "durationTicks": 192,
          "midi": 59,
          "name": "B3",
          "ticks": 153792,
          "time": 250.3125,
          "velocity": 0.6614173228346457
        },
        {
          "duration": 0.15625,
          "durationTicks": 96,
          "midi": 36,
          "name": "C2",
          "ticks": 153888,
          "time": 250.46875,
          "velocity": 0.7874015748031497
        },
        {
          "duration": 0.625,
          "durationTicks": 384,
          "midi": 40,
          "name": "E2",
          "ticks": 153984,
          "time": 250.625,
          "velocity": 0.7874015748031497
        },
        {
          "duration": 0.3125,
          "durationTicks": 192,
          "midi": 59,
          "name": "B3",
          "ticks": 153984,
          "time": 250.625,
          "velocity": 0.7874015748031497
        },
        {
          "duration": 0.3125,
          "durationTicks": 192,
          "midi": 59,
          "name": "B3",
          "ticks": 154176,
          "time": 250.9375,
          "velocity": 0.6614173228346457
        },
        {
          "duration": 0.3125,
          "durationTicks": 192,
          "midi": 59,
          "name": "B3",
          "ticks": 154368,
          "time": 251.25,
          "velocity": 0.7874015748031497
        },
        {
          "duration": 0.46875,
          "durationTicks": 288,
          "midi": 36,
          "name": "C2",
          "ticks": 154368,
          "time": 251.25,
          "velocity": 0.7874015748031497
        },
        {
          "duration": 0.3125,
          "durationTicks": 192,
          "midi": 59,
          "name": "B3",
          "ticks": 154560,
          "time": 251.5625,
          "velocity": 0.6614173228346457
        },
        {
          "duration": 0.15625,
          "durationTicks": 96,
          "midi": 36,
          "name": "C2",
          "ticks": 154656,
          "time": 251.71875,
          "velocity": 0.7874015748031497
        },
        {
          "duration": 0.625,
          "durationTicks": 384,
          "midi": 40,
          "name": "E2",
          "ticks": 154752,
          "time": 251.875,
          "velocity": 0.7874015748031497
        },
        {
          "duration": 0.3125,
          "durationTicks": 192,
          "midi": 59,
          "name": "B3",
          "ticks": 154752,
          "time": 251.875,
          "velocity": 0.7874015748031497
        },
        {
          "duration": 0.3125,
          "durationTicks": 192,
          "midi": 59,
          "name": "B3",
          "ticks": 154944,
          "time": 252.1875,
          "velocity": 0.6614173228346457
        },
        {
          "duration": 0.3125,
          "durationTicks": 192,
          "midi": 59,
          "name": "B3",
          "ticks": 155136,
          "time": 252.5,
          "velocity": 0.7874015748031497
        },
        {
          "duration": 0.3125,
          "durationTicks": 192,
          "midi": 36,
          "name": "C2",
          "ticks": 155136,
          "time": 252.5,
          "velocity": 0.7874015748031497
        },
        {
          "duration": 0.3125,
          "durationTicks": 192,
          "midi": 36,
          "name": "C2",
          "ticks": 155328,
          "time": 252.8125,
          "velocity": 0.7874015748031497
        },
        {
          "duration": 0.3125,
          "durationTicks": 192,
          "midi": 59,
          "name": "B3",
          "ticks": 155328,
          "time": 252.8125,
          "velocity": 0.6614173228346457
        },
        {
          "duration": 0.3125,
          "durationTicks": 192,
          "midi": 59,
          "name": "B3",
          "ticks": 155520,
          "time": 253.125,
          "velocity": 0.7874015748031497
        },
        {
          "duration": 0.625,
          "durationTicks": 384,
          "midi": 40,
          "name": "E2",
          "ticks": 155520,
          "time": 253.125,
          "velocity": 0.7874015748031497
        },
        {
          "duration": 0.3125,
          "durationTicks": 192,
          "midi": 59,
          "name": "B3",
          "ticks": 155712,
          "time": 253.4375,
          "velocity": 0.6614173228346457
        },
        {
          "duration": 0.3125,
          "durationTicks": 192,
          "midi": 59,
          "name": "B3",
          "ticks": 155904,
          "time": 253.75,
          "velocity": 0.7874015748031497
        },
        {
          "duration": 0.15625,
          "durationTicks": 96,
          "midi": 36,
          "name": "C2",
          "ticks": 155904,
          "time": 253.75,
          "velocity": 0.7874015748031497
        },
        {
          "duration": 0.46875,
          "durationTicks": 288,
          "midi": 40,
          "name": "E2",
          "ticks": 156000,
          "time": 253.90625,
          "velocity": 0.7874015748031497
        },
        {
          "duration": 0.3125,
          "durationTicks": 192,
          "midi": 59,
          "name": "B3",
          "ticks": 156096,
          "time": 254.0625,
          "velocity": 0.6614173228346457
        },
        {
          "duration": 0.3125,
          "durationTicks": 192,
          "midi": 59,
          "name": "B3",
          "ticks": 156288,
          "time": 254.375,
          "velocity": 0.7874015748031497
        },
        {
          "duration": 0.625,
          "durationTicks": 384,
          "midi": 40,
          "name": "E2",
          "ticks": 156288,
          "time": 254.375,
          "velocity": 0.7874015748031497
        },
        {
          "duration": 0.3125,
          "durationTicks": 192,
          "midi": 59,
          "name": "B3",
          "ticks": 156480,
          "time": 254.6875,
          "velocity": 0.6614173228346457
        },
        {
          "duration": 0.3125,
          "durationTicks": 192,
          "midi": 59,
          "name": "B3",
          "ticks": 156672,
          "time": 255,
          "velocity": 0.7874015748031497
        },
        {
          "duration": 0.46875,
          "durationTicks": 288,
          "midi": 36,
          "name": "C2",
          "ticks": 156672,
          "time": 255,
          "velocity": 0.7874015748031497
        },
        {
          "duration": 0.3125,
          "durationTicks": 192,
          "midi": 59,
          "name": "B3",
          "ticks": 156864,
          "time": 255.3125,
          "velocity": 0.6614173228346457
        },
        {
          "duration": 0.15625,
          "durationTicks": 96,
          "midi": 36,
          "name": "C2",
          "ticks": 156960,
          "time": 255.46875,
          "velocity": 0.7874015748031497
        },
        {
          "duration": 0.3125,
          "durationTicks": 192,
          "midi": 59,
          "name": "B3",
          "ticks": 157056,
          "time": 255.625,
          "velocity": 0.7874015748031497
        },
        {
          "duration": 0.625,
          "durationTicks": 384,
          "midi": 40,
          "name": "E2",
          "ticks": 157056,
          "time": 255.625,
          "velocity": 0.7874015748031497
        },
        {
          "duration": 0.3125,
          "durationTicks": 192,
          "midi": 59,
          "name": "B3",
          "ticks": 157248,
          "time": 255.9375,
          "velocity": 0.6614173228346457
        },
        {
          "duration": 0.46875,
          "durationTicks": 288,
          "midi": 36,
          "name": "C2",
          "ticks": 157440,
          "time": 256.25,
          "velocity": 0.7874015748031497
        },
        {
          "duration": 0.3125,
          "durationTicks": 192,
          "midi": 59,
          "name": "B3",
          "ticks": 157440,
          "time": 256.25,
          "velocity": 0.7874015748031497
        },
        {
          "duration": 0.3125,
          "durationTicks": 192,
          "midi": 59,
          "name": "B3",
          "ticks": 157632,
          "time": 256.5625,
          "velocity": 0.6614173228346457
        },
        {
          "duration": 0.15625,
          "durationTicks": 96,
          "midi": 36,
          "name": "C2",
          "ticks": 157728,
          "time": 256.71875,
          "velocity": 0.7874015748031497
        },
        {
          "duration": 0.3125,
          "durationTicks": 192,
          "midi": 59,
          "name": "B3",
          "ticks": 157824,
          "time": 256.875,
          "velocity": 0.7874015748031497
        },
        {
          "duration": 0.625,
          "durationTicks": 384,
          "midi": 40,
          "name": "E2",
          "ticks": 157824,
          "time": 256.875,
          "velocity": 0.7874015748031497
        },
        {
          "duration": 0.3125,
          "durationTicks": 192,
          "midi": 59,
          "name": "B3",
          "ticks": 158016,
          "time": 257.1875,
          "velocity": 0.6614173228346457
        },
        {
          "duration": 0.3125,
          "durationTicks": 192,
          "midi": 59,
          "name": "B3",
          "ticks": 158208,
          "time": 257.5,
          "velocity": 0.7874015748031497
        },
        {
          "duration": 0.3125,
          "durationTicks": 192,
          "midi": 36,
          "name": "C2",
          "ticks": 158208,
          "time": 257.5,
          "velocity": 0.7874015748031497
        },
        {
          "duration": 0.3125,
          "durationTicks": 192,
          "midi": 36,
          "name": "C2",
          "ticks": 158400,
          "time": 257.8125,
          "velocity": 0.7874015748031497
        },
        {
          "duration": 0.3125,
          "durationTicks": 192,
          "midi": 59,
          "name": "B3",
          "ticks": 158400,
          "time": 257.8125,
          "velocity": 0.6614173228346457
        },
        {
          "duration": 0.3125,
          "durationTicks": 192,
          "midi": 59,
          "name": "B3",
          "ticks": 158592,
          "time": 258.125,
          "velocity": 0.7874015748031497
        },
        {
          "duration": 0.625,
          "durationTicks": 384,
          "midi": 40,
          "name": "E2",
          "ticks": 158592,
          "time": 258.125,
          "velocity": 0.7874015748031497
        },
        {
          "duration": 0.3125,
          "durationTicks": 192,
          "midi": 59,
          "name": "B3",
          "ticks": 158784,
          "time": 258.4375,
          "velocity": 0.6614173228346457
        },
        {
          "duration": 0.625,
          "durationTicks": 384,
          "midi": 36,
          "name": "C2",
          "ticks": 158976,
          "time": 258.75,
          "velocity": 0.7874015748031497
        },
        {
          "duration": 0.3125,
          "durationTicks": 192,
          "midi": 59,
          "name": "B3",
          "ticks": 158976,
          "time": 258.75,
          "velocity": 0.7874015748031497
        },
        {
          "duration": 0.3125,
          "durationTicks": 192,
          "midi": 59,
          "name": "B3",
          "ticks": 159168,
          "time": 259.0625,
          "velocity": 0.6614173228346457
        },
        {
          "duration": 0.15625,
          "durationTicks": 96,
          "midi": 40,
          "name": "E2",
          "ticks": 159360,
          "time": 259.375,
          "velocity": 0.7874015748031497
        },
        {
          "duration": 0.3125,
          "durationTicks": 192,
          "midi": 59,
          "name": "B3",
          "ticks": 159360,
          "time": 259.375,
          "velocity": 0.7874015748031497
        },
        {
          "duration": 0.15625,
          "durationTicks": 96,
          "midi": 40,
          "name": "E2",
          "ticks": 159456,
          "time": 259.53125,
          "velocity": 0.7874015748031497
        },
        {
          "duration": 0.3125,
          "durationTicks": 192,
          "midi": 59,
          "name": "B3",
          "ticks": 159552,
          "time": 259.6875,
          "velocity": 0.6614173228346457
        },
        {
          "duration": 0.15625,
          "durationTicks": 96,
          "midi": 40,
          "name": "E2",
          "ticks": 159552,
          "time": 259.6875,
          "velocity": 0.7874015748031497
        },
        {
          "duration": 0.15625,
          "durationTicks": 96,
          "midi": 40,
          "name": "E2",
          "ticks": 159648,
          "time": 259.84375,
          "velocity": 0.7874015748031497
        },
        {
          "duration": 0.46875,
          "durationTicks": 288,
          "midi": 36,
          "name": "C2",
          "ticks": 159744,
          "time": 260,
          "velocity": 0.7874015748031497
        },
        {
          "duration": 0.3125,
          "durationTicks": 192,
          "midi": 59,
          "name": "B3",
          "ticks": 159744,
          "time": 260,
          "velocity": 0.7874015748031497
        },
        {
          "duration": 10,
          "durationTicks": 6144,
          "midi": 55,
          "name": "G3",
          "ticks": 159744,
          "time": 260,
          "velocity": 0.7874015748031497
        },
        {
          "duration": 0.3125,
          "durationTicks": 192,
          "midi": 59,
          "name": "B3",
          "ticks": 159936,
          "time": 260.3125,
          "velocity": 0.6614173228346457
        },
        {
          "duration": 0.15625,
          "durationTicks": 96,
          "midi": 36,
          "name": "C2",
          "ticks": 160032,
          "time": 260.46875,
          "velocity": 0.7874015748031497
        },
        {
          "duration": 0.625,
          "durationTicks": 384,
          "midi": 40,
          "name": "E2",
          "ticks": 160128,
          "time": 260.625,
          "velocity": 0.7874015748031497
        },
        {
          "duration": 0.3125,
          "durationTicks": 192,
          "midi": 59,
          "name": "B3",
          "ticks": 160128,
          "time": 260.625,
          "velocity": 0.7874015748031497
        },
        {
          "duration": 0.3125,
          "durationTicks": 192,
          "midi": 59,
          "name": "B3",
          "ticks": 160320,
          "time": 260.9375,
          "velocity": 0.6614173228346457
        },
        {
          "duration": 0.46875,
          "durationTicks": 288,
          "midi": 36,
          "name": "C2",
          "ticks": 160512,
          "time": 261.25,
          "velocity": 0.7874015748031497
        },
        {
          "duration": 0.3125,
          "durationTicks": 192,
          "midi": 59,
          "name": "B3",
          "ticks": 160512,
          "time": 261.25,
          "velocity": 0.7874015748031497
        },
        {
          "duration": 0.3125,
          "durationTicks": 192,
          "midi": 59,
          "name": "B3",
          "ticks": 160704,
          "time": 261.5625,
          "velocity": 0.6614173228346457
        },
        {
          "duration": 0.15625,
          "durationTicks": 96,
          "midi": 36,
          "name": "C2",
          "ticks": 160800,
          "time": 261.71875,
          "velocity": 0.7874015748031497
        },
        {
          "duration": 0.3125,
          "durationTicks": 192,
          "midi": 59,
          "name": "B3",
          "ticks": 160896,
          "time": 261.875,
          "velocity": 0.7874015748031497
        },
        {
          "duration": 0.625,
          "durationTicks": 384,
          "midi": 40,
          "name": "E2",
          "ticks": 160896,
          "time": 261.875,
          "velocity": 0.7874015748031497
        },
        {
          "duration": 0.3125,
          "durationTicks": 192,
          "midi": 59,
          "name": "B3",
          "ticks": 161088,
          "time": 262.1875,
          "velocity": 0.6614173228346457
        },
        {
          "duration": 0.3125,
          "durationTicks": 192,
          "midi": 36,
          "name": "C2",
          "ticks": 161280,
          "time": 262.5,
          "velocity": 0.7874015748031497
        },
        {
          "duration": 0.3125,
          "durationTicks": 192,
          "midi": 59,
          "name": "B3",
          "ticks": 161280,
          "time": 262.5,
          "velocity": 0.7874015748031497
        },
        {
          "duration": 0.3125,
          "durationTicks": 192,
          "midi": 36,
          "name": "C2",
          "ticks": 161472,
          "time": 262.8125,
          "velocity": 0.7874015748031497
        },
        {
          "duration": 0.3125,
          "durationTicks": 192,
          "midi": 59,
          "name": "B3",
          "ticks": 161472,
          "time": 262.8125,
          "velocity": 0.6614173228346457
        },
        {
          "duration": 0.3125,
          "durationTicks": 192,
          "midi": 59,
          "name": "B3",
          "ticks": 161664,
          "time": 263.125,
          "velocity": 0.7874015748031497
        },
        {
          "duration": 0.625,
          "durationTicks": 384,
          "midi": 40,
          "name": "E2",
          "ticks": 161664,
          "time": 263.125,
          "velocity": 0.7874015748031497
        },
        {
          "duration": 0.3125,
          "durationTicks": 192,
          "midi": 59,
          "name": "B3",
          "ticks": 161856,
          "time": 263.4375,
          "velocity": 0.6614173228346457
        },
        {
          "duration": 0.3125,
          "durationTicks": 192,
          "midi": 59,
          "name": "B3",
          "ticks": 162048,
          "time": 263.75,
          "velocity": 0.7874015748031497
        },
        {
          "duration": 0.15625,
          "durationTicks": 96,
          "midi": 36,
          "name": "C2",
          "ticks": 162048,
          "time": 263.75,
          "velocity": 0.7874015748031497
        },
        {
          "duration": 0.46875,
          "durationTicks": 288,
          "midi": 40,
          "name": "E2",
          "ticks": 162144,
          "time": 263.90625,
          "velocity": 0.7874015748031497
        },
        {
          "duration": 0.3125,
          "durationTicks": 192,
          "midi": 59,
          "name": "B3",
          "ticks": 162240,
          "time": 264.0625,
          "velocity": 0.6614173228346457
        },
        {
          "duration": 0.625,
          "durationTicks": 384,
          "midi": 40,
          "name": "E2",
          "ticks": 162432,
          "time": 264.375,
          "velocity": 0.7874015748031497
        },
        {
          "duration": 0.3125,
          "durationTicks": 192,
          "midi": 59,
          "name": "B3",
          "ticks": 162432,
          "time": 264.375,
          "velocity": 0.7874015748031497
        },
        {
          "duration": 0.3125,
          "durationTicks": 192,
          "midi": 59,
          "name": "B3",
          "ticks": 162624,
          "time": 264.6875,
          "velocity": 0.6614173228346457
        },
        {
          "duration": 0.3125,
          "durationTicks": 192,
          "midi": 59,
          "name": "B3",
          "ticks": 162816,
          "time": 265,
          "velocity": 0.7874015748031497
        },
        {
          "duration": 0.46875,
          "durationTicks": 288,
          "midi": 36,
          "name": "C2",
          "ticks": 162816,
          "time": 265,
          "velocity": 0.7874015748031497
        },
        {
          "duration": 0.3125,
          "durationTicks": 192,
          "midi": 59,
          "name": "B3",
          "ticks": 163008,
          "time": 265.3125,
          "velocity": 0.6614173228346457
        },
        {
          "duration": 0.15625,
          "durationTicks": 96,
          "midi": 36,
          "name": "C2",
          "ticks": 163104,
          "time": 265.46875,
          "velocity": 0.7874015748031497
        },
        {
          "duration": 0.625,
          "durationTicks": 384,
          "midi": 40,
          "name": "E2",
          "ticks": 163200,
          "time": 265.625,
          "velocity": 0.7874015748031497
        },
        {
          "duration": 0.3125,
          "durationTicks": 192,
          "midi": 59,
          "name": "B3",
          "ticks": 163200,
          "time": 265.625,
          "velocity": 0.7874015748031497
        },
        {
          "duration": 0.3125,
          "durationTicks": 192,
          "midi": 59,
          "name": "B3",
          "ticks": 163392,
          "time": 265.9375,
          "velocity": 0.6614173228346457
        },
        {
          "duration": 0.3125,
          "durationTicks": 192,
          "midi": 59,
          "name": "B3",
          "ticks": 163584,
          "time": 266.25,
          "velocity": 0.7874015748031497
        },
        {
          "duration": 0.46875,
          "durationTicks": 288,
          "midi": 36,
          "name": "C2",
          "ticks": 163584,
          "time": 266.25,
          "velocity": 0.7874015748031497
        },
        {
          "duration": 0.3125,
          "durationTicks": 192,
          "midi": 59,
          "name": "B3",
          "ticks": 163776,
          "time": 266.5625,
          "velocity": 0.6614173228346457
        },
        {
          "duration": 0.15625,
          "durationTicks": 96,
          "midi": 36,
          "name": "C2",
          "ticks": 163872,
          "time": 266.71875,
          "velocity": 0.7874015748031497
        },
        {
          "duration": 0.3125,
          "durationTicks": 192,
          "midi": 59,
          "name": "B3",
          "ticks": 163968,
          "time": 266.875,
          "velocity": 0.7874015748031497
        },
        {
          "duration": 0.625,
          "durationTicks": 384,
          "midi": 40,
          "name": "E2",
          "ticks": 163968,
          "time": 266.875,
          "velocity": 0.7874015748031497
        },
        {
          "duration": 0.3125,
          "durationTicks": 192,
          "midi": 59,
          "name": "B3",
          "ticks": 164160,
          "time": 267.1875,
          "velocity": 0.6614173228346457
        },
        {
          "duration": 0.3125,
          "durationTicks": 192,
          "midi": 59,
          "name": "B3",
          "ticks": 164352,
          "time": 267.5,
          "velocity": 0.7874015748031497
        },
        {
          "duration": 0.3125,
          "durationTicks": 192,
          "midi": 36,
          "name": "C2",
          "ticks": 164352,
          "time": 267.5,
          "velocity": 0.7874015748031497
        },
        {
          "duration": 0.3125,
          "durationTicks": 192,
          "midi": 59,
          "name": "B3",
          "ticks": 164544,
          "time": 267.8125,
          "velocity": 0.6614173228346457
        },
        {
          "duration": 0.3125,
          "durationTicks": 192,
          "midi": 36,
          "name": "C2",
          "ticks": 164544,
          "time": 267.8125,
          "velocity": 0.7874015748031497
        },
        {
          "duration": 0.3125,
          "durationTicks": 192,
          "midi": 59,
          "name": "B3",
          "ticks": 164736,
          "time": 268.125,
          "velocity": 0.7874015748031497
        },
        {
          "duration": 0.625,
          "durationTicks": 384,
          "midi": 40,
          "name": "E2",
          "ticks": 164736,
          "time": 268.125,
          "velocity": 0.7874015748031497
        },
        {
          "duration": 0.3125,
          "durationTicks": 192,
          "midi": 59,
          "name": "B3",
          "ticks": 164928,
          "time": 268.4375,
          "velocity": 0.6614173228346457
        },
        {
          "duration": 0.625,
          "durationTicks": 384,
          "midi": 36,
          "name": "C2",
          "ticks": 165120,
          "time": 268.75,
          "velocity": 0.7874015748031497
        },
        {
          "duration": 0.3125,
          "durationTicks": 192,
          "midi": 59,
          "name": "B3",
          "ticks": 165120,
          "time": 268.75,
          "velocity": 0.7874015748031497
        },
        {
          "duration": 0.3125,
          "durationTicks": 192,
          "midi": 59,
          "name": "B3",
          "ticks": 165312,
          "time": 269.0625,
          "velocity": 0.6614173228346457
        },
        {
          "duration": 0.15625,
          "durationTicks": 96,
          "midi": 40,
          "name": "E2",
          "ticks": 165504,
          "time": 269.375,
          "velocity": 0.7874015748031497
        },
        {
          "duration": 0.3125,
          "durationTicks": 192,
          "midi": 59,
          "name": "B3",
          "ticks": 165504,
          "time": 269.375,
          "velocity": 0.7874015748031497
        },
        {
          "duration": 0.15625,
          "durationTicks": 96,
          "midi": 40,
          "name": "E2",
          "ticks": 165600,
          "time": 269.53125,
          "velocity": 0.7874015748031497
        },
        {
          "duration": 0.15625,
          "durationTicks": 96,
          "midi": 40,
          "name": "E2",
          "ticks": 165696,
          "time": 269.6875,
          "velocity": 0.7874015748031497
        },
        {
          "duration": 0.625,
          "durationTicks": 384,
          "midi": 59,
          "name": "B3",
          "ticks": 165696,
          "time": 269.6875,
          "velocity": 0.6614173228346457
        },
        {
          "duration": 0.15625,
          "durationTicks": 96,
          "midi": 40,
          "name": "E2",
          "ticks": 165792,
          "time": 269.84375,
          "velocity": 0.7874015748031497
        },
        {
          "duration": 0.46875,
          "durationTicks": 288,
          "midi": 36,
          "name": "C2",
          "ticks": 165888,
          "time": 270,
          "velocity": 0.7874015748031497
        },
        {
          "duration": 2.5,
          "durationTicks": 1536,
          "midi": 57,
          "name": "A3",
          "ticks": 165888,
          "time": 270,
          "velocity": 0.7874015748031497
        },
        {
          "duration": 0.46875,
          "durationTicks": 288,
          "midi": 36,
          "name": "C2",
          "ticks": 166176,
          "time": 270.46875,
          "velocity": 0.6614173228346457
        },
        {
          "duration": 0.46875,
          "durationTicks": 288,
          "midi": 36,
          "name": "C2",
          "ticks": 166464,
          "time": 270.9375,
          "velocity": 0.5354330708661418
        },
        {
          "duration": 0.15625,
          "durationTicks": 96,
          "midi": 36,
          "name": "C2",
          "ticks": 166752,
          "time": 271.40625,
          "velocity": 0.4094488188976378
        },
        {
          "duration": 0.15625,
          "durationTicks": 96,
          "midi": 36,
          "name": "C2",
          "ticks": 166848,
          "time": 271.5625,
          "velocity": 0.4094488188976378
        },
        {
          "duration": 0.15625,
          "durationTicks": 96,
          "midi": 36,
          "name": "C2",
          "ticks": 166944,
          "time": 271.71875,
          "velocity": 0.4015748031496063
        },
        {
          "duration": 0.625,
          "durationTicks": 384,
          "midi": 36,
          "name": "C2",
          "ticks": 167040,
          "time": 271.875,
          "velocity": 0.3937007874015748
        },
        {
          "duration": 0.46875,
          "durationTicks": 288,
          "midi": 57,
          "name": "A3",
          "ticks": 167424,
          "time": 272.5,
          "velocity": 0.7874015748031497
        },
        {
          "duration": 0.46875,
          "durationTicks": 288,
          "midi": 36,
          "name": "C2",
          "ticks": 167424,
          "time": 272.5,
          "velocity": 0.7874015748031497
        },
        {
          "duration": 0.46875,
          "durationTicks": 288,
          "midi": 36,
          "name": "C2",
          "ticks": 167712,
          "time": 272.96875,
          "velocity": 0.7874015748031497
        },
        {
          "duration": 0.46875,
          "durationTicks": 288,
          "midi": 57,
          "name": "A3",
          "ticks": 167712,
          "time": 272.96875,
          "velocity": 0.7874015748031497
        },
        {
          "duration": 0.3125,
          "durationTicks": 192,
          "midi": 36,
          "name": "C2",
          "ticks": 168000,
          "time": 273.4375,
          "velocity": 0.7874015748031497
        },
        {
          "duration": 0.3125,
          "durationTicks": 192,
          "midi": 57,
          "name": "A3",
          "ticks": 168000,
          "time": 273.4375,
          "velocity": 0.7874015748031497
        },
        {
          "duration": 5.15625,
          "durationTicks": 3168,
          "midi": 36,
          "name": "C2",
          "ticks": 168192,
          "time": 273.75,
          "velocity": 0.7874015748031497
        },
        {
          "duration": 1.25,
          "durationTicks": 768,
          "midi": 57,
          "name": "A3",
          "ticks": 168192,
          "time": 273.75,
          "velocity": 0.7874015748031497
        },
        {
          "duration": 4.375,
          "durationTicks": 2688,
          "midi": 40,
          "name": "E2",
          "ticks": 168576,
          "time": 274.375,
          "velocity": 0.7874015748031497
        },
        {
          "duration": 5,
          "durationTicks": 3072,
          "midi": 57,
          "name": "A3",
          "ticks": 168960,
          "time": 275,
          "velocity": 0.6850393700787402
        },
        {
          "duration": 0.15625,
          "durationTicks": 96,
          "midi": 40,
          "name": "E2",
          "ticks": 171264,
          "time": 278.75,
          "velocity": 0.7165354330708661
        },
        {
          "duration": 0.15625,
          "durationTicks": 96,
          "midi": 40,
          "name": "E2",
          "ticks": 171360,
          "time": 278.90625,
          "velocity": 0.7322834645669292
        },
        {
          "duration": 0.15625,
          "durationTicks": 96,
          "midi": 40,
          "name": "E2",
          "ticks": 171456,
          "time": 279.0625,
          "velocity": 0.7322834645669292
        },
        {
          "duration": 0.15625,
          "durationTicks": 96,
          "midi": 40,
          "name": "E2",
          "ticks": 171552,
          "time": 279.21875,
          "velocity": 0.7637795275590551
        },
        {
          "duration": 0,
          "durationTicks": 0,
          "midi": 40,
          "name": "E2",
          "ticks": 171648,
          "time": 279.375,
          "velocity": 0.7795275590551181
        },
        {
          "duration": 0.13671875,
          "durationTicks": 84,
          "midi": 40,
          "name": "E2",
          "ticks": 171660,
          "time": 279.39453125,
          "velocity": 0.7637795275590551
        },
        {
          "duration": 0.01953125,
          "durationTicks": 12,
          "midi": 40,
          "name": "E2",
          "ticks": 171744,
          "time": 279.53125,
          "velocity": 0.7795275590551181
        },
        {
          "duration": 0.15625,
          "durationTicks": 96,
          "midi": 40,
          "name": "E2",
          "ticks": 171756,
          "time": 279.55078125,
          "velocity": 0.7874015748031497
        },
        {
          "duration": 0.15625,
          "durationTicks": 96,
          "midi": 40,
          "name": "E2",
          "ticks": 171840,
          "time": 279.6875,
          "velocity": 0.7874015748031497
        },
        {
          "duration": 0.13671875,
          "durationTicks": 84,
          "midi": 40,
          "name": "E2",
          "ticks": 171936,
          "time": 279.84375,
          "velocity": 0.7874015748031497
        },
        {
          "duration": 0.01953125,
          "durationTicks": 12,
          "midi": 40,
          "name": "E2",
          "ticks": 172020,
          "time": 279.98046875,
          "velocity": 0.7874015748031497
        },
        {
          "duration": 0.3125,
          "durationTicks": 192,
          "midi": 59,
          "name": "B3",
          "ticks": 172032,
          "time": 280,
          "velocity": 0.7874015748031497
        },
        {
          "duration": 0.46875,
          "durationTicks": 288,
          "midi": 36,
          "name": "C2",
          "ticks": 172032,
          "time": 280,
          "velocity": 0.7874015748031497
        },
        {
          "duration": 9.375,
          "durationTicks": 5760,
          "midi": 57,
          "name": "A3",
          "ticks": 172032,
          "time": 280,
          "velocity": 0.7874015748031497
        },
        {
          "duration": 0.3125,
          "durationTicks": 192,
          "midi": 59,
          "name": "B3",
          "ticks": 172224,
          "time": 280.3125,
          "velocity": 0.6614173228346457
        },
        {
          "duration": 0.15625,
          "durationTicks": 96,
          "midi": 36,
          "name": "C2",
          "ticks": 172320,
          "time": 280.46875,
          "velocity": 0.7874015748031497
        },
        {
          "duration": 0.625,
          "durationTicks": 384,
          "midi": 40,
          "name": "E2",
          "ticks": 172416,
          "time": 280.625,
          "velocity": 0.7874015748031497
        },
        {
          "duration": 0.3125,
          "durationTicks": 192,
          "midi": 59,
          "name": "B3",
          "ticks": 172416,
          "time": 280.625,
          "velocity": 0.7874015748031497
        },
        {
          "duration": 0.3125,
          "durationTicks": 192,
          "midi": 59,
          "name": "B3",
          "ticks": 172608,
          "time": 280.9375,
          "velocity": 0.6614173228346457
        },
        {
          "duration": 0.46875,
          "durationTicks": 288,
          "midi": 36,
          "name": "C2",
          "ticks": 172800,
          "time": 281.25,
          "velocity": 0.7874015748031497
        },
        {
          "duration": 0.3125,
          "durationTicks": 192,
          "midi": 59,
          "name": "B3",
          "ticks": 172800,
          "time": 281.25,
          "velocity": 0.7874015748031497
        },
        {
          "duration": 0.3125,
          "durationTicks": 192,
          "midi": 59,
          "name": "B3",
          "ticks": 172992,
          "time": 281.5625,
          "velocity": 0.6614173228346457
        },
        {
          "duration": 0.15625,
          "durationTicks": 96,
          "midi": 36,
          "name": "C2",
          "ticks": 173088,
          "time": 281.71875,
          "velocity": 0.7874015748031497
        },
        {
          "duration": 0.3125,
          "durationTicks": 192,
          "midi": 59,
          "name": "B3",
          "ticks": 173184,
          "time": 281.875,
          "velocity": 0.7874015748031497
        },
        {
          "duration": 0.625,
          "durationTicks": 384,
          "midi": 40,
          "name": "E2",
          "ticks": 173184,
          "time": 281.875,
          "velocity": 0.7874015748031497
        },
        {
          "duration": 0.3125,
          "durationTicks": 192,
          "midi": 59,
          "name": "B3",
          "ticks": 173376,
          "time": 282.1875,
          "velocity": 0.6614173228346457
        },
        {
          "duration": 0.3125,
          "durationTicks": 192,
          "midi": 36,
          "name": "C2",
          "ticks": 173568,
          "time": 282.5,
          "velocity": 0.7874015748031497
        },
        {
          "duration": 0.3125,
          "durationTicks": 192,
          "midi": 59,
          "name": "B3",
          "ticks": 173568,
          "time": 282.5,
          "velocity": 0.7874015748031497
        },
        {
          "duration": 0.3125,
          "durationTicks": 192,
          "midi": 59,
          "name": "B3",
          "ticks": 173760,
          "time": 282.8125,
          "velocity": 0.6614173228346457
        },
        {
          "duration": 0.3125,
          "durationTicks": 192,
          "midi": 36,
          "name": "C2",
          "ticks": 173760,
          "time": 282.8125,
          "velocity": 0.7874015748031497
        },
        {
          "duration": 0.3125,
          "durationTicks": 192,
          "midi": 59,
          "name": "B3",
          "ticks": 173952,
          "time": 283.125,
          "velocity": 0.7874015748031497
        },
        {
          "duration": 0.625,
          "durationTicks": 384,
          "midi": 40,
          "name": "E2",
          "ticks": 173952,
          "time": 283.125,
          "velocity": 0.7874015748031497
        },
        {
          "duration": 0.3125,
          "durationTicks": 192,
          "midi": 59,
          "name": "B3",
          "ticks": 174144,
          "time": 283.4375,
          "velocity": 0.6614173228346457
        },
        {
          "duration": 0.15625,
          "durationTicks": 96,
          "midi": 36,
          "name": "C2",
          "ticks": 174336,
          "time": 283.75,
          "velocity": 0.7874015748031497
        },
        {
          "duration": 0.3125,
          "durationTicks": 192,
          "midi": 59,
          "name": "B3",
          "ticks": 174336,
          "time": 283.75,
          "velocity": 0.7874015748031497
        },
        {
          "duration": 0.46875,
          "durationTicks": 288,
          "midi": 40,
          "name": "E2",
          "ticks": 174432,
          "time": 283.90625,
          "velocity": 0.7874015748031497
        },
        {
          "duration": 0.3125,
          "durationTicks": 192,
          "midi": 59,
          "name": "B3",
          "ticks": 174528,
          "time": 284.0625,
          "velocity": 0.6614173228346457
        },
        {
          "duration": 0.3125,
          "durationTicks": 192,
          "midi": 59,
          "name": "B3",
          "ticks": 174720,
          "time": 284.375,
          "velocity": 0.7874015748031497
        },
        {
          "duration": 0.625,
          "durationTicks": 384,
          "midi": 40,
          "name": "E2",
          "ticks": 174720,
          "time": 284.375,
          "velocity": 0.7874015748031497
        },
        {
          "duration": 0.3125,
          "durationTicks": 192,
          "midi": 59,
          "name": "B3",
          "ticks": 174912,
          "time": 284.6875,
          "velocity": 0.6614173228346457
        },
        {
          "duration": 0.3125,
          "durationTicks": 192,
          "midi": 59,
          "name": "B3",
          "ticks": 175104,
          "time": 285,
          "velocity": 0.7874015748031497
        },
        {
          "duration": 0.46875,
          "durationTicks": 288,
          "midi": 36,
          "name": "C2",
          "ticks": 175104,
          "time": 285,
          "velocity": 0.7874015748031497
        },
        {
          "duration": 0.3125,
          "durationTicks": 192,
          "midi": 59,
          "name": "B3",
          "ticks": 175296,
          "time": 285.3125,
          "velocity": 0.6614173228346457
        },
        {
          "duration": 0.15625,
          "durationTicks": 96,
          "midi": 36,
          "name": "C2",
          "ticks": 175392,
          "time": 285.46875,
          "velocity": 0.7874015748031497
        },
        {
          "duration": 0.3125,
          "durationTicks": 192,
          "midi": 59,
          "name": "B3",
          "ticks": 175488,
          "time": 285.625,
          "velocity": 0.7874015748031497
        },
        {
          "duration": 0.625,
          "durationTicks": 384,
          "midi": 40,
          "name": "E2",
          "ticks": 175488,
          "time": 285.625,
          "velocity": 0.7874015748031497
        },
        {
          "duration": 0.3125,
          "durationTicks": 192,
          "midi": 59,
          "name": "B3",
          "ticks": 175680,
          "time": 285.9375,
          "velocity": 0.6614173228346457
        },
        {
          "duration": 0.46875,
          "durationTicks": 288,
          "midi": 36,
          "name": "C2",
          "ticks": 175872,
          "time": 286.25,
          "velocity": 0.7874015748031497
        },
        {
          "duration": 0.3125,
          "durationTicks": 192,
          "midi": 59,
          "name": "B3",
          "ticks": 175872,
          "time": 286.25,
          "velocity": 0.7874015748031497
        },
        {
          "duration": 0.3125,
          "durationTicks": 192,
          "midi": 59,
          "name": "B3",
          "ticks": 176064,
          "time": 286.5625,
          "velocity": 0.6614173228346457
        },
        {
          "duration": 0.15625,
          "durationTicks": 96,
          "midi": 36,
          "name": "C2",
          "ticks": 176160,
          "time": 286.71875,
          "velocity": 0.7874015748031497
        },
        {
          "duration": 0.625,
          "durationTicks": 384,
          "midi": 40,
          "name": "E2",
          "ticks": 176256,
          "time": 286.875,
          "velocity": 0.7874015748031497
        },
        {
          "duration": 0.3125,
          "durationTicks": 192,
          "midi": 59,
          "name": "B3",
          "ticks": 176256,
          "time": 286.875,
          "velocity": 0.7874015748031497
        },
        {
          "duration": 0.3125,
          "durationTicks": 192,
          "midi": 59,
          "name": "B3",
          "ticks": 176448,
          "time": 287.1875,
          "velocity": 0.6614173228346457
        },
        {
          "duration": 0.3125,
          "durationTicks": 192,
          "midi": 36,
          "name": "C2",
          "ticks": 176640,
          "time": 287.5,
          "velocity": 0.7874015748031497
        },
        {
          "duration": 0.3125,
          "durationTicks": 192,
          "midi": 59,
          "name": "B3",
          "ticks": 176640,
          "time": 287.5,
          "velocity": 0.7874015748031497
        },
        {
          "duration": 0.3125,
          "durationTicks": 192,
          "midi": 36,
          "name": "C2",
          "ticks": 176832,
          "time": 287.8125,
          "velocity": 0.7874015748031497
        },
        {
          "duration": 0.3125,
          "durationTicks": 192,
          "midi": 59,
          "name": "B3",
          "ticks": 176832,
          "time": 287.8125,
          "velocity": 0.6614173228346457
        },
        {
          "duration": 0.3125,
          "durationTicks": 192,
          "midi": 59,
          "name": "B3",
          "ticks": 177024,
          "time": 288.125,
          "velocity": 0.7874015748031497
        },
        {
          "duration": 0.625,
          "durationTicks": 384,
          "midi": 40,
          "name": "E2",
          "ticks": 177024,
          "time": 288.125,
          "velocity": 0.7874015748031497
        },
        {
          "duration": 0.3125,
          "durationTicks": 192,
          "midi": 59,
          "name": "B3",
          "ticks": 177216,
          "time": 288.4375,
          "velocity": 0.6614173228346457
        },
        {
          "duration": 0.625,
          "durationTicks": 384,
          "midi": 36,
          "name": "C2",
          "ticks": 177408,
          "time": 288.75,
          "velocity": 0.7874015748031497
        },
        {
          "duration": 0.3125,
          "durationTicks": 192,
          "midi": 59,
          "name": "B3",
          "ticks": 177408,
          "time": 288.75,
          "velocity": 0.7874015748031497
        },
        {
          "duration": 0.3125,
          "durationTicks": 192,
          "midi": 59,
          "name": "B3",
          "ticks": 177600,
          "time": 289.0625,
          "velocity": 0.6614173228346457
        },
        {
          "duration": 0.3125,
          "durationTicks": 192,
          "midi": 55,
          "name": "G3",
          "ticks": 177792,
          "time": 289.375,
          "velocity": 0.7874015748031497
        },
        {
          "duration": 0.3125,
          "durationTicks": 192,
          "midi": 40,
          "name": "E2",
          "ticks": 177792,
          "time": 289.375,
          "velocity": 0.7874015748031497
        },
        {
          "duration": 0.3125,
          "durationTicks": 192,
          "midi": 59,
          "name": "B3",
          "ticks": 177792,
          "time": 289.375,
          "velocity": 0.7874015748031497
        },
        {
          "duration": 0.3125,
          "durationTicks": 192,
          "midi": 55,
          "name": "G3",
          "ticks": 177984,
          "time": 289.6875,
          "velocity": 0.7874015748031497
        },
        {
          "duration": 0.3125,
          "durationTicks": 192,
          "midi": 59,
          "name": "B3",
          "ticks": 177984,
          "time": 289.6875,
          "velocity": 0.6614173228346457
        },
        {
          "duration": 0.15625,
          "durationTicks": 96,
          "midi": 40,
          "name": "E2",
          "ticks": 177984,
          "time": 289.6875,
          "velocity": 0.7874015748031497
        },
        {
          "duration": 0.13671875,
          "durationTicks": 84,
          "midi": 40,
          "name": "E2",
          "ticks": 178080,
          "time": 289.84375,
          "velocity": 0.7874015748031497
        },
        {
          "duration": 0.01953125,
          "durationTicks": 12,
          "midi": 40,
          "name": "E2",
          "ticks": 178164,
          "time": 289.98046875,
          "velocity": 0.7874015748031497
        },
        {
          "duration": 9.375,
          "durationTicks": 5760,
          "midi": 57,
          "name": "A3",
          "ticks": 178176,
          "time": 290,
          "velocity": 0.7874015748031497
        },
        {
          "duration": 0.3125,
          "durationTicks": 192,
          "midi": 59,
          "name": "B3",
          "ticks": 178176,
          "time": 290,
          "velocity": 0.7874015748031497
        },
        {
          "duration": 0.46875,
          "durationTicks": 288,
          "midi": 36,
          "name": "C2",
          "ticks": 178176,
          "time": 290,
          "velocity": 0.7874015748031497
        },
        {
          "duration": 0.3125,
          "durationTicks": 192,
          "midi": 59,
          "name": "B3",
          "ticks": 178368,
          "time": 290.3125,
          "velocity": 0.6614173228346457
        },
        {
          "duration": 0.15625,
          "durationTicks": 96,
          "midi": 36,
          "name": "C2",
          "ticks": 178464,
          "time": 290.46875,
          "velocity": 0.7874015748031497
        },
        {
          "duration": 0.625,
          "durationTicks": 384,
          "midi": 40,
          "name": "E2",
          "ticks": 178560,
          "time": 290.625,
          "velocity": 0.7874015748031497
        },
        {
          "duration": 0.3125,
          "durationTicks": 192,
          "midi": 59,
          "name": "B3",
          "ticks": 178560,
          "time": 290.625,
          "velocity": 0.7874015748031497
        },
        {
          "duration": 0.3125,
          "durationTicks": 192,
          "midi": 59,
          "name": "B3",
          "ticks": 178752,
          "time": 290.9375,
          "velocity": 0.6614173228346457
        },
        {
          "duration": 0.3125,
          "durationTicks": 192,
          "midi": 59,
          "name": "B3",
          "ticks": 178944,
          "time": 291.25,
          "velocity": 0.7874015748031497
        },
        {
          "duration": 0.46875,
          "durationTicks": 288,
          "midi": 36,
          "name": "C2",
          "ticks": 178944,
          "time": 291.25,
          "velocity": 0.7874015748031497
        },
        {
          "duration": 0.3125,
          "durationTicks": 192,
          "midi": 59,
          "name": "B3",
          "ticks": 179136,
          "time": 291.5625,
          "velocity": 0.6614173228346457
        },
        {
          "duration": 0.15625,
          "durationTicks": 96,
          "midi": 36,
          "name": "C2",
          "ticks": 179232,
          "time": 291.71875,
          "velocity": 0.7874015748031497
        },
        {
          "duration": 0.625,
          "durationTicks": 384,
          "midi": 40,
          "name": "E2",
          "ticks": 179328,
          "time": 291.875,
          "velocity": 0.7874015748031497
        },
        {
          "duration": 0.3125,
          "durationTicks": 192,
          "midi": 59,
          "name": "B3",
          "ticks": 179328,
          "time": 291.875,
          "velocity": 0.7874015748031497
        },
        {
          "duration": 0.3125,
          "durationTicks": 192,
          "midi": 59,
          "name": "B3",
          "ticks": 179520,
          "time": 292.1875,
          "velocity": 0.6614173228346457
        },
        {
          "duration": 0.3125,
          "durationTicks": 192,
          "midi": 59,
          "name": "B3",
          "ticks": 179712,
          "time": 292.5,
          "velocity": 0.7874015748031497
        },
        {
          "duration": 0.3125,
          "durationTicks": 192,
          "midi": 36,
          "name": "C2",
          "ticks": 179712,
          "time": 292.5,
          "velocity": 0.7874015748031497
        },
        {
          "duration": 0.3125,
          "durationTicks": 192,
          "midi": 59,
          "name": "B3",
          "ticks": 179904,
          "time": 292.8125,
          "velocity": 0.6614173228346457
        },
        {
          "duration": 0.3125,
          "durationTicks": 192,
          "midi": 36,
          "name": "C2",
          "ticks": 179904,
          "time": 292.8125,
          "velocity": 0.7874015748031497
        },
        {
          "duration": 0.625,
          "durationTicks": 384,
          "midi": 40,
          "name": "E2",
          "ticks": 180096,
          "time": 293.125,
          "velocity": 0.7874015748031497
        },
        {
          "duration": 0.3125,
          "durationTicks": 192,
          "midi": 59,
          "name": "B3",
          "ticks": 180096,
          "time": 293.125,
          "velocity": 0.7874015748031497
        },
        {
          "duration": 0.3125,
          "durationTicks": 192,
          "midi": 59,
          "name": "B3",
          "ticks": 180288,
          "time": 293.4375,
          "velocity": 0.6614173228346457
        },
        {
          "duration": 0.15625,
          "durationTicks": 96,
          "midi": 36,
          "name": "C2",
          "ticks": 180480,
          "time": 293.75,
          "velocity": 0.7874015748031497
        },
        {
          "duration": 0.3125,
          "durationTicks": 192,
          "midi": 59,
          "name": "B3",
          "ticks": 180480,
          "time": 293.75,
          "velocity": 0.7874015748031497
        },
        {
          "duration": 0.46875,
          "durationTicks": 288,
          "midi": 40,
          "name": "E2",
          "ticks": 180576,
          "time": 293.90625,
          "velocity": 0.7874015748031497
        },
        {
          "duration": 0.3125,
          "durationTicks": 192,
          "midi": 59,
          "name": "B3",
          "ticks": 180672,
          "time": 294.0625,
          "velocity": 0.6614173228346457
        },
        {
          "duration": 0.3125,
          "durationTicks": 192,
          "midi": 59,
          "name": "B3",
          "ticks": 180864,
          "time": 294.375,
          "velocity": 0.7874015748031497
        },
        {
          "duration": 0.625,
          "durationTicks": 384,
          "midi": 40,
          "name": "E2",
          "ticks": 180864,
          "time": 294.375,
          "velocity": 0.7874015748031497
        },
        {
          "duration": 0.3125,
          "durationTicks": 192,
          "midi": 59,
          "name": "B3",
          "ticks": 181056,
          "time": 294.6875,
          "velocity": 0.6614173228346457
        },
        {
          "duration": 0.3125,
          "durationTicks": 192,
          "midi": 59,
          "name": "B3",
          "ticks": 181248,
          "time": 295,
          "velocity": 0.7874015748031497
        },
        {
          "duration": 0.46875,
          "durationTicks": 288,
          "midi": 36,
          "name": "C2",
          "ticks": 181248,
          "time": 295,
          "velocity": 0.7874015748031497
        },
        {
          "duration": 0.3125,
          "durationTicks": 192,
          "midi": 59,
          "name": "B3",
          "ticks": 181440,
          "time": 295.3125,
          "velocity": 0.6614173228346457
        },
        {
          "duration": 0.15625,
          "durationTicks": 96,
          "midi": 36,
          "name": "C2",
          "ticks": 181536,
          "time": 295.46875,
          "velocity": 0.7874015748031497
        },
        {
          "duration": 0.3125,
          "durationTicks": 192,
          "midi": 59,
          "name": "B3",
          "ticks": 181632,
          "time": 295.625,
          "velocity": 0.7874015748031497
        },
        {
          "duration": 0.625,
          "durationTicks": 384,
          "midi": 40,
          "name": "E2",
          "ticks": 181632,
          "time": 295.625,
          "velocity": 0.7874015748031497
        },
        {
          "duration": 0.3125,
          "durationTicks": 192,
          "midi": 59,
          "name": "B3",
          "ticks": 181824,
          "time": 295.9375,
          "velocity": 0.6614173228346457
        },
        {
          "duration": 0.46875,
          "durationTicks": 288,
          "midi": 36,
          "name": "C2",
          "ticks": 182016,
          "time": 296.25,
          "velocity": 0.7874015748031497
        },
        {
          "duration": 0.3125,
          "durationTicks": 192,
          "midi": 59,
          "name": "B3",
          "ticks": 182016,
          "time": 296.25,
          "velocity": 0.7874015748031497
        },
        {
          "duration": 0.3125,
          "durationTicks": 192,
          "midi": 59,
          "name": "B3",
          "ticks": 182208,
          "time": 296.5625,
          "velocity": 0.6614173228346457
        },
        {
          "duration": 0.15625,
          "durationTicks": 96,
          "midi": 36,
          "name": "C2",
          "ticks": 182304,
          "time": 296.71875,
          "velocity": 0.7874015748031497
        },
        {
          "duration": 0.3125,
          "durationTicks": 192,
          "midi": 59,
          "name": "B3",
          "ticks": 182400,
          "time": 296.875,
          "velocity": 0.7874015748031497
        },
        {
          "duration": 0.625,
          "durationTicks": 384,
          "midi": 40,
          "name": "E2",
          "ticks": 182400,
          "time": 296.875,
          "velocity": 0.7874015748031497
        },
        {
          "duration": 0.3125,
          "durationTicks": 192,
          "midi": 59,
          "name": "B3",
          "ticks": 182592,
          "time": 297.1875,
          "velocity": 0.6614173228346457
        },
        {
          "duration": 0.3125,
          "durationTicks": 192,
          "midi": 36,
          "name": "C2",
          "ticks": 182784,
          "time": 297.5,
          "velocity": 0.7874015748031497
        },
        {
          "duration": 0.3125,
          "durationTicks": 192,
          "midi": 59,
          "name": "B3",
          "ticks": 182784,
          "time": 297.5,
          "velocity": 0.7874015748031497
        },
        {
          "duration": 0.3125,
          "durationTicks": 192,
          "midi": 59,
          "name": "B3",
          "ticks": 182976,
          "time": 297.8125,
          "velocity": 0.6614173228346457
        },
        {
          "duration": 0.3125,
          "durationTicks": 192,
          "midi": 36,
          "name": "C2",
          "ticks": 182976,
          "time": 297.8125,
          "velocity": 0.7874015748031497
        },
        {
          "duration": 0.625,
          "durationTicks": 384,
          "midi": 40,
          "name": "E2",
          "ticks": 183168,
          "time": 298.125,
          "velocity": 0.7874015748031497
        },
        {
          "duration": 0.3125,
          "durationTicks": 192,
          "midi": 59,
          "name": "B3",
          "ticks": 183168,
          "time": 298.125,
          "velocity": 0.7874015748031497
        },
        {
          "duration": 0.3125,
          "durationTicks": 192,
          "midi": 59,
          "name": "B3",
          "ticks": 183360,
          "time": 298.4375,
          "velocity": 0.6614173228346457
        },
        {
          "duration": 0.3125,
          "durationTicks": 192,
          "midi": 40,
          "name": "E2",
          "ticks": 183552,
          "time": 298.75,
          "velocity": 0.7874015748031497
        },
        {
          "duration": 0.3125,
          "durationTicks": 192,
          "midi": 59,
          "name": "B3",
          "ticks": 183552,
          "time": 298.75,
          "velocity": 0.7874015748031497
        },
        {
          "duration": 0.3125,
          "durationTicks": 192,
          "midi": 40,
          "name": "E2",
          "ticks": 183744,
          "time": 299.0625,
          "velocity": 0.7874015748031497
        },
        {
          "duration": 0.3125,
          "durationTicks": 192,
          "midi": 59,
          "name": "B3",
          "ticks": 183744,
          "time": 299.0625,
          "velocity": 0.6614173228346457
        },
        {
          "duration": 0.3125,
          "durationTicks": 192,
          "midi": 55,
          "name": "G3",
          "ticks": 183936,
          "time": 299.375,
          "velocity": 0.7874015748031497
        },
        {
          "duration": 0.3125,
          "durationTicks": 192,
          "midi": 59,
          "name": "B3",
          "ticks": 183936,
          "time": 299.375,
          "velocity": 0.7874015748031497
        },
        {
          "duration": 0.3125,
          "durationTicks": 192,
          "midi": 40,
          "name": "E2",
          "ticks": 183936,
          "time": 299.375,
          "velocity": 0.7874015748031497
        },
        {
          "duration": 0.15625,
          "durationTicks": 96,
          "midi": 40,
          "name": "E2",
          "ticks": 184128,
          "time": 299.6875,
          "velocity": 0.7874015748031497
        },
        {
          "duration": 0.3125,
          "durationTicks": 192,
          "midi": 55,
          "name": "G3",
          "ticks": 184128,
          "time": 299.6875,
          "velocity": 0.7874015748031497
        },
        {
          "duration": 1.875,
          "durationTicks": 1152,
          "midi": 59,
          "name": "B3",
          "ticks": 184128,
          "time": 299.6875,
          "velocity": 0.6614173228346457
        },
        {
          "duration": 0.13671875,
          "durationTicks": 84,
          "midi": 40,
          "name": "E2",
          "ticks": 184224,
          "time": 299.84375,
          "velocity": 0.7874015748031497
        },
        {
          "duration": 0.01953125,
          "durationTicks": 12,
          "midi": 40,
          "name": "E2",
          "ticks": 184308,
          "time": 299.98046875,
          "velocity": 0.7874015748031497
        },
        {
          "duration": 0.625,
          "durationTicks": 384,
          "midi": 36,
          "name": "C2",
          "ticks": 184320,
          "time": 300,
          "velocity": 0.7874015748031497
        },
        {
          "duration": 9.6875,
          "durationTicks": 5952,
          "midi": 55,
          "name": "G3",
          "ticks": 184320,
          "time": 300,
          "velocity": 0.7874015748031497
        },
        {
          "duration": 0.625,
          "durationTicks": 384,
          "midi": 36,
          "name": "C2",
          "ticks": 184704,
          "time": 300.625,
          "velocity": 0.7874015748031497
        },
        {
          "duration": 0.625,
          "durationTicks": 384,
          "midi": 36,
          "name": "C2",
          "ticks": 185088,
          "time": 301.25,
          "velocity": 0.7874015748031497
        },
        {
          "duration": 0.625,
          "durationTicks": 384,
          "midi": 36,
          "name": "C2",
          "ticks": 185472,
          "time": 301.875,
          "velocity": 0.7874015748031497
        },
        {
          "duration": 0.625,
          "durationTicks": 384,
          "midi": 36,
          "name": "C2",
          "ticks": 185856,
          "time": 302.5,
          "velocity": 0.7874015748031497
        },
        {
          "duration": 0.625,
          "durationTicks": 384,
          "midi": 36,
          "name": "C2",
          "ticks": 186240,
          "time": 303.125,
          "velocity": 0.7874015748031497
        },
        {
          "duration": 0.625,
          "durationTicks": 384,
          "midi": 36,
          "name": "C2",
          "ticks": 186624,
          "time": 303.75,
          "velocity": 0.7874015748031497
        },
        {
          "duration": 0.625,
          "durationTicks": 384,
          "midi": 36,
          "name": "C2",
          "ticks": 187008,
          "time": 304.375,
          "velocity": 0.7874015748031497
        },
        {
          "duration": 1.875,
          "durationTicks": 1152,
          "midi": 36,
          "name": "C2",
          "ticks": 187392,
          "time": 305,
          "velocity": 0.7874015748031497
        },
        {
          "duration": 1.25,
          "durationTicks": 768,
          "midi": 36,
          "name": "C2",
          "ticks": 188544,
          "time": 306.875,
          "velocity": 0.7874015748031497
        },
        {
          "duration": 1.25,
          "durationTicks": 768,
          "midi": 36,
          "name": "C2",
          "ticks": 189312,
          "time": 308.125,
          "velocity": 0.7874015748031497
        },
        {
          "duration": 0.3125,
          "durationTicks": 192,
          "midi": 40,
          "name": "E2",
          "ticks": 190080,
          "time": 309.375,
          "velocity": 0.7874015748031497
        },
        {
          "duration": 0.3125,
          "durationTicks": 192,
          "midi": 36,
          "name": "C2",
          "ticks": 190080,
          "time": 309.375,
          "velocity": 0.7874015748031497
        },
        {
          "duration": 0.3125,
          "durationTicks": 192,
          "midi": 36,
          "name": "C2",
          "ticks": 190272,
          "time": 309.6875,
          "velocity": 0.7874015748031497
        },
        {
          "duration": 0.3125,
          "durationTicks": 192,
          "midi": 40,
          "name": "E2",
          "ticks": 190272,
          "time": 309.6875,
          "velocity": 0.7874015748031497
        },
        {
          "duration": 0.3125,
          "durationTicks": 192,
          "midi": 55,
          "name": "G3",
          "ticks": 190272,
          "time": 309.6875,
          "velocity": 0.7874015748031497
        },
        {
          "duration": 11.25,
          "durationTicks": 6912,
          "midi": 36,
          "name": "C2",
          "ticks": 190464,
          "time": 310,
          "velocity": 0.7874015748031497
        },
        {
          "duration": 11.25,
          "durationTicks": 6912,
          "midi": 55,
          "name": "G3",
          "ticks": 190464,
          "time": 310,
          "velocity": 0.7874015748031497
        }
      ],
      "endOfTrackTicks": 197376
    },
    {
      "channel": 5,
      "controlChanges": {},
      "pitchBends": [],
      "instrument": {
        "family": "chromatic percussion",
        "number": 11,
        "name": "vibraphone"
      },
      "name": "Vibraphone",
      "notes": [
        {
          "duration": 0.15625,
          "durationTicks": 96,
          "midi": 60,
          "name": "C4",
          "ticks": 25536,
          "time": 41.5625,
          "velocity": 0.03937007874015748
        },
        {
          "duration": 0.46875,
          "durationTicks": 288,
          "midi": 60,
          "name": "C4",
          "ticks": 25632,
          "time": 41.71875,
          "velocity": 0.031496062992125984
        },
        {
          "duration": 0.15625,
          "durationTicks": 96,
          "midi": 60,
          "name": "C4",
          "ticks": 25920,
          "time": 42.1875,
          "velocity": 0.06299212598425197
        },
        {
          "duration": 0.46875,
          "durationTicks": 288,
          "midi": 60,
          "name": "C4",
          "ticks": 26016,
          "time": 42.34375,
          "velocity": 0.03937007874015748
        },
        {
          "duration": 0.15625,
          "durationTicks": 96,
          "midi": 60,
          "name": "C4",
          "ticks": 26304,
          "time": 42.8125,
          "velocity": 0.08661417322834646
        },
        {
          "duration": 0.46875,
          "durationTicks": 288,
          "midi": 60,
          "name": "C4",
          "ticks": 26400,
          "time": 42.96875,
          "velocity": 0.06299212598425197
        },
        {
          "duration": 0.15625,
          "durationTicks": 96,
          "midi": 60,
          "name": "C4",
          "ticks": 26688,
          "time": 43.4375,
          "velocity": 0.11023622047244094
        },
        {
          "duration": 0.46875,
          "durationTicks": 288,
          "midi": 60,
          "name": "C4",
          "ticks": 26784,
          "time": 43.59375,
          "velocity": 0.07874015748031496
        },
        {
          "duration": 0.15625,
          "durationTicks": 96,
          "midi": 60,
          "name": "C4",
          "ticks": 27072,
          "time": 44.0625,
          "velocity": 0.13385826771653545
        },
        {
          "duration": 0.46875,
          "durationTicks": 288,
          "midi": 60,
          "name": "C4",
          "ticks": 27168,
          "time": 44.21875,
          "velocity": 0.11023622047244094
        },
        {
          "duration": 0.15625,
          "durationTicks": 96,
          "midi": 60,
          "name": "C4",
          "ticks": 27456,
          "time": 44.6875,
          "velocity": 0.1889763779527559
        },
        {
          "duration": 0.46875,
          "durationTicks": 288,
          "midi": 60,
          "name": "C4",
          "ticks": 27552,
          "time": 44.84375,
          "velocity": 0.13385826771653545
        },
        {
          "duration": 0.15625,
          "durationTicks": 96,
          "midi": 60,
          "name": "C4",
          "ticks": 27840,
          "time": 45.3125,
          "velocity": 0.25196850393700787
        },
        {
          "duration": 0.46875,
          "durationTicks": 288,
          "midi": 60,
          "name": "C4",
          "ticks": 27936,
          "time": 45.46875,
          "velocity": 0.15748031496062992
        },
        {
          "duration": 0.15625,
          "durationTicks": 96,
          "midi": 60,
          "name": "C4",
          "ticks": 28224,
          "time": 45.9375,
          "velocity": 0.30708661417322836
        },
        {
          "duration": 0.46875,
          "durationTicks": 288,
          "midi": 60,
          "name": "C4",
          "ticks": 28320,
          "time": 46.09375,
          "velocity": 0.18110236220472442
        },
        {
          "duration": 0.15625,
          "durationTicks": 96,
          "midi": 60,
          "name": "C4",
          "ticks": 28608,
          "time": 46.5625,
          "velocity": 0.36220472440944884
        },
        {
          "duration": 0.46875,
          "durationTicks": 288,
          "midi": 60,
          "name": "C4",
          "ticks": 28704,
          "time": 46.71875,
          "velocity": 0.2047244094488189
        },
        {
          "duration": 0.15625,
          "durationTicks": 96,
          "midi": 60,
          "name": "C4",
          "ticks": 28992,
          "time": 47.1875,
          "velocity": 0.2755905511811024
        },
        {
          "duration": 0.46875,
          "durationTicks": 288,
          "midi": 60,
          "name": "C4",
          "ticks": 29088,
          "time": 47.34375,
          "velocity": 0.2047244094488189
        },
        {
          "duration": 0.15625,
          "durationTicks": 96,
          "midi": 60,
          "name": "C4",
          "ticks": 29376,
          "time": 47.8125,
          "velocity": 0.2755905511811024
        },
        {
          "duration": 0.46875,
          "durationTicks": 288,
          "midi": 60,
          "name": "C4",
          "ticks": 29472,
          "time": 47.96875,
          "velocity": 0.2047244094488189
        },
        {
          "duration": 0.15625,
          "durationTicks": 96,
          "midi": 60,
          "name": "C4",
          "ticks": 29760,
          "time": 48.4375,
          "velocity": 0.2755905511811024
        },
        {
          "duration": 0.46875,
          "durationTicks": 288,
          "midi": 60,
          "name": "C4",
          "ticks": 29856,
          "time": 48.59375,
          "velocity": 0.2047244094488189
        },
        {
          "duration": 0.15625,
          "durationTicks": 96,
          "midi": 60,
          "name": "C4",
          "ticks": 30144,
          "time": 49.0625,
          "velocity": 0.2755905511811024
        },
        {
          "duration": 0.46875,
          "durationTicks": 288,
          "midi": 60,
          "name": "C4",
          "ticks": 30240,
          "time": 49.21875,
          "velocity": 0.2047244094488189
        },
        {
          "duration": 0.15625,
          "durationTicks": 96,
          "midi": 60,
          "name": "C4",
          "ticks": 30528,
          "time": 49.6875,
          "velocity": 0.2755905511811024
        },
        {
          "duration": 0.46875,
          "durationTicks": 288,
          "midi": 60,
          "name": "C4",
          "ticks": 30624,
          "time": 49.84375,
          "velocity": 0.2047244094488189
        },
        {
          "duration": 0.15625,
          "durationTicks": 96,
          "midi": 60,
          "name": "C4",
          "ticks": 30912,
          "time": 50.3125,
          "velocity": 0.2755905511811024
        },
        {
          "duration": 0.46875,
          "durationTicks": 288,
          "midi": 60,
          "name": "C4",
          "ticks": 31008,
          "time": 50.46875,
          "velocity": 0.2047244094488189
        },
        {
          "duration": 0.15625,
          "durationTicks": 96,
          "midi": 60,
          "name": "C4",
          "ticks": 31296,
          "time": 50.9375,
          "velocity": 0.2755905511811024
        },
        {
          "duration": 0.46875,
          "durationTicks": 288,
          "midi": 60,
          "name": "C4",
          "ticks": 31392,
          "time": 51.09375,
          "velocity": 0.2047244094488189
        },
        {
          "duration": 0.15625,
          "durationTicks": 96,
          "midi": 60,
          "name": "C4",
          "ticks": 31680,
          "time": 51.5625,
          "velocity": 0.2755905511811024
        },
        {
          "duration": 0.46875,
          "durationTicks": 288,
          "midi": 60,
          "name": "C4",
          "ticks": 31776,
          "time": 51.71875,
          "velocity": 0.2047244094488189
        },
        {
          "duration": 0.15625,
          "durationTicks": 96,
          "midi": 60,
          "name": "C4",
          "ticks": 32064,
          "time": 52.1875,
          "velocity": 0.2755905511811024
        },
        {
          "duration": 0.46875,
          "durationTicks": 288,
          "midi": 60,
          "name": "C4",
          "ticks": 32160,
          "time": 52.34375,
          "velocity": 0.2047244094488189
        },
        {
          "duration": 0.15625,
          "durationTicks": 96,
          "midi": 60,
          "name": "C4",
          "ticks": 32448,
          "time": 52.8125,
          "velocity": 0.2755905511811024
        },
        {
          "duration": 0.46875,
          "durationTicks": 288,
          "midi": 60,
          "name": "C4",
          "ticks": 32544,
          "time": 52.96875,
          "velocity": 0.2047244094488189
        },
        {
          "duration": 0.15625,
          "durationTicks": 96,
          "midi": 60,
          "name": "C4",
          "ticks": 32832,
          "time": 53.4375,
          "velocity": 0.2755905511811024
        },
        {
          "duration": 0.46875,
          "durationTicks": 288,
          "midi": 60,
          "name": "C4",
          "ticks": 32928,
          "time": 53.59375,
          "velocity": 0.2047244094488189
        },
        {
          "duration": 0.15625,
          "durationTicks": 96,
          "midi": 60,
          "name": "C4",
          "ticks": 33216,
          "time": 54.0625,
          "velocity": 0.2755905511811024
        },
        {
          "duration": 0.46875,
          "durationTicks": 288,
          "midi": 60,
          "name": "C4",
          "ticks": 33312,
          "time": 54.21875,
          "velocity": 0.2047244094488189
        },
        {
          "duration": 0.15625,
          "durationTicks": 96,
          "midi": 60,
          "name": "C4",
          "ticks": 33600,
          "time": 54.6875,
          "velocity": 0.2755905511811024
        },
        {
          "duration": 0.46875,
          "durationTicks": 288,
          "midi": 60,
          "name": "C4",
          "ticks": 33696,
          "time": 54.84375,
          "velocity": 0.2047244094488189
        },
        {
          "duration": 0.15625,
          "durationTicks": 96,
          "midi": 60,
          "name": "C4",
          "ticks": 33984,
          "time": 55.3125,
          "velocity": 0.2755905511811024
        },
        {
          "duration": 0.46875,
          "durationTicks": 288,
          "midi": 60,
          "name": "C4",
          "ticks": 34080,
          "time": 55.46875,
          "velocity": 0.2047244094488189
        },
        {
          "duration": 0.15625,
          "durationTicks": 96,
          "midi": 60,
          "name": "C4",
          "ticks": 34368,
          "time": 55.9375,
          "velocity": 0.2755905511811024
        },
        {
          "duration": 0.46875,
          "durationTicks": 288,
          "midi": 60,
          "name": "C4",
          "ticks": 34464,
          "time": 56.09375,
          "velocity": 0.2047244094488189
        },
        {
          "duration": 0.15625,
          "durationTicks": 96,
          "midi": 60,
          "name": "C4",
          "ticks": 34752,
          "time": 56.5625,
          "velocity": 0.2755905511811024
        },
        {
          "duration": 0.46875,
          "durationTicks": 288,
          "midi": 60,
          "name": "C4",
          "ticks": 34848,
          "time": 56.71875,
          "velocity": 0.2047244094488189
        },
        {
          "duration": 0.15625,
          "durationTicks": 96,
          "midi": 60,
          "name": "C4",
          "ticks": 35136,
          "time": 57.1875,
          "velocity": 0.2755905511811024
        },
        {
          "duration": 0.46875,
          "durationTicks": 288,
          "midi": 60,
          "name": "C4",
          "ticks": 35232,
          "time": 57.34375,
          "velocity": 0.2047244094488189
        },
        {
          "duration": 0.15625,
          "durationTicks": 96,
          "midi": 60,
          "name": "C4",
          "ticks": 35520,
          "time": 57.8125,
          "velocity": 0.2755905511811024
        },
        {
          "duration": 0.46875,
          "durationTicks": 288,
          "midi": 60,
          "name": "C4",
          "ticks": 35616,
          "time": 57.96875,
          "velocity": 0.2047244094488189
        },
        {
          "duration": 0.15625,
          "durationTicks": 96,
          "midi": 60,
          "name": "C4",
          "ticks": 35904,
          "time": 58.4375,
          "velocity": 0.2755905511811024
        },
        {
          "duration": 0.46875,
          "durationTicks": 288,
          "midi": 60,
          "name": "C4",
          "ticks": 36000,
          "time": 58.59375,
          "velocity": 0.2047244094488189
        },
        {
          "duration": 0.15625,
          "durationTicks": 96,
          "midi": 60,
          "name": "C4",
          "ticks": 36288,
          "time": 59.0625,
          "velocity": 0.2755905511811024
        },
        {
          "duration": 0.46875,
          "durationTicks": 288,
          "midi": 60,
          "name": "C4",
          "ticks": 36384,
          "time": 59.21875,
          "velocity": 0.2047244094488189
        },
        {
          "duration": 0.15625,
          "durationTicks": 96,
          "midi": 60,
          "name": "C4",
          "ticks": 36672,
          "time": 59.6875,
          "velocity": 0.2755905511811024
        },
        {
          "duration": 0.46875,
          "durationTicks": 288,
          "midi": 60,
          "name": "C4",
          "ticks": 36768,
          "time": 59.84375,
          "velocity": 0.2047244094488189
        },
        {
          "duration": 0.15625,
          "durationTicks": 96,
          "midi": 60,
          "name": "C4",
          "ticks": 37056,
          "time": 60.3125,
          "velocity": 0.2755905511811024
        },
        {
          "duration": 0.46875,
          "durationTicks": 288,
          "midi": 60,
          "name": "C4",
          "ticks": 37152,
          "time": 60.46875,
          "velocity": 0.2047244094488189
        },
        {
          "duration": 0.15625,
          "durationTicks": 96,
          "midi": 60,
          "name": "C4",
          "ticks": 37440,
          "time": 60.9375,
          "velocity": 0.2755905511811024
        },
        {
          "duration": 0.46875,
          "durationTicks": 288,
          "midi": 60,
          "name": "C4",
          "ticks": 37536,
          "time": 61.09375,
          "velocity": 0.2047244094488189
        },
        {
          "duration": 0.15625,
          "durationTicks": 96,
          "midi": 60,
          "name": "C4",
          "ticks": 37824,
          "time": 61.5625,
          "velocity": 0.2755905511811024
        },
        {
          "duration": 0.46875,
          "durationTicks": 288,
          "midi": 60,
          "name": "C4",
          "ticks": 37920,
          "time": 61.71875,
          "velocity": 0.2047244094488189
        },
        {
          "duration": 0.15625,
          "durationTicks": 96,
          "midi": 60,
          "name": "C4",
          "ticks": 38208,
          "time": 62.1875,
          "velocity": 0.2755905511811024
        },
        {
          "duration": 0.46875,
          "durationTicks": 288,
          "midi": 60,
          "name": "C4",
          "ticks": 38304,
          "time": 62.34375,
          "velocity": 0.2047244094488189
        },
        {
          "duration": 0.15625,
          "durationTicks": 96,
          "midi": 60,
          "name": "C4",
          "ticks": 38592,
          "time": 62.8125,
          "velocity": 0.2755905511811024
        },
        {
          "duration": 0.46875,
          "durationTicks": 288,
          "midi": 60,
          "name": "C4",
          "ticks": 38688,
          "time": 62.96875,
          "velocity": 0.2047244094488189
        },
        {
          "duration": 0.15625,
          "durationTicks": 96,
          "midi": 60,
          "name": "C4",
          "ticks": 38976,
          "time": 63.4375,
          "velocity": 0.2755905511811024
        },
        {
          "duration": 0.46875,
          "durationTicks": 288,
          "midi": 60,
          "name": "C4",
          "ticks": 39072,
          "time": 63.59375,
          "velocity": 0.2047244094488189
        },
        {
          "duration": 0.15625,
          "durationTicks": 96,
          "midi": 60,
          "name": "C4",
          "ticks": 39360,
          "time": 64.0625,
          "velocity": 0.2755905511811024
        },
        {
          "duration": 0.46875,
          "durationTicks": 288,
          "midi": 60,
          "name": "C4",
          "ticks": 39456,
          "time": 64.21875,
          "velocity": 0.2047244094488189
        },
        {
          "duration": 0.15625,
          "durationTicks": 96,
          "midi": 60,
          "name": "C4",
          "ticks": 39744,
          "time": 64.6875,
          "velocity": 0.2755905511811024
        },
        {
          "duration": 0.46875,
          "durationTicks": 288,
          "midi": 60,
          "name": "C4",
          "ticks": 39840,
          "time": 64.84375,
          "velocity": 0.2047244094488189
        },
        {
          "duration": 0.15625,
          "durationTicks": 96,
          "midi": 60,
          "name": "C4",
          "ticks": 40128,
          "time": 65.3125,
          "velocity": 0.2755905511811024
        },
        {
          "duration": 0.46875,
          "durationTicks": 288,
          "midi": 60,
          "name": "C4",
          "ticks": 40224,
          "time": 65.46875,
          "velocity": 0.2047244094488189
        },
        {
          "duration": 0.15625,
          "durationTicks": 96,
          "midi": 60,
          "name": "C4",
          "ticks": 40512,
          "time": 65.9375,
          "velocity": 0.2755905511811024
        },
        {
          "duration": 0.46875,
          "durationTicks": 288,
          "midi": 60,
          "name": "C4",
          "ticks": 40608,
          "time": 66.09375,
          "velocity": 0.2047244094488189
        },
        {
          "duration": 0.15625,
          "durationTicks": 96,
          "midi": 60,
          "name": "C4",
          "ticks": 40896,
          "time": 66.5625,
          "velocity": 0.2755905511811024
        },
        {
          "duration": 0.46875,
          "durationTicks": 288,
          "midi": 60,
          "name": "C4",
          "ticks": 40992,
          "time": 66.71875,
          "velocity": 0.2047244094488189
        },
        {
          "duration": 0.15625,
          "durationTicks": 96,
          "midi": 60,
          "name": "C4",
          "ticks": 41280,
          "time": 67.1875,
          "velocity": 0.2755905511811024
        },
        {
          "duration": 0.46875,
          "durationTicks": 288,
          "midi": 60,
          "name": "C4",
          "ticks": 41376,
          "time": 67.34375,
          "velocity": 0.2047244094488189
        },
        {
          "duration": 0.15625,
          "durationTicks": 96,
          "midi": 60,
          "name": "C4",
          "ticks": 41664,
          "time": 67.8125,
          "velocity": 0.2755905511811024
        },
        {
          "duration": 0.46875,
          "durationTicks": 288,
          "midi": 60,
          "name": "C4",
          "ticks": 41760,
          "time": 67.96875,
          "velocity": 0.2047244094488189
        },
        {
          "duration": 0.15625,
          "durationTicks": 96,
          "midi": 60,
          "name": "C4",
          "ticks": 42048,
          "time": 68.4375,
          "velocity": 0.2755905511811024
        },
        {
          "duration": 0.46875,
          "durationTicks": 288,
          "midi": 60,
          "name": "C4",
          "ticks": 42144,
          "time": 68.59375,
          "velocity": 0.2047244094488189
        },
        {
          "duration": 0.15625,
          "durationTicks": 96,
          "midi": 60,
          "name": "C4",
          "ticks": 42432,
          "time": 69.0625,
          "velocity": 0.2755905511811024
        },
        {
          "duration": 0.46875,
          "durationTicks": 288,
          "midi": 60,
          "name": "C4",
          "ticks": 42528,
          "time": 69.21875,
          "velocity": 0.2047244094488189
        },
        {
          "duration": 0.15625,
          "durationTicks": 96,
          "midi": 60,
          "name": "C4",
          "ticks": 42816,
          "time": 69.6875,
          "velocity": 0.2755905511811024
        },
        {
          "duration": 0.46875,
          "durationTicks": 288,
          "midi": 60,
          "name": "C4",
          "ticks": 42912,
          "time": 69.84375,
          "velocity": 0.2047244094488189
        },
        {
          "duration": 0.15625,
          "durationTicks": 96,
          "midi": 60,
          "name": "C4",
          "ticks": 43200,
          "time": 70.3125,
          "velocity": 0.2755905511811024
        },
        {
          "duration": 0.46875,
          "durationTicks": 288,
          "midi": 60,
          "name": "C4",
          "ticks": 43296,
          "time": 70.46875,
          "velocity": 0.2047244094488189
        },
        {
          "duration": 0.15625,
          "durationTicks": 96,
          "midi": 60,
          "name": "C4",
          "ticks": 43584,
          "time": 70.9375,
          "velocity": 0.2755905511811024
        },
        {
          "duration": 0.46875,
          "durationTicks": 288,
          "midi": 60,
          "name": "C4",
          "ticks": 43680,
          "time": 71.09375,
          "velocity": 0.2047244094488189
        },
        {
          "duration": 0.15625,
          "durationTicks": 96,
          "midi": 60,
          "name": "C4",
          "ticks": 43968,
          "time": 71.5625,
          "velocity": 0.2755905511811024
        },
        {
          "duration": 0.46875,
          "durationTicks": 288,
          "midi": 60,
          "name": "C4",
          "ticks": 44064,
          "time": 71.71875,
          "velocity": 0.2047244094488189
        },
        {
          "duration": 0.15625,
          "durationTicks": 96,
          "midi": 60,
          "name": "C4",
          "ticks": 44352,
          "time": 72.1875,
          "velocity": 0.2755905511811024
        },
        {
          "duration": 0.46875,
          "durationTicks": 288,
          "midi": 60,
          "name": "C4",
          "ticks": 44448,
          "time": 72.34375,
          "velocity": 0.2047244094488189
        },
        {
          "duration": 0.15625,
          "durationTicks": 96,
          "midi": 60,
          "name": "C4",
          "ticks": 44736,
          "time": 72.8125,
          "velocity": 0.2755905511811024
        },
        {
          "duration": 0.46875,
          "durationTicks": 288,
          "midi": 60,
          "name": "C4",
          "ticks": 44832,
          "time": 72.96875,
          "velocity": 0.2047244094488189
        },
        {
          "duration": 0.15625,
          "durationTicks": 96,
          "midi": 60,
          "name": "C4",
          "ticks": 45120,
          "time": 73.4375,
          "velocity": 0.2755905511811024
        },
        {
          "duration": 0.46875,
          "durationTicks": 288,
          "midi": 60,
          "name": "C4",
          "ticks": 45216,
          "time": 73.59375,
          "velocity": 0.2047244094488189
        },
        {
          "duration": 0.15625,
          "durationTicks": 96,
          "midi": 60,
          "name": "C4",
          "ticks": 45504,
          "time": 74.0625,
          "velocity": 0.2755905511811024
        },
        {
          "duration": 0.46875,
          "durationTicks": 288,
          "midi": 60,
          "name": "C4",
          "ticks": 45600,
          "time": 74.21875,
          "velocity": 0.2047244094488189
        },
        {
          "duration": 0.15625,
          "durationTicks": 96,
          "midi": 60,
          "name": "C4",
          "ticks": 45888,
          "time": 74.6875,
          "velocity": 0.2755905511811024
        },
        {
          "duration": 0.46875,
          "durationTicks": 288,
          "midi": 60,
          "name": "C4",
          "ticks": 45984,
          "time": 74.84375,
          "velocity": 0.2047244094488189
        },
        {
          "duration": 0.15625,
          "durationTicks": 96,
          "midi": 60,
          "name": "C4",
          "ticks": 46272,
          "time": 75.3125,
          "velocity": 0.2755905511811024
        },
        {
          "duration": 0.46875,
          "durationTicks": 288,
          "midi": 60,
          "name": "C4",
          "ticks": 46368,
          "time": 75.46875,
          "velocity": 0.2047244094488189
        },
        {
          "duration": 0.15625,
          "durationTicks": 96,
          "midi": 60,
          "name": "C4",
          "ticks": 46656,
          "time": 75.9375,
          "velocity": 0.2755905511811024
        },
        {
          "duration": 0.46875,
          "durationTicks": 288,
          "midi": 60,
          "name": "C4",
          "ticks": 46752,
          "time": 76.09375,
          "velocity": 0.2047244094488189
        },
        {
          "duration": 0.15625,
          "durationTicks": 96,
          "midi": 60,
          "name": "C4",
          "ticks": 47040,
          "time": 76.5625,
          "velocity": 0.2755905511811024
        },
        {
          "duration": 0.46875,
          "durationTicks": 288,
          "midi": 60,
          "name": "C4",
          "ticks": 47136,
          "time": 76.71875,
          "velocity": 0.2047244094488189
        },
        {
          "duration": 0.15625,
          "durationTicks": 96,
          "midi": 60,
          "name": "C4",
          "ticks": 47424,
          "time": 77.1875,
          "velocity": 0.2755905511811024
        },
        {
          "duration": 0.46875,
          "durationTicks": 288,
          "midi": 60,
          "name": "C4",
          "ticks": 47520,
          "time": 77.34375,
          "velocity": 0.2047244094488189
        },
        {
          "duration": 0.15625,
          "durationTicks": 96,
          "midi": 60,
          "name": "C4",
          "ticks": 47808,
          "time": 77.8125,
          "velocity": 0.2755905511811024
        },
        {
          "duration": 0.46875,
          "durationTicks": 288,
          "midi": 60,
          "name": "C4",
          "ticks": 47904,
          "time": 77.96875,
          "velocity": 0.2047244094488189
        },
        {
          "duration": 0.15625,
          "durationTicks": 96,
          "midi": 60,
          "name": "C4",
          "ticks": 48192,
          "time": 78.4375,
          "velocity": 0.2755905511811024
        },
        {
          "duration": 0.46875,
          "durationTicks": 288,
          "midi": 60,
          "name": "C4",
          "ticks": 48288,
          "time": 78.59375,
          "velocity": 0.2047244094488189
        },
        {
          "duration": 0.15625,
          "durationTicks": 96,
          "midi": 60,
          "name": "C4",
          "ticks": 48576,
          "time": 79.0625,
          "velocity": 0.2755905511811024
        },
        {
          "duration": 0.46875,
          "durationTicks": 288,
          "midi": 60,
          "name": "C4",
          "ticks": 48672,
          "time": 79.21875,
          "velocity": 0.2047244094488189
        },
        {
          "duration": 0.15625,
          "durationTicks": 96,
          "midi": 60,
          "name": "C4",
          "ticks": 48960,
          "time": 79.6875,
          "velocity": 0.2755905511811024
        },
        {
          "duration": 0.46875,
          "durationTicks": 288,
          "midi": 60,
          "name": "C4",
          "ticks": 49056,
          "time": 79.84375,
          "velocity": 0.2047244094488189
        },
        {
          "duration": 0.15625,
          "durationTicks": 96,
          "midi": 60,
          "name": "C4",
          "ticks": 49344,
          "time": 80.3125,
          "velocity": 0.2755905511811024
        },
        {
          "duration": 0.46875,
          "durationTicks": 288,
          "midi": 60,
          "name": "C4",
          "ticks": 49440,
          "time": 80.46875,
          "velocity": 0.2047244094488189
        },
        {
          "duration": 0.15625,
          "durationTicks": 96,
          "midi": 60,
          "name": "C4",
          "ticks": 49728,
          "time": 80.9375,
          "velocity": 0.2755905511811024
        },
        {
          "duration": 0.46875,
          "durationTicks": 288,
          "midi": 60,
          "name": "C4",
          "ticks": 49824,
          "time": 81.09375,
          "velocity": 0.2047244094488189
        },
        {
          "duration": 0.15625,
          "durationTicks": 96,
          "midi": 60,
          "name": "C4",
          "ticks": 50112,
          "time": 81.5625,
          "velocity": 0.2755905511811024
        },
        {
          "duration": 0.46875,
          "durationTicks": 288,
          "midi": 60,
          "name": "C4",
          "ticks": 50208,
          "time": 81.71875,
          "velocity": 0.2047244094488189
        },
        {
          "duration": 0.15625,
          "durationTicks": 96,
          "midi": 60,
          "name": "C4",
          "ticks": 50496,
          "time": 82.1875,
          "velocity": 0.2755905511811024
        },
        {
          "duration": 0.46875,
          "durationTicks": 288,
          "midi": 60,
          "name": "C4",
          "ticks": 50592,
          "time": 82.34375,
          "velocity": 0.2047244094488189
        },
        {
          "duration": 0.15625,
          "durationTicks": 96,
          "midi": 60,
          "name": "C4",
          "ticks": 50880,
          "time": 82.8125,
          "velocity": 0.2755905511811024
        },
        {
          "duration": 0.46875,
          "durationTicks": 288,
          "midi": 60,
          "name": "C4",
          "ticks": 50976,
          "time": 82.96875,
          "velocity": 0.2047244094488189
        },
        {
          "duration": 0.15625,
          "durationTicks": 96,
          "midi": 60,
          "name": "C4",
          "ticks": 51264,
          "time": 83.4375,
          "velocity": 0.2755905511811024
        },
        {
          "duration": 0.46875,
          "durationTicks": 288,
          "midi": 60,
          "name": "C4",
          "ticks": 51360,
          "time": 83.59375,
          "velocity": 0.2047244094488189
        },
        {
          "duration": 0.15625,
          "durationTicks": 96,
          "midi": 60,
          "name": "C4",
          "ticks": 51648,
          "time": 84.0625,
          "velocity": 0.2755905511811024
        },
        {
          "duration": 0.46875,
          "durationTicks": 288,
          "midi": 60,
          "name": "C4",
          "ticks": 51744,
          "time": 84.21875,
          "velocity": 0.2047244094488189
        },
        {
          "duration": 0.15625,
          "durationTicks": 96,
          "midi": 60,
          "name": "C4",
          "ticks": 52032,
          "time": 84.6875,
          "velocity": 0.2755905511811024
        },
        {
          "duration": 0.46875,
          "durationTicks": 288,
          "midi": 60,
          "name": "C4",
          "ticks": 52128,
          "time": 84.84375,
          "velocity": 0.2047244094488189
        },
        {
          "duration": 0.15625,
          "durationTicks": 96,
          "midi": 60,
          "name": "C4",
          "ticks": 52416,
          "time": 85.3125,
          "velocity": 0.2755905511811024
        },
        {
          "duration": 0.46875,
          "durationTicks": 288,
          "midi": 60,
          "name": "C4",
          "ticks": 52512,
          "time": 85.46875,
          "velocity": 0.2047244094488189
        },
        {
          "duration": 0.15625,
          "durationTicks": 96,
          "midi": 60,
          "name": "C4",
          "ticks": 52800,
          "time": 85.9375,
          "velocity": 0.2755905511811024
        },
        {
          "duration": 0.46875,
          "durationTicks": 288,
          "midi": 60,
          "name": "C4",
          "ticks": 52896,
          "time": 86.09375,
          "velocity": 0.2047244094488189
        },
        {
          "duration": 0.15625,
          "durationTicks": 96,
          "midi": 60,
          "name": "C4",
          "ticks": 53184,
          "time": 86.5625,
          "velocity": 0.2755905511811024
        },
        {
          "duration": 0.46875,
          "durationTicks": 288,
          "midi": 60,
          "name": "C4",
          "ticks": 53280,
          "time": 86.71875,
          "velocity": 0.2047244094488189
        },
        {
          "duration": 0.15625,
          "durationTicks": 96,
          "midi": 60,
          "name": "C4",
          "ticks": 53568,
          "time": 87.1875,
          "velocity": 0.2755905511811024
        },
        {
          "duration": 0.46875,
          "durationTicks": 288,
          "midi": 60,
          "name": "C4",
          "ticks": 53664,
          "time": 87.34375,
          "velocity": 0.2047244094488189
        },
        {
          "duration": 0.15625,
          "durationTicks": 96,
          "midi": 60,
          "name": "C4",
          "ticks": 53952,
          "time": 87.8125,
          "velocity": 0.2755905511811024
        },
        {
          "duration": 0.46875,
          "durationTicks": 288,
          "midi": 60,
          "name": "C4",
          "ticks": 54048,
          "time": 87.96875,
          "velocity": 0.2047244094488189
        },
        {
          "duration": 0.15625,
          "durationTicks": 96,
          "midi": 60,
          "name": "C4",
          "ticks": 54336,
          "time": 88.4375,
          "velocity": 0.2755905511811024
        },
        {
          "duration": 0.46875,
          "durationTicks": 288,
          "midi": 60,
          "name": "C4",
          "ticks": 54432,
          "time": 88.59375,
          "velocity": 0.2047244094488189
        },
        {
          "duration": 0.15625,
          "durationTicks": 96,
          "midi": 60,
          "name": "C4",
          "ticks": 54720,
          "time": 89.0625,
          "velocity": 0.2755905511811024
        },
        {
          "duration": 0.46875,
          "durationTicks": 288,
          "midi": 60,
          "name": "C4",
          "ticks": 54816,
          "time": 89.21875,
          "velocity": 0.2047244094488189
        },
        {
          "duration": 0.15625,
          "durationTicks": 96,
          "midi": 60,
          "name": "C4",
          "ticks": 55104,
          "time": 89.6875,
          "velocity": 0.2755905511811024
        },
        {
          "duration": 0.46875,
          "durationTicks": 288,
          "midi": 60,
          "name": "C4",
          "ticks": 55200,
          "time": 89.84375,
          "velocity": 0.2047244094488189
        },
        {
          "duration": 0.15625,
          "durationTicks": 96,
          "midi": 60,
          "name": "C4",
          "ticks": 55488,
          "time": 90.3125,
          "velocity": 0.2755905511811024
        },
        {
          "duration": 0.46875,
          "durationTicks": 288,
          "midi": 60,
          "name": "C4",
          "ticks": 55584,
          "time": 90.46875,
          "velocity": 0.2047244094488189
        },
        {
          "duration": 0.15625,
          "durationTicks": 96,
          "midi": 60,
          "name": "C4",
          "ticks": 55872,
          "time": 90.9375,
          "velocity": 0.2755905511811024
        },
        {
          "duration": 0.46875,
          "durationTicks": 288,
          "midi": 60,
          "name": "C4",
          "ticks": 55968,
          "time": 91.09375,
          "velocity": 0.2047244094488189
        },
        {
          "duration": 0.15625,
          "durationTicks": 96,
          "midi": 60,
          "name": "C4",
          "ticks": 56256,
          "time": 91.5625,
          "velocity": 0.2755905511811024
        },
        {
          "duration": 0.46875,
          "durationTicks": 288,
          "midi": 60,
          "name": "C4",
          "ticks": 56352,
          "time": 91.71875,
          "velocity": 0.2047244094488189
        },
        {
          "duration": 0.15625,
          "durationTicks": 96,
          "midi": 60,
          "name": "C4",
          "ticks": 56640,
          "time": 92.1875,
          "velocity": 0.2755905511811024
        },
        {
          "duration": 0.46875,
          "durationTicks": 288,
          "midi": 60,
          "name": "C4",
          "ticks": 56736,
          "time": 92.34375,
          "velocity": 0.2047244094488189
        },
        {
          "duration": 0.15625,
          "durationTicks": 96,
          "midi": 60,
          "name": "C4",
          "ticks": 57024,
          "time": 92.8125,
          "velocity": 0.2755905511811024
        },
        {
          "duration": 0.46875,
          "durationTicks": 288,
          "midi": 60,
          "name": "C4",
          "ticks": 57120,
          "time": 92.96875,
          "velocity": 0.2047244094488189
        },
        {
          "duration": 0.15625,
          "durationTicks": 96,
          "midi": 60,
          "name": "C4",
          "ticks": 57408,
          "time": 93.4375,
          "velocity": 0.2755905511811024
        },
        {
          "duration": 0.46875,
          "durationTicks": 288,
          "midi": 60,
          "name": "C4",
          "ticks": 57504,
          "time": 93.59375,
          "velocity": 0.2047244094488189
        },
        {
          "duration": 0.15625,
          "durationTicks": 96,
          "midi": 60,
          "name": "C4",
          "ticks": 57792,
          "time": 94.0625,
          "velocity": 0.2755905511811024
        },
        {
          "duration": 0.46875,
          "durationTicks": 288,
          "midi": 60,
          "name": "C4",
          "ticks": 57888,
          "time": 94.21875,
          "velocity": 0.2047244094488189
        },
        {
          "duration": 0.15625,
          "durationTicks": 96,
          "midi": 60,
          "name": "C4",
          "ticks": 58176,
          "time": 94.6875,
          "velocity": 0.2755905511811024
        },
        {
          "duration": 25.46875,
          "durationTicks": 15648,
          "midi": 60,
          "name": "C4",
          "ticks": 58272,
          "time": 94.84375,
          "velocity": 0.2047244094488189
        },
        {
          "duration": 0.3125,
          "durationTicks": 192,
          "midi": 40,
          "name": "E2",
          "ticks": 61440,
          "time": 100,
          "velocity": 0.2047244094488189
        },
        {
          "duration": 0.3125,
          "durationTicks": 192,
          "midi": 40,
          "name": "E2",
          "ticks": 61632,
          "time": 100.3125,
          "velocity": 0.2755905511811024
        },
        {
          "duration": 0.3125,
          "durationTicks": 192,
          "midi": 40,
          "name": "E2",
          "ticks": 61824,
          "time": 100.625,
          "velocity": 0.2755905511811024
        },
        {
          "duration": 0.3125,
          "durationTicks": 192,
          "midi": 40,
          "name": "E2",
          "ticks": 62016,
          "time": 100.9375,
          "velocity": 0.2755905511811024
        },
        {
          "duration": 0.3125,
          "durationTicks": 192,
          "midi": 40,
          "name": "E2",
          "ticks": 62208,
          "time": 101.25,
          "velocity": 0.2755905511811024
        },
        {
          "duration": 0.3125,
          "durationTicks": 192,
          "midi": 40,
          "name": "E2",
          "ticks": 62400,
          "time": 101.5625,
          "velocity": 0.2755905511811024
        },
        {
          "duration": 0.3125,
          "durationTicks": 192,
          "midi": 40,
          "name": "E2",
          "ticks": 62592,
          "time": 101.875,
          "velocity": 0.2755905511811024
        },
        {
          "duration": 0.3125,
          "durationTicks": 192,
          "midi": 40,
          "name": "E2",
          "ticks": 62784,
          "time": 102.1875,
          "velocity": 0.2755905511811024
        },
        {
          "duration": 0.3125,
          "durationTicks": 192,
          "midi": 40,
          "name": "E2",
          "ticks": 62976,
          "time": 102.5,
          "velocity": 0.2755905511811024
        },
        {
          "duration": 0.3125,
          "durationTicks": 192,
          "midi": 40,
          "name": "E2",
          "ticks": 63168,
          "time": 102.8125,
          "velocity": 0.2755905511811024
        },
        {
          "duration": 0.3125,
          "durationTicks": 192,
          "midi": 40,
          "name": "E2",
          "ticks": 63360,
          "time": 103.125,
          "velocity": 0.2755905511811024
        },
        {
          "duration": 0.3125,
          "durationTicks": 192,
          "midi": 40,
          "name": "E2",
          "ticks": 63552,
          "time": 103.4375,
          "velocity": 0.2755905511811024
        },
        {
          "duration": 0.3125,
          "durationTicks": 192,
          "midi": 40,
          "name": "E2",
          "ticks": 63744,
          "time": 103.75,
          "velocity": 0.2755905511811024
        },
        {
          "duration": 0.3125,
          "durationTicks": 192,
          "midi": 40,
          "name": "E2",
          "ticks": 63936,
          "time": 104.0625,
          "velocity": 0.2755905511811024
        },
        {
          "duration": 0.3125,
          "durationTicks": 192,
          "midi": 40,
          "name": "E2",
          "ticks": 64128,
          "time": 104.375,
          "velocity": 0.2755905511811024
        },
        {
          "duration": 0.3125,
          "durationTicks": 192,
          "midi": 40,
          "name": "E2",
          "ticks": 64320,
          "time": 104.6875,
          "velocity": 0.2755905511811024
        },
        {
          "duration": 0.3125,
          "durationTicks": 192,
          "midi": 40,
          "name": "E2",
          "ticks": 64512,
          "time": 105,
          "velocity": 0.2755905511811024
        },
        {
          "duration": 0.3125,
          "durationTicks": 192,
          "midi": 40,
          "name": "E2",
          "ticks": 64704,
          "time": 105.3125,
          "velocity": 0.2755905511811024
        },
        {
          "duration": 0.3125,
          "durationTicks": 192,
          "midi": 40,
          "name": "E2",
          "ticks": 64896,
          "time": 105.625,
          "velocity": 0.2755905511811024
        },
        {
          "duration": 0.3125,
          "durationTicks": 192,
          "midi": 40,
          "name": "E2",
          "ticks": 65088,
          "time": 105.9375,
          "velocity": 0.2755905511811024
        },
        {
          "duration": 0.3125,
          "durationTicks": 192,
          "midi": 40,
          "name": "E2",
          "ticks": 65280,
          "time": 106.25,
          "velocity": 0.2755905511811024
        },
        {
          "duration": 0.3125,
          "durationTicks": 192,
          "midi": 40,
          "name": "E2",
          "ticks": 65472,
          "time": 106.5625,
          "velocity": 0.2755905511811024
        },
        {
          "duration": 0.3125,
          "durationTicks": 192,
          "midi": 40,
          "name": "E2",
          "ticks": 65664,
          "time": 106.875,
          "velocity": 0.2755905511811024
        },
        {
          "duration": 0.3125,
          "durationTicks": 192,
          "midi": 40,
          "name": "E2",
          "ticks": 65856,
          "time": 107.1875,
          "velocity": 0.2755905511811024
        },
        {
          "duration": 0.3125,
          "durationTicks": 192,
          "midi": 40,
          "name": "E2",
          "ticks": 66048,
          "time": 107.5,
          "velocity": 0.2755905511811024
        },
        {
          "duration": 0.3125,
          "durationTicks": 192,
          "midi": 40,
          "name": "E2",
          "ticks": 66240,
          "time": 107.8125,
          "velocity": 0.2755905511811024
        },
        {
          "duration": 0.3125,
          "durationTicks": 192,
          "midi": 40,
          "name": "E2",
          "ticks": 66432,
          "time": 108.125,
          "velocity": 0.2755905511811024
        },
        {
          "duration": 0.3125,
          "durationTicks": 192,
          "midi": 40,
          "name": "E2",
          "ticks": 66624,
          "time": 108.4375,
          "velocity": 0.2755905511811024
        },
        {
          "duration": 0.3125,
          "durationTicks": 192,
          "midi": 40,
          "name": "E2",
          "ticks": 66816,
          "time": 108.75,
          "velocity": 0.2755905511811024
        },
        {
          "duration": 0.3125,
          "durationTicks": 192,
          "midi": 40,
          "name": "E2",
          "ticks": 67008,
          "time": 109.0625,
          "velocity": 0.2755905511811024
        },
        {
          "duration": 0.3125,
          "durationTicks": 192,
          "midi": 40,
          "name": "E2",
          "ticks": 67200,
          "time": 109.375,
          "velocity": 0.2755905511811024
        },
        {
          "duration": 0.3125,
          "durationTicks": 192,
          "midi": 40,
          "name": "E2",
          "ticks": 67392,
          "time": 109.6875,
          "velocity": 0.2755905511811024
        },
        {
          "duration": 0.3125,
          "durationTicks": 192,
          "midi": 40,
          "name": "E2",
          "ticks": 67584,
          "time": 110,
          "velocity": 0.2755905511811024
        },
        {
          "duration": 0.3125,
          "durationTicks": 192,
          "midi": 40,
          "name": "E2",
          "ticks": 67776,
          "time": 110.3125,
          "velocity": 0.2755905511811024
        },
        {
          "duration": 0.3125,
          "durationTicks": 192,
          "midi": 40,
          "name": "E2",
          "ticks": 67968,
          "time": 110.625,
          "velocity": 0.2755905511811024
        },
        {
          "duration": 0.3125,
          "durationTicks": 192,
          "midi": 40,
          "name": "E2",
          "ticks": 68160,
          "time": 110.9375,
          "velocity": 0.2755905511811024
        },
        {
          "duration": 0.3125,
          "durationTicks": 192,
          "midi": 40,
          "name": "E2",
          "ticks": 68352,
          "time": 111.25,
          "velocity": 0.2755905511811024
        },
        {
          "duration": 0.3125,
          "durationTicks": 192,
          "midi": 40,
          "name": "E2",
          "ticks": 68544,
          "time": 111.5625,
          "velocity": 0.2755905511811024
        },
        {
          "duration": 0.3125,
          "durationTicks": 192,
          "midi": 40,
          "name": "E2",
          "ticks": 68736,
          "time": 111.875,
          "velocity": 0.2755905511811024
        },
        {
          "duration": 0.3125,
          "durationTicks": 192,
          "midi": 40,
          "name": "E2",
          "ticks": 68928,
          "time": 112.1875,
          "velocity": 0.2755905511811024
        },
        {
          "duration": 0.3125,
          "durationTicks": 192,
          "midi": 40,
          "name": "E2",
          "ticks": 69120,
          "time": 112.5,
          "velocity": 0.2755905511811024
        },
        {
          "duration": 0.3125,
          "durationTicks": 192,
          "midi": 40,
          "name": "E2",
          "ticks": 69312,
          "time": 112.8125,
          "velocity": 0.2755905511811024
        },
        {
          "duration": 0.3125,
          "durationTicks": 192,
          "midi": 40,
          "name": "E2",
          "ticks": 69504,
          "time": 113.125,
          "velocity": 0.2755905511811024
        },
        {
          "duration": 0.3125,
          "durationTicks": 192,
          "midi": 40,
          "name": "E2",
          "ticks": 69696,
          "time": 113.4375,
          "velocity": 0.2755905511811024
        },
        {
          "duration": 0.3125,
          "durationTicks": 192,
          "midi": 40,
          "name": "E2",
          "ticks": 69888,
          "time": 113.75,
          "velocity": 0.2755905511811024
        },
        {
          "duration": 0.3125,
          "durationTicks": 192,
          "midi": 40,
          "name": "E2",
          "ticks": 70080,
          "time": 114.0625,
          "velocity": 0.2755905511811024
        },
        {
          "duration": 0.3125,
          "durationTicks": 192,
          "midi": 40,
          "name": "E2",
          "ticks": 70272,
          "time": 114.375,
          "velocity": 0.2755905511811024
        },
        {
          "duration": 0.3125,
          "durationTicks": 192,
          "midi": 40,
          "name": "E2",
          "ticks": 70464,
          "time": 114.6875,
          "velocity": 0.2755905511811024
        },
        {
          "duration": 0.3125,
          "durationTicks": 192,
          "midi": 40,
          "name": "E2",
          "ticks": 70656,
          "time": 115,
          "velocity": 0.2755905511811024
        },
        {
          "duration": 0.3125,
          "durationTicks": 192,
          "midi": 40,
          "name": "E2",
          "ticks": 70848,
          "time": 115.3125,
          "velocity": 0.2755905511811024
        },
        {
          "duration": 0.3125,
          "durationTicks": 192,
          "midi": 40,
          "name": "E2",
          "ticks": 71040,
          "time": 115.625,
          "velocity": 0.2755905511811024
        },
        {
          "duration": 0.3125,
          "durationTicks": 192,
          "midi": 40,
          "name": "E2",
          "ticks": 71232,
          "time": 115.9375,
          "velocity": 0.2755905511811024
        },
        {
          "duration": 0.3125,
          "durationTicks": 192,
          "midi": 40,
          "name": "E2",
          "ticks": 71424,
          "time": 116.25,
          "velocity": 0.2755905511811024
        },
        {
          "duration": 0.3125,
          "durationTicks": 192,
          "midi": 40,
          "name": "E2",
          "ticks": 71616,
          "time": 116.5625,
          "velocity": 0.2755905511811024
        },
        {
          "duration": 0.3125,
          "durationTicks": 192,
          "midi": 40,
          "name": "E2",
          "ticks": 71808,
          "time": 116.875,
          "velocity": 0.2755905511811024
        },
        {
          "duration": 0.3125,
          "durationTicks": 192,
          "midi": 40,
          "name": "E2",
          "ticks": 72000,
          "time": 117.1875,
          "velocity": 0.2755905511811024
        },
        {
          "duration": 0.3125,
          "durationTicks": 192,
          "midi": 40,
          "name": "E2",
          "ticks": 72192,
          "time": 117.5,
          "velocity": 0.2755905511811024
        },
        {
          "duration": 0.3125,
          "durationTicks": 192,
          "midi": 40,
          "name": "E2",
          "ticks": 72384,
          "time": 117.8125,
          "velocity": 0.2755905511811024
        },
        {
          "duration": 0.3125,
          "durationTicks": 192,
          "midi": 40,
          "name": "E2",
          "ticks": 72576,
          "time": 118.125,
          "velocity": 0.2755905511811024
        },
        {
          "duration": 0.3125,
          "durationTicks": 192,
          "midi": 40,
          "name": "E2",
          "ticks": 72768,
          "time": 118.4375,
          "velocity": 0.2755905511811024
        },
        {
          "duration": 0.3125,
          "durationTicks": 192,
          "midi": 40,
          "name": "E2",
          "ticks": 72960,
          "time": 118.75,
          "velocity": 0.2755905511811024
        },
        {
          "duration": 0.3125,
          "durationTicks": 192,
          "midi": 40,
          "name": "E2",
          "ticks": 73152,
          "time": 119.0625,
          "velocity": 0.2755905511811024
        },
        {
          "duration": 0.3125,
          "durationTicks": 192,
          "midi": 40,
          "name": "E2",
          "ticks": 73344,
          "time": 119.375,
          "velocity": 0.2755905511811024
        },
        {
          "duration": 0.625,
          "durationTicks": 384,
          "midi": 40,
          "name": "E2",
          "ticks": 73536,
          "time": 119.6875,
          "velocity": 0.2755905511811024
        },
        {
          "duration": 0.15625,
          "durationTicks": 96,
          "midi": 60,
          "name": "C4",
          "ticks": 73920,
          "time": 120.3125,
          "velocity": 0.2755905511811024
        },
        {
          "duration": 0.46875,
          "durationTicks": 288,
          "midi": 60,
          "name": "C4",
          "ticks": 74016,
          "time": 120.46875,
          "velocity": 0.2047244094488189
        },
        {
          "duration": 0.15625,
          "durationTicks": 96,
          "midi": 60,
          "name": "C4",
          "ticks": 74304,
          "time": 120.9375,
          "velocity": 0.2755905511811024
        },
        {
          "duration": 0.46875,
          "durationTicks": 288,
          "midi": 60,
          "name": "C4",
          "ticks": 74400,
          "time": 121.09375,
          "velocity": 0.2047244094488189
        },
        {
          "duration": 0.15625,
          "durationTicks": 96,
          "midi": 60,
          "name": "C4",
          "ticks": 74688,
          "time": 121.5625,
          "velocity": 0.2755905511811024
        },
        {
          "duration": 0.46875,
          "durationTicks": 288,
          "midi": 60,
          "name": "C4",
          "ticks": 74784,
          "time": 121.71875,
          "velocity": 0.2047244094488189
        },
        {
          "duration": 0.15625,
          "durationTicks": 96,
          "midi": 60,
          "name": "C4",
          "ticks": 75072,
          "time": 122.1875,
          "velocity": 0.2755905511811024
        },
        {
          "duration": 0.46875,
          "durationTicks": 288,
          "midi": 60,
          "name": "C4",
          "ticks": 75168,
          "time": 122.34375,
          "velocity": 0.2047244094488189
        },
        {
          "duration": 0.15625,
          "durationTicks": 96,
          "midi": 60,
          "name": "C4",
          "ticks": 75456,
          "time": 122.8125,
          "velocity": 0.2755905511811024
        },
        {
          "duration": 0.46875,
          "durationTicks": 288,
          "midi": 60,
          "name": "C4",
          "ticks": 75552,
          "time": 122.96875,
          "velocity": 0.2047244094488189
        },
        {
          "duration": 0.15625,
          "durationTicks": 96,
          "midi": 60,
          "name": "C4",
          "ticks": 75840,
          "time": 123.4375,
          "velocity": 0.2755905511811024
        },
        {
          "duration": 0.46875,
          "durationTicks": 288,
          "midi": 60,
          "name": "C4",
          "ticks": 75936,
          "time": 123.59375,
          "velocity": 0.2047244094488189
        },
        {
          "duration": 0.15625,
          "durationTicks": 96,
          "midi": 60,
          "name": "C4",
          "ticks": 76224,
          "time": 124.0625,
          "velocity": 0.2755905511811024
        },
        {
          "duration": 0.46875,
          "durationTicks": 288,
          "midi": 60,
          "name": "C4",
          "ticks": 76320,
          "time": 124.21875,
          "velocity": 0.2047244094488189
        },
        {
          "duration": 0.15625,
          "durationTicks": 96,
          "midi": 60,
          "name": "C4",
          "ticks": 76608,
          "time": 124.6875,
          "velocity": 0.2755905511811024
        },
        {
          "duration": 55.46875,
          "durationTicks": 34080,
          "midi": 60,
          "name": "C4",
          "ticks": 76704,
          "time": 124.84375,
          "velocity": 0.2047244094488189
        },
        {
          "duration": 0.3125,
          "durationTicks": 192,
          "midi": 40,
          "name": "E2",
          "ticks": 79872,
          "time": 130,
          "velocity": 0.2047244094488189
        },
        {
          "duration": 0.3125,
          "durationTicks": 192,
          "midi": 40,
          "name": "E2",
          "ticks": 80064,
          "time": 130.3125,
          "velocity": 0.2755905511811024
        },
        {
          "duration": 0.3125,
          "durationTicks": 192,
          "midi": 40,
          "name": "E2",
          "ticks": 80256,
          "time": 130.625,
          "velocity": 0.2755905511811024
        },
        {
          "duration": 0.3125,
          "durationTicks": 192,
          "midi": 40,
          "name": "E2",
          "ticks": 80448,
          "time": 130.9375,
          "velocity": 0.2755905511811024
        },
        {
          "duration": 0.3125,
          "durationTicks": 192,
          "midi": 40,
          "name": "E2",
          "ticks": 80640,
          "time": 131.25,
          "velocity": 0.2755905511811024
        },
        {
          "duration": 0.3125,
          "durationTicks": 192,
          "midi": 40,
          "name": "E2",
          "ticks": 80832,
          "time": 131.5625,
          "velocity": 0.2755905511811024
        },
        {
          "duration": 0.3125,
          "durationTicks": 192,
          "midi": 40,
          "name": "E2",
          "ticks": 81024,
          "time": 131.875,
          "velocity": 0.2755905511811024
        },
        {
          "duration": 0.3125,
          "durationTicks": 192,
          "midi": 40,
          "name": "E2",
          "ticks": 81216,
          "time": 132.1875,
          "velocity": 0.2755905511811024
        },
        {
          "duration": 0.3125,
          "durationTicks": 192,
          "midi": 40,
          "name": "E2",
          "ticks": 81408,
          "time": 132.5,
          "velocity": 0.2755905511811024
        },
        {
          "duration": 0.3125,
          "durationTicks": 192,
          "midi": 40,
          "name": "E2",
          "ticks": 81600,
          "time": 132.8125,
          "velocity": 0.2755905511811024
        },
        {
          "duration": 0.3125,
          "durationTicks": 192,
          "midi": 40,
          "name": "E2",
          "ticks": 81792,
          "time": 133.125,
          "velocity": 0.2755905511811024
        },
        {
          "duration": 0.3125,
          "durationTicks": 192,
          "midi": 40,
          "name": "E2",
          "ticks": 81984,
          "time": 133.4375,
          "velocity": 0.2755905511811024
        },
        {
          "duration": 0.3125,
          "durationTicks": 192,
          "midi": 40,
          "name": "E2",
          "ticks": 82176,
          "time": 133.75,
          "velocity": 0.2755905511811024
        },
        {
          "duration": 0.3125,
          "durationTicks": 192,
          "midi": 40,
          "name": "E2",
          "ticks": 82368,
          "time": 134.0625,
          "velocity": 0.2755905511811024
        },
        {
          "duration": 0.3125,
          "durationTicks": 192,
          "midi": 40,
          "name": "E2",
          "ticks": 82560,
          "time": 134.375,
          "velocity": 0.2755905511811024
        },
        {
          "duration": 0.3125,
          "durationTicks": 192,
          "midi": 40,
          "name": "E2",
          "ticks": 82752,
          "time": 134.6875,
          "velocity": 0.2755905511811024
        },
        {
          "duration": 0.3125,
          "durationTicks": 192,
          "midi": 40,
          "name": "E2",
          "ticks": 82944,
          "time": 135,
          "velocity": 0.2755905511811024
        },
        {
          "duration": 0.3125,
          "durationTicks": 192,
          "midi": 40,
          "name": "E2",
          "ticks": 83136,
          "time": 135.3125,
          "velocity": 0.2755905511811024
        },
        {
          "duration": 0.3125,
          "durationTicks": 192,
          "midi": 40,
          "name": "E2",
          "ticks": 83328,
          "time": 135.625,
          "velocity": 0.2755905511811024
        },
        {
          "duration": 0.3125,
          "durationTicks": 192,
          "midi": 40,
          "name": "E2",
          "ticks": 83520,
          "time": 135.9375,
          "velocity": 0.2755905511811024
        },
        {
          "duration": 0.3125,
          "durationTicks": 192,
          "midi": 40,
          "name": "E2",
          "ticks": 83712,
          "time": 136.25,
          "velocity": 0.2755905511811024
        },
        {
          "duration": 0.3125,
          "durationTicks": 192,
          "midi": 40,
          "name": "E2",
          "ticks": 83904,
          "time": 136.5625,
          "velocity": 0.2755905511811024
        },
        {
          "duration": 0.3125,
          "durationTicks": 192,
          "midi": 40,
          "name": "E2",
          "ticks": 84096,
          "time": 136.875,
          "velocity": 0.2755905511811024
        },
        {
          "duration": 0.3125,
          "durationTicks": 192,
          "midi": 40,
          "name": "E2",
          "ticks": 84288,
          "time": 137.1875,
          "velocity": 0.2755905511811024
        },
        {
          "duration": 0.3125,
          "durationTicks": 192,
          "midi": 40,
          "name": "E2",
          "ticks": 84480,
          "time": 137.5,
          "velocity": 0.2755905511811024
        },
        {
          "duration": 0.3125,
          "durationTicks": 192,
          "midi": 40,
          "name": "E2",
          "ticks": 84672,
          "time": 137.8125,
          "velocity": 0.2755905511811024
        },
        {
          "duration": 0.3125,
          "durationTicks": 192,
          "midi": 40,
          "name": "E2",
          "ticks": 84864,
          "time": 138.125,
          "velocity": 0.2755905511811024
        },
        {
          "duration": 0.3125,
          "durationTicks": 192,
          "midi": 40,
          "name": "E2",
          "ticks": 85056,
          "time": 138.4375,
          "velocity": 0.2755905511811024
        },
        {
          "duration": 0.3125,
          "durationTicks": 192,
          "midi": 40,
          "name": "E2",
          "ticks": 85248,
          "time": 138.75,
          "velocity": 0.2755905511811024
        },
        {
          "duration": 0.3125,
          "durationTicks": 192,
          "midi": 40,
          "name": "E2",
          "ticks": 85440,
          "time": 139.0625,
          "velocity": 0.2755905511811024
        },
        {
          "duration": 0.3125,
          "durationTicks": 192,
          "midi": 40,
          "name": "E2",
          "ticks": 85632,
          "time": 139.375,
          "velocity": 0.2755905511811024
        },
        {
          "duration": 0.3125,
          "durationTicks": 192,
          "midi": 40,
          "name": "E2",
          "ticks": 85824,
          "time": 139.6875,
          "velocity": 0.2755905511811024
        },
        {
          "duration": 0.3125,
          "durationTicks": 192,
          "midi": 40,
          "name": "E2",
          "ticks": 86016,
          "time": 140,
          "velocity": 0.2755905511811024
        },
        {
          "duration": 0.3125,
          "durationTicks": 192,
          "midi": 40,
          "name": "E2",
          "ticks": 86208,
          "time": 140.3125,
          "velocity": 0.2755905511811024
        },
        {
          "duration": 0.3125,
          "durationTicks": 192,
          "midi": 40,
          "name": "E2",
          "ticks": 86400,
          "time": 140.625,
          "velocity": 0.2755905511811024
        },
        {
          "duration": 0.3125,
          "durationTicks": 192,
          "midi": 40,
          "name": "E2",
          "ticks": 86592,
          "time": 140.9375,
          "velocity": 0.2755905511811024
        },
        {
          "duration": 0.3125,
          "durationTicks": 192,
          "midi": 40,
          "name": "E2",
          "ticks": 86784,
          "time": 141.25,
          "velocity": 0.2755905511811024
        },
        {
          "duration": 0.3125,
          "durationTicks": 192,
          "midi": 40,
          "name": "E2",
          "ticks": 86976,
          "time": 141.5625,
          "velocity": 0.2755905511811024
        },
        {
          "duration": 0.3125,
          "durationTicks": 192,
          "midi": 40,
          "name": "E2",
          "ticks": 87168,
          "time": 141.875,
          "velocity": 0.2755905511811024
        },
        {
          "duration": 0.3125,
          "durationTicks": 192,
          "midi": 40,
          "name": "E2",
          "ticks": 87360,
          "time": 142.1875,
          "velocity": 0.2755905511811024
        },
        {
          "duration": 0.3125,
          "durationTicks": 192,
          "midi": 40,
          "name": "E2",
          "ticks": 87552,
          "time": 142.5,
          "velocity": 0.2755905511811024
        },
        {
          "duration": 0.3125,
          "durationTicks": 192,
          "midi": 40,
          "name": "E2",
          "ticks": 87744,
          "time": 142.8125,
          "velocity": 0.2755905511811024
        },
        {
          "duration": 0.3125,
          "durationTicks": 192,
          "midi": 40,
          "name": "E2",
          "ticks": 87936,
          "time": 143.125,
          "velocity": 0.2755905511811024
        },
        {
          "duration": 0.3125,
          "durationTicks": 192,
          "midi": 40,
          "name": "E2",
          "ticks": 88128,
          "time": 143.4375,
          "velocity": 0.2755905511811024
        },
        {
          "duration": 0.3125,
          "durationTicks": 192,
          "midi": 40,
          "name": "E2",
          "ticks": 88320,
          "time": 143.75,
          "velocity": 0.2755905511811024
        },
        {
          "duration": 0.3125,
          "durationTicks": 192,
          "midi": 40,
          "name": "E2",
          "ticks": 88512,
          "time": 144.0625,
          "velocity": 0.2755905511811024
        },
        {
          "duration": 0.3125,
          "durationTicks": 192,
          "midi": 40,
          "name": "E2",
          "ticks": 88704,
          "time": 144.375,
          "velocity": 0.2755905511811024
        },
        {
          "duration": 0.3125,
          "durationTicks": 192,
          "midi": 40,
          "name": "E2",
          "ticks": 88896,
          "time": 144.6875,
          "velocity": 0.2755905511811024
        },
        {
          "duration": 0.3125,
          "durationTicks": 192,
          "midi": 40,
          "name": "E2",
          "ticks": 89088,
          "time": 145,
          "velocity": 0.2755905511811024
        },
        {
          "duration": 0.3125,
          "durationTicks": 192,
          "midi": 40,
          "name": "E2",
          "ticks": 89280,
          "time": 145.3125,
          "velocity": 0.2755905511811024
        },
        {
          "duration": 0.3125,
          "durationTicks": 192,
          "midi": 40,
          "name": "E2",
          "ticks": 89472,
          "time": 145.625,
          "velocity": 0.2755905511811024
        },
        {
          "duration": 0.3125,
          "durationTicks": 192,
          "midi": 40,
          "name": "E2",
          "ticks": 89664,
          "time": 145.9375,
          "velocity": 0.2755905511811024
        },
        {
          "duration": 0.3125,
          "durationTicks": 192,
          "midi": 40,
          "name": "E2",
          "ticks": 89856,
          "time": 146.25,
          "velocity": 0.2755905511811024
        },
        {
          "duration": 0.3125,
          "durationTicks": 192,
          "midi": 40,
          "name": "E2",
          "ticks": 90048,
          "time": 146.5625,
          "velocity": 0.2755905511811024
        },
        {
          "duration": 0.3125,
          "durationTicks": 192,
          "midi": 40,
          "name": "E2",
          "ticks": 90240,
          "time": 146.875,
          "velocity": 0.2755905511811024
        },
        {
          "duration": 0.3125,
          "durationTicks": 192,
          "midi": 40,
          "name": "E2",
          "ticks": 90432,
          "time": 147.1875,
          "velocity": 0.2755905511811024
        },
        {
          "duration": 0.3125,
          "durationTicks": 192,
          "midi": 40,
          "name": "E2",
          "ticks": 90624,
          "time": 147.5,
          "velocity": 0.2755905511811024
        },
        {
          "duration": 0.3125,
          "durationTicks": 192,
          "midi": 40,
          "name": "E2",
          "ticks": 90816,
          "time": 147.8125,
          "velocity": 0.2755905511811024
        },
        {
          "duration": 0.3125,
          "durationTicks": 192,
          "midi": 40,
          "name": "E2",
          "ticks": 91008,
          "time": 148.125,
          "velocity": 0.2755905511811024
        },
        {
          "duration": 0.3125,
          "durationTicks": 192,
          "midi": 40,
          "name": "E2",
          "ticks": 91200,
          "time": 148.4375,
          "velocity": 0.2755905511811024
        },
        {
          "duration": 0.3125,
          "durationTicks": 192,
          "midi": 40,
          "name": "E2",
          "ticks": 91392,
          "time": 148.75,
          "velocity": 0.2755905511811024
        },
        {
          "duration": 0.3125,
          "durationTicks": 192,
          "midi": 40,
          "name": "E2",
          "ticks": 91584,
          "time": 149.0625,
          "velocity": 0.2755905511811024
        },
        {
          "duration": 0.3125,
          "durationTicks": 192,
          "midi": 40,
          "name": "E2",
          "ticks": 91776,
          "time": 149.375,
          "velocity": 0.2755905511811024
        },
        {
          "duration": 0.3125,
          "durationTicks": 192,
          "midi": 40,
          "name": "E2",
          "ticks": 91968,
          "time": 149.6875,
          "velocity": 0.2755905511811024
        },
        {
          "duration": 0.3125,
          "durationTicks": 192,
          "midi": 40,
          "name": "E2",
          "ticks": 92160,
          "time": 150,
          "velocity": 0.2755905511811024
        },
        {
          "duration": 0.3125,
          "durationTicks": 192,
          "midi": 40,
          "name": "E2",
          "ticks": 92352,
          "time": 150.3125,
          "velocity": 0.2755905511811024
        },
        {
          "duration": 0.3125,
          "durationTicks": 192,
          "midi": 40,
          "name": "E2",
          "ticks": 92544,
          "time": 150.625,
          "velocity": 0.2755905511811024
        },
        {
          "duration": 0.3125,
          "durationTicks": 192,
          "midi": 40,
          "name": "E2",
          "ticks": 92736,
          "time": 150.9375,
          "velocity": 0.2755905511811024
        },
        {
          "duration": 0.3125,
          "durationTicks": 192,
          "midi": 40,
          "name": "E2",
          "ticks": 92928,
          "time": 151.25,
          "velocity": 0.2755905511811024
        },
        {
          "duration": 0.3125,
          "durationTicks": 192,
          "midi": 40,
          "name": "E2",
          "ticks": 93120,
          "time": 151.5625,
          "velocity": 0.2755905511811024
        },
        {
          "duration": 0.3125,
          "durationTicks": 192,
          "midi": 40,
          "name": "E2",
          "ticks": 93312,
          "time": 151.875,
          "velocity": 0.2755905511811024
        },
        {
          "duration": 0.3125,
          "durationTicks": 192,
          "midi": 40,
          "name": "E2",
          "ticks": 93504,
          "time": 152.1875,
          "velocity": 0.2755905511811024
        },
        {
          "duration": 0.3125,
          "durationTicks": 192,
          "midi": 40,
          "name": "E2",
          "ticks": 93696,
          "time": 152.5,
          "velocity": 0.2755905511811024
        },
        {
          "duration": 0.3125,
          "durationTicks": 192,
          "midi": 40,
          "name": "E2",
          "ticks": 93888,
          "time": 152.8125,
          "velocity": 0.2755905511811024
        },
        {
          "duration": 0.3125,
          "durationTicks": 192,
          "midi": 40,
          "name": "E2",
          "ticks": 94080,
          "time": 153.125,
          "velocity": 0.2755905511811024
        },
        {
          "duration": 0.3125,
          "durationTicks": 192,
          "midi": 40,
          "name": "E2",
          "ticks": 94272,
          "time": 153.4375,
          "velocity": 0.2755905511811024
        },
        {
          "duration": 0.3125,
          "durationTicks": 192,
          "midi": 40,
          "name": "E2",
          "ticks": 94464,
          "time": 153.75,
          "velocity": 0.2755905511811024
        },
        {
          "duration": 0.3125,
          "durationTicks": 192,
          "midi": 40,
          "name": "E2",
          "ticks": 94656,
          "time": 154.0625,
          "velocity": 0.2755905511811024
        },
        {
          "duration": 0.3125,
          "durationTicks": 192,
          "midi": 40,
          "name": "E2",
          "ticks": 94848,
          "time": 154.375,
          "velocity": 0.2755905511811024
        },
        {
          "duration": 0.3125,
          "durationTicks": 192,
          "midi": 40,
          "name": "E2",
          "ticks": 95040,
          "time": 154.6875,
          "velocity": 0.2755905511811024
        },
        {
          "duration": 0.3125,
          "durationTicks": 192,
          "midi": 40,
          "name": "E2",
          "ticks": 95232,
          "time": 155,
          "velocity": 0.2755905511811024
        },
        {
          "duration": 0.3125,
          "durationTicks": 192,
          "midi": 40,
          "name": "E2",
          "ticks": 95424,
          "time": 155.3125,
          "velocity": 0.2755905511811024
        },
        {
          "duration": 0.3125,
          "durationTicks": 192,
          "midi": 40,
          "name": "E2",
          "ticks": 95616,
          "time": 155.625,
          "velocity": 0.2755905511811024
        },
        {
          "duration": 0.3125,
          "durationTicks": 192,
          "midi": 40,
          "name": "E2",
          "ticks": 95808,
          "time": 155.9375,
          "velocity": 0.2755905511811024
        },
        {
          "duration": 0.3125,
          "durationTicks": 192,
          "midi": 40,
          "name": "E2",
          "ticks": 96000,
          "time": 156.25,
          "velocity": 0.2755905511811024
        },
        {
          "duration": 0.3125,
          "durationTicks": 192,
          "midi": 40,
          "name": "E2",
          "ticks": 96192,
          "time": 156.5625,
          "velocity": 0.2755905511811024
        },
        {
          "duration": 0.3125,
          "durationTicks": 192,
          "midi": 40,
          "name": "E2",
          "ticks": 96384,
          "time": 156.875,
          "velocity": 0.2755905511811024
        },
        {
          "duration": 0.3125,
          "durationTicks": 192,
          "midi": 40,
          "name": "E2",
          "ticks": 96576,
          "time": 157.1875,
          "velocity": 0.2755905511811024
        },
        {
          "duration": 0.3125,
          "durationTicks": 192,
          "midi": 40,
          "name": "E2",
          "ticks": 96768,
          "time": 157.5,
          "velocity": 0.2755905511811024
        },
        {
          "duration": 0.3125,
          "durationTicks": 192,
          "midi": 40,
          "name": "E2",
          "ticks": 96960,
          "time": 157.8125,
          "velocity": 0.2755905511811024
        },
        {
          "duration": 0.3125,
          "durationTicks": 192,
          "midi": 40,
          "name": "E2",
          "ticks": 97152,
          "time": 158.125,
          "velocity": 0.2755905511811024
        },
        {
          "duration": 0.3125,
          "durationTicks": 192,
          "midi": 40,
          "name": "E2",
          "ticks": 97344,
          "time": 158.4375,
          "velocity": 0.2755905511811024
        },
        {
          "duration": 0.3125,
          "durationTicks": 192,
          "midi": 40,
          "name": "E2",
          "ticks": 97536,
          "time": 158.75,
          "velocity": 0.2755905511811024
        },
        {
          "duration": 0.3125,
          "durationTicks": 192,
          "midi": 40,
          "name": "E2",
          "ticks": 97728,
          "time": 159.0625,
          "velocity": 0.2755905511811024
        },
        {
          "duration": 0.625,
          "durationTicks": 384,
          "midi": 40,
          "name": "E2",
          "ticks": 97920,
          "time": 159.375,
          "velocity": 0.2755905511811024
        },
        {
          "duration": 0.3125,
          "durationTicks": 192,
          "midi": 40,
          "name": "E2",
          "ticks": 98304,
          "time": 160,
          "velocity": 0.2755905511811024
        },
        {
          "duration": 0.3125,
          "durationTicks": 192,
          "midi": 40,
          "name": "E2",
          "ticks": 98496,
          "time": 160.3125,
          "velocity": 0.2755905511811024
        },
        {
          "duration": 0.3125,
          "durationTicks": 192,
          "midi": 40,
          "name": "E2",
          "ticks": 98688,
          "time": 160.625,
          "velocity": 0.2755905511811024
        },
        {
          "duration": 0.3125,
          "durationTicks": 192,
          "midi": 40,
          "name": "E2",
          "ticks": 98880,
          "time": 160.9375,
          "velocity": 0.2755905511811024
        },
        {
          "duration": 0.3125,
          "durationTicks": 192,
          "midi": 40,
          "name": "E2",
          "ticks": 99072,
          "time": 161.25,
          "velocity": 0.2755905511811024
        },
        {
          "duration": 0.3125,
          "durationTicks": 192,
          "midi": 40,
          "name": "E2",
          "ticks": 99264,
          "time": 161.5625,
          "velocity": 0.2755905511811024
        },
        {
          "duration": 0.3125,
          "durationTicks": 192,
          "midi": 40,
          "name": "E2",
          "ticks": 99456,
          "time": 161.875,
          "velocity": 0.2755905511811024
        },
        {
          "duration": 0.3125,
          "durationTicks": 192,
          "midi": 40,
          "name": "E2",
          "ticks": 99648,
          "time": 162.1875,
          "velocity": 0.2755905511811024
        },
        {
          "duration": 0.3125,
          "durationTicks": 192,
          "midi": 40,
          "name": "E2",
          "ticks": 99840,
          "time": 162.5,
          "velocity": 0.2755905511811024
        },
        {
          "duration": 0.3125,
          "durationTicks": 192,
          "midi": 40,
          "name": "E2",
          "ticks": 100032,
          "time": 162.8125,
          "velocity": 0.2755905511811024
        },
        {
          "duration": 0.3125,
          "durationTicks": 192,
          "midi": 40,
          "name": "E2",
          "ticks": 100224,
          "time": 163.125,
          "velocity": 0.2755905511811024
        },
        {
          "duration": 0.3125,
          "durationTicks": 192,
          "midi": 40,
          "name": "E2",
          "ticks": 100416,
          "time": 163.4375,
          "velocity": 0.2755905511811024
        },
        {
          "duration": 0.3125,
          "durationTicks": 192,
          "midi": 40,
          "name": "E2",
          "ticks": 100608,
          "time": 163.75,
          "velocity": 0.2755905511811024
        },
        {
          "duration": 0.3125,
          "durationTicks": 192,
          "midi": 40,
          "name": "E2",
          "ticks": 100800,
          "time": 164.0625,
          "velocity": 0.2755905511811024
        },
        {
          "duration": 0.3125,
          "durationTicks": 192,
          "midi": 40,
          "name": "E2",
          "ticks": 100992,
          "time": 164.375,
          "velocity": 0.2755905511811024
        },
        {
          "duration": 0.3125,
          "durationTicks": 192,
          "midi": 40,
          "name": "E2",
          "ticks": 101184,
          "time": 164.6875,
          "velocity": 0.2755905511811024
        },
        {
          "duration": 0.3125,
          "durationTicks": 192,
          "midi": 40,
          "name": "E2",
          "ticks": 101376,
          "time": 165,
          "velocity": 0.2755905511811024
        },
        {
          "duration": 0.3125,
          "durationTicks": 192,
          "midi": 40,
          "name": "E2",
          "ticks": 101568,
          "time": 165.3125,
          "velocity": 0.2755905511811024
        },
        {
          "duration": 0.3125,
          "durationTicks": 192,
          "midi": 40,
          "name": "E2",
          "ticks": 101760,
          "time": 165.625,
          "velocity": 0.2755905511811024
        },
        {
          "duration": 0.3125,
          "durationTicks": 192,
          "midi": 40,
          "name": "E2",
          "ticks": 101952,
          "time": 165.9375,
          "velocity": 0.2755905511811024
        },
        {
          "duration": 0.3125,
          "durationTicks": 192,
          "midi": 40,
          "name": "E2",
          "ticks": 102144,
          "time": 166.25,
          "velocity": 0.2755905511811024
        },
        {
          "duration": 0.3125,
          "durationTicks": 192,
          "midi": 40,
          "name": "E2",
          "ticks": 102336,
          "time": 166.5625,
          "velocity": 0.2755905511811024
        },
        {
          "duration": 0.3125,
          "durationTicks": 192,
          "midi": 40,
          "name": "E2",
          "ticks": 102528,
          "time": 166.875,
          "velocity": 0.2755905511811024
        },
        {
          "duration": 0.3125,
          "durationTicks": 192,
          "midi": 40,
          "name": "E2",
          "ticks": 102720,
          "time": 167.1875,
          "velocity": 0.2755905511811024
        },
        {
          "duration": 0.3125,
          "durationTicks": 192,
          "midi": 40,
          "name": "E2",
          "ticks": 102912,
          "time": 167.5,
          "velocity": 0.2755905511811024
        },
        {
          "duration": 0.3125,
          "durationTicks": 192,
          "midi": 40,
          "name": "E2",
          "ticks": 103104,
          "time": 167.8125,
          "velocity": 0.2755905511811024
        },
        {
          "duration": 0.3125,
          "durationTicks": 192,
          "midi": 40,
          "name": "E2",
          "ticks": 103296,
          "time": 168.125,
          "velocity": 0.2755905511811024
        },
        {
          "duration": 0.3125,
          "durationTicks": 192,
          "midi": 40,
          "name": "E2",
          "ticks": 103488,
          "time": 168.4375,
          "velocity": 0.2755905511811024
        },
        {
          "duration": 0.3125,
          "durationTicks": 192,
          "midi": 40,
          "name": "E2",
          "ticks": 103680,
          "time": 168.75,
          "velocity": 0.2755905511811024
        },
        {
          "duration": 0.3125,
          "durationTicks": 192,
          "midi": 40,
          "name": "E2",
          "ticks": 103872,
          "time": 169.0625,
          "velocity": 0.2755905511811024
        },
        {
          "duration": 0.625,
          "durationTicks": 384,
          "midi": 40,
          "name": "E2",
          "ticks": 104064,
          "time": 169.375,
          "velocity": 0.2755905511811024
        },
        {
          "duration": 0.3125,
          "durationTicks": 192,
          "midi": 40,
          "name": "E2",
          "ticks": 104448,
          "time": 170,
          "velocity": 0.2755905511811024
        },
        {
          "duration": 0.3125,
          "durationTicks": 192,
          "midi": 40,
          "name": "E2",
          "ticks": 104640,
          "time": 170.3125,
          "velocity": 0.2755905511811024
        },
        {
          "duration": 0.3125,
          "durationTicks": 192,
          "midi": 40,
          "name": "E2",
          "ticks": 104832,
          "time": 170.625,
          "velocity": 0.2755905511811024
        },
        {
          "duration": 0.3125,
          "durationTicks": 192,
          "midi": 40,
          "name": "E2",
          "ticks": 105024,
          "time": 170.9375,
          "velocity": 0.2755905511811024
        },
        {
          "duration": 0.3125,
          "durationTicks": 192,
          "midi": 40,
          "name": "E2",
          "ticks": 105216,
          "time": 171.25,
          "velocity": 0.2755905511811024
        },
        {
          "duration": 0.3125,
          "durationTicks": 192,
          "midi": 40,
          "name": "E2",
          "ticks": 105408,
          "time": 171.5625,
          "velocity": 0.2755905511811024
        },
        {
          "duration": 0.3125,
          "durationTicks": 192,
          "midi": 40,
          "name": "E2",
          "ticks": 105600,
          "time": 171.875,
          "velocity": 0.2755905511811024
        },
        {
          "duration": 0.3125,
          "durationTicks": 192,
          "midi": 40,
          "name": "E2",
          "ticks": 105792,
          "time": 172.1875,
          "velocity": 0.2755905511811024
        },
        {
          "duration": 0.3125,
          "durationTicks": 192,
          "midi": 40,
          "name": "E2",
          "ticks": 105984,
          "time": 172.5,
          "velocity": 0.2755905511811024
        },
        {
          "duration": 0.3125,
          "durationTicks": 192,
          "midi": 40,
          "name": "E2",
          "ticks": 106176,
          "time": 172.8125,
          "velocity": 0.2755905511811024
        },
        {
          "duration": 0.3125,
          "durationTicks": 192,
          "midi": 40,
          "name": "E2",
          "ticks": 106368,
          "time": 173.125,
          "velocity": 0.2755905511811024
        },
        {
          "duration": 0.3125,
          "durationTicks": 192,
          "midi": 40,
          "name": "E2",
          "ticks": 106560,
          "time": 173.4375,
          "velocity": 0.2755905511811024
        },
        {
          "duration": 0.3125,
          "durationTicks": 192,
          "midi": 40,
          "name": "E2",
          "ticks": 106752,
          "time": 173.75,
          "velocity": 0.2755905511811024
        },
        {
          "duration": 0.3125,
          "durationTicks": 192,
          "midi": 40,
          "name": "E2",
          "ticks": 106944,
          "time": 174.0625,
          "velocity": 0.2755905511811024
        },
        {
          "duration": 0.3125,
          "durationTicks": 192,
          "midi": 40,
          "name": "E2",
          "ticks": 107136,
          "time": 174.375,
          "velocity": 0.2755905511811024
        },
        {
          "duration": 0.3125,
          "durationTicks": 192,
          "midi": 40,
          "name": "E2",
          "ticks": 107328,
          "time": 174.6875,
          "velocity": 0.2755905511811024
        },
        {
          "duration": 0.3125,
          "durationTicks": 192,
          "midi": 40,
          "name": "E2",
          "ticks": 107520,
          "time": 175,
          "velocity": 0.2755905511811024
        },
        {
          "duration": 0.3125,
          "durationTicks": 192,
          "midi": 40,
          "name": "E2",
          "ticks": 107712,
          "time": 175.3125,
          "velocity": 0.2755905511811024
        },
        {
          "duration": 0.3125,
          "durationTicks": 192,
          "midi": 40,
          "name": "E2",
          "ticks": 107904,
          "time": 175.625,
          "velocity": 0.2755905511811024
        },
        {
          "duration": 0.3125,
          "durationTicks": 192,
          "midi": 40,
          "name": "E2",
          "ticks": 108096,
          "time": 175.9375,
          "velocity": 0.2755905511811024
        },
        {
          "duration": 0.3125,
          "durationTicks": 192,
          "midi": 40,
          "name": "E2",
          "ticks": 108288,
          "time": 176.25,
          "velocity": 0.2755905511811024
        },
        {
          "duration": 0.3125,
          "durationTicks": 192,
          "midi": 40,
          "name": "E2",
          "ticks": 108480,
          "time": 176.5625,
          "velocity": 0.2755905511811024
        },
        {
          "duration": 0.3125,
          "durationTicks": 192,
          "midi": 40,
          "name": "E2",
          "ticks": 108672,
          "time": 176.875,
          "velocity": 0.2755905511811024
        },
        {
          "duration": 0.3125,
          "durationTicks": 192,
          "midi": 40,
          "name": "E2",
          "ticks": 108864,
          "time": 177.1875,
          "velocity": 0.2755905511811024
        },
        {
          "duration": 0.3125,
          "durationTicks": 192,
          "midi": 40,
          "name": "E2",
          "ticks": 109056,
          "time": 177.5,
          "velocity": 0.2755905511811024
        },
        {
          "duration": 0.3125,
          "durationTicks": 192,
          "midi": 40,
          "name": "E2",
          "ticks": 109248,
          "time": 177.8125,
          "velocity": 0.2755905511811024
        },
        {
          "duration": 0.3125,
          "durationTicks": 192,
          "midi": 40,
          "name": "E2",
          "ticks": 109440,
          "time": 178.125,
          "velocity": 0.2755905511811024
        },
        {
          "duration": 0.3125,
          "durationTicks": 192,
          "midi": 40,
          "name": "E2",
          "ticks": 109632,
          "time": 178.4375,
          "velocity": 0.2755905511811024
        },
        {
          "duration": 0.3125,
          "durationTicks": 192,
          "midi": 40,
          "name": "E2",
          "ticks": 109824,
          "time": 178.75,
          "velocity": 0.2755905511811024
        },
        {
          "duration": 0.3125,
          "durationTicks": 192,
          "midi": 40,
          "name": "E2",
          "ticks": 110016,
          "time": 179.0625,
          "velocity": 0.2755905511811024
        },
        {
          "duration": 0.9375,
          "durationTicks": 576,
          "midi": 40,
          "name": "E2",
          "ticks": 110208,
          "time": 179.375,
          "velocity": 0.2755905511811024
        },
        {
          "duration": 0.15625,
          "durationTicks": 96,
          "midi": 60,
          "name": "C4",
          "ticks": 110784,
          "time": 180.3125,
          "velocity": 0.2755905511811024
        },
        {
          "duration": 0.46875,
          "durationTicks": 288,
          "midi": 60,
          "name": "C4",
          "ticks": 110880,
          "time": 180.46875,
          "velocity": 0.2047244094488189
        },
        {
          "duration": 0.15625,
          "durationTicks": 96,
          "midi": 60,
          "name": "C4",
          "ticks": 111168,
          "time": 180.9375,
          "velocity": 0.2755905511811024
        },
        {
          "duration": 0.46875,
          "durationTicks": 288,
          "midi": 60,
          "name": "C4",
          "ticks": 111264,
          "time": 181.09375,
          "velocity": 0.2047244094488189
        },
        {
          "duration": 0.15625,
          "durationTicks": 96,
          "midi": 60,
          "name": "C4",
          "ticks": 111552,
          "time": 181.5625,
          "velocity": 0.2755905511811024
        },
        {
          "duration": 0.46875,
          "durationTicks": 288,
          "midi": 60,
          "name": "C4",
          "ticks": 111648,
          "time": 181.71875,
          "velocity": 0.2047244094488189
        },
        {
          "duration": 0.15625,
          "durationTicks": 96,
          "midi": 60,
          "name": "C4",
          "ticks": 111936,
          "time": 182.1875,
          "velocity": 0.2755905511811024
        },
        {
          "duration": 0.46875,
          "durationTicks": 288,
          "midi": 60,
          "name": "C4",
          "ticks": 112032,
          "time": 182.34375,
          "velocity": 0.2047244094488189
        },
        {
          "duration": 0.15625,
          "durationTicks": 96,
          "midi": 60,
          "name": "C4",
          "ticks": 112320,
          "time": 182.8125,
          "velocity": 0.2755905511811024
        },
        {
          "duration": 0.46875,
          "durationTicks": 288,
          "midi": 60,
          "name": "C4",
          "ticks": 112416,
          "time": 182.96875,
          "velocity": 0.2047244094488189
        },
        {
          "duration": 0.15625,
          "durationTicks": 96,
          "midi": 60,
          "name": "C4",
          "ticks": 112704,
          "time": 183.4375,
          "velocity": 0.2755905511811024
        },
        {
          "duration": 0.46875,
          "durationTicks": 288,
          "midi": 60,
          "name": "C4",
          "ticks": 112800,
          "time": 183.59375,
          "velocity": 0.2047244094488189
        },
        {
          "duration": 0.15625,
          "durationTicks": 96,
          "midi": 60,
          "name": "C4",
          "ticks": 113088,
          "time": 184.0625,
          "velocity": 0.2755905511811024
        },
        {
          "duration": 0.46875,
          "durationTicks": 288,
          "midi": 60,
          "name": "C4",
          "ticks": 113184,
          "time": 184.21875,
          "velocity": 0.2047244094488189
        },
        {
          "duration": 0.15625,
          "durationTicks": 96,
          "midi": 60,
          "name": "C4",
          "ticks": 113472,
          "time": 184.6875,
          "velocity": 0.2755905511811024
        },
        {
          "duration": 0.46875,
          "durationTicks": 288,
          "midi": 60,
          "name": "C4",
          "ticks": 113568,
          "time": 184.84375,
          "velocity": 0.2047244094488189
        },
        {
          "duration": 0.15625,
          "durationTicks": 96,
          "midi": 60,
          "name": "C4",
          "ticks": 113856,
          "time": 185.3125,
          "velocity": 0.2755905511811024
        },
        {
          "duration": 0.46875,
          "durationTicks": 288,
          "midi": 60,
          "name": "C4",
          "ticks": 113952,
          "time": 185.46875,
          "velocity": 0.2047244094488189
        },
        {
          "duration": 0.15625,
          "durationTicks": 96,
          "midi": 60,
          "name": "C4",
          "ticks": 114240,
          "time": 185.9375,
          "velocity": 0.2755905511811024
        },
        {
          "duration": 0.46875,
          "durationTicks": 288,
          "midi": 60,
          "name": "C4",
          "ticks": 114336,
          "time": 186.09375,
          "velocity": 0.2047244094488189
        },
        {
          "duration": 0.15625,
          "durationTicks": 96,
          "midi": 60,
          "name": "C4",
          "ticks": 114624,
          "time": 186.5625,
          "velocity": 0.2755905511811024
        },
        {
          "duration": 0.46875,
          "durationTicks": 288,
          "midi": 60,
          "name": "C4",
          "ticks": 114720,
          "time": 186.71875,
          "velocity": 0.2047244094488189
        },
        {
          "duration": 0.15625,
          "durationTicks": 96,
          "midi": 60,
          "name": "C4",
          "ticks": 115008,
          "time": 187.1875,
          "velocity": 0.2755905511811024
        },
        {
          "duration": 0.46875,
          "durationTicks": 288,
          "midi": 60,
          "name": "C4",
          "ticks": 115104,
          "time": 187.34375,
          "velocity": 0.2047244094488189
        },
        {
          "duration": 0.15625,
          "durationTicks": 96,
          "midi": 60,
          "name": "C4",
          "ticks": 115392,
          "time": 187.8125,
          "velocity": 0.2755905511811024
        },
        {
          "duration": 0.46875,
          "durationTicks": 288,
          "midi": 60,
          "name": "C4",
          "ticks": 115488,
          "time": 187.96875,
          "velocity": 0.2047244094488189
        },
        {
          "duration": 0.15625,
          "durationTicks": 96,
          "midi": 60,
          "name": "C4",
          "ticks": 115776,
          "time": 188.4375,
          "velocity": 0.2755905511811024
        },
        {
          "duration": 0.46875,
          "durationTicks": 288,
          "midi": 60,
          "name": "C4",
          "ticks": 115872,
          "time": 188.59375,
          "velocity": 0.2047244094488189
        },
        {
          "duration": 0.15625,
          "durationTicks": 96,
          "midi": 60,
          "name": "C4",
          "ticks": 116160,
          "time": 189.0625,
          "velocity": 0.2755905511811024
        },
        {
          "duration": 0.46875,
          "durationTicks": 288,
          "midi": 60,
          "name": "C4",
          "ticks": 116256,
          "time": 189.21875,
          "velocity": 0.2047244094488189
        },
        {
          "duration": 0.15625,
          "durationTicks": 96,
          "midi": 60,
          "name": "C4",
          "ticks": 116544,
          "time": 189.6875,
          "velocity": 0.2755905511811024
        },
        {
          "duration": 0.46875,
          "durationTicks": 288,
          "midi": 60,
          "name": "C4",
          "ticks": 116640,
          "time": 189.84375,
          "velocity": 0.2047244094488189
        },
        {
          "duration": 0.15625,
          "durationTicks": 96,
          "midi": 60,
          "name": "C4",
          "ticks": 116928,
          "time": 190.3125,
          "velocity": 0.2755905511811024
        },
        {
          "duration": 0.46875,
          "durationTicks": 288,
          "midi": 60,
          "name": "C4",
          "ticks": 117024,
          "time": 190.46875,
          "velocity": 0.2047244094488189
        },
        {
          "duration": 0.15625,
          "durationTicks": 96,
          "midi": 60,
          "name": "C4",
          "ticks": 117312,
          "time": 190.9375,
          "velocity": 0.2755905511811024
        },
        {
          "duration": 0.46875,
          "durationTicks": 288,
          "midi": 60,
          "name": "C4",
          "ticks": 117408,
          "time": 191.09375,
          "velocity": 0.2047244094488189
        },
        {
          "duration": 0.15625,
          "durationTicks": 96,
          "midi": 60,
          "name": "C4",
          "ticks": 117696,
          "time": 191.5625,
          "velocity": 0.2755905511811024
        },
        {
          "duration": 0.46875,
          "durationTicks": 288,
          "midi": 60,
          "name": "C4",
          "ticks": 117792,
          "time": 191.71875,
          "velocity": 0.2047244094488189
        },
        {
          "duration": 0.15625,
          "durationTicks": 96,
          "midi": 60,
          "name": "C4",
          "ticks": 118080,
          "time": 192.1875,
          "velocity": 0.2755905511811024
        },
        {
          "duration": 0.46875,
          "durationTicks": 288,
          "midi": 60,
          "name": "C4",
          "ticks": 118176,
          "time": 192.34375,
          "velocity": 0.2047244094488189
        },
        {
          "duration": 0.15625,
          "durationTicks": 96,
          "midi": 60,
          "name": "C4",
          "ticks": 118464,
          "time": 192.8125,
          "velocity": 0.2755905511811024
        },
        {
          "duration": 0.46875,
          "durationTicks": 288,
          "midi": 60,
          "name": "C4",
          "ticks": 118560,
          "time": 192.96875,
          "velocity": 0.2047244094488189
        },
        {
          "duration": 0.15625,
          "durationTicks": 96,
          "midi": 60,
          "name": "C4",
          "ticks": 118848,
          "time": 193.4375,
          "velocity": 0.2755905511811024
        },
        {
          "duration": 0.46875,
          "durationTicks": 288,
          "midi": 60,
          "name": "C4",
          "ticks": 118944,
          "time": 193.59375,
          "velocity": 0.2047244094488189
        },
        {
          "duration": 0.15625,
          "durationTicks": 96,
          "midi": 60,
          "name": "C4",
          "ticks": 119232,
          "time": 194.0625,
          "velocity": 0.2755905511811024
        },
        {
          "duration": 0.46875,
          "durationTicks": 288,
          "midi": 60,
          "name": "C4",
          "ticks": 119328,
          "time": 194.21875,
          "velocity": 0.2047244094488189
        },
        {
          "duration": 0.15625,
          "durationTicks": 96,
          "midi": 60,
          "name": "C4",
          "ticks": 119616,
          "time": 194.6875,
          "velocity": 0.2755905511811024
        },
        {
          "duration": 0.46875,
          "durationTicks": 288,
          "midi": 60,
          "name": "C4",
          "ticks": 119712,
          "time": 194.84375,
          "velocity": 0.2047244094488189
        },
        {
          "duration": 0.15625,
          "durationTicks": 96,
          "midi": 60,
          "name": "C4",
          "ticks": 120000,
          "time": 195.3125,
          "velocity": 0.2755905511811024
        },
        {
          "duration": 0.46875,
          "durationTicks": 288,
          "midi": 60,
          "name": "C4",
          "ticks": 120096,
          "time": 195.46875,
          "velocity": 0.2047244094488189
        },
        {
          "duration": 0.15625,
          "durationTicks": 96,
          "midi": 60,
          "name": "C4",
          "ticks": 120384,
          "time": 195.9375,
          "velocity": 0.2755905511811024
        },
        {
          "duration": 0.46875,
          "durationTicks": 288,
          "midi": 60,
          "name": "C4",
          "ticks": 120480,
          "time": 196.09375,
          "velocity": 0.2047244094488189
        },
        {
          "duration": 0.15625,
          "durationTicks": 96,
          "midi": 60,
          "name": "C4",
          "ticks": 120768,
          "time": 196.5625,
          "velocity": 0.2755905511811024
        },
        {
          "duration": 0.46875,
          "durationTicks": 288,
          "midi": 60,
          "name": "C4",
          "ticks": 120864,
          "time": 196.71875,
          "velocity": 0.2047244094488189
        },
        {
          "duration": 0.15625,
          "durationTicks": 96,
          "midi": 60,
          "name": "C4",
          "ticks": 121152,
          "time": 197.1875,
          "velocity": 0.2755905511811024
        },
        {
          "duration": 0.46875,
          "durationTicks": 288,
          "midi": 60,
          "name": "C4",
          "ticks": 121248,
          "time": 197.34375,
          "velocity": 0.2047244094488189
        },
        {
          "duration": 0.15625,
          "durationTicks": 96,
          "midi": 60,
          "name": "C4",
          "ticks": 121536,
          "time": 197.8125,
          "velocity": 0.2755905511811024
        },
        {
          "duration": 0.46875,
          "durationTicks": 288,
          "midi": 60,
          "name": "C4",
          "ticks": 121632,
          "time": 197.96875,
          "velocity": 0.2047244094488189
        },
        {
          "duration": 0.15625,
          "durationTicks": 96,
          "midi": 60,
          "name": "C4",
          "ticks": 121920,
          "time": 198.4375,
          "velocity": 0.2755905511811024
        },
        {
          "duration": 0.46875,
          "durationTicks": 288,
          "midi": 60,
          "name": "C4",
          "ticks": 122016,
          "time": 198.59375,
          "velocity": 0.2047244094488189
        },
        {
          "duration": 0.15625,
          "durationTicks": 96,
          "midi": 60,
          "name": "C4",
          "ticks": 122304,
          "time": 199.0625,
          "velocity": 0.2755905511811024
        },
        {
          "duration": 0.46875,
          "durationTicks": 288,
          "midi": 60,
          "name": "C4",
          "ticks": 122400,
          "time": 199.21875,
          "velocity": 0.2047244094488189
        },
        {
          "duration": 0.15625,
          "durationTicks": 96,
          "midi": 60,
          "name": "C4",
          "ticks": 122688,
          "time": 199.6875,
          "velocity": 0.2755905511811024
        },
        {
          "duration": 0.15625,
          "durationTicks": 96,
          "midi": 60,
          "name": "C4",
          "ticks": 122784,
          "time": 199.84375,
          "velocity": 0.2047244094488189
        },
        {
          "duration": 0.15625,
          "durationTicks": 96,
          "midi": 60,
          "name": "C4",
          "ticks": 136128,
          "time": 221.5625,
          "velocity": 0.03937007874015748
        },
        {
          "duration": 0.46875,
          "durationTicks": 288,
          "midi": 60,
          "name": "C4",
          "ticks": 136224,
          "time": 221.71875,
          "velocity": 0.031496062992125984
        },
        {
          "duration": 0.15625,
          "durationTicks": 96,
          "midi": 60,
          "name": "C4",
          "ticks": 136512,
          "time": 222.1875,
          "velocity": 0.06299212598425197
        },
        {
          "duration": 0.46875,
          "durationTicks": 288,
          "midi": 60,
          "name": "C4",
          "ticks": 136608,
          "time": 222.34375,
          "velocity": 0.03937007874015748
        },
        {
          "duration": 0.15625,
          "durationTicks": 96,
          "midi": 60,
          "name": "C4",
          "ticks": 136896,
          "time": 222.8125,
          "velocity": 0.08661417322834646
        },
        {
          "duration": 0.46875,
          "durationTicks": 288,
          "midi": 60,
          "name": "C4",
          "ticks": 136992,
          "time": 222.96875,
          "velocity": 0.06299212598425197
        },
        {
          "duration": 0.15625,
          "durationTicks": 96,
          "midi": 60,
          "name": "C4",
          "ticks": 137280,
          "time": 223.4375,
          "velocity": 0.11023622047244094
        },
        {
          "duration": 0.46875,
          "durationTicks": 288,
          "midi": 60,
          "name": "C4",
          "ticks": 137376,
          "time": 223.59375,
          "velocity": 0.07874015748031496
        },
        {
          "duration": 0.15625,
          "durationTicks": 96,
          "midi": 60,
          "name": "C4",
          "ticks": 137664,
          "time": 224.0625,
          "velocity": 0.13385826771653545
        },
        {
          "duration": 0.46875,
          "durationTicks": 288,
          "midi": 60,
          "name": "C4",
          "ticks": 137760,
          "time": 224.21875,
          "velocity": 0.11023622047244094
        },
        {
          "duration": 0.15625,
          "durationTicks": 96,
          "midi": 60,
          "name": "C4",
          "ticks": 138048,
          "time": 224.6875,
          "velocity": 0.1889763779527559
        },
        {
          "duration": 45.46875,
          "durationTicks": 27936,
          "midi": 60,
          "name": "C4",
          "ticks": 138144,
          "time": 224.84375,
          "velocity": 0.13385826771653545
        },
        {
          "duration": 0.3125,
          "durationTicks": 192,
          "midi": 40,
          "name": "E2",
          "ticks": 141312,
          "time": 230,
          "velocity": 0.13385826771653545
        },
        {
          "duration": 0.3125,
          "durationTicks": 192,
          "midi": 40,
          "name": "E2",
          "ticks": 141504,
          "time": 230.3125,
          "velocity": 0.2755905511811024
        },
        {
          "duration": 0.3125,
          "durationTicks": 192,
          "midi": 40,
          "name": "E2",
          "ticks": 141696,
          "time": 230.625,
          "velocity": 0.2755905511811024
        },
        {
          "duration": 0.3125,
          "durationTicks": 192,
          "midi": 40,
          "name": "E2",
          "ticks": 141888,
          "time": 230.9375,
          "velocity": 0.2755905511811024
        },
        {
          "duration": 0.3125,
          "durationTicks": 192,
          "midi": 40,
          "name": "E2",
          "ticks": 142080,
          "time": 231.25,
          "velocity": 0.2755905511811024
        },
        {
          "duration": 0.3125,
          "durationTicks": 192,
          "midi": 40,
          "name": "E2",
          "ticks": 142272,
          "time": 231.5625,
          "velocity": 0.2755905511811024
        },
        {
          "duration": 0.3125,
          "durationTicks": 192,
          "midi": 40,
          "name": "E2",
          "ticks": 142464,
          "time": 231.875,
          "velocity": 0.2755905511811024
        },
        {
          "duration": 0.3125,
          "durationTicks": 192,
          "midi": 40,
          "name": "E2",
          "ticks": 142656,
          "time": 232.1875,
          "velocity": 0.2755905511811024
        },
        {
          "duration": 0.3125,
          "durationTicks": 192,
          "midi": 40,
          "name": "E2",
          "ticks": 142848,
          "time": 232.5,
          "velocity": 0.2755905511811024
        },
        {
          "duration": 0.3125,
          "durationTicks": 192,
          "midi": 40,
          "name": "E2",
          "ticks": 143040,
          "time": 232.8125,
          "velocity": 0.2755905511811024
        },
        {
          "duration": 0.3125,
          "durationTicks": 192,
          "midi": 40,
          "name": "E2",
          "ticks": 143232,
          "time": 233.125,
          "velocity": 0.2755905511811024
        },
        {
          "duration": 0.3125,
          "durationTicks": 192,
          "midi": 40,
          "name": "E2",
          "ticks": 143424,
          "time": 233.4375,
          "velocity": 0.2755905511811024
        },
        {
          "duration": 0.3125,
          "durationTicks": 192,
          "midi": 40,
          "name": "E2",
          "ticks": 143616,
          "time": 233.75,
          "velocity": 0.2755905511811024
        },
        {
          "duration": 0.3125,
          "durationTicks": 192,
          "midi": 40,
          "name": "E2",
          "ticks": 143808,
          "time": 234.0625,
          "velocity": 0.2755905511811024
        },
        {
          "duration": 0.3125,
          "durationTicks": 192,
          "midi": 40,
          "name": "E2",
          "ticks": 144000,
          "time": 234.375,
          "velocity": 0.2755905511811024
        },
        {
          "duration": 0.3125,
          "durationTicks": 192,
          "midi": 40,
          "name": "E2",
          "ticks": 144192,
          "time": 234.6875,
          "velocity": 0.2755905511811024
        },
        {
          "duration": 0.3125,
          "durationTicks": 192,
          "midi": 40,
          "name": "E2",
          "ticks": 144384,
          "time": 235,
          "velocity": 0.2755905511811024
        },
        {
          "duration": 0.3125,
          "durationTicks": 192,
          "midi": 40,
          "name": "E2",
          "ticks": 144576,
          "time": 235.3125,
          "velocity": 0.2755905511811024
        },
        {
          "duration": 0.3125,
          "durationTicks": 192,
          "midi": 40,
          "name": "E2",
          "ticks": 144768,
          "time": 235.625,
          "velocity": 0.2755905511811024
        },
        {
          "duration": 0.3125,
          "durationTicks": 192,
          "midi": 40,
          "name": "E2",
          "ticks": 144960,
          "time": 235.9375,
          "velocity": 0.2755905511811024
        },
        {
          "duration": 0.3125,
          "durationTicks": 192,
          "midi": 40,
          "name": "E2",
          "ticks": 145152,
          "time": 236.25,
          "velocity": 0.2755905511811024
        },
        {
          "duration": 0.3125,
          "durationTicks": 192,
          "midi": 40,
          "name": "E2",
          "ticks": 145344,
          "time": 236.5625,
          "velocity": 0.2755905511811024
        },
        {
          "duration": 0.3125,
          "durationTicks": 192,
          "midi": 40,
          "name": "E2",
          "ticks": 145536,
          "time": 236.875,
          "velocity": 0.2755905511811024
        },
        {
          "duration": 0.3125,
          "durationTicks": 192,
          "midi": 40,
          "name": "E2",
          "ticks": 145728,
          "time": 237.1875,
          "velocity": 0.2755905511811024
        },
        {
          "duration": 0.3125,
          "durationTicks": 192,
          "midi": 40,
          "name": "E2",
          "ticks": 145920,
          "time": 237.5,
          "velocity": 0.2755905511811024
        },
        {
          "duration": 0.3125,
          "durationTicks": 192,
          "midi": 40,
          "name": "E2",
          "ticks": 146112,
          "time": 237.8125,
          "velocity": 0.2755905511811024
        },
        {
          "duration": 0.3125,
          "durationTicks": 192,
          "midi": 40,
          "name": "E2",
          "ticks": 146304,
          "time": 238.125,
          "velocity": 0.2755905511811024
        },
        {
          "duration": 0.3125,
          "durationTicks": 192,
          "midi": 40,
          "name": "E2",
          "ticks": 146496,
          "time": 238.4375,
          "velocity": 0.2755905511811024
        },
        {
          "duration": 0.3125,
          "durationTicks": 192,
          "midi": 40,
          "name": "E2",
          "ticks": 146688,
          "time": 238.75,
          "velocity": 0.2755905511811024
        },
        {
          "duration": 0.3125,
          "durationTicks": 192,
          "midi": 40,
          "name": "E2",
          "ticks": 146880,
          "time": 239.0625,
          "velocity": 0.2755905511811024
        },
        {
          "duration": 0.3125,
          "durationTicks": 192,
          "midi": 40,
          "name": "E2",
          "ticks": 147072,
          "time": 239.375,
          "velocity": 0.2755905511811024
        },
        {
          "duration": 0.3125,
          "durationTicks": 192,
          "midi": 40,
          "name": "E2",
          "ticks": 147264,
          "time": 239.6875,
          "velocity": 0.2755905511811024
        },
        {
          "duration": 0.3125,
          "durationTicks": 192,
          "midi": 40,
          "name": "E2",
          "ticks": 147456,
          "time": 240,
          "velocity": 0.2755905511811024
        },
        {
          "duration": 0.3125,
          "durationTicks": 192,
          "midi": 40,
          "name": "E2",
          "ticks": 147648,
          "time": 240.3125,
          "velocity": 0.2755905511811024
        },
        {
          "duration": 0.3125,
          "durationTicks": 192,
          "midi": 40,
          "name": "E2",
          "ticks": 147840,
          "time": 240.625,
          "velocity": 0.2755905511811024
        },
        {
          "duration": 0.3125,
          "durationTicks": 192,
          "midi": 40,
          "name": "E2",
          "ticks": 148032,
          "time": 240.9375,
          "velocity": 0.2755905511811024
        },
        {
          "duration": 0.3125,
          "durationTicks": 192,
          "midi": 40,
          "name": "E2",
          "ticks": 148224,
          "time": 241.25,
          "velocity": 0.2755905511811024
        },
        {
          "duration": 0.3125,
          "durationTicks": 192,
          "midi": 40,
          "name": "E2",
          "ticks": 148416,
          "time": 241.5625,
          "velocity": 0.2755905511811024
        },
        {
          "duration": 0.3125,
          "durationTicks": 192,
          "midi": 40,
          "name": "E2",
          "ticks": 148608,
          "time": 241.875,
          "velocity": 0.2755905511811024
        },
        {
          "duration": 0.3125,
          "durationTicks": 192,
          "midi": 40,
          "name": "E2",
          "ticks": 148800,
          "time": 242.1875,
          "velocity": 0.2755905511811024
        },
        {
          "duration": 0.3125,
          "durationTicks": 192,
          "midi": 40,
          "name": "E2",
          "ticks": 148992,
          "time": 242.5,
          "velocity": 0.2755905511811024
        },
        {
          "duration": 0.3125,
          "durationTicks": 192,
          "midi": 40,
          "name": "E2",
          "ticks": 149184,
          "time": 242.8125,
          "velocity": 0.2755905511811024
        },
        {
          "duration": 0.3125,
          "durationTicks": 192,
          "midi": 40,
          "name": "E2",
          "ticks": 149376,
          "time": 243.125,
          "velocity": 0.2755905511811024
        },
        {
          "duration": 0.3125,
          "durationTicks": 192,
          "midi": 40,
          "name": "E2",
          "ticks": 149568,
          "time": 243.4375,
          "velocity": 0.2755905511811024
        },
        {
          "duration": 0.3125,
          "durationTicks": 192,
          "midi": 40,
          "name": "E2",
          "ticks": 149760,
          "time": 243.75,
          "velocity": 0.2755905511811024
        },
        {
          "duration": 0.3125,
          "durationTicks": 192,
          "midi": 40,
          "name": "E2",
          "ticks": 149952,
          "time": 244.0625,
          "velocity": 0.2755905511811024
        },
        {
          "duration": 0.3125,
          "durationTicks": 192,
          "midi": 40,
          "name": "E2",
          "ticks": 150144,
          "time": 244.375,
          "velocity": 0.2755905511811024
        },
        {
          "duration": 0.3125,
          "durationTicks": 192,
          "midi": 40,
          "name": "E2",
          "ticks": 150336,
          "time": 244.6875,
          "velocity": 0.2755905511811024
        },
        {
          "duration": 0.3125,
          "durationTicks": 192,
          "midi": 40,
          "name": "E2",
          "ticks": 150528,
          "time": 245,
          "velocity": 0.2755905511811024
        },
        {
          "duration": 0.3125,
          "durationTicks": 192,
          "midi": 40,
          "name": "E2",
          "ticks": 150720,
          "time": 245.3125,
          "velocity": 0.2755905511811024
        },
        {
          "duration": 0.3125,
          "durationTicks": 192,
          "midi": 40,
          "name": "E2",
          "ticks": 150912,
          "time": 245.625,
          "velocity": 0.2755905511811024
        },
        {
          "duration": 0.3125,
          "durationTicks": 192,
          "midi": 40,
          "name": "E2",
          "ticks": 151104,
          "time": 245.9375,
          "velocity": 0.2755905511811024
        },
        {
          "duration": 0.3125,
          "durationTicks": 192,
          "midi": 40,
          "name": "E2",
          "ticks": 151296,
          "time": 246.25,
          "velocity": 0.2755905511811024
        },
        {
          "duration": 0.3125,
          "durationTicks": 192,
          "midi": 40,
          "name": "E2",
          "ticks": 151488,
          "time": 246.5625,
          "velocity": 0.2755905511811024
        },
        {
          "duration": 0.3125,
          "durationTicks": 192,
          "midi": 40,
          "name": "E2",
          "ticks": 151680,
          "time": 246.875,
          "velocity": 0.2755905511811024
        },
        {
          "duration": 0.3125,
          "durationTicks": 192,
          "midi": 40,
          "name": "E2",
          "ticks": 151872,
          "time": 247.1875,
          "velocity": 0.2755905511811024
        },
        {
          "duration": 0.3125,
          "durationTicks": 192,
          "midi": 40,
          "name": "E2",
          "ticks": 152064,
          "time": 247.5,
          "velocity": 0.2755905511811024
        },
        {
          "duration": 0.3125,
          "durationTicks": 192,
          "midi": 40,
          "name": "E2",
          "ticks": 152256,
          "time": 247.8125,
          "velocity": 0.2755905511811024
        },
        {
          "duration": 0.3125,
          "durationTicks": 192,
          "midi": 40,
          "name": "E2",
          "ticks": 152448,
          "time": 248.125,
          "velocity": 0.2755905511811024
        },
        {
          "duration": 0.3125,
          "durationTicks": 192,
          "midi": 40,
          "name": "E2",
          "ticks": 152640,
          "time": 248.4375,
          "velocity": 0.2755905511811024
        },
        {
          "duration": 0.3125,
          "durationTicks": 192,
          "midi": 40,
          "name": "E2",
          "ticks": 152832,
          "time": 248.75,
          "velocity": 0.2755905511811024
        },
        {
          "duration": 0.3125,
          "durationTicks": 192,
          "midi": 40,
          "name": "E2",
          "ticks": 153024,
          "time": 249.0625,
          "velocity": 0.2755905511811024
        },
        {
          "duration": 0.3125,
          "durationTicks": 192,
          "midi": 40,
          "name": "E2",
          "ticks": 153216,
          "time": 249.375,
          "velocity": 0.2755905511811024
        },
        {
          "duration": 0.3125,
          "durationTicks": 192,
          "midi": 40,
          "name": "E2",
          "ticks": 153408,
          "time": 249.6875,
          "velocity": 0.2755905511811024
        },
        {
          "duration": 0.3125,
          "durationTicks": 192,
          "midi": 40,
          "name": "E2",
          "ticks": 153600,
          "time": 250,
          "velocity": 0.2755905511811024
        },
        {
          "duration": 0.3125,
          "durationTicks": 192,
          "midi": 40,
          "name": "E2",
          "ticks": 153792,
          "time": 250.3125,
          "velocity": 0.2755905511811024
        },
        {
          "duration": 0.3125,
          "durationTicks": 192,
          "midi": 40,
          "name": "E2",
          "ticks": 153984,
          "time": 250.625,
          "velocity": 0.2755905511811024
        },
        {
          "duration": 0.3125,
          "durationTicks": 192,
          "midi": 40,
          "name": "E2",
          "ticks": 154176,
          "time": 250.9375,
          "velocity": 0.2755905511811024
        },
        {
          "duration": 0.3125,
          "durationTicks": 192,
          "midi": 40,
          "name": "E2",
          "ticks": 154368,
          "time": 251.25,
          "velocity": 0.2755905511811024
        },
        {
          "duration": 0.3125,
          "durationTicks": 192,
          "midi": 40,
          "name": "E2",
          "ticks": 154560,
          "time": 251.5625,
          "velocity": 0.2755905511811024
        },
        {
          "duration": 0.3125,
          "durationTicks": 192,
          "midi": 40,
          "name": "E2",
          "ticks": 154752,
          "time": 251.875,
          "velocity": 0.2755905511811024
        },
        {
          "duration": 0.3125,
          "durationTicks": 192,
          "midi": 40,
          "name": "E2",
          "ticks": 154944,
          "time": 252.1875,
          "velocity": 0.2755905511811024
        },
        {
          "duration": 0.3125,
          "durationTicks": 192,
          "midi": 40,
          "name": "E2",
          "ticks": 155136,
          "time": 252.5,
          "velocity": 0.2755905511811024
        },
        {
          "duration": 0.3125,
          "durationTicks": 192,
          "midi": 40,
          "name": "E2",
          "ticks": 155328,
          "time": 252.8125,
          "velocity": 0.2755905511811024
        },
        {
          "duration": 0.3125,
          "durationTicks": 192,
          "midi": 40,
          "name": "E2",
          "ticks": 155520,
          "time": 253.125,
          "velocity": 0.2755905511811024
        },
        {
          "duration": 0.3125,
          "durationTicks": 192,
          "midi": 40,
          "name": "E2",
          "ticks": 155712,
          "time": 253.4375,
          "velocity": 0.2755905511811024
        },
        {
          "duration": 0.3125,
          "durationTicks": 192,
          "midi": 40,
          "name": "E2",
          "ticks": 155904,
          "time": 253.75,
          "velocity": 0.2755905511811024
        },
        {
          "duration": 0.3125,
          "durationTicks": 192,
          "midi": 40,
          "name": "E2",
          "ticks": 156096,
          "time": 254.0625,
          "velocity": 0.2755905511811024
        },
        {
          "duration": 0.3125,
          "durationTicks": 192,
          "midi": 40,
          "name": "E2",
          "ticks": 156288,
          "time": 254.375,
          "velocity": 0.2755905511811024
        },
        {
          "duration": 0.3125,
          "durationTicks": 192,
          "midi": 40,
          "name": "E2",
          "ticks": 156480,
          "time": 254.6875,
          "velocity": 0.2755905511811024
        },
        {
          "duration": 0.3125,
          "durationTicks": 192,
          "midi": 40,
          "name": "E2",
          "ticks": 156672,
          "time": 255,
          "velocity": 0.2755905511811024
        },
        {
          "duration": 0.3125,
          "durationTicks": 192,
          "midi": 40,
          "name": "E2",
          "ticks": 156864,
          "time": 255.3125,
          "velocity": 0.2755905511811024
        },
        {
          "duration": 0.3125,
          "durationTicks": 192,
          "midi": 40,
          "name": "E2",
          "ticks": 157056,
          "time": 255.625,
          "velocity": 0.2755905511811024
        },
        {
          "duration": 0.3125,
          "durationTicks": 192,
          "midi": 40,
          "name": "E2",
          "ticks": 157248,
          "time": 255.9375,
          "velocity": 0.2755905511811024
        },
        {
          "duration": 0.3125,
          "durationTicks": 192,
          "midi": 40,
          "name": "E2",
          "ticks": 157440,
          "time": 256.25,
          "velocity": 0.2755905511811024
        },
        {
          "duration": 0.3125,
          "durationTicks": 192,
          "midi": 40,
          "name": "E2",
          "ticks": 157632,
          "time": 256.5625,
          "velocity": 0.2755905511811024
        },
        {
          "duration": 0.3125,
          "durationTicks": 192,
          "midi": 40,
          "name": "E2",
          "ticks": 157824,
          "time": 256.875,
          "velocity": 0.2755905511811024
        },
        {
          "duration": 0.3125,
          "durationTicks": 192,
          "midi": 40,
          "name": "E2",
          "ticks": 158016,
          "time": 257.1875,
          "velocity": 0.2755905511811024
        },
        {
          "duration": 0.3125,
          "durationTicks": 192,
          "midi": 40,
          "name": "E2",
          "ticks": 158208,
          "time": 257.5,
          "velocity": 0.2755905511811024
        },
        {
          "duration": 0.3125,
          "durationTicks": 192,
          "midi": 40,
          "name": "E2",
          "ticks": 158400,
          "time": 257.8125,
          "velocity": 0.2755905511811024
        },
        {
          "duration": 0.3125,
          "durationTicks": 192,
          "midi": 40,
          "name": "E2",
          "ticks": 158592,
          "time": 258.125,
          "velocity": 0.2755905511811024
        },
        {
          "duration": 0.3125,
          "durationTicks": 192,
          "midi": 40,
          "name": "E2",
          "ticks": 158784,
          "time": 258.4375,
          "velocity": 0.2755905511811024
        },
        {
          "duration": 0.3125,
          "durationTicks": 192,
          "midi": 40,
          "name": "E2",
          "ticks": 158976,
          "time": 258.75,
          "velocity": 0.2755905511811024
        },
        {
          "duration": 0.3125,
          "durationTicks": 192,
          "midi": 40,
          "name": "E2",
          "ticks": 159168,
          "time": 259.0625,
          "velocity": 0.2755905511811024
        },
        {
          "duration": 0.3125,
          "durationTicks": 192,
          "midi": 40,
          "name": "E2",
          "ticks": 159360,
          "time": 259.375,
          "velocity": 0.2755905511811024
        },
        {
          "duration": 0.3125,
          "durationTicks": 192,
          "midi": 40,
          "name": "E2",
          "ticks": 159552,
          "time": 259.6875,
          "velocity": 0.2755905511811024
        },
        {
          "duration": 0.3125,
          "durationTicks": 192,
          "midi": 40,
          "name": "E2",
          "ticks": 159744,
          "time": 260,
          "velocity": 0.2755905511811024
        },
        {
          "duration": 0.3125,
          "durationTicks": 192,
          "midi": 40,
          "name": "E2",
          "ticks": 159936,
          "time": 260.3125,
          "velocity": 0.2755905511811024
        },
        {
          "duration": 0.3125,
          "durationTicks": 192,
          "midi": 40,
          "name": "E2",
          "ticks": 160128,
          "time": 260.625,
          "velocity": 0.2755905511811024
        },
        {
          "duration": 0.3125,
          "durationTicks": 192,
          "midi": 40,
          "name": "E2",
          "ticks": 160320,
          "time": 260.9375,
          "velocity": 0.2755905511811024
        },
        {
          "duration": 0.3125,
          "durationTicks": 192,
          "midi": 40,
          "name": "E2",
          "ticks": 160512,
          "time": 261.25,
          "velocity": 0.2755905511811024
        },
        {
          "duration": 0.3125,
          "durationTicks": 192,
          "midi": 40,
          "name": "E2",
          "ticks": 160704,
          "time": 261.5625,
          "velocity": 0.2755905511811024
        },
        {
          "duration": 0.3125,
          "durationTicks": 192,
          "midi": 40,
          "name": "E2",
          "ticks": 160896,
          "time": 261.875,
          "velocity": 0.2755905511811024
        },
        {
          "duration": 0.3125,
          "durationTicks": 192,
          "midi": 40,
          "name": "E2",
          "ticks": 161088,
          "time": 262.1875,
          "velocity": 0.2755905511811024
        },
        {
          "duration": 0.3125,
          "durationTicks": 192,
          "midi": 40,
          "name": "E2",
          "ticks": 161280,
          "time": 262.5,
          "velocity": 0.2755905511811024
        },
        {
          "duration": 0.3125,
          "durationTicks": 192,
          "midi": 40,
          "name": "E2",
          "ticks": 161472,
          "time": 262.8125,
          "velocity": 0.2755905511811024
        },
        {
          "duration": 0.3125,
          "durationTicks": 192,
          "midi": 40,
          "name": "E2",
          "ticks": 161664,
          "time": 263.125,
          "velocity": 0.2755905511811024
        },
        {
          "duration": 0.3125,
          "durationTicks": 192,
          "midi": 40,
          "name": "E2",
          "ticks": 161856,
          "time": 263.4375,
          "velocity": 0.2755905511811024
        },
        {
          "duration": 0.3125,
          "durationTicks": 192,
          "midi": 40,
          "name": "E2",
          "ticks": 162048,
          "time": 263.75,
          "velocity": 0.2755905511811024
        },
        {
          "duration": 0.3125,
          "durationTicks": 192,
          "midi": 40,
          "name": "E2",
          "ticks": 162240,
          "time": 264.0625,
          "velocity": 0.2755905511811024
        },
        {
          "duration": 0.3125,
          "durationTicks": 192,
          "midi": 40,
          "name": "E2",
          "ticks": 162432,
          "time": 264.375,
          "velocity": 0.2755905511811024
        },
        {
          "duration": 0.3125,
          "durationTicks": 192,
          "midi": 40,
          "name": "E2",
          "ticks": 162624,
          "time": 264.6875,
          "velocity": 0.2755905511811024
        },
        {
          "duration": 0.3125,
          "durationTicks": 192,
          "midi": 40,
          "name": "E2",
          "ticks": 162816,
          "time": 265,
          "velocity": 0.2755905511811024
        },
        {
          "duration": 0.3125,
          "durationTicks": 192,
          "midi": 40,
          "name": "E2",
          "ticks": 163008,
          "time": 265.3125,
          "velocity": 0.2755905511811024
        },
        {
          "duration": 0.3125,
          "durationTicks": 192,
          "midi": 40,
          "name": "E2",
          "ticks": 163200,
          "time": 265.625,
          "velocity": 0.2755905511811024
        },
        {
          "duration": 0.3125,
          "durationTicks": 192,
          "midi": 40,
          "name": "E2",
          "ticks": 163392,
          "time": 265.9375,
          "velocity": 0.2755905511811024
        },
        {
          "duration": 0.3125,
          "durationTicks": 192,
          "midi": 40,
          "name": "E2",
          "ticks": 163584,
          "time": 266.25,
          "velocity": 0.2755905511811024
        },
        {
          "duration": 0.3125,
          "durationTicks": 192,
          "midi": 40,
          "name": "E2",
          "ticks": 163776,
          "time": 266.5625,
          "velocity": 0.2755905511811024
        },
        {
          "duration": 0.3125,
          "durationTicks": 192,
          "midi": 40,
          "name": "E2",
          "ticks": 163968,
          "time": 266.875,
          "velocity": 0.2755905511811024
        },
        {
          "duration": 0.3125,
          "durationTicks": 192,
          "midi": 40,
          "name": "E2",
          "ticks": 164160,
          "time": 267.1875,
          "velocity": 0.2755905511811024
        },
        {
          "duration": 0.3125,
          "durationTicks": 192,
          "midi": 40,
          "name": "E2",
          "ticks": 164352,
          "time": 267.5,
          "velocity": 0.2755905511811024
        },
        {
          "duration": 0.3125,
          "durationTicks": 192,
          "midi": 40,
          "name": "E2",
          "ticks": 164544,
          "time": 267.8125,
          "velocity": 0.2755905511811024
        },
        {
          "duration": 0.3125,
          "durationTicks": 192,
          "midi": 40,
          "name": "E2",
          "ticks": 164736,
          "time": 268.125,
          "velocity": 0.2755905511811024
        },
        {
          "duration": 0.3125,
          "durationTicks": 192,
          "midi": 40,
          "name": "E2",
          "ticks": 164928,
          "time": 268.4375,
          "velocity": 0.2755905511811024
        },
        {
          "duration": 0.3125,
          "durationTicks": 192,
          "midi": 40,
          "name": "E2",
          "ticks": 165120,
          "time": 268.75,
          "velocity": 0.2755905511811024
        },
        {
          "duration": 0.3125,
          "durationTicks": 192,
          "midi": 40,
          "name": "E2",
          "ticks": 165312,
          "time": 269.0625,
          "velocity": 0.2755905511811024
        },
        {
          "duration": 0.3125,
          "durationTicks": 192,
          "midi": 40,
          "name": "E2",
          "ticks": 165504,
          "time": 269.375,
          "velocity": 0.2755905511811024
        },
        {
          "duration": 0.625,
          "durationTicks": 384,
          "midi": 40,
          "name": "E2",
          "ticks": 165696,
          "time": 269.6875,
          "velocity": 0.2755905511811024
        },
        {
          "duration": 0.15625,
          "durationTicks": 96,
          "midi": 60,
          "name": "C4",
          "ticks": 166080,
          "time": 270.3125,
          "velocity": 0.2755905511811024
        },
        {
          "duration": 0.46875,
          "durationTicks": 288,
          "midi": 60,
          "name": "C4",
          "ticks": 166176,
          "time": 270.46875,
          "velocity": 0.2047244094488189
        },
        {
          "duration": 0.15625,
          "durationTicks": 96,
          "midi": 60,
          "name": "C4",
          "ticks": 166464,
          "time": 270.9375,
          "velocity": 0.2755905511811024
        },
        {
          "duration": 0.46875,
          "durationTicks": 288,
          "midi": 60,
          "name": "C4",
          "ticks": 166560,
          "time": 271.09375,
          "velocity": 0.2047244094488189
        },
        {
          "duration": 0.15625,
          "durationTicks": 96,
          "midi": 60,
          "name": "C4",
          "ticks": 166848,
          "time": 271.5625,
          "velocity": 0.2755905511811024
        },
        {
          "duration": 0.46875,
          "durationTicks": 288,
          "midi": 60,
          "name": "C4",
          "ticks": 166944,
          "time": 271.71875,
          "velocity": 0.2047244094488189
        },
        {
          "duration": 0.15625,
          "durationTicks": 96,
          "midi": 60,
          "name": "C4",
          "ticks": 167232,
          "time": 272.1875,
          "velocity": 0.2755905511811024
        },
        {
          "duration": 0.46875,
          "durationTicks": 288,
          "midi": 60,
          "name": "C4",
          "ticks": 167328,
          "time": 272.34375,
          "velocity": 0.2047244094488189
        },
        {
          "duration": 0.15625,
          "durationTicks": 96,
          "midi": 60,
          "name": "C4",
          "ticks": 167616,
          "time": 272.8125,
          "velocity": 0.2755905511811024
        },
        {
          "duration": 0.46875,
          "durationTicks": 288,
          "midi": 60,
          "name": "C4",
          "ticks": 167712,
          "time": 272.96875,
          "velocity": 0.2047244094488189
        },
        {
          "duration": 0.15625,
          "durationTicks": 96,
          "midi": 60,
          "name": "C4",
          "ticks": 168000,
          "time": 273.4375,
          "velocity": 0.2755905511811024
        },
        {
          "duration": 0.46875,
          "durationTicks": 288,
          "midi": 60,
          "name": "C4",
          "ticks": 168096,
          "time": 273.59375,
          "velocity": 0.2047244094488189
        },
        {
          "duration": 0.15625,
          "durationTicks": 96,
          "midi": 60,
          "name": "C4",
          "ticks": 168384,
          "time": 274.0625,
          "velocity": 0.2755905511811024
        },
        {
          "duration": 0.46875,
          "durationTicks": 288,
          "midi": 60,
          "name": "C4",
          "ticks": 168480,
          "time": 274.21875,
          "velocity": 0.2047244094488189
        },
        {
          "duration": 0.15625,
          "durationTicks": 96,
          "midi": 60,
          "name": "C4",
          "ticks": 168768,
          "time": 274.6875,
          "velocity": 0.2755905511811024
        },
        {
          "duration": 26.71875,
          "durationTicks": 16416,
          "midi": 60,
          "name": "C4",
          "ticks": 168864,
          "time": 274.84375,
          "velocity": 0.2047244094488189
        },
        {
          "duration": 0.3125,
          "durationTicks": 192,
          "midi": 40,
          "name": "E2",
          "ticks": 172032,
          "time": 280,
          "velocity": 0.2047244094488189
        },
        {
          "duration": 0.3125,
          "durationTicks": 192,
          "midi": 40,
          "name": "E2",
          "ticks": 172224,
          "time": 280.3125,
          "velocity": 0.2755905511811024
        },
        {
          "duration": 0.3125,
          "durationTicks": 192,
          "midi": 40,
          "name": "E2",
          "ticks": 172416,
          "time": 280.625,
          "velocity": 0.2755905511811024
        },
        {
          "duration": 0.3125,
          "durationTicks": 192,
          "midi": 40,
          "name": "E2",
          "ticks": 172608,
          "time": 280.9375,
          "velocity": 0.2755905511811024
        },
        {
          "duration": 0.3125,
          "durationTicks": 192,
          "midi": 40,
          "name": "E2",
          "ticks": 172800,
          "time": 281.25,
          "velocity": 0.2755905511811024
        },
        {
          "duration": 0.3125,
          "durationTicks": 192,
          "midi": 40,
          "name": "E2",
          "ticks": 172992,
          "time": 281.5625,
          "velocity": 0.2755905511811024
        },
        {
          "duration": 0.3125,
          "durationTicks": 192,
          "midi": 40,
          "name": "E2",
          "ticks": 173184,
          "time": 281.875,
          "velocity": 0.2755905511811024
        },
        {
          "duration": 0.3125,
          "durationTicks": 192,
          "midi": 40,
          "name": "E2",
          "ticks": 173376,
          "time": 282.1875,
          "velocity": 0.2755905511811024
        },
        {
          "duration": 0.3125,
          "durationTicks": 192,
          "midi": 40,
          "name": "E2",
          "ticks": 173568,
          "time": 282.5,
          "velocity": 0.2755905511811024
        },
        {
          "duration": 0.3125,
          "durationTicks": 192,
          "midi": 40,
          "name": "E2",
          "ticks": 173760,
          "time": 282.8125,
          "velocity": 0.2755905511811024
        },
        {
          "duration": 0.3125,
          "durationTicks": 192,
          "midi": 40,
          "name": "E2",
          "ticks": 173952,
          "time": 283.125,
          "velocity": 0.2755905511811024
        },
        {
          "duration": 0.3125,
          "durationTicks": 192,
          "midi": 40,
          "name": "E2",
          "ticks": 174144,
          "time": 283.4375,
          "velocity": 0.2755905511811024
        },
        {
          "duration": 0.3125,
          "durationTicks": 192,
          "midi": 40,
          "name": "E2",
          "ticks": 174336,
          "time": 283.75,
          "velocity": 0.2755905511811024
        },
        {
          "duration": 0.3125,
          "durationTicks": 192,
          "midi": 40,
          "name": "E2",
          "ticks": 174528,
          "time": 284.0625,
          "velocity": 0.2755905511811024
        },
        {
          "duration": 0.3125,
          "durationTicks": 192,
          "midi": 40,
          "name": "E2",
          "ticks": 174720,
          "time": 284.375,
          "velocity": 0.2755905511811024
        },
        {
          "duration": 0.3125,
          "durationTicks": 192,
          "midi": 40,
          "name": "E2",
          "ticks": 174912,
          "time": 284.6875,
          "velocity": 0.2755905511811024
        },
        {
          "duration": 0.3125,
          "durationTicks": 192,
          "midi": 40,
          "name": "E2",
          "ticks": 175104,
          "time": 285,
          "velocity": 0.2755905511811024
        },
        {
          "duration": 0.3125,
          "durationTicks": 192,
          "midi": 40,
          "name": "E2",
          "ticks": 175296,
          "time": 285.3125,
          "velocity": 0.2755905511811024
        },
        {
          "duration": 0.3125,
          "durationTicks": 192,
          "midi": 40,
          "name": "E2",
          "ticks": 175488,
          "time": 285.625,
          "velocity": 0.2755905511811024
        },
        {
          "duration": 0.3125,
          "durationTicks": 192,
          "midi": 40,
          "name": "E2",
          "ticks": 175680,
          "time": 285.9375,
          "velocity": 0.2755905511811024
        },
        {
          "duration": 0.3125,
          "durationTicks": 192,
          "midi": 40,
          "name": "E2",
          "ticks": 175872,
          "time": 286.25,
          "velocity": 0.2755905511811024
        },
        {
          "duration": 0.3125,
          "durationTicks": 192,
          "midi": 40,
          "name": "E2",
          "ticks": 176064,
          "time": 286.5625,
          "velocity": 0.2755905511811024
        },
        {
          "duration": 0.3125,
          "durationTicks": 192,
          "midi": 40,
          "name": "E2",
          "ticks": 176256,
          "time": 286.875,
          "velocity": 0.2755905511811024
        },
        {
          "duration": 0.3125,
          "durationTicks": 192,
          "midi": 40,
          "name": "E2",
          "ticks": 176448,
          "time": 287.1875,
          "velocity": 0.2755905511811024
        },
        {
          "duration": 0.3125,
          "durationTicks": 192,
          "midi": 40,
          "name": "E2",
          "ticks": 176640,
          "time": 287.5,
          "velocity": 0.2755905511811024
        },
        {
          "duration": 0.3125,
          "durationTicks": 192,
          "midi": 40,
          "name": "E2",
          "ticks": 176832,
          "time": 287.8125,
          "velocity": 0.2755905511811024
        },
        {
          "duration": 0.3125,
          "durationTicks": 192,
          "midi": 40,
          "name": "E2",
          "ticks": 177024,
          "time": 288.125,
          "velocity": 0.2755905511811024
        },
        {
          "duration": 0.3125,
          "durationTicks": 192,
          "midi": 40,
          "name": "E2",
          "ticks": 177216,
          "time": 288.4375,
          "velocity": 0.2755905511811024
        },
        {
          "duration": 0.3125,
          "durationTicks": 192,
          "midi": 40,
          "name": "E2",
          "ticks": 177408,
          "time": 288.75,
          "velocity": 0.2755905511811024
        },
        {
          "duration": 0.3125,
          "durationTicks": 192,
          "midi": 40,
          "name": "E2",
          "ticks": 177600,
          "time": 289.0625,
          "velocity": 0.2755905511811024
        },
        {
          "duration": 0.3125,
          "durationTicks": 192,
          "midi": 40,
          "name": "E2",
          "ticks": 177792,
          "time": 289.375,
          "velocity": 0.2755905511811024
        },
        {
          "duration": 0.3125,
          "durationTicks": 192,
          "midi": 40,
          "name": "E2",
          "ticks": 177984,
          "time": 289.6875,
          "velocity": 0.2755905511811024
        },
        {
          "duration": 0.3125,
          "durationTicks": 192,
          "midi": 40,
          "name": "E2",
          "ticks": 178176,
          "time": 290,
          "velocity": 0.2755905511811024
        },
        {
          "duration": 0.3125,
          "durationTicks": 192,
          "midi": 40,
          "name": "E2",
          "ticks": 178368,
          "time": 290.3125,
          "velocity": 0.2755905511811024
        },
        {
          "duration": 0.3125,
          "durationTicks": 192,
          "midi": 40,
          "name": "E2",
          "ticks": 178560,
          "time": 290.625,
          "velocity": 0.2755905511811024
        },
        {
          "duration": 0.3125,
          "durationTicks": 192,
          "midi": 40,
          "name": "E2",
          "ticks": 178752,
          "time": 290.9375,
          "velocity": 0.2755905511811024
        },
        {
          "duration": 0.3125,
          "durationTicks": 192,
          "midi": 40,
          "name": "E2",
          "ticks": 178944,
          "time": 291.25,
          "velocity": 0.2755905511811024
        },
        {
          "duration": 0.3125,
          "durationTicks": 192,
          "midi": 40,
          "name": "E2",
          "ticks": 179136,
          "time": 291.5625,
          "velocity": 0.2755905511811024
        },
        {
          "duration": 0.3125,
          "durationTicks": 192,
          "midi": 40,
          "name": "E2",
          "ticks": 179328,
          "time": 291.875,
          "velocity": 0.2755905511811024
        },
        {
          "duration": 0.3125,
          "durationTicks": 192,
          "midi": 40,
          "name": "E2",
          "ticks": 179520,
          "time": 292.1875,
          "velocity": 0.2755905511811024
        },
        {
          "duration": 0.3125,
          "durationTicks": 192,
          "midi": 40,
          "name": "E2",
          "ticks": 179712,
          "time": 292.5,
          "velocity": 0.2755905511811024
        },
        {
          "duration": 0.3125,
          "durationTicks": 192,
          "midi": 40,
          "name": "E2",
          "ticks": 179904,
          "time": 292.8125,
          "velocity": 0.2755905511811024
        },
        {
          "duration": 0.3125,
          "durationTicks": 192,
          "midi": 40,
          "name": "E2",
          "ticks": 180096,
          "time": 293.125,
          "velocity": 0.2755905511811024
        },
        {
          "duration": 0.3125,
          "durationTicks": 192,
          "midi": 40,
          "name": "E2",
          "ticks": 180288,
          "time": 293.4375,
          "velocity": 0.2755905511811024
        },
        {
          "duration": 0.3125,
          "durationTicks": 192,
          "midi": 40,
          "name": "E2",
          "ticks": 180480,
          "time": 293.75,
          "velocity": 0.2755905511811024
        },
        {
          "duration": 0.3125,
          "durationTicks": 192,
          "midi": 40,
          "name": "E2",
          "ticks": 180672,
          "time": 294.0625,
          "velocity": 0.2755905511811024
        },
        {
          "duration": 0.3125,
          "durationTicks": 192,
          "midi": 40,
          "name": "E2",
          "ticks": 180864,
          "time": 294.375,
          "velocity": 0.2755905511811024
        },
        {
          "duration": 0.3125,
          "durationTicks": 192,
          "midi": 40,
          "name": "E2",
          "ticks": 181056,
          "time": 294.6875,
          "velocity": 0.2755905511811024
        },
        {
          "duration": 0.3125,
          "durationTicks": 192,
          "midi": 40,
          "name": "E2",
          "ticks": 181248,
          "time": 295,
          "velocity": 0.2755905511811024
        },
        {
          "duration": 0.3125,
          "durationTicks": 192,
          "midi": 40,
          "name": "E2",
          "ticks": 181440,
          "time": 295.3125,
          "velocity": 0.2755905511811024
        },
        {
          "duration": 0.3125,
          "durationTicks": 192,
          "midi": 40,
          "name": "E2",
          "ticks": 181632,
          "time": 295.625,
          "velocity": 0.2755905511811024
        },
        {
          "duration": 0.3125,
          "durationTicks": 192,
          "midi": 40,
          "name": "E2",
          "ticks": 181824,
          "time": 295.9375,
          "velocity": 0.2755905511811024
        },
        {
          "duration": 0.3125,
          "durationTicks": 192,
          "midi": 40,
          "name": "E2",
          "ticks": 182016,
          "time": 296.25,
          "velocity": 0.2755905511811024
        },
        {
          "duration": 0.3125,
          "durationTicks": 192,
          "midi": 40,
          "name": "E2",
          "ticks": 182208,
          "time": 296.5625,
          "velocity": 0.2755905511811024
        },
        {
          "duration": 0.3125,
          "durationTicks": 192,
          "midi": 40,
          "name": "E2",
          "ticks": 182400,
          "time": 296.875,
          "velocity": 0.2755905511811024
        },
        {
          "duration": 0.3125,
          "durationTicks": 192,
          "midi": 40,
          "name": "E2",
          "ticks": 182592,
          "time": 297.1875,
          "velocity": 0.2755905511811024
        },
        {
          "duration": 0.3125,
          "durationTicks": 192,
          "midi": 40,
          "name": "E2",
          "ticks": 182784,
          "time": 297.5,
          "velocity": 0.2755905511811024
        },
        {
          "duration": 0.3125,
          "durationTicks": 192,
          "midi": 40,
          "name": "E2",
          "ticks": 182976,
          "time": 297.8125,
          "velocity": 0.2755905511811024
        },
        {
          "duration": 0.3125,
          "durationTicks": 192,
          "midi": 40,
          "name": "E2",
          "ticks": 183168,
          "time": 298.125,
          "velocity": 0.2755905511811024
        },
        {
          "duration": 0.3125,
          "durationTicks": 192,
          "midi": 40,
          "name": "E2",
          "ticks": 183360,
          "time": 298.4375,
          "velocity": 0.2755905511811024
        },
        {
          "duration": 0.3125,
          "durationTicks": 192,
          "midi": 40,
          "name": "E2",
          "ticks": 183552,
          "time": 298.75,
          "velocity": 0.2755905511811024
        },
        {
          "duration": 0.3125,
          "durationTicks": 192,
          "midi": 40,
          "name": "E2",
          "ticks": 183744,
          "time": 299.0625,
          "velocity": 0.2755905511811024
        },
        {
          "duration": 0.3125,
          "durationTicks": 192,
          "midi": 40,
          "name": "E2",
          "ticks": 183936,
          "time": 299.375,
          "velocity": 0.2755905511811024
        },
        {
          "duration": 1.875,
          "durationTicks": 1152,
          "midi": 40,
          "name": "E2",
          "ticks": 184128,
          "time": 299.6875,
          "velocity": 0.2755905511811024
        },
        {
          "duration": 0.15625,
          "durationTicks": 96,
          "midi": 60,
          "name": "C4",
          "ticks": 185280,
          "time": 301.5625,
          "velocity": 0.03937007874015748
        },
        {
          "duration": 0.46875,
          "durationTicks": 288,
          "midi": 60,
          "name": "C4",
          "ticks": 185376,
          "time": 301.71875,
          "velocity": 0.031496062992125984
        },
        {
          "duration": 0.15625,
          "durationTicks": 96,
          "midi": 60,
          "name": "C4",
          "ticks": 185664,
          "time": 302.1875,
          "velocity": 0.06299212598425197
        },
        {
          "duration": 0.46875,
          "durationTicks": 288,
          "midi": 60,
          "name": "C4",
          "ticks": 185760,
          "time": 302.34375,
          "velocity": 0.03937007874015748
        },
        {
          "duration": 0.15625,
          "durationTicks": 96,
          "midi": 60,
          "name": "C4",
          "ticks": 186048,
          "time": 302.8125,
          "velocity": 0.08661417322834646
        },
        {
          "duration": 0.46875,
          "durationTicks": 288,
          "midi": 60,
          "name": "C4",
          "ticks": 186144,
          "time": 302.96875,
          "velocity": 0.06299212598425197
        },
        {
          "duration": 0.15625,
          "durationTicks": 96,
          "midi": 60,
          "name": "C4",
          "ticks": 186432,
          "time": 303.4375,
          "velocity": 0.11023622047244094
        },
        {
          "duration": 0.46875,
          "durationTicks": 288,
          "midi": 60,
          "name": "C4",
          "ticks": 186528,
          "time": 303.59375,
          "velocity": 0.07874015748031496
        },
        {
          "duration": 0.15625,
          "durationTicks": 96,
          "midi": 60,
          "name": "C4",
          "ticks": 186816,
          "time": 304.0625,
          "velocity": 0.13385826771653545
        },
        {
          "duration": 0.46875,
          "durationTicks": 288,
          "midi": 60,
          "name": "C4",
          "ticks": 186912,
          "time": 304.21875,
          "velocity": 0.11023622047244094
        },
        {
          "duration": 0.15625,
          "durationTicks": 96,
          "midi": 60,
          "name": "C4",
          "ticks": 187200,
          "time": 304.6875,
          "velocity": 0.1889763779527559
        },
        {
          "duration": 0.46875,
          "durationTicks": 288,
          "midi": 60,
          "name": "C4",
          "ticks": 187296,
          "time": 304.84375,
          "velocity": 0.13385826771653545
        },
        {
          "duration": 0.15625,
          "durationTicks": 96,
          "midi": 60,
          "name": "C4",
          "ticks": 187584,
          "time": 305.3125,
          "velocity": 0.25196850393700787
        },
        {
          "duration": 0.46875,
          "durationTicks": 288,
          "midi": 60,
          "name": "C4",
          "ticks": 187680,
          "time": 305.46875,
          "velocity": 0.15748031496062992
        },
        {
          "duration": 0.15625,
          "durationTicks": 96,
          "midi": 60,
          "name": "C4",
          "ticks": 187968,
          "time": 305.9375,
          "velocity": 0.30708661417322836
        },
        {
          "duration": 0.46875,
          "durationTicks": 288,
          "midi": 60,
          "name": "C4",
          "ticks": 188064,
          "time": 306.09375,
          "velocity": 0.18110236220472442
        },
        {
          "duration": 0.15625,
          "durationTicks": 96,
          "midi": 60,
          "name": "C4",
          "ticks": 188352,
          "time": 306.5625,
          "velocity": 0.36220472440944884
        },
        {
          "duration": 0.46875,
          "durationTicks": 288,
          "midi": 60,
          "name": "C4",
          "ticks": 188448,
          "time": 306.71875,
          "velocity": 0.2047244094488189
        },
        {
          "duration": 0.15625,
          "durationTicks": 96,
          "midi": 60,
          "name": "C4",
          "ticks": 188736,
          "time": 307.1875,
          "velocity": 0.2755905511811024
        },
        {
          "duration": 0.46875,
          "durationTicks": 288,
          "midi": 60,
          "name": "C4",
          "ticks": 188832,
          "time": 307.34375,
          "velocity": 0.2047244094488189
        },
        {
          "duration": 0.15625,
          "durationTicks": 96,
          "midi": 60,
          "name": "C4",
          "ticks": 189120,
          "time": 307.8125,
          "velocity": 0.2755905511811024
        },
        {
          "duration": 0.46875,
          "durationTicks": 288,
          "midi": 60,
          "name": "C4",
          "ticks": 189216,
          "time": 307.96875,
          "velocity": 0.2047244094488189
        },
        {
          "duration": 0.15625,
          "durationTicks": 96,
          "midi": 60,
          "name": "C4",
          "ticks": 189504,
          "time": 308.4375,
          "velocity": 0.2755905511811024
        },
        {
          "duration": 0.46875,
          "durationTicks": 288,
          "midi": 60,
          "name": "C4",
          "ticks": 189600,
          "time": 308.59375,
          "velocity": 0.2047244094488189
        },
        {
          "duration": 0.15625,
          "durationTicks": 96,
          "midi": 60,
          "name": "C4",
          "ticks": 189888,
          "time": 309.0625,
          "velocity": 0.2755905511811024
        },
        {
          "duration": 0.46875,
          "durationTicks": 288,
          "midi": 60,
          "name": "C4",
          "ticks": 189984,
          "time": 309.21875,
          "velocity": 0.2047244094488189
        },
        {
          "duration": 0.15625,
          "durationTicks": 96,
          "midi": 60,
          "name": "C4",
          "ticks": 190272,
          "time": 309.6875,
          "velocity": 0.2755905511811024
        },
        {
          "duration": 0.15625,
          "durationTicks": 96,
          "midi": 60,
          "name": "C4",
          "ticks": 190368,
          "time": 309.84375,
          "velocity": 0.2047244094488189
        }
      ],
      "endOfTrackTicks": 190464
    },
    {
      "channel": 6,
      "controlChanges": {},
      "pitchBends": [],
      "instrument": {
        "family": "strings",
        "number": 40,
        "name": "violin"
      },
      "name": "Violin (Sustain)",
      "notes": [
        {
          "duration": 2.1875,
          "durationTicks": 1344,
          "midi": 48,
          "name": "C3",
          "ticks": 36864,
          "time": 60,
          "velocity": 0.7874015748031497
        },
        {
          "duration": 2.03125,
          "durationTicks": 1248,
          "midi": 53,
          "name": "F3",
          "ticks": 36960,
          "time": 60.15625,
          "velocity": 0.7874015748031497
        },
        {
          "duration": 1.875,
          "durationTicks": 1152,
          "midi": 55,
          "name": "G3",
          "ticks": 37056,
          "time": 60.3125,
          "velocity": 0.7874015748031497
        },
        {
          "duration": 2.1875,
          "durationTicks": 1344,
          "midi": 48,
          "name": "C3",
          "ticks": 38400,
          "time": 62.5,
          "velocity": 0.7874015748031497
        },
        {
          "duration": 2.03125,
          "durationTicks": 1248,
          "midi": 53,
          "name": "F3",
          "ticks": 38496,
          "time": 62.65625,
          "velocity": 0.7874015748031497
        },
        {
          "duration": 1.875,
          "durationTicks": 1152,
          "midi": 56,
          "name": "G#3",
          "ticks": 38592,
          "time": 62.8125,
          "velocity": 0.7874015748031497
        },
        {
          "duration": 2.1875,
          "durationTicks": 1344,
          "midi": 48,
          "name": "C3",
          "ticks": 39936,
          "time": 65,
          "velocity": 0.7874015748031497
        },
        {
          "duration": 2.03125,
          "durationTicks": 1248,
          "midi": 53,
          "name": "F3",
          "ticks": 40032,
          "time": 65.15625,
          "velocity": 0.7874015748031497
        },
        {
          "duration": 1.875,
          "durationTicks": 1152,
          "midi": 58,
          "name": "A#3",
          "ticks": 40128,
          "time": 65.3125,
          "velocity": 0.7874015748031497
        },
        {
          "duration": 0.9375,
          "durationTicks": 576,
          "midi": 48,
          "name": "C3",
          "ticks": 41472,
          "time": 67.5,
          "velocity": 0.7874015748031497
        },
        {
          "duration": 0.78125,
          "durationTicks": 480,
          "midi": 53,
          "name": "F3",
          "ticks": 41568,
          "time": 67.65625,
          "velocity": 0.7874015748031497
        },
        {
          "duration": 0.625,
          "durationTicks": 384,
          "midi": 58,
          "name": "A#3",
          "ticks": 41664,
          "time": 67.8125,
          "velocity": 0.7874015748031497
        },
        {
          "duration": 0.46875,
          "durationTicks": 288,
          "midi": 60,
          "name": "C4",
          "ticks": 41760,
          "time": 67.96875,
          "velocity": 0.7874015748031497
        },
        {
          "duration": 0.3125,
          "durationTicks": 192,
          "midi": 61,
          "name": "C#4",
          "ticks": 42240,
          "time": 68.75,
          "velocity": 0.7874015748031497
        },
        {
          "duration": 0.3125,
          "durationTicks": 192,
          "midi": 58,
          "name": "A#3",
          "ticks": 42624,
          "time": 69.375,
          "velocity": 0.7874015748031497
        },
        {
          "duration": 2.1875,
          "durationTicks": 1344,
          "midi": 48,
          "name": "C3",
          "ticks": 43008,
          "time": 70,
          "velocity": 0.7874015748031497
        },
        {
          "duration": 2.03125,
          "durationTicks": 1248,
          "midi": 53,
          "name": "F3",
          "ticks": 43104,
          "time": 70.15625,
          "velocity": 0.7874015748031497
        },
        {
          "duration": 1.875,
          "durationTicks": 1152,
          "midi": 55,
          "name": "G3",
          "ticks": 43200,
          "time": 70.3125,
          "velocity": 0.7874015748031497
        },
        {
          "duration": 2.1875,
          "durationTicks": 1344,
          "midi": 48,
          "name": "C3",
          "ticks": 44544,
          "time": 72.5,
          "velocity": 0.7874015748031497
        },
        {
          "duration": 2.03125,
          "durationTicks": 1248,
          "midi": 53,
          "name": "F3",
          "ticks": 44640,
          "time": 72.65625,
          "velocity": 0.7874015748031497
        },
        {
          "duration": 1.875,
          "durationTicks": 1152,
          "midi": 56,
          "name": "G#3",
          "ticks": 44736,
          "time": 72.8125,
          "velocity": 0.7874015748031497
        },
        {
          "duration": 2.1875,
          "durationTicks": 1344,
          "midi": 48,
          "name": "C3",
          "ticks": 46080,
          "time": 75,
          "velocity": 0.7874015748031497
        },
        {
          "duration": 2.03125,
          "durationTicks": 1248,
          "midi": 53,
          "name": "F3",
          "ticks": 46176,
          "time": 75.15625,
          "velocity": 0.7874015748031497
        },
        {
          "duration": 1.875,
          "durationTicks": 1152,
          "midi": 58,
          "name": "A#3",
          "ticks": 46272,
          "time": 75.3125,
          "velocity": 0.7874015748031497
        },
        {
          "duration": 0.9375,
          "durationTicks": 576,
          "midi": 48,
          "name": "C3",
          "ticks": 47616,
          "time": 77.5,
          "velocity": 0.7874015748031497
        },
        {
          "duration": 0.78125,
          "durationTicks": 480,
          "midi": 53,
          "name": "F3",
          "ticks": 47712,
          "time": 77.65625,
          "velocity": 0.7874015748031497
        },
        {
          "duration": 0.625,
          "durationTicks": 384,
          "midi": 58,
          "name": "A#3",
          "ticks": 47808,
          "time": 77.8125,
          "velocity": 0.7874015748031497
        },
        {
          "duration": 0.46875,
          "durationTicks": 288,
          "midi": 60,
          "name": "C4",
          "ticks": 47904,
          "time": 77.96875,
          "velocity": 0.7874015748031497
        },
        {
          "duration": 0.3125,
          "durationTicks": 192,
          "midi": 61,
          "name": "C#4",
          "ticks": 48384,
          "time": 78.75,
          "velocity": 0.7874015748031497
        },
        {
          "duration": 0.3125,
          "durationTicks": 192,
          "midi": 58,
          "name": "A#3",
          "ticks": 48768,
          "time": 79.375,
          "velocity": 0.7874015748031497
        },
        {
          "duration": 2.1875,
          "durationTicks": 1344,
          "midi": 46,
          "name": "A#2",
          "ticks": 49152,
          "time": 80,
          "velocity": 0.7874015748031497
        },
        {
          "duration": 2.03125,
          "durationTicks": 1248,
          "midi": 51,
          "name": "D#3",
          "ticks": 49248,
          "time": 80.15625,
          "velocity": 0.7874015748031497
        },
        {
          "duration": 1.875,
          "durationTicks": 1152,
          "midi": 53,
          "name": "F3",
          "ticks": 49344,
          "time": 80.3125,
          "velocity": 0.7874015748031497
        },
        {
          "duration": 2.1875,
          "durationTicks": 1344,
          "midi": 48,
          "name": "C3",
          "ticks": 50688,
          "time": 82.5,
          "velocity": 0.7874015748031497
        },
        {
          "duration": 2.03125,
          "durationTicks": 1248,
          "midi": 53,
          "name": "F3",
          "ticks": 50784,
          "time": 82.65625,
          "velocity": 0.7874015748031497
        },
        {
          "duration": 1.875,
          "durationTicks": 1152,
          "midi": 56,
          "name": "G#3",
          "ticks": 50880,
          "time": 82.8125,
          "velocity": 0.7874015748031497
        },
        {
          "duration": 2.1875,
          "durationTicks": 1344,
          "midi": 45,
          "name": "A2",
          "ticks": 52224,
          "time": 85,
          "velocity": 0.7874015748031497
        },
        {
          "duration": 2.03125,
          "durationTicks": 1248,
          "midi": 50,
          "name": "D3",
          "ticks": 52320,
          "time": 85.15625,
          "velocity": 0.7874015748031497
        },
        {
          "duration": 1.875,
          "durationTicks": 1152,
          "midi": 55,
          "name": "G3",
          "ticks": 52416,
          "time": 85.3125,
          "velocity": 0.7874015748031497
        },
        {
          "duration": 0.9375,
          "durationTicks": 576,
          "midi": 46,
          "name": "A#2",
          "ticks": 53760,
          "time": 87.5,
          "velocity": 0.7874015748031497
        },
        {
          "duration": 0.78125,
          "durationTicks": 480,
          "midi": 51,
          "name": "D#3",
          "ticks": 53856,
          "time": 87.65625,
          "velocity": 0.7874015748031497
        },
        {
          "duration": 0.625,
          "durationTicks": 384,
          "midi": 56,
          "name": "G#3",
          "ticks": 53952,
          "time": 87.8125,
          "velocity": 0.7874015748031497
        },
        {
          "duration": 0.46875,
          "durationTicks": 288,
          "midi": 58,
          "name": "A#3",
          "ticks": 54048,
          "time": 87.96875,
          "velocity": 0.7874015748031497
        },
        {
          "duration": 0.3125,
          "durationTicks": 192,
          "midi": 60,
          "name": "C4",
          "ticks": 54528,
          "time": 88.75,
          "velocity": 0.7874015748031497
        },
        {
          "duration": 0.3125,
          "durationTicks": 192,
          "midi": 61,
          "name": "C#4",
          "ticks": 54912,
          "time": 89.375,
          "velocity": 0.7874015748031497
        },
        {
          "duration": 0.15625,
          "durationTicks": 96,
          "midi": 60,
          "name": "C4",
          "ticks": 55296,
          "time": 90,
          "velocity": 0.7874015748031497
        },
        {
          "duration": 0.15625,
          "durationTicks": 96,
          "midi": 60,
          "name": "C4",
          "ticks": 55584,
          "time": 90.46875,
          "velocity": 0.7874015748031497
        },
        {
          "duration": 0.625,
          "durationTicks": 384,
          "midi": 60,
          "name": "C4",
          "ticks": 55872,
          "time": 90.9375,
          "velocity": 0.7874015748031497
        },
        {
          "duration": 0.15625,
          "durationTicks": 96,
          "midi": 60,
          "name": "C4",
          "ticks": 56832,
          "time": 92.5,
          "velocity": 0.7874015748031497
        },
        {
          "duration": 0.15625,
          "durationTicks": 96,
          "midi": 60,
          "name": "C4",
          "ticks": 57120,
          "time": 92.96875,
          "velocity": 0.7874015748031497
        },
        {
          "duration": 0.15625,
          "durationTicks": 96,
          "midi": 60,
          "name": "C4",
          "ticks": 57216,
          "time": 93.125,
          "velocity": 0.7874015748031497
        },
        {
          "duration": 0.3125,
          "durationTicks": 192,
          "midi": 61,
          "name": "C#4",
          "ticks": 57408,
          "time": 93.4375,
          "velocity": 0.7874015748031497
        },
        {
          "duration": 0.15625,
          "durationTicks": 96,
          "midi": 58,
          "name": "A#3",
          "ticks": 57984,
          "time": 94.375,
          "velocity": 0.7874015748031497
        },
        {
          "duration": 0.15625,
          "durationTicks": 96,
          "midi": 60,
          "name": "C4",
          "ticks": 58368,
          "time": 95,
          "velocity": 0.7874015748031497
        },
        {
          "duration": 0.15625,
          "durationTicks": 96,
          "midi": 61,
          "name": "C#4",
          "ticks": 58656,
          "time": 95.46875,
          "velocity": 0.7874015748031497
        },
        {
          "duration": 0.625,
          "durationTicks": 384,
          "midi": 63,
          "name": "D#4",
          "ticks": 58944,
          "time": 95.9375,
          "velocity": 0.7795275590551181
        },
        {
          "duration": 0.15625,
          "durationTicks": 96,
          "midi": 60,
          "name": "C4",
          "ticks": 59904,
          "time": 97.5,
          "velocity": 0.7874015748031497
        },
        {
          "duration": 0.15625,
          "durationTicks": 96,
          "midi": 60,
          "name": "C4",
          "ticks": 60192,
          "time": 97.96875,
          "velocity": 0.7874015748031497
        },
        {
          "duration": 0.15625,
          "durationTicks": 96,
          "midi": 60,
          "name": "C4",
          "ticks": 60288,
          "time": 98.125,
          "velocity": 0.7874015748031497
        },
        {
          "duration": 0.3125,
          "durationTicks": 192,
          "midi": 61,
          "name": "C#4",
          "ticks": 60480,
          "time": 98.4375,
          "velocity": 0.7874015748031497
        },
        {
          "duration": 0.3125,
          "durationTicks": 192,
          "midi": 63,
          "name": "D#4",
          "ticks": 61056,
          "time": 99.375,
          "velocity": 0.7795275590551181
        },
        {
          "duration": 2.1875,
          "durationTicks": 1344,
          "midi": 48,
          "name": "C3",
          "ticks": 61440,
          "time": 100,
          "velocity": 0.7874015748031497
        },
        {
          "duration": 2.03125,
          "durationTicks": 1248,
          "midi": 53,
          "name": "F3",
          "ticks": 61536,
          "time": 100.15625,
          "velocity": 0.7874015748031497
        },
        {
          "duration": 1.875,
          "durationTicks": 1152,
          "midi": 55,
          "name": "G3",
          "ticks": 61632,
          "time": 100.3125,
          "velocity": 0.7874015748031497
        },
        {
          "duration": 2.1875,
          "durationTicks": 1344,
          "midi": 48,
          "name": "C3",
          "ticks": 62976,
          "time": 102.5,
          "velocity": 0.7874015748031497
        },
        {
          "duration": 2.03125,
          "durationTicks": 1248,
          "midi": 53,
          "name": "F3",
          "ticks": 63072,
          "time": 102.65625,
          "velocity": 0.7874015748031497
        },
        {
          "duration": 1.875,
          "durationTicks": 1152,
          "midi": 56,
          "name": "G#3",
          "ticks": 63168,
          "time": 102.8125,
          "velocity": 0.7874015748031497
        },
        {
          "duration": 2.1875,
          "durationTicks": 1344,
          "midi": 48,
          "name": "C3",
          "ticks": 64512,
          "time": 105,
          "velocity": 0.7874015748031497
        },
        {
          "duration": 2.03125,
          "durationTicks": 1248,
          "midi": 53,
          "name": "F3",
          "ticks": 64608,
          "time": 105.15625,
          "velocity": 0.7874015748031497
        },
        {
          "duration": 1.875,
          "durationTicks": 1152,
          "midi": 58,
          "name": "A#3",
          "ticks": 64704,
          "time": 105.3125,
          "velocity": 0.7874015748031497
        },
        {
          "duration": 1.875,
          "durationTicks": 1152,
          "midi": 48,
          "name": "C3",
          "ticks": 66048,
          "time": 107.5,
          "velocity": 0.7874015748031497
        },
        {
          "duration": 1.71875,
          "durationTicks": 1056,
          "midi": 53,
          "name": "F3",
          "ticks": 66144,
          "time": 107.65625,
          "velocity": 0.7874015748031497
        },
        {
          "duration": 1.5625,
          "durationTicks": 960,
          "midi": 58,
          "name": "A#3",
          "ticks": 66240,
          "time": 107.8125,
          "velocity": 0.7874015748031497
        },
        {
          "duration": 1.40625,
          "durationTicks": 864,
          "midi": 60,
          "name": "C4",
          "ticks": 66336,
          "time": 107.96875,
          "velocity": 0.7874015748031497
        },
        {
          "duration": 0.15625,
          "durationTicks": 96,
          "midi": 60,
          "name": "C4",
          "ticks": 67584,
          "time": 110,
          "velocity": 0.7874015748031497
        },
        {
          "duration": 0.15625,
          "durationTicks": 96,
          "midi": 60,
          "name": "C4",
          "ticks": 67872,
          "time": 110.46875,
          "velocity": 0.7874015748031497
        },
        {
          "duration": 0.625,
          "durationTicks": 384,
          "midi": 60,
          "name": "C4",
          "ticks": 68160,
          "time": 110.9375,
          "velocity": 0.7874015748031497
        },
        {
          "duration": 0.15625,
          "durationTicks": 96,
          "midi": 60,
          "name": "C4",
          "ticks": 69120,
          "time": 112.5,
          "velocity": 0.7874015748031497
        },
        {
          "duration": 0.15625,
          "durationTicks": 96,
          "midi": 60,
          "name": "C4",
          "ticks": 69408,
          "time": 112.96875,
          "velocity": 0.7874015748031497
        },
        {
          "duration": 0.15625,
          "durationTicks": 96,
          "midi": 60,
          "name": "C4",
          "ticks": 69504,
          "time": 113.125,
          "velocity": 0.7874015748031497
        },
        {
          "duration": 0.3125,
          "durationTicks": 192,
          "midi": 61,
          "name": "C#4",
          "ticks": 69696,
          "time": 113.4375,
          "velocity": 0.7874015748031497
        },
        {
          "duration": 0.15625,
          "durationTicks": 96,
          "midi": 58,
          "name": "A#3",
          "ticks": 70272,
          "time": 114.375,
          "velocity": 0.7874015748031497
        },
        {
          "duration": 0.15625,
          "durationTicks": 96,
          "midi": 60,
          "name": "C4",
          "ticks": 70656,
          "time": 115,
          "velocity": 0.7874015748031497
        },
        {
          "duration": 0.15625,
          "durationTicks": 96,
          "midi": 60,
          "name": "C4",
          "ticks": 70944,
          "time": 115.46875,
          "velocity": 0.7874015748031497
        },
        {
          "duration": 0.625,
          "durationTicks": 384,
          "midi": 60,
          "name": "C4",
          "ticks": 71232,
          "time": 115.9375,
          "velocity": 0.7874015748031497
        },
        {
          "duration": 0.15625,
          "durationTicks": 96,
          "midi": 60,
          "name": "C4",
          "ticks": 72192,
          "time": 117.5,
          "velocity": 0.7874015748031497
        },
        {
          "duration": 0.15625,
          "durationTicks": 96,
          "midi": 60,
          "name": "C4",
          "ticks": 72480,
          "time": 117.96875,
          "velocity": 0.7874015748031497
        },
        {
          "duration": 0.15625,
          "durationTicks": 96,
          "midi": 60,
          "name": "C4",
          "ticks": 72576,
          "time": 118.125,
          "velocity": 0.7874015748031497
        },
        {
          "duration": 0.3125,
          "durationTicks": 192,
          "midi": 61,
          "name": "C#4",
          "ticks": 72768,
          "time": 118.4375,
          "velocity": 0.7874015748031497
        },
        {
          "duration": 0.3125,
          "durationTicks": 192,
          "midi": 63,
          "name": "D#4",
          "ticks": 73344,
          "time": 119.375,
          "velocity": 0.7795275590551181
        },
        {
          "duration": 2.1875,
          "durationTicks": 1344,
          "midi": 48,
          "name": "C3",
          "ticks": 79872,
          "time": 130,
          "velocity": 0.7874015748031497
        },
        {
          "duration": 2.03125,
          "durationTicks": 1248,
          "midi": 53,
          "name": "F3",
          "ticks": 79968,
          "time": 130.15625,
          "velocity": 0.7874015748031497
        },
        {
          "duration": 1.875,
          "durationTicks": 1152,
          "midi": 55,
          "name": "G3",
          "ticks": 80064,
          "time": 130.3125,
          "velocity": 0.7874015748031497
        },
        {
          "duration": 2.1875,
          "durationTicks": 1344,
          "midi": 48,
          "name": "C3",
          "ticks": 81408,
          "time": 132.5,
          "velocity": 0.7874015748031497
        },
        {
          "duration": 2.03125,
          "durationTicks": 1248,
          "midi": 53,
          "name": "F3",
          "ticks": 81504,
          "time": 132.65625,
          "velocity": 0.7874015748031497
        },
        {
          "duration": 1.875,
          "durationTicks": 1152,
          "midi": 56,
          "name": "G#3",
          "ticks": 81600,
          "time": 132.8125,
          "velocity": 0.7874015748031497
        },
        {
          "duration": 2.1875,
          "durationTicks": 1344,
          "midi": 48,
          "name": "C3",
          "ticks": 82944,
          "time": 135,
          "velocity": 0.7874015748031497
        },
        {
          "duration": 2.03125,
          "durationTicks": 1248,
          "midi": 53,
          "name": "F3",
          "ticks": 83040,
          "time": 135.15625,
          "velocity": 0.7874015748031497
        },
        {
          "duration": 1.875,
          "durationTicks": 1152,
          "midi": 58,
          "name": "A#3",
          "ticks": 83136,
          "time": 135.3125,
          "velocity": 0.7874015748031497
        },
        {
          "duration": 1.875,
          "durationTicks": 1152,
          "midi": 48,
          "name": "C3",
          "ticks": 84480,
          "time": 137.5,
          "velocity": 0.7874015748031497
        },
        {
          "duration": 1.71875,
          "durationTicks": 1056,
          "midi": 53,
          "name": "F3",
          "ticks": 84576,
          "time": 137.65625,
          "velocity": 0.7874015748031497
        },
        {
          "duration": 1.5625,
          "durationTicks": 960,
          "midi": 58,
          "name": "A#3",
          "ticks": 84672,
          "time": 137.8125,
          "velocity": 0.7874015748031497
        },
        {
          "duration": 1.40625,
          "durationTicks": 864,
          "midi": 60,
          "name": "C4",
          "ticks": 84768,
          "time": 137.96875,
          "velocity": 0.7874015748031497
        },
        {
          "duration": 1.25,
          "durationTicks": 768,
          "midi": 53,
          "name": "F3",
          "ticks": 86016,
          "time": 140,
          "velocity": 0.7874015748031497
        },
        {
          "duration": 1.25,
          "durationTicks": 768,
          "midi": 53,
          "name": "F3",
          "ticks": 92160,
          "time": 150,
          "velocity": 0.7874015748031497
        },
        {
          "duration": 1.25,
          "durationTicks": 768,
          "midi": 53,
          "name": "F3",
          "ticks": 98304,
          "time": 160,
          "velocity": 0.7874015748031497
        },
        {
          "duration": 1.25,
          "durationTicks": 768,
          "midi": 53,
          "name": "F3",
          "ticks": 104448,
          "time": 170,
          "velocity": 0.7874015748031497
        },
        {
          "duration": 1.25,
          "durationTicks": 768,
          "midi": 53,
          "name": "F3",
          "ticks": 110592,
          "time": 180,
          "velocity": 0.7874015748031497
        },
        {
          "duration": 0.46875,
          "durationTicks": 288,
          "midi": 55,
          "name": "G3",
          "ticks": 119424,
          "time": 194.375,
          "velocity": 0.7874015748031497
        },
        {
          "duration": 4.6875,
          "durationTicks": 2880,
          "midi": 56,
          "name": "G#3",
          "ticks": 119808,
          "time": 195,
          "velocity": 0.7874015748031497
        },
        {
          "duration": 2.1875,
          "durationTicks": 1344,
          "midi": 48,
          "name": "C3",
          "ticks": 135168,
          "time": 220,
          "velocity": 0.7874015748031497
        },
        {
          "duration": 2.03125,
          "durationTicks": 1248,
          "midi": 53,
          "name": "F3",
          "ticks": 135264,
          "time": 220.15625,
          "velocity": 0.7874015748031497
        },
        {
          "duration": 1.875,
          "durationTicks": 1152,
          "midi": 55,
          "name": "G3",
          "ticks": 135360,
          "time": 220.3125,
          "velocity": 0.7874015748031497
        },
        {
          "duration": 2.1875,
          "durationTicks": 1344,
          "midi": 48,
          "name": "C3",
          "ticks": 136704,
          "time": 222.5,
          "velocity": 0.7874015748031497
        },
        {
          "duration": 2.03125,
          "durationTicks": 1248,
          "midi": 53,
          "name": "F3",
          "ticks": 136800,
          "time": 222.65625,
          "velocity": 0.7874015748031497
        },
        {
          "duration": 1.875,
          "durationTicks": 1152,
          "midi": 56,
          "name": "G#3",
          "ticks": 136896,
          "time": 222.8125,
          "velocity": 0.7874015748031497
        },
        {
          "duration": 2.1875,
          "durationTicks": 1344,
          "midi": 48,
          "name": "C3",
          "ticks": 138240,
          "time": 225,
          "velocity": 0.7874015748031497
        },
        {
          "duration": 2.03125,
          "durationTicks": 1248,
          "midi": 53,
          "name": "F3",
          "ticks": 138336,
          "time": 225.15625,
          "velocity": 0.7874015748031497
        },
        {
          "duration": 1.875,
          "durationTicks": 1152,
          "midi": 58,
          "name": "A#3",
          "ticks": 138432,
          "time": 225.3125,
          "velocity": 0.7874015748031497
        },
        {
          "duration": 1.875,
          "durationTicks": 1152,
          "midi": 48,
          "name": "C3",
          "ticks": 139776,
          "time": 227.5,
          "velocity": 0.7874015748031497
        },
        {
          "duration": 1.71875,
          "durationTicks": 1056,
          "midi": 53,
          "name": "F3",
          "ticks": 139872,
          "time": 227.65625,
          "velocity": 0.7874015748031497
        },
        {
          "duration": 1.5625,
          "durationTicks": 960,
          "midi": 58,
          "name": "A#3",
          "ticks": 139968,
          "time": 227.8125,
          "velocity": 0.7874015748031497
        },
        {
          "duration": 1.40625,
          "durationTicks": 864,
          "midi": 60,
          "name": "C4",
          "ticks": 140064,
          "time": 227.96875,
          "velocity": 0.7874015748031497
        },
        {
          "duration": 2.1875,
          "durationTicks": 1344,
          "midi": 48,
          "name": "C3",
          "ticks": 141312,
          "time": 230,
          "velocity": 0.7874015748031497
        },
        {
          "duration": 2.03125,
          "durationTicks": 1248,
          "midi": 53,
          "name": "F3",
          "ticks": 141408,
          "time": 230.15625,
          "velocity": 0.7874015748031497
        },
        {
          "duration": 1.875,
          "durationTicks": 1152,
          "midi": 55,
          "name": "G3",
          "ticks": 141504,
          "time": 230.3125,
          "velocity": 0.7874015748031497
        },
        {
          "duration": 2.1875,
          "durationTicks": 1344,
          "midi": 48,
          "name": "C3",
          "ticks": 142848,
          "time": 232.5,
          "velocity": 0.7874015748031497
        },
        {
          "duration": 2.03125,
          "durationTicks": 1248,
          "midi": 53,
          "name": "F3",
          "ticks": 142944,
          "time": 232.65625,
          "velocity": 0.7874015748031497
        },
        {
          "duration": 1.875,
          "durationTicks": 1152,
          "midi": 56,
          "name": "G#3",
          "ticks": 143040,
          "time": 232.8125,
          "velocity": 0.7874015748031497
        },
        {
          "duration": 2.1875,
          "durationTicks": 1344,
          "midi": 48,
          "name": "C3",
          "ticks": 144384,
          "time": 235,
          "velocity": 0.7874015748031497
        },
        {
          "duration": 2.03125,
          "durationTicks": 1248,
          "midi": 53,
          "name": "F3",
          "ticks": 144480,
          "time": 235.15625,
          "velocity": 0.7874015748031497
        },
        {
          "duration": 1.875,
          "durationTicks": 1152,
          "midi": 58,
          "name": "A#3",
          "ticks": 144576,
          "time": 235.3125,
          "velocity": 0.7874015748031497
        },
        {
          "duration": 0.9375,
          "durationTicks": 576,
          "midi": 48,
          "name": "C3",
          "ticks": 145920,
          "time": 237.5,
          "velocity": 0.7874015748031497
        },
        {
          "duration": 0.78125,
          "durationTicks": 480,
          "midi": 53,
          "name": "F3",
          "ticks": 146016,
          "time": 237.65625,
          "velocity": 0.7874015748031497
        },
        {
          "duration": 0.625,
          "durationTicks": 384,
          "midi": 58,
          "name": "A#3",
          "ticks": 146112,
          "time": 237.8125,
          "velocity": 0.7874015748031497
        },
        {
          "duration": 0.46875,
          "durationTicks": 288,
          "midi": 60,
          "name": "C4",
          "ticks": 146208,
          "time": 237.96875,
          "velocity": 0.7874015748031497
        },
        {
          "duration": 0.3125,
          "durationTicks": 192,
          "midi": 61,
          "name": "C#4",
          "ticks": 146688,
          "time": 238.75,
          "velocity": 0.7874015748031497
        },
        {
          "duration": 0.3125,
          "durationTicks": 192,
          "midi": 58,
          "name": "A#3",
          "ticks": 147072,
          "time": 239.375,
          "velocity": 0.7874015748031497
        },
        {
          "duration": 2.1875,
          "durationTicks": 1344,
          "midi": 48,
          "name": "C3",
          "ticks": 147456,
          "time": 240,
          "velocity": 0.7874015748031497
        },
        {
          "duration": 2.03125,
          "durationTicks": 1248,
          "midi": 53,
          "name": "F3",
          "ticks": 147552,
          "time": 240.15625,
          "velocity": 0.7874015748031497
        },
        {
          "duration": 1.875,
          "durationTicks": 1152,
          "midi": 55,
          "name": "G3",
          "ticks": 147648,
          "time": 240.3125,
          "velocity": 0.7874015748031497
        },
        {
          "duration": 2.1875,
          "durationTicks": 1344,
          "midi": 48,
          "name": "C3",
          "ticks": 148992,
          "time": 242.5,
          "velocity": 0.7874015748031497
        },
        {
          "duration": 2.03125,
          "durationTicks": 1248,
          "midi": 53,
          "name": "F3",
          "ticks": 149088,
          "time": 242.65625,
          "velocity": 0.7874015748031497
        },
        {
          "duration": 1.875,
          "durationTicks": 1152,
          "midi": 56,
          "name": "G#3",
          "ticks": 149184,
          "time": 242.8125,
          "velocity": 0.7874015748031497
        },
        {
          "duration": 2.1875,
          "durationTicks": 1344,
          "midi": 48,
          "name": "C3",
          "ticks": 150528,
          "time": 245,
          "velocity": 0.7874015748031497
        },
        {
          "duration": 2.03125,
          "durationTicks": 1248,
          "midi": 53,
          "name": "F3",
          "ticks": 150624,
          "time": 245.15625,
          "velocity": 0.7874015748031497
        },
        {
          "duration": 1.875,
          "durationTicks": 1152,
          "midi": 58,
          "name": "A#3",
          "ticks": 150720,
          "time": 245.3125,
          "velocity": 0.7874015748031497
        },
        {
          "duration": 0.9375,
          "durationTicks": 576,
          "midi": 48,
          "name": "C3",
          "ticks": 152064,
          "time": 247.5,
          "velocity": 0.7874015748031497
        },
        {
          "duration": 0.78125,
          "durationTicks": 480,
          "midi": 53,
          "name": "F3",
          "ticks": 152160,
          "time": 247.65625,
          "velocity": 0.7874015748031497
        },
        {
          "duration": 0.625,
          "durationTicks": 384,
          "midi": 58,
          "name": "A#3",
          "ticks": 152256,
          "time": 247.8125,
          "velocity": 0.7874015748031497
        },
        {
          "duration": 0.46875,
          "durationTicks": 288,
          "midi": 60,
          "name": "C4",
          "ticks": 152352,
          "time": 247.96875,
          "velocity": 0.7874015748031497
        },
        {
          "duration": 0.3125,
          "durationTicks": 192,
          "midi": 61,
          "name": "C#4",
          "ticks": 152832,
          "time": 248.75,
          "velocity": 0.7874015748031497
        },
        {
          "duration": 0.3125,
          "durationTicks": 192,
          "midi": 58,
          "name": "A#3",
          "ticks": 153216,
          "time": 249.375,
          "velocity": 0.7874015748031497
        },
        {
          "duration": 2.1875,
          "durationTicks": 1344,
          "midi": 48,
          "name": "C3",
          "ticks": 153600,
          "time": 250,
          "velocity": 0.7874015748031497
        },
        {
          "duration": 2.03125,
          "durationTicks": 1248,
          "midi": 53,
          "name": "F3",
          "ticks": 153696,
          "time": 250.15625,
          "velocity": 0.7874015748031497
        },
        {
          "duration": 1.875,
          "durationTicks": 1152,
          "midi": 55,
          "name": "G3",
          "ticks": 153792,
          "time": 250.3125,
          "velocity": 0.7874015748031497
        },
        {
          "duration": 2.1875,
          "durationTicks": 1344,
          "midi": 48,
          "name": "C3",
          "ticks": 155136,
          "time": 252.5,
          "velocity": 0.7874015748031497
        },
        {
          "duration": 2.03125,
          "durationTicks": 1248,
          "midi": 53,
          "name": "F3",
          "ticks": 155232,
          "time": 252.65625,
          "velocity": 0.7874015748031497
        },
        {
          "duration": 1.875,
          "durationTicks": 1152,
          "midi": 56,
          "name": "G#3",
          "ticks": 155328,
          "time": 252.8125,
          "velocity": 0.7874015748031497
        },
        {
          "duration": 2.1875,
          "durationTicks": 1344,
          "midi": 48,
          "name": "C3",
          "ticks": 156672,
          "time": 255,
          "velocity": 0.7874015748031497
        },
        {
          "duration": 2.03125,
          "durationTicks": 1248,
          "midi": 53,
          "name": "F3",
          "ticks": 156768,
          "time": 255.15625,
          "velocity": 0.7874015748031497
        },
        {
          "duration": 1.875,
          "durationTicks": 1152,
          "midi": 58,
          "name": "A#3",
          "ticks": 156864,
          "time": 255.3125,
          "velocity": 0.7874015748031497
        },
        {
          "duration": 0.9375,
          "durationTicks": 576,
          "midi": 48,
          "name": "C3",
          "ticks": 158208,
          "time": 257.5,
          "velocity": 0.7874015748031497
        },
        {
          "duration": 0.78125,
          "durationTicks": 480,
          "midi": 53,
          "name": "F3",
          "ticks": 158304,
          "time": 257.65625,
          "velocity": 0.7874015748031497
        },
        {
          "duration": 0.625,
          "durationTicks": 384,
          "midi": 58,
          "name": "A#3",
          "ticks": 158400,
          "time": 257.8125,
          "velocity": 0.7874015748031497
        },
        {
          "duration": 0.46875,
          "durationTicks": 288,
          "midi": 60,
          "name": "C4",
          "ticks": 158496,
          "time": 257.96875,
          "velocity": 0.7874015748031497
        },
        {
          "duration": 0.3125,
          "durationTicks": 192,
          "midi": 61,
          "name": "C#4",
          "ticks": 158976,
          "time": 258.75,
          "velocity": 0.7874015748031497
        },
        {
          "duration": 0.3125,
          "durationTicks": 192,
          "midi": 58,
          "name": "A#3",
          "ticks": 159360,
          "time": 259.375,
          "velocity": 0.7874015748031497
        },
        {
          "duration": 1.25,
          "durationTicks": 768,
          "midi": 53,
          "name": "F3",
          "ticks": 159744,
          "time": 260,
          "velocity": 0.7874015748031497
        },
        {
          "duration": 2.1875,
          "durationTicks": 1344,
          "midi": 48,
          "name": "C3",
          "ticks": 172032,
          "time": 280,
          "velocity": 0.7874015748031497
        },
        {
          "duration": 2.03125,
          "durationTicks": 1248,
          "midi": 53,
          "name": "F3",
          "ticks": 172128,
          "time": 280.15625,
          "velocity": 0.7874015748031497
        },
        {
          "duration": 1.875,
          "durationTicks": 1152,
          "midi": 55,
          "name": "G3",
          "ticks": 172224,
          "time": 280.3125,
          "velocity": 0.7874015748031497
        },
        {
          "duration": 2.1875,
          "durationTicks": 1344,
          "midi": 48,
          "name": "C3",
          "ticks": 173568,
          "time": 282.5,
          "velocity": 0.7874015748031497
        },
        {
          "duration": 2.03125,
          "durationTicks": 1248,
          "midi": 53,
          "name": "F3",
          "ticks": 173664,
          "time": 282.65625,
          "velocity": 0.7874015748031497
        },
        {
          "duration": 1.875,
          "durationTicks": 1152,
          "midi": 56,
          "name": "G#3",
          "ticks": 173760,
          "time": 282.8125,
          "velocity": 0.7874015748031497
        },
        {
          "duration": 2.1875,
          "durationTicks": 1344,
          "midi": 48,
          "name": "C3",
          "ticks": 175104,
          "time": 285,
          "velocity": 0.7874015748031497
        },
        {
          "duration": 2.03125,
          "durationTicks": 1248,
          "midi": 53,
          "name": "F3",
          "ticks": 175200,
          "time": 285.15625,
          "velocity": 0.7874015748031497
        },
        {
          "duration": 1.875,
          "durationTicks": 1152,
          "midi": 58,
          "name": "A#3",
          "ticks": 175296,
          "time": 285.3125,
          "velocity": 0.7874015748031497
        },
        {
          "duration": 0.9375,
          "durationTicks": 576,
          "midi": 48,
          "name": "C3",
          "ticks": 176640,
          "time": 287.5,
          "velocity": 0.7874015748031497
        },
        {
          "duration": 0.78125,
          "durationTicks": 480,
          "midi": 53,
          "name": "F3",
          "ticks": 176736,
          "time": 287.65625,
          "velocity": 0.7874015748031497
        },
        {
          "duration": 0.625,
          "durationTicks": 384,
          "midi": 58,
          "name": "A#3",
          "ticks": 176832,
          "time": 287.8125,
          "velocity": 0.7874015748031497
        },
        {
          "duration": 0.46875,
          "durationTicks": 288,
          "midi": 60,
          "name": "C4",
          "ticks": 176928,
          "time": 287.96875,
          "velocity": 0.7874015748031497
        },
        {
          "duration": 0.3125,
          "durationTicks": 192,
          "midi": 61,
          "name": "C#4",
          "ticks": 177408,
          "time": 288.75,
          "velocity": 0.7874015748031497
        },
        {
          "duration": 0.3125,
          "durationTicks": 192,
          "midi": 58,
          "name": "A#3",
          "ticks": 177792,
          "time": 289.375,
          "velocity": 0.7874015748031497
        },
        {
          "duration": 2.1875,
          "durationTicks": 1344,
          "midi": 48,
          "name": "C3",
          "ticks": 178176,
          "time": 290,
          "velocity": 0.7874015748031497
        },
        {
          "duration": 2.03125,
          "durationTicks": 1248,
          "midi": 53,
          "name": "F3",
          "ticks": 178272,
          "time": 290.15625,
          "velocity": 0.7874015748031497
        },
        {
          "duration": 1.875,
          "durationTicks": 1152,
          "midi": 55,
          "name": "G3",
          "ticks": 178368,
          "time": 290.3125,
          "velocity": 0.7874015748031497
        },
        {
          "duration": 2.1875,
          "durationTicks": 1344,
          "midi": 48,
          "name": "C3",
          "ticks": 179712,
          "time": 292.5,
          "velocity": 0.7874015748031497
        },
        {
          "duration": 2.03125,
          "durationTicks": 1248,
          "midi": 53,
          "name": "F3",
          "ticks": 179808,
          "time": 292.65625,
          "velocity": 0.7874015748031497
        },
        {
          "duration": 1.875,
          "durationTicks": 1152,
          "midi": 56,
          "name": "G#3",
          "ticks": 179904,
          "time": 292.8125,
          "velocity": 0.7874015748031497
        },
        {
          "duration": 2.1875,
          "durationTicks": 1344,
          "midi": 48,
          "name": "C3",
          "ticks": 181248,
          "time": 295,
          "velocity": 0.7874015748031497
        },
        {
          "duration": 2.03125,
          "durationTicks": 1248,
          "midi": 53,
          "name": "F3",
          "ticks": 181344,
          "time": 295.15625,
          "velocity": 0.7874015748031497
        },
        {
          "duration": 1.875,
          "durationTicks": 1152,
          "midi": 58,
          "name": "A#3",
          "ticks": 181440,
          "time": 295.3125,
          "velocity": 0.7874015748031497
        },
        {
          "duration": 0.9375,
          "durationTicks": 576,
          "midi": 48,
          "name": "C3",
          "ticks": 182784,
          "time": 297.5,
          "velocity": 0.7874015748031497
        },
        {
          "duration": 0.78125,
          "durationTicks": 480,
          "midi": 53,
          "name": "F3",
          "ticks": 182880,
          "time": 297.65625,
          "velocity": 0.7874015748031497
        },
        {
          "duration": 0.625,
          "durationTicks": 384,
          "midi": 58,
          "name": "A#3",
          "ticks": 182976,
          "time": 297.8125,
          "velocity": 0.7874015748031497
        },
        {
          "duration": 0.46875,
          "durationTicks": 288,
          "midi": 60,
          "name": "C4",
          "ticks": 183072,
          "time": 297.96875,
          "velocity": 0.7874015748031497
        },
        {
          "duration": 1.25,
          "durationTicks": 768,
          "midi": 53,
          "name": "F3",
          "ticks": 184320,
          "time": 300,
          "velocity": 0.7874015748031497
        }
      ],
      "endOfTrackTicks": 185088
    },
    {
      "channel": 7,
      "controlChanges": {},
      "pitchBends": [],
      "instrument": {
        "family": "strings",
        "number": 43,
        "name": "contrabass"
      },
      "name": "Strings (Sustain)",
      "notes": [
        {
          "duration": 2.1875,
          "durationTicks": 1344,
          "midi": 43,
          "name": "G2",
          "ticks": 18432,
          "time": 30,
          "velocity": 0.5433070866141733
        },
        {
          "duration": 2.1875,
          "durationTicks": 1344,
          "midi": 36,
          "name": "C2",
          "ticks": 18432,
          "time": 30,
          "velocity": 0.5433070866141733
        },
        {
          "duration": 2.1875,
          "durationTicks": 1344,
          "midi": 55,
          "name": "G3",
          "ticks": 18432,
          "time": 30,
          "velocity": 0.49606299212598426
        },
        {
          "duration": 2.1875,
          "durationTicks": 1344,
          "midi": 48,
          "name": "C3",
          "ticks": 18432,
          "time": 30,
          "velocity": 0.5433070866141733
        },
        {
          "duration": 2.1875,
          "durationTicks": 1344,
          "midi": 44,
          "name": "G#2",
          "ticks": 19968,
          "time": 32.5,
          "velocity": 0.5433070866141733
        },
        {
          "duration": 2.1875,
          "durationTicks": 1344,
          "midi": 37,
          "name": "C#2",
          "ticks": 19968,
          "time": 32.5,
          "velocity": 0.5433070866141733
        },
        {
          "duration": 2.1875,
          "durationTicks": 1344,
          "midi": 56,
          "name": "G#3",
          "ticks": 19968,
          "time": 32.5,
          "velocity": 0.49606299212598426
        },
        {
          "duration": 2.1875,
          "durationTicks": 1344,
          "midi": 49,
          "name": "C#3",
          "ticks": 19968,
          "time": 32.5,
          "velocity": 0.5433070866141733
        },
        {
          "duration": 2.1875,
          "durationTicks": 1344,
          "midi": 46,
          "name": "A#2",
          "ticks": 21504,
          "time": 35,
          "velocity": 0.5433070866141733
        },
        {
          "duration": 2.1875,
          "durationTicks": 1344,
          "midi": 39,
          "name": "D#2",
          "ticks": 21504,
          "time": 35,
          "velocity": 0.5433070866141733
        },
        {
          "duration": 2.1875,
          "durationTicks": 1344,
          "midi": 58,
          "name": "A#3",
          "ticks": 21504,
          "time": 35,
          "velocity": 0.49606299212598426
        },
        {
          "duration": 2.1875,
          "durationTicks": 1344,
          "midi": 51,
          "name": "D#3",
          "ticks": 21504,
          "time": 35,
          "velocity": 0.5433070866141733
        },
        {
          "duration": 2.1875,
          "durationTicks": 1344,
          "midi": 53,
          "name": "F3",
          "ticks": 23040,
          "time": 37.5,
          "velocity": 0.49606299212598426
        },
        {
          "duration": 2.1875,
          "durationTicks": 1344,
          "midi": 41,
          "name": "F2",
          "ticks": 23040,
          "time": 37.5,
          "velocity": 0.5433070866141733
        },
        {
          "duration": 2.1875,
          "durationTicks": 1344,
          "midi": 48,
          "name": "C3",
          "ticks": 23040,
          "time": 37.5,
          "velocity": 0.5433070866141733
        },
        {
          "duration": 2.1875,
          "durationTicks": 1344,
          "midi": 60,
          "name": "C4",
          "ticks": 23040,
          "time": 37.5,
          "velocity": 0.5433070866141733
        },
        {
          "duration": 2.1875,
          "durationTicks": 1344,
          "midi": 55,
          "name": "G3",
          "ticks": 24576,
          "time": 40,
          "velocity": 0.49606299212598426
        },
        {
          "duration": 2.1875,
          "durationTicks": 1344,
          "midi": 43,
          "name": "G2",
          "ticks": 24576,
          "time": 40,
          "velocity": 0.5433070866141733
        },
        {
          "duration": 2.1875,
          "durationTicks": 1344,
          "midi": 36,
          "name": "C2",
          "ticks": 24576,
          "time": 40,
          "velocity": 0.5433070866141733
        },
        {
          "duration": 2.1875,
          "durationTicks": 1344,
          "midi": 48,
          "name": "C3",
          "ticks": 24576,
          "time": 40,
          "velocity": 0.5433070866141733
        },
        {
          "duration": 2.1875,
          "durationTicks": 1344,
          "midi": 37,
          "name": "C#2",
          "ticks": 26112,
          "time": 42.5,
          "velocity": 0.5433070866141733
        },
        {
          "duration": 2.1875,
          "durationTicks": 1344,
          "midi": 44,
          "name": "G#2",
          "ticks": 26112,
          "time": 42.5,
          "velocity": 0.5433070866141733
        },
        {
          "duration": 2.1875,
          "durationTicks": 1344,
          "midi": 56,
          "name": "G#3",
          "ticks": 26112,
          "time": 42.5,
          "velocity": 0.49606299212598426
        },
        {
          "duration": 2.1875,
          "durationTicks": 1344,
          "midi": 49,
          "name": "C#3",
          "ticks": 26112,
          "time": 42.5,
          "velocity": 0.5433070866141733
        },
        {
          "duration": 2.1875,
          "durationTicks": 1344,
          "midi": 51,
          "name": "D#3",
          "ticks": 27648,
          "time": 45,
          "velocity": 0.5433070866141733
        },
        {
          "duration": 2.1875,
          "durationTicks": 1344,
          "midi": 39,
          "name": "D#2",
          "ticks": 27648,
          "time": 45,
          "velocity": 0.5433070866141733
        },
        {
          "duration": 2.1875,
          "durationTicks": 1344,
          "midi": 46,
          "name": "A#2",
          "ticks": 27648,
          "time": 45,
          "velocity": 0.5433070866141733
        },
        {
          "duration": 2.1875,
          "durationTicks": 1344,
          "midi": 58,
          "name": "A#3",
          "ticks": 27648,
          "time": 45,
          "velocity": 0.49606299212598426
        },
        {
          "duration": 2.1875,
          "durationTicks": 1344,
          "midi": 48,
          "name": "C3",
          "ticks": 29184,
          "time": 47.5,
          "velocity": 0.5433070866141733
        },
        {
          "duration": 2.1875,
          "durationTicks": 1344,
          "midi": 41,
          "name": "F2",
          "ticks": 29184,
          "time": 47.5,
          "velocity": 0.5433070866141733
        },
        {
          "duration": 2.1875,
          "durationTicks": 1344,
          "midi": 53,
          "name": "F3",
          "ticks": 29184,
          "time": 47.5,
          "velocity": 0.49606299212598426
        },
        {
          "duration": 2.1875,
          "durationTicks": 1344,
          "midi": 60,
          "name": "C4",
          "ticks": 29184,
          "time": 47.5,
          "velocity": 0.5433070866141733
        },
        {
          "duration": 2.1875,
          "durationTicks": 1344,
          "midi": 51,
          "name": "D#3",
          "ticks": 30720,
          "time": 50,
          "velocity": 0.5433070866141733
        },
        {
          "duration": 2.1875,
          "durationTicks": 1344,
          "midi": 39,
          "name": "D#2",
          "ticks": 30720,
          "time": 50,
          "velocity": 0.5433070866141733
        },
        {
          "duration": 2.1875,
          "durationTicks": 1344,
          "midi": 58,
          "name": "A#3",
          "ticks": 30720,
          "time": 50,
          "velocity": 0.49606299212598426
        },
        {
          "duration": 2.1875,
          "durationTicks": 1344,
          "midi": 46,
          "name": "A#2",
          "ticks": 30720,
          "time": 50,
          "velocity": 0.5433070866141733
        },
        {
          "duration": 2.1875,
          "durationTicks": 1344,
          "midi": 49,
          "name": "C#3",
          "ticks": 32256,
          "time": 52.5,
          "velocity": 0.5433070866141733
        },
        {
          "duration": 2.1875,
          "durationTicks": 1344,
          "midi": 37,
          "name": "C#2",
          "ticks": 32256,
          "time": 52.5,
          "velocity": 0.5433070866141733
        },
        {
          "duration": 2.1875,
          "durationTicks": 1344,
          "midi": 44,
          "name": "G#2",
          "ticks": 32256,
          "time": 52.5,
          "velocity": 0.5433070866141733
        },
        {
          "duration": 2.1875,
          "durationTicks": 1344,
          "midi": 56,
          "name": "G#3",
          "ticks": 32256,
          "time": 52.5,
          "velocity": 0.49606299212598426
        },
        {
          "duration": 2.1875,
          "durationTicks": 1344,
          "midi": 48,
          "name": "C3",
          "ticks": 33792,
          "time": 55,
          "velocity": 0.5433070866141733
        },
        {
          "duration": 2.1875,
          "durationTicks": 1344,
          "midi": 55,
          "name": "G3",
          "ticks": 33792,
          "time": 55,
          "velocity": 0.49606299212598426
        },
        {
          "duration": 2.1875,
          "durationTicks": 1344,
          "midi": 36,
          "name": "C2",
          "ticks": 33792,
          "time": 55,
          "velocity": 0.5433070866141733
        },
        {
          "duration": 2.1875,
          "durationTicks": 1344,
          "midi": 43,
          "name": "G2",
          "ticks": 33792,
          "time": 55,
          "velocity": 0.5433070866141733
        },
        {
          "duration": 2.1875,
          "durationTicks": 1344,
          "midi": 67,
          "name": "G4",
          "ticks": 35328,
          "time": 57.5,
          "velocity": 0.5433070866141733
        },
        {
          "duration": 2.1875,
          "durationTicks": 1344,
          "midi": 48,
          "name": "C3",
          "ticks": 35328,
          "time": 57.5,
          "velocity": 0.5433070866141733
        },
        {
          "duration": 2.1875,
          "durationTicks": 1344,
          "midi": 60,
          "name": "C4",
          "ticks": 35328,
          "time": 57.5,
          "velocity": 0.5433070866141733
        },
        {
          "duration": 2.1875,
          "durationTicks": 1344,
          "midi": 55,
          "name": "G3",
          "ticks": 35328,
          "time": 57.5,
          "velocity": 0.49606299212598426
        },
        {
          "duration": 2.1875,
          "durationTicks": 1344,
          "midi": 48,
          "name": "C3",
          "ticks": 36864,
          "time": 60,
          "velocity": 0.5433070866141733
        },
        {
          "duration": 2.1875,
          "durationTicks": 1344,
          "midi": 55,
          "name": "G3",
          "ticks": 36864,
          "time": 60,
          "velocity": 0.49606299212598426
        },
        {
          "duration": 2.1875,
          "durationTicks": 1344,
          "midi": 36,
          "name": "C2",
          "ticks": 36864,
          "time": 60,
          "velocity": 0.5433070866141733
        },
        {
          "duration": 2.1875,
          "durationTicks": 1344,
          "midi": 43,
          "name": "G2",
          "ticks": 36864,
          "time": 60,
          "velocity": 0.5433070866141733
        },
        {
          "duration": 2.1875,
          "durationTicks": 1344,
          "midi": 37,
          "name": "C#2",
          "ticks": 38400,
          "time": 62.5,
          "velocity": 0.5433070866141733
        },
        {
          "duration": 2.1875,
          "durationTicks": 1344,
          "midi": 44,
          "name": "G#2",
          "ticks": 38400,
          "time": 62.5,
          "velocity": 0.5433070866141733
        },
        {
          "duration": 2.1875,
          "durationTicks": 1344,
          "midi": 56,
          "name": "G#3",
          "ticks": 38400,
          "time": 62.5,
          "velocity": 0.49606299212598426
        },
        {
          "duration": 2.1875,
          "durationTicks": 1344,
          "midi": 49,
          "name": "C#3",
          "ticks": 38400,
          "time": 62.5,
          "velocity": 0.5433070866141733
        },
        {
          "duration": 2.1875,
          "durationTicks": 1344,
          "midi": 46,
          "name": "A#2",
          "ticks": 39936,
          "time": 65,
          "velocity": 0.5433070866141733
        },
        {
          "duration": 2.1875,
          "durationTicks": 1344,
          "midi": 39,
          "name": "D#2",
          "ticks": 39936,
          "time": 65,
          "velocity": 0.5433070866141733
        },
        {
          "duration": 2.1875,
          "durationTicks": 1344,
          "midi": 58,
          "name": "A#3",
          "ticks": 39936,
          "time": 65,
          "velocity": 0.49606299212598426
        },
        {
          "duration": 2.1875,
          "durationTicks": 1344,
          "midi": 51,
          "name": "D#3",
          "ticks": 39936,
          "time": 65,
          "velocity": 0.5433070866141733
        },
        {
          "duration": 2.1875,
          "durationTicks": 1344,
          "midi": 53,
          "name": "F3",
          "ticks": 41472,
          "time": 67.5,
          "velocity": 0.49606299212598426
        },
        {
          "duration": 2.1875,
          "durationTicks": 1344,
          "midi": 41,
          "name": "F2",
          "ticks": 41472,
          "time": 67.5,
          "velocity": 0.5433070866141733
        },
        {
          "duration": 2.1875,
          "durationTicks": 1344,
          "midi": 48,
          "name": "C3",
          "ticks": 41472,
          "time": 67.5,
          "velocity": 0.5433070866141733
        },
        {
          "duration": 2.1875,
          "durationTicks": 1344,
          "midi": 60,
          "name": "C4",
          "ticks": 41472,
          "time": 67.5,
          "velocity": 0.5433070866141733
        },
        {
          "duration": 2.1875,
          "durationTicks": 1344,
          "midi": 55,
          "name": "G3",
          "ticks": 43008,
          "time": 70,
          "velocity": 0.49606299212598426
        },
        {
          "duration": 2.1875,
          "durationTicks": 1344,
          "midi": 43,
          "name": "G2",
          "ticks": 43008,
          "time": 70,
          "velocity": 0.5433070866141733
        },
        {
          "duration": 2.1875,
          "durationTicks": 1344,
          "midi": 50,
          "name": "D3",
          "ticks": 43008,
          "time": 70,
          "velocity": 0.5433070866141733
        },
        {
          "duration": 2.1875,
          "durationTicks": 1344,
          "midi": 62,
          "name": "D4",
          "ticks": 43008,
          "time": 70,
          "velocity": 0.5433070866141733
        },
        {
          "duration": 2.1875,
          "durationTicks": 1344,
          "midi": 44,
          "name": "G#2",
          "ticks": 44544,
          "time": 72.5,
          "velocity": 0.5433070866141733
        },
        {
          "duration": 2.1875,
          "durationTicks": 1344,
          "midi": 51,
          "name": "D#3",
          "ticks": 44544,
          "time": 72.5,
          "velocity": 0.5433070866141733
        },
        {
          "duration": 2.1875,
          "durationTicks": 1344,
          "midi": 63,
          "name": "D#4",
          "ticks": 44544,
          "time": 72.5,
          "velocity": 0.5433070866141733
        },
        {
          "duration": 2.1875,
          "durationTicks": 1344,
          "midi": 56,
          "name": "G#3",
          "ticks": 44544,
          "time": 72.5,
          "velocity": 0.49606299212598426
        },
        {
          "duration": 2.1875,
          "durationTicks": 1344,
          "midi": 65,
          "name": "F4",
          "ticks": 46080,
          "time": 75,
          "velocity": 0.5433070866141733
        },
        {
          "duration": 2.1875,
          "durationTicks": 1344,
          "midi": 46,
          "name": "A#2",
          "ticks": 46080,
          "time": 75,
          "velocity": 0.5433070866141733
        },
        {
          "duration": 2.1875,
          "durationTicks": 1344,
          "midi": 58,
          "name": "A#3",
          "ticks": 46080,
          "time": 75,
          "velocity": 0.49606299212598426
        },
        {
          "duration": 2.1875,
          "durationTicks": 1344,
          "midi": 53,
          "name": "F3",
          "ticks": 46080,
          "time": 75,
          "velocity": 0.49606299212598426
        },
        {
          "duration": 2.1875,
          "durationTicks": 1344,
          "midi": 55,
          "name": "G3",
          "ticks": 47616,
          "time": 77.5,
          "velocity": 0.49606299212598426
        },
        {
          "duration": 2.1875,
          "durationTicks": 1344,
          "midi": 48,
          "name": "C3",
          "ticks": 47616,
          "time": 77.5,
          "velocity": 0.5433070866141733
        },
        {
          "duration": 2.1875,
          "durationTicks": 1344,
          "midi": 67,
          "name": "G4",
          "ticks": 47616,
          "time": 77.5,
          "velocity": 0.5433070866141733
        },
        {
          "duration": 2.1875,
          "durationTicks": 1344,
          "midi": 60,
          "name": "C4",
          "ticks": 47616,
          "time": 77.5,
          "velocity": 0.5433070866141733
        },
        {
          "duration": 0.3125,
          "durationTicks": 192,
          "midi": 36,
          "name": "C2",
          "ticks": 49152,
          "time": 80,
          "velocity": 0.5433070866141733
        },
        {
          "duration": 0.3125,
          "durationTicks": 192,
          "midi": 43,
          "name": "G2",
          "ticks": 49152,
          "time": 80,
          "velocity": 0.5433070866141733
        },
        {
          "duration": 0.3125,
          "durationTicks": 192,
          "midi": 55,
          "name": "G3",
          "ticks": 49152,
          "time": 80,
          "velocity": 0.49606299212598426
        },
        {
          "duration": 0.3125,
          "durationTicks": 192,
          "midi": 48,
          "name": "C3",
          "ticks": 49152,
          "time": 80,
          "velocity": 0.5433070866141733
        },
        {
          "duration": 0.3125,
          "durationTicks": 192,
          "midi": 55,
          "name": "G3",
          "ticks": 55296,
          "time": 90,
          "velocity": 0.49606299212598426
        },
        {
          "duration": 0.3125,
          "durationTicks": 192,
          "midi": 48,
          "name": "C3",
          "ticks": 55296,
          "time": 90,
          "velocity": 0.5433070866141733
        },
        {
          "duration": 0.3125,
          "durationTicks": 192,
          "midi": 43,
          "name": "G2",
          "ticks": 55296,
          "time": 90,
          "velocity": 0.5433070866141733
        },
        {
          "duration": 0.3125,
          "durationTicks": 192,
          "midi": 36,
          "name": "C2",
          "ticks": 55296,
          "time": 90,
          "velocity": 0.5433070866141733
        },
        {
          "duration": 2.1875,
          "durationTicks": 1344,
          "midi": 48,
          "name": "C3",
          "ticks": 61440,
          "time": 100,
          "velocity": 0.5433070866141733
        },
        {
          "duration": 2.1875,
          "durationTicks": 1344,
          "midi": 55,
          "name": "G3",
          "ticks": 61440,
          "time": 100,
          "velocity": 0.49606299212598426
        },
        {
          "duration": 2.1875,
          "durationTicks": 1344,
          "midi": 56,
          "name": "G#3",
          "ticks": 62976,
          "time": 102.5,
          "velocity": 0.49606299212598426
        },
        {
          "duration": 2.1875,
          "durationTicks": 1344,
          "midi": 49,
          "name": "C#3",
          "ticks": 62976,
          "time": 102.5,
          "velocity": 0.5433070866141733
        },
        {
          "duration": 2.1875,
          "durationTicks": 1344,
          "midi": 53,
          "name": "F3",
          "ticks": 64512,
          "time": 105,
          "velocity": 0.49606299212598426
        },
        {
          "duration": 2.1875,
          "durationTicks": 1344,
          "midi": 46,
          "name": "A#2",
          "ticks": 64512,
          "time": 105,
          "velocity": 0.5433070866141733
        },
        {
          "duration": 2.1875,
          "durationTicks": 1344,
          "midi": 55,
          "name": "G3",
          "ticks": 67584,
          "time": 110,
          "velocity": 0.49606299212598426
        },
        {
          "duration": 2.1875,
          "durationTicks": 1344,
          "midi": 48,
          "name": "C3",
          "ticks": 67584,
          "time": 110,
          "velocity": 0.5433070866141733
        },
        {
          "duration": 2.1875,
          "durationTicks": 1344,
          "midi": 49,
          "name": "C#3",
          "ticks": 69120,
          "time": 112.5,
          "velocity": 0.5433070866141733
        },
        {
          "duration": 2.1875,
          "durationTicks": 1344,
          "midi": 56,
          "name": "G#3",
          "ticks": 69120,
          "time": 112.5,
          "velocity": 0.49606299212598426
        },
        {
          "duration": 2.1875,
          "durationTicks": 1344,
          "midi": 51,
          "name": "D#3",
          "ticks": 70656,
          "time": 115,
          "velocity": 0.5433070866141733
        },
        {
          "duration": 2.1875,
          "durationTicks": 1344,
          "midi": 58,
          "name": "A#3",
          "ticks": 70656,
          "time": 115,
          "velocity": 0.49606299212598426
        },
        {
          "duration": 2.1875,
          "durationTicks": 1344,
          "midi": 53,
          "name": "F3",
          "ticks": 72192,
          "time": 117.5,
          "velocity": 0.49606299212598426
        },
        {
          "duration": 2.1875,
          "durationTicks": 1344,
          "midi": 60,
          "name": "C4",
          "ticks": 72192,
          "time": 117.5,
          "velocity": 0.5433070866141733
        },
        {
          "duration": 0.625,
          "durationTicks": 384,
          "midi": 60,
          "name": "C4",
          "ticks": 73728,
          "time": 120,
          "velocity": 0.5433070866141733
        },
        {
          "duration": 0.625,
          "durationTicks": 384,
          "midi": 53,
          "name": "F3",
          "ticks": 73728,
          "time": 120,
          "velocity": 0.49606299212598426
        },
        {
          "duration": 2.1875,
          "durationTicks": 1344,
          "midi": 55,
          "name": "G3",
          "ticks": 79872,
          "time": 130,
          "velocity": 0.49606299212598426
        },
        {
          "duration": 2.1875,
          "durationTicks": 1344,
          "midi": 48,
          "name": "C3",
          "ticks": 79872,
          "time": 130,
          "velocity": 0.5433070866141733
        },
        {
          "duration": 2.1875,
          "durationTicks": 1344,
          "midi": 56,
          "name": "G#3",
          "ticks": 81408,
          "time": 132.5,
          "velocity": 0.49606299212598426
        },
        {
          "duration": 2.1875,
          "durationTicks": 1344,
          "midi": 49,
          "name": "C#3",
          "ticks": 81408,
          "time": 132.5,
          "velocity": 0.5433070866141733
        },
        {
          "duration": 2.1875,
          "durationTicks": 1344,
          "midi": 53,
          "name": "F3",
          "ticks": 82944,
          "time": 135,
          "velocity": 0.49606299212598426
        },
        {
          "duration": 2.1875,
          "durationTicks": 1344,
          "midi": 46,
          "name": "A#2",
          "ticks": 82944,
          "time": 135,
          "velocity": 0.5433070866141733
        },
        {
          "duration": 2.1875,
          "durationTicks": 1344,
          "midi": 55,
          "name": "G3",
          "ticks": 92160,
          "time": 150,
          "velocity": 0.49606299212598426
        },
        {
          "duration": 2.1875,
          "durationTicks": 1344,
          "midi": 48,
          "name": "C3",
          "ticks": 92160,
          "time": 150,
          "velocity": 0.5433070866141733
        },
        {
          "duration": 2.1875,
          "durationTicks": 1344,
          "midi": 56,
          "name": "G#3",
          "ticks": 93696,
          "time": 152.5,
          "velocity": 0.49606299212598426
        },
        {
          "duration": 2.1875,
          "durationTicks": 1344,
          "midi": 49,
          "name": "C#3",
          "ticks": 93696,
          "time": 152.5,
          "velocity": 0.5433070866141733
        },
        {
          "duration": 2.1875,
          "durationTicks": 1344,
          "midi": 58,
          "name": "A#3",
          "ticks": 95232,
          "time": 155,
          "velocity": 0.49606299212598426
        },
        {
          "duration": 2.1875,
          "durationTicks": 1344,
          "midi": 51,
          "name": "D#3",
          "ticks": 95232,
          "time": 155,
          "velocity": 0.5433070866141733
        },
        {
          "duration": 2.1875,
          "durationTicks": 1344,
          "midi": 60,
          "name": "C4",
          "ticks": 96768,
          "time": 157.5,
          "velocity": 0.5433070866141733
        },
        {
          "duration": 2.1875,
          "durationTicks": 1344,
          "midi": 53,
          "name": "F3",
          "ticks": 96768,
          "time": 157.5,
          "velocity": 0.49606299212598426
        },
        {
          "duration": 2.1875,
          "durationTicks": 1344,
          "midi": 55,
          "name": "G3",
          "ticks": 98304,
          "time": 160,
          "velocity": 0.49606299212598426
        },
        {
          "duration": 2.1875,
          "durationTicks": 1344,
          "midi": 48,
          "name": "C3",
          "ticks": 98304,
          "time": 160,
          "velocity": 0.5433070866141733
        },
        {
          "duration": 2.1875,
          "durationTicks": 1344,
          "midi": 49,
          "name": "C#3",
          "ticks": 99840,
          "time": 162.5,
          "velocity": 0.5433070866141733
        },
        {
          "duration": 2.1875,
          "durationTicks": 1344,
          "midi": 56,
          "name": "G#3",
          "ticks": 99840,
          "time": 162.5,
          "velocity": 0.49606299212598426
        },
        {
          "duration": 2.1875,
          "durationTicks": 1344,
          "midi": 58,
          "name": "A#3",
          "ticks": 101376,
          "time": 165,
          "velocity": 0.49606299212598426
        },
        {
          "duration": 2.1875,
          "durationTicks": 1344,
          "midi": 51,
          "name": "D#3",
          "ticks": 101376,
          "time": 165,
          "velocity": 0.5433070866141733
        },
        {
          "duration": 2.1875,
          "durationTicks": 1344,
          "midi": 60,
          "name": "C4",
          "ticks": 102912,
          "time": 167.5,
          "velocity": 0.5433070866141733
        },
        {
          "duration": 2.1875,
          "durationTicks": 1344,
          "midi": 53,
          "name": "F3",
          "ticks": 102912,
          "time": 167.5,
          "velocity": 0.49606299212598426
        },
        {
          "duration": 2.1875,
          "durationTicks": 1344,
          "midi": 48,
          "name": "C3",
          "ticks": 104448,
          "time": 170,
          "velocity": 0.5433070866141733
        },
        {
          "duration": 2.1875,
          "durationTicks": 1344,
          "midi": 55,
          "name": "G3",
          "ticks": 104448,
          "time": 170,
          "velocity": 0.49606299212598426
        },
        {
          "duration": 2.1875,
          "durationTicks": 1344,
          "midi": 49,
          "name": "C#3",
          "ticks": 105984,
          "time": 172.5,
          "velocity": 0.5433070866141733
        },
        {
          "duration": 2.1875,
          "durationTicks": 1344,
          "midi": 56,
          "name": "G#3",
          "ticks": 105984,
          "time": 172.5,
          "velocity": 0.49606299212598426
        },
        {
          "duration": 2.1875,
          "durationTicks": 1344,
          "midi": 58,
          "name": "A#3",
          "ticks": 107520,
          "time": 175,
          "velocity": 0.49606299212598426
        },
        {
          "duration": 2.1875,
          "durationTicks": 1344,
          "midi": 51,
          "name": "D#3",
          "ticks": 107520,
          "time": 175,
          "velocity": 0.5433070866141733
        },
        {
          "duration": 2.1875,
          "durationTicks": 1344,
          "midi": 60,
          "name": "C4",
          "ticks": 109056,
          "time": 177.5,
          "velocity": 0.5433070866141733
        },
        {
          "duration": 2.1875,
          "durationTicks": 1344,
          "midi": 53,
          "name": "F3",
          "ticks": 109056,
          "time": 177.5,
          "velocity": 0.49606299212598426
        },
        {
          "duration": 0.3125,
          "durationTicks": 192,
          "midi": 48,
          "name": "C3",
          "ticks": 110592,
          "time": 180,
          "velocity": 0.5433070866141733
        },
        {
          "duration": 0.3125,
          "durationTicks": 192,
          "midi": 55,
          "name": "G3",
          "ticks": 110592,
          "time": 180,
          "velocity": 0.49606299212598426
        },
        {
          "duration": 0.625,
          "durationTicks": 384,
          "midi": 53,
          "name": "F3",
          "ticks": 116736,
          "time": 190,
          "velocity": 0.49606299212598426
        },
        {
          "duration": 2.1875,
          "durationTicks": 1344,
          "midi": 55,
          "name": "G3",
          "ticks": 129024,
          "time": 210,
          "velocity": 0.49606299212598426
        },
        {
          "duration": 2.1875,
          "durationTicks": 1344,
          "midi": 48,
          "name": "C3",
          "ticks": 129024,
          "time": 210,
          "velocity": 0.5433070866141733
        },
        {
          "duration": 2.1875,
          "durationTicks": 1344,
          "midi": 56,
          "name": "G#3",
          "ticks": 130560,
          "time": 212.5,
          "velocity": 0.49606299212598426
        },
        {
          "duration": 2.1875,
          "durationTicks": 1344,
          "midi": 49,
          "name": "C#3",
          "ticks": 130560,
          "time": 212.5,
          "velocity": 0.5433070866141733
        },
        {
          "duration": 1.875,
          "durationTicks": 1152,
          "midi": 53,
          "name": "F3",
          "ticks": 132096,
          "time": 215,
          "velocity": 0.49606299212598426
        },
        {
          "duration": 1.875,
          "durationTicks": 1152,
          "midi": 46,
          "name": "A#2",
          "ticks": 132096,
          "time": 215,
          "velocity": 0.5433070866141733
        },
        {
          "duration": 0.15625,
          "durationTicks": 96,
          "midi": 51,
          "name": "D#3",
          "ticks": 133440,
          "time": 217.1875,
          "velocity": 0.5433070866141733
        },
        {
          "duration": 0.15625,
          "durationTicks": 96,
          "midi": 44,
          "name": "G#2",
          "ticks": 133440,
          "time": 217.1875,
          "velocity": 0.5433070866141733
        },
        {
          "duration": 2.1875,
          "durationTicks": 1344,
          "midi": 48,
          "name": "C3",
          "ticks": 133632,
          "time": 217.5,
          "velocity": 0.5433070866141733
        },
        {
          "duration": 2.1875,
          "durationTicks": 1344,
          "midi": 41,
          "name": "F2",
          "ticks": 133632,
          "time": 217.5,
          "velocity": 0.5433070866141733
        },
        {
          "duration": 2.1875,
          "durationTicks": 1344,
          "midi": 48,
          "name": "C3",
          "ticks": 135168,
          "time": 220,
          "velocity": 0.5433070866141733
        },
        {
          "duration": 2.1875,
          "durationTicks": 1344,
          "midi": 55,
          "name": "G3",
          "ticks": 135168,
          "time": 220,
          "velocity": 0.49606299212598426
        },
        {
          "duration": 2.1875,
          "durationTicks": 1344,
          "midi": 56,
          "name": "G#3",
          "ticks": 136704,
          "time": 222.5,
          "velocity": 0.49606299212598426
        },
        {
          "duration": 2.1875,
          "durationTicks": 1344,
          "midi": 49,
          "name": "C#3",
          "ticks": 136704,
          "time": 222.5,
          "velocity": 0.5433070866141733
        },
        {
          "duration": 1.875,
          "durationTicks": 1152,
          "midi": 53,
          "name": "F3",
          "ticks": 138240,
          "time": 225,
          "velocity": 0.49606299212598426
        },
        {
          "duration": 1.875,
          "durationTicks": 1152,
          "midi": 46,
          "name": "A#2",
          "ticks": 138240,
          "time": 225,
          "velocity": 0.5433070866141733
        },
        {
          "duration": 0.15625,
          "durationTicks": 96,
          "midi": 51,
          "name": "D#3",
          "ticks": 139584,
          "time": 227.1875,
          "velocity": 0.5433070866141733
        },
        {
          "duration": 0.15625,
          "durationTicks": 96,
          "midi": 44,
          "name": "G#2",
          "ticks": 139584,
          "time": 227.1875,
          "velocity": 0.5433070866141733
        },
        {
          "duration": 2.1875,
          "durationTicks": 1344,
          "midi": 48,
          "name": "C3",
          "ticks": 139776,
          "time": 227.5,
          "velocity": 0.5433070866141733
        },
        {
          "duration": 2.1875,
          "durationTicks": 1344,
          "midi": 41,
          "name": "F2",
          "ticks": 139776,
          "time": 227.5,
          "velocity": 0.5433070866141733
        },
        {
          "duration": 2.1875,
          "durationTicks": 1344,
          "midi": 55,
          "name": "G3",
          "ticks": 141312,
          "time": 230,
          "velocity": 0.49606299212598426
        },
        {
          "duration": 2.1875,
          "durationTicks": 1344,
          "midi": 48,
          "name": "C3",
          "ticks": 141312,
          "time": 230,
          "velocity": 0.5433070866141733
        },
        {
          "duration": 2.1875,
          "durationTicks": 1344,
          "midi": 56,
          "name": "G#3",
          "ticks": 142848,
          "time": 232.5,
          "velocity": 0.49606299212598426
        },
        {
          "duration": 2.1875,
          "durationTicks": 1344,
          "midi": 49,
          "name": "C#3",
          "ticks": 142848,
          "time": 232.5,
          "velocity": 0.5433070866141733
        },
        {
          "duration": 1.875,
          "durationTicks": 1152,
          "midi": 46,
          "name": "A#2",
          "ticks": 144384,
          "time": 235,
          "velocity": 0.5433070866141733
        },
        {
          "duration": 1.875,
          "durationTicks": 1152,
          "midi": 53,
          "name": "F3",
          "ticks": 144384,
          "time": 235,
          "velocity": 0.49606299212598426
        },
        {
          "duration": 0.15625,
          "durationTicks": 96,
          "midi": 51,
          "name": "D#3",
          "ticks": 145728,
          "time": 237.1875,
          "velocity": 0.5433070866141733
        },
        {
          "duration": 0.15625,
          "durationTicks": 96,
          "midi": 44,
          "name": "G#2",
          "ticks": 145728,
          "time": 237.1875,
          "velocity": 0.5433070866141733
        },
        {
          "duration": 2.1875,
          "durationTicks": 1344,
          "midi": 48,
          "name": "C3",
          "ticks": 145920,
          "time": 237.5,
          "velocity": 0.5433070866141733
        },
        {
          "duration": 2.1875,
          "durationTicks": 1344,
          "midi": 41,
          "name": "F2",
          "ticks": 145920,
          "time": 237.5,
          "velocity": 0.5433070866141733
        },
        {
          "duration": 2.1875,
          "durationTicks": 1344,
          "midi": 55,
          "name": "G3",
          "ticks": 147456,
          "time": 240,
          "velocity": 0.49606299212598426
        },
        {
          "duration": 2.1875,
          "durationTicks": 1344,
          "midi": 48,
          "name": "C3",
          "ticks": 147456,
          "time": 240,
          "velocity": 0.5433070866141733
        },
        {
          "duration": 2.1875,
          "durationTicks": 1344,
          "midi": 49,
          "name": "C#3",
          "ticks": 148992,
          "time": 242.5,
          "velocity": 0.5433070866141733
        },
        {
          "duration": 2.1875,
          "durationTicks": 1344,
          "midi": 56,
          "name": "G#3",
          "ticks": 148992,
          "time": 242.5,
          "velocity": 0.49606299212598426
        },
        {
          "duration": 1.875,
          "durationTicks": 1152,
          "midi": 53,
          "name": "F3",
          "ticks": 150528,
          "time": 245,
          "velocity": 0.49606299212598426
        },
        {
          "duration": 1.875,
          "durationTicks": 1152,
          "midi": 46,
          "name": "A#2",
          "ticks": 150528,
          "time": 245,
          "velocity": 0.5433070866141733
        },
        {
          "duration": 0.15625,
          "durationTicks": 96,
          "midi": 51,
          "name": "D#3",
          "ticks": 151872,
          "time": 247.1875,
          "velocity": 0.5433070866141733
        },
        {
          "duration": 0.15625,
          "durationTicks": 96,
          "midi": 44,
          "name": "G#2",
          "ticks": 151872,
          "time": 247.1875,
          "velocity": 0.5433070866141733
        },
        {
          "duration": 2.1875,
          "durationTicks": 1344,
          "midi": 41,
          "name": "F2",
          "ticks": 152064,
          "time": 247.5,
          "velocity": 0.5433070866141733
        },
        {
          "duration": 2.1875,
          "durationTicks": 1344,
          "midi": 48,
          "name": "C3",
          "ticks": 152064,
          "time": 247.5,
          "velocity": 0.5433070866141733
        },
        {
          "duration": 2.1875,
          "durationTicks": 1344,
          "midi": 55,
          "name": "G3",
          "ticks": 153600,
          "time": 250,
          "velocity": 0.49606299212598426
        },
        {
          "duration": 2.1875,
          "durationTicks": 1344,
          "midi": 48,
          "name": "C3",
          "ticks": 153600,
          "time": 250,
          "velocity": 0.5433070866141733
        },
        {
          "duration": 2.1875,
          "durationTicks": 1344,
          "midi": 56,
          "name": "G#3",
          "ticks": 155136,
          "time": 252.5,
          "velocity": 0.49606299212598426
        },
        {
          "duration": 2.1875,
          "durationTicks": 1344,
          "midi": 49,
          "name": "C#3",
          "ticks": 155136,
          "time": 252.5,
          "velocity": 0.5433070866141733
        },
        {
          "duration": 1.875,
          "durationTicks": 1152,
          "midi": 53,
          "name": "F3",
          "ticks": 156672,
          "time": 255,
          "velocity": 0.49606299212598426
        },
        {
          "duration": 1.875,
          "durationTicks": 1152,
          "midi": 46,
          "name": "A#2",
          "ticks": 156672,
          "time": 255,
          "velocity": 0.5433070866141733
        },
        {
          "duration": 0.15625,
          "durationTicks": 96,
          "midi": 51,
          "name": "D#3",
          "ticks": 158016,
          "time": 257.1875,
          "velocity": 0.5433070866141733
        },
        {
          "duration": 0.15625,
          "durationTicks": 96,
          "midi": 44,
          "name": "G#2",
          "ticks": 158016,
          "time": 257.1875,
          "velocity": 0.5433070866141733
        },
        {
          "duration": 2.1875,
          "durationTicks": 1344,
          "midi": 48,
          "name": "C3",
          "ticks": 158208,
          "time": 257.5,
          "velocity": 0.5433070866141733
        },
        {
          "duration": 2.1875,
          "durationTicks": 1344,
          "midi": 41,
          "name": "F2",
          "ticks": 158208,
          "time": 257.5,
          "velocity": 0.5433070866141733
        },
        {
          "duration": 2.1875,
          "durationTicks": 1344,
          "midi": 55,
          "name": "G3",
          "ticks": 159744,
          "time": 260,
          "velocity": 0.49606299212598426
        },
        {
          "duration": 2.1875,
          "durationTicks": 1344,
          "midi": 48,
          "name": "C3",
          "ticks": 159744,
          "time": 260,
          "velocity": 0.5433070866141733
        },
        {
          "duration": 2.1875,
          "durationTicks": 1344,
          "midi": 49,
          "name": "C#3",
          "ticks": 161280,
          "time": 262.5,
          "velocity": 0.5433070866141733
        },
        {
          "duration": 2.1875,
          "durationTicks": 1344,
          "midi": 56,
          "name": "G#3",
          "ticks": 161280,
          "time": 262.5,
          "velocity": 0.49606299212598426
        },
        {
          "duration": 2.1875,
          "durationTicks": 1344,
          "midi": 58,
          "name": "A#3",
          "ticks": 162816,
          "time": 265,
          "velocity": 0.49606299212598426
        },
        {
          "duration": 2.1875,
          "durationTicks": 1344,
          "midi": 51,
          "name": "D#3",
          "ticks": 162816,
          "time": 265,
          "velocity": 0.5433070866141733
        },
        {
          "duration": 2.1875,
          "durationTicks": 1344,
          "midi": 60,
          "name": "C4",
          "ticks": 164352,
          "time": 267.5,
          "velocity": 0.5433070866141733
        },
        {
          "duration": 2.1875,
          "durationTicks": 1344,
          "midi": 53,
          "name": "F3",
          "ticks": 164352,
          "time": 267.5,
          "velocity": 0.49606299212598426
        },
        {
          "duration": 0.625,
          "durationTicks": 384,
          "midi": 60,
          "name": "C4",
          "ticks": 165888,
          "time": 270,
          "velocity": 0.5433070866141733
        },
        {
          "duration": 0.625,
          "durationTicks": 384,
          "midi": 53,
          "name": "F3",
          "ticks": 165888,
          "time": 270,
          "velocity": 0.49606299212598426
        },
        {
          "duration": 2.1875,
          "durationTicks": 1344,
          "midi": 55,
          "name": "G3",
          "ticks": 172032,
          "time": 280,
          "velocity": 0.49606299212598426
        },
        {
          "duration": 2.1875,
          "durationTicks": 1344,
          "midi": 48,
          "name": "C3",
          "ticks": 172032,
          "time": 280,
          "velocity": 0.5433070866141733
        },
        {
          "duration": 2.1875,
          "durationTicks": 1344,
          "midi": 56,
          "name": "G#3",
          "ticks": 173568,
          "time": 282.5,
          "velocity": 0.49606299212598426
        },
        {
          "duration": 2.1875,
          "durationTicks": 1344,
          "midi": 49,
          "name": "C#3",
          "ticks": 173568,
          "time": 282.5,
          "velocity": 0.5433070866141733
        },
        {
          "duration": 1.875,
          "durationTicks": 1152,
          "midi": 53,
          "name": "F3",
          "ticks": 175104,
          "time": 285,
          "velocity": 0.49606299212598426
        },
        {
          "duration": 1.875,
          "durationTicks": 1152,
          "midi": 46,
          "name": "A#2",
          "ticks": 175104,
          "time": 285,
          "velocity": 0.5433070866141733
        },
        {
          "duration": 0.15625,
          "durationTicks": 96,
          "midi": 44,
          "name": "G#2",
          "ticks": 176448,
          "time": 287.1875,
          "velocity": 0.5433070866141733
        },
        {
          "duration": 0.15625,
          "durationTicks": 96,
          "midi": 51,
          "name": "D#3",
          "ticks": 176448,
          "time": 287.1875,
          "velocity": 0.5433070866141733
        },
        {
          "duration": 2.1875,
          "durationTicks": 1344,
          "midi": 48,
          "name": "C3",
          "ticks": 176640,
          "time": 287.5,
          "velocity": 0.5433070866141733
        },
        {
          "duration": 2.1875,
          "durationTicks": 1344,
          "midi": 41,
          "name": "F2",
          "ticks": 176640,
          "time": 287.5,
          "velocity": 0.5433070866141733
        },
        {
          "duration": 2.1875,
          "durationTicks": 1344,
          "midi": 55,
          "name": "G3",
          "ticks": 178176,
          "time": 290,
          "velocity": 0.49606299212598426
        },
        {
          "duration": 2.1875,
          "durationTicks": 1344,
          "midi": 48,
          "name": "C3",
          "ticks": 178176,
          "time": 290,
          "velocity": 0.5433070866141733
        },
        {
          "duration": 2.1875,
          "durationTicks": 1344,
          "midi": 56,
          "name": "G#3",
          "ticks": 179712,
          "time": 292.5,
          "velocity": 0.49606299212598426
        },
        {
          "duration": 2.1875,
          "durationTicks": 1344,
          "midi": 49,
          "name": "C#3",
          "ticks": 179712,
          "time": 292.5,
          "velocity": 0.5433070866141733
        },
        {
          "duration": 1.875,
          "durationTicks": 1152,
          "midi": 53,
          "name": "F3",
          "ticks": 181248,
          "time": 295,
          "velocity": 0.49606299212598426
        },
        {
          "duration": 1.875,
          "durationTicks": 1152,
          "midi": 46,
          "name": "A#2",
          "ticks": 181248,
          "time": 295,
          "velocity": 0.5433070866141733
        },
        {
          "duration": 0.15625,
          "durationTicks": 96,
          "midi": 51,
          "name": "D#3",
          "ticks": 182592,
          "time": 297.1875,
          "velocity": 0.5433070866141733
        },
        {
          "duration": 0.15625,
          "durationTicks": 96,
          "midi": 44,
          "name": "G#2",
          "ticks": 182592,
          "time": 297.1875,
          "velocity": 0.5433070866141733
        },
        {
          "duration": 2.1875,
          "durationTicks": 1344,
          "midi": 48,
          "name": "C3",
          "ticks": 182784,
          "time": 297.5,
          "velocity": 0.5433070866141733
        },
        {
          "duration": 2.1875,
          "durationTicks": 1344,
          "midi": 41,
          "name": "F2",
          "ticks": 182784,
          "time": 297.5,
          "velocity": 0.5433070866141733
        },
        {
          "duration": 2.1875,
          "durationTicks": 1344,
          "midi": 48,
          "name": "C3",
          "ticks": 184320,
          "time": 300,
          "velocity": 0.5433070866141733
        },
        {
          "duration": 2.1875,
          "durationTicks": 1344,
          "midi": 55,
          "name": "G3",
          "ticks": 184320,
          "time": 300,
          "velocity": 0.49606299212598426
        },
        {
          "duration": 2.1875,
          "durationTicks": 1344,
          "midi": 56,
          "name": "G#3",
          "ticks": 185856,
          "time": 302.5,
          "velocity": 0.49606299212598426
        },
        {
          "duration": 2.1875,
          "durationTicks": 1344,
          "midi": 49,
          "name": "C#3",
          "ticks": 185856,
          "time": 302.5,
          "velocity": 0.5433070866141733
        },
        {
          "duration": 2.1875,
          "durationTicks": 1344,
          "midi": 58,
          "name": "A#3",
          "ticks": 187392,
          "time": 305,
          "velocity": 0.49606299212598426
        },
        {
          "duration": 2.1875,
          "durationTicks": 1344,
          "midi": 51,
          "name": "D#3",
          "ticks": 187392,
          "time": 305,
          "velocity": 0.5433070866141733
        },
        {
          "duration": 2.1875,
          "durationTicks": 1344,
          "midi": 60,
          "name": "C4",
          "ticks": 188928,
          "time": 307.5,
          "velocity": 0.5433070866141733
        },
        {
          "duration": 2.1875,
          "durationTicks": 1344,
          "midi": 53,
          "name": "F3",
          "ticks": 188928,
          "time": 307.5,
          "velocity": 0.49606299212598426
        }
      ],
      "endOfTrackTicks": 190272
    }
  ]
}